<?xml version="1.0" encoding="utf-8"?>
<svg xmlns="http://www.w3.org/2000/svg" xmlns:xlink="http://www.w3.org/1999/xlink" width="600" height="600" viewBox="0 0 2400 2400">
<defs>
  <clipPath id="clip560">
    <rect x="0" y="0" width="2400" height="2400"/>
  </clipPath>
</defs>
<defs>
  <clipPath id="clip561">
    <rect x="480" y="240" width="1681" height="1681"/>
  </clipPath>
</defs>
<defs>
  <clipPath id="clip562">
    <rect x="362" y="47" width="1992" height="2128"/>
  </clipPath>
</defs>
<polyline clip-path="url(#clip560)" style="stroke:#000000; stroke-linecap:round; stroke-linejoin:round; stroke-width:4; stroke-opacity:1; fill:none" points="362.164,2174.14 2352.76,2174.14 "/>
<polyline clip-path="url(#clip560)" style="stroke:#000000; stroke-linecap:round; stroke-linejoin:round; stroke-width:4; stroke-opacity:1; fill:none" points="413.357,2174.14 413.357,2155.24 "/>
<polyline clip-path="url(#clip560)" style="stroke:#000000; stroke-linecap:round; stroke-linejoin:round; stroke-width:4; stroke-opacity:1; fill:none" points="927.855,2174.14 927.855,2155.24 "/>
<polyline clip-path="url(#clip560)" style="stroke:#000000; stroke-linecap:round; stroke-linejoin:round; stroke-width:4; stroke-opacity:1; fill:none" points="1442.35,2174.14 1442.35,2155.24 "/>
<polyline clip-path="url(#clip560)" style="stroke:#000000; stroke-linecap:round; stroke-linejoin:round; stroke-width:4; stroke-opacity:1; fill:none" points="1956.85,2174.14 1956.85,2155.24 "/>
<path clip-path="url(#clip560)" d="M413.357 2205.06 Q409.746 2205.06 407.917 2208.62 Q406.112 2212.16 406.112 2219.29 Q406.112 2226.4 407.917 2229.97 Q409.746 2233.51 413.357 2233.51 Q416.991 2233.51 418.797 2229.97 Q420.625 2226.4 420.625 2219.29 Q420.625 2212.16 418.797 2208.62 Q416.991 2205.06 413.357 2205.06 M413.357 2201.35 Q419.167 2201.35 422.223 2205.96 Q425.301 2210.54 425.301 2219.29 Q425.301 2228.02 422.223 2232.63 Q419.167 2237.21 413.357 2237.21 Q407.547 2237.21 404.468 2232.63 Q401.413 2228.02 401.413 2219.29 Q401.413 2210.54 404.468 2205.96 Q407.547 2201.35 413.357 2201.35 Z" fill="#000000" fill-rule="nonzero" fill-opacity="1" /><path clip-path="url(#clip560)" d="M887.461 2232.6 L895.1 2232.6 L895.1 2206.24 L886.79 2207.91 L886.79 2203.65 L895.054 2201.98 L899.73 2201.98 L899.73 2232.6 L907.369 2232.6 L907.369 2236.54 L887.461 2236.54 L887.461 2232.6 Z" fill="#000000" fill-rule="nonzero" fill-opacity="1" /><path clip-path="url(#clip560)" d="M926.813 2205.06 Q923.202 2205.06 921.373 2208.62 Q919.568 2212.16 919.568 2219.29 Q919.568 2226.4 921.373 2229.97 Q923.202 2233.51 926.813 2233.51 Q930.447 2233.51 932.253 2229.97 Q934.081 2226.4 934.081 2219.29 Q934.081 2212.16 932.253 2208.62 Q930.447 2205.06 926.813 2205.06 M926.813 2201.35 Q932.623 2201.35 935.679 2205.96 Q938.757 2210.54 938.757 2219.29 Q938.757 2228.02 935.679 2232.63 Q932.623 2237.21 926.813 2237.21 Q921.003 2237.21 917.924 2232.63 Q914.869 2228.02 914.869 2219.29 Q914.869 2210.54 917.924 2205.96 Q921.003 2201.35 926.813 2201.35 Z" fill="#000000" fill-rule="nonzero" fill-opacity="1" /><path clip-path="url(#clip560)" d="M956.975 2205.06 Q953.364 2205.06 951.535 2208.62 Q949.729 2212.16 949.729 2219.29 Q949.729 2226.4 951.535 2229.97 Q953.364 2233.51 956.975 2233.51 Q960.609 2233.51 962.415 2229.97 Q964.243 2226.4 964.243 2219.29 Q964.243 2212.16 962.415 2208.62 Q960.609 2205.06 956.975 2205.06 M956.975 2201.35 Q962.785 2201.35 965.841 2205.96 Q968.919 2210.54 968.919 2219.29 Q968.919 2228.02 965.841 2232.63 Q962.785 2237.21 956.975 2237.21 Q951.165 2237.21 948.086 2232.63 Q945.03 2228.02 945.03 2219.29 Q945.03 2210.54 948.086 2205.96 Q951.165 2201.35 956.975 2201.35 Z" fill="#000000" fill-rule="nonzero" fill-opacity="1" /><path clip-path="url(#clip560)" d="M1406.04 2232.6 L1422.36 2232.6 L1422.36 2236.54 L1400.42 2236.54 L1400.42 2232.6 Q1403.08 2229.85 1407.66 2225.22 Q1412.27 2220.57 1413.45 2219.23 Q1415.7 2216.7 1416.58 2214.97 Q1417.48 2213.21 1417.48 2211.52 Q1417.48 2208.76 1415.54 2207.03 Q1413.61 2205.29 1410.51 2205.29 Q1408.31 2205.29 1405.86 2206.05 Q1403.43 2206.82 1400.65 2208.37 L1400.65 2203.65 Q1403.48 2202.51 1405.93 2201.93 Q1408.38 2201.35 1410.42 2201.35 Q1415.79 2201.35 1418.98 2204.04 Q1422.18 2206.73 1422.18 2211.22 Q1422.18 2213.35 1421.37 2215.27 Q1420.58 2217.16 1418.48 2219.76 Q1417.9 2220.43 1414.79 2223.65 Q1411.69 2226.84 1406.04 2232.6 Z" fill="#000000" fill-rule="nonzero" fill-opacity="1" /><path clip-path="url(#clip560)" d="M1442.18 2205.06 Q1438.57 2205.06 1436.74 2208.62 Q1434.93 2212.16 1434.93 2219.29 Q1434.93 2226.4 1436.74 2229.97 Q1438.57 2233.51 1442.18 2233.51 Q1445.81 2233.51 1447.62 2229.97 Q1449.45 2226.4 1449.45 2219.29 Q1449.45 2212.16 1447.62 2208.62 Q1445.81 2205.06 1442.18 2205.06 M1442.18 2201.35 Q1447.99 2201.35 1451.04 2205.96 Q1454.12 2210.54 1454.12 2219.29 Q1454.12 2228.02 1451.04 2232.63 Q1447.99 2237.21 1442.18 2237.21 Q1436.37 2237.21 1433.29 2232.63 Q1430.23 2228.02 1430.23 2219.29 Q1430.23 2210.54 1433.29 2205.96 Q1436.37 2201.35 1442.18 2201.35 Z" fill="#000000" fill-rule="nonzero" fill-opacity="1" /><path clip-path="url(#clip560)" d="M1472.34 2205.06 Q1468.73 2205.06 1466.9 2208.62 Q1465.1 2212.16 1465.1 2219.29 Q1465.1 2226.4 1466.9 2229.97 Q1468.73 2233.51 1472.34 2233.51 Q1475.97 2233.51 1477.78 2229.97 Q1479.61 2226.4 1479.61 2219.29 Q1479.61 2212.16 1477.78 2208.62 Q1475.97 2205.06 1472.34 2205.06 M1472.34 2201.35 Q1478.15 2201.35 1481.21 2205.96 Q1484.28 2210.54 1484.28 2219.29 Q1484.28 2228.02 1481.21 2232.63 Q1478.15 2237.21 1472.34 2237.21 Q1466.53 2237.21 1463.45 2232.63 Q1460.4 2228.02 1460.4 2219.29 Q1460.4 2210.54 1463.45 2205.96 Q1466.53 2201.35 1472.34 2201.35 Z" fill="#000000" fill-rule="nonzero" fill-opacity="1" /><path clip-path="url(#clip560)" d="M1930.61 2217.91 Q1933.97 2218.62 1935.84 2220.89 Q1937.74 2223.16 1937.74 2226.49 Q1937.74 2231.61 1934.22 2234.41 Q1930.7 2237.21 1924.22 2237.21 Q1922.05 2237.21 1919.73 2236.77 Q1917.44 2236.35 1914.99 2235.5 L1914.99 2230.98 Q1916.93 2232.12 1919.25 2232.7 Q1921.56 2233.28 1924.08 2233.28 Q1928.48 2233.28 1930.77 2231.54 Q1933.09 2229.8 1933.09 2226.49 Q1933.09 2223.44 1930.94 2221.73 Q1928.81 2219.99 1924.99 2219.99 L1920.96 2219.99 L1920.96 2216.15 L1925.17 2216.15 Q1928.62 2216.15 1930.45 2214.78 Q1932.28 2213.39 1932.28 2210.8 Q1932.28 2208.14 1930.38 2206.73 Q1928.51 2205.29 1924.99 2205.29 Q1923.07 2205.29 1920.87 2205.71 Q1918.67 2206.12 1916.03 2207 L1916.03 2202.84 Q1918.69 2202.1 1921.01 2201.73 Q1923.34 2201.35 1925.4 2201.35 Q1930.73 2201.35 1933.83 2203.79 Q1936.93 2206.19 1936.93 2210.31 Q1936.93 2213.18 1935.29 2215.17 Q1933.64 2217.14 1930.61 2217.91 Z" fill="#000000" fill-rule="nonzero" fill-opacity="1" /><path clip-path="url(#clip560)" d="M1956.61 2205.06 Q1953 2205.06 1951.17 2208.62 Q1949.36 2212.16 1949.36 2219.29 Q1949.36 2226.4 1951.17 2229.97 Q1953 2233.51 1956.61 2233.51 Q1960.24 2233.51 1962.05 2229.97 Q1963.88 2226.4 1963.88 2219.29 Q1963.88 2212.16 1962.05 2208.62 Q1960.24 2205.06 1956.61 2205.06 M1956.61 2201.35 Q1962.42 2201.35 1965.47 2205.96 Q1968.55 2210.54 1968.55 2219.29 Q1968.55 2228.02 1965.47 2232.63 Q1962.42 2237.21 1956.61 2237.21 Q1950.8 2237.21 1947.72 2232.63 Q1944.66 2228.02 1944.66 2219.29 Q1944.66 2210.54 1947.72 2205.96 Q1950.8 2201.35 1956.61 2201.35 Z" fill="#000000" fill-rule="nonzero" fill-opacity="1" /><path clip-path="url(#clip560)" d="M1986.77 2205.06 Q1983.16 2205.06 1981.33 2208.62 Q1979.52 2212.16 1979.52 2219.29 Q1979.52 2226.4 1981.33 2229.97 Q1983.16 2233.51 1986.77 2233.51 Q1990.4 2233.51 1992.21 2229.97 Q1994.04 2226.4 1994.04 2219.29 Q1994.04 2212.16 1992.21 2208.62 Q1990.4 2205.06 1986.77 2205.06 M1986.77 2201.35 Q1992.58 2201.35 1995.63 2205.96 Q1998.71 2210.54 1998.71 2219.29 Q1998.71 2228.02 1995.63 2232.63 Q1992.58 2237.21 1986.77 2237.21 Q1980.96 2237.21 1977.88 2232.63 Q1974.82 2228.02 1974.82 2219.29 Q1974.82 2210.54 1977.88 2205.96 Q1980.96 2201.35 1986.77 2201.35 Z" fill="#000000" fill-rule="nonzero" fill-opacity="1" /><path clip-path="url(#clip560)" d="M1255.78 2271.48 L1262.69 2271.48 L1274.5 2289.15 L1286.37 2271.48 L1293.28 2271.48 L1278 2294.3 L1294.3 2319 L1287.39 2319 L1274.02 2298.79 L1260.56 2319 L1253.62 2319 L1270.58 2293.64 L1255.78 2271.48 Z" fill="#000000" fill-rule="nonzero" fill-opacity="1" /><path clip-path="url(#clip560)" d="M1337.26 2269.54 Q1333 2276.86 1330.93 2284.02 Q1328.86 2291.19 1328.86 2298.54 Q1328.86 2305.89 1330.93 2313.12 Q1333.03 2320.31 1337.26 2327.6 L1332.17 2327.6 Q1327.4 2320.12 1325.01 2312.89 Q1322.66 2305.67 1322.66 2298.54 Q1322.66 2291.44 1325.01 2284.25 Q1327.37 2277.05 1332.17 2269.54 L1337.26 2269.54 Z" fill="#000000" fill-rule="nonzero" fill-opacity="1" /><path clip-path="url(#clip560)" d="M1348.88 2271.48 L1355.31 2271.48 L1355.31 2291.57 L1376.64 2271.48 L1384.91 2271.48 L1361.33 2293.64 L1386.6 2319 L1378.13 2319 L1355.31 2296.12 L1355.31 2319 L1348.88 2319 L1348.88 2271.48 Z" fill="#000000" fill-rule="nonzero" fill-opacity="1" /><path clip-path="url(#clip560)" d="M1391.63 2271.48 L1401.21 2271.48 L1413.34 2303.82 L1425.53 2271.48 L1435.11 2271.48 L1435.11 2319 L1428.84 2319 L1428.84 2277.28 L1416.58 2309.87 L1410.12 2309.87 L1397.87 2277.28 L1397.87 2319 L1391.63 2319 L1391.63 2271.48 Z" fill="#000000" fill-rule="nonzero" fill-opacity="1" /><path clip-path="url(#clip560)" d="M1446.69 2269.54 L1451.78 2269.54 Q1456.56 2277.05 1458.91 2284.25 Q1461.3 2291.44 1461.3 2298.54 Q1461.3 2305.67 1458.91 2312.89 Q1456.56 2320.12 1451.78 2327.6 L1446.69 2327.6 Q1450.92 2320.31 1452.99 2313.12 Q1455.09 2305.89 1455.09 2298.54 Q1455.09 2291.19 1452.99 2284.02 Q1450.92 2276.86 1446.69 2269.54 Z" fill="#000000" fill-rule="nonzero" fill-opacity="1" /><polyline clip-path="url(#clip560)" style="stroke:#000000; stroke-linecap:round; stroke-linejoin:round; stroke-width:4; stroke-opacity:1; fill:none" points="362.164,2174.14 362.164,47.2441 "/>
<polyline clip-path="url(#clip560)" style="stroke:#000000; stroke-linecap:round; stroke-linejoin:round; stroke-width:4; stroke-opacity:1; fill:none" points="362.164,2137.4 381.062,2137.4 "/>
<polyline clip-path="url(#clip560)" style="stroke:#000000; stroke-linecap:round; stroke-linejoin:round; stroke-width:4; stroke-opacity:1; fill:none" points="362.164,1599.7 381.062,1599.7 "/>
<polyline clip-path="url(#clip560)" style="stroke:#000000; stroke-linecap:round; stroke-linejoin:round; stroke-width:4; stroke-opacity:1; fill:none" points="362.164,1062.01 381.062,1062.01 "/>
<polyline clip-path="url(#clip560)" style="stroke:#000000; stroke-linecap:round; stroke-linejoin:round; stroke-width:4; stroke-opacity:1; fill:none" points="362.164,524.319 381.062,524.319 "/>
<path clip-path="url(#clip560)" d="M153.622 2130.64 L141.816 2149.09 L153.622 2149.09 L153.622 2130.64 M152.395 2126.56 L158.275 2126.56 L158.275 2149.09 L163.205 2149.09 L163.205 2152.98 L158.275 2152.98 L158.275 2161.12 L153.622 2161.12 L153.622 2152.98 L138.02 2152.98 L138.02 2148.46 L152.395 2126.56 Z" fill="#000000" fill-rule="nonzero" fill-opacity="1" /><path clip-path="url(#clip560)" d="M170.937 2155.24 L175.821 2155.24 L175.821 2161.12 L170.937 2161.12 L170.937 2155.24 Z" fill="#000000" fill-rule="nonzero" fill-opacity="1" /><path clip-path="url(#clip560)" d="M196.006 2129.64 Q192.395 2129.64 190.566 2133.21 Q188.761 2136.75 188.761 2143.88 Q188.761 2150.98 190.566 2154.55 Q192.395 2158.09 196.006 2158.09 Q199.64 2158.09 201.446 2154.55 Q203.274 2150.98 203.274 2143.88 Q203.274 2136.75 201.446 2133.21 Q199.64 2129.64 196.006 2129.64 M196.006 2125.94 Q201.816 2125.94 204.872 2130.54 Q207.95 2135.13 207.95 2143.88 Q207.95 2152.6 204.872 2157.21 Q201.816 2161.79 196.006 2161.79 Q190.196 2161.79 187.117 2157.21 Q184.062 2152.6 184.062 2143.88 Q184.062 2135.13 187.117 2130.54 Q190.196 2125.94 196.006 2125.94 Z" fill="#000000" fill-rule="nonzero" fill-opacity="1" /><path clip-path="url(#clip560)" d="M244.339 2135.66 L233.76 2146.29 L244.339 2156.86 L241.584 2159.67 L230.959 2149.04 L220.335 2159.67 L217.603 2156.86 L228.159 2146.29 L217.603 2135.66 L220.335 2132.86 L230.959 2143.48 L241.584 2132.86 L244.339 2135.66 Z" fill="#000000" fill-rule="nonzero" fill-opacity="1" /><path clip-path="url(#clip560)" d="M256.7 2157.19 L264.339 2157.19 L264.339 2130.82 L256.029 2132.49 L256.029 2128.23 L264.293 2126.56 L268.969 2126.56 L268.969 2157.19 L276.607 2157.19 L276.607 2161.12 L256.7 2161.12 L256.7 2157.19 Z" fill="#000000" fill-rule="nonzero" fill-opacity="1" /><path clip-path="url(#clip560)" d="M296.052 2129.64 Q292.441 2129.64 290.612 2133.21 Q288.806 2136.75 288.806 2143.88 Q288.806 2150.98 290.612 2154.55 Q292.441 2158.09 296.052 2158.09 Q299.686 2158.09 301.492 2154.55 Q303.32 2150.98 303.32 2143.88 Q303.32 2136.75 301.492 2133.21 Q299.686 2129.64 296.052 2129.64 M296.052 2125.94 Q301.862 2125.94 304.917 2130.54 Q307.996 2135.13 307.996 2143.88 Q307.996 2152.6 304.917 2157.21 Q301.862 2161.79 296.052 2161.79 Q290.242 2161.79 287.163 2157.21 Q284.107 2152.6 284.107 2143.88 Q284.107 2135.13 287.163 2130.54 Q290.242 2125.94 296.052 2125.94 Z" fill="#000000" fill-rule="nonzero" fill-opacity="1" /><path clip-path="url(#clip560)" d="M309.181 2105.63 L324.096 2105.63 L324.096 2108.83 L312.66 2108.83 L312.66 2115.71 Q313.488 2115.43 314.316 2115.3 Q315.143 2115.15 315.971 2115.15 Q320.673 2115.15 323.418 2117.73 Q326.164 2120.3 326.164 2124.7 Q326.164 2129.24 323.343 2131.76 Q320.522 2134.26 315.388 2134.26 Q313.62 2134.26 311.776 2133.96 Q309.952 2133.66 307.996 2133.05 L307.996 2129.24 Q309.689 2130.16 311.494 2130.61 Q313.3 2131.06 315.312 2131.06 Q318.566 2131.06 320.466 2129.35 Q322.365 2127.64 322.365 2124.7 Q322.365 2121.77 320.466 2120.06 Q318.566 2118.35 315.312 2118.35 Q313.789 2118.35 312.265 2118.69 Q310.761 2119.02 309.181 2119.74 L309.181 2105.63 Z" fill="#000000" fill-rule="nonzero" fill-opacity="1" /><path clip-path="url(#clip560)" d="M151.353 1604.29 Q148.205 1604.29 146.353 1606.44 Q144.525 1608.59 144.525 1612.34 Q144.525 1616.07 146.353 1618.25 Q148.205 1620.4 151.353 1620.4 Q154.502 1620.4 156.33 1618.25 Q158.182 1616.07 158.182 1612.34 Q158.182 1608.59 156.33 1606.44 Q154.502 1604.29 151.353 1604.29 M160.636 1589.63 L160.636 1593.89 Q158.877 1593.06 157.071 1592.62 Q155.289 1592.18 153.529 1592.18 Q148.9 1592.18 146.446 1595.31 Q144.015 1598.43 143.668 1604.75 Q145.034 1602.74 147.094 1601.67 Q149.154 1600.58 151.631 1600.58 Q156.84 1600.58 159.849 1603.76 Q162.881 1606.9 162.881 1612.34 Q162.881 1617.67 159.733 1620.88 Q156.585 1624.1 151.353 1624.1 Q145.358 1624.1 142.187 1619.52 Q139.016 1614.91 139.016 1606.19 Q139.016 1597.99 142.904 1593.13 Q146.793 1588.25 153.344 1588.25 Q155.103 1588.25 156.886 1588.59 Q158.691 1588.94 160.636 1589.63 Z" fill="#000000" fill-rule="nonzero" fill-opacity="1" /><path clip-path="url(#clip560)" d="M170.937 1617.55 L175.821 1617.55 L175.821 1623.43 L170.937 1623.43 L170.937 1617.55 Z" fill="#000000" fill-rule="nonzero" fill-opacity="1" /><path clip-path="url(#clip560)" d="M196.006 1591.95 Q192.395 1591.95 190.566 1595.51 Q188.761 1599.06 188.761 1606.19 Q188.761 1613.29 190.566 1616.86 Q192.395 1620.4 196.006 1620.4 Q199.64 1620.4 201.446 1616.86 Q203.274 1613.29 203.274 1606.19 Q203.274 1599.06 201.446 1595.51 Q199.64 1591.95 196.006 1591.95 M196.006 1588.25 Q201.816 1588.25 204.872 1592.85 Q207.95 1597.44 207.95 1606.19 Q207.95 1614.91 204.872 1619.52 Q201.816 1624.1 196.006 1624.1 Q190.196 1624.1 187.117 1619.52 Q184.062 1614.91 184.062 1606.19 Q184.062 1597.44 187.117 1592.85 Q190.196 1588.25 196.006 1588.25 Z" fill="#000000" fill-rule="nonzero" fill-opacity="1" /><path clip-path="url(#clip560)" d="M244.339 1597.97 L233.76 1608.59 L244.339 1619.17 L241.584 1621.97 L230.959 1611.35 L220.335 1621.97 L217.603 1619.17 L228.159 1608.59 L217.603 1597.97 L220.335 1595.17 L230.959 1605.79 L241.584 1595.17 L244.339 1597.97 Z" fill="#000000" fill-rule="nonzero" fill-opacity="1" /><path clip-path="url(#clip560)" d="M256.7 1619.5 L264.339 1619.5 L264.339 1593.13 L256.029 1594.8 L256.029 1590.54 L264.293 1588.87 L268.969 1588.87 L268.969 1619.5 L276.607 1619.5 L276.607 1623.43 L256.7 1623.43 L256.7 1619.5 Z" fill="#000000" fill-rule="nonzero" fill-opacity="1" /><path clip-path="url(#clip560)" d="M296.052 1591.95 Q292.441 1591.95 290.612 1595.51 Q288.806 1599.06 288.806 1606.19 Q288.806 1613.29 290.612 1616.86 Q292.441 1620.4 296.052 1620.4 Q299.686 1620.4 301.492 1616.86 Q303.32 1613.29 303.32 1606.19 Q303.32 1599.06 301.492 1595.51 Q299.686 1591.95 296.052 1591.95 M296.052 1588.25 Q301.862 1588.25 304.917 1592.85 Q307.996 1597.44 307.996 1606.19 Q307.996 1614.91 304.917 1619.52 Q301.862 1624.1 296.052 1624.1 Q290.242 1624.1 287.163 1619.52 Q284.107 1614.91 284.107 1606.19 Q284.107 1597.44 287.163 1592.85 Q290.242 1588.25 296.052 1588.25 Z" fill="#000000" fill-rule="nonzero" fill-opacity="1" /><path clip-path="url(#clip560)" d="M309.181 1567.94 L324.096 1567.94 L324.096 1571.14 L312.66 1571.14 L312.66 1578.02 Q313.488 1577.74 314.316 1577.61 Q315.143 1577.46 315.971 1577.46 Q320.673 1577.46 323.418 1580.03 Q326.164 1582.61 326.164 1587.01 Q326.164 1591.54 323.343 1594.06 Q320.522 1596.57 315.388 1596.57 Q313.62 1596.57 311.776 1596.27 Q309.952 1595.96 307.996 1595.36 L307.996 1591.54 Q309.689 1592.47 311.494 1592.92 Q313.3 1593.37 315.312 1593.37 Q318.566 1593.37 320.466 1591.66 Q322.365 1589.95 322.365 1587.01 Q322.365 1584.08 320.466 1582.37 Q318.566 1580.65 315.312 1580.65 Q313.789 1580.65 312.265 1580.99 Q310.761 1581.33 309.181 1582.05 L309.181 1567.94 Z" fill="#000000" fill-rule="nonzero" fill-opacity="1" /><path clip-path="url(#clip560)" d="M150.775 1069.33 Q147.441 1069.33 145.52 1071.11 Q143.622 1072.89 143.622 1076.02 Q143.622 1079.14 145.52 1080.92 Q147.441 1082.71 150.775 1082.71 Q154.108 1082.71 156.029 1080.92 Q157.951 1079.12 157.951 1076.02 Q157.951 1072.89 156.029 1071.11 Q154.131 1069.33 150.775 1069.33 M146.099 1067.34 Q143.09 1066.6 141.4 1064.54 Q139.733 1062.47 139.733 1059.51 Q139.733 1055.37 142.673 1052.96 Q145.636 1050.55 150.775 1050.55 Q155.937 1050.55 158.877 1052.96 Q161.816 1055.37 161.816 1059.51 Q161.816 1062.47 160.127 1064.54 Q158.46 1066.6 155.474 1067.34 Q158.853 1068.12 160.728 1070.41 Q162.627 1072.71 162.627 1076.02 Q162.627 1081.04 159.548 1083.72 Q156.492 1086.41 150.775 1086.41 Q145.057 1086.41 141.978 1083.72 Q138.923 1081.04 138.923 1076.02 Q138.923 1072.71 140.821 1070.41 Q142.719 1068.12 146.099 1067.34 M144.386 1059.95 Q144.386 1062.64 146.053 1064.14 Q147.742 1065.65 150.775 1065.65 Q153.784 1065.65 155.474 1064.14 Q157.187 1062.64 157.187 1059.95 Q157.187 1057.27 155.474 1055.76 Q153.784 1054.26 150.775 1054.26 Q147.742 1054.26 146.053 1055.76 Q144.386 1057.27 144.386 1059.95 Z" fill="#000000" fill-rule="nonzero" fill-opacity="1" /><path clip-path="url(#clip560)" d="M170.937 1079.86 L175.821 1079.86 L175.821 1085.74 L170.937 1085.74 L170.937 1079.86 Z" fill="#000000" fill-rule="nonzero" fill-opacity="1" /><path clip-path="url(#clip560)" d="M196.006 1054.26 Q192.395 1054.26 190.566 1057.82 Q188.761 1061.36 188.761 1068.49 Q188.761 1075.6 190.566 1079.16 Q192.395 1082.71 196.006 1082.71 Q199.64 1082.71 201.446 1079.16 Q203.274 1075.6 203.274 1068.49 Q203.274 1061.36 201.446 1057.82 Q199.64 1054.26 196.006 1054.26 M196.006 1050.55 Q201.816 1050.55 204.872 1055.16 Q207.95 1059.74 207.95 1068.49 Q207.95 1077.22 204.872 1081.83 Q201.816 1086.41 196.006 1086.41 Q190.196 1086.41 187.117 1081.83 Q184.062 1077.22 184.062 1068.49 Q184.062 1059.74 187.117 1055.16 Q190.196 1050.55 196.006 1050.55 Z" fill="#000000" fill-rule="nonzero" fill-opacity="1" /><path clip-path="url(#clip560)" d="M244.339 1060.28 L233.76 1070.9 L244.339 1081.48 L241.584 1084.28 L230.959 1073.66 L220.335 1084.28 L217.603 1081.48 L228.159 1070.9 L217.603 1060.28 L220.335 1057.48 L230.959 1068.1 L241.584 1057.48 L244.339 1060.28 Z" fill="#000000" fill-rule="nonzero" fill-opacity="1" /><path clip-path="url(#clip560)" d="M256.7 1081.8 L264.339 1081.8 L264.339 1055.44 L256.029 1057.1 L256.029 1052.85 L264.293 1051.18 L268.969 1051.18 L268.969 1081.8 L276.607 1081.8 L276.607 1085.74 L256.7 1085.74 L256.7 1081.8 Z" fill="#000000" fill-rule="nonzero" fill-opacity="1" /><path clip-path="url(#clip560)" d="M296.052 1054.26 Q292.441 1054.26 290.612 1057.82 Q288.806 1061.36 288.806 1068.49 Q288.806 1075.6 290.612 1079.16 Q292.441 1082.71 296.052 1082.71 Q299.686 1082.71 301.492 1079.16 Q303.32 1075.6 303.32 1068.49 Q303.32 1061.36 301.492 1057.82 Q299.686 1054.26 296.052 1054.26 M296.052 1050.55 Q301.862 1050.55 304.917 1055.16 Q307.996 1059.74 307.996 1068.49 Q307.996 1077.22 304.917 1081.83 Q301.862 1086.41 296.052 1086.41 Q290.242 1086.41 287.163 1081.83 Q284.107 1077.22 284.107 1068.49 Q284.107 1059.74 287.163 1055.16 Q290.242 1050.55 296.052 1050.55 Z" fill="#000000" fill-rule="nonzero" fill-opacity="1" /><path clip-path="url(#clip560)" d="M309.181 1030.25 L324.096 1030.25 L324.096 1033.45 L312.66 1033.45 L312.66 1040.33 Q313.488 1040.05 314.316 1039.92 Q315.143 1039.77 315.971 1039.77 Q320.673 1039.77 323.418 1042.34 Q326.164 1044.92 326.164 1049.32 Q326.164 1053.85 323.343 1056.37 Q320.522 1058.87 315.388 1058.87 Q313.62 1058.87 311.776 1058.57 Q309.952 1058.27 307.996 1057.67 L307.996 1053.85 Q309.689 1054.77 311.494 1055.23 Q313.3 1055.68 315.312 1055.68 Q318.566 1055.68 320.466 1053.96 Q322.365 1052.25 322.365 1049.32 Q322.365 1046.39 320.466 1044.67 Q318.566 1042.96 315.312 1042.96 Q313.789 1042.96 312.265 1043.3 Q310.761 1043.64 309.181 1044.35 L309.181 1030.25 Z" fill="#000000" fill-rule="nonzero" fill-opacity="1" /><path clip-path="url(#clip560)" d="M140.362 544.111 L148.001 544.111 L148.001 517.746 L139.691 519.412 L139.691 515.153 L147.955 513.486 L152.631 513.486 L152.631 544.111 L160.27 544.111 L160.27 548.046 L140.362 548.046 L140.362 544.111 Z" fill="#000000" fill-rule="nonzero" fill-opacity="1" /><path clip-path="url(#clip560)" d="M169.714 542.167 L174.598 542.167 L174.598 548.046 L169.714 548.046 L169.714 542.167 Z" fill="#000000" fill-rule="nonzero" fill-opacity="1" /><path clip-path="url(#clip560)" d="M194.783 516.565 Q191.172 516.565 189.344 520.13 Q187.538 523.672 187.538 530.801 Q187.538 537.908 189.344 541.472 Q191.172 545.014 194.783 545.014 Q198.418 545.014 200.223 541.472 Q202.052 537.908 202.052 530.801 Q202.052 523.672 200.223 520.13 Q198.418 516.565 194.783 516.565 M194.783 512.861 Q200.594 512.861 203.649 517.468 Q206.728 522.051 206.728 530.801 Q206.728 539.528 203.649 544.134 Q200.594 548.718 194.783 548.718 Q188.973 548.718 185.895 544.134 Q182.839 539.528 182.839 530.801 Q182.839 522.051 185.895 517.468 Q188.973 512.861 194.783 512.861 Z" fill="#000000" fill-rule="nonzero" fill-opacity="1" /><path clip-path="url(#clip560)" d="M243.117 522.584 L232.538 533.209 L243.117 543.787 L240.362 546.588 L229.737 535.963 L219.112 546.588 L216.381 543.787 L226.936 533.209 L216.381 522.584 L219.112 519.783 L229.737 530.408 L240.362 519.783 L243.117 522.584 Z" fill="#000000" fill-rule="nonzero" fill-opacity="1" /><path clip-path="url(#clip560)" d="M255.478 544.111 L263.116 544.111 L263.116 517.746 L254.806 519.412 L254.806 515.153 L263.07 513.486 L267.746 513.486 L267.746 544.111 L275.385 544.111 L275.385 548.046 L255.478 548.046 L255.478 544.111 Z" fill="#000000" fill-rule="nonzero" fill-opacity="1" /><path clip-path="url(#clip560)" d="M294.829 516.565 Q291.218 516.565 289.389 520.13 Q287.584 523.672 287.584 530.801 Q287.584 537.908 289.389 541.472 Q291.218 545.014 294.829 545.014 Q298.463 545.014 300.269 541.472 Q302.098 537.908 302.098 530.801 Q302.098 523.672 300.269 520.13 Q298.463 516.565 294.829 516.565 M294.829 512.861 Q300.639 512.861 303.695 517.468 Q306.774 522.051 306.774 530.801 Q306.774 539.528 303.695 544.134 Q300.639 548.718 294.829 548.718 Q289.019 548.718 285.94 544.134 Q282.885 539.528 282.885 530.801 Q282.885 522.051 285.94 517.468 Q289.019 512.861 294.829 512.861 Z" fill="#000000" fill-rule="nonzero" fill-opacity="1" /><path clip-path="url(#clip560)" d="M316.798 505.082 Q314.24 505.082 312.736 506.831 Q311.25 508.58 311.25 511.627 Q311.25 514.655 312.736 516.423 Q314.24 518.172 316.798 518.172 Q319.356 518.172 320.842 516.423 Q322.346 514.655 322.346 511.627 Q322.346 508.58 320.842 506.831 Q319.356 505.082 316.798 505.082 M324.34 493.177 L324.34 496.637 Q322.911 495.96 321.444 495.603 Q319.995 495.246 318.566 495.246 Q314.805 495.246 312.811 497.785 Q310.836 500.324 310.554 505.458 Q311.664 503.822 313.338 502.957 Q315.011 502.073 317.024 502.073 Q321.256 502.073 323.701 504.649 Q326.164 507.207 326.164 511.627 Q326.164 515.953 323.607 518.567 Q321.049 521.181 316.798 521.181 Q311.927 521.181 309.35 517.458 Q306.774 513.715 306.774 506.624 Q306.774 499.966 309.933 496.017 Q313.093 492.048 318.416 492.048 Q319.845 492.048 321.293 492.33 Q322.76 492.612 324.34 493.177 Z" fill="#000000" fill-rule="nonzero" fill-opacity="1" /><path clip-path="url(#clip560)" d="M40.2442 1213.15 L40.2442 1206.24 L59.7869 1193.06 L40.2442 1179.98 L40.2442 1173.08 L65.1341 1189.88 L87.7642 1189.88 L87.7642 1196.34 L65.1341 1196.34 L40.2442 1213.15 Z" fill="#000000" fill-rule="nonzero" fill-opacity="1" /><path clip-path="url(#clip560)" d="M38.3026 1132.27 Q45.6232 1136.54 52.7846 1138.61 Q59.946 1140.67 67.2984 1140.67 Q74.6508 1140.67 81.8759 1138.61 Q89.0691 1136.5 96.3579 1132.27 L96.3579 1137.36 Q88.8782 1142.14 81.6531 1144.53 Q74.428 1146.88 67.2984 1146.88 Q60.2006 1146.88 53.0074 1144.53 Q45.8142 1142.17 38.3026 1137.36 L38.3026 1132.27 Z" fill="#000000" fill-rule="nonzero" fill-opacity="1" /><path clip-path="url(#clip560)" d="M40.2442 1120.65 L40.2442 1114.22 L60.328 1114.22 L40.2442 1092.9 L40.2442 1084.62 L62.3968 1108.21 L87.7642 1082.94 L87.7642 1091.4 L64.8794 1114.22 L87.7642 1114.22 L87.7642 1120.65 L40.2442 1120.65 Z" fill="#000000" fill-rule="nonzero" fill-opacity="1" /><path clip-path="url(#clip560)" d="M40.2442 1077.91 L40.2442 1068.33 L72.5819 1056.2 L40.2442 1044.01 L40.2442 1034.43 L87.7642 1034.43 L87.7642 1040.7 L46.037 1040.7 L78.6294 1052.96 L78.6294 1059.42 L46.037 1071.67 L87.7642 1071.67 L87.7642 1077.91 L40.2442 1077.91 Z" fill="#000000" fill-rule="nonzero" fill-opacity="1" /><path clip-path="url(#clip560)" d="M38.3026 1022.85 L38.3026 1017.75 Q45.8142 1012.98 53.0074 1010.62 Q60.2006 1008.24 67.2984 1008.24 Q74.428 1008.24 81.6531 1010.62 Q88.8782 1012.98 96.3579 1017.75 L96.3579 1022.85 Q89.0691 1018.61 81.8759 1016.54 Q74.6508 1014.44 67.2984 1014.44 Q59.946 1014.44 52.7846 1016.54 Q45.6232 1018.61 38.3026 1022.85 Z" fill="#000000" fill-rule="nonzero" fill-opacity="1" /><polyline clip-path="url(#clip562)" style="stroke:#1f83ff; stroke-linecap:round; stroke-linejoin:round; stroke-width:4; stroke-opacity:1; fill:none" points="418.502,1609.01 423.647,1669.68 428.792,1727.32 433.937,1781.19 439.082,1830.5 444.227,1874.39 449.372,1912.03 454.517,1942.63 459.662,1965.48 464.807,1980.01 469.952,1985.84 475.097,1982.84 480.242,1971.12 485.387,1951.02 490.532,1923.07 495.677,1887.98 500.822,1846.53 505.967,1799.54 511.111,1747.86 516.256,1692.27 521.401,1633.54 526.546,1572.34 531.691,1509.31 536.836,1444.99 541.981,1379.89 547.126,1314.45 552.271,1249.06 557.416,1184.07 562.561,1119.79 567.706,1056.49 572.851,994.416 577.996,933.787 583.141,874.797 588.286,817.616 593.431,762.39 598.576,709.251 603.721,658.314 608.866,609.685 614.011,563.457 619.156,519.718 624.301,478.546 629.446,440.013 634.591,404.181 639.736,371.108 644.881,340.843 650.026,313.43 655.171,288.908 660.316,267.309 665.461,248.658 670.606,232.978 675.751,220.284 680.896,210.588 686.041,203.895 691.186,200.209 696.331,199.527 701.476,201.843 706.621,207.148 711.766,215.431 716.911,226.678 722.056,240.873 727.201,257.995 732.345,278.024 737.49,300.928 742.635,326.674 747.78,355.216 752.925,386.507 758.07,420.492 763.215,457.113 768.36,496.306 773.505,538.006 778.65,582.139 783.795,628.629 788.94,677.389 794.085,728.329 799.23,781.349 804.375,836.338 809.52,893.177 814.665,951.735 819.81,1011.87 824.955,1073.42 830.1,1136.21 835.245,1200.05 840.39,1264.72 845.535,1329.99 850.68,1395.6 855.825,1461.25 860.97,1526.6 866.115,1591.29 871.26,1654.92 876.405,1717.04 881.55,1777.08 886.695,1834.46 891.84,1888.53 896.985,1938.59 902.13,1983.88 907.275,2023.62 912.42,2057 917.565,2083.29 922.71,2101.84 927.855,2112.16 933,2113.94 938.145,2107.14 943.29,2091.92 948.435,2068.69 953.579,2038.02 958.724,2000.61 963.869,1957.23 969.014,1908.68 974.159,1855.72 979.304,1799.09 984.449,1739.48 989.594,1677.48 994.739,1613.68 999.884,1548.56 1005.03,1482.57 1010.17,1416.12 1015.32,1349.55 1020.46,1283.19 1025.61,1217.33 1030.75,1152.22 1035.9,1088.09 1041.04,1025.16 1046.19,963.605 1051.33,903.601 1056.48,845.303 1061.62,788.858 1066.77,734.4 1071.91,682.055 1077.06,631.94 1082.2,584.163 1087.35,538.826 1092.49,496.021 1097.64,455.834 1102.78,418.344 1107.93,383.624 1113.07,351.739 1118.22,322.749 1123.36,296.707 1128.51,273.663 1133.65,253.659 1138.8,236.733 1143.94,222.917 1149.09,212.241 1154.23,204.731 1159.38,200.408 1164.52,199.292 1169.67,201.399 1174.81,206.744 1179.96,215.335 1185.1,227.175 1190.25,242.258 1195.39,260.569 1200.54,282.089 1205.68,306.786 1210.83,334.626 1215.97,365.569 1221.12,399.569 1226.26,436.575 1231.41,476.526 1236.55,519.357 1241.7,564.991 1246.84,613.34 1251.99,664.306 1257.13,717.774 1262.28,773.618 1267.42,831.69 1272.57,891.828 1277.71,953.843 1282.86,1017.52 1288,1082.64 1293.15,1148.91 1298.29,1216.03 1303.44,1283.67 1308.58,1351.44 1313.73,1418.9 1318.87,1485.56 1324.02,1550.89 1329.16,1614.26 1334.31,1675.01 1339.45,1732.4 1344.6,1785.61 1349.74,1833.82 1354.89,1876.13 1360.03,1911.68 1365.18,1939.67 1370.32,1959.41 1375.47,1970.37 1380.61,1972.27 1385.76,1965.06 1390.9,1948.98 1396.05,1924.48 1401.19,1892.19 1406.34,1852.9 1411.48,1807.46 1416.63,1756.74 1421.77,1701.58 1426.92,1642.8 1432.06,1581.13 1437.21,1517.27 1442.35,1451.81 1447.5,1385.29 1452.64,1318.21 1457.79,1250.98 1462.93,1183.98 1468.08,1117.53 1473.22,1051.95 1478.37,987.472 1483.51,924.346 1488.66,862.774 1493.8,802.936 1498.95,744.993 1504.09,689.085 1509.24,635.333 1514.38,583.842 1519.53,534.706 1524.67,488.009 1529.82,443.827 1534.96,402.229 1540.11,363.275 1545.25,327.022 1550.4,293.519 1555.54,262.81 1560.69,234.932 1565.83,209.918 1570.98,187.793 1576.12,168.579 1581.27,152.291 1586.41,138.941 1591.56,128.535 1596.7,121.075 1601.85,116.558 1606.99,114.979 1612.14,116.33 1617.28,120.598 1622.43,127.77 1627.57,137.829 1632.72,150.758 1637.86,166.535 1643.01,185.139 1648.15,206.539 1653.3,230.704 1658.44,257.593 1663.59,287.16 1668.73,319.352 1673.88,354.115 1679.02,391.388 1684.17,431.107 1689.31,473.205 1694.46,517.611 1699.6,564.247 1704.75,613.031 1709.89,663.876 1715.04,716.684 1720.18,771.353 1725.33,827.768 1730.47,885.808 1735.62,945.345 1740.76,1006.23 1745.91,1068.3 1751.05,1131.38 1756.2,1195.26 1761.34,1259.74 1766.49,1324.59 1771.63,1389.53 1776.78,1454.29 1781.92,1518.53 1787.07,1581.9 1792.21,1643.99 1797.36,1704.36 1802.5,1762.5 1807.65,1817.87 1812.79,1869.86 1817.94,1917.8 1823.08,1961.01 1828.23,1998.78 1833.37,2030.38 1838.52,2055.18 1843.66,2072.61 1848.81,2082.24 1853.95,2083.82 1859.1,2077.31 1864.24,2062.87 1869.39,2040.85 1874.53,2011.75 1879.68,1976.2 1884.82,1934.88 1889.97,1888.51 1895.11,1837.78 1900.26,1783.38 1905.4,1725.92 1910.55,1666 1915.69,1604.12 1920.84,1540.78 1925.98,1476.39 1931.13,1411.34 1936.27,1345.96 1941.42,1280.58 1946.56,1215.46 1951.7,1150.84 1956.85,1086.96 1961.99,1024 1967.14,962.162 1972.28,901.598 1977.43,842.468 1982.57,784.914 1987.72,729.072 1992.86,675.063 1998.01,623.003 2003.15,572.998 2008.3,525.147 2013.44,479.541 2018.59,436.264 2023.73,395.394 2028.88,357.003 2034.02,321.157 2039.17,287.917 2044.31,257.337 2049.46,229.47 2054.6,204.362 2059.75,182.058 2064.89,162.596 2070.04,146.015 2075.18,132.348 2080.33,121.629 2085.47,113.888 2090.62,109.15 2095.76,107.439 2100.91,108.772 2106.05,113.157 2111.2,120.6 2116.34,131.099 2121.49,144.646 2126.63,161.234 2131.78,180.849 2136.92,203.477 2142.07,229.098 2147.21,257.69 2152.36,289.224 2157.5,323.664 2162.65,360.969 2167.79,401.086 2172.94,443.959 2178.08,489.521 2183.23,537.694 2188.37,588.39 2193.52,641.507 2198.66,696.929 2203.81,754.527 2208.95,814.153 2214.1,875.641 2219.24,938.806 2224.39,1003.44 2229.53,1069.3 2234.68,1136.14 2239.82,1203.64 2244.97,1271.48 2250.11,1339.29 2255.26,1406.64 2260.4,1473.05 2265.55,1537.98 2270.69,1600.82 2275.84,1660.9 2280.98,1717.48 2286.13,1769.76 2291.27,1816.91 2296.42,1858.07 "/>
<path clip-path="url(#clip560)" d="M2034.91 2103.24 L2286.4 2103.24 L2286.4 1999.56 L2034.91 1999.56  Z" fill="#000000" fill-rule="evenodd" fill-opacity="0"/>
<polyline clip-path="url(#clip560)" style="stroke:#000000; stroke-linecap:round; stroke-linejoin:round; stroke-width:4; stroke-opacity:1; fill:none" points="2034.91,2103.24 2286.4,2103.24 2286.4,1999.56 2034.91,1999.56 2034.91,2103.24 "/>
<polyline clip-path="url(#clip560)" style="stroke:#1f83ff; stroke-linecap:round; stroke-linejoin:round; stroke-width:4; stroke-opacity:1; fill:none" points="2057.03,2051.4 2189.74,2051.4 "/>
<path clip-path="url(#clip560)" d="M2225.7 2071.09 Q2223.89 2075.72 2222.18 2077.13 Q2220.47 2078.54 2217.6 2078.54 L2214.19 2078.54 L2214.19 2074.98 L2216.69 2074.98 Q2218.45 2074.98 2219.42 2074.15 Q2220.4 2073.31 2221.58 2070.21 L2222.34 2068.27 L2211.85 2042.76 L2216.37 2042.76 L2224.47 2063.04 L2232.57 2042.76 L2237.09 2042.76 L2225.7 2071.09 Z" fill="#000000" fill-rule="nonzero" fill-opacity="1" /><path clip-path="url(#clip560)" d="M2244.38 2064.75 L2252.02 2064.75 L2252.02 2038.38 L2243.71 2040.05 L2243.71 2035.79 L2251.97 2034.12 L2256.65 2034.12 L2256.65 2064.75 L2264.29 2064.75 L2264.29 2068.68 L2244.38 2068.68 L2244.38 2064.75 Z" fill="#000000" fill-rule="nonzero" fill-opacity="1" /></svg>
