<?xml version="1.0" encoding="utf-8"?>
<svg xmlns="http://www.w3.org/2000/svg" xmlns:xlink="http://www.w3.org/1999/xlink" width="600" height="400" viewBox="0 0 2400 1600">
<defs>
  <clipPath id="clip530">
    <rect x="0" y="0" width="2400" height="1600"/>
  </clipPath>
</defs>
<path clip-path="url(#clip530)" d="M0 1600 L2400 1600 L2400 0 L0 0  Z" fill="#ffffff" fill-rule="evenodd" fill-opacity="1"/>
<defs>
  <clipPath id="clip531">
    <rect x="480" y="0" width="1681" height="1600"/>
  </clipPath>
</defs>
<path clip-path="url(#clip530)" d="M406.671 1410.9 L2352.76 1410.9 L2352.76 123.472 L406.671 123.472  Z" fill="#ffffff" fill-rule="evenodd" fill-opacity="1"/>
<defs>
  <clipPath id="clip532">
    <rect x="406" y="123" width="1947" height="1288"/>
  </clipPath>
</defs>
<polyline clip-path="url(#clip532)" style="stroke:#000000; stroke-linecap:round; stroke-linejoin:round; stroke-width:2; stroke-opacity:0.1; fill:none" points="834.341,1410.9 834.341,123.472 "/>
<polyline clip-path="url(#clip532)" style="stroke:#000000; stroke-linecap:round; stroke-linejoin:round; stroke-width:2; stroke-opacity:0.1; fill:none" points="1335.78,1410.9 1335.78,123.472 "/>
<polyline clip-path="url(#clip532)" style="stroke:#000000; stroke-linecap:round; stroke-linejoin:round; stroke-width:2; stroke-opacity:0.1; fill:none" points="1837.22,1410.9 1837.22,123.472 "/>
<polyline clip-path="url(#clip532)" style="stroke:#000000; stroke-linecap:round; stroke-linejoin:round; stroke-width:2; stroke-opacity:0.1; fill:none" points="2338.65,1410.9 2338.65,123.472 "/>
<polyline clip-path="url(#clip532)" style="stroke:#000000; stroke-linecap:round; stroke-linejoin:round; stroke-width:2; stroke-opacity:0.1; fill:none" points="406.671,1262.48 2352.76,1262.48 "/>
<polyline clip-path="url(#clip532)" style="stroke:#000000; stroke-linecap:round; stroke-linejoin:round; stroke-width:2; stroke-opacity:0.1; fill:none" points="406.671,1098.09 2352.76,1098.09 "/>
<polyline clip-path="url(#clip532)" style="stroke:#000000; stroke-linecap:round; stroke-linejoin:round; stroke-width:2; stroke-opacity:0.1; fill:none" points="406.671,933.7 2352.76,933.7 "/>
<polyline clip-path="url(#clip532)" style="stroke:#000000; stroke-linecap:round; stroke-linejoin:round; stroke-width:2; stroke-opacity:0.1; fill:none" points="406.671,769.31 2352.76,769.31 "/>
<polyline clip-path="url(#clip532)" style="stroke:#000000; stroke-linecap:round; stroke-linejoin:round; stroke-width:2; stroke-opacity:0.1; fill:none" points="406.671,604.92 2352.76,604.92 "/>
<polyline clip-path="url(#clip532)" style="stroke:#000000; stroke-linecap:round; stroke-linejoin:round; stroke-width:2; stroke-opacity:0.1; fill:none" points="406.671,440.529 2352.76,440.529 "/>
<polyline clip-path="url(#clip532)" style="stroke:#000000; stroke-linecap:round; stroke-linejoin:round; stroke-width:2; stroke-opacity:0.1; fill:none" points="406.671,276.139 2352.76,276.139 "/>
<polyline clip-path="url(#clip530)" style="stroke:#000000; stroke-linecap:round; stroke-linejoin:round; stroke-width:4; stroke-opacity:1; fill:none" points="406.671,1410.9 2352.76,1410.9 "/>
<polyline clip-path="url(#clip530)" style="stroke:#000000; stroke-linecap:round; stroke-linejoin:round; stroke-width:4; stroke-opacity:1; fill:none" points="834.341,1410.9 834.341,1392 "/>
<polyline clip-path="url(#clip530)" style="stroke:#000000; stroke-linecap:round; stroke-linejoin:round; stroke-width:4; stroke-opacity:1; fill:none" points="1335.78,1410.9 1335.78,1392 "/>
<polyline clip-path="url(#clip530)" style="stroke:#000000; stroke-linecap:round; stroke-linejoin:round; stroke-width:4; stroke-opacity:1; fill:none" points="1837.22,1410.9 1837.22,1392 "/>
<polyline clip-path="url(#clip530)" style="stroke:#000000; stroke-linecap:round; stroke-linejoin:round; stroke-width:4; stroke-opacity:1; fill:none" points="2338.65,1410.9 2338.65,1392 "/>
<path clip-path="url(#clip530)" d="M721.217 1472.13 L750.892 1472.13 L750.892 1476.06 L721.217 1476.06 L721.217 1472.13 Z" fill="#000000" fill-rule="nonzero" fill-opacity="1" /><path clip-path="url(#clip530)" d="M761.031 1454.4 L779.388 1454.4 L779.388 1458.33 L765.314 1458.33 L765.314 1466.8 Q766.332 1466.46 767.351 1466.29 Q768.369 1466.11 769.388 1466.11 Q775.175 1466.11 778.554 1469.28 Q781.934 1472.45 781.934 1477.87 Q781.934 1483.45 778.462 1486.55 Q774.99 1489.63 768.67 1489.63 Q766.494 1489.63 764.226 1489.26 Q761.98 1488.89 759.573 1488.15 L759.573 1483.45 Q761.656 1484.58 763.878 1485.14 Q766.101 1485.69 768.578 1485.69 Q772.582 1485.69 774.92 1483.59 Q777.258 1481.48 777.258 1477.87 Q777.258 1474.26 774.92 1472.15 Q772.582 1470.04 768.578 1470.04 Q766.703 1470.04 764.828 1470.46 Q762.976 1470.88 761.031 1471.76 L761.031 1454.4 Z" fill="#000000" fill-rule="nonzero" fill-opacity="1" /><path clip-path="url(#clip530)" d="M791.147 1483.08 L796.031 1483.08 L796.031 1488.96 L791.147 1488.96 L791.147 1483.08 Z" fill="#000000" fill-rule="nonzero" fill-opacity="1" /><path clip-path="url(#clip530)" d="M816.216 1457.48 Q812.605 1457.48 810.776 1461.04 Q808.971 1464.58 808.971 1471.71 Q808.971 1478.82 810.776 1482.38 Q812.605 1485.92 816.216 1485.92 Q819.85 1485.92 821.656 1482.38 Q823.485 1478.82 823.485 1471.71 Q823.485 1464.58 821.656 1461.04 Q819.85 1457.48 816.216 1457.48 M816.216 1453.77 Q822.026 1453.77 825.082 1458.38 Q828.161 1462.96 828.161 1471.71 Q828.161 1480.44 825.082 1485.04 Q822.026 1489.63 816.216 1489.63 Q810.406 1489.63 807.327 1485.04 Q804.272 1480.44 804.272 1471.71 Q804.272 1462.96 807.327 1458.38 Q810.406 1453.77 816.216 1453.77 Z" fill="#000000" fill-rule="nonzero" fill-opacity="1" /><path clip-path="url(#clip530)" d="M864.549 1463.49 L853.971 1474.12 L864.549 1484.7 L861.795 1487.5 L851.17 1476.87 L840.545 1487.5 L837.813 1484.7 L848.369 1474.12 L837.813 1463.49 L840.545 1460.69 L851.17 1471.32 L861.795 1460.69 L864.549 1463.49 Z" fill="#000000" fill-rule="nonzero" fill-opacity="1" /><path clip-path="url(#clip530)" d="M876.91 1485.02 L884.549 1485.02 L884.549 1458.66 L876.239 1460.32 L876.239 1456.06 L884.503 1454.4 L889.179 1454.4 L889.179 1485.02 L896.818 1485.02 L896.818 1488.96 L876.91 1488.96 L876.91 1485.02 Z" fill="#000000" fill-rule="nonzero" fill-opacity="1" /><path clip-path="url(#clip530)" d="M916.262 1457.48 Q912.651 1457.48 910.822 1461.04 Q909.017 1464.58 909.017 1471.71 Q909.017 1478.82 910.822 1482.38 Q912.651 1485.92 916.262 1485.92 Q919.896 1485.92 921.702 1482.38 Q923.53 1478.82 923.53 1471.71 Q923.53 1464.58 921.702 1461.04 Q919.896 1457.48 916.262 1457.48 M916.262 1453.77 Q922.072 1453.77 925.128 1458.38 Q928.206 1462.96 928.206 1471.71 Q928.206 1480.44 925.128 1485.04 Q922.072 1489.63 916.262 1489.63 Q910.452 1489.63 907.373 1485.04 Q904.318 1480.44 904.318 1471.71 Q904.318 1462.96 907.373 1458.38 Q910.452 1453.77 916.262 1453.77 Z" fill="#000000" fill-rule="nonzero" fill-opacity="1" /><path clip-path="url(#clip530)" d="M937.836 1448.21 Q935.128 1448.21 933.567 1449.66 Q932.024 1451.11 932.024 1453.65 Q932.024 1456.19 933.567 1457.63 Q935.128 1459.08 937.836 1459.08 Q940.544 1459.08 942.105 1457.63 Q943.666 1456.17 943.666 1453.65 Q943.666 1451.11 942.105 1449.66 Q940.563 1448.21 937.836 1448.21 M934.037 1446.59 Q931.592 1445.99 930.219 1444.32 Q928.865 1442.64 928.865 1440.24 Q928.865 1436.87 931.253 1434.91 Q933.661 1432.96 937.836 1432.96 Q942.03 1432.96 944.419 1434.91 Q946.807 1436.87 946.807 1440.24 Q946.807 1442.64 945.434 1444.32 Q944.08 1445.99 941.654 1446.59 Q944.4 1447.23 945.923 1449.1 Q947.465 1450.96 947.465 1453.65 Q947.465 1457.73 944.964 1459.91 Q942.481 1462.09 937.836 1462.09 Q933.19 1462.09 930.689 1459.91 Q928.206 1457.73 928.206 1453.65 Q928.206 1450.96 929.749 1449.1 Q931.291 1447.23 934.037 1446.59 M932.645 1440.59 Q932.645 1442.78 933.999 1444 Q935.372 1445.22 937.836 1445.22 Q940.281 1445.22 941.654 1444 Q943.046 1442.78 943.046 1440.59 Q943.046 1438.41 941.654 1437.19 Q940.281 1435.97 937.836 1435.97 Q935.372 1435.97 933.999 1437.19 Q932.645 1438.41 932.645 1440.59 Z" fill="#000000" fill-rule="nonzero" fill-opacity="1" /><path clip-path="url(#clip530)" d="M1335.78 1441.82 Q1332.17 1441.82 1330.34 1445.38 Q1328.53 1448.92 1328.53 1456.05 Q1328.53 1463.16 1330.34 1466.72 Q1332.17 1470.26 1335.78 1470.26 Q1339.41 1470.26 1341.22 1466.72 Q1343.05 1463.16 1343.05 1456.05 Q1343.05 1448.92 1341.22 1445.38 Q1339.41 1441.82 1335.78 1441.82 M1335.78 1438.11 Q1341.59 1438.11 1344.64 1442.72 Q1347.72 1447.3 1347.72 1456.05 Q1347.72 1464.78 1344.64 1469.38 Q1341.59 1473.97 1335.78 1473.97 Q1329.97 1473.97 1326.89 1469.38 Q1323.83 1464.78 1323.83 1456.05 Q1323.83 1447.3 1326.89 1442.72 Q1329.97 1438.11 1335.78 1438.11 Z" fill="#000000" fill-rule="nonzero" fill-opacity="1" /><path clip-path="url(#clip530)" d="M1744.73 1454.4 L1763.08 1454.4 L1763.08 1458.33 L1749.01 1458.33 L1749.01 1466.8 Q1750.03 1466.46 1751.05 1466.29 Q1752.07 1466.11 1753.08 1466.11 Q1758.87 1466.11 1762.25 1469.28 Q1765.63 1472.45 1765.63 1477.87 Q1765.63 1483.45 1762.16 1486.55 Q1758.69 1489.63 1752.37 1489.63 Q1750.19 1489.63 1747.92 1489.26 Q1745.68 1488.89 1743.27 1488.15 L1743.27 1483.45 Q1745.35 1484.58 1747.58 1485.14 Q1749.8 1485.69 1752.27 1485.69 Q1756.28 1485.69 1758.62 1483.59 Q1760.96 1481.48 1760.96 1477.87 Q1760.96 1474.26 1758.62 1472.15 Q1756.28 1470.04 1752.27 1470.04 Q1750.4 1470.04 1748.52 1470.46 Q1746.67 1470.88 1744.73 1471.76 L1744.73 1454.4 Z" fill="#000000" fill-rule="nonzero" fill-opacity="1" /><path clip-path="url(#clip530)" d="M1774.84 1483.08 L1779.73 1483.08 L1779.73 1488.96 L1774.84 1488.96 L1774.84 1483.08 Z" fill="#000000" fill-rule="nonzero" fill-opacity="1" /><path clip-path="url(#clip530)" d="M1799.91 1457.48 Q1796.3 1457.48 1794.47 1461.04 Q1792.67 1464.58 1792.67 1471.71 Q1792.67 1478.82 1794.47 1482.38 Q1796.3 1485.92 1799.91 1485.92 Q1803.55 1485.92 1805.35 1482.38 Q1807.18 1478.82 1807.18 1471.71 Q1807.18 1464.58 1805.35 1461.04 Q1803.55 1457.48 1799.91 1457.48 M1799.91 1453.77 Q1805.72 1453.77 1808.78 1458.38 Q1811.86 1462.96 1811.86 1471.71 Q1811.86 1480.44 1808.78 1485.04 Q1805.72 1489.63 1799.91 1489.63 Q1794.1 1489.63 1791.02 1485.04 Q1787.97 1480.44 1787.97 1471.71 Q1787.97 1462.96 1791.02 1458.38 Q1794.1 1453.77 1799.91 1453.77 Z" fill="#000000" fill-rule="nonzero" fill-opacity="1" /><path clip-path="url(#clip530)" d="M1848.25 1463.49 L1837.67 1474.12 L1848.25 1484.7 L1845.49 1487.5 L1834.87 1476.87 L1824.24 1487.5 L1821.51 1484.7 L1832.07 1474.12 L1821.51 1463.49 L1824.24 1460.69 L1834.87 1471.32 L1845.49 1460.69 L1848.25 1463.49 Z" fill="#000000" fill-rule="nonzero" fill-opacity="1" /><path clip-path="url(#clip530)" d="M1860.61 1485.02 L1868.25 1485.02 L1868.25 1458.66 L1859.94 1460.32 L1859.94 1456.06 L1868.2 1454.4 L1872.88 1454.4 L1872.88 1485.02 L1880.51 1485.02 L1880.51 1488.96 L1860.61 1488.96 L1860.61 1485.02 Z" fill="#000000" fill-rule="nonzero" fill-opacity="1" /><path clip-path="url(#clip530)" d="M1899.96 1457.48 Q1896.35 1457.48 1894.52 1461.04 Q1892.71 1464.58 1892.71 1471.71 Q1892.71 1478.82 1894.52 1482.38 Q1896.35 1485.92 1899.96 1485.92 Q1903.59 1485.92 1905.4 1482.38 Q1907.23 1478.82 1907.23 1471.71 Q1907.23 1464.58 1905.4 1461.04 Q1903.59 1457.48 1899.96 1457.48 M1899.96 1453.77 Q1905.77 1453.77 1908.82 1458.38 Q1911.9 1462.96 1911.9 1471.71 Q1911.9 1480.44 1908.82 1485.04 Q1905.77 1489.63 1899.96 1489.63 Q1894.15 1489.63 1891.07 1485.04 Q1888.01 1480.44 1888.01 1471.71 Q1888.01 1462.96 1891.07 1458.38 Q1894.15 1453.77 1899.96 1453.77 Z" fill="#000000" fill-rule="nonzero" fill-opacity="1" /><path clip-path="url(#clip530)" d="M1921.53 1448.21 Q1918.82 1448.21 1917.26 1449.66 Q1915.72 1451.11 1915.72 1453.65 Q1915.72 1456.19 1917.26 1457.63 Q1918.82 1459.08 1921.53 1459.08 Q1924.24 1459.08 1925.8 1457.63 Q1927.36 1456.17 1927.36 1453.65 Q1927.36 1451.11 1925.8 1449.66 Q1924.26 1448.21 1921.53 1448.21 M1917.73 1446.59 Q1915.29 1445.99 1913.92 1444.32 Q1912.56 1442.64 1912.56 1440.24 Q1912.56 1436.87 1914.95 1434.91 Q1917.36 1432.96 1921.53 1432.96 Q1925.73 1432.96 1928.12 1434.91 Q1930.5 1436.87 1930.5 1440.24 Q1930.5 1442.64 1929.13 1444.32 Q1927.78 1445.99 1925.35 1446.59 Q1928.1 1447.23 1929.62 1449.1 Q1931.16 1450.96 1931.16 1453.65 Q1931.16 1457.73 1928.66 1459.91 Q1926.18 1462.09 1921.53 1462.09 Q1916.89 1462.09 1914.39 1459.91 Q1911.9 1457.73 1911.9 1453.65 Q1911.9 1450.96 1913.45 1449.1 Q1914.99 1447.23 1917.73 1446.59 M1916.34 1440.59 Q1916.34 1442.78 1917.7 1444 Q1919.07 1445.22 1921.53 1445.22 Q1923.98 1445.22 1925.35 1444 Q1926.74 1442.78 1926.74 1440.59 Q1926.74 1438.41 1925.35 1437.19 Q1923.98 1435.97 1921.53 1435.97 Q1919.07 1435.97 1917.7 1437.19 Q1916.34 1438.41 1916.34 1440.59 Z" fill="#000000" fill-rule="nonzero" fill-opacity="1" /><path clip-path="url(#clip530)" d="M2246.1 1485.02 L2253.74 1485.02 L2253.74 1458.66 L2245.43 1460.32 L2245.43 1456.06 L2253.69 1454.4 L2258.37 1454.4 L2258.37 1485.02 L2266.01 1485.02 L2266.01 1488.96 L2246.1 1488.96 L2246.1 1485.02 Z" fill="#000000" fill-rule="nonzero" fill-opacity="1" /><path clip-path="url(#clip530)" d="M2275.45 1483.08 L2280.33 1483.08 L2280.33 1488.96 L2275.45 1488.96 L2275.45 1483.08 Z" fill="#000000" fill-rule="nonzero" fill-opacity="1" /><path clip-path="url(#clip530)" d="M2300.52 1457.48 Q2296.91 1457.48 2295.08 1461.04 Q2293.27 1464.58 2293.27 1471.71 Q2293.27 1478.82 2295.08 1482.38 Q2296.91 1485.92 2300.52 1485.92 Q2304.15 1485.92 2305.96 1482.38 Q2307.79 1478.82 2307.79 1471.71 Q2307.79 1464.58 2305.96 1461.04 Q2304.15 1457.48 2300.52 1457.48 M2300.52 1453.77 Q2306.33 1453.77 2309.38 1458.38 Q2312.46 1462.96 2312.46 1471.71 Q2312.46 1480.44 2309.38 1485.04 Q2306.33 1489.63 2300.52 1489.63 Q2294.71 1489.63 2291.63 1485.04 Q2288.57 1480.44 2288.57 1471.71 Q2288.57 1462.96 2291.63 1458.38 Q2294.71 1453.77 2300.52 1453.77 Z" fill="#000000" fill-rule="nonzero" fill-opacity="1" /><path clip-path="url(#clip530)" d="M2348.85 1463.49 L2338.27 1474.12 L2348.85 1484.7 L2346.1 1487.5 L2335.47 1476.87 L2324.85 1487.5 L2322.12 1484.7 L2332.67 1474.12 L2322.12 1463.49 L2324.85 1460.69 L2335.47 1471.32 L2346.1 1460.69 L2348.85 1463.49 Z" fill="#000000" fill-rule="nonzero" fill-opacity="1" /><path clip-path="url(#clip530)" d="M2361.21 1485.02 L2368.85 1485.02 L2368.85 1458.66 L2360.54 1460.32 L2360.54 1456.06 L2368.81 1454.4 L2373.48 1454.4 L2373.48 1485.02 L2381.12 1485.02 L2381.12 1488.96 L2361.21 1488.96 L2361.21 1485.02 Z" fill="#000000" fill-rule="nonzero" fill-opacity="1" /><path clip-path="url(#clip530)" d="M2400.56 1457.48 Q2396.95 1457.48 2395.13 1461.04 Q2393.32 1464.58 2393.32 1471.71 Q2393.32 1478.82 2395.13 1482.38 Q2396.95 1485.92 2400.56 1485.92 Q2404.2 1485.92 2406 1482.38 Q2407.83 1478.82 2407.83 1471.71 Q2407.83 1464.58 2406 1461.04 Q2404.2 1457.48 2400.56 1457.48 M2400.56 1453.77 Q2406.38 1453.77 2409.43 1458.38 Q2412.51 1462.96 2412.51 1471.71 Q2412.51 1480.44 2409.43 1485.04 Q2406.38 1489.63 2400.56 1489.63 Q2394.75 1489.63 2391.68 1485.04 Q2388.62 1480.44 2388.62 1471.71 Q2388.62 1462.96 2391.68 1458.38 Q2394.75 1453.77 2400.56 1453.77 Z" fill="#000000" fill-rule="nonzero" fill-opacity="1" /><path clip-path="url(#clip530)" d="M2414.31 1460.96 L2414.31 1457.5 Q2415.74 1458.18 2417.21 1458.54 Q2418.68 1458.89 2420.09 1458.89 Q2423.85 1458.89 2425.83 1456.37 Q2427.82 1453.84 2428.1 1448.68 Q2427.01 1450.3 2425.34 1451.16 Q2423.66 1452.03 2421.63 1452.03 Q2417.42 1452.03 2414.95 1449.49 Q2412.51 1446.93 2412.51 1442.51 Q2412.51 1438.19 2415.07 1435.57 Q2417.63 1432.96 2421.88 1432.96 Q2426.75 1432.96 2429.3 1436.7 Q2431.88 1440.43 2431.88 1447.53 Q2431.88 1454.17 2428.72 1458.14 Q2425.58 1462.09 2420.26 1462.09 Q2418.83 1462.09 2417.36 1461.81 Q2415.89 1461.53 2414.31 1460.96 M2421.88 1449.06 Q2424.43 1449.06 2425.92 1447.31 Q2427.42 1445.56 2427.42 1442.51 Q2427.42 1439.48 2425.92 1437.74 Q2424.43 1435.97 2421.88 1435.97 Q2419.32 1435.97 2417.81 1437.74 Q2416.33 1439.48 2416.33 1442.51 Q2416.33 1445.56 2417.81 1447.31 Q2419.32 1449.06 2421.88 1449.06 Z" fill="#000000" fill-rule="nonzero" fill-opacity="1" /><path clip-path="url(#clip530)" d="M1278.04 1526.67 L1284.94 1526.67 L1296.75 1544.33 L1308.62 1526.67 L1315.53 1526.67 L1300.25 1549.49 L1316.55 1574.19 L1309.64 1574.19 L1296.27 1553.97 L1282.81 1574.19 L1275.87 1574.19 L1292.84 1548.82 L1278.04 1526.67 Z" fill="#000000" fill-rule="nonzero" fill-opacity="1" /><path clip-path="url(#clip530)" d="M1359.52 1524.72 Q1355.25 1532.04 1353.18 1539.21 Q1351.12 1546.37 1351.12 1553.72 Q1351.12 1561.07 1353.18 1568.3 Q1355.28 1575.49 1359.52 1582.78 L1354.43 1582.78 Q1349.65 1575.3 1347.26 1568.07 Q1344.91 1560.85 1344.91 1553.72 Q1344.91 1546.62 1347.26 1539.43 Q1349.62 1532.24 1354.43 1524.72 L1359.52 1524.72 Z" fill="#000000" fill-rule="nonzero" fill-opacity="1" /><path clip-path="url(#clip530)" d="M1371.14 1526.67 L1377.56 1526.67 L1377.56 1546.75 L1398.89 1526.67 L1407.17 1526.67 L1383.58 1548.82 L1408.85 1574.19 L1400.39 1574.19 L1377.56 1551.3 L1377.56 1574.19 L1371.14 1574.19 L1371.14 1526.67 Z" fill="#000000" fill-rule="nonzero" fill-opacity="1" /><path clip-path="url(#clip530)" d="M1413.88 1526.67 L1423.46 1526.67 L1435.59 1559 L1447.78 1526.67 L1457.36 1526.67 L1457.36 1574.19 L1451.09 1574.19 L1451.09 1532.46 L1438.83 1565.05 L1432.37 1565.05 L1420.12 1532.46 L1420.12 1574.19 L1413.88 1574.19 L1413.88 1526.67 Z" fill="#000000" fill-rule="nonzero" fill-opacity="1" /><path clip-path="url(#clip530)" d="M1468.94 1524.72 L1474.04 1524.72 Q1478.81 1532.24 1481.17 1539.43 Q1483.55 1546.62 1483.55 1553.72 Q1483.55 1560.85 1481.17 1568.07 Q1478.81 1575.3 1474.04 1582.78 L1468.94 1582.78 Q1473.18 1575.49 1475.25 1568.3 Q1477.35 1561.07 1477.35 1553.72 Q1477.35 1546.37 1475.25 1539.21 Q1473.18 1532.04 1468.94 1524.72 Z" fill="#000000" fill-rule="nonzero" fill-opacity="1" /><polyline clip-path="url(#clip530)" style="stroke:#000000; stroke-linecap:round; stroke-linejoin:round; stroke-width:4; stroke-opacity:1; fill:none" points="406.671,1410.9 406.671,123.472 "/>
<polyline clip-path="url(#clip530)" style="stroke:#000000; stroke-linecap:round; stroke-linejoin:round; stroke-width:4; stroke-opacity:1; fill:none" points="406.671,1262.48 425.568,1262.48 "/>
<polyline clip-path="url(#clip530)" style="stroke:#000000; stroke-linecap:round; stroke-linejoin:round; stroke-width:4; stroke-opacity:1; fill:none" points="406.671,1098.09 425.568,1098.09 "/>
<polyline clip-path="url(#clip530)" style="stroke:#000000; stroke-linecap:round; stroke-linejoin:round; stroke-width:4; stroke-opacity:1; fill:none" points="406.671,933.7 425.568,933.7 "/>
<polyline clip-path="url(#clip530)" style="stroke:#000000; stroke-linecap:round; stroke-linejoin:round; stroke-width:4; stroke-opacity:1; fill:none" points="406.671,769.31 425.568,769.31 "/>
<polyline clip-path="url(#clip530)" style="stroke:#000000; stroke-linecap:round; stroke-linejoin:round; stroke-width:4; stroke-opacity:1; fill:none" points="406.671,604.92 425.568,604.92 "/>
<polyline clip-path="url(#clip530)" style="stroke:#000000; stroke-linecap:round; stroke-linejoin:round; stroke-width:4; stroke-opacity:1; fill:none" points="406.671,440.529 425.568,440.529 "/>
<polyline clip-path="url(#clip530)" style="stroke:#000000; stroke-linecap:round; stroke-linejoin:round; stroke-width:4; stroke-opacity:1; fill:none" points="406.671,276.139 425.568,276.139 "/>
<path clip-path="url(#clip530)" d="M114.26 1269.38 L143.936 1269.38 L143.936 1273.32 L114.26 1273.32 L114.26 1269.38 Z" fill="#000000" fill-rule="nonzero" fill-opacity="1" /><path clip-path="url(#clip530)" d="M152.848 1251.65 L175.07 1251.65 L175.07 1253.64 L162.524 1286.21 L157.64 1286.21 L169.445 1255.58 L152.848 1255.58 L152.848 1251.65 Z" fill="#000000" fill-rule="nonzero" fill-opacity="1" /><path clip-path="url(#clip530)" d="M184.19 1280.33 L189.075 1280.33 L189.075 1286.21 L184.19 1286.21 L184.19 1280.33 Z" fill="#000000" fill-rule="nonzero" fill-opacity="1" /><path clip-path="url(#clip530)" d="M199.306 1251.65 L217.662 1251.65 L217.662 1255.58 L203.588 1255.58 L203.588 1264.06 Q204.607 1263.71 205.625 1263.55 Q206.644 1263.36 207.662 1263.36 Q213.449 1263.36 216.829 1266.53 Q220.209 1269.7 220.209 1275.12 Q220.209 1280.7 216.736 1283.8 Q213.264 1286.88 206.945 1286.88 Q204.769 1286.88 202.5 1286.51 Q200.255 1286.14 197.848 1285.4 L197.848 1280.7 Q199.931 1281.83 202.153 1282.39 Q204.375 1282.94 206.852 1282.94 Q210.857 1282.94 213.195 1280.84 Q215.533 1278.73 215.533 1275.12 Q215.533 1271.51 213.195 1269.4 Q210.857 1267.3 206.852 1267.3 Q204.977 1267.3 203.102 1267.71 Q201.25 1268.13 199.306 1269.01 L199.306 1251.65 Z" fill="#000000" fill-rule="nonzero" fill-opacity="1" /><path clip-path="url(#clip530)" d="M239.422 1254.73 Q235.81 1254.73 233.982 1258.29 Q232.176 1261.83 232.176 1268.96 Q232.176 1276.07 233.982 1279.63 Q235.81 1283.18 239.422 1283.18 Q243.056 1283.18 244.861 1279.63 Q246.69 1276.07 246.69 1268.96 Q246.69 1261.83 244.861 1258.29 Q243.056 1254.73 239.422 1254.73 M239.422 1251.02 Q245.232 1251.02 248.287 1255.63 Q251.366 1260.21 251.366 1268.96 Q251.366 1277.69 248.287 1282.3 Q245.232 1286.88 239.422 1286.88 Q233.611 1286.88 230.533 1282.3 Q227.477 1277.69 227.477 1268.96 Q227.477 1260.21 230.533 1255.63 Q233.611 1251.02 239.422 1251.02 Z" fill="#000000" fill-rule="nonzero" fill-opacity="1" /><path clip-path="url(#clip530)" d="M287.755 1260.75 L277.176 1271.37 L287.755 1281.95 L285 1284.75 L274.375 1274.13 L263.75 1284.75 L261.019 1281.95 L271.574 1271.37 L261.019 1260.75 L263.75 1257.94 L274.375 1268.57 L285 1257.94 L287.755 1260.75 Z" fill="#000000" fill-rule="nonzero" fill-opacity="1" /><path clip-path="url(#clip530)" d="M300.116 1282.27 L307.754 1282.27 L307.754 1255.91 L299.444 1257.57 L299.444 1253.32 L307.708 1251.65 L312.384 1251.65 L312.384 1282.27 L320.023 1282.27 L320.023 1286.21 L300.116 1286.21 L300.116 1282.27 Z" fill="#000000" fill-rule="nonzero" fill-opacity="1" /><path clip-path="url(#clip530)" d="M339.467 1254.73 Q335.856 1254.73 334.027 1258.29 Q332.222 1261.83 332.222 1268.96 Q332.222 1276.07 334.027 1279.63 Q335.856 1283.18 339.467 1283.18 Q343.102 1283.18 344.907 1279.63 Q346.736 1276.07 346.736 1268.96 Q346.736 1261.83 344.907 1258.29 Q343.102 1254.73 339.467 1254.73 M339.467 1251.02 Q345.277 1251.02 348.333 1255.63 Q351.412 1260.21 351.412 1268.96 Q351.412 1277.69 348.333 1282.3 Q345.277 1286.88 339.467 1286.88 Q333.657 1286.88 330.578 1282.3 Q327.523 1277.69 327.523 1268.96 Q327.523 1260.21 330.578 1255.63 Q333.657 1251.02 339.467 1251.02 Z" fill="#000000" fill-rule="nonzero" fill-opacity="1" /><path clip-path="url(#clip530)" d="M361.041 1245.46 Q358.333 1245.46 356.772 1246.91 Q355.23 1248.36 355.23 1250.9 Q355.23 1253.44 356.772 1254.89 Q358.333 1256.33 361.041 1256.33 Q363.75 1256.33 365.311 1254.89 Q366.872 1253.42 366.872 1250.9 Q366.872 1248.36 365.311 1246.91 Q363.768 1245.46 361.041 1245.46 M357.242 1243.85 Q354.797 1243.24 353.424 1241.57 Q352.07 1239.9 352.07 1237.49 Q352.07 1234.12 354.459 1232.17 Q356.866 1230.21 361.041 1230.21 Q365.235 1230.21 367.624 1232.17 Q370.013 1234.12 370.013 1237.49 Q370.013 1239.9 368.64 1241.57 Q367.285 1243.24 364.859 1243.85 Q367.605 1244.49 369.129 1246.35 Q370.671 1248.21 370.671 1250.9 Q370.671 1254.98 368.169 1257.16 Q365.687 1259.34 361.041 1259.34 Q356.396 1259.34 353.894 1257.16 Q351.412 1254.98 351.412 1250.9 Q351.412 1248.21 352.954 1246.35 Q354.496 1244.49 357.242 1243.85 M355.85 1237.85 Q355.85 1240.03 357.204 1241.25 Q358.577 1242.47 361.041 1242.47 Q363.486 1242.47 364.859 1241.25 Q366.251 1240.03 366.251 1237.85 Q366.251 1235.66 364.859 1234.44 Q363.486 1233.22 361.041 1233.22 Q358.577 1233.22 357.204 1234.44 Q355.85 1235.66 355.85 1237.85 Z" fill="#000000" fill-rule="nonzero" fill-opacity="1" /><path clip-path="url(#clip530)" d="M114.26 1104.99 L143.936 1104.99 L143.936 1108.92 L114.26 1108.92 L114.26 1104.99 Z" fill="#000000" fill-rule="nonzero" fill-opacity="1" /><path clip-path="url(#clip530)" d="M154.075 1087.26 L172.431 1087.26 L172.431 1091.19 L158.357 1091.19 L158.357 1099.67 Q159.376 1099.32 160.394 1099.16 Q161.413 1098.97 162.431 1098.97 Q168.218 1098.97 171.598 1102.14 Q174.977 1105.31 174.977 1110.73 Q174.977 1116.31 171.505 1119.41 Q168.033 1122.49 161.714 1122.49 Q159.538 1122.49 157.269 1122.12 Q155.024 1121.75 152.616 1121.01 L152.616 1116.31 Q154.7 1117.44 156.922 1118 Q159.144 1118.55 161.621 1118.55 Q165.626 1118.55 167.964 1116.45 Q170.302 1114.34 170.302 1110.73 Q170.302 1107.12 167.964 1105.01 Q165.626 1102.91 161.621 1102.91 Q159.746 1102.91 157.871 1103.32 Q156.019 1103.74 154.075 1104.62 L154.075 1087.26 Z" fill="#000000" fill-rule="nonzero" fill-opacity="1" /><path clip-path="url(#clip530)" d="M184.19 1115.94 L189.075 1115.94 L189.075 1121.82 L184.19 1121.82 L184.19 1115.94 Z" fill="#000000" fill-rule="nonzero" fill-opacity="1" /><path clip-path="url(#clip530)" d="M209.26 1090.34 Q205.649 1090.34 203.82 1093.9 Q202.014 1097.44 202.014 1104.57 Q202.014 1111.68 203.82 1115.24 Q205.649 1118.79 209.26 1118.79 Q212.894 1118.79 214.699 1115.24 Q216.528 1111.68 216.528 1104.57 Q216.528 1097.44 214.699 1093.9 Q212.894 1090.34 209.26 1090.34 M209.26 1086.63 Q215.07 1086.63 218.125 1091.24 Q221.204 1095.82 221.204 1104.57 Q221.204 1113.3 218.125 1117.91 Q215.07 1122.49 209.26 1122.49 Q203.449 1122.49 200.371 1117.91 Q197.315 1113.3 197.315 1104.57 Q197.315 1095.82 200.371 1091.24 Q203.449 1086.63 209.26 1086.63 Z" fill="#000000" fill-rule="nonzero" fill-opacity="1" /><path clip-path="url(#clip530)" d="M239.422 1090.34 Q235.81 1090.34 233.982 1093.9 Q232.176 1097.44 232.176 1104.57 Q232.176 1111.68 233.982 1115.24 Q235.81 1118.79 239.422 1118.79 Q243.056 1118.79 244.861 1115.24 Q246.69 1111.68 246.69 1104.57 Q246.69 1097.44 244.861 1093.9 Q243.056 1090.34 239.422 1090.34 M239.422 1086.63 Q245.232 1086.63 248.287 1091.24 Q251.366 1095.82 251.366 1104.57 Q251.366 1113.3 248.287 1117.91 Q245.232 1122.49 239.422 1122.49 Q233.611 1122.49 230.533 1117.91 Q227.477 1113.3 227.477 1104.57 Q227.477 1095.82 230.533 1091.24 Q233.611 1086.63 239.422 1086.63 Z" fill="#000000" fill-rule="nonzero" fill-opacity="1" /><path clip-path="url(#clip530)" d="M287.755 1096.36 L277.176 1106.98 L287.755 1117.56 L285 1120.36 L274.375 1109.74 L263.75 1120.36 L261.019 1117.56 L271.574 1106.98 L261.019 1096.36 L263.75 1093.55 L274.375 1104.18 L285 1093.55 L287.755 1096.36 Z" fill="#000000" fill-rule="nonzero" fill-opacity="1" /><path clip-path="url(#clip530)" d="M300.116 1117.88 L307.754 1117.88 L307.754 1091.52 L299.444 1093.18 L299.444 1088.92 L307.708 1087.26 L312.384 1087.26 L312.384 1117.88 L320.023 1117.88 L320.023 1121.82 L300.116 1121.82 L300.116 1117.88 Z" fill="#000000" fill-rule="nonzero" fill-opacity="1" /><path clip-path="url(#clip530)" d="M339.467 1090.34 Q335.856 1090.34 334.027 1093.9 Q332.222 1097.44 332.222 1104.57 Q332.222 1111.68 334.027 1115.24 Q335.856 1118.79 339.467 1118.79 Q343.102 1118.79 344.907 1115.24 Q346.736 1111.68 346.736 1104.57 Q346.736 1097.44 344.907 1093.9 Q343.102 1090.34 339.467 1090.34 M339.467 1086.63 Q345.277 1086.63 348.333 1091.24 Q351.412 1095.82 351.412 1104.57 Q351.412 1113.3 348.333 1117.91 Q345.277 1122.49 339.467 1122.49 Q333.657 1122.49 330.578 1117.91 Q327.523 1113.3 327.523 1104.57 Q327.523 1095.82 330.578 1091.24 Q333.657 1086.63 339.467 1086.63 Z" fill="#000000" fill-rule="nonzero" fill-opacity="1" /><path clip-path="url(#clip530)" d="M361.041 1081.07 Q358.333 1081.07 356.772 1082.52 Q355.23 1083.97 355.23 1086.51 Q355.23 1089.05 356.772 1090.5 Q358.333 1091.94 361.041 1091.94 Q363.75 1091.94 365.311 1090.5 Q366.872 1089.03 366.872 1086.51 Q366.872 1083.97 365.311 1082.52 Q363.768 1081.07 361.041 1081.07 M357.242 1079.46 Q354.797 1078.85 353.424 1077.18 Q352.07 1075.51 352.07 1073.1 Q352.07 1069.73 354.459 1067.78 Q356.866 1065.82 361.041 1065.82 Q365.235 1065.82 367.624 1067.78 Q370.013 1069.73 370.013 1073.1 Q370.013 1075.51 368.64 1077.18 Q367.285 1078.85 364.859 1079.46 Q367.605 1080.1 369.129 1081.96 Q370.671 1083.82 370.671 1086.51 Q370.671 1090.59 368.169 1092.77 Q365.687 1094.95 361.041 1094.95 Q356.396 1094.95 353.894 1092.77 Q351.412 1090.59 351.412 1086.51 Q351.412 1083.82 352.954 1081.96 Q354.496 1080.1 357.242 1079.46 M355.85 1073.46 Q355.85 1075.64 357.204 1076.86 Q358.577 1078.08 361.041 1078.08 Q363.486 1078.08 364.859 1076.86 Q366.251 1075.64 366.251 1073.46 Q366.251 1071.27 364.859 1070.05 Q363.486 1068.83 361.041 1068.83 Q358.577 1068.83 357.204 1070.05 Q355.85 1071.27 355.85 1073.46 Z" fill="#000000" fill-rule="nonzero" fill-opacity="1" /><path clip-path="url(#clip530)" d="M114.26 940.599 L143.936 940.599 L143.936 944.535 L114.26 944.535 L114.26 940.599 Z" fill="#000000" fill-rule="nonzero" fill-opacity="1" /><path clip-path="url(#clip530)" d="M158.056 953.493 L174.376 953.493 L174.376 957.428 L152.431 957.428 L152.431 953.493 Q155.093 950.738 159.677 946.109 Q164.283 941.456 165.464 940.113 Q167.709 937.59 168.589 935.854 Q169.491 934.095 169.491 932.405 Q169.491 929.65 167.547 927.914 Q165.626 926.178 162.524 926.178 Q160.325 926.178 157.871 926.942 Q155.44 927.706 152.663 929.257 L152.663 924.535 Q155.487 923.4 157.94 922.822 Q160.394 922.243 162.431 922.243 Q167.802 922.243 170.996 924.928 Q174.19 927.613 174.19 932.104 Q174.19 934.234 173.38 936.155 Q172.593 938.053 170.487 940.646 Q169.908 941.317 166.806 944.535 Q163.704 947.729 158.056 953.493 Z" fill="#000000" fill-rule="nonzero" fill-opacity="1" /><path clip-path="url(#clip530)" d="M184.19 951.548 L189.075 951.548 L189.075 957.428 L184.19 957.428 L184.19 951.548 Z" fill="#000000" fill-rule="nonzero" fill-opacity="1" /><path clip-path="url(#clip530)" d="M199.306 922.868 L217.662 922.868 L217.662 926.803 L203.588 926.803 L203.588 935.275 Q204.607 934.928 205.625 934.766 Q206.644 934.581 207.662 934.581 Q213.449 934.581 216.829 937.752 Q220.209 940.923 220.209 946.34 Q220.209 951.919 216.736 955.021 Q213.264 958.099 206.945 958.099 Q204.769 958.099 202.5 957.729 Q200.255 957.359 197.848 956.618 L197.848 951.919 Q199.931 953.053 202.153 953.609 Q204.375 954.164 206.852 954.164 Q210.857 954.164 213.195 952.058 Q215.533 949.951 215.533 946.34 Q215.533 942.729 213.195 940.623 Q210.857 938.516 206.852 938.516 Q204.977 938.516 203.102 938.933 Q201.25 939.349 199.306 940.229 L199.306 922.868 Z" fill="#000000" fill-rule="nonzero" fill-opacity="1" /><path clip-path="url(#clip530)" d="M239.422 925.947 Q235.81 925.947 233.982 929.511 Q232.176 933.053 232.176 940.183 Q232.176 947.289 233.982 950.854 Q235.81 954.396 239.422 954.396 Q243.056 954.396 244.861 950.854 Q246.69 947.289 246.69 940.183 Q246.69 933.053 244.861 929.511 Q243.056 925.947 239.422 925.947 M239.422 922.243 Q245.232 922.243 248.287 926.849 Q251.366 931.433 251.366 940.183 Q251.366 948.91 248.287 953.516 Q245.232 958.099 239.422 958.099 Q233.611 958.099 230.533 953.516 Q227.477 948.91 227.477 940.183 Q227.477 931.433 230.533 926.849 Q233.611 922.243 239.422 922.243 Z" fill="#000000" fill-rule="nonzero" fill-opacity="1" /><path clip-path="url(#clip530)" d="M287.755 931.965 L277.176 942.59 L287.755 953.169 L285 955.97 L274.375 945.345 L263.75 955.97 L261.019 953.169 L271.574 942.59 L261.019 931.965 L263.75 929.164 L274.375 939.789 L285 929.164 L287.755 931.965 Z" fill="#000000" fill-rule="nonzero" fill-opacity="1" /><path clip-path="url(#clip530)" d="M300.116 953.493 L307.754 953.493 L307.754 927.127 L299.444 928.794 L299.444 924.535 L307.708 922.868 L312.384 922.868 L312.384 953.493 L320.023 953.493 L320.023 957.428 L300.116 957.428 L300.116 953.493 Z" fill="#000000" fill-rule="nonzero" fill-opacity="1" /><path clip-path="url(#clip530)" d="M339.467 925.947 Q335.856 925.947 334.027 929.511 Q332.222 933.053 332.222 940.183 Q332.222 947.289 334.027 950.854 Q335.856 954.396 339.467 954.396 Q343.102 954.396 344.907 950.854 Q346.736 947.289 346.736 940.183 Q346.736 933.053 344.907 929.511 Q343.102 925.947 339.467 925.947 M339.467 922.243 Q345.277 922.243 348.333 926.849 Q351.412 931.433 351.412 940.183 Q351.412 948.91 348.333 953.516 Q345.277 958.099 339.467 958.099 Q333.657 958.099 330.578 953.516 Q327.523 948.91 327.523 940.183 Q327.523 931.433 330.578 926.849 Q333.657 922.243 339.467 922.243 Z" fill="#000000" fill-rule="nonzero" fill-opacity="1" /><path clip-path="url(#clip530)" d="M361.041 916.683 Q358.333 916.683 356.772 918.131 Q355.23 919.579 355.23 922.118 Q355.23 924.657 356.772 926.106 Q358.333 927.554 361.041 927.554 Q363.75 927.554 365.311 926.106 Q366.872 924.639 366.872 922.118 Q366.872 919.579 365.311 918.131 Q363.768 916.683 361.041 916.683 M357.242 915.065 Q354.797 914.464 353.424 912.79 Q352.07 911.116 352.07 908.708 Q352.07 905.342 354.459 903.386 Q356.866 901.43 361.041 901.43 Q365.235 901.43 367.624 903.386 Q370.013 905.342 370.013 908.708 Q370.013 911.116 368.64 912.79 Q367.285 914.464 364.859 915.065 Q367.605 915.705 369.129 917.567 Q370.671 919.429 370.671 922.118 Q370.671 926.2 368.169 928.381 Q365.687 930.563 361.041 930.563 Q356.396 930.563 353.894 928.381 Q351.412 926.2 351.412 922.118 Q351.412 919.429 352.954 917.567 Q354.496 915.705 357.242 915.065 M355.85 909.066 Q355.85 911.247 357.204 912.47 Q358.577 913.692 361.041 913.692 Q363.486 913.692 364.859 912.47 Q366.251 911.247 366.251 909.066 Q366.251 906.884 364.859 905.662 Q363.486 904.439 361.041 904.439 Q358.577 904.439 357.204 905.662 Q355.85 906.884 355.85 909.066 Z" fill="#000000" fill-rule="nonzero" fill-opacity="1" /><path clip-path="url(#clip530)" d="M358.726 755.109 Q355.115 755.109 353.287 758.674 Q351.481 762.215 351.481 769.345 Q351.481 776.451 353.287 780.016 Q355.115 783.558 358.726 783.558 Q362.361 783.558 364.166 780.016 Q365.995 776.451 365.995 769.345 Q365.995 762.215 364.166 758.674 Q362.361 755.109 358.726 755.109 M358.726 751.405 Q364.537 751.405 367.592 756.012 Q370.671 760.595 370.671 769.345 Q370.671 778.072 367.592 782.678 Q364.537 787.261 358.726 787.261 Q352.916 787.261 349.838 782.678 Q346.782 778.072 346.782 769.345 Q346.782 760.595 349.838 756.012 Q352.916 751.405 358.726 751.405 Z" fill="#000000" fill-rule="nonzero" fill-opacity="1" /><path clip-path="url(#clip530)" d="M158.056 624.712 L174.376 624.712 L174.376 628.647 L152.431 628.647 L152.431 624.712 Q155.093 621.958 159.677 617.328 Q164.283 612.675 165.464 611.333 Q167.709 608.81 168.589 607.073 Q169.491 605.314 169.491 603.624 Q169.491 600.87 167.547 599.134 Q165.626 597.398 162.524 597.398 Q160.325 597.398 157.871 598.161 Q155.44 598.925 152.663 600.476 L152.663 595.754 Q155.487 594.62 157.94 594.041 Q160.394 593.462 162.431 593.462 Q167.802 593.462 170.996 596.148 Q174.19 598.833 174.19 603.323 Q174.19 605.453 173.38 607.374 Q172.593 609.272 170.487 611.865 Q169.908 612.536 166.806 615.754 Q163.704 618.948 158.056 624.712 Z" fill="#000000" fill-rule="nonzero" fill-opacity="1" /><path clip-path="url(#clip530)" d="M184.19 622.768 L189.075 622.768 L189.075 628.647 L184.19 628.647 L184.19 622.768 Z" fill="#000000" fill-rule="nonzero" fill-opacity="1" /><path clip-path="url(#clip530)" d="M199.306 594.087 L217.662 594.087 L217.662 598.023 L203.588 598.023 L203.588 606.495 Q204.607 606.147 205.625 605.985 Q206.644 605.8 207.662 605.8 Q213.449 605.8 216.829 608.972 Q220.209 612.143 220.209 617.559 Q220.209 623.138 216.736 626.24 Q213.264 629.319 206.945 629.319 Q204.769 629.319 202.5 628.948 Q200.255 628.578 197.848 627.837 L197.848 623.138 Q199.931 624.272 202.153 624.828 Q204.375 625.383 206.852 625.383 Q210.857 625.383 213.195 623.277 Q215.533 621.171 215.533 617.559 Q215.533 613.948 213.195 611.842 Q210.857 609.735 206.852 609.735 Q204.977 609.735 203.102 610.152 Q201.25 610.569 199.306 611.448 L199.306 594.087 Z" fill="#000000" fill-rule="nonzero" fill-opacity="1" /><path clip-path="url(#clip530)" d="M239.422 597.166 Q235.81 597.166 233.982 600.731 Q232.176 604.273 232.176 611.402 Q232.176 618.509 233.982 622.073 Q235.81 625.615 239.422 625.615 Q243.056 625.615 244.861 622.073 Q246.69 618.509 246.69 611.402 Q246.69 604.273 244.861 600.731 Q243.056 597.166 239.422 597.166 M239.422 593.462 Q245.232 593.462 248.287 598.069 Q251.366 602.652 251.366 611.402 Q251.366 620.129 248.287 624.735 Q245.232 629.319 239.422 629.319 Q233.611 629.319 230.533 624.735 Q227.477 620.129 227.477 611.402 Q227.477 602.652 230.533 598.069 Q233.611 593.462 239.422 593.462 Z" fill="#000000" fill-rule="nonzero" fill-opacity="1" /><path clip-path="url(#clip530)" d="M287.755 603.185 L277.176 613.809 L287.755 624.388 L285 627.189 L274.375 616.564 L263.75 627.189 L261.019 624.388 L271.574 613.809 L261.019 603.185 L263.75 600.384 L274.375 611.009 L285 600.384 L287.755 603.185 Z" fill="#000000" fill-rule="nonzero" fill-opacity="1" /><path clip-path="url(#clip530)" d="M300.116 624.712 L307.754 624.712 L307.754 598.347 L299.444 600.013 L299.444 595.754 L307.708 594.087 L312.384 594.087 L312.384 624.712 L320.023 624.712 L320.023 628.647 L300.116 628.647 L300.116 624.712 Z" fill="#000000" fill-rule="nonzero" fill-opacity="1" /><path clip-path="url(#clip530)" d="M339.467 597.166 Q335.856 597.166 334.027 600.731 Q332.222 604.273 332.222 611.402 Q332.222 618.509 334.027 622.073 Q335.856 625.615 339.467 625.615 Q343.102 625.615 344.907 622.073 Q346.736 618.509 346.736 611.402 Q346.736 604.273 344.907 600.731 Q343.102 597.166 339.467 597.166 M339.467 593.462 Q345.277 593.462 348.333 598.069 Q351.412 602.652 351.412 611.402 Q351.412 620.129 348.333 624.735 Q345.277 629.319 339.467 629.319 Q333.657 629.319 330.578 624.735 Q327.523 620.129 327.523 611.402 Q327.523 602.652 330.578 598.069 Q333.657 593.462 339.467 593.462 Z" fill="#000000" fill-rule="nonzero" fill-opacity="1" /><path clip-path="url(#clip530)" d="M361.041 587.902 Q358.333 587.902 356.772 589.35 Q355.23 590.799 355.23 593.338 Q355.23 595.877 356.772 597.325 Q358.333 598.773 361.041 598.773 Q363.75 598.773 365.311 597.325 Q366.872 595.858 366.872 593.338 Q366.872 590.799 365.311 589.35 Q363.768 587.902 361.041 587.902 M357.242 586.285 Q354.797 585.683 353.424 584.009 Q352.07 582.335 352.07 579.928 Q352.07 576.561 354.459 574.605 Q356.866 572.649 361.041 572.649 Q365.235 572.649 367.624 574.605 Q370.013 576.561 370.013 579.928 Q370.013 582.335 368.64 584.009 Q367.285 585.683 364.859 586.285 Q367.605 586.924 369.129 588.786 Q370.671 590.648 370.671 593.338 Q370.671 597.419 368.169 599.601 Q365.687 601.782 361.041 601.782 Q356.396 601.782 353.894 599.601 Q351.412 597.419 351.412 593.338 Q351.412 590.648 352.954 588.786 Q354.496 586.924 357.242 586.285 M355.85 580.285 Q355.85 582.467 357.204 583.689 Q358.577 584.912 361.041 584.912 Q363.486 584.912 364.859 583.689 Q366.251 582.467 366.251 580.285 Q366.251 578.103 364.859 576.881 Q363.486 575.658 361.041 575.658 Q358.577 575.658 357.204 576.881 Q355.85 578.103 355.85 580.285 Z" fill="#000000" fill-rule="nonzero" fill-opacity="1" /><path clip-path="url(#clip530)" d="M154.075 429.697 L172.431 429.697 L172.431 433.632 L158.357 433.632 L158.357 442.104 Q159.376 441.757 160.394 441.595 Q161.413 441.41 162.431 441.41 Q168.218 441.41 171.598 444.581 Q174.977 447.753 174.977 453.169 Q174.977 458.748 171.505 461.85 Q168.033 464.928 161.714 464.928 Q159.538 464.928 157.269 464.558 Q155.024 464.188 152.616 463.447 L152.616 458.748 Q154.7 459.882 156.922 460.438 Q159.144 460.993 161.621 460.993 Q165.626 460.993 167.964 458.887 Q170.302 456.78 170.302 453.169 Q170.302 449.558 167.964 447.452 Q165.626 445.345 161.621 445.345 Q159.746 445.345 157.871 445.762 Q156.019 446.178 154.075 447.058 L154.075 429.697 Z" fill="#000000" fill-rule="nonzero" fill-opacity="1" /><path clip-path="url(#clip530)" d="M184.19 458.377 L189.075 458.377 L189.075 464.257 L184.19 464.257 L184.19 458.377 Z" fill="#000000" fill-rule="nonzero" fill-opacity="1" /><path clip-path="url(#clip530)" d="M209.26 432.776 Q205.649 432.776 203.82 436.341 Q202.014 439.882 202.014 447.012 Q202.014 454.118 203.82 457.683 Q205.649 461.225 209.26 461.225 Q212.894 461.225 214.699 457.683 Q216.528 454.118 216.528 447.012 Q216.528 439.882 214.699 436.341 Q212.894 432.776 209.26 432.776 M209.26 429.072 Q215.07 429.072 218.125 433.679 Q221.204 438.262 221.204 447.012 Q221.204 455.739 218.125 460.345 Q215.07 464.928 209.26 464.928 Q203.449 464.928 200.371 460.345 Q197.315 455.739 197.315 447.012 Q197.315 438.262 200.371 433.679 Q203.449 429.072 209.26 429.072 Z" fill="#000000" fill-rule="nonzero" fill-opacity="1" /><path clip-path="url(#clip530)" d="M239.422 432.776 Q235.81 432.776 233.982 436.341 Q232.176 439.882 232.176 447.012 Q232.176 454.118 233.982 457.683 Q235.81 461.225 239.422 461.225 Q243.056 461.225 244.861 457.683 Q246.69 454.118 246.69 447.012 Q246.69 439.882 244.861 436.341 Q243.056 432.776 239.422 432.776 M239.422 429.072 Q245.232 429.072 248.287 433.679 Q251.366 438.262 251.366 447.012 Q251.366 455.739 248.287 460.345 Q245.232 464.928 239.422 464.928 Q233.611 464.928 230.533 460.345 Q227.477 455.739 227.477 447.012 Q227.477 438.262 230.533 433.679 Q233.611 429.072 239.422 429.072 Z" fill="#000000" fill-rule="nonzero" fill-opacity="1" /><path clip-path="url(#clip530)" d="M287.755 438.794 L277.176 449.419 L287.755 459.998 L285 462.799 L274.375 452.174 L263.75 462.799 L261.019 459.998 L271.574 449.419 L261.019 438.794 L263.75 435.993 L274.375 446.618 L285 435.993 L287.755 438.794 Z" fill="#000000" fill-rule="nonzero" fill-opacity="1" /><path clip-path="url(#clip530)" d="M300.116 460.322 L307.754 460.322 L307.754 433.956 L299.444 435.623 L299.444 431.364 L307.708 429.697 L312.384 429.697 L312.384 460.322 L320.023 460.322 L320.023 464.257 L300.116 464.257 L300.116 460.322 Z" fill="#000000" fill-rule="nonzero" fill-opacity="1" /><path clip-path="url(#clip530)" d="M339.467 432.776 Q335.856 432.776 334.027 436.341 Q332.222 439.882 332.222 447.012 Q332.222 454.118 334.027 457.683 Q335.856 461.225 339.467 461.225 Q343.102 461.225 344.907 457.683 Q346.736 454.118 346.736 447.012 Q346.736 439.882 344.907 436.341 Q343.102 432.776 339.467 432.776 M339.467 429.072 Q345.277 429.072 348.333 433.679 Q351.412 438.262 351.412 447.012 Q351.412 455.739 348.333 460.345 Q345.277 464.928 339.467 464.928 Q333.657 464.928 330.578 460.345 Q327.523 455.739 327.523 447.012 Q327.523 438.262 330.578 433.679 Q333.657 429.072 339.467 429.072 Z" fill="#000000" fill-rule="nonzero" fill-opacity="1" /><path clip-path="url(#clip530)" d="M361.041 423.512 Q358.333 423.512 356.772 424.96 Q355.23 426.408 355.23 428.947 Q355.23 431.486 356.772 432.935 Q358.333 434.383 361.041 434.383 Q363.75 434.383 365.311 432.935 Q366.872 431.468 366.872 428.947 Q366.872 426.408 365.311 424.96 Q363.768 423.512 361.041 423.512 M357.242 421.894 Q354.797 421.293 353.424 419.619 Q352.07 417.945 352.07 415.537 Q352.07 412.171 354.459 410.215 Q356.866 408.259 361.041 408.259 Q365.235 408.259 367.624 410.215 Q370.013 412.171 370.013 415.537 Q370.013 417.945 368.64 419.619 Q367.285 421.293 364.859 421.894 Q367.605 422.534 369.129 424.396 Q370.671 426.258 370.671 428.947 Q370.671 433.029 368.169 435.21 Q365.687 437.392 361.041 437.392 Q356.396 437.392 353.894 435.21 Q351.412 433.029 351.412 428.947 Q351.412 426.258 352.954 424.396 Q354.496 422.534 357.242 421.894 M355.85 415.895 Q355.85 418.077 357.204 419.299 Q358.577 420.522 361.041 420.522 Q363.486 420.522 364.859 419.299 Q366.251 418.077 366.251 415.895 Q366.251 413.713 364.859 412.491 Q363.486 411.268 361.041 411.268 Q358.577 411.268 357.204 412.491 Q355.85 413.713 355.85 415.895 Z" fill="#000000" fill-rule="nonzero" fill-opacity="1" /><path clip-path="url(#clip530)" d="M152.848 265.307 L175.07 265.307 L175.07 267.297 L162.524 299.867 L157.64 299.867 L169.445 269.242 L152.848 269.242 L152.848 265.307 Z" fill="#000000" fill-rule="nonzero" fill-opacity="1" /><path clip-path="url(#clip530)" d="M184.19 293.987 L189.075 293.987 L189.075 299.867 L184.19 299.867 L184.19 293.987 Z" fill="#000000" fill-rule="nonzero" fill-opacity="1" /><path clip-path="url(#clip530)" d="M199.306 265.307 L217.662 265.307 L217.662 269.242 L203.588 269.242 L203.588 277.714 Q204.607 277.367 205.625 277.205 Q206.644 277.02 207.662 277.02 Q213.449 277.02 216.829 280.191 Q220.209 283.362 220.209 288.779 Q220.209 294.358 216.736 297.459 Q213.264 300.538 206.945 300.538 Q204.769 300.538 202.5 300.168 Q200.255 299.797 197.848 299.057 L197.848 294.358 Q199.931 295.492 202.153 296.047 Q204.375 296.603 206.852 296.603 Q210.857 296.603 213.195 294.496 Q215.533 292.39 215.533 288.779 Q215.533 285.168 213.195 283.061 Q210.857 280.955 206.852 280.955 Q204.977 280.955 203.102 281.371 Q201.25 281.788 199.306 282.668 L199.306 265.307 Z" fill="#000000" fill-rule="nonzero" fill-opacity="1" /><path clip-path="url(#clip530)" d="M239.422 268.385 Q235.81 268.385 233.982 271.95 Q232.176 275.492 232.176 282.621 Q232.176 289.728 233.982 293.293 Q235.81 296.834 239.422 296.834 Q243.056 296.834 244.861 293.293 Q246.69 289.728 246.69 282.621 Q246.69 275.492 244.861 271.95 Q243.056 268.385 239.422 268.385 M239.422 264.682 Q245.232 264.682 248.287 269.288 Q251.366 273.872 251.366 282.621 Q251.366 291.348 248.287 295.955 Q245.232 300.538 239.422 300.538 Q233.611 300.538 230.533 295.955 Q227.477 291.348 227.477 282.621 Q227.477 273.872 230.533 269.288 Q233.611 264.682 239.422 264.682 Z" fill="#000000" fill-rule="nonzero" fill-opacity="1" /><path clip-path="url(#clip530)" d="M287.755 274.404 L277.176 285.029 L287.755 295.608 L285 298.408 L274.375 287.783 L263.75 298.408 L261.019 295.608 L271.574 285.029 L261.019 274.404 L263.75 271.603 L274.375 282.228 L285 271.603 L287.755 274.404 Z" fill="#000000" fill-rule="nonzero" fill-opacity="1" /><path clip-path="url(#clip530)" d="M300.116 295.932 L307.754 295.932 L307.754 269.566 L299.444 271.233 L299.444 266.973 L307.708 265.307 L312.384 265.307 L312.384 295.932 L320.023 295.932 L320.023 299.867 L300.116 299.867 L300.116 295.932 Z" fill="#000000" fill-rule="nonzero" fill-opacity="1" /><path clip-path="url(#clip530)" d="M339.467 268.385 Q335.856 268.385 334.027 271.95 Q332.222 275.492 332.222 282.621 Q332.222 289.728 334.027 293.293 Q335.856 296.834 339.467 296.834 Q343.102 296.834 344.907 293.293 Q346.736 289.728 346.736 282.621 Q346.736 275.492 344.907 271.95 Q343.102 268.385 339.467 268.385 M339.467 264.682 Q345.277 264.682 348.333 269.288 Q351.412 273.872 351.412 282.621 Q351.412 291.348 348.333 295.955 Q345.277 300.538 339.467 300.538 Q333.657 300.538 330.578 295.955 Q327.523 291.348 327.523 282.621 Q327.523 273.872 330.578 269.288 Q333.657 264.682 339.467 264.682 Z" fill="#000000" fill-rule="nonzero" fill-opacity="1" /><path clip-path="url(#clip530)" d="M361.041 259.122 Q358.333 259.122 356.772 260.57 Q355.23 262.018 355.23 264.557 Q355.23 267.096 356.772 268.544 Q358.333 269.993 361.041 269.993 Q363.75 269.993 365.311 268.544 Q366.872 267.077 366.872 264.557 Q366.872 262.018 365.311 260.57 Q363.768 259.122 361.041 259.122 M357.242 257.504 Q354.797 256.902 353.424 255.228 Q352.07 253.555 352.07 251.147 Q352.07 247.781 354.459 245.825 Q356.866 243.869 361.041 243.869 Q365.235 243.869 367.624 245.825 Q370.013 247.781 370.013 251.147 Q370.013 253.555 368.64 255.228 Q367.285 256.902 364.859 257.504 Q367.605 258.144 369.129 260.006 Q370.671 261.868 370.671 264.557 Q370.671 268.638 368.169 270.82 Q365.687 273.002 361.041 273.002 Q356.396 273.002 353.894 270.82 Q351.412 268.638 351.412 264.557 Q351.412 261.868 352.954 260.006 Q354.496 258.144 357.242 257.504 M355.85 251.504 Q355.85 253.686 357.204 254.909 Q358.577 256.131 361.041 256.131 Q363.486 256.131 364.859 254.909 Q366.251 253.686 366.251 251.504 Q366.251 249.323 364.859 248.1 Q363.486 246.878 361.041 246.878 Q358.577 246.878 357.204 248.1 Q355.85 249.323 355.85 251.504 Z" fill="#000000" fill-rule="nonzero" fill-opacity="1" /><path clip-path="url(#clip530)" d="M16.4842 869.64 L16.4842 862.734 L36.0269 849.557 L16.4842 836.475 L16.4842 829.568 L41.3741 846.374 L64.0042 846.374 L64.0042 852.835 L41.3741 852.835 L16.4842 869.64 Z" fill="#000000" fill-rule="nonzero" fill-opacity="1" /><path clip-path="url(#clip530)" d="M14.5426 788.764 Q21.8632 793.029 29.0246 795.098 Q36.186 797.167 43.5384 797.167 Q50.8908 797.167 58.1159 795.098 Q65.3091 792.997 72.5979 788.764 L72.5979 793.857 Q65.1182 798.631 57.8931 801.018 Q50.668 803.373 43.5384 803.373 Q36.4406 803.373 29.2474 801.018 Q22.0542 798.663 14.5426 793.857 L14.5426 788.764 Z" fill="#000000" fill-rule="nonzero" fill-opacity="1" /><path clip-path="url(#clip530)" d="M16.4842 777.147 L16.4842 770.717 L36.568 770.717 L16.4842 749.392 L16.4842 741.117 L38.6368 764.702 L64.0042 739.43 L64.0042 747.896 L41.1194 770.717 L64.0042 770.717 L64.0042 777.147 L16.4842 777.147 Z" fill="#000000" fill-rule="nonzero" fill-opacity="1" /><path clip-path="url(#clip530)" d="M16.4842 734.401 L16.4842 724.821 L48.8219 712.694 L16.4842 700.504 L16.4842 690.923 L64.0042 690.923 L64.0042 697.193 L22.277 697.193 L54.8694 709.447 L54.8694 715.909 L22.277 728.163 L64.0042 728.163 L64.0042 734.401 L16.4842 734.401 Z" fill="#000000" fill-rule="nonzero" fill-opacity="1" /><path clip-path="url(#clip530)" d="M14.5426 679.338 L14.5426 674.245 Q22.0542 669.471 29.2474 667.115 Q36.4406 664.728 43.5384 664.728 Q50.668 664.728 57.8931 667.115 Q65.1182 669.471 72.5979 674.245 L72.5979 679.338 Q65.3091 675.104 58.1159 673.036 Q50.8908 670.935 43.5384 670.935 Q36.186 670.935 29.0246 673.036 Q21.8632 675.104 14.5426 679.338 Z" fill="#000000" fill-rule="nonzero" fill-opacity="1" /><path clip-path="url(#clip530)" d="M804.06 12.096 L842.3 12.096 L842.3 18.9825 L812.242 18.9825 L812.242 36.8875 L841.044 36.8875 L841.044 43.7741 L812.242 43.7741 L812.242 65.6895 L843.029 65.6895 L843.029 72.576 L804.06 72.576 L804.06 12.096 Z" fill="#000000" fill-rule="nonzero" fill-opacity="1" /><path clip-path="url(#clip530)" d="M876.773 49.7694 Q867.74 49.7694 864.256 51.8354 Q860.772 53.9013 860.772 58.8839 Q860.772 62.8538 863.365 65.2034 Q865.998 67.5124 870.494 67.5124 Q876.692 67.5124 880.419 63.1374 Q884.187 58.7219 884.187 51.4303 L884.187 49.7694 L876.773 49.7694 M891.64 46.6907 L891.64 72.576 L884.187 72.576 L884.187 65.6895 Q881.634 69.8214 877.827 71.8063 Q874.019 73.7508 868.51 73.7508 Q861.542 73.7508 857.41 69.8619 Q853.319 65.9325 853.319 59.3701 Q853.319 51.7138 858.423 47.825 Q863.567 43.9361 873.735 43.9361 L884.187 43.9361 L884.187 43.2069 Q884.187 38.0623 880.784 35.2672 Q877.421 32.4315 871.305 32.4315 Q867.416 32.4315 863.729 33.3632 Q860.043 34.295 856.64 36.1584 L856.64 29.2718 Q860.732 27.692 864.58 26.9223 Q868.428 26.1121 872.074 26.1121 Q881.918 26.1121 886.779 31.2163 Q891.64 36.3204 891.64 46.6907 Z" fill="#000000" fill-rule="nonzero" fill-opacity="1" /><path clip-path="url(#clip530)" d="M933.283 34.1734 Q932.028 33.4443 930.529 33.1202 Q929.071 32.7556 927.288 32.7556 Q920.969 32.7556 917.566 36.8875 Q914.204 40.9789 914.204 48.6757 L914.204 72.576 L906.71 72.576 L906.71 27.2059 L914.204 27.2059 L914.204 34.2544 Q916.553 30.1225 920.321 28.1376 Q924.088 26.1121 929.476 26.1121 Q930.245 26.1121 931.177 26.2337 Q932.109 26.3147 933.243 26.5172 L933.283 34.1734 Z" fill="#000000" fill-rule="nonzero" fill-opacity="1" /><path clip-path="url(#clip530)" d="M948.474 14.324 L948.474 27.2059 L963.827 27.2059 L963.827 32.9987 L948.474 32.9987 L948.474 57.6282 Q948.474 63.1779 949.973 64.7578 Q951.513 66.3376 956.171 66.3376 L963.827 66.3376 L963.827 72.576 L956.171 72.576 Q947.543 72.576 944.261 69.3758 Q940.98 66.1351 940.98 57.6282 L940.98 32.9987 L935.511 32.9987 L935.511 27.2059 L940.98 27.2059 L940.98 14.324 L948.474 14.324 Z" fill="#000000" fill-rule="nonzero" fill-opacity="1" /><path clip-path="url(#clip530)" d="M1011.34 45.1919 L1011.34 72.576 L1003.89 72.576 L1003.89 45.4349 Q1003.89 38.994 1001.38 35.7938 Q998.868 32.5936 993.844 32.5936 Q987.809 32.5936 984.325 36.4419 Q980.841 40.2903 980.841 46.9338 L980.841 72.576 L973.347 72.576 L973.347 9.54393 L980.841 9.54393 L980.841 34.2544 Q983.515 30.163 987.12 28.1376 Q990.766 26.1121 995.505 26.1121 Q1003.32 26.1121 1007.33 30.9732 Q1011.34 35.7938 1011.34 45.1919 Z" fill="#000000" fill-rule="nonzero" fill-opacity="1" /><path clip-path="url(#clip530)" d="M1033.26 12.096 L1033.26 34.5785 L1026.37 34.5785 L1026.37 12.096 L1033.26 12.096 Z" fill="#000000" fill-rule="nonzero" fill-opacity="1" /><path clip-path="url(#clip530)" d="M1077.94 28.5427 L1077.94 35.5912 Q1074.78 33.9709 1071.38 33.1607 Q1067.98 32.3505 1064.33 32.3505 Q1058.78 32.3505 1055.99 34.0519 Q1053.23 35.7533 1053.23 39.156 Q1053.23 41.7486 1055.22 43.2475 Q1057.2 44.7058 1063.2 46.0426 L1065.75 46.6097 Q1073.69 48.3111 1077.01 51.4303 Q1080.37 54.509 1080.37 60.0587 Q1080.37 66.3781 1075.35 70.0644 Q1070.37 73.7508 1061.62 73.7508 Q1057.97 73.7508 1054 73.0216 Q1050.07 72.3329 1045.7 70.9151 L1045.7 63.2184 Q1049.83 65.3654 1053.84 66.4591 Q1057.85 67.5124 1061.78 67.5124 Q1067.04 67.5124 1069.88 65.73 Q1072.72 63.9071 1072.72 60.6258 Q1072.72 57.5877 1070.65 55.9673 Q1068.62 54.3469 1061.7 52.8481 L1059.1 52.2405 Q1052.18 50.7821 1049.1 47.7845 Q1046.02 44.7463 1046.02 39.4801 Q1046.02 33.0797 1050.56 29.5959 Q1055.09 26.1121 1063.44 26.1121 Q1067.57 26.1121 1071.22 26.7198 Q1074.86 27.3274 1077.94 28.5427 Z" fill="#000000" fill-rule="nonzero" fill-opacity="1" /><path clip-path="url(#clip530)" d="M1127.12 18.8205 L1127.12 41.5461 L1137.41 41.5461 Q1143.12 41.5461 1146.24 38.5889 Q1149.36 35.6318 1149.36 30.163 Q1149.36 24.7348 1146.24 21.7777 Q1143.12 18.8205 1137.41 18.8205 L1127.12 18.8205 M1118.94 12.096 L1137.41 12.096 Q1147.58 12.096 1152.76 16.714 Q1157.99 21.2916 1157.99 30.163 Q1157.99 39.1155 1152.76 43.6931 Q1147.58 48.2706 1137.41 48.2706 L1127.12 48.2706 L1127.12 72.576 L1118.94 72.576 L1118.94 12.096 Z" fill="#000000" fill-rule="nonzero" fill-opacity="1" /><path clip-path="url(#clip530)" d="M1183.26 32.4315 Q1177.27 32.4315 1173.79 37.1306 Q1170.3 41.7891 1170.3 49.9314 Q1170.3 58.0738 1173.75 62.7728 Q1177.23 67.4314 1183.26 67.4314 Q1189.22 67.4314 1192.7 62.7323 Q1196.19 58.0333 1196.19 49.9314 Q1196.19 41.8701 1192.7 37.1711 Q1189.22 32.4315 1183.26 32.4315 M1183.26 26.1121 Q1192.99 26.1121 1198.54 32.4315 Q1204.09 38.7509 1204.09 49.9314 Q1204.09 61.0714 1198.54 67.4314 Q1192.99 73.7508 1183.26 73.7508 Q1173.5 73.7508 1167.95 67.4314 Q1162.44 61.0714 1162.44 49.9314 Q1162.44 38.7509 1167.95 32.4315 Q1173.5 26.1121 1183.26 26.1121 Z" fill="#000000" fill-rule="nonzero" fill-opacity="1" /><path clip-path="url(#clip530)" d="M1245.37 28.5427 L1245.37 35.5912 Q1242.21 33.9709 1238.8 33.1607 Q1235.4 32.3505 1231.75 32.3505 Q1226.2 32.3505 1223.41 34.0519 Q1220.65 35.7533 1220.65 39.156 Q1220.65 41.7486 1222.64 43.2475 Q1224.62 44.7058 1230.62 46.0426 L1233.17 46.6097 Q1241.11 48.3111 1244.43 51.4303 Q1247.8 54.509 1247.8 60.0587 Q1247.8 66.3781 1242.77 70.0644 Q1237.79 73.7508 1229.04 73.7508 Q1225.39 73.7508 1221.42 73.0216 Q1217.49 72.3329 1213.12 70.9151 L1213.12 63.2184 Q1217.25 65.3654 1221.26 66.4591 Q1225.27 67.5124 1229.2 67.5124 Q1234.47 67.5124 1237.3 65.73 Q1240.14 63.9071 1240.14 60.6258 Q1240.14 57.5877 1238.07 55.9673 Q1236.05 54.3469 1229.12 52.8481 L1226.53 52.2405 Q1219.6 50.7821 1216.52 47.7845 Q1213.44 44.7463 1213.44 39.4801 Q1213.44 33.0797 1217.98 29.5959 Q1222.52 26.1121 1230.86 26.1121 Q1234.99 26.1121 1238.64 26.7198 Q1242.29 27.3274 1245.37 28.5427 Z" fill="#000000" fill-rule="nonzero" fill-opacity="1" /><path clip-path="url(#clip530)" d="M1259.66 27.2059 L1267.12 27.2059 L1267.12 72.576 L1259.66 72.576 L1259.66 27.2059 M1259.66 9.54393 L1267.12 9.54393 L1267.12 18.9825 L1259.66 18.9825 L1259.66 9.54393 Z" fill="#000000" fill-rule="nonzero" fill-opacity="1" /><path clip-path="url(#clip530)" d="M1290.09 14.324 L1290.09 27.2059 L1305.44 27.2059 L1305.44 32.9987 L1290.09 32.9987 L1290.09 57.6282 Q1290.09 63.1779 1291.59 64.7578 Q1293.13 66.3376 1297.78 66.3376 L1305.44 66.3376 L1305.44 72.576 L1297.78 72.576 Q1289.16 72.576 1285.87 69.3758 Q1282.59 66.1351 1282.59 57.6282 L1282.59 32.9987 L1277.12 32.9987 L1277.12 27.2059 L1282.59 27.2059 L1282.59 14.324 L1290.09 14.324 Z" fill="#000000" fill-rule="nonzero" fill-opacity="1" /><path clip-path="url(#clip530)" d="M1315.24 27.2059 L1322.7 27.2059 L1322.7 72.576 L1315.24 72.576 L1315.24 27.2059 M1315.24 9.54393 L1322.7 9.54393 L1322.7 18.9825 L1315.24 18.9825 L1315.24 9.54393 Z" fill="#000000" fill-rule="nonzero" fill-opacity="1" /><path clip-path="url(#clip530)" d="M1355.87 32.4315 Q1349.88 32.4315 1346.39 37.1306 Q1342.91 41.7891 1342.91 49.9314 Q1342.91 58.0738 1346.35 62.7728 Q1349.84 67.4314 1355.87 67.4314 Q1361.83 67.4314 1365.31 62.7323 Q1368.8 58.0333 1368.8 49.9314 Q1368.8 41.8701 1365.31 37.1711 Q1361.83 32.4315 1355.87 32.4315 M1355.87 26.1121 Q1365.6 26.1121 1371.15 32.4315 Q1376.7 38.7509 1376.7 49.9314 Q1376.7 61.0714 1371.15 67.4314 Q1365.6 73.7508 1355.87 73.7508 Q1346.11 73.7508 1340.56 67.4314 Q1335.05 61.0714 1335.05 49.9314 Q1335.05 38.7509 1340.56 32.4315 Q1346.11 26.1121 1355.87 26.1121 Z" fill="#000000" fill-rule="nonzero" fill-opacity="1" /><path clip-path="url(#clip530)" d="M1426.76 45.1919 L1426.76 72.576 L1419.31 72.576 L1419.31 45.4349 Q1419.31 38.994 1416.8 35.7938 Q1414.29 32.5936 1409.26 32.5936 Q1403.23 32.5936 1399.75 36.4419 Q1396.26 40.2903 1396.26 46.9338 L1396.26 72.576 L1388.77 72.576 L1388.77 27.2059 L1396.26 27.2059 L1396.26 34.2544 Q1398.93 30.163 1402.54 28.1376 Q1406.19 26.1121 1410.93 26.1121 Q1418.74 26.1121 1422.75 30.9732 Q1426.76 35.7938 1426.76 45.1919 Z" fill="#000000" fill-rule="nonzero" fill-opacity="1" /><path clip-path="url(#clip530)" d="M1463.67 27.2059 L1471.12 27.2059 L1480.44 62.6108 L1489.72 27.2059 L1498.51 27.2059 L1507.82 62.6108 L1517.1 27.2059 L1524.55 27.2059 L1512.68 72.576 L1503.89 72.576 L1494.13 35.3887 L1484.33 72.576 L1475.54 72.576 L1463.67 27.2059 Z" fill="#000000" fill-rule="nonzero" fill-opacity="1" /><path clip-path="url(#clip530)" d="M1529.29 62.2867 L1537.84 62.2867 L1537.84 72.576 L1529.29 72.576 L1529.29 62.2867 Z" fill="#000000" fill-rule="nonzero" fill-opacity="1" /><path clip-path="url(#clip530)" d="M1580.9 34.1734 Q1579.65 33.4443 1578.15 33.1202 Q1576.69 32.7556 1574.91 32.7556 Q1568.59 32.7556 1565.18 36.8875 Q1561.82 40.9789 1561.82 48.6757 L1561.82 72.576 L1554.33 72.576 L1554.33 27.2059 L1561.82 27.2059 L1561.82 34.2544 Q1564.17 30.1225 1567.94 28.1376 Q1571.71 26.1121 1577.09 26.1121 Q1577.86 26.1121 1578.8 26.2337 Q1579.73 26.3147 1580.86 26.5172 L1580.9 34.1734 Z" fill="#000000" fill-rule="nonzero" fill-opacity="1" /><path clip-path="url(#clip530)" d="M1582.16 62.2867 L1590.7 62.2867 L1590.7 72.576 L1582.16 72.576 L1582.16 62.2867 Z" fill="#000000" fill-rule="nonzero" fill-opacity="1" /><path clip-path="url(#clip530)" d="M1614.85 14.324 L1614.85 27.2059 L1630.2 27.2059 L1630.2 32.9987 L1614.85 32.9987 L1614.85 57.6282 Q1614.85 63.1779 1616.35 64.7578 Q1617.89 66.3376 1622.54 66.3376 L1630.2 66.3376 L1630.2 72.576 L1622.54 72.576 Q1613.92 72.576 1610.64 69.3758 Q1607.35 66.1351 1607.35 57.6282 L1607.35 32.9987 L1601.89 32.9987 L1601.89 27.2059 L1607.35 27.2059 L1607.35 14.324 L1614.85 14.324 Z" fill="#000000" fill-rule="nonzero" fill-opacity="1" /><path clip-path="url(#clip530)" d="M1641.06 62.2867 L1649.6 62.2867 L1649.6 72.576 L1641.06 72.576 L1641.06 62.2867 Z" fill="#000000" fill-rule="nonzero" fill-opacity="1" /><path clip-path="url(#clip530)" d="M1693.07 12.096 L1701.25 12.096 L1701.25 68.3631 Q1701.25 79.3005 1697.08 84.2426 Q1692.95 89.1847 1683.75 89.1847 L1680.63 89.1847 L1680.63 82.2982 L1683.19 82.2982 Q1688.62 82.2982 1690.84 79.26 Q1693.07 76.2218 1693.07 68.3631 L1693.07 12.096 Z" fill="#000000" fill-rule="nonzero" fill-opacity="1" /><path clip-path="url(#clip530)" d="M1716.44 54.671 L1716.44 27.2059 L1723.9 27.2059 L1723.9 54.3874 Q1723.9 60.8284 1726.41 64.0691 Q1728.92 67.2693 1733.94 67.2693 Q1739.98 67.2693 1743.46 63.421 Q1746.99 59.5726 1746.99 52.9291 L1746.99 27.2059 L1754.44 27.2059 L1754.44 72.576 L1746.99 72.576 L1746.99 65.6084 Q1744.27 69.7404 1740.67 71.7658 Q1737.1 73.7508 1732.36 73.7508 Q1724.55 73.7508 1720.5 68.8897 Q1716.44 64.0286 1716.44 54.671 M1735.2 26.1121 L1735.2 26.1121 Z" fill="#000000" fill-rule="nonzero" fill-opacity="1" /><path clip-path="url(#clip530)" d="M1777.01 65.7705 L1777.01 89.8329 L1769.51 89.8329 L1769.51 27.2059 L1777.01 27.2059 L1777.01 34.0924 Q1779.36 30.0415 1782.92 28.0971 Q1786.53 26.1121 1791.51 26.1121 Q1799.77 26.1121 1804.92 32.6746 Q1810.1 39.2371 1810.1 49.9314 Q1810.1 60.6258 1804.92 67.1883 Q1799.77 73.7508 1791.51 73.7508 Q1786.53 73.7508 1782.92 71.8063 Q1779.36 69.8214 1777.01 65.7705 M1802.36 49.9314 Q1802.36 41.7081 1798.96 37.0496 Q1795.6 32.3505 1789.69 32.3505 Q1783.77 32.3505 1780.37 37.0496 Q1777.01 41.7081 1777.01 49.9314 Q1777.01 58.1548 1780.37 62.8538 Q1783.77 67.5124 1789.69 67.5124 Q1795.6 67.5124 1798.96 62.8538 Q1802.36 58.1548 1802.36 49.9314 Z" fill="#000000" fill-rule="nonzero" fill-opacity="1" /><path clip-path="url(#clip530)" d="M1822.46 27.2059 L1829.91 27.2059 L1829.91 72.576 L1822.46 72.576 L1822.46 27.2059 M1822.46 9.54393 L1829.91 9.54393 L1829.91 18.9825 L1822.46 18.9825 L1822.46 9.54393 Z" fill="#000000" fill-rule="nonzero" fill-opacity="1" /><path clip-path="url(#clip530)" d="M1852.88 14.324 L1852.88 27.2059 L1868.23 27.2059 L1868.23 32.9987 L1852.88 32.9987 L1852.88 57.6282 Q1852.88 63.1779 1854.38 64.7578 Q1855.92 66.3376 1860.58 66.3376 L1868.23 66.3376 L1868.23 72.576 L1860.58 72.576 Q1851.95 72.576 1848.67 69.3758 Q1845.39 66.1351 1845.39 57.6282 L1845.39 32.9987 L1839.92 32.9987 L1839.92 27.2059 L1845.39 27.2059 L1845.39 14.324 L1852.88 14.324 Z" fill="#000000" fill-rule="nonzero" fill-opacity="1" /><path clip-path="url(#clip530)" d="M1916.84 48.0275 L1916.84 51.6733 L1882.57 51.6733 Q1883.06 59.3701 1887.19 63.421 Q1891.36 67.4314 1898.78 67.4314 Q1903.07 67.4314 1907.08 66.3781 Q1911.13 65.3249 1915.1 63.2184 L1915.1 70.267 Q1911.09 71.9684 1906.88 72.8596 Q1902.66 73.7508 1898.33 73.7508 Q1887.47 73.7508 1881.11 67.4314 Q1874.79 61.1119 1874.79 50.3365 Q1874.79 39.1965 1880.79 32.6746 Q1886.83 26.1121 1897.03 26.1121 Q1906.19 26.1121 1911.5 32.0264 Q1916.84 37.9003 1916.84 48.0275 M1909.39 45.84 Q1909.31 39.7232 1905.95 36.0774 Q1902.62 32.4315 1897.12 32.4315 Q1890.88 32.4315 1887.11 35.9558 Q1883.38 39.4801 1882.82 45.8805 L1909.39 45.84 Z" fill="#000000" fill-rule="nonzero" fill-opacity="1" /><path clip-path="url(#clip530)" d="M1955.37 34.1734 Q1954.11 33.4443 1952.61 33.1202 Q1951.15 32.7556 1949.37 32.7556 Q1943.05 32.7556 1939.65 36.8875 Q1936.29 40.9789 1936.29 48.6757 L1936.29 72.576 L1928.79 72.576 L1928.79 27.2059 L1936.29 27.2059 L1936.29 34.2544 Q1938.64 30.1225 1942.4 28.1376 Q1946.17 26.1121 1951.56 26.1121 Q1952.33 26.1121 1953.26 26.2337 Q1954.19 26.3147 1955.33 26.5172 L1955.37 34.1734 Z" fill="#000000" fill-rule="nonzero" fill-opacity="1" /><polyline clip-path="url(#clip532)" style="stroke:#009af9; stroke-linecap:round; stroke-linejoin:round; stroke-width:4; stroke-opacity:1; fill:none" points="1499.43,230.133 1470.93,208.361 1434.63,189.369 1391.67,174.363 1343.63,164.302 1292.42,159.909 1240.17,161.531 1189.12,169.189 1141.41,182.498 1099.01,200.76 1063.47,222.958 1035.97,247.883 1017.12,274.174 1007.07,300.446 1005.39,325.346 1011.25,347.652 1023.36,366.318 1040.2,380.532 1059.95,389.744 1080.72,393.681 1100.53,392.369 1117.54,386.106 1129.97,375.478 1136.35,361.294 1135.46,344.604 1126.52,326.59 1109.14,308.58 1083.45,291.904 1050.05,277.895 1010.05,267.733 964.968,262.435 916.708,262.708 867.381,268.97 819.222,281.232 774.389,299.178 734.854,322.1 702.237,349.038 677.73,378.761 662.018,409.948 655.26,441.18 657.109,471.124 666.736,498.513 682.93,522.307 704.134,541.645 728.594,555.971 754.384,564.966 779.577,568.642 802.253,567.258 820.682,561.382 833.305,551.796 838.929,539.529 836.676,525.753 826.167,511.779 807.436,498.945 781.085,488.575 748.129,481.874 710.099,479.863 668.816,483.29 626.425,492.583 585.104,507.807 547.067,528.652 514.262,554.464 488.384,584.276 470.625,616.904 461.749,650.999 461.929,685.177 470.883,718.058 487.8,748.4 511.511,775.102 540.472,797.32 572.945,814.43 607.008,826.128 640.726,832.358 672.174,833.393 699.588,829.735 721.403,822.184 736.365,811.712 743.585,799.513 742.606,786.854 733.451,775.103 716.629,765.56 693.156,759.468 664.472,757.841 632.417,761.48 599.056,770.819 566.62,785.977 537.266,806.658 513.021,832.252 495.548,861.805 486.139,894.159 485.536,927.971 494.017,961.857 511.28,994.435 536.608,1024.45 568.802,1050.78 606.398,1072.55 647.613,1089.14 690.584,1100.19 733.317,1105.65 773.929,1105.73 810.586,1100.94 841.739,1092.04 866.06,1080.02 882.654,1066 890.987,1051.31 891.061,1037.25 883.314,1025.18 868.731,1016.32 848.698,1011.75 825.029,1012.24 799.765,1018.31 775.126,1030.06 753.279,1047.29 736.261,1069.36 725.775,1095.41 723.133,1124.23 729.142,1154.55 744.097,1184.94 767.767,1214.07 799.438,1240.61 837.983,1263.49 881.915,1281.77 929.516,1294.83 978.878,1302.27 1028.06,1304.03 1075.11,1300.29 1118.24,1291.55 1155.82,1278.53 1186.53,1262.21 1209.4,1243.72 1223.9,1224.35 1229.93,1205.44 1227.94,1188.32 1218.81,1174.25 1203.95,1164.31 1185.08,1159.32 1164.28,1159.81 1143.69,1165.95 1125.56,1177.54 1111.89,1194 1104.46,1214.47 1104.57,1237.8 1113.11,1262.69 1130.41,1287.77 1156.29,1311.64 1190.06,1333.03 1230.65,1350.79 1276.58,1364.03 1326.16,1372.04 1377.5,1374.46 1428.65,1371.15 1477.66,1362.33 1522.71,1348.41 1562.17,1330.15 1594.68,1308.47 1619.24,1284.52 1635.26,1259.56 1642.64,1234.95 1641.75,1212 1633.46,1192.02 1619.09,1176.07 1600.38,1165.03 1579.36,1159.45 1558.2,1159.54 1539.11,1165.12 1524.15,1175.67 1515.09,1190.32 1513.33,1207.98 1519.76,1227.35 1534.78,1247.06 1558.23,1265.71 1589.52,1282.03 1627.55,1294.85 1670.93,1303.25 1717.94,1306.53 1766.75,1304.26 1815.37,1296.32 1861.88,1282.87 1904.43,1264.34 1941.38,1241.42 1971.33,1215.05 1993.28,1186.35 2006.58,1156.58 2011.09,1127.09 2007.12,1099.21 1995.52,1074.23 1977.58,1053.27 1955,1037.21 1929.78,1026.64 1904.11,1021.79 1880.17,1022.54 1860.08,1028.37 1845.62,1038.49 1838.24,1051.77 1838.87,1066.97 1847.97,1082.68 1865.43,1097.56 1890.69,1110.26 1922.7,1119.66 1960.09,1124.77 2001.18,1124.9 2044.12,1119.58 2086.98,1108.67 2127.79,1092.3 2164.72,1070.89 2196.09,1045.09 2220.52,1015.85 2236.9,984.234 2244.62,951.528 2243.44,919.049 2233.69,888.164 2216.11,860.145 2192.02,836.143 2163.02,817.057 2131.16,803.513 2098.56,795.773 2067.47,793.743 2039.96,796.954 2017.91,804.61 2002.75,815.642 1995.51,828.786 1996.65,842.678 2006.17,855.927 2023.48,867.227 2047.64,875.39 2077.26,879.451 2110.72,878.657 2146.16,872.555 2181.67,860.947 2215.28,843.955 2245.14,821.949 2269.57,795.603 2287.13,765.785 2296.73,733.609 2297.68,700.295 2289.73,667.2 2273.13,635.651 2248.63,606.97 2217.45,582.287 2181.23,562.56 2141.94,548.409 2101.73,540.162 2062.82,537.727 2027.34,540.692 1997.15,548.267 1973.77,559.425 1958.24,572.897 1951.11,587.339 1952.36,601.349 1961.53,613.616 1977.64,622.935 1999.41,628.32 2025.17,628.998 2053.15,624.486 2081.37,614.565 2107.92,599.323 2130.91,579.117 2148.66,554.58 2159.68,526.582 2162.89,496.197 2157.51,464.656 "/>
</svg>
