<?xml version="1.0" encoding="utf-8"?>
<svg xmlns="http://www.w3.org/2000/svg" xmlns:xlink="http://www.w3.org/1999/xlink" width="600" height="600" viewBox="0 0 2400 2400">
<defs>
  <clipPath id="clip240">
    <rect x="0" y="0" width="2400" height="2400"/>
  </clipPath>
</defs>
<defs>
  <clipPath id="clip241">
    <rect x="429" y="47" width="1925" height="2109"/>
  </clipPath>
</defs>
<polyline clip-path="url(#clip240)" style="stroke:#000000; stroke-linecap:round; stroke-linejoin:round; stroke-width:4; stroke-opacity:1; fill:none" points="429.227,2155.72 2352.76,2155.72 "/>
<polyline clip-path="url(#clip240)" style="stroke:#000000; stroke-linecap:round; stroke-linejoin:round; stroke-width:4; stroke-opacity:1; fill:none" points="690.314,2155.72 690.314,2136.82 "/>
<polyline clip-path="url(#clip240)" style="stroke:#000000; stroke-linecap:round; stroke-linejoin:round; stroke-width:4; stroke-opacity:1; fill:none" points="1167.67,2155.72 1167.67,2136.82 "/>
<polyline clip-path="url(#clip240)" style="stroke:#000000; stroke-linecap:round; stroke-linejoin:round; stroke-width:4; stroke-opacity:1; fill:none" points="1645.02,2155.72 1645.02,2136.82 "/>
<polyline clip-path="url(#clip240)" style="stroke:#000000; stroke-linecap:round; stroke-linejoin:round; stroke-width:4; stroke-opacity:1; fill:none" points="2122.37,2155.72 2122.37,2136.82 "/>
<path clip-path="url(#clip240)" d="M577.791 2216.95 L607.467 2216.95 L607.467 2220.88 L577.791 2220.88 L577.791 2216.95 Z" fill="#000000" fill-rule="nonzero" fill-opacity="1" /><path clip-path="url(#clip240)" d="M617.606 2199.22 L635.962 2199.22 L635.962 2203.15 L621.888 2203.15 L621.888 2211.62 Q622.907 2211.28 623.925 2211.11 Q624.944 2210.93 625.962 2210.93 Q631.749 2210.93 635.129 2214.1 Q638.509 2217.27 638.509 2222.69 Q638.509 2228.27 635.036 2231.37 Q631.564 2234.45 625.245 2234.45 Q623.069 2234.45 620.8 2234.08 Q618.555 2233.71 616.148 2232.96 L616.148 2228.27 Q618.231 2229.4 620.453 2229.96 Q622.675 2230.51 625.152 2230.51 Q629.157 2230.51 631.495 2228.4 Q633.833 2226.3 633.833 2222.69 Q633.833 2219.08 631.495 2216.97 Q629.157 2214.86 625.152 2214.86 Q623.277 2214.86 621.402 2215.28 Q619.55 2215.7 617.606 2216.58 L617.606 2199.22 Z" fill="#000000" fill-rule="nonzero" fill-opacity="1" /><path clip-path="url(#clip240)" d="M647.722 2227.9 L652.606 2227.9 L652.606 2233.78 L647.722 2233.78 L647.722 2227.9 Z" fill="#000000" fill-rule="nonzero" fill-opacity="1" /><path clip-path="url(#clip240)" d="M672.791 2202.29 Q669.18 2202.29 667.351 2205.86 Q665.546 2209.4 665.546 2216.53 Q665.546 2223.64 667.351 2227.2 Q669.18 2230.74 672.791 2230.74 Q676.425 2230.74 678.231 2227.2 Q680.059 2223.64 680.059 2216.53 Q680.059 2209.4 678.231 2205.86 Q676.425 2202.29 672.791 2202.29 M672.791 2198.59 Q678.601 2198.59 681.657 2203.2 Q684.735 2207.78 684.735 2216.53 Q684.735 2225.26 681.657 2229.86 Q678.601 2234.45 672.791 2234.45 Q666.981 2234.45 663.902 2229.86 Q660.846 2225.26 660.846 2216.53 Q660.846 2207.78 663.902 2203.2 Q666.981 2198.59 672.791 2198.59 Z" fill="#000000" fill-rule="nonzero" fill-opacity="1" /><path clip-path="url(#clip240)" d="M721.124 2208.31 L710.545 2218.94 L721.124 2229.52 L718.369 2232.32 L707.744 2221.69 L697.119 2232.32 L694.388 2229.52 L704.943 2218.94 L694.388 2208.31 L697.119 2205.51 L707.744 2216.14 L718.369 2205.51 L721.124 2208.31 Z" fill="#000000" fill-rule="nonzero" fill-opacity="1" /><path clip-path="url(#clip240)" d="M733.485 2229.84 L741.124 2229.84 L741.124 2203.47 L732.814 2205.14 L732.814 2200.88 L741.078 2199.22 L745.753 2199.22 L745.753 2229.84 L753.392 2229.84 L753.392 2233.78 L733.485 2233.78 L733.485 2229.84 Z" fill="#000000" fill-rule="nonzero" fill-opacity="1" /><path clip-path="url(#clip240)" d="M772.837 2202.29 Q769.226 2202.29 767.397 2205.86 Q765.591 2209.4 765.591 2216.53 Q765.591 2223.64 767.397 2227.2 Q769.226 2230.74 772.837 2230.74 Q776.471 2230.74 778.276 2227.2 Q780.105 2223.64 780.105 2216.53 Q780.105 2209.4 778.276 2205.86 Q776.471 2202.29 772.837 2202.29 M772.837 2198.59 Q778.647 2198.59 781.702 2203.2 Q784.781 2207.78 784.781 2216.53 Q784.781 2225.26 781.702 2229.86 Q778.647 2234.45 772.837 2234.45 Q767.026 2234.45 763.948 2229.86 Q760.892 2225.26 760.892 2216.53 Q760.892 2207.78 763.948 2203.2 Q767.026 2198.59 772.837 2198.59 Z" fill="#000000" fill-rule="nonzero" fill-opacity="1" /><path clip-path="url(#clip240)" d="M784.781 2178.28 L802.836 2178.28 L802.836 2179.9 L792.643 2206.36 L788.674 2206.36 L798.266 2181.48 L784.781 2181.48 L784.781 2178.28 Z" fill="#000000" fill-rule="nonzero" fill-opacity="1" /><path clip-path="url(#clip240)" d="M1167.67 2186.63 Q1164.06 2186.63 1162.23 2190.2 Q1160.42 2193.74 1160.42 2200.87 Q1160.42 2207.98 1162.23 2211.54 Q1164.06 2215.08 1167.67 2215.08 Q1171.3 2215.08 1173.11 2211.54 Q1174.94 2207.98 1174.94 2200.87 Q1174.94 2193.74 1173.11 2190.2 Q1171.3 2186.63 1167.67 2186.63 M1167.67 2182.93 Q1173.48 2182.93 1176.53 2187.54 Q1179.61 2192.12 1179.61 2200.87 Q1179.61 2209.6 1176.53 2214.2 Q1173.48 2218.79 1167.67 2218.79 Q1161.86 2218.79 1158.78 2214.2 Q1155.72 2209.6 1155.72 2200.87 Q1155.72 2192.12 1158.78 2187.54 Q1161.86 2182.93 1167.67 2182.93 Z" fill="#000000" fill-rule="nonzero" fill-opacity="1" /><path clip-path="url(#clip240)" d="M1553.13 2199.22 L1571.49 2199.22 L1571.49 2203.15 L1557.42 2203.15 L1557.42 2211.62 Q1558.43 2211.28 1559.45 2211.11 Q1560.47 2210.93 1561.49 2210.93 Q1567.28 2210.93 1570.66 2214.1 Q1574.04 2217.27 1574.04 2222.69 Q1574.04 2228.27 1570.56 2231.37 Q1567.09 2234.45 1560.77 2234.45 Q1558.6 2234.45 1556.33 2234.08 Q1554.08 2233.71 1551.67 2232.96 L1551.67 2228.27 Q1553.76 2229.4 1555.98 2229.96 Q1558.2 2230.51 1560.68 2230.51 Q1564.68 2230.51 1567.02 2228.4 Q1569.36 2226.3 1569.36 2222.69 Q1569.36 2219.08 1567.02 2216.97 Q1564.68 2214.86 1560.68 2214.86 Q1558.8 2214.86 1556.93 2215.28 Q1555.08 2215.7 1553.13 2216.58 L1553.13 2199.22 Z" fill="#000000" fill-rule="nonzero" fill-opacity="1" /><path clip-path="url(#clip240)" d="M1583.25 2227.9 L1588.13 2227.9 L1588.13 2233.78 L1583.25 2233.78 L1583.25 2227.9 Z" fill="#000000" fill-rule="nonzero" fill-opacity="1" /><path clip-path="url(#clip240)" d="M1608.32 2202.29 Q1604.71 2202.29 1602.88 2205.86 Q1601.07 2209.4 1601.07 2216.53 Q1601.07 2223.64 1602.88 2227.2 Q1604.71 2230.74 1608.32 2230.74 Q1611.95 2230.74 1613.76 2227.2 Q1615.59 2223.64 1615.59 2216.53 Q1615.59 2209.4 1613.76 2205.86 Q1611.95 2202.29 1608.32 2202.29 M1608.32 2198.59 Q1614.13 2198.59 1617.18 2203.2 Q1620.26 2207.78 1620.26 2216.53 Q1620.26 2225.26 1617.18 2229.86 Q1614.13 2234.45 1608.32 2234.45 Q1602.51 2234.45 1599.43 2229.86 Q1596.37 2225.26 1596.37 2216.53 Q1596.37 2207.78 1599.43 2203.2 Q1602.51 2198.59 1608.32 2198.59 Z" fill="#000000" fill-rule="nonzero" fill-opacity="1" /><path clip-path="url(#clip240)" d="M1656.65 2208.31 L1646.07 2218.94 L1656.65 2229.52 L1653.9 2232.32 L1643.27 2221.69 L1632.65 2232.32 L1629.92 2229.52 L1640.47 2218.94 L1629.92 2208.31 L1632.65 2205.51 L1643.27 2216.14 L1653.9 2205.51 L1656.65 2208.31 Z" fill="#000000" fill-rule="nonzero" fill-opacity="1" /><path clip-path="url(#clip240)" d="M1669.01 2229.84 L1676.65 2229.84 L1676.65 2203.47 L1668.34 2205.14 L1668.34 2200.88 L1676.6 2199.22 L1681.28 2199.22 L1681.28 2229.84 L1688.92 2229.84 L1688.92 2233.78 L1669.01 2233.78 L1669.01 2229.84 Z" fill="#000000" fill-rule="nonzero" fill-opacity="1" /><path clip-path="url(#clip240)" d="M1708.36 2202.29 Q1704.75 2202.29 1702.92 2205.86 Q1701.12 2209.4 1701.12 2216.53 Q1701.12 2223.64 1702.92 2227.2 Q1704.75 2230.74 1708.36 2230.74 Q1712 2230.74 1713.8 2227.2 Q1715.63 2223.64 1715.63 2216.53 Q1715.63 2209.4 1713.8 2205.86 Q1712 2202.29 1708.36 2202.29 M1708.36 2198.59 Q1714.17 2198.59 1717.23 2203.2 Q1720.31 2207.78 1720.31 2216.53 Q1720.31 2225.26 1717.23 2229.86 Q1714.17 2234.45 1708.36 2234.45 Q1702.55 2234.45 1699.47 2229.86 Q1696.42 2225.26 1696.42 2216.53 Q1696.42 2207.78 1699.47 2203.2 Q1702.55 2198.59 1708.36 2198.59 Z" fill="#000000" fill-rule="nonzero" fill-opacity="1" /><path clip-path="url(#clip240)" d="M1720.31 2178.28 L1738.36 2178.28 L1738.36 2179.9 L1728.17 2206.36 L1724.2 2206.36 L1733.79 2181.48 L1720.31 2181.48 L1720.31 2178.28 Z" fill="#000000" fill-rule="nonzero" fill-opacity="1" /><path clip-path="url(#clip240)" d="M2029.87 2229.84 L2037.51 2229.84 L2037.51 2203.47 L2029.2 2205.14 L2029.2 2200.88 L2037.46 2199.22 L2042.14 2199.22 L2042.14 2229.84 L2049.78 2229.84 L2049.78 2233.78 L2029.87 2233.78 L2029.87 2229.84 Z" fill="#000000" fill-rule="nonzero" fill-opacity="1" /><path clip-path="url(#clip240)" d="M2059.22 2227.9 L2064.11 2227.9 L2064.11 2233.78 L2059.22 2233.78 L2059.22 2227.9 Z" fill="#000000" fill-rule="nonzero" fill-opacity="1" /><path clip-path="url(#clip240)" d="M2084.29 2202.29 Q2080.68 2202.29 2078.85 2205.86 Q2077.05 2209.4 2077.05 2216.53 Q2077.05 2223.64 2078.85 2227.2 Q2080.68 2230.74 2084.29 2230.74 Q2087.93 2230.74 2089.73 2227.2 Q2091.56 2223.64 2091.56 2216.53 Q2091.56 2209.4 2089.73 2205.86 Q2087.93 2202.29 2084.29 2202.29 M2084.29 2198.59 Q2090.1 2198.59 2093.16 2203.2 Q2096.24 2207.78 2096.24 2216.53 Q2096.24 2225.26 2093.16 2229.86 Q2090.1 2234.45 2084.29 2234.45 Q2078.48 2234.45 2075.4 2229.86 Q2072.35 2225.26 2072.35 2216.53 Q2072.35 2207.78 2075.4 2203.2 Q2078.48 2198.59 2084.29 2198.59 Z" fill="#000000" fill-rule="nonzero" fill-opacity="1" /><path clip-path="url(#clip240)" d="M2132.63 2208.31 L2122.05 2218.94 L2132.63 2229.52 L2129.87 2232.32 L2119.25 2221.69 L2108.62 2232.32 L2105.89 2229.52 L2116.45 2218.94 L2105.89 2208.31 L2108.62 2205.51 L2119.25 2216.14 L2129.87 2205.51 L2132.63 2208.31 Z" fill="#000000" fill-rule="nonzero" fill-opacity="1" /><path clip-path="url(#clip240)" d="M2144.99 2229.84 L2152.63 2229.84 L2152.63 2203.47 L2144.32 2205.14 L2144.32 2200.88 L2152.58 2199.22 L2157.26 2199.22 L2157.26 2229.84 L2164.89 2229.84 L2164.89 2233.78 L2144.99 2233.78 L2144.99 2229.84 Z" fill="#000000" fill-rule="nonzero" fill-opacity="1" /><path clip-path="url(#clip240)" d="M2184.34 2202.29 Q2180.73 2202.29 2178.9 2205.86 Q2177.09 2209.4 2177.09 2216.53 Q2177.09 2223.64 2178.9 2227.2 Q2180.73 2230.74 2184.34 2230.74 Q2187.97 2230.74 2189.78 2227.2 Q2191.61 2223.64 2191.61 2216.53 Q2191.61 2209.4 2189.78 2205.86 Q2187.97 2202.29 2184.34 2202.29 M2184.34 2198.59 Q2190.15 2198.59 2193.2 2203.2 Q2196.28 2207.78 2196.28 2216.53 Q2196.28 2225.26 2193.2 2229.86 Q2190.15 2234.45 2184.34 2234.45 Q2178.53 2234.45 2175.45 2229.86 Q2172.39 2225.26 2172.39 2216.53 Q2172.39 2207.78 2175.45 2203.2 Q2178.53 2198.59 2184.34 2198.59 Z" fill="#000000" fill-rule="nonzero" fill-opacity="1" /><path clip-path="url(#clip240)" d="M2205.91 2193.03 Q2203.2 2193.03 2201.64 2194.48 Q2200.1 2195.93 2200.1 2198.47 Q2200.1 2201 2201.64 2202.45 Q2203.2 2203.9 2205.91 2203.9 Q2208.62 2203.9 2210.18 2202.45 Q2211.74 2200.99 2211.74 2198.47 Q2211.74 2195.93 2210.18 2194.48 Q2208.64 2193.03 2205.91 2193.03 M2202.11 2191.41 Q2199.67 2190.81 2198.3 2189.14 Q2196.94 2187.46 2196.94 2185.06 Q2196.94 2181.69 2199.33 2179.73 Q2201.74 2177.78 2205.91 2177.78 Q2210.11 2177.78 2212.5 2179.73 Q2214.88 2181.69 2214.88 2185.06 Q2214.88 2187.46 2213.51 2189.14 Q2212.16 2190.81 2209.73 2191.41 Q2212.48 2192.05 2214 2193.91 Q2215.54 2195.78 2215.54 2198.47 Q2215.54 2202.55 2213.04 2204.73 Q2210.56 2206.91 2205.91 2206.91 Q2201.27 2206.91 2198.77 2204.73 Q2196.28 2202.55 2196.28 2198.47 Q2196.28 2195.78 2197.83 2193.91 Q2199.37 2192.05 2202.11 2191.41 M2200.72 2185.41 Q2200.72 2187.59 2202.08 2188.82 Q2203.45 2190.04 2205.91 2190.04 Q2208.36 2190.04 2209.73 2188.82 Q2211.12 2187.59 2211.12 2185.41 Q2211.12 2183.23 2209.73 2182.01 Q2208.36 2180.79 2205.91 2180.79 Q2203.45 2180.79 2202.08 2182.01 Q2200.72 2183.23 2200.72 2185.41 Z" fill="#000000" fill-rule="nonzero" fill-opacity="1" /><path clip-path="url(#clip240)" d="M1289.32 2271.48 L1296.22 2271.48 L1308.03 2289.15 L1319.9 2271.48 L1326.81 2271.48 L1311.53 2294.3 L1327.83 2319 L1320.92 2319 L1307.55 2298.79 L1294.09 2319 L1287.15 2319 L1304.12 2293.64 L1289.32 2271.48 Z" fill="#000000" fill-rule="nonzero" fill-opacity="1" /><path clip-path="url(#clip240)" d="M1370.8 2269.54 Q1366.53 2276.86 1364.46 2284.02 Q1362.39 2291.19 1362.39 2298.54 Q1362.39 2305.89 1364.46 2313.12 Q1366.56 2320.31 1370.8 2327.6 L1365.7 2327.6 Q1360.93 2320.12 1358.54 2312.89 Q1356.19 2305.67 1356.19 2298.54 Q1356.19 2291.44 1358.54 2284.25 Q1360.9 2277.05 1365.7 2269.54 L1370.8 2269.54 Z" fill="#000000" fill-rule="nonzero" fill-opacity="1" /><path clip-path="url(#clip240)" d="M1382.41 2271.48 L1388.84 2271.48 L1388.84 2291.57 L1410.17 2271.48 L1418.44 2271.48 L1394.86 2293.64 L1420.13 2319 L1411.66 2319 L1388.84 2296.12 L1388.84 2319 L1382.41 2319 L1382.41 2271.48 Z" fill="#000000" fill-rule="nonzero" fill-opacity="1" /><path clip-path="url(#clip240)" d="M1425.16 2271.48 L1434.74 2271.48 L1446.87 2303.82 L1459.06 2271.48 L1468.64 2271.48 L1468.64 2319 L1462.37 2319 L1462.37 2277.28 L1450.11 2309.87 L1443.65 2309.87 L1431.4 2277.28 L1431.4 2319 L1425.16 2319 L1425.16 2271.48 Z" fill="#000000" fill-rule="nonzero" fill-opacity="1" /><path clip-path="url(#clip240)" d="M1480.22 2269.54 L1485.32 2269.54 Q1490.09 2277.05 1492.44 2284.25 Q1494.83 2291.44 1494.83 2298.54 Q1494.83 2305.67 1492.44 2312.89 Q1490.09 2320.12 1485.32 2327.6 L1480.22 2327.6 Q1484.46 2320.31 1486.52 2313.12 Q1488.63 2305.89 1488.63 2298.54 Q1488.63 2291.19 1486.52 2284.02 Q1484.46 2276.86 1480.22 2269.54 Z" fill="#000000" fill-rule="nonzero" fill-opacity="1" /><polyline clip-path="url(#clip240)" style="stroke:#000000; stroke-linecap:round; stroke-linejoin:round; stroke-width:4; stroke-opacity:1; fill:none" points="429.227,2155.72 429.227,47.2441 "/>
<polyline clip-path="url(#clip240)" style="stroke:#000000; stroke-linecap:round; stroke-linejoin:round; stroke-width:4; stroke-opacity:1; fill:none" points="429.227,1920.62 448.125,1920.62 "/>
<polyline clip-path="url(#clip240)" style="stroke:#000000; stroke-linecap:round; stroke-linejoin:round; stroke-width:4; stroke-opacity:1; fill:none" points="429.227,1604.58 448.125,1604.58 "/>
<polyline clip-path="url(#clip240)" style="stroke:#000000; stroke-linecap:round; stroke-linejoin:round; stroke-width:4; stroke-opacity:1; fill:none" points="429.227,1288.55 448.125,1288.55 "/>
<polyline clip-path="url(#clip240)" style="stroke:#000000; stroke-linecap:round; stroke-linejoin:round; stroke-width:4; stroke-opacity:1; fill:none" points="429.227,972.508 448.125,972.508 "/>
<polyline clip-path="url(#clip240)" style="stroke:#000000; stroke-linecap:round; stroke-linejoin:round; stroke-width:4; stroke-opacity:1; fill:none" points="429.227,656.471 448.125,656.471 "/>
<polyline clip-path="url(#clip240)" style="stroke:#000000; stroke-linecap:round; stroke-linejoin:round; stroke-width:4; stroke-opacity:1; fill:none" points="429.227,340.433 448.125,340.433 "/>
<path clip-path="url(#clip240)" d="M138.02 1927.52 L167.696 1927.52 L167.696 1931.45 L138.02 1931.45 L138.02 1927.52 Z" fill="#000000" fill-rule="nonzero" fill-opacity="1" /><path clip-path="url(#clip240)" d="M176.608 1909.79 L198.83 1909.79 L198.83 1911.78 L186.284 1944.35 L181.4 1944.35 L193.205 1913.72 L176.608 1913.72 L176.608 1909.79 Z" fill="#000000" fill-rule="nonzero" fill-opacity="1" /><path clip-path="url(#clip240)" d="M207.95 1938.47 L212.835 1938.47 L212.835 1944.35 L207.95 1944.35 L207.95 1938.47 Z" fill="#000000" fill-rule="nonzero" fill-opacity="1" /><path clip-path="url(#clip240)" d="M223.066 1909.79 L241.422 1909.79 L241.422 1913.72 L227.348 1913.72 L227.348 1922.2 Q228.367 1921.85 229.385 1921.69 Q230.404 1921.5 231.422 1921.5 Q237.209 1921.5 240.589 1924.67 Q243.969 1927.84 243.969 1933.26 Q243.969 1938.84 240.496 1941.94 Q237.024 1945.02 230.705 1945.02 Q228.529 1945.02 226.26 1944.65 Q224.015 1944.28 221.608 1943.54 L221.608 1938.84 Q223.691 1939.97 225.913 1940.53 Q228.135 1941.08 230.612 1941.08 Q234.617 1941.08 236.955 1938.98 Q239.293 1936.87 239.293 1933.26 Q239.293 1929.65 236.955 1927.54 Q234.617 1925.44 230.612 1925.44 Q228.737 1925.44 226.862 1925.85 Q225.01 1926.27 223.066 1927.15 L223.066 1909.79 Z" fill="#000000" fill-rule="nonzero" fill-opacity="1" /><path clip-path="url(#clip240)" d="M263.182 1912.87 Q259.57 1912.87 257.742 1916.43 Q255.936 1919.97 255.936 1927.1 Q255.936 1934.21 257.742 1937.77 Q259.57 1941.32 263.182 1941.32 Q266.816 1941.32 268.621 1937.77 Q270.45 1934.21 270.45 1927.1 Q270.45 1919.97 268.621 1916.43 Q266.816 1912.87 263.182 1912.87 M263.182 1909.16 Q268.992 1909.16 272.047 1913.77 Q275.126 1918.35 275.126 1927.1 Q275.126 1935.83 272.047 1940.44 Q268.992 1945.02 263.182 1945.02 Q257.371 1945.02 254.293 1940.44 Q251.237 1935.83 251.237 1927.1 Q251.237 1918.35 254.293 1913.77 Q257.371 1909.16 263.182 1909.16 Z" fill="#000000" fill-rule="nonzero" fill-opacity="1" /><path clip-path="url(#clip240)" d="M311.515 1918.89 L300.936 1929.51 L311.515 1940.09 L308.76 1942.89 L298.135 1932.26 L287.51 1942.89 L284.779 1940.09 L295.334 1929.51 L284.779 1918.89 L287.51 1916.08 L298.135 1926.71 L308.76 1916.08 L311.515 1918.89 Z" fill="#000000" fill-rule="nonzero" fill-opacity="1" /><path clip-path="url(#clip240)" d="M323.876 1940.41 L331.514 1940.41 L331.514 1914.05 L323.204 1915.71 L323.204 1911.45 L331.468 1909.79 L336.144 1909.79 L336.144 1940.41 L343.783 1940.41 L343.783 1944.35 L323.876 1944.35 L323.876 1940.41 Z" fill="#000000" fill-rule="nonzero" fill-opacity="1" /><path clip-path="url(#clip240)" d="M363.227 1912.87 Q359.616 1912.87 357.787 1916.43 Q355.982 1919.97 355.982 1927.1 Q355.982 1934.21 357.787 1937.77 Q359.616 1941.32 363.227 1941.32 Q366.862 1941.32 368.667 1937.77 Q370.496 1934.21 370.496 1927.1 Q370.496 1919.97 368.667 1916.43 Q366.862 1912.87 363.227 1912.87 M363.227 1909.16 Q369.037 1909.16 372.093 1913.77 Q375.172 1918.35 375.172 1927.1 Q375.172 1935.83 372.093 1940.44 Q369.037 1945.02 363.227 1945.02 Q357.417 1945.02 354.338 1940.44 Q351.283 1935.83 351.283 1927.1 Q351.283 1918.35 354.338 1913.77 Q357.417 1909.16 363.227 1909.16 Z" fill="#000000" fill-rule="nonzero" fill-opacity="1" /><path clip-path="url(#clip240)" d="M375.172 1888.86 L393.227 1888.86 L393.227 1890.48 L383.033 1916.94 L379.065 1916.94 L388.657 1892.06 L375.172 1892.06 L375.172 1888.86 Z" fill="#000000" fill-rule="nonzero" fill-opacity="1" /><path clip-path="url(#clip240)" d="M138.02 1611.48 L167.696 1611.48 L167.696 1615.42 L138.02 1615.42 L138.02 1611.48 Z" fill="#000000" fill-rule="nonzero" fill-opacity="1" /><path clip-path="url(#clip240)" d="M177.835 1593.75 L196.191 1593.75 L196.191 1597.69 L182.117 1597.69 L182.117 1606.16 Q183.136 1605.81 184.154 1605.65 Q185.173 1605.46 186.191 1605.46 Q191.978 1605.46 195.358 1608.63 Q198.737 1611.81 198.737 1617.22 Q198.737 1622.8 195.265 1625.9 Q191.793 1628.98 185.474 1628.98 Q183.298 1628.98 181.029 1628.61 Q178.784 1628.24 176.376 1627.5 L176.376 1622.8 Q178.46 1623.94 180.682 1624.49 Q182.904 1625.05 185.381 1625.05 Q189.386 1625.05 191.724 1622.94 Q194.062 1620.83 194.062 1617.22 Q194.062 1613.61 191.724 1611.51 Q189.386 1609.4 185.381 1609.4 Q183.506 1609.4 181.631 1609.82 Q179.779 1610.23 177.835 1611.11 L177.835 1593.75 Z" fill="#000000" fill-rule="nonzero" fill-opacity="1" /><path clip-path="url(#clip240)" d="M207.95 1622.43 L212.835 1622.43 L212.835 1628.31 L207.95 1628.31 L207.95 1622.43 Z" fill="#000000" fill-rule="nonzero" fill-opacity="1" /><path clip-path="url(#clip240)" d="M233.02 1596.83 Q229.409 1596.83 227.58 1600.39 Q225.774 1603.94 225.774 1611.07 Q225.774 1618.17 227.58 1621.74 Q229.409 1625.28 233.02 1625.28 Q236.654 1625.28 238.459 1621.74 Q240.288 1618.17 240.288 1611.07 Q240.288 1603.94 238.459 1600.39 Q236.654 1596.83 233.02 1596.83 M233.02 1593.13 Q238.83 1593.13 241.885 1597.73 Q244.964 1602.32 244.964 1611.07 Q244.964 1619.79 241.885 1624.4 Q238.83 1628.98 233.02 1628.98 Q227.209 1628.98 224.131 1624.4 Q221.075 1619.79 221.075 1611.07 Q221.075 1602.32 224.131 1597.73 Q227.209 1593.13 233.02 1593.13 Z" fill="#000000" fill-rule="nonzero" fill-opacity="1" /><path clip-path="url(#clip240)" d="M263.182 1596.83 Q259.57 1596.83 257.742 1600.39 Q255.936 1603.94 255.936 1611.07 Q255.936 1618.17 257.742 1621.74 Q259.57 1625.28 263.182 1625.28 Q266.816 1625.28 268.621 1621.74 Q270.45 1618.17 270.45 1611.07 Q270.45 1603.94 268.621 1600.39 Q266.816 1596.83 263.182 1596.83 M263.182 1593.13 Q268.992 1593.13 272.047 1597.73 Q275.126 1602.32 275.126 1611.07 Q275.126 1619.79 272.047 1624.4 Q268.992 1628.98 263.182 1628.98 Q257.371 1628.98 254.293 1624.4 Q251.237 1619.79 251.237 1611.07 Q251.237 1602.32 254.293 1597.73 Q257.371 1593.13 263.182 1593.13 Z" fill="#000000" fill-rule="nonzero" fill-opacity="1" /><path clip-path="url(#clip240)" d="M311.515 1602.85 L300.936 1613.47 L311.515 1624.05 L308.76 1626.85 L298.135 1616.23 L287.51 1626.85 L284.779 1624.05 L295.334 1613.47 L284.779 1602.85 L287.51 1600.05 L298.135 1610.67 L308.76 1600.05 L311.515 1602.85 Z" fill="#000000" fill-rule="nonzero" fill-opacity="1" /><path clip-path="url(#clip240)" d="M323.876 1624.38 L331.514 1624.38 L331.514 1598.01 L323.204 1599.68 L323.204 1595.42 L331.468 1593.75 L336.144 1593.75 L336.144 1624.38 L343.783 1624.38 L343.783 1628.31 L323.876 1628.31 L323.876 1624.38 Z" fill="#000000" fill-rule="nonzero" fill-opacity="1" /><path clip-path="url(#clip240)" d="M363.227 1596.83 Q359.616 1596.83 357.787 1600.39 Q355.982 1603.94 355.982 1611.07 Q355.982 1618.17 357.787 1621.74 Q359.616 1625.28 363.227 1625.28 Q366.862 1625.28 368.667 1621.74 Q370.496 1618.17 370.496 1611.07 Q370.496 1603.94 368.667 1600.39 Q366.862 1596.83 363.227 1596.83 M363.227 1593.13 Q369.037 1593.13 372.093 1597.73 Q375.172 1602.32 375.172 1611.07 Q375.172 1619.79 372.093 1624.4 Q369.037 1628.98 363.227 1628.98 Q357.417 1628.98 354.338 1624.4 Q351.283 1619.79 351.283 1611.07 Q351.283 1602.32 354.338 1597.73 Q357.417 1593.13 363.227 1593.13 Z" fill="#000000" fill-rule="nonzero" fill-opacity="1" /><path clip-path="url(#clip240)" d="M375.172 1572.82 L393.227 1572.82 L393.227 1574.44 L383.033 1600.9 L379.065 1600.9 L388.657 1576.02 L375.172 1576.02 L375.172 1572.82 Z" fill="#000000" fill-rule="nonzero" fill-opacity="1" /><path clip-path="url(#clip240)" d="M138.02 1295.44 L167.696 1295.44 L167.696 1299.38 L138.02 1299.38 L138.02 1295.44 Z" fill="#000000" fill-rule="nonzero" fill-opacity="1" /><path clip-path="url(#clip240)" d="M181.816 1308.34 L198.136 1308.34 L198.136 1312.27 L176.191 1312.27 L176.191 1308.34 Q178.853 1305.58 183.437 1300.95 Q188.043 1296.3 189.224 1294.96 Q191.469 1292.44 192.349 1290.7 Q193.251 1288.94 193.251 1287.25 Q193.251 1284.5 191.307 1282.76 Q189.386 1281.02 186.284 1281.02 Q184.085 1281.02 181.631 1281.79 Q179.2 1282.55 176.423 1284.1 L176.423 1279.38 Q179.247 1278.25 181.7 1277.67 Q184.154 1277.09 186.191 1277.09 Q191.562 1277.09 194.756 1279.77 Q197.95 1282.46 197.95 1286.95 Q197.95 1289.08 197.14 1291 Q196.353 1292.9 194.247 1295.49 Q193.668 1296.16 190.566 1299.38 Q187.464 1302.57 181.816 1308.34 Z" fill="#000000" fill-rule="nonzero" fill-opacity="1" /><path clip-path="url(#clip240)" d="M207.95 1306.39 L212.835 1306.39 L212.835 1312.27 L207.95 1312.27 L207.95 1306.39 Z" fill="#000000" fill-rule="nonzero" fill-opacity="1" /><path clip-path="url(#clip240)" d="M223.066 1277.71 L241.422 1277.71 L241.422 1281.65 L227.348 1281.65 L227.348 1290.12 Q228.367 1289.77 229.385 1289.61 Q230.404 1289.43 231.422 1289.43 Q237.209 1289.43 240.589 1292.6 Q243.969 1295.77 243.969 1301.19 Q243.969 1306.76 240.496 1309.87 Q237.024 1312.94 230.705 1312.94 Q228.529 1312.94 226.26 1312.57 Q224.015 1312.2 221.608 1311.46 L221.608 1306.76 Q223.691 1307.9 225.913 1308.45 Q228.135 1309.01 230.612 1309.01 Q234.617 1309.01 236.955 1306.9 Q239.293 1304.8 239.293 1301.19 Q239.293 1297.57 236.955 1295.47 Q234.617 1293.36 230.612 1293.36 Q228.737 1293.36 226.862 1293.78 Q225.01 1294.19 223.066 1295.07 L223.066 1277.71 Z" fill="#000000" fill-rule="nonzero" fill-opacity="1" /><path clip-path="url(#clip240)" d="M263.182 1280.79 Q259.57 1280.79 257.742 1284.36 Q255.936 1287.9 255.936 1295.03 Q255.936 1302.13 257.742 1305.7 Q259.57 1309.24 263.182 1309.24 Q266.816 1309.24 268.621 1305.7 Q270.45 1302.13 270.45 1295.03 Q270.45 1287.9 268.621 1284.36 Q266.816 1280.79 263.182 1280.79 M263.182 1277.09 Q268.992 1277.09 272.047 1281.69 Q275.126 1286.28 275.126 1295.03 Q275.126 1303.75 272.047 1308.36 Q268.992 1312.94 263.182 1312.94 Q257.371 1312.94 254.293 1308.36 Q251.237 1303.75 251.237 1295.03 Q251.237 1286.28 254.293 1281.69 Q257.371 1277.09 263.182 1277.09 Z" fill="#000000" fill-rule="nonzero" fill-opacity="1" /><path clip-path="url(#clip240)" d="M311.515 1286.81 L300.936 1297.44 L311.515 1308.01 L308.76 1310.81 L298.135 1300.19 L287.51 1310.81 L284.779 1308.01 L295.334 1297.44 L284.779 1286.81 L287.51 1284.01 L298.135 1294.63 L308.76 1284.01 L311.515 1286.81 Z" fill="#000000" fill-rule="nonzero" fill-opacity="1" /><path clip-path="url(#clip240)" d="M323.876 1308.34 L331.514 1308.34 L331.514 1281.97 L323.204 1283.64 L323.204 1279.38 L331.468 1277.71 L336.144 1277.71 L336.144 1308.34 L343.783 1308.34 L343.783 1312.27 L323.876 1312.27 L323.876 1308.34 Z" fill="#000000" fill-rule="nonzero" fill-opacity="1" /><path clip-path="url(#clip240)" d="M363.227 1280.79 Q359.616 1280.79 357.787 1284.36 Q355.982 1287.9 355.982 1295.03 Q355.982 1302.13 357.787 1305.7 Q359.616 1309.24 363.227 1309.24 Q366.862 1309.24 368.667 1305.7 Q370.496 1302.13 370.496 1295.03 Q370.496 1287.9 368.667 1284.36 Q366.862 1280.79 363.227 1280.79 M363.227 1277.09 Q369.037 1277.09 372.093 1281.69 Q375.172 1286.28 375.172 1295.03 Q375.172 1303.75 372.093 1308.36 Q369.037 1312.94 363.227 1312.94 Q357.417 1312.94 354.338 1308.36 Q351.283 1303.75 351.283 1295.03 Q351.283 1286.28 354.338 1281.69 Q357.417 1277.09 363.227 1277.09 Z" fill="#000000" fill-rule="nonzero" fill-opacity="1" /><path clip-path="url(#clip240)" d="M375.172 1256.78 L393.227 1256.78 L393.227 1258.4 L383.033 1284.86 L379.065 1284.86 L388.657 1259.98 L375.172 1259.98 L375.172 1256.78 Z" fill="#000000" fill-rule="nonzero" fill-opacity="1" /><path clip-path="url(#clip240)" d="M381.283 958.307 Q377.672 958.307 375.843 961.872 Q374.037 965.413 374.037 972.543 Q374.037 979.649 375.843 983.214 Q377.672 986.756 381.283 986.756 Q384.917 986.756 386.723 983.214 Q388.551 979.649 388.551 972.543 Q388.551 965.413 386.723 961.872 Q384.917 958.307 381.283 958.307 M381.283 954.603 Q387.093 954.603 390.148 959.21 Q393.227 963.793 393.227 972.543 Q393.227 981.27 390.148 985.876 Q387.093 990.459 381.283 990.459 Q375.473 990.459 372.394 985.876 Q369.338 981.27 369.338 972.543 Q369.338 963.793 372.394 959.21 Q375.473 954.603 381.283 954.603 Z" fill="#000000" fill-rule="nonzero" fill-opacity="1" /><path clip-path="url(#clip240)" d="M181.816 676.263 L198.136 676.263 L198.136 680.198 L176.191 680.198 L176.191 676.263 Q178.853 673.508 183.437 668.879 Q188.043 664.226 189.224 662.884 Q191.469 660.36 192.349 658.624 Q193.251 656.865 193.251 655.175 Q193.251 652.421 191.307 650.685 Q189.386 648.948 186.284 648.948 Q184.085 648.948 181.631 649.712 Q179.2 650.476 176.423 652.027 L176.423 647.305 Q179.247 646.171 181.7 645.592 Q184.154 645.013 186.191 645.013 Q191.562 645.013 194.756 647.698 Q197.95 650.384 197.95 654.874 Q197.95 657.004 197.14 658.925 Q196.353 660.823 194.247 663.416 Q193.668 664.087 190.566 667.305 Q187.464 670.499 181.816 676.263 Z" fill="#000000" fill-rule="nonzero" fill-opacity="1" /><path clip-path="url(#clip240)" d="M207.95 674.319 L212.835 674.319 L212.835 680.198 L207.95 680.198 L207.95 674.319 Z" fill="#000000" fill-rule="nonzero" fill-opacity="1" /><path clip-path="url(#clip240)" d="M223.066 645.638 L241.422 645.638 L241.422 649.573 L227.348 649.573 L227.348 658.046 Q228.367 657.698 229.385 657.536 Q230.404 657.351 231.422 657.351 Q237.209 657.351 240.589 660.522 Q243.969 663.694 243.969 669.11 Q243.969 674.689 240.496 677.791 Q237.024 680.87 230.705 680.87 Q228.529 680.87 226.26 680.499 Q224.015 680.129 221.608 679.388 L221.608 674.689 Q223.691 675.823 225.913 676.379 Q228.135 676.934 230.612 676.934 Q234.617 676.934 236.955 674.828 Q239.293 672.721 239.293 669.11 Q239.293 665.499 236.955 663.393 Q234.617 661.286 230.612 661.286 Q228.737 661.286 226.862 661.703 Q225.01 662.12 223.066 662.999 L223.066 645.638 Z" fill="#000000" fill-rule="nonzero" fill-opacity="1" /><path clip-path="url(#clip240)" d="M263.182 648.717 Q259.57 648.717 257.742 652.282 Q255.936 655.823 255.936 662.953 Q255.936 670.059 257.742 673.624 Q259.57 677.166 263.182 677.166 Q266.816 677.166 268.621 673.624 Q270.45 670.059 270.45 662.953 Q270.45 655.823 268.621 652.282 Q266.816 648.717 263.182 648.717 M263.182 645.013 Q268.992 645.013 272.047 649.62 Q275.126 654.203 275.126 662.953 Q275.126 671.68 272.047 676.286 Q268.992 680.87 263.182 680.87 Q257.371 680.87 254.293 676.286 Q251.237 671.68 251.237 662.953 Q251.237 654.203 254.293 649.62 Q257.371 645.013 263.182 645.013 Z" fill="#000000" fill-rule="nonzero" fill-opacity="1" /><path clip-path="url(#clip240)" d="M311.515 654.735 L300.936 665.36 L311.515 675.939 L308.76 678.74 L298.135 668.115 L287.51 678.74 L284.779 675.939 L295.334 665.36 L284.779 654.735 L287.51 651.935 L298.135 662.559 L308.76 651.935 L311.515 654.735 Z" fill="#000000" fill-rule="nonzero" fill-opacity="1" /><path clip-path="url(#clip240)" d="M323.876 676.263 L331.514 676.263 L331.514 649.898 L323.204 651.564 L323.204 647.305 L331.468 645.638 L336.144 645.638 L336.144 676.263 L343.783 676.263 L343.783 680.198 L323.876 680.198 L323.876 676.263 Z" fill="#000000" fill-rule="nonzero" fill-opacity="1" /><path clip-path="url(#clip240)" d="M363.227 648.717 Q359.616 648.717 357.787 652.282 Q355.982 655.823 355.982 662.953 Q355.982 670.059 357.787 673.624 Q359.616 677.166 363.227 677.166 Q366.862 677.166 368.667 673.624 Q370.496 670.059 370.496 662.953 Q370.496 655.823 368.667 652.282 Q366.862 648.717 363.227 648.717 M363.227 645.013 Q369.037 645.013 372.093 649.62 Q375.172 654.203 375.172 662.953 Q375.172 671.68 372.093 676.286 Q369.037 680.87 363.227 680.87 Q357.417 680.87 354.338 676.286 Q351.283 671.68 351.283 662.953 Q351.283 654.203 354.338 649.62 Q357.417 645.013 363.227 645.013 Z" fill="#000000" fill-rule="nonzero" fill-opacity="1" /><path clip-path="url(#clip240)" d="M375.172 624.708 L393.227 624.708 L393.227 626.325 L383.033 652.788 L379.065 652.788 L388.657 627.905 L375.172 627.905 L375.172 624.708 Z" fill="#000000" fill-rule="nonzero" fill-opacity="1" /><path clip-path="url(#clip240)" d="M177.835 329.601 L196.191 329.601 L196.191 333.536 L182.117 333.536 L182.117 342.008 Q183.136 341.661 184.154 341.499 Q185.173 341.314 186.191 341.314 Q191.978 341.314 195.358 344.485 Q198.737 347.656 198.737 353.073 Q198.737 358.652 195.265 361.753 Q191.793 364.832 185.474 364.832 Q183.298 364.832 181.029 364.462 Q178.784 364.091 176.376 363.351 L176.376 358.652 Q178.46 359.786 180.682 360.341 Q182.904 360.897 185.381 360.897 Q189.386 360.897 191.724 358.79 Q194.062 356.684 194.062 353.073 Q194.062 349.462 191.724 347.355 Q189.386 345.249 185.381 345.249 Q183.506 345.249 181.631 345.666 Q179.779 346.082 177.835 346.962 L177.835 329.601 Z" fill="#000000" fill-rule="nonzero" fill-opacity="1" /><path clip-path="url(#clip240)" d="M207.95 358.281 L212.835 358.281 L212.835 364.161 L207.95 364.161 L207.95 358.281 Z" fill="#000000" fill-rule="nonzero" fill-opacity="1" /><path clip-path="url(#clip240)" d="M233.02 332.679 Q229.409 332.679 227.58 336.244 Q225.774 339.786 225.774 346.916 Q225.774 354.022 227.58 357.587 Q229.409 361.128 233.02 361.128 Q236.654 361.128 238.459 357.587 Q240.288 354.022 240.288 346.916 Q240.288 339.786 238.459 336.244 Q236.654 332.679 233.02 332.679 M233.02 328.976 Q238.83 328.976 241.885 333.582 Q244.964 338.166 244.964 346.916 Q244.964 355.642 241.885 360.249 Q238.83 364.832 233.02 364.832 Q227.209 364.832 224.131 360.249 Q221.075 355.642 221.075 346.916 Q221.075 338.166 224.131 333.582 Q227.209 328.976 233.02 328.976 Z" fill="#000000" fill-rule="nonzero" fill-opacity="1" /><path clip-path="url(#clip240)" d="M263.182 332.679 Q259.57 332.679 257.742 336.244 Q255.936 339.786 255.936 346.916 Q255.936 354.022 257.742 357.587 Q259.57 361.128 263.182 361.128 Q266.816 361.128 268.621 357.587 Q270.45 354.022 270.45 346.916 Q270.45 339.786 268.621 336.244 Q266.816 332.679 263.182 332.679 M263.182 328.976 Q268.992 328.976 272.047 333.582 Q275.126 338.166 275.126 346.916 Q275.126 355.642 272.047 360.249 Q268.992 364.832 263.182 364.832 Q257.371 364.832 254.293 360.249 Q251.237 355.642 251.237 346.916 Q251.237 338.166 254.293 333.582 Q257.371 328.976 263.182 328.976 Z" fill="#000000" fill-rule="nonzero" fill-opacity="1" /><path clip-path="url(#clip240)" d="M311.515 338.698 L300.936 349.323 L311.515 359.902 L308.76 362.702 L298.135 352.078 L287.51 362.702 L284.779 359.902 L295.334 349.323 L284.779 338.698 L287.51 335.897 L298.135 346.522 L308.76 335.897 L311.515 338.698 Z" fill="#000000" fill-rule="nonzero" fill-opacity="1" /><path clip-path="url(#clip240)" d="M323.876 360.226 L331.514 360.226 L331.514 333.86 L323.204 335.527 L323.204 331.267 L331.468 329.601 L336.144 329.601 L336.144 360.226 L343.783 360.226 L343.783 364.161 L323.876 364.161 L323.876 360.226 Z" fill="#000000" fill-rule="nonzero" fill-opacity="1" /><path clip-path="url(#clip240)" d="M363.227 332.679 Q359.616 332.679 357.787 336.244 Q355.982 339.786 355.982 346.916 Q355.982 354.022 357.787 357.587 Q359.616 361.128 363.227 361.128 Q366.862 361.128 368.667 357.587 Q370.496 354.022 370.496 346.916 Q370.496 339.786 368.667 336.244 Q366.862 332.679 363.227 332.679 M363.227 328.976 Q369.037 328.976 372.093 333.582 Q375.172 338.166 375.172 346.916 Q375.172 355.642 372.093 360.249 Q369.037 364.832 363.227 364.832 Q357.417 364.832 354.338 360.249 Q351.283 355.642 351.283 346.916 Q351.283 338.166 354.338 333.582 Q357.417 328.976 363.227 328.976 Z" fill="#000000" fill-rule="nonzero" fill-opacity="1" /><path clip-path="url(#clip240)" d="M375.172 308.67 L393.227 308.67 L393.227 310.288 L383.033 336.75 L379.065 336.75 L388.657 311.868 L375.172 311.868 L375.172 308.67 Z" fill="#000000" fill-rule="nonzero" fill-opacity="1" /><path clip-path="url(#clip240)" d="M40.2442 1203.94 L40.2442 1197.03 L59.7869 1183.85 L40.2442 1170.77 L40.2442 1163.86 L65.1341 1180.67 L87.7642 1180.67 L87.7642 1187.13 L65.1341 1187.13 L40.2442 1203.94 Z" fill="#000000" fill-rule="nonzero" fill-opacity="1" /><path clip-path="url(#clip240)" d="M38.3026 1123.06 Q45.6232 1127.32 52.7846 1129.39 Q59.946 1131.46 67.2984 1131.46 Q74.6508 1131.46 81.8759 1129.39 Q89.0691 1127.29 96.3579 1123.06 L96.3579 1128.15 Q88.8782 1132.93 81.6531 1135.31 Q74.428 1137.67 67.2984 1137.67 Q60.2006 1137.67 53.0074 1135.31 Q45.8142 1132.96 38.3026 1128.15 L38.3026 1123.06 Z" fill="#000000" fill-rule="nonzero" fill-opacity="1" /><path clip-path="url(#clip240)" d="M40.2442 1111.44 L40.2442 1105.01 L60.328 1105.01 L40.2442 1083.69 L40.2442 1075.41 L62.3968 1099 L87.7642 1073.73 L87.7642 1082.19 L64.8794 1105.01 L87.7642 1105.01 L87.7642 1111.44 L40.2442 1111.44 Z" fill="#000000" fill-rule="nonzero" fill-opacity="1" /><path clip-path="url(#clip240)" d="M40.2442 1068.7 L40.2442 1059.12 L72.5819 1046.99 L40.2442 1034.8 L40.2442 1025.22 L87.7642 1025.22 L87.7642 1031.49 L46.037 1031.49 L78.6294 1043.74 L78.6294 1050.2 L46.037 1062.46 L87.7642 1062.46 L87.7642 1068.7 L40.2442 1068.7 Z" fill="#000000" fill-rule="nonzero" fill-opacity="1" /><path clip-path="url(#clip240)" d="M38.3026 1013.63 L38.3026 1008.54 Q45.8142 1003.77 53.0074 1001.41 Q60.2006 999.024 67.2984 999.024 Q74.428 999.024 81.6531 1001.41 Q88.8782 1003.77 96.3579 1008.54 L96.3579 1013.63 Q89.0691 1009.4 81.8759 1007.33 Q74.6508 1005.23 67.2984 1005.23 Q59.946 1005.23 52.7846 1007.33 Q45.6232 1009.4 38.3026 1013.63 Z" fill="#000000" fill-rule="nonzero" fill-opacity="1" /><polyline clip-path="url(#clip241)" style="stroke:#1f83ff; stroke-linecap:round; stroke-linejoin:round; stroke-width:4; stroke-opacity:1; fill:none" points="1172.32,990.221 1172.56,990.097 1172.79,989.969 1173.02,989.837 1173.25,989.701 1173.47,989.563 1173.69,989.421 1173.91,989.278 1174.12,989.131 1174.34,988.983 1174.55,988.831 1174.76,988.677 1174.97,988.52 1175.18,988.359 1175.4,988.194 1175.61,988.024 1175.82,987.849 1176.03,987.667 1176.24,987.478 1176.45,987.281 1176.66,987.077 1176.86,986.865 1177.06,986.645 1177.26,986.418 1177.45,986.184 1177.64,985.944 1177.82,985.698 1178,985.448 1178.17,985.194 1178.34,984.936 1178.5,984.677 1178.66,984.415 1178.81,984.152 1178.96,983.888 1179.1,983.623 1179.24,983.357 1179.38,983.091 1179.51,982.825 1179.64,982.557 1179.77,982.289 1179.9,982.019 1180.02,981.747 1180.15,981.472 1180.27,981.194 1180.39,980.912 1180.51,980.626 1180.63,980.334 1180.74,980.036 1180.86,979.733 1180.96,979.425 1181.06,979.111 1181.16,978.793 1181.25,978.47 1181.33,978.144 1181.41,977.816 1181.48,977.486 1181.55,977.155 1181.61,976.823 1181.66,976.492 1181.71,976.162 1181.75,975.834 1181.78,975.507 1181.82,975.182 1181.84,974.858 1181.87,974.537 1181.89,974.218 1181.91,973.901 1181.92,973.585 1181.94,973.27 1181.95,972.955 1181.96,972.639 1181.97,972.322 1181.98,972.004 1181.98,971.683 1181.98,971.359 1181.98,971.032 1181.97,970.702 1181.96,970.37 1181.94,970.035 1181.91,969.699 1181.88,969.362 1181.85,969.025 1181.8,968.689 1181.76,968.354 1181.7,968.021 1181.64,967.691 1181.57,967.365 1181.5,967.042 1181.42,966.723 1181.34,966.409 1181.25,966.1 1181.16,965.795 1181.07,965.495 1180.98,965.199 1180.88,964.907 1180.78,964.619 1180.68,964.334 1180.58,964.052 1180.47,963.771 1180.37,963.491 1180.26,963.211 1180.15,962.931 1180.04,962.65 1179.93,962.369 1179.81,962.087 1179.68,961.806 1179.55,961.525 1179.42,961.245 1179.28,960.968 1179.13,960.694 1178.98,960.423 1178.83,960.156 1178.66,959.894 1178.5,959.637 1178.33,959.387 1178.15,959.143 1177.97,958.905 1177.79,958.674 1177.61,958.45 1177.42,958.232 1177.23,958.021 1177.04,957.816 1176.85,957.617 1176.66,957.423 1176.47,957.234 1176.28,957.049 1176.09,956.867 1175.9,956.687 1175.71,956.509 1175.52,956.332 1175.32,956.157 1175.13,955.982 1174.93,955.81 1174.72,955.639 1174.51,955.471 1174.3,955.307 1174.09,955.147 1173.87,954.991 1173.64,954.842 1173.41,954.698 1173.18,954.562 1172.95,954.432 1172.71,954.31 1172.47,954.196 1172.23,954.09 1171.99,953.991 1171.75,953.901 1171.51,953.818 1171.27,953.743 1171.03,953.674 1170.79,953.612 1170.55,953.556 1170.31,953.505 1170.08,953.459 1169.84,953.416 1169.61,953.376 1169.38,953.339 1169.15,953.303 1168.92,953.27 1168.69,953.238 1168.45,953.209 1168.21,953.183 1167.98,953.161 1167.73,953.143 1167.49,953.131 1167.24,953.125 1167,953.125 1166.75,953.132 1166.5,953.147 1166.25,953.169 1165.99,953.2 1165.74,953.238 1165.49,953.285 1165.24,953.34 1164.99,953.403 1164.75,953.473 1164.51,953.551 1164.27,953.635 1164.03,953.725 1163.79,953.82 1163.56,953.92 1163.34,954.023 1163.11,954.13 1162.89,954.239 1162.67,954.35 1162.46,954.462 1162.24,954.576 1162.02,954.692 1161.81,954.811 1161.59,954.932 1161.38,955.058 1161.16,955.187 1160.94,955.322 1160.72,955.463 1160.5,955.61 1160.29,955.764 1160.07,955.925 1159.85,956.093 1159.64,956.268 1159.43,956.45 1159.22,956.64 1159.01,956.837 1158.81,957.041 1158.62,957.251 1158.42,957.467 1158.23,957.687 1158.05,957.912 1157.87,958.141 1157.7,958.372 1157.53,958.606 1157.37,958.84 1157.21,959.076 1157.05,959.312 1156.9,959.548 1156.74,959.785 1156.6,960.023 1156.45,960.262 1156.3,960.503 1156.15,960.746 1156.01,960.993 1155.86,961.244 1155.72,961.499 1155.58,961.76 1155.44,962.026 1155.3,962.297 1155.17,962.574 1155.03,962.856 1154.91,963.144 1154.79,963.438 1154.67,963.736 1154.56,964.039 1154.45,964.346 1154.35,964.656 1154.25,964.969 1154.17,965.284 1154.08,965.599 1154.01,965.915 1153.94,966.231 1153.87,966.545 1153.81,966.857 1153.75,967.168 1153.7,967.477 1153.65,967.785 1153.6,968.091 1153.55,968.397 1153.51,968.704 1153.47,969.011 1153.42,969.319 1153.39,969.63 1153.35,969.943 1153.31,970.259 1153.28,970.578 1153.26,970.9 1153.23,971.225 1153.21,971.554 1153.2,971.886 1153.19,972.22 1153.19,972.557 1153.19,972.895 1153.2,973.235 1153.21,973.575 1153.24,973.914 1153.26,974.253 1153.3,974.589 1153.34,974.922 1153.39,975.251 1153.44,975.577 1153.49,975.898 1153.55,976.215 1153.62,976.528 1153.68,976.837 1153.75,977.143 1153.82,977.446 1153.89,977.747 1153.96,978.047 1154.04,978.346 1154.11,978.645 1154.19,978.944 1154.28,979.243 1154.36,979.543 1154.45,979.843 1154.54,980.145 1154.64,980.446 1154.74,980.748 1154.85,981.05 1154.96,981.351 1155.08,981.651 1155.2,981.949 1155.33,982.244 1155.47,982.536 1155.61,982.823 1155.76,983.106 1155.92,983.382 1156.07,983.652 1156.23,983.915 1156.4,984.171 1156.57,984.421 1156.73,984.664 1156.91,984.901 1157.08,985.134 1157.25,985.361 1157.42,985.585 1157.6,985.806 1157.77,986.023 1157.95,986.239 1158.13,986.452 1158.31,986.664 1158.49,986.874 1158.67,987.082 1158.86,987.289 1159.05,987.493 1159.25,987.696 1159.45,987.896 1159.65,988.093 1159.86,988.286 1160.07,988.475 1160.29,988.658 1160.51,988.836 1160.74,989.007 1160.97,989.17 1161.21,989.325 1161.44,989.471 1161.68,989.609 1161.92,989.738 1162.16,989.859 1162.4,989.972 1162.64,990.079 1162.88,990.179 1163.11,990.273 1163.35,990.362 1163.59,990.447 1163.82,990.528 1164.06,990.606 1164.29,990.68 1164.53,990.751 1164.76,990.82 1165,990.885 1165.24,990.948 1165.48,991.007 1165.72,991.062 1165.97,991.113 1166.22,991.16 1166.47,991.202 1166.72,991.238 1166.98,991.267 1167.23,991.289 1167.49,991.303 1167.75,991.308 1168.02,991.304 1168.28,991.291 1168.54,991.269 1168.8,991.237 1169.06,991.197 1169.32,991.15 1169.57,991.095 1169.82,991.034 1170.07,990.968 1170.31,990.897 1170.55,990.822 1170.79,990.744 1171.03,990.662 1171.26,990.576 1171.49,990.488 1171.73,990.397 1171.96,990.304 1172.19,990.207 "/>
<polyline clip-path="url(#clip241)" style="stroke:#ca3c32; stroke-linecap:round; stroke-linejoin:round; stroke-width:4; stroke-opacity:1; fill:none" points="1172.56,969.386 1172.72,969.295 1172.86,969.201 1173,969.105 1173.13,969.008 1173.26,968.908 1173.38,968.808 1173.49,968.706 1173.59,968.604 1173.69,968.501 1173.78,968.399 1173.86,968.297 1173.93,968.196 1174,968.096 1174.06,967.998 1174.11,967.902 1174.15,967.808 1174.19,967.717 1174.21,967.629 1174.23,967.544 1174.24,967.464 1174.25,967.388 1174.24,967.318 1174.23,967.252 1174.21,967.187 1174.18,967.132 1174.15,967.085 1174.11,967.044 1174.06,967.011 1174.01,966.985 1173.95,966.967 1173.88,966.958 1173.81,966.958 1173.73,966.967 1173.65,966.985 1173.56,967.014 1173.47,967.053 1173.37,967.102 1173.27,967.162 1173.16,967.234 1173.05,967.316 1172.94,967.411 1172.83,967.517 1172.71,967.635 1172.6,967.765 1172.48,967.906 1172.36,968.06 1172.24,968.226 1172.13,968.404 1172.01,968.594 1171.9,968.795 1171.79,969.008 1171.68,969.232 1171.58,969.467 1171.48,969.712 1171.38,969.967 1171.29,970.232 1171.21,970.505 1171.13,970.786 1171.06,971.074 1171,971.369 1170.94,971.67 1170.89,971.975 1170.85,972.284 1170.81,972.596 1170.79,972.91 1170.77,973.224 1170.76,973.539 1170.77,973.853 1170.77,974.165 1170.79,974.474 1170.81,974.779 1170.85,975.08 1170.89,975.375 1170.93,975.664 1170.99,975.946 1171.04,976.22 1171.11,976.486 1171.18,976.743 1171.26,976.99 1171.33,977.228 1171.42,977.455 1171.5,977.672 1171.59,977.878 1171.69,978.072 1171.78,978.255 1171.88,978.426 1171.97,978.585 1172.07,978.733 1172.17,978.87 1172.26,978.994 1172.36,979.107 1172.45,979.209 1172.54,979.299 1172.63,979.377 1172.72,979.445 1172.8,979.502 1172.88,979.548 1172.96,979.584 1173.03,979.61 1173.1,979.625 1173.16,979.631 1173.22,979.628 1173.28,979.616 1173.33,979.595 1173.37,979.565 1173.41,979.528 1173.44,979.482 1173.46,979.43 1173.48,979.37 1173.49,979.304 1173.5,979.232 1173.5,979.153 1173.49,979.069 1173.48,978.979 1173.46,978.885 1173.43,978.786 1173.4,978.683 1173.35,978.576 1173.31,978.465 1173.25,978.352 1173.19,978.235 1173.12,978.117 1173.04,977.996 1172.96,977.874 1172.87,977.75 1172.77,977.625 1172.67,977.499 1172.56,977.374 1172.44,977.247 1172.32,977.122 1172.19,976.996 1172.06,976.872 1171.91,976.748 1171.77,976.626 1171.62,976.506 1171.46,976.388 1171.29,976.272 1171.13,976.158 1170.95,976.047 1170.78,975.939 1170.59,975.834 1170.41,975.733 1170.22,975.635 1170.02,975.541 1169.82,975.45 1169.62,975.364 1169.42,975.282 1169.21,975.205 1169,975.132 1168.79,975.064 1168.57,975 1168.35,974.942 1168.14,974.889 1167.92,974.84 1167.7,974.797 1167.48,974.759 1167.25,974.727 1167.03,974.7 1166.81,974.678 1166.59,974.662 1166.37,974.65 1166.15,974.645 1165.93,974.644 1165.71,974.65 1165.5,974.66 1165.28,974.675 1165.07,974.696 1164.86,974.722 1164.66,974.752 1164.45,974.788 1164.25,974.828 1164.06,974.873 1163.86,974.922 1163.68,974.976 1163.49,975.033 1163.31,975.095 1163.14,975.161 1162.97,975.23 1162.8,975.302 1162.64,975.378 1162.49,975.457 1162.34,975.539 1162.2,975.623 1162.06,975.709 1161.93,975.797 1161.8,975.887 1161.69,975.979 1161.57,976.071 1161.47,976.165 1161.37,976.259 1161.28,976.353 1161.2,976.447 1161.12,976.541 1161.05,976.634 1160.99,976.727 1160.94,976.817 1160.89,976.907 1160.85,976.993 1160.82,977.078 1160.79,977.16 1160.77,977.238 1160.76,977.313 1160.76,977.384 1160.76,977.451 1160.78,977.513 1160.79,977.57 1160.82,977.622 1160.85,977.668 1160.89,977.708 1160.94,977.742 1160.99,977.769 1161.05,977.788 1161.11,977.8 1161.18,977.804 1161.26,977.8 1161.34,977.787 1161.43,977.765 1161.52,977.734 1161.62,977.693 1161.72,977.642 1161.83,977.582 1161.94,977.511 1162.05,977.429 1162.16,977.337 1162.28,977.233 1162.4,977.119 1162.52,976.993 1162.64,976.856 1162.77,976.707 1162.89,976.547 1163.01,976.375 1163.13,976.192 1163.25,975.998 1163.37,975.793 1163.49,975.577 1163.6,975.35 1163.71,975.113 1163.81,974.867 1163.91,974.612 1164.01,974.347 1164.1,974.075 1164.18,973.795 1164.26,973.508 1164.33,973.216 1164.39,972.917 1164.45,972.615 1164.5,972.309 1164.54,972 1164.57,971.689 1164.59,971.377 1164.61,971.065 1164.62,970.754 1164.62,970.445 1164.61,970.139 1164.59,969.837 1164.57,969.539 1164.54,969.246 1164.5,968.96 1164.45,968.68 1164.4,968.408 1164.35,968.145 1164.29,967.89 1164.22,967.645 1164.15,967.409 1164.07,967.184 1163.99,966.969 1163.91,966.765 1163.82,966.572 1163.74,966.391 1163.65,966.221 1163.56,966.063 1163.47,965.917 1163.38,965.782 1163.29,965.659 1163.2,965.548 1163.11,965.449 1163.02,965.362 1162.94,965.286 1162.85,965.221 1162.77,965.167 1162.7,965.125 1162.63,965.093 1162.56,965.072 1162.49,965.061 1162.43,965.06 1162.38,965.068 1162.33,965.086 1162.28,965.113 1162.24,965.149 1162.21,965.193 1162.18,965.245 1162.16,965.305 1162.14,965.373 1162.13,965.447 1162.13,965.528 1162.13,965.616 1162.14,965.709 1162.16,965.808 1162.19,965.912 1162.22,966.021 1162.26,966.134 1162.3,966.251 1162.36,966.372 1162.42,966.497 1162.49,966.624 1162.56,966.753 1162.64,966.885 1162.73,967.019 1162.83,967.154 1162.93,967.29 1163.04,967.427 1163.16,967.564 1163.28,967.701 1163.41,967.838 1163.55,967.974 1163.69,968.109 1163.84,968.243 1164,968.375 1164.16,968.505 1164.32,968.633 1164.49,968.758 1164.67,968.881 1164.85,969 1165.04,969.117 1165.23,969.229 1165.43,969.338 1165.63,969.443 1165.83,969.543 1166.04,969.639 1166.25,969.731 1166.46,969.817 1166.67,969.899 1166.89,969.975 1167.11,970.046 1167.34,970.112 1167.56,970.172 1167.78,970.226 1168.01,970.275 1168.24,970.318 1168.46,970.356 1168.69,970.387 1168.92,970.412 1169.14,970.432 1169.37,970.446 1169.59,970.453 1169.81,970.455 1170.03,970.451 1170.25,970.441 1170.46,970.426 1170.68,970.405 1170.88,970.379 1171.09,970.347 1171.29,970.31 1171.49,970.268 1171.68,970.221 1171.87,970.169 1172.06,970.113 1172.24,970.052 1172.41,969.987 1172.58,969.919 1172.75,969.846 1172.9,969.771 1173.05,969.692 1173.2,969.61 1173.34,969.526 "/>
<polyline clip-path="url(#clip241)" style="stroke:#399746; stroke-linecap:round; stroke-linejoin:round; stroke-width:4; stroke-opacity:1; fill:none" points="1665.35,756.935 1665.25,746.132 1665,735.285 1664.59,724.397 1664.02,713.474 1663.29,702.518 1662.41,691.535 1661.37,680.528 1660.16,669.503 1658.8,658.462 1657.27,647.411 1655.57,636.355 1653.72,625.296 1651.7,614.241 1649.51,603.194 1647.16,592.159 1644.65,581.14 1641.97,570.143 1639.12,559.171 1636.11,548.23 1632.93,537.324 1629.58,526.458 1626.07,515.637 1622.4,504.865 1618.55,494.146 1614.55,483.486 1610.38,472.889 1606.04,462.359 1601.54,451.902 1596.88,441.522 1592.06,431.224 1587.08,421.011 1581.93,410.89 1576.63,400.863 1571.17,390.937 1565.55,381.115 1559.78,371.401 1553.85,361.801 1547.78,352.318 1541.55,342.958 1535.17,333.723 1528.64,324.619 1521.97,315.65 1515.15,306.82 1508.19,298.132 1501.09,289.592 1493.85,281.204 1486.47,272.97 1478.96,264.895 1471.31,256.983 1463.54,249.238 1455.64,241.664 1447.61,234.263 1439.46,227.04 1431.19,219.998 1422.81,213.14 1414.31,206.471 1405.69,199.993 1396.97,193.709 1388.13,187.623 1379.2,181.737 1370.16,176.055 1361.02,170.58 1351.79,165.313 1342.47,160.259 1333.06,155.419 1323.56,150.797 1313.98,146.394 1304.31,142.213 1294.58,138.256 1284.76,134.525 1274.88,131.023 1264.93,127.752 1254.92,124.712 1244.85,121.907 1234.72,119.338 1224.53,117.006 1214.3,114.913 1204.02,113.06 1193.7,111.449 1183.33,110.081 1172.94,108.956 1162.5,108.077 1152.04,107.444 1141.56,107.057 1131.05,106.918 1120.52,107.027 1109.98,107.384 1099.43,107.991 1088.87,108.847 1078.3,109.952 1067.74,111.308 1057.18,112.913 1046.62,114.768 1036.07,116.873 1025.54,119.227 1015.02,121.831 1004.52,124.683 994.051,127.783 983.605,131.131 973.19,134.726 962.809,138.567 952.465,142.654 942.162,146.984 931.903,151.559 921.692,156.375 911.532,161.433 901.426,166.731 891.377,172.267 881.388,178.04 871.464,184.049 861.606,190.291 851.818,196.767 842.104,203.472 832.466,210.407 822.907,217.568 813.43,224.955 804.039,232.565 794.735,240.395 785.523,248.445 776.405,256.711 767.384,265.192 758.462,273.884 749.642,282.787 740.927,291.897 732.32,301.211 723.823,310.728 715.438,320.445 707.169,330.358 699.018,340.466 690.987,350.766 683.079,361.254 675.296,371.929 667.64,382.786 660.113,393.824 652.719,405.039 645.458,416.428 638.333,427.989 631.347,439.718 624.501,451.612 617.797,463.667 611.237,475.882 604.823,488.252 598.558,500.774 592.442,513.445 586.477,526.263 580.666,539.222 575.01,552.321 569.51,565.555 564.169,578.922 558.988,592.418 553.967,606.039 549.11,619.783 544.416,633.645 539.888,647.622 535.527,661.711 531.335,675.907 527.311,690.209 523.458,704.611 519.777,719.111 516.269,733.705 512.935,748.389 509.776,763.16 506.793,778.014 503.987,792.947 501.359,807.957 498.909,823.038 496.639,838.188 494.55,853.404 492.642,868.68 490.916,884.014 489.372,899.402 488.012,914.841 486.835,930.326 485.843,945.855 485.036,961.422 484.414,977.026 483.979,992.661 483.729,1008.32 483.667,1024.01 483.791,1039.72 484.103,1055.45 484.603,1071.19 485.29,1086.94 486.166,1102.69 487.23,1118.45 488.482,1134.21 489.924,1149.96 491.554,1165.71 493.372,1181.44 495.379,1197.16 497.576,1212.85 499.96,1228.53 502.534,1244.17 505.295,1259.79 508.246,1275.37 511.384,1290.91 514.71,1306.42 518.224,1321.87 521.925,1337.28 525.813,1352.63 529.888,1367.93 534.149,1383.17 538.597,1398.35 543.229,1413.46 548.047,1428.49 553.049,1443.46 558.235,1458.34 563.605,1473.14 569.157,1487.86 574.891,1502.49 580.807,1517.02 586.904,1531.46 593.18,1545.8 599.636,1560.03 606.27,1574.16 613.082,1588.18 620.07,1602.08 627.234,1615.86 634.573,1629.53 642.086,1643.06 649.771,1656.47 657.629,1669.74 665.657,1682.88 673.854,1695.88 682.22,1708.74 690.754,1721.45 699.453,1734.01 708.317,1746.41 717.344,1758.66 726.533,1770.74 735.883,1782.67 745.392,1794.42 755.059,1806 764.882,1817.41 774.86,1828.64 784.991,1839.68 795.274,1850.54 805.706,1861.21 816.287,1871.69 827.014,1881.98 837.886,1892.06 848.9,1901.94 860.055,1911.61 871.35,1921.08 882.781,1930.33 894.348,1939.37 906.047,1948.19 917.878,1956.78 929.837,1965.15 941.923,1973.29 954.133,1981.19 966.466,1988.86 978.918,1996.3 991.488,2003.48 1004.17,2010.43 1016.97,2017.13 1029.88,2023.57 1042.89,2029.76 1056.01,2035.7 1069.24,2041.37 1082.56,2046.78 1095.98,2051.92 1109.49,2056.8 1123.1,2061.4 1136.79,2065.73 1150.57,2069.78 1164.43,2073.55 1178.37,2077.04 1192.39,2080.24 1206.48,2083.16 1220.65,2085.78 1234.88,2088.11 1249.17,2090.15 1263.52,2091.89 1277.93,2093.33 1292.4,2094.46 1306.91,2095.3 1321.48,2095.82 1336.08,2096.04 1350.73,2095.95 1365.41,2095.54 1380.13,2094.82 1394.87,2093.79 1409.64,2092.43 1424.43,2090.76 1439.24,2088.76 1454.06,2086.45 1468.9,2083.8 1483.73,2080.84 1498.58,2077.54 1513.41,2073.92 1528.25,2069.97 1543.07,2065.69 1557.88,2061.07 1572.67,2056.13 1587.43,2050.85 1602.18,2045.24 1616.88,2039.29 1631.56,2033.01 1646.19,2026.4 1660.78,2019.44 1675.33,2012.16 1689.82,2004.53 1704.25,1996.58 1718.62,1988.28 1732.92,1979.65 1747.16,1970.69 1761.31,1961.39 1775.39,1951.75 1789.39,1941.78 1803.29,1931.48 1817.11,1920.85 1830.82,1909.88 1844.43,1898.58 1857.94,1886.96 1871.33,1875.01 1884.61,1862.73 1897.76,1850.12 1910.79,1837.2 1923.7,1823.95 1936.46,1810.38 1949.09,1796.49 1961.57,1782.29 1973.9,1767.78 1986.08,1752.95 1998.1,1737.81 2009.96,1722.37 2021.66,1706.63 2033.18,1690.59 2044.52,1674.24 2055.69,1657.61 2066.67,1640.68 2077.46,1623.47 2088.05,1605.97 2098.45,1588.19 2108.65,1570.13 2118.64,1551.8 2128.42,1533.21 2137.98,1514.34 2147.32,1495.22 2156.44,1475.84 2165.33,1456.21 2173.99,1436.33 2182.41,1416.21 2190.6,1395.85 2198.53,1375.25 2206.23,1354.43 2213.67,1333.39 2220.85,1312.13 2227.78,1290.66 2234.44,1268.98 2240.84,1247.1 2246.97,1225.03 2252.82,1202.76 2258.4,1180.32 2263.7,1157.7 2268.71,1134.9 2273.45,1111.94 2277.89,1088.83 2282.04,1065.56 2285.89,1042.14 2289.45,1018.59 2292.71,994.909 2295.67,971.1 2298.32,947.174 "/>
<path clip-path="url(#clip240)" d="M1973.79 324.886 L2288.64 324.886 L2288.64 117.526 L1973.79 117.526  Z" fill="#000000" fill-rule="evenodd" fill-opacity="0"/>
<polyline clip-path="url(#clip240)" style="stroke:#000000; stroke-linecap:round; stroke-linejoin:round; stroke-width:4; stroke-opacity:1; fill:none" points="1973.79,324.886 2288.64,324.886 2288.64,117.526 1973.79,117.526 1973.79,324.886 "/>
<polyline clip-path="url(#clip240)" style="stroke:#1f83ff; stroke-linecap:round; stroke-linejoin:round; stroke-width:4; stroke-opacity:1; fill:none" points="1995.16,169.366 2123.39,169.366 "/>
<path clip-path="url(#clip240)" d="M2144.77 152.086 L2166.62 152.086 L2166.62 156.022 L2149.44 156.022 L2149.44 166.253 L2165.9 166.253 L2165.9 170.188 L2149.44 170.188 L2149.44 182.711 L2167.03 182.711 L2167.03 186.646 L2144.77 186.646 L2144.77 152.086 Z" fill="#000000" fill-rule="nonzero" fill-opacity="1" /><path clip-path="url(#clip240)" d="M2186.32 173.614 Q2181.16 173.614 2179.16 174.795 Q2177.17 175.975 2177.17 178.822 Q2177.17 181.091 2178.66 182.434 Q2180.16 183.753 2182.73 183.753 Q2186.27 183.753 2188.4 181.253 Q2190.55 178.73 2190.55 174.563 L2190.55 173.614 L2186.32 173.614 M2194.81 171.855 L2194.81 186.646 L2190.55 186.646 L2190.55 182.711 Q2189.09 185.072 2186.92 186.207 Q2184.74 187.318 2181.59 187.318 Q2177.61 187.318 2175.25 185.096 Q2172.91 182.85 2172.91 179.1 Q2172.91 174.725 2175.83 172.503 Q2178.77 170.281 2184.58 170.281 L2190.55 170.281 L2190.55 169.864 Q2190.55 166.924 2188.61 165.327 Q2186.69 163.707 2183.19 163.707 Q2180.97 163.707 2178.86 164.239 Q2176.76 164.772 2174.81 165.836 L2174.81 161.901 Q2177.15 160.998 2179.35 160.559 Q2181.55 160.096 2183.63 160.096 Q2189.26 160.096 2192.03 163.012 Q2194.81 165.929 2194.81 171.855 Z" fill="#000000" fill-rule="nonzero" fill-opacity="1" /><path clip-path="url(#clip240)" d="M2218.61 164.702 Q2217.89 164.285 2217.03 164.1 Q2216.2 163.892 2215.18 163.892 Q2211.57 163.892 2209.63 166.253 Q2207.71 168.591 2207.71 172.989 L2207.71 186.646 L2203.42 186.646 L2203.42 160.721 L2207.71 160.721 L2207.71 164.748 Q2209.05 162.387 2211.2 161.253 Q2213.35 160.096 2216.43 160.096 Q2216.87 160.096 2217.4 160.165 Q2217.94 160.211 2218.59 160.327 L2218.61 164.702 Z" fill="#000000" fill-rule="nonzero" fill-opacity="1" /><path clip-path="url(#clip240)" d="M2227.29 153.36 L2227.29 160.721 L2236.06 160.721 L2236.06 164.031 L2227.29 164.031 L2227.29 178.105 Q2227.29 181.276 2228.15 182.179 Q2229.03 183.082 2231.69 183.082 L2236.06 183.082 L2236.06 186.646 L2231.69 186.646 Q2226.76 186.646 2224.88 184.818 Q2223.01 182.966 2223.01 178.105 L2223.01 164.031 L2219.88 164.031 L2219.88 160.721 L2223.01 160.721 L2223.01 153.36 L2227.29 153.36 Z" fill="#000000" fill-rule="nonzero" fill-opacity="1" /><path clip-path="url(#clip240)" d="M2263.21 170.998 L2263.21 186.646 L2258.96 186.646 L2258.96 171.137 Q2258.96 167.457 2257.52 165.628 Q2256.09 163.799 2253.21 163.799 Q2249.77 163.799 2247.78 165.998 Q2245.78 168.197 2245.78 171.994 L2245.78 186.646 L2241.5 186.646 L2241.5 150.628 L2245.78 150.628 L2245.78 164.748 Q2247.31 162.41 2249.37 161.253 Q2251.46 160.096 2254.16 160.096 Q2258.63 160.096 2260.92 162.873 Q2263.21 165.628 2263.21 170.998 Z" fill="#000000" fill-rule="nonzero" fill-opacity="1" /><polyline clip-path="url(#clip240)" style="stroke:#ca3c32; stroke-linecap:round; stroke-linejoin:round; stroke-width:4; stroke-opacity:1; fill:none" points="1995.16,221.206 2123.39,221.206 "/>
<path clip-path="url(#clip240)" d="M2151.87 203.926 L2156.55 203.926 L2156.55 236.079 Q2156.55 242.329 2154.16 245.153 Q2151.8 247.977 2146.55 247.977 L2144.77 247.977 L2144.77 244.042 L2146.22 244.042 Q2149.33 244.042 2150.6 242.306 Q2151.87 240.57 2151.87 236.079 L2151.87 203.926 Z" fill="#000000" fill-rule="nonzero" fill-opacity="1" /><path clip-path="url(#clip240)" d="M2162.78 203.926 L2167.5 203.926 L2174.77 233.139 L2182.01 203.926 L2187.27 203.926 L2194.53 233.139 L2201.78 203.926 L2206.53 203.926 L2197.84 238.486 L2191.97 238.486 L2184.67 208.487 L2177.31 238.486 L2171.43 238.486 L2162.78 203.926 Z" fill="#000000" fill-rule="nonzero" fill-opacity="1" /><path clip-path="url(#clip240)" d="M2233.45 205.061 L2233.45 209.621 Q2230.78 208.348 2228.42 207.723 Q2226.06 207.098 2223.86 207.098 Q2220.04 207.098 2217.96 208.579 Q2215.9 210.061 2215.9 212.792 Q2215.9 215.084 2217.27 216.264 Q2218.65 217.422 2222.5 218.139 L2225.32 218.718 Q2230.55 219.713 2233.03 222.237 Q2235.53 224.737 2235.53 228.949 Q2235.53 233.973 2232.15 236.565 Q2228.79 239.158 2222.29 239.158 Q2219.84 239.158 2217.06 238.602 Q2214.3 238.047 2211.34 236.959 L2211.34 232.144 Q2214.19 233.741 2216.92 234.551 Q2219.65 235.361 2222.29 235.361 Q2226.29 235.361 2228.47 233.787 Q2230.65 232.213 2230.65 229.297 Q2230.65 226.75 2229.07 225.315 Q2227.52 223.88 2223.96 223.162 L2221.11 222.607 Q2215.88 221.565 2213.54 219.343 Q2211.2 217.121 2211.2 213.163 Q2211.2 208.579 2214.42 205.94 Q2217.66 203.301 2223.33 203.301 Q2225.76 203.301 2228.28 203.741 Q2230.81 204.181 2233.45 205.061 Z" fill="#000000" fill-rule="nonzero" fill-opacity="1" /><path clip-path="url(#clip240)" d="M2238.03 203.926 L2267.27 203.926 L2267.27 207.862 L2255 207.862 L2255 238.486 L2250.3 238.486 L2250.3 207.862 L2238.03 207.862 L2238.03 203.926 Z" fill="#000000" fill-rule="nonzero" fill-opacity="1" /><polyline clip-path="url(#clip240)" style="stroke:#399746; stroke-linecap:round; stroke-linejoin:round; stroke-width:4; stroke-opacity:1; fill:none" points="1995.16,273.046 2123.39,273.046 "/>
<path clip-path="url(#clip240)" d="M2170.32 285.396 L2170.32 276.114 L2162.68 276.114 L2162.68 272.271 L2174.95 272.271 L2174.95 287.109 Q2172.24 289.03 2168.98 290.026 Q2165.72 290.998 2162.01 290.998 Q2153.91 290.998 2149.33 286.276 Q2144.77 281.53 2144.77 273.081 Q2144.77 264.609 2149.33 259.887 Q2153.91 255.141 2162.01 255.141 Q2165.39 255.141 2168.42 255.975 Q2171.48 256.808 2174.05 258.428 L2174.05 263.405 Q2171.46 261.206 2168.54 260.095 Q2165.62 258.984 2162.41 258.984 Q2156.06 258.984 2152.87 262.526 Q2149.7 266.067 2149.7 273.081 Q2149.7 280.072 2152.87 283.614 Q2156.06 287.155 2162.41 287.155 Q2164.88 287.155 2166.83 286.739 Q2168.77 286.299 2170.32 285.396 Z" fill="#000000" fill-rule="nonzero" fill-opacity="1" /><path clip-path="url(#clip240)" d="M2195.04 260.373 L2188.7 277.572 L2201.41 277.572 L2195.04 260.373 M2192.41 255.766 L2197.71 255.766 L2210.88 290.326 L2206.02 290.326 L2202.87 281.461 L2187.29 281.461 L2184.14 290.326 L2179.21 290.326 L2192.41 255.766 Z" fill="#000000" fill-rule="nonzero" fill-opacity="1" /><path clip-path="url(#clip240)" d="M2215.92 255.766 L2220.6 255.766 L2220.6 290.326 L2215.92 290.326 L2215.92 255.766 Z" fill="#000000" fill-rule="nonzero" fill-opacity="1" /><path clip-path="url(#clip240)" d="M2241.46 260.373 L2235.11 277.572 L2247.82 277.572 L2241.46 260.373 M2238.82 255.766 L2244.12 255.766 L2257.29 290.326 L2252.43 290.326 L2249.28 281.461 L2233.7 281.461 L2230.55 290.326 L2225.62 290.326 L2238.82 255.766 Z" fill="#000000" fill-rule="nonzero" fill-opacity="1" /></svg>
