<?xml version="1.0" encoding="utf-8"?>
<svg xmlns="http://www.w3.org/2000/svg" xmlns:xlink="http://www.w3.org/1999/xlink" width="600" height="600" viewBox="0 0 2400 2400">
<defs>
  <clipPath id="clip180">
    <rect x="0" y="0" width="2400" height="2400"/>
  </clipPath>
</defs>
<defs>
  <clipPath id="clip181">
    <rect x="480" y="240" width="1681" height="1681"/>
  </clipPath>
</defs>
<defs>
  <clipPath id="clip182">
    <rect x="362" y="47" width="1992" height="2128"/>
  </clipPath>
</defs>
<polyline clip-path="url(#clip180)" style="stroke:#000000; stroke-linecap:round; stroke-linejoin:round; stroke-width:4; stroke-opacity:1; fill:none" points="362.164,2174.14 2352.76,2174.14 "/>
<polyline clip-path="url(#clip180)" style="stroke:#000000; stroke-linecap:round; stroke-linejoin:round; stroke-width:4; stroke-opacity:1; fill:none" points="413.357,2174.14 413.357,2155.24 "/>
<polyline clip-path="url(#clip180)" style="stroke:#000000; stroke-linecap:round; stroke-linejoin:round; stroke-width:4; stroke-opacity:1; fill:none" points="927.855,2174.14 927.855,2155.24 "/>
<polyline clip-path="url(#clip180)" style="stroke:#000000; stroke-linecap:round; stroke-linejoin:round; stroke-width:4; stroke-opacity:1; fill:none" points="1442.35,2174.14 1442.35,2155.24 "/>
<polyline clip-path="url(#clip180)" style="stroke:#000000; stroke-linecap:round; stroke-linejoin:round; stroke-width:4; stroke-opacity:1; fill:none" points="1956.85,2174.14 1956.85,2155.24 "/>
<path clip-path="url(#clip180)" d="M413.357 2205.06 Q409.746 2205.06 407.917 2208.62 Q406.112 2212.16 406.112 2219.29 Q406.112 2226.4 407.917 2229.97 Q409.746 2233.51 413.357 2233.51 Q416.991 2233.51 418.797 2229.97 Q420.625 2226.4 420.625 2219.29 Q420.625 2212.16 418.797 2208.62 Q416.991 2205.06 413.357 2205.06 M413.357 2201.35 Q419.167 2201.35 422.223 2205.96 Q425.301 2210.54 425.301 2219.29 Q425.301 2228.02 422.223 2232.63 Q419.167 2237.21 413.357 2237.21 Q407.547 2237.21 404.468 2232.63 Q401.413 2228.02 401.413 2219.29 Q401.413 2210.54 404.468 2205.96 Q407.547 2201.35 413.357 2201.35 Z" fill="#000000" fill-rule="nonzero" fill-opacity="1" /><path clip-path="url(#clip180)" d="M887.461 2232.6 L895.1 2232.6 L895.1 2206.24 L886.79 2207.91 L886.79 2203.65 L895.054 2201.98 L899.73 2201.98 L899.73 2232.6 L907.369 2232.6 L907.369 2236.54 L887.461 2236.54 L887.461 2232.6 Z" fill="#000000" fill-rule="nonzero" fill-opacity="1" /><path clip-path="url(#clip180)" d="M926.813 2205.06 Q923.202 2205.06 921.373 2208.62 Q919.568 2212.16 919.568 2219.29 Q919.568 2226.4 921.373 2229.97 Q923.202 2233.51 926.813 2233.51 Q930.447 2233.51 932.253 2229.97 Q934.081 2226.4 934.081 2219.29 Q934.081 2212.16 932.253 2208.62 Q930.447 2205.06 926.813 2205.06 M926.813 2201.35 Q932.623 2201.35 935.679 2205.96 Q938.757 2210.54 938.757 2219.29 Q938.757 2228.02 935.679 2232.63 Q932.623 2237.21 926.813 2237.21 Q921.003 2237.21 917.924 2232.63 Q914.869 2228.02 914.869 2219.29 Q914.869 2210.54 917.924 2205.96 Q921.003 2201.35 926.813 2201.35 Z" fill="#000000" fill-rule="nonzero" fill-opacity="1" /><path clip-path="url(#clip180)" d="M956.975 2205.06 Q953.364 2205.06 951.535 2208.62 Q949.729 2212.16 949.729 2219.29 Q949.729 2226.4 951.535 2229.97 Q953.364 2233.51 956.975 2233.51 Q960.609 2233.51 962.415 2229.97 Q964.243 2226.4 964.243 2219.29 Q964.243 2212.16 962.415 2208.62 Q960.609 2205.06 956.975 2205.06 M956.975 2201.35 Q962.785 2201.35 965.841 2205.96 Q968.919 2210.54 968.919 2219.29 Q968.919 2228.02 965.841 2232.63 Q962.785 2237.21 956.975 2237.21 Q951.165 2237.21 948.086 2232.63 Q945.03 2228.02 945.03 2219.29 Q945.03 2210.54 948.086 2205.96 Q951.165 2201.35 956.975 2201.35 Z" fill="#000000" fill-rule="nonzero" fill-opacity="1" /><path clip-path="url(#clip180)" d="M1406.04 2232.6 L1422.36 2232.6 L1422.36 2236.54 L1400.42 2236.54 L1400.42 2232.6 Q1403.08 2229.85 1407.66 2225.22 Q1412.27 2220.57 1413.45 2219.23 Q1415.7 2216.7 1416.58 2214.97 Q1417.48 2213.21 1417.48 2211.52 Q1417.48 2208.76 1415.54 2207.03 Q1413.61 2205.29 1410.51 2205.29 Q1408.31 2205.29 1405.86 2206.05 Q1403.43 2206.82 1400.65 2208.37 L1400.65 2203.65 Q1403.48 2202.51 1405.93 2201.93 Q1408.38 2201.35 1410.42 2201.35 Q1415.79 2201.35 1418.98 2204.04 Q1422.18 2206.73 1422.18 2211.22 Q1422.18 2213.35 1421.37 2215.27 Q1420.58 2217.16 1418.48 2219.76 Q1417.9 2220.43 1414.79 2223.65 Q1411.69 2226.84 1406.04 2232.6 Z" fill="#000000" fill-rule="nonzero" fill-opacity="1" /><path clip-path="url(#clip180)" d="M1442.18 2205.06 Q1438.57 2205.06 1436.74 2208.62 Q1434.93 2212.16 1434.93 2219.29 Q1434.93 2226.4 1436.74 2229.97 Q1438.57 2233.51 1442.18 2233.51 Q1445.81 2233.51 1447.62 2229.97 Q1449.45 2226.4 1449.45 2219.29 Q1449.45 2212.16 1447.62 2208.62 Q1445.81 2205.06 1442.18 2205.06 M1442.18 2201.35 Q1447.99 2201.35 1451.04 2205.96 Q1454.12 2210.54 1454.12 2219.29 Q1454.12 2228.02 1451.04 2232.63 Q1447.99 2237.21 1442.18 2237.21 Q1436.37 2237.21 1433.29 2232.63 Q1430.23 2228.02 1430.23 2219.29 Q1430.23 2210.54 1433.29 2205.96 Q1436.37 2201.35 1442.18 2201.35 Z" fill="#000000" fill-rule="nonzero" fill-opacity="1" /><path clip-path="url(#clip180)" d="M1472.34 2205.06 Q1468.73 2205.06 1466.9 2208.62 Q1465.1 2212.16 1465.1 2219.29 Q1465.1 2226.4 1466.9 2229.97 Q1468.73 2233.51 1472.34 2233.51 Q1475.97 2233.51 1477.78 2229.97 Q1479.61 2226.4 1479.61 2219.29 Q1479.61 2212.16 1477.78 2208.62 Q1475.97 2205.06 1472.34 2205.06 M1472.34 2201.35 Q1478.15 2201.35 1481.21 2205.96 Q1484.28 2210.54 1484.28 2219.29 Q1484.28 2228.02 1481.21 2232.63 Q1478.15 2237.21 1472.34 2237.21 Q1466.53 2237.21 1463.45 2232.63 Q1460.4 2228.02 1460.4 2219.29 Q1460.4 2210.54 1463.45 2205.96 Q1466.53 2201.35 1472.34 2201.35 Z" fill="#000000" fill-rule="nonzero" fill-opacity="1" /><path clip-path="url(#clip180)" d="M1930.61 2217.91 Q1933.97 2218.62 1935.84 2220.89 Q1937.74 2223.16 1937.74 2226.49 Q1937.74 2231.61 1934.22 2234.41 Q1930.7 2237.21 1924.22 2237.21 Q1922.05 2237.21 1919.73 2236.77 Q1917.44 2236.35 1914.99 2235.5 L1914.99 2230.98 Q1916.93 2232.12 1919.25 2232.7 Q1921.56 2233.28 1924.08 2233.28 Q1928.48 2233.28 1930.77 2231.54 Q1933.09 2229.8 1933.09 2226.49 Q1933.09 2223.44 1930.94 2221.73 Q1928.81 2219.99 1924.99 2219.99 L1920.96 2219.99 L1920.96 2216.15 L1925.17 2216.15 Q1928.62 2216.15 1930.45 2214.78 Q1932.28 2213.39 1932.28 2210.8 Q1932.28 2208.14 1930.38 2206.73 Q1928.51 2205.29 1924.99 2205.29 Q1923.07 2205.29 1920.87 2205.71 Q1918.67 2206.12 1916.03 2207 L1916.03 2202.84 Q1918.69 2202.1 1921.01 2201.73 Q1923.34 2201.35 1925.4 2201.35 Q1930.73 2201.35 1933.83 2203.79 Q1936.93 2206.19 1936.93 2210.31 Q1936.93 2213.18 1935.29 2215.17 Q1933.64 2217.14 1930.61 2217.91 Z" fill="#000000" fill-rule="nonzero" fill-opacity="1" /><path clip-path="url(#clip180)" d="M1956.61 2205.06 Q1953 2205.06 1951.17 2208.62 Q1949.36 2212.16 1949.36 2219.29 Q1949.36 2226.4 1951.17 2229.97 Q1953 2233.51 1956.61 2233.51 Q1960.24 2233.51 1962.05 2229.97 Q1963.88 2226.4 1963.88 2219.29 Q1963.88 2212.16 1962.05 2208.62 Q1960.24 2205.06 1956.61 2205.06 M1956.61 2201.35 Q1962.42 2201.35 1965.47 2205.96 Q1968.55 2210.54 1968.55 2219.29 Q1968.55 2228.02 1965.47 2232.63 Q1962.42 2237.21 1956.61 2237.21 Q1950.8 2237.21 1947.72 2232.63 Q1944.66 2228.02 1944.66 2219.29 Q1944.66 2210.54 1947.72 2205.96 Q1950.8 2201.35 1956.61 2201.35 Z" fill="#000000" fill-rule="nonzero" fill-opacity="1" /><path clip-path="url(#clip180)" d="M1986.77 2205.06 Q1983.16 2205.06 1981.33 2208.62 Q1979.52 2212.16 1979.52 2219.29 Q1979.52 2226.4 1981.33 2229.97 Q1983.16 2233.51 1986.77 2233.51 Q1990.4 2233.51 1992.21 2229.97 Q1994.04 2226.4 1994.04 2219.29 Q1994.04 2212.16 1992.21 2208.62 Q1990.4 2205.06 1986.77 2205.06 M1986.77 2201.35 Q1992.58 2201.35 1995.63 2205.96 Q1998.71 2210.54 1998.71 2219.29 Q1998.71 2228.02 1995.63 2232.63 Q1992.58 2237.21 1986.77 2237.21 Q1980.96 2237.21 1977.88 2232.63 Q1974.82 2228.02 1974.82 2219.29 Q1974.82 2210.54 1977.88 2205.96 Q1980.96 2201.35 1986.77 2201.35 Z" fill="#000000" fill-rule="nonzero" fill-opacity="1" /><path clip-path="url(#clip180)" d="M1255.78 2271.48 L1262.69 2271.48 L1274.5 2289.15 L1286.37 2271.48 L1293.28 2271.48 L1278 2294.3 L1294.3 2319 L1287.39 2319 L1274.02 2298.79 L1260.56 2319 L1253.62 2319 L1270.58 2293.64 L1255.78 2271.48 Z" fill="#000000" fill-rule="nonzero" fill-opacity="1" /><path clip-path="url(#clip180)" d="M1337.26 2269.54 Q1333 2276.86 1330.93 2284.02 Q1328.86 2291.19 1328.86 2298.54 Q1328.86 2305.89 1330.93 2313.12 Q1333.03 2320.31 1337.26 2327.6 L1332.17 2327.6 Q1327.4 2320.12 1325.01 2312.89 Q1322.66 2305.67 1322.66 2298.54 Q1322.66 2291.44 1325.01 2284.25 Q1327.37 2277.05 1332.17 2269.54 L1337.26 2269.54 Z" fill="#000000" fill-rule="nonzero" fill-opacity="1" /><path clip-path="url(#clip180)" d="M1348.88 2271.48 L1355.31 2271.48 L1355.31 2291.57 L1376.64 2271.48 L1384.91 2271.48 L1361.33 2293.64 L1386.6 2319 L1378.13 2319 L1355.31 2296.12 L1355.31 2319 L1348.88 2319 L1348.88 2271.48 Z" fill="#000000" fill-rule="nonzero" fill-opacity="1" /><path clip-path="url(#clip180)" d="M1391.63 2271.48 L1401.21 2271.48 L1413.34 2303.82 L1425.53 2271.48 L1435.11 2271.48 L1435.11 2319 L1428.84 2319 L1428.84 2277.28 L1416.58 2309.87 L1410.12 2309.87 L1397.87 2277.28 L1397.87 2319 L1391.63 2319 L1391.63 2271.48 Z" fill="#000000" fill-rule="nonzero" fill-opacity="1" /><path clip-path="url(#clip180)" d="M1446.69 2269.54 L1451.78 2269.54 Q1456.56 2277.05 1458.91 2284.25 Q1461.3 2291.44 1461.3 2298.54 Q1461.3 2305.67 1458.91 2312.89 Q1456.56 2320.12 1451.78 2327.6 L1446.69 2327.6 Q1450.92 2320.31 1452.99 2313.12 Q1455.09 2305.89 1455.09 2298.54 Q1455.09 2291.19 1452.99 2284.02 Q1450.92 2276.86 1446.69 2269.54 Z" fill="#000000" fill-rule="nonzero" fill-opacity="1" /><polyline clip-path="url(#clip180)" style="stroke:#000000; stroke-linecap:round; stroke-linejoin:round; stroke-width:4; stroke-opacity:1; fill:none" points="362.164,2174.14 362.164,47.2441 "/>
<polyline clip-path="url(#clip180)" style="stroke:#000000; stroke-linecap:round; stroke-linejoin:round; stroke-width:4; stroke-opacity:1; fill:none" points="362.164,2137.12 381.062,2137.12 "/>
<polyline clip-path="url(#clip180)" style="stroke:#000000; stroke-linecap:round; stroke-linejoin:round; stroke-width:4; stroke-opacity:1; fill:none" points="362.164,1599.48 381.062,1599.48 "/>
<polyline clip-path="url(#clip180)" style="stroke:#000000; stroke-linecap:round; stroke-linejoin:round; stroke-width:4; stroke-opacity:1; fill:none" points="362.164,1061.85 381.062,1061.85 "/>
<polyline clip-path="url(#clip180)" style="stroke:#000000; stroke-linecap:round; stroke-linejoin:round; stroke-width:4; stroke-opacity:1; fill:none" points="362.164,524.215 381.062,524.215 "/>
<path clip-path="url(#clip180)" d="M153.622 2130.36 L141.816 2148.81 L153.622 2148.81 L153.622 2130.36 M152.395 2126.29 L158.275 2126.29 L158.275 2148.81 L163.205 2148.81 L163.205 2152.7 L158.275 2152.7 L158.275 2160.85 L153.622 2160.85 L153.622 2152.7 L138.02 2152.7 L138.02 2148.19 L152.395 2126.29 Z" fill="#000000" fill-rule="nonzero" fill-opacity="1" /><path clip-path="url(#clip180)" d="M170.937 2154.97 L175.821 2154.97 L175.821 2160.85 L170.937 2160.85 L170.937 2154.97 Z" fill="#000000" fill-rule="nonzero" fill-opacity="1" /><path clip-path="url(#clip180)" d="M196.006 2129.37 Q192.395 2129.37 190.566 2132.93 Q188.761 2136.47 188.761 2143.6 Q188.761 2150.71 190.566 2154.27 Q192.395 2157.81 196.006 2157.81 Q199.64 2157.81 201.446 2154.27 Q203.274 2150.71 203.274 2143.6 Q203.274 2136.47 201.446 2132.93 Q199.64 2129.37 196.006 2129.37 M196.006 2125.66 Q201.816 2125.66 204.872 2130.27 Q207.95 2134.85 207.95 2143.6 Q207.95 2152.33 204.872 2156.94 Q201.816 2161.52 196.006 2161.52 Q190.196 2161.52 187.117 2156.94 Q184.062 2152.33 184.062 2143.6 Q184.062 2134.85 187.117 2130.27 Q190.196 2125.66 196.006 2125.66 Z" fill="#000000" fill-rule="nonzero" fill-opacity="1" /><path clip-path="url(#clip180)" d="M244.339 2135.38 L233.76 2146.01 L244.339 2156.59 L241.584 2159.39 L230.959 2148.76 L220.335 2159.39 L217.603 2156.59 L228.159 2146.01 L217.603 2135.38 L220.335 2132.58 L230.959 2143.21 L241.584 2132.58 L244.339 2135.38 Z" fill="#000000" fill-rule="nonzero" fill-opacity="1" /><path clip-path="url(#clip180)" d="M256.7 2156.91 L264.339 2156.91 L264.339 2130.55 L256.029 2132.21 L256.029 2127.95 L264.293 2126.29 L268.969 2126.29 L268.969 2156.91 L276.607 2156.91 L276.607 2160.85 L256.7 2160.85 L256.7 2156.91 Z" fill="#000000" fill-rule="nonzero" fill-opacity="1" /><path clip-path="url(#clip180)" d="M296.052 2129.37 Q292.441 2129.37 290.612 2132.93 Q288.806 2136.47 288.806 2143.6 Q288.806 2150.71 290.612 2154.27 Q292.441 2157.81 296.052 2157.81 Q299.686 2157.81 301.492 2154.27 Q303.32 2150.71 303.32 2143.6 Q303.32 2136.47 301.492 2132.93 Q299.686 2129.37 296.052 2129.37 M296.052 2125.66 Q301.862 2125.66 304.917 2130.27 Q307.996 2134.85 307.996 2143.6 Q307.996 2152.33 304.917 2156.94 Q301.862 2161.52 296.052 2161.52 Q290.242 2161.52 287.163 2156.94 Q284.107 2152.33 284.107 2143.6 Q284.107 2134.85 287.163 2130.27 Q290.242 2125.66 296.052 2125.66 Z" fill="#000000" fill-rule="nonzero" fill-opacity="1" /><path clip-path="url(#clip180)" d="M309.181 2105.36 L324.096 2105.36 L324.096 2108.55 L312.66 2108.55 L312.66 2115.44 Q313.488 2115.16 314.316 2115.02 Q315.143 2114.87 315.971 2114.87 Q320.673 2114.87 323.418 2117.45 Q326.164 2120.03 326.164 2124.43 Q326.164 2128.96 323.343 2131.48 Q320.522 2133.98 315.388 2133.98 Q313.62 2133.98 311.776 2133.68 Q309.952 2133.38 307.996 2132.78 L307.996 2128.96 Q309.689 2129.88 311.494 2130.33 Q313.3 2130.78 315.312 2130.78 Q318.566 2130.78 320.466 2129.07 Q322.365 2127.36 322.365 2124.43 Q322.365 2121.49 320.466 2119.78 Q318.566 2118.07 315.312 2118.07 Q313.789 2118.07 312.265 2118.41 Q310.761 2118.75 309.181 2119.46 L309.181 2105.36 Z" fill="#000000" fill-rule="nonzero" fill-opacity="1" /><path clip-path="url(#clip180)" d="M151.353 1604.07 Q148.205 1604.07 146.353 1606.22 Q144.525 1608.37 144.525 1612.12 Q144.525 1615.85 146.353 1618.03 Q148.205 1620.18 151.353 1620.18 Q154.502 1620.18 156.33 1618.03 Q158.182 1615.85 158.182 1612.12 Q158.182 1608.37 156.33 1606.22 Q154.502 1604.07 151.353 1604.07 M160.636 1589.42 L160.636 1593.68 Q158.877 1592.84 157.071 1592.4 Q155.289 1591.96 153.529 1591.96 Q148.9 1591.96 146.446 1595.09 Q144.015 1598.21 143.668 1604.53 Q145.034 1602.52 147.094 1601.45 Q149.154 1600.37 151.631 1600.37 Q156.84 1600.37 159.849 1603.54 Q162.881 1606.68 162.881 1612.12 Q162.881 1617.45 159.733 1620.67 Q156.585 1623.88 151.353 1623.88 Q145.358 1623.88 142.187 1619.3 Q139.016 1614.69 139.016 1605.97 Q139.016 1597.77 142.904 1592.91 Q146.793 1588.03 153.344 1588.03 Q155.103 1588.03 156.886 1588.37 Q158.691 1588.72 160.636 1589.42 Z" fill="#000000" fill-rule="nonzero" fill-opacity="1" /><path clip-path="url(#clip180)" d="M170.937 1617.33 L175.821 1617.33 L175.821 1623.21 L170.937 1623.21 L170.937 1617.33 Z" fill="#000000" fill-rule="nonzero" fill-opacity="1" /><path clip-path="url(#clip180)" d="M196.006 1591.73 Q192.395 1591.73 190.566 1595.3 Q188.761 1598.84 188.761 1605.97 Q188.761 1613.07 190.566 1616.64 Q192.395 1620.18 196.006 1620.18 Q199.64 1620.18 201.446 1616.64 Q203.274 1613.07 203.274 1605.97 Q203.274 1598.84 201.446 1595.3 Q199.64 1591.73 196.006 1591.73 M196.006 1588.03 Q201.816 1588.03 204.872 1592.63 Q207.95 1597.22 207.95 1605.97 Q207.95 1614.69 204.872 1619.3 Q201.816 1623.88 196.006 1623.88 Q190.196 1623.88 187.117 1619.3 Q184.062 1614.69 184.062 1605.97 Q184.062 1597.22 187.117 1592.63 Q190.196 1588.03 196.006 1588.03 Z" fill="#000000" fill-rule="nonzero" fill-opacity="1" /><path clip-path="url(#clip180)" d="M244.339 1597.75 L233.76 1608.37 L244.339 1618.95 L241.584 1621.75 L230.959 1611.13 L220.335 1621.75 L217.603 1618.95 L228.159 1608.37 L217.603 1597.75 L220.335 1594.95 L230.959 1605.57 L241.584 1594.95 L244.339 1597.75 Z" fill="#000000" fill-rule="nonzero" fill-opacity="1" /><path clip-path="url(#clip180)" d="M256.7 1619.28 L264.339 1619.28 L264.339 1592.91 L256.029 1594.58 L256.029 1590.32 L264.293 1588.65 L268.969 1588.65 L268.969 1619.28 L276.607 1619.28 L276.607 1623.21 L256.7 1623.21 L256.7 1619.28 Z" fill="#000000" fill-rule="nonzero" fill-opacity="1" /><path clip-path="url(#clip180)" d="M296.052 1591.73 Q292.441 1591.73 290.612 1595.3 Q288.806 1598.84 288.806 1605.97 Q288.806 1613.07 290.612 1616.64 Q292.441 1620.18 296.052 1620.18 Q299.686 1620.18 301.492 1616.64 Q303.32 1613.07 303.32 1605.97 Q303.32 1598.84 301.492 1595.3 Q299.686 1591.73 296.052 1591.73 M296.052 1588.03 Q301.862 1588.03 304.917 1592.63 Q307.996 1597.22 307.996 1605.97 Q307.996 1614.69 304.917 1619.3 Q301.862 1623.88 296.052 1623.88 Q290.242 1623.88 287.163 1619.3 Q284.107 1614.69 284.107 1605.97 Q284.107 1597.22 287.163 1592.63 Q290.242 1588.03 296.052 1588.03 Z" fill="#000000" fill-rule="nonzero" fill-opacity="1" /><path clip-path="url(#clip180)" d="M309.181 1567.72 L324.096 1567.72 L324.096 1570.92 L312.66 1570.92 L312.66 1577.8 Q313.488 1577.52 314.316 1577.39 Q315.143 1577.24 315.971 1577.24 Q320.673 1577.24 323.418 1579.82 Q326.164 1582.39 326.164 1586.79 Q326.164 1591.33 323.343 1593.85 Q320.522 1596.35 315.388 1596.35 Q313.62 1596.35 311.776 1596.05 Q309.952 1595.75 307.996 1595.14 L307.996 1591.33 Q309.689 1592.25 311.494 1592.7 Q313.3 1593.15 315.312 1593.15 Q318.566 1593.15 320.466 1591.44 Q322.365 1589.73 322.365 1586.79 Q322.365 1583.86 320.466 1582.15 Q318.566 1580.44 315.312 1580.44 Q313.789 1580.44 312.265 1580.77 Q310.761 1581.11 309.181 1581.83 L309.181 1567.72 Z" fill="#000000" fill-rule="nonzero" fill-opacity="1" /><path clip-path="url(#clip180)" d="M150.775 1069.17 Q147.441 1069.17 145.52 1070.95 Q143.622 1072.73 143.622 1075.86 Q143.622 1078.98 145.52 1080.76 Q147.441 1082.55 150.775 1082.55 Q154.108 1082.55 156.029 1080.76 Q157.951 1078.96 157.951 1075.86 Q157.951 1072.73 156.029 1070.95 Q154.131 1069.17 150.775 1069.17 M146.099 1067.17 Q143.09 1066.43 141.4 1064.37 Q139.733 1062.31 139.733 1059.35 Q139.733 1055.21 142.673 1052.8 Q145.636 1050.39 150.775 1050.39 Q155.937 1050.39 158.877 1052.8 Q161.816 1055.21 161.816 1059.35 Q161.816 1062.31 160.127 1064.37 Q158.46 1066.43 155.474 1067.17 Q158.853 1067.96 160.728 1070.25 Q162.627 1072.55 162.627 1075.86 Q162.627 1080.88 159.548 1083.56 Q156.492 1086.25 150.775 1086.25 Q145.057 1086.25 141.978 1083.56 Q138.923 1080.88 138.923 1075.86 Q138.923 1072.55 140.821 1070.25 Q142.719 1067.96 146.099 1067.17 M144.386 1059.79 Q144.386 1062.48 146.053 1063.98 Q147.742 1065.49 150.775 1065.49 Q153.784 1065.49 155.474 1063.98 Q157.187 1062.48 157.187 1059.79 Q157.187 1057.11 155.474 1055.6 Q153.784 1054.1 150.775 1054.1 Q147.742 1054.1 146.053 1055.6 Q144.386 1057.11 144.386 1059.79 Z" fill="#000000" fill-rule="nonzero" fill-opacity="1" /><path clip-path="url(#clip180)" d="M170.937 1079.7 L175.821 1079.7 L175.821 1085.58 L170.937 1085.58 L170.937 1079.7 Z" fill="#000000" fill-rule="nonzero" fill-opacity="1" /><path clip-path="url(#clip180)" d="M196.006 1054.1 Q192.395 1054.1 190.566 1057.66 Q188.761 1061.2 188.761 1068.33 Q188.761 1075.44 190.566 1079 Q192.395 1082.55 196.006 1082.55 Q199.64 1082.55 201.446 1079 Q203.274 1075.44 203.274 1068.33 Q203.274 1061.2 201.446 1057.66 Q199.64 1054.1 196.006 1054.1 M196.006 1050.39 Q201.816 1050.39 204.872 1055 Q207.95 1059.58 207.95 1068.33 Q207.95 1077.06 204.872 1081.67 Q201.816 1086.25 196.006 1086.25 Q190.196 1086.25 187.117 1081.67 Q184.062 1077.06 184.062 1068.33 Q184.062 1059.58 187.117 1055 Q190.196 1050.39 196.006 1050.39 Z" fill="#000000" fill-rule="nonzero" fill-opacity="1" /><path clip-path="url(#clip180)" d="M244.339 1060.11 L233.76 1070.74 L244.339 1081.32 L241.584 1084.12 L230.959 1073.49 L220.335 1084.12 L217.603 1081.32 L228.159 1070.74 L217.603 1060.11 L220.335 1057.31 L230.959 1067.94 L241.584 1057.31 L244.339 1060.11 Z" fill="#000000" fill-rule="nonzero" fill-opacity="1" /><path clip-path="url(#clip180)" d="M256.7 1081.64 L264.339 1081.64 L264.339 1055.28 L256.029 1056.94 L256.029 1052.68 L264.293 1051.02 L268.969 1051.02 L268.969 1081.64 L276.607 1081.64 L276.607 1085.58 L256.7 1085.58 L256.7 1081.64 Z" fill="#000000" fill-rule="nonzero" fill-opacity="1" /><path clip-path="url(#clip180)" d="M296.052 1054.1 Q292.441 1054.1 290.612 1057.66 Q288.806 1061.2 288.806 1068.33 Q288.806 1075.44 290.612 1079 Q292.441 1082.55 296.052 1082.55 Q299.686 1082.55 301.492 1079 Q303.32 1075.44 303.32 1068.33 Q303.32 1061.2 301.492 1057.66 Q299.686 1054.1 296.052 1054.1 M296.052 1050.39 Q301.862 1050.39 304.917 1055 Q307.996 1059.58 307.996 1068.33 Q307.996 1077.06 304.917 1081.67 Q301.862 1086.25 296.052 1086.25 Q290.242 1086.25 287.163 1081.67 Q284.107 1077.06 284.107 1068.33 Q284.107 1059.58 287.163 1055 Q290.242 1050.39 296.052 1050.39 Z" fill="#000000" fill-rule="nonzero" fill-opacity="1" /><path clip-path="url(#clip180)" d="M309.181 1030.09 L324.096 1030.09 L324.096 1033.28 L312.66 1033.28 L312.66 1040.17 Q313.488 1039.89 314.316 1039.75 Q315.143 1039.6 315.971 1039.6 Q320.673 1039.6 323.418 1042.18 Q326.164 1044.76 326.164 1049.16 Q326.164 1053.69 323.343 1056.21 Q320.522 1058.71 315.388 1058.71 Q313.62 1058.71 311.776 1058.41 Q309.952 1058.11 307.996 1057.51 L307.996 1053.69 Q309.689 1054.61 311.494 1055.06 Q313.3 1055.52 315.312 1055.52 Q318.566 1055.52 320.466 1053.8 Q322.365 1052.09 322.365 1049.16 Q322.365 1046.22 320.466 1044.51 Q318.566 1042.8 315.312 1042.8 Q313.789 1042.8 312.265 1043.14 Q310.761 1043.48 309.181 1044.19 L309.181 1030.09 Z" fill="#000000" fill-rule="nonzero" fill-opacity="1" /><path clip-path="url(#clip180)" d="M140.362 544.008 L148.001 544.008 L148.001 517.642 L139.691 519.309 L139.691 515.049 L147.955 513.383 L152.631 513.383 L152.631 544.008 L160.27 544.008 L160.27 547.943 L140.362 547.943 L140.362 544.008 Z" fill="#000000" fill-rule="nonzero" fill-opacity="1" /><path clip-path="url(#clip180)" d="M169.714 542.063 L174.598 542.063 L174.598 547.943 L169.714 547.943 L169.714 542.063 Z" fill="#000000" fill-rule="nonzero" fill-opacity="1" /><path clip-path="url(#clip180)" d="M194.783 516.461 Q191.172 516.461 189.344 520.026 Q187.538 523.568 187.538 530.697 Q187.538 537.804 189.344 541.369 Q191.172 544.91 194.783 544.91 Q198.418 544.91 200.223 541.369 Q202.052 537.804 202.052 530.697 Q202.052 523.568 200.223 520.026 Q198.418 516.461 194.783 516.461 M194.783 512.758 Q200.594 512.758 203.649 517.364 Q206.728 521.947 206.728 530.697 Q206.728 539.424 203.649 544.031 Q200.594 548.614 194.783 548.614 Q188.973 548.614 185.895 544.031 Q182.839 539.424 182.839 530.697 Q182.839 521.947 185.895 517.364 Q188.973 512.758 194.783 512.758 Z" fill="#000000" fill-rule="nonzero" fill-opacity="1" /><path clip-path="url(#clip180)" d="M243.117 522.48 L232.538 533.105 L243.117 543.683 L240.362 546.484 L229.737 535.859 L219.112 546.484 L216.381 543.683 L226.936 533.105 L216.381 522.48 L219.112 519.679 L229.737 530.304 L240.362 519.679 L243.117 522.48 Z" fill="#000000" fill-rule="nonzero" fill-opacity="1" /><path clip-path="url(#clip180)" d="M255.478 544.008 L263.116 544.008 L263.116 517.642 L254.806 519.309 L254.806 515.049 L263.07 513.383 L267.746 513.383 L267.746 544.008 L275.385 544.008 L275.385 547.943 L255.478 547.943 L255.478 544.008 Z" fill="#000000" fill-rule="nonzero" fill-opacity="1" /><path clip-path="url(#clip180)" d="M294.829 516.461 Q291.218 516.461 289.389 520.026 Q287.584 523.568 287.584 530.697 Q287.584 537.804 289.389 541.369 Q291.218 544.91 294.829 544.91 Q298.463 544.91 300.269 541.369 Q302.098 537.804 302.098 530.697 Q302.098 523.568 300.269 520.026 Q298.463 516.461 294.829 516.461 M294.829 512.758 Q300.639 512.758 303.695 517.364 Q306.774 521.947 306.774 530.697 Q306.774 539.424 303.695 544.031 Q300.639 548.614 294.829 548.614 Q289.019 548.614 285.94 544.031 Q282.885 539.424 282.885 530.697 Q282.885 521.947 285.94 517.364 Q289.019 512.758 294.829 512.758 Z" fill="#000000" fill-rule="nonzero" fill-opacity="1" /><path clip-path="url(#clip180)" d="M316.798 504.978 Q314.24 504.978 312.736 506.727 Q311.25 508.477 311.25 511.523 Q311.25 514.551 312.736 516.319 Q314.24 518.068 316.798 518.068 Q319.356 518.068 320.842 516.319 Q322.346 514.551 322.346 511.523 Q322.346 508.477 320.842 506.727 Q319.356 504.978 316.798 504.978 M324.34 493.073 L324.34 496.534 Q322.911 495.857 321.444 495.499 Q319.995 495.142 318.566 495.142 Q314.805 495.142 312.811 497.681 Q310.836 500.22 310.554 505.354 Q311.664 503.718 313.338 502.853 Q315.011 501.969 317.024 501.969 Q321.256 501.969 323.701 504.546 Q326.164 507.104 326.164 511.523 Q326.164 515.849 323.607 518.463 Q321.049 521.078 316.798 521.078 Q311.927 521.078 309.35 517.354 Q306.774 513.611 306.774 506.521 Q306.774 499.863 309.933 495.913 Q313.093 491.945 318.416 491.945 Q319.845 491.945 321.293 492.227 Q322.76 492.509 324.34 493.073 Z" fill="#000000" fill-rule="nonzero" fill-opacity="1" /><path clip-path="url(#clip180)" d="M40.2442 1213.15 L40.2442 1206.24 L59.7869 1193.06 L40.2442 1179.98 L40.2442 1173.08 L65.1341 1189.88 L87.7642 1189.88 L87.7642 1196.34 L65.1341 1196.34 L40.2442 1213.15 Z" fill="#000000" fill-rule="nonzero" fill-opacity="1" /><path clip-path="url(#clip180)" d="M38.3026 1132.27 Q45.6232 1136.54 52.7846 1138.61 Q59.946 1140.67 67.2984 1140.67 Q74.6508 1140.67 81.8759 1138.61 Q89.0691 1136.5 96.3579 1132.27 L96.3579 1137.36 Q88.8782 1142.14 81.6531 1144.53 Q74.428 1146.88 67.2984 1146.88 Q60.2006 1146.88 53.0074 1144.53 Q45.8142 1142.17 38.3026 1137.36 L38.3026 1132.27 Z" fill="#000000" fill-rule="nonzero" fill-opacity="1" /><path clip-path="url(#clip180)" d="M40.2442 1120.65 L40.2442 1114.22 L60.328 1114.22 L40.2442 1092.9 L40.2442 1084.62 L62.3968 1108.21 L87.7642 1082.94 L87.7642 1091.4 L64.8794 1114.22 L87.7642 1114.22 L87.7642 1120.65 L40.2442 1120.65 Z" fill="#000000" fill-rule="nonzero" fill-opacity="1" /><path clip-path="url(#clip180)" d="M40.2442 1077.91 L40.2442 1068.33 L72.5819 1056.2 L40.2442 1044.01 L40.2442 1034.43 L87.7642 1034.43 L87.7642 1040.7 L46.037 1040.7 L78.6294 1052.96 L78.6294 1059.42 L46.037 1071.67 L87.7642 1071.67 L87.7642 1077.91 L40.2442 1077.91 Z" fill="#000000" fill-rule="nonzero" fill-opacity="1" /><path clip-path="url(#clip180)" d="M38.3026 1022.85 L38.3026 1017.75 Q45.8142 1012.98 53.0074 1010.62 Q60.2006 1008.24 67.2984 1008.24 Q74.428 1008.24 81.6531 1010.62 Q88.8782 1012.98 96.3579 1017.75 L96.3579 1022.85 Q89.0691 1018.61 81.8759 1016.54 Q74.6508 1014.44 67.2984 1014.44 Q59.946 1014.44 52.7846 1016.54 Q45.6232 1018.61 38.3026 1022.85 Z" fill="#000000" fill-rule="nonzero" fill-opacity="1" /><polyline clip-path="url(#clip182)" style="stroke:#1f83ff; stroke-linecap:round; stroke-linejoin:round; stroke-width:4; stroke-opacity:1; fill:none" points="418.502,1405.53 423.647,1471.58 428.792,1536.53 433.937,1599.84 439.082,1660.89 444.227,1719.01 449.372,1773.46 454.517,1823.47 459.662,1868.18 464.807,1906.78 469.952,1938.43 475.097,1962.43 480.242,1978.18 485.387,1985.28 490.532,1983.56 495.677,1973.08 500.822,1954.16 505.967,1927.3 511.111,1893.2 516.256,1852.61 521.401,1806.38 526.546,1755.32 531.691,1700.26 536.836,1641.94 541.981,1581.07 547.126,1518.27 552.271,1454.11 557.416,1389.1 562.561,1323.69 567.706,1258.28 572.851,1193.22 577.996,1128.83 583.141,1065.37 588.286,1003.12 593.431,942.274 598.576,883.043 603.721,825.598 608.866,770.088 614.011,716.647 619.156,665.392 624.301,616.429 629.446,569.855 634.591,525.757 639.736,484.215 644.881,445.302 650.026,409.081 655.171,375.611 660.316,344.942 665.461,317.119 670.606,292.182 675.751,270.162 680.896,251.087 686.041,234.98 691.186,221.857 696.331,211.729 701.476,204.604 706.621,200.486 711.766,199.371 716.911,201.255 722.056,206.131 727.201,213.985 732.345,224.805 737.49,238.574 742.635,255.275 747.78,274.884 752.925,297.374 758.07,322.71 763.215,350.85 768.36,381.745 773.505,415.342 778.65,451.583 783.795,490.405 788.94,531.744 794.085,575.527 799.23,621.677 804.375,670.111 809.52,720.738 814.665,773.458 819.81,828.165 824.955,884.74 830.1,943.052 835.245,1002.96 840.39,1064.31 845.535,1126.93 850.68,1190.62 855.825,1255.18 860.97,1320.38 866.115,1385.95 871.26,1451.6 876.405,1517.01 881.55,1581.81 886.695,1645.62 891.84,1707.98 896.985,1768.34 902.13,1826.14 907.275,1880.73 912.42,1931.41 917.565,1977.43 922.71,2018 927.855,2052.35 933,2079.7 938.145,2099.4 943.29,2110.92 948.435,2113.94 953.579,2108.37 958.724,2094.35 963.869,2072.24 969.014,2042.6 974.159,2006.12 979.304,1963.56 984.449,1915.71 989.594,1863.35 994.739,1807.21 999.884,1747.99 1005.03,1686.31 1010.17,1622.74 1015.32,1557.79 1020.46,1491.91 1025.61,1425.5 1030.75,1358.94 1035.9,1292.54 1041.04,1226.59 1046.19,1161.37 1051.33,1097.09 1056.48,1033.98 1061.62,972.226 1066.77,911.996 1071.91,853.449 1077.06,796.735 1082.2,741.988 1087.35,689.337 1092.49,638.9 1097.64,590.785 1102.78,545.096 1107.93,501.925 1113.07,461.36 1118.22,423.482 1123.36,388.362 1128.51,356.068 1133.65,326.661 1138.8,300.194 1143.94,276.718 1149.09,256.276 1154.23,238.906 1159.38,224.642 1164.52,213.514 1169.67,205.547 1174.81,200.764 1179.96,199.185 1185.1,200.827 1190.25,205.705 1195.39,213.827 1200.54,225.198 1205.68,239.813 1210.83,257.659 1215.97,278.715 1221.12,302.954 1226.26,330.341 1231.41,360.837 1236.55,394.396 1241.7,430.968 1246.84,470.495 1251.99,512.912 1257.13,558.142 1262.28,606.101 1267.42,656.691 1272.57,709.8 1277.71,765.304 1282.86,823.06 1288,882.904 1293.15,944.654 1298.29,1008.1 1303.44,1073.02 1308.58,1139.13 1313.73,1206.15 1318.87,1273.73 1324.02,1341.49 1329.16,1409.02 1334.31,1475.83 1339.45,1541.37 1344.6,1605.06 1349.74,1666.23 1354.89,1724.14 1360.03,1778 1365.18,1826.97 1370.32,1870.18 1375.47,1906.76 1380.61,1935.88 1385.76,1956.84 1390.9,1969.09 1396.05,1972.3 1401.19,1966.4 1406.34,1951.57 1411.48,1928.25 1416.63,1897.04 1421.77,1858.72 1426.92,1814.11 1432.06,1764.1 1437.21,1709.54 1442.35,1651.23 1447.5,1589.95 1452.64,1526.37 1457.79,1461.11 1462.93,1394.72 1468.08,1327.7 1473.22,1260.47 1478.37,1193.42 1483.51,1126.89 1488.66,1061.17 1493.8,996.526 1498.95,933.199 1504.09,871.398 1509.24,811.306 1514.38,753.088 1519.53,696.885 1524.67,642.821 1529.82,591.004 1534.96,541.529 1540.11,494.481 1545.25,449.937 1550.4,407.967 1555.54,368.633 1560.69,331.991 1565.83,298.093 1570.98,266.983 1576.12,238.698 1581.27,213.272 1586.41,190.732 1591.56,171.1 1596.7,154.392 1601.85,140.62 1606.99,129.791 1612.14,121.907 1617.28,116.967 1622.43,114.966 1627.57,115.895 1632.72,119.744 1637.86,126.497 1643.01,136.141 1648.15,148.656 1653.3,164.023 1658.44,182.219 1663.59,203.217 1668.73,226.983 1673.88,253.479 1679.02,282.66 1684.17,314.475 1689.31,348.868 1694.46,385.779 1699.6,425.146 1704.75,466.901 1709.89,510.974 1715.04,557.288 1720.18,605.764 1725.33,656.312 1730.47,708.838 1735.62,763.24 1740.76,819.405 1745.91,877.212 1751.05,936.535 1756.2,997.233 1761.34,1059.14 1766.49,1122.07 1771.63,1185.84 1776.78,1250.25 1781.92,1315.05 1787.07,1379.99 1792.21,1444.78 1797.36,1509.11 1802.5,1572.62 1807.65,1634.92 1812.79,1695.56 1817.94,1754.05 1823.08,1809.85 1828.23,1862.36 1833.37,1910.92 1838.52,1954.85 1843.66,1993.44 1848.81,2025.97 1853.95,2051.79 1859.1,2070.31 1864.24,2081.08 1869.39,2083.82 1874.53,2078.47 1879.68,2065.16 1884.82,2044.2 1889.97,2016.09 1895.11,1981.43 1900.26,1940.91 1905.4,1895.22 1910.55,1845.09 1915.69,1791.18 1920.84,1734.13 1925.98,1674.53 1931.13,1612.91 1936.27,1549.76 1941.42,1485.51 1946.56,1420.53 1951.7,1355.19 1956.85,1289.8 1961.99,1224.63 1967.14,1159.94 1972.28,1095.94 1977.43,1032.85 1982.57,970.842 1987.72,910.091 1992.86,850.751 1998.01,792.969 2003.15,736.877 2008.3,682.603 2013.44,630.261 2018.59,579.959 2023.73,531.797 2028.88,485.868 2034.02,442.255 2039.17,401.039 2044.31,362.291 2049.46,326.078 2054.6,292.462 2059.75,261.499 2064.89,233.242 2070.04,207.737 2075.18,185.028 2080.33,165.157 2085.47,148.16 2090.62,134.074 2095.76,122.93 2100.91,114.758 2106.05,109.587 2111.2,107.439 2116.34,108.332 2121.49,112.278 2126.63,119.28 2131.78,129.337 2136.92,142.445 2142.07,158.593 2147.21,177.771 2152.36,199.964 2157.5,225.153 2162.65,253.316 2167.79,284.424 2172.94,318.444 2178.08,355.336 2183.23,395.048 2188.37,437.522 2193.52,482.697 2198.66,530.494 2203.81,580.827 2208.95,633.596 2214.1,688.688 2219.24,745.975 2224.39,805.313 2229.53,866.537 2234.68,929.467 2239.82,993.895 2244.97,1059.59 2250.11,1126.29 2255.26,1193.71 2260.4,1261.52 2265.55,1329.36 2270.69,1396.79 2275.84,1463.36 2280.98,1528.54 2286.13,1591.71 2291.27,1652.22 2296.42,1709.35 "/>
</svg>
