<?xml version="1.0" encoding="utf-8"?>
<svg xmlns="http://www.w3.org/2000/svg" xmlns:xlink="http://www.w3.org/1999/xlink" width="600" height="600" viewBox="0 0 2400 2400">
<defs>
  <clipPath id="clip120">
    <rect x="0" y="0" width="2400" height="2400"/>
  </clipPath>
</defs>
<defs>
  <clipPath id="clip121">
    <rect x="480" y="240" width="1681" height="1681"/>
  </clipPath>
</defs>
<defs>
  <clipPath id="clip122">
    <rect x="430" y="47" width="1923" height="2109"/>
  </clipPath>
</defs>
<polyline clip-path="url(#clip120)" style="stroke:#000000; stroke-linecap:round; stroke-linejoin:round; stroke-width:4; stroke-opacity:1; fill:none" points="430.562,2155.72 2352.76,2155.72 "/>
<polyline clip-path="url(#clip120)" style="stroke:#000000; stroke-linecap:round; stroke-linejoin:round; stroke-width:4; stroke-opacity:1; fill:none" points="494.81,2155.72 494.81,2136.82 "/>
<polyline clip-path="url(#clip120)" style="stroke:#000000; stroke-linecap:round; stroke-linejoin:round; stroke-width:4; stroke-opacity:1; fill:none" points="795.045,2155.72 795.045,2136.82 "/>
<polyline clip-path="url(#clip120)" style="stroke:#000000; stroke-linecap:round; stroke-linejoin:round; stroke-width:4; stroke-opacity:1; fill:none" points="1095.28,2155.72 1095.28,2136.82 "/>
<polyline clip-path="url(#clip120)" style="stroke:#000000; stroke-linecap:round; stroke-linejoin:round; stroke-width:4; stroke-opacity:1; fill:none" points="1395.52,2155.72 1395.52,2136.82 "/>
<polyline clip-path="url(#clip120)" style="stroke:#000000; stroke-linecap:round; stroke-linejoin:round; stroke-width:4; stroke-opacity:1; fill:none" points="1695.75,2155.72 1695.75,2136.82 "/>
<polyline clip-path="url(#clip120)" style="stroke:#000000; stroke-linecap:round; stroke-linejoin:round; stroke-width:4; stroke-opacity:1; fill:none" points="1995.99,2155.72 1995.99,2136.82 "/>
<polyline clip-path="url(#clip120)" style="stroke:#000000; stroke-linecap:round; stroke-linejoin:round; stroke-width:4; stroke-opacity:1; fill:none" points="2296.22,2155.72 2296.22,2136.82 "/>
<path clip-path="url(#clip120)" d="M366.539 2216.95 L396.215 2216.95 L396.215 2220.88 L366.539 2220.88 L366.539 2216.95 Z" fill="#000000" fill-rule="nonzero" fill-opacity="1" /><path clip-path="url(#clip120)" d="M407.118 2229.84 L414.757 2229.84 L414.757 2203.47 L406.446 2205.14 L406.446 2200.88 L414.71 2199.22 L419.386 2199.22 L419.386 2229.84 L427.025 2229.84 L427.025 2233.78 L407.118 2233.78 L407.118 2229.84 Z" fill="#000000" fill-rule="nonzero" fill-opacity="1" /><path clip-path="url(#clip120)" d="M436.469 2227.9 L441.354 2227.9 L441.354 2233.78 L436.469 2233.78 L436.469 2227.9 Z" fill="#000000" fill-rule="nonzero" fill-opacity="1" /><path clip-path="url(#clip120)" d="M451.585 2199.22 L469.941 2199.22 L469.941 2203.15 L455.867 2203.15 L455.867 2211.62 Q456.886 2211.28 457.904 2211.11 Q458.923 2210.93 459.942 2210.93 Q465.729 2210.93 469.108 2214.1 Q472.488 2217.27 472.488 2222.69 Q472.488 2228.27 469.016 2231.37 Q465.543 2234.45 459.224 2234.45 Q457.048 2234.45 454.78 2234.08 Q452.534 2233.71 450.127 2232.96 L450.127 2228.27 Q452.21 2229.4 454.432 2229.96 Q456.654 2230.51 459.131 2230.51 Q463.136 2230.51 465.474 2228.4 Q467.812 2226.3 467.812 2222.69 Q467.812 2219.08 465.474 2216.97 Q463.136 2214.86 459.131 2214.86 Q457.256 2214.86 455.381 2215.28 Q453.53 2215.7 451.585 2216.58 L451.585 2199.22 Z" fill="#000000" fill-rule="nonzero" fill-opacity="1" /><path clip-path="url(#clip120)" d="M491.701 2202.29 Q488.09 2202.29 486.261 2205.86 Q484.455 2209.4 484.455 2216.53 Q484.455 2223.64 486.261 2227.2 Q488.09 2230.74 491.701 2230.74 Q495.335 2230.74 497.14 2227.2 Q498.969 2223.64 498.969 2216.53 Q498.969 2209.4 497.14 2205.86 Q495.335 2202.29 491.701 2202.29 M491.701 2198.59 Q497.511 2198.59 500.566 2203.2 Q503.645 2207.78 503.645 2216.53 Q503.645 2225.26 500.566 2229.86 Q497.511 2234.45 491.701 2234.45 Q485.89 2234.45 482.812 2229.86 Q479.756 2225.26 479.756 2216.53 Q479.756 2207.78 482.812 2203.2 Q485.89 2198.59 491.701 2198.59 Z" fill="#000000" fill-rule="nonzero" fill-opacity="1" /><path clip-path="url(#clip120)" d="M540.034 2208.31 L529.455 2218.94 L540.034 2229.52 L537.279 2232.32 L526.654 2221.69 L516.029 2232.32 L513.298 2229.52 L523.853 2218.94 L513.298 2208.31 L516.029 2205.51 L526.654 2216.14 L537.279 2205.51 L540.034 2208.31 Z" fill="#000000" fill-rule="nonzero" fill-opacity="1" /><path clip-path="url(#clip120)" d="M552.395 2229.84 L560.034 2229.84 L560.034 2203.47 L551.723 2205.14 L551.723 2200.88 L559.987 2199.22 L564.663 2199.22 L564.663 2229.84 L572.302 2229.84 L572.302 2233.78 L552.395 2233.78 L552.395 2229.84 Z" fill="#000000" fill-rule="nonzero" fill-opacity="1" /><path clip-path="url(#clip120)" d="M591.746 2202.29 Q588.135 2202.29 586.307 2205.86 Q584.501 2209.4 584.501 2216.53 Q584.501 2223.64 586.307 2227.2 Q588.135 2230.74 591.746 2230.74 Q595.381 2230.74 597.186 2227.2 Q599.015 2223.64 599.015 2216.53 Q599.015 2209.4 597.186 2205.86 Q595.381 2202.29 591.746 2202.29 M591.746 2198.59 Q597.557 2198.59 600.612 2203.2 Q603.691 2207.78 603.691 2216.53 Q603.691 2225.26 600.612 2229.86 Q597.557 2234.45 591.746 2234.45 Q585.936 2234.45 582.858 2229.86 Q579.802 2225.26 579.802 2216.53 Q579.802 2207.78 582.858 2203.2 Q585.936 2198.59 591.746 2198.59 Z" fill="#000000" fill-rule="nonzero" fill-opacity="1" /><path clip-path="url(#clip120)" d="M613.715 2190.81 Q611.157 2190.81 609.653 2192.56 Q608.167 2194.31 608.167 2197.36 Q608.167 2200.38 609.653 2202.15 Q611.157 2203.9 613.715 2203.9 Q616.273 2203.9 617.759 2202.15 Q619.264 2200.38 619.264 2197.36 Q619.264 2194.31 617.759 2192.56 Q616.273 2190.81 613.715 2190.81 M621.257 2178.91 L621.257 2182.37 Q619.828 2181.69 618.361 2181.33 Q616.913 2180.97 615.483 2180.97 Q611.722 2180.97 609.728 2183.51 Q607.753 2186.05 607.471 2191.19 Q608.581 2189.55 610.255 2188.69 Q611.929 2187.8 613.941 2187.8 Q618.173 2187.8 620.618 2190.38 Q623.082 2192.94 623.082 2197.36 Q623.082 2201.68 620.524 2204.3 Q617.966 2206.91 613.715 2206.91 Q608.844 2206.91 606.267 2203.19 Q603.691 2199.44 603.691 2192.35 Q603.691 2185.69 606.85 2181.75 Q610.01 2177.78 615.333 2177.78 Q616.762 2177.78 618.21 2178.06 Q619.677 2178.34 621.257 2178.91 Z" fill="#000000" fill-rule="nonzero" fill-opacity="1" /><path clip-path="url(#clip120)" d="M666.774 2216.95 L696.45 2216.95 L696.45 2220.88 L666.774 2220.88 L666.774 2216.95 Z" fill="#000000" fill-rule="nonzero" fill-opacity="1" /><path clip-path="url(#clip120)" d="M707.353 2229.84 L714.992 2229.84 L714.992 2203.47 L706.681 2205.14 L706.681 2200.88 L714.945 2199.22 L719.621 2199.22 L719.621 2229.84 L727.26 2229.84 L727.26 2233.78 L707.353 2233.78 L707.353 2229.84 Z" fill="#000000" fill-rule="nonzero" fill-opacity="1" /><path clip-path="url(#clip120)" d="M736.704 2227.9 L741.589 2227.9 L741.589 2233.78 L736.704 2233.78 L736.704 2227.9 Z" fill="#000000" fill-rule="nonzero" fill-opacity="1" /><path clip-path="url(#clip120)" d="M761.774 2202.29 Q758.163 2202.29 756.334 2205.86 Q754.528 2209.4 754.528 2216.53 Q754.528 2223.64 756.334 2227.2 Q758.163 2230.74 761.774 2230.74 Q765.408 2230.74 767.213 2227.2 Q769.042 2223.64 769.042 2216.53 Q769.042 2209.4 767.213 2205.86 Q765.408 2202.29 761.774 2202.29 M761.774 2198.59 Q767.584 2198.59 770.639 2203.2 Q773.718 2207.78 773.718 2216.53 Q773.718 2225.26 770.639 2229.86 Q767.584 2234.45 761.774 2234.45 Q755.964 2234.45 752.885 2229.86 Q749.829 2225.26 749.829 2216.53 Q749.829 2207.78 752.885 2203.2 Q755.964 2198.59 761.774 2198.59 Z" fill="#000000" fill-rule="nonzero" fill-opacity="1" /><path clip-path="url(#clip120)" d="M791.936 2202.29 Q788.324 2202.29 786.496 2205.86 Q784.69 2209.4 784.69 2216.53 Q784.69 2223.64 786.496 2227.2 Q788.324 2230.74 791.936 2230.74 Q795.57 2230.74 797.375 2227.2 Q799.204 2223.64 799.204 2216.53 Q799.204 2209.4 797.375 2205.86 Q795.57 2202.29 791.936 2202.29 M791.936 2198.59 Q797.746 2198.59 800.801 2203.2 Q803.88 2207.78 803.88 2216.53 Q803.88 2225.26 800.801 2229.86 Q797.746 2234.45 791.936 2234.45 Q786.125 2234.45 783.047 2229.86 Q779.991 2225.26 779.991 2216.53 Q779.991 2207.78 783.047 2203.2 Q786.125 2198.59 791.936 2198.59 Z" fill="#000000" fill-rule="nonzero" fill-opacity="1" /><path clip-path="url(#clip120)" d="M840.269 2208.31 L829.69 2218.94 L840.269 2229.52 L837.514 2232.32 L826.889 2221.69 L816.264 2232.32 L813.533 2229.52 L824.088 2218.94 L813.533 2208.31 L816.264 2205.51 L826.889 2216.14 L837.514 2205.51 L840.269 2208.31 Z" fill="#000000" fill-rule="nonzero" fill-opacity="1" /><path clip-path="url(#clip120)" d="M852.63 2229.84 L860.269 2229.84 L860.269 2203.47 L851.958 2205.14 L851.958 2200.88 L860.222 2199.22 L864.898 2199.22 L864.898 2229.84 L872.537 2229.84 L872.537 2233.78 L852.63 2233.78 L852.63 2229.84 Z" fill="#000000" fill-rule="nonzero" fill-opacity="1" /><path clip-path="url(#clip120)" d="M891.981 2202.29 Q888.37 2202.29 886.542 2205.86 Q884.736 2209.4 884.736 2216.53 Q884.736 2223.64 886.542 2227.2 Q888.37 2230.74 891.981 2230.74 Q895.616 2230.74 897.421 2227.2 Q899.25 2223.64 899.25 2216.53 Q899.25 2209.4 897.421 2205.86 Q895.616 2202.29 891.981 2202.29 M891.981 2198.59 Q897.791 2198.59 900.847 2203.2 Q903.926 2207.78 903.926 2216.53 Q903.926 2225.26 900.847 2229.86 Q897.791 2234.45 891.981 2234.45 Q886.171 2234.45 883.092 2229.86 Q880.037 2225.26 880.037 2216.53 Q880.037 2207.78 883.092 2203.2 Q886.171 2198.59 891.981 2198.59 Z" fill="#000000" fill-rule="nonzero" fill-opacity="1" /><path clip-path="url(#clip120)" d="M913.95 2190.81 Q911.392 2190.81 909.888 2192.56 Q908.402 2194.31 908.402 2197.36 Q908.402 2200.38 909.888 2202.15 Q911.392 2203.9 913.95 2203.9 Q916.508 2203.9 917.994 2202.15 Q919.499 2200.38 919.499 2197.36 Q919.499 2194.31 917.994 2192.56 Q916.508 2190.81 913.95 2190.81 M921.492 2178.91 L921.492 2182.37 Q920.063 2181.69 918.596 2181.33 Q917.148 2180.97 915.718 2180.97 Q911.957 2180.97 909.963 2183.51 Q907.988 2186.05 907.706 2191.19 Q908.816 2189.55 910.49 2188.69 Q912.163 2187.8 914.176 2187.8 Q918.408 2187.8 920.853 2190.38 Q923.317 2192.94 923.317 2197.36 Q923.317 2201.68 920.759 2204.3 Q918.201 2206.91 913.95 2206.91 Q909.079 2206.91 906.502 2203.19 Q903.926 2199.44 903.926 2192.35 Q903.926 2185.69 907.085 2181.75 Q910.245 2177.78 915.568 2177.78 Q916.997 2177.78 918.445 2178.06 Q919.912 2178.34 921.492 2178.91 Z" fill="#000000" fill-rule="nonzero" fill-opacity="1" /><path clip-path="url(#clip120)" d="M967.62 2216.95 L997.296 2216.95 L997.296 2220.88 L967.62 2220.88 L967.62 2216.95 Z" fill="#000000" fill-rule="nonzero" fill-opacity="1" /><path clip-path="url(#clip120)" d="M1007.43 2199.22 L1025.79 2199.22 L1025.79 2203.15 L1011.72 2203.15 L1011.72 2211.62 Q1012.74 2211.28 1013.75 2211.11 Q1014.77 2210.93 1015.79 2210.93 Q1021.58 2210.93 1024.96 2214.1 Q1028.34 2217.27 1028.34 2222.69 Q1028.34 2228.27 1024.87 2231.37 Q1021.39 2234.45 1015.07 2234.45 Q1012.9 2234.45 1010.63 2234.08 Q1008.38 2233.71 1005.98 2232.96 L1005.98 2228.27 Q1008.06 2229.4 1010.28 2229.96 Q1012.5 2230.51 1014.98 2230.51 Q1018.99 2230.51 1021.32 2228.4 Q1023.66 2226.3 1023.66 2222.69 Q1023.66 2219.08 1021.32 2216.97 Q1018.99 2214.86 1014.98 2214.86 Q1013.11 2214.86 1011.23 2215.28 Q1009.38 2215.7 1007.43 2216.58 L1007.43 2199.22 Z" fill="#000000" fill-rule="nonzero" fill-opacity="1" /><path clip-path="url(#clip120)" d="M1037.55 2227.9 L1042.43 2227.9 L1042.43 2233.78 L1037.55 2233.78 L1037.55 2227.9 Z" fill="#000000" fill-rule="nonzero" fill-opacity="1" /><path clip-path="url(#clip120)" d="M1062.62 2202.29 Q1059.01 2202.29 1057.18 2205.86 Q1055.37 2209.4 1055.37 2216.53 Q1055.37 2223.64 1057.18 2227.2 Q1059.01 2230.74 1062.62 2230.74 Q1066.25 2230.74 1068.06 2227.2 Q1069.89 2223.64 1069.89 2216.53 Q1069.89 2209.4 1068.06 2205.86 Q1066.25 2202.29 1062.62 2202.29 M1062.62 2198.59 Q1068.43 2198.59 1071.49 2203.2 Q1074.56 2207.78 1074.56 2216.53 Q1074.56 2225.26 1071.49 2229.86 Q1068.43 2234.45 1062.62 2234.45 Q1056.81 2234.45 1053.73 2229.86 Q1050.68 2225.26 1050.68 2216.53 Q1050.68 2207.78 1053.73 2203.2 Q1056.81 2198.59 1062.62 2198.59 Z" fill="#000000" fill-rule="nonzero" fill-opacity="1" /><path clip-path="url(#clip120)" d="M1092.78 2202.29 Q1089.17 2202.29 1087.34 2205.86 Q1085.54 2209.4 1085.54 2216.53 Q1085.54 2223.64 1087.34 2227.2 Q1089.17 2230.74 1092.78 2230.74 Q1096.42 2230.74 1098.22 2227.2 Q1100.05 2223.64 1100.05 2216.53 Q1100.05 2209.4 1098.22 2205.86 Q1096.42 2202.29 1092.78 2202.29 M1092.78 2198.59 Q1098.59 2198.59 1101.65 2203.2 Q1104.73 2207.78 1104.73 2216.53 Q1104.73 2225.26 1101.65 2229.86 Q1098.59 2234.45 1092.78 2234.45 Q1086.97 2234.45 1083.89 2229.86 Q1080.84 2225.26 1080.84 2216.53 Q1080.84 2207.78 1083.89 2203.2 Q1086.97 2198.59 1092.78 2198.59 Z" fill="#000000" fill-rule="nonzero" fill-opacity="1" /><path clip-path="url(#clip120)" d="M1141.11 2208.31 L1130.54 2218.94 L1141.11 2229.52 L1138.36 2232.32 L1127.74 2221.69 L1117.11 2232.32 L1114.38 2229.52 L1124.93 2218.94 L1114.38 2208.31 L1117.11 2205.51 L1127.74 2216.14 L1138.36 2205.51 L1141.11 2208.31 Z" fill="#000000" fill-rule="nonzero" fill-opacity="1" /><path clip-path="url(#clip120)" d="M1153.48 2229.84 L1161.11 2229.84 L1161.11 2203.47 L1152.8 2205.14 L1152.8 2200.88 L1161.07 2199.22 L1165.74 2199.22 L1165.74 2229.84 L1173.38 2229.84 L1173.38 2233.78 L1153.48 2233.78 L1153.48 2229.84 Z" fill="#000000" fill-rule="nonzero" fill-opacity="1" /><path clip-path="url(#clip120)" d="M1192.83 2202.29 Q1189.22 2202.29 1187.39 2205.86 Q1185.58 2209.4 1185.58 2216.53 Q1185.58 2223.64 1187.39 2227.2 Q1189.22 2230.74 1192.83 2230.74 Q1196.46 2230.74 1198.27 2227.2 Q1200.1 2223.64 1200.1 2216.53 Q1200.1 2209.4 1198.27 2205.86 Q1196.46 2202.29 1192.83 2202.29 M1192.83 2198.59 Q1198.64 2198.59 1201.69 2203.2 Q1204.77 2207.78 1204.77 2216.53 Q1204.77 2225.26 1201.69 2229.86 Q1198.64 2234.45 1192.83 2234.45 Q1187.02 2234.45 1183.94 2229.86 Q1180.88 2225.26 1180.88 2216.53 Q1180.88 2207.78 1183.94 2203.2 Q1187.02 2198.59 1192.83 2198.59 Z" fill="#000000" fill-rule="nonzero" fill-opacity="1" /><path clip-path="url(#clip120)" d="M1205.96 2178.28 L1220.87 2178.28 L1220.87 2181.48 L1209.44 2181.48 L1209.44 2188.37 Q1210.26 2188.08 1211.09 2187.95 Q1211.92 2187.8 1212.75 2187.8 Q1217.45 2187.8 1220.19 2190.38 Q1222.94 2192.95 1222.94 2197.36 Q1222.94 2201.89 1220.12 2204.41 Q1217.3 2206.91 1212.16 2206.91 Q1210.4 2206.91 1208.55 2206.61 Q1206.73 2206.31 1204.77 2205.71 L1204.77 2201.89 Q1206.46 2202.81 1208.27 2203.26 Q1210.08 2203.71 1212.09 2203.71 Q1215.34 2203.71 1217.24 2202 Q1219.14 2200.29 1219.14 2197.36 Q1219.14 2194.42 1217.24 2192.71 Q1215.34 2191 1212.09 2191 Q1210.56 2191 1209.04 2191.34 Q1207.54 2191.68 1205.96 2192.39 L1205.96 2178.28 Z" fill="#000000" fill-rule="nonzero" fill-opacity="1" /><path clip-path="url(#clip120)" d="M1395.52 2186.63 Q1391.9 2186.63 1390.08 2190.2 Q1388.27 2193.74 1388.27 2200.87 Q1388.27 2207.98 1390.08 2211.54 Q1391.9 2215.08 1395.52 2215.08 Q1399.15 2215.08 1400.96 2211.54 Q1402.78 2207.98 1402.78 2200.87 Q1402.78 2193.74 1400.96 2190.2 Q1399.15 2186.63 1395.52 2186.63 M1395.52 2182.93 Q1401.33 2182.93 1404.38 2187.54 Q1407.46 2192.12 1407.46 2200.87 Q1407.46 2209.6 1404.38 2214.2 Q1401.33 2218.79 1395.52 2218.79 Q1389.71 2218.79 1386.63 2214.2 Q1383.57 2209.6 1383.57 2200.87 Q1383.57 2192.12 1386.63 2187.54 Q1389.71 2182.93 1395.52 2182.93 Z" fill="#000000" fill-rule="nonzero" fill-opacity="1" /><path clip-path="url(#clip120)" d="M1588.73 2199.22 L1607.08 2199.22 L1607.08 2203.15 L1593.01 2203.15 L1593.01 2211.62 Q1594.03 2211.28 1595.05 2211.11 Q1596.06 2210.93 1597.08 2210.93 Q1602.87 2210.93 1606.25 2214.1 Q1609.63 2217.27 1609.63 2222.69 Q1609.63 2228.27 1606.16 2231.37 Q1602.69 2234.45 1596.37 2234.45 Q1594.19 2234.45 1591.92 2234.08 Q1589.68 2233.71 1587.27 2232.96 L1587.27 2228.27 Q1589.35 2229.4 1591.57 2229.96 Q1593.8 2230.51 1596.27 2230.51 Q1600.28 2230.51 1602.62 2228.4 Q1604.95 2226.3 1604.95 2222.69 Q1604.95 2219.08 1602.62 2216.97 Q1600.28 2214.86 1596.27 2214.86 Q1594.4 2214.86 1592.52 2215.28 Q1590.67 2215.7 1588.73 2216.58 L1588.73 2199.22 Z" fill="#000000" fill-rule="nonzero" fill-opacity="1" /><path clip-path="url(#clip120)" d="M1618.84 2227.9 L1623.73 2227.9 L1623.73 2233.78 L1618.84 2233.78 L1618.84 2227.9 Z" fill="#000000" fill-rule="nonzero" fill-opacity="1" /><path clip-path="url(#clip120)" d="M1643.91 2202.29 Q1640.3 2202.29 1638.47 2205.86 Q1636.67 2209.4 1636.67 2216.53 Q1636.67 2223.64 1638.47 2227.2 Q1640.3 2230.74 1643.91 2230.74 Q1647.55 2230.74 1649.35 2227.2 Q1651.18 2223.64 1651.18 2216.53 Q1651.18 2209.4 1649.35 2205.86 Q1647.55 2202.29 1643.91 2202.29 M1643.91 2198.59 Q1649.72 2198.59 1652.78 2203.2 Q1655.86 2207.78 1655.86 2216.53 Q1655.86 2225.26 1652.78 2229.86 Q1649.72 2234.45 1643.91 2234.45 Q1638.1 2234.45 1635.02 2229.86 Q1631.97 2225.26 1631.97 2216.53 Q1631.97 2207.78 1635.02 2203.2 Q1638.1 2198.59 1643.91 2198.59 Z" fill="#000000" fill-rule="nonzero" fill-opacity="1" /><path clip-path="url(#clip120)" d="M1674.07 2202.29 Q1670.46 2202.29 1668.63 2205.86 Q1666.83 2209.4 1666.83 2216.53 Q1666.83 2223.64 1668.63 2227.2 Q1670.46 2230.74 1674.07 2230.74 Q1677.71 2230.74 1679.51 2227.2 Q1681.34 2223.64 1681.34 2216.53 Q1681.34 2209.4 1679.51 2205.86 Q1677.71 2202.29 1674.07 2202.29 M1674.07 2198.59 Q1679.88 2198.59 1682.94 2203.2 Q1686.02 2207.78 1686.02 2216.53 Q1686.02 2225.26 1682.94 2229.86 Q1679.88 2234.45 1674.07 2234.45 Q1668.26 2234.45 1665.18 2229.86 Q1662.13 2225.26 1662.13 2216.53 Q1662.13 2207.78 1665.18 2203.2 Q1668.26 2198.59 1674.07 2198.59 Z" fill="#000000" fill-rule="nonzero" fill-opacity="1" /><path clip-path="url(#clip120)" d="M1722.41 2208.31 L1711.83 2218.94 L1722.41 2229.52 L1719.65 2232.32 L1709.03 2221.69 L1698.4 2232.32 L1695.67 2229.52 L1706.23 2218.94 L1695.67 2208.31 L1698.4 2205.51 L1709.03 2216.14 L1719.65 2205.51 L1722.41 2208.31 Z" fill="#000000" fill-rule="nonzero" fill-opacity="1" /><path clip-path="url(#clip120)" d="M1734.77 2229.84 L1742.41 2229.84 L1742.41 2203.47 L1734.1 2205.14 L1734.1 2200.88 L1742.36 2199.22 L1747.04 2199.22 L1747.04 2229.84 L1754.67 2229.84 L1754.67 2233.78 L1734.77 2233.78 L1734.77 2229.84 Z" fill="#000000" fill-rule="nonzero" fill-opacity="1" /><path clip-path="url(#clip120)" d="M1774.12 2202.29 Q1770.51 2202.29 1768.68 2205.86 Q1766.87 2209.4 1766.87 2216.53 Q1766.87 2223.64 1768.68 2227.2 Q1770.51 2230.74 1774.12 2230.74 Q1777.75 2230.74 1779.56 2227.2 Q1781.39 2223.64 1781.39 2216.53 Q1781.39 2209.4 1779.56 2205.86 Q1777.75 2202.29 1774.12 2202.29 M1774.12 2198.59 Q1779.93 2198.59 1782.98 2203.2 Q1786.06 2207.78 1786.06 2216.53 Q1786.06 2225.26 1782.98 2229.86 Q1779.93 2234.45 1774.12 2234.45 Q1768.31 2234.45 1765.23 2229.86 Q1762.17 2225.26 1762.17 2216.53 Q1762.17 2207.78 1765.23 2203.2 Q1768.31 2198.59 1774.12 2198.59 Z" fill="#000000" fill-rule="nonzero" fill-opacity="1" /><path clip-path="url(#clip120)" d="M1787.25 2178.28 L1802.16 2178.28 L1802.16 2181.48 L1790.73 2181.48 L1790.73 2188.37 Q1791.56 2188.08 1792.38 2187.95 Q1793.21 2187.8 1794.04 2187.8 Q1798.74 2187.8 1801.49 2190.38 Q1804.23 2192.95 1804.23 2197.36 Q1804.23 2201.89 1801.41 2204.41 Q1798.59 2206.91 1793.46 2206.91 Q1791.69 2206.91 1789.84 2206.61 Q1788.02 2206.31 1786.06 2205.71 L1786.06 2201.89 Q1787.76 2202.81 1789.56 2203.26 Q1791.37 2203.71 1793.38 2203.71 Q1796.63 2203.71 1798.53 2202 Q1800.43 2200.29 1800.43 2197.36 Q1800.43 2194.42 1798.53 2192.71 Q1796.63 2191 1793.38 2191 Q1791.86 2191 1790.33 2191.34 Q1788.83 2191.68 1787.25 2192.39 L1787.25 2178.28 Z" fill="#000000" fill-rule="nonzero" fill-opacity="1" /><path clip-path="url(#clip120)" d="M1888.34 2229.84 L1895.98 2229.84 L1895.98 2203.47 L1887.67 2205.14 L1887.67 2200.88 L1895.93 2199.22 L1900.61 2199.22 L1900.61 2229.84 L1908.25 2229.84 L1908.25 2233.78 L1888.34 2233.78 L1888.34 2229.84 Z" fill="#000000" fill-rule="nonzero" fill-opacity="1" /><path clip-path="url(#clip120)" d="M1917.69 2227.9 L1922.57 2227.9 L1922.57 2233.78 L1917.69 2233.78 L1917.69 2227.9 Z" fill="#000000" fill-rule="nonzero" fill-opacity="1" /><path clip-path="url(#clip120)" d="M1942.76 2202.29 Q1939.15 2202.29 1937.32 2205.86 Q1935.51 2209.4 1935.51 2216.53 Q1935.51 2223.64 1937.32 2227.2 Q1939.15 2230.74 1942.76 2230.74 Q1946.39 2230.74 1948.2 2227.2 Q1950.03 2223.64 1950.03 2216.53 Q1950.03 2209.4 1948.2 2205.86 Q1946.39 2202.29 1942.76 2202.29 M1942.76 2198.59 Q1948.57 2198.59 1951.63 2203.2 Q1954.7 2207.78 1954.7 2216.53 Q1954.7 2225.26 1951.63 2229.86 Q1948.57 2234.45 1942.76 2234.45 Q1936.95 2234.45 1933.87 2229.86 Q1930.82 2225.26 1930.82 2216.53 Q1930.82 2207.78 1933.87 2203.2 Q1936.95 2198.59 1942.76 2198.59 Z" fill="#000000" fill-rule="nonzero" fill-opacity="1" /><path clip-path="url(#clip120)" d="M1972.92 2202.29 Q1969.31 2202.29 1967.48 2205.86 Q1965.68 2209.4 1965.68 2216.53 Q1965.68 2223.64 1967.48 2227.2 Q1969.31 2230.74 1972.92 2230.74 Q1976.56 2230.74 1978.36 2227.2 Q1980.19 2223.64 1980.19 2216.53 Q1980.19 2209.4 1978.36 2205.86 Q1976.56 2202.29 1972.92 2202.29 M1972.92 2198.59 Q1978.73 2198.59 1981.79 2203.2 Q1984.87 2207.78 1984.87 2216.53 Q1984.87 2225.26 1981.79 2229.86 Q1978.73 2234.45 1972.92 2234.45 Q1967.11 2234.45 1964.03 2229.86 Q1960.98 2225.26 1960.98 2216.53 Q1960.98 2207.78 1964.03 2203.2 Q1967.11 2198.59 1972.92 2198.59 Z" fill="#000000" fill-rule="nonzero" fill-opacity="1" /><path clip-path="url(#clip120)" d="M2021.25 2208.31 L2010.68 2218.94 L2021.25 2229.52 L2018.5 2232.32 L2007.88 2221.69 L1997.25 2232.32 L1994.52 2229.52 L2005.07 2218.94 L1994.52 2208.31 L1997.25 2205.51 L2007.88 2216.14 L2018.5 2205.51 L2021.25 2208.31 Z" fill="#000000" fill-rule="nonzero" fill-opacity="1" /><path clip-path="url(#clip120)" d="M2033.62 2229.84 L2041.25 2229.84 L2041.25 2203.47 L2032.94 2205.14 L2032.94 2200.88 L2041.21 2199.22 L2045.88 2199.22 L2045.88 2229.84 L2053.52 2229.84 L2053.52 2233.78 L2033.62 2233.78 L2033.62 2229.84 Z" fill="#000000" fill-rule="nonzero" fill-opacity="1" /><path clip-path="url(#clip120)" d="M2072.97 2202.29 Q2069.36 2202.29 2067.53 2205.86 Q2065.72 2209.4 2065.72 2216.53 Q2065.72 2223.64 2067.53 2227.2 Q2069.36 2230.74 2072.97 2230.74 Q2076.6 2230.74 2078.41 2227.2 Q2080.24 2223.64 2080.24 2216.53 Q2080.24 2209.4 2078.41 2205.86 Q2076.6 2202.29 2072.97 2202.29 M2072.97 2198.59 Q2078.78 2198.59 2081.83 2203.2 Q2084.91 2207.78 2084.91 2216.53 Q2084.91 2225.26 2081.83 2229.86 Q2078.78 2234.45 2072.97 2234.45 Q2067.16 2234.45 2064.08 2229.86 Q2061.02 2225.26 2061.02 2216.53 Q2061.02 2207.78 2064.08 2203.2 Q2067.16 2198.59 2072.97 2198.59 Z" fill="#000000" fill-rule="nonzero" fill-opacity="1" /><path clip-path="url(#clip120)" d="M2094.94 2190.81 Q2092.38 2190.81 2090.87 2192.56 Q2089.39 2194.31 2089.39 2197.36 Q2089.39 2200.38 2090.87 2202.15 Q2092.38 2203.9 2094.94 2203.9 Q2097.49 2203.9 2098.98 2202.15 Q2100.48 2200.38 2100.48 2197.36 Q2100.48 2194.31 2098.98 2192.56 Q2097.49 2190.81 2094.94 2190.81 M2102.48 2178.91 L2102.48 2182.37 Q2101.05 2181.69 2099.58 2181.33 Q2098.13 2180.97 2096.7 2180.97 Q2092.94 2180.97 2090.95 2183.51 Q2088.97 2186.05 2088.69 2191.19 Q2089.8 2189.55 2091.48 2188.69 Q2093.15 2187.8 2095.16 2187.8 Q2099.39 2187.8 2101.84 2190.38 Q2104.3 2192.94 2104.3 2197.36 Q2104.3 2201.68 2101.74 2204.3 Q2099.19 2206.91 2094.94 2206.91 Q2090.07 2206.91 2087.49 2203.19 Q2084.91 2199.44 2084.91 2192.35 Q2084.91 2185.69 2088.07 2181.75 Q2091.23 2177.78 2096.55 2177.78 Q2097.98 2177.78 2099.43 2178.06 Q2100.9 2178.34 2102.48 2178.91 Z" fill="#000000" fill-rule="nonzero" fill-opacity="1" /><path clip-path="url(#clip120)" d="M2188.57 2229.84 L2196.21 2229.84 L2196.21 2203.47 L2187.9 2205.14 L2187.9 2200.88 L2196.17 2199.22 L2200.84 2199.22 L2200.84 2229.84 L2208.48 2229.84 L2208.48 2233.78 L2188.57 2233.78 L2188.57 2229.84 Z" fill="#000000" fill-rule="nonzero" fill-opacity="1" /><path clip-path="url(#clip120)" d="M2217.93 2227.9 L2222.81 2227.9 L2222.81 2233.78 L2217.93 2233.78 L2217.93 2227.9 Z" fill="#000000" fill-rule="nonzero" fill-opacity="1" /><path clip-path="url(#clip120)" d="M2233.04 2199.22 L2251.4 2199.22 L2251.4 2203.15 L2237.32 2203.15 L2237.32 2211.62 Q2238.34 2211.28 2239.36 2211.11 Q2240.38 2210.93 2241.4 2210.93 Q2247.18 2210.93 2250.56 2214.1 Q2253.94 2217.27 2253.94 2222.69 Q2253.94 2228.27 2250.47 2231.37 Q2247 2234.45 2240.68 2234.45 Q2238.5 2234.45 2236.24 2234.08 Q2233.99 2233.71 2231.58 2232.96 L2231.58 2228.27 Q2233.67 2229.4 2235.89 2229.96 Q2238.11 2230.51 2240.59 2230.51 Q2244.59 2230.51 2246.93 2228.4 Q2249.27 2226.3 2249.27 2222.69 Q2249.27 2219.08 2246.93 2216.97 Q2244.59 2214.86 2240.59 2214.86 Q2238.71 2214.86 2236.84 2215.28 Q2234.99 2215.7 2233.04 2216.58 L2233.04 2199.22 Z" fill="#000000" fill-rule="nonzero" fill-opacity="1" /><path clip-path="url(#clip120)" d="M2273.16 2202.29 Q2269.55 2202.29 2267.72 2205.86 Q2265.91 2209.4 2265.91 2216.53 Q2265.91 2223.64 2267.72 2227.2 Q2269.55 2230.74 2273.16 2230.74 Q2276.79 2230.74 2278.6 2227.2 Q2280.43 2223.64 2280.43 2216.53 Q2280.43 2209.4 2278.6 2205.86 Q2276.79 2202.29 2273.16 2202.29 M2273.16 2198.59 Q2278.97 2198.59 2282.02 2203.2 Q2285.1 2207.78 2285.1 2216.53 Q2285.1 2225.26 2282.02 2229.86 Q2278.97 2234.45 2273.16 2234.45 Q2267.35 2234.45 2264.27 2229.86 Q2261.21 2225.26 2261.21 2216.53 Q2261.21 2207.78 2264.27 2203.2 Q2267.35 2198.59 2273.16 2198.59 Z" fill="#000000" fill-rule="nonzero" fill-opacity="1" /><path clip-path="url(#clip120)" d="M2321.49 2208.31 L2310.91 2218.94 L2321.49 2229.52 L2318.74 2232.32 L2308.11 2221.69 L2297.49 2232.32 L2294.75 2229.52 L2305.31 2218.94 L2294.75 2208.31 L2297.49 2205.51 L2308.11 2216.14 L2318.74 2205.51 L2321.49 2208.31 Z" fill="#000000" fill-rule="nonzero" fill-opacity="1" /><path clip-path="url(#clip120)" d="M2333.85 2229.84 L2341.49 2229.84 L2341.49 2203.47 L2333.18 2205.14 L2333.18 2200.88 L2341.44 2199.22 L2346.12 2199.22 L2346.12 2229.84 L2353.76 2229.84 L2353.76 2233.78 L2333.85 2233.78 L2333.85 2229.84 Z" fill="#000000" fill-rule="nonzero" fill-opacity="1" /><path clip-path="url(#clip120)" d="M2373.2 2202.29 Q2369.59 2202.29 2367.76 2205.86 Q2365.96 2209.4 2365.96 2216.53 Q2365.96 2223.64 2367.76 2227.2 Q2369.59 2230.74 2373.2 2230.74 Q2376.84 2230.74 2378.64 2227.2 Q2380.47 2223.64 2380.47 2216.53 Q2380.47 2209.4 2378.64 2205.86 Q2376.84 2202.29 2373.2 2202.29 M2373.2 2198.59 Q2379.01 2198.59 2382.07 2203.2 Q2385.15 2207.78 2385.15 2216.53 Q2385.15 2225.26 2382.07 2229.86 Q2379.01 2234.45 2373.2 2234.45 Q2367.39 2234.45 2364.31 2229.86 Q2361.26 2225.26 2361.26 2216.53 Q2361.26 2207.78 2364.31 2203.2 Q2367.39 2198.59 2373.2 2198.59 Z" fill="#000000" fill-rule="nonzero" fill-opacity="1" /><path clip-path="url(#clip120)" d="M2395.17 2190.81 Q2392.61 2190.81 2391.11 2192.56 Q2389.62 2194.31 2389.62 2197.36 Q2389.62 2200.38 2391.11 2202.15 Q2392.61 2203.9 2395.17 2203.9 Q2397.73 2203.9 2399.22 2202.15 Q2400.72 2200.38 2400.72 2197.36 Q2400.72 2194.31 2399.22 2192.56 Q2397.73 2190.81 2395.17 2190.81 M2402.71 2178.91 L2402.71 2182.37 Q2401.28 2181.69 2399.82 2181.33 Q2398.37 2180.97 2396.94 2180.97 Q2393.18 2180.97 2391.18 2183.51 Q2389.21 2186.05 2388.93 2191.19 Q2390.04 2189.55 2391.71 2188.69 Q2393.38 2187.8 2395.4 2187.8 Q2399.63 2187.8 2402.07 2190.38 Q2404.54 2192.94 2404.54 2197.36 Q2404.54 2201.68 2401.98 2204.3 Q2399.42 2206.91 2395.17 2206.91 Q2390.3 2206.91 2387.72 2203.19 Q2385.15 2199.44 2385.15 2192.35 Q2385.15 2185.69 2388.31 2181.75 Q2391.47 2177.78 2396.79 2177.78 Q2398.22 2177.78 2399.67 2178.06 Q2401.13 2178.34 2402.71 2178.91 Z" fill="#000000" fill-rule="nonzero" fill-opacity="1" /><path clip-path="url(#clip120)" d="M1289.98 2271.48 L1296.89 2271.48 L1308.7 2289.15 L1320.57 2271.48 L1327.48 2271.48 L1312.2 2294.3 L1328.5 2319 L1321.59 2319 L1308.22 2298.79 L1294.76 2319 L1287.82 2319 L1304.78 2293.64 L1289.98 2271.48 Z" fill="#000000" fill-rule="nonzero" fill-opacity="1" /><path clip-path="url(#clip120)" d="M1371.46 2269.54 Q1367.2 2276.86 1365.13 2284.02 Q1363.06 2291.19 1363.06 2298.54 Q1363.06 2305.89 1365.13 2313.12 Q1367.23 2320.31 1371.46 2327.6 L1366.37 2327.6 Q1361.6 2320.12 1359.21 2312.89 Q1356.85 2305.67 1356.85 2298.54 Q1356.85 2291.44 1359.21 2284.25 Q1361.57 2277.05 1366.37 2269.54 L1371.46 2269.54 Z" fill="#000000" fill-rule="nonzero" fill-opacity="1" /><path clip-path="url(#clip120)" d="M1383.08 2271.48 L1389.51 2271.48 L1389.51 2291.57 L1410.84 2271.48 L1419.11 2271.48 L1395.53 2293.64 L1420.8 2319 L1412.33 2319 L1389.51 2296.12 L1389.51 2319 L1383.08 2319 L1383.08 2271.48 Z" fill="#000000" fill-rule="nonzero" fill-opacity="1" /><path clip-path="url(#clip120)" d="M1425.83 2271.48 L1435.41 2271.48 L1447.53 2303.82 L1459.72 2271.48 L1469.3 2271.48 L1469.3 2319 L1463.03 2319 L1463.03 2277.28 L1450.78 2309.87 L1444.32 2309.87 L1432.07 2277.28 L1432.07 2319 L1425.83 2319 L1425.83 2271.48 Z" fill="#000000" fill-rule="nonzero" fill-opacity="1" /><path clip-path="url(#clip120)" d="M1480.89 2269.54 L1485.98 2269.54 Q1490.76 2277.05 1493.11 2284.25 Q1495.5 2291.44 1495.5 2298.54 Q1495.5 2305.67 1493.11 2312.89 Q1490.76 2320.12 1485.98 2327.6 L1480.89 2327.6 Q1485.12 2320.31 1487.19 2313.12 Q1489.29 2305.89 1489.29 2298.54 Q1489.29 2291.19 1487.19 2284.02 Q1485.12 2276.86 1480.89 2269.54 Z" fill="#000000" fill-rule="nonzero" fill-opacity="1" /><polyline clip-path="url(#clip120)" style="stroke:#000000; stroke-linecap:round; stroke-linejoin:round; stroke-width:4; stroke-opacity:1; fill:none" points="430.562,2155.72 430.562,47.2441 "/>
<polyline clip-path="url(#clip120)" style="stroke:#000000; stroke-linecap:round; stroke-linejoin:round; stroke-width:4; stroke-opacity:1; fill:none" points="430.562,2105.73 449.46,2105.73 "/>
<polyline clip-path="url(#clip120)" style="stroke:#000000; stroke-linecap:round; stroke-linejoin:round; stroke-width:4; stroke-opacity:1; fill:none" points="430.562,1775.96 449.46,1775.96 "/>
<polyline clip-path="url(#clip120)" style="stroke:#000000; stroke-linecap:round; stroke-linejoin:round; stroke-width:4; stroke-opacity:1; fill:none" points="430.562,1446.18 449.46,1446.18 "/>
<polyline clip-path="url(#clip120)" style="stroke:#000000; stroke-linecap:round; stroke-linejoin:round; stroke-width:4; stroke-opacity:1; fill:none" points="430.562,1116.4 449.46,1116.4 "/>
<polyline clip-path="url(#clip120)" style="stroke:#000000; stroke-linecap:round; stroke-linejoin:round; stroke-width:4; stroke-opacity:1; fill:none" points="430.562,786.623 449.46,786.623 "/>
<polyline clip-path="url(#clip120)" style="stroke:#000000; stroke-linecap:round; stroke-linejoin:round; stroke-width:4; stroke-opacity:1; fill:none" points="430.562,456.845 449.46,456.845 "/>
<polyline clip-path="url(#clip120)" style="stroke:#000000; stroke-linecap:round; stroke-linejoin:round; stroke-width:4; stroke-opacity:1; fill:none" points="430.562,127.067 449.46,127.067 "/>
<path clip-path="url(#clip120)" d="M138.02 2112.63 L167.696 2112.63 L167.696 2116.57 L138.02 2116.57 L138.02 2112.63 Z" fill="#000000" fill-rule="nonzero" fill-opacity="1" /><path clip-path="url(#clip120)" d="M178.599 2125.53 L186.237 2125.53 L186.237 2099.16 L177.927 2100.83 L177.927 2096.57 L186.191 2094.9 L190.867 2094.9 L190.867 2125.53 L198.506 2125.53 L198.506 2129.46 L178.599 2129.46 L178.599 2125.53 Z" fill="#000000" fill-rule="nonzero" fill-opacity="1" /><path clip-path="url(#clip120)" d="M207.95 2123.58 L212.835 2123.58 L212.835 2129.46 L207.95 2129.46 L207.95 2123.58 Z" fill="#000000" fill-rule="nonzero" fill-opacity="1" /><path clip-path="url(#clip120)" d="M223.066 2094.9 L241.422 2094.9 L241.422 2098.84 L227.348 2098.84 L227.348 2107.31 Q228.367 2106.96 229.385 2106.8 Q230.404 2106.62 231.422 2106.62 Q237.209 2106.62 240.589 2109.79 Q243.969 2112.96 243.969 2118.37 Q243.969 2123.95 240.496 2127.05 Q237.024 2130.13 230.705 2130.13 Q228.529 2130.13 226.26 2129.76 Q224.015 2129.39 221.608 2128.65 L221.608 2123.95 Q223.691 2125.09 225.913 2125.64 Q228.135 2126.2 230.612 2126.2 Q234.617 2126.2 236.955 2124.09 Q239.293 2121.99 239.293 2118.37 Q239.293 2114.76 236.955 2112.66 Q234.617 2110.55 230.612 2110.55 Q228.737 2110.55 226.862 2110.97 Q225.01 2111.38 223.066 2112.26 L223.066 2094.9 Z" fill="#000000" fill-rule="nonzero" fill-opacity="1" /><path clip-path="url(#clip120)" d="M263.182 2097.98 Q259.57 2097.98 257.742 2101.55 Q255.936 2105.09 255.936 2112.22 Q255.936 2119.32 257.742 2122.89 Q259.57 2126.43 263.182 2126.43 Q266.816 2126.43 268.621 2122.89 Q270.45 2119.32 270.45 2112.22 Q270.45 2105.09 268.621 2101.55 Q266.816 2097.98 263.182 2097.98 M263.182 2094.28 Q268.992 2094.28 272.047 2098.88 Q275.126 2103.47 275.126 2112.22 Q275.126 2120.94 272.047 2125.55 Q268.992 2130.13 263.182 2130.13 Q257.371 2130.13 254.293 2125.55 Q251.237 2120.94 251.237 2112.22 Q251.237 2103.47 254.293 2098.88 Q257.371 2094.28 263.182 2094.28 Z" fill="#000000" fill-rule="nonzero" fill-opacity="1" /><path clip-path="url(#clip120)" d="M311.515 2104 L300.936 2114.62 L311.515 2125.2 L308.76 2128 L298.135 2117.38 L287.51 2128 L284.779 2125.2 L295.334 2114.62 L284.779 2104 L287.51 2101.2 L298.135 2111.82 L308.76 2101.2 L311.515 2104 Z" fill="#000000" fill-rule="nonzero" fill-opacity="1" /><path clip-path="url(#clip120)" d="M323.876 2125.53 L331.514 2125.53 L331.514 2099.16 L323.204 2100.83 L323.204 2096.57 L331.468 2094.9 L336.144 2094.9 L336.144 2125.53 L343.783 2125.53 L343.783 2129.46 L323.876 2129.46 L323.876 2125.53 Z" fill="#000000" fill-rule="nonzero" fill-opacity="1" /><path clip-path="url(#clip120)" d="M363.227 2097.98 Q359.616 2097.98 357.787 2101.55 Q355.982 2105.09 355.982 2112.22 Q355.982 2119.32 357.787 2122.89 Q359.616 2126.43 363.227 2126.43 Q366.862 2126.43 368.667 2122.89 Q370.496 2119.32 370.496 2112.22 Q370.496 2105.09 368.667 2101.55 Q366.862 2097.98 363.227 2097.98 M363.227 2094.28 Q369.037 2094.28 372.093 2098.88 Q375.172 2103.47 375.172 2112.22 Q375.172 2120.94 372.093 2125.55 Q369.037 2130.13 363.227 2130.13 Q357.417 2130.13 354.338 2125.55 Q351.283 2120.94 351.283 2112.22 Q351.283 2103.47 354.338 2098.88 Q357.417 2094.28 363.227 2094.28 Z" fill="#000000" fill-rule="nonzero" fill-opacity="1" /><path clip-path="url(#clip120)" d="M385.196 2086.5 Q382.638 2086.5 381.134 2088.25 Q379.648 2090 379.648 2093.04 Q379.648 2096.07 381.134 2097.84 Q382.638 2099.59 385.196 2099.59 Q387.754 2099.59 389.24 2097.84 Q390.744 2096.07 390.744 2093.04 Q390.744 2090 389.24 2088.25 Q387.754 2086.5 385.196 2086.5 M392.738 2074.59 L392.738 2078.05 Q391.309 2077.38 389.842 2077.02 Q388.394 2076.66 386.964 2076.66 Q383.203 2076.66 381.209 2079.2 Q379.234 2081.74 378.952 2086.87 Q380.062 2085.24 381.736 2084.37 Q383.409 2083.49 385.422 2083.49 Q389.654 2083.49 392.099 2086.07 Q394.562 2088.62 394.562 2093.04 Q394.562 2097.37 392.005 2099.98 Q389.447 2102.6 385.196 2102.6 Q380.325 2102.6 377.748 2098.87 Q375.172 2095.13 375.172 2088.04 Q375.172 2081.38 378.331 2077.43 Q381.491 2073.46 386.814 2073.46 Q388.243 2073.46 389.691 2073.75 Q391.158 2074.03 392.738 2074.59 Z" fill="#000000" fill-rule="nonzero" fill-opacity="1" /><path clip-path="url(#clip120)" d="M138.02 1782.86 L167.696 1782.86 L167.696 1786.79 L138.02 1786.79 L138.02 1782.86 Z" fill="#000000" fill-rule="nonzero" fill-opacity="1" /><path clip-path="url(#clip120)" d="M178.599 1795.75 L186.237 1795.75 L186.237 1769.38 L177.927 1771.05 L177.927 1766.79 L186.191 1765.12 L190.867 1765.12 L190.867 1795.75 L198.506 1795.75 L198.506 1799.68 L178.599 1799.68 L178.599 1795.75 Z" fill="#000000" fill-rule="nonzero" fill-opacity="1" /><path clip-path="url(#clip120)" d="M207.95 1793.8 L212.835 1793.8 L212.835 1799.68 L207.95 1799.68 L207.95 1793.8 Z" fill="#000000" fill-rule="nonzero" fill-opacity="1" /><path clip-path="url(#clip120)" d="M233.02 1768.2 Q229.409 1768.2 227.58 1771.77 Q225.774 1775.31 225.774 1782.44 Q225.774 1789.55 227.58 1793.11 Q229.409 1796.65 233.02 1796.65 Q236.654 1796.65 238.459 1793.11 Q240.288 1789.55 240.288 1782.44 Q240.288 1775.31 238.459 1771.77 Q236.654 1768.2 233.02 1768.2 M233.02 1764.5 Q238.83 1764.5 241.885 1769.11 Q244.964 1773.69 244.964 1782.44 Q244.964 1791.17 241.885 1795.77 Q238.83 1800.36 233.02 1800.36 Q227.209 1800.36 224.131 1795.77 Q221.075 1791.17 221.075 1782.44 Q221.075 1773.69 224.131 1769.11 Q227.209 1764.5 233.02 1764.5 Z" fill="#000000" fill-rule="nonzero" fill-opacity="1" /><path clip-path="url(#clip120)" d="M263.182 1768.2 Q259.57 1768.2 257.742 1771.77 Q255.936 1775.31 255.936 1782.44 Q255.936 1789.55 257.742 1793.11 Q259.57 1796.65 263.182 1796.65 Q266.816 1796.65 268.621 1793.11 Q270.45 1789.55 270.45 1782.44 Q270.45 1775.31 268.621 1771.77 Q266.816 1768.2 263.182 1768.2 M263.182 1764.5 Q268.992 1764.5 272.047 1769.11 Q275.126 1773.69 275.126 1782.44 Q275.126 1791.17 272.047 1795.77 Q268.992 1800.36 263.182 1800.36 Q257.371 1800.36 254.293 1795.77 Q251.237 1791.17 251.237 1782.44 Q251.237 1773.69 254.293 1769.11 Q257.371 1764.5 263.182 1764.5 Z" fill="#000000" fill-rule="nonzero" fill-opacity="1" /><path clip-path="url(#clip120)" d="M311.515 1774.22 L300.936 1784.85 L311.515 1795.43 L308.76 1798.23 L298.135 1787.6 L287.51 1798.23 L284.779 1795.43 L295.334 1784.85 L284.779 1774.22 L287.51 1771.42 L298.135 1782.05 L308.76 1771.42 L311.515 1774.22 Z" fill="#000000" fill-rule="nonzero" fill-opacity="1" /><path clip-path="url(#clip120)" d="M323.876 1795.75 L331.514 1795.75 L331.514 1769.38 L323.204 1771.05 L323.204 1766.79 L331.468 1765.12 L336.144 1765.12 L336.144 1795.75 L343.783 1795.75 L343.783 1799.68 L323.876 1799.68 L323.876 1795.75 Z" fill="#000000" fill-rule="nonzero" fill-opacity="1" /><path clip-path="url(#clip120)" d="M363.227 1768.2 Q359.616 1768.2 357.787 1771.77 Q355.982 1775.31 355.982 1782.44 Q355.982 1789.55 357.787 1793.11 Q359.616 1796.65 363.227 1796.65 Q366.862 1796.65 368.667 1793.11 Q370.496 1789.55 370.496 1782.44 Q370.496 1775.31 368.667 1771.77 Q366.862 1768.2 363.227 1768.2 M363.227 1764.5 Q369.037 1764.5 372.093 1769.11 Q375.172 1773.69 375.172 1782.44 Q375.172 1791.17 372.093 1795.77 Q369.037 1800.36 363.227 1800.36 Q357.417 1800.36 354.338 1795.77 Q351.283 1791.17 351.283 1782.44 Q351.283 1773.69 354.338 1769.11 Q357.417 1764.5 363.227 1764.5 Z" fill="#000000" fill-rule="nonzero" fill-opacity="1" /><path clip-path="url(#clip120)" d="M385.196 1756.72 Q382.638 1756.72 381.134 1758.47 Q379.648 1760.22 379.648 1763.26 Q379.648 1766.29 381.134 1768.06 Q382.638 1769.81 385.196 1769.81 Q387.754 1769.81 389.24 1768.06 Q390.744 1766.29 390.744 1763.26 Q390.744 1760.22 389.24 1758.47 Q387.754 1756.72 385.196 1756.72 M392.738 1744.81 L392.738 1748.28 Q391.309 1747.6 389.842 1747.24 Q388.394 1746.88 386.964 1746.88 Q383.203 1746.88 381.209 1749.42 Q379.234 1751.96 378.952 1757.1 Q380.062 1755.46 381.736 1754.59 Q383.409 1753.71 385.422 1753.71 Q389.654 1753.71 392.099 1756.29 Q394.562 1758.85 394.562 1763.26 Q394.562 1767.59 392.005 1770.21 Q389.447 1772.82 385.196 1772.82 Q380.325 1772.82 377.748 1769.1 Q375.172 1765.35 375.172 1758.26 Q375.172 1751.6 378.331 1747.65 Q381.491 1743.69 386.814 1743.69 Q388.243 1743.69 389.691 1743.97 Q391.158 1744.25 392.738 1744.81 Z" fill="#000000" fill-rule="nonzero" fill-opacity="1" /><path clip-path="url(#clip120)" d="M139.243 1453.08 L168.918 1453.08 L168.918 1457.01 L139.243 1457.01 L139.243 1453.08 Z" fill="#000000" fill-rule="nonzero" fill-opacity="1" /><path clip-path="url(#clip120)" d="M179.057 1435.35 L197.414 1435.35 L197.414 1439.28 L183.34 1439.28 L183.34 1447.75 Q184.358 1447.41 185.377 1447.24 Q186.395 1447.06 187.414 1447.06 Q193.201 1447.06 196.58 1450.23 Q199.96 1453.4 199.96 1458.82 Q199.96 1464.4 196.488 1467.5 Q193.016 1470.58 186.696 1470.58 Q184.52 1470.58 182.252 1470.21 Q180.006 1469.84 177.599 1469.1 L177.599 1464.4 Q179.682 1465.53 181.904 1466.09 Q184.127 1466.64 186.604 1466.64 Q190.608 1466.64 192.946 1464.54 Q195.284 1462.43 195.284 1458.82 Q195.284 1455.21 192.946 1453.1 Q190.608 1450.99 186.604 1450.99 Q184.729 1450.99 182.854 1451.41 Q181.002 1451.83 179.057 1452.71 L179.057 1435.35 Z" fill="#000000" fill-rule="nonzero" fill-opacity="1" /><path clip-path="url(#clip120)" d="M209.173 1464.03 L214.057 1464.03 L214.057 1469.91 L209.173 1469.91 L209.173 1464.03 Z" fill="#000000" fill-rule="nonzero" fill-opacity="1" /><path clip-path="url(#clip120)" d="M234.242 1438.43 Q230.631 1438.43 228.802 1441.99 Q226.997 1445.53 226.997 1452.66 Q226.997 1459.77 228.802 1463.33 Q230.631 1466.87 234.242 1466.87 Q237.876 1466.87 239.682 1463.33 Q241.511 1459.77 241.511 1452.66 Q241.511 1445.53 239.682 1441.99 Q237.876 1438.43 234.242 1438.43 M234.242 1434.72 Q240.052 1434.72 243.108 1439.33 Q246.187 1443.91 246.187 1452.66 Q246.187 1461.39 243.108 1465.99 Q240.052 1470.58 234.242 1470.58 Q228.432 1470.58 225.353 1465.99 Q222.298 1461.39 222.298 1452.66 Q222.298 1443.91 225.353 1439.33 Q228.432 1434.72 234.242 1434.72 Z" fill="#000000" fill-rule="nonzero" fill-opacity="1" /><path clip-path="url(#clip120)" d="M264.404 1438.43 Q260.793 1438.43 258.964 1441.99 Q257.159 1445.53 257.159 1452.66 Q257.159 1459.77 258.964 1463.33 Q260.793 1466.87 264.404 1466.87 Q268.038 1466.87 269.844 1463.33 Q271.673 1459.77 271.673 1452.66 Q271.673 1445.53 269.844 1441.99 Q268.038 1438.43 264.404 1438.43 M264.404 1434.72 Q270.214 1434.72 273.27 1439.33 Q276.348 1443.91 276.348 1452.66 Q276.348 1461.39 273.27 1465.99 Q270.214 1470.58 264.404 1470.58 Q258.594 1470.58 255.515 1465.99 Q252.46 1461.39 252.46 1452.66 Q252.46 1443.91 255.515 1439.33 Q258.594 1434.72 264.404 1434.72 Z" fill="#000000" fill-rule="nonzero" fill-opacity="1" /><path clip-path="url(#clip120)" d="M312.737 1444.44 L302.158 1455.07 L312.737 1465.65 L309.982 1468.45 L299.358 1457.82 L288.733 1468.45 L286.001 1465.65 L296.557 1455.07 L286.001 1444.44 L288.733 1441.64 L299.358 1452.27 L309.982 1441.64 L312.737 1444.44 Z" fill="#000000" fill-rule="nonzero" fill-opacity="1" /><path clip-path="url(#clip120)" d="M325.098 1465.97 L332.737 1465.97 L332.737 1439.61 L324.427 1441.27 L324.427 1437.01 L332.691 1435.35 L337.367 1435.35 L337.367 1465.97 L345.005 1465.97 L345.005 1469.91 L325.098 1469.91 L325.098 1465.97 Z" fill="#000000" fill-rule="nonzero" fill-opacity="1" /><path clip-path="url(#clip120)" d="M364.45 1438.43 Q360.839 1438.43 359.01 1441.99 Q357.204 1445.53 357.204 1452.66 Q357.204 1459.77 359.01 1463.33 Q360.839 1466.87 364.45 1466.87 Q368.084 1466.87 369.89 1463.33 Q371.718 1459.77 371.718 1452.66 Q371.718 1445.53 369.89 1441.99 Q368.084 1438.43 364.45 1438.43 M364.45 1434.72 Q370.26 1434.72 373.315 1439.33 Q376.394 1443.91 376.394 1452.66 Q376.394 1461.39 373.315 1465.99 Q370.26 1470.58 364.45 1470.58 Q358.64 1470.58 355.561 1465.99 Q352.505 1461.39 352.505 1452.66 Q352.505 1443.91 355.561 1439.33 Q358.64 1434.72 364.45 1434.72 Z" fill="#000000" fill-rule="nonzero" fill-opacity="1" /><path clip-path="url(#clip120)" d="M377.579 1414.42 L392.494 1414.42 L392.494 1417.61 L381.058 1417.61 L381.058 1424.5 Q381.886 1424.21 382.714 1424.08 Q383.541 1423.93 384.369 1423.93 Q389.071 1423.93 391.817 1426.51 Q394.562 1429.09 394.562 1433.49 Q394.562 1438.02 391.741 1440.54 Q388.92 1443.04 383.786 1443.04 Q382.018 1443.04 380.175 1442.74 Q378.35 1442.44 376.394 1441.84 L376.394 1438.02 Q378.087 1438.94 379.892 1439.39 Q381.698 1439.84 383.71 1439.84 Q386.964 1439.84 388.864 1438.13 Q390.763 1436.42 390.763 1433.49 Q390.763 1430.55 388.864 1428.84 Q386.964 1427.13 383.71 1427.13 Q382.187 1427.13 380.664 1427.47 Q379.159 1427.81 377.579 1428.52 L377.579 1414.42 Z" fill="#000000" fill-rule="nonzero" fill-opacity="1" /><path clip-path="url(#clip120)" d="M382.618 1102.2 Q379.007 1102.2 377.178 1105.76 Q375.373 1109.31 375.373 1116.44 Q375.373 1123.54 377.178 1127.11 Q379.007 1130.65 382.618 1130.65 Q386.252 1130.65 388.058 1127.11 Q389.887 1123.54 389.887 1116.44 Q389.887 1109.31 388.058 1105.76 Q386.252 1102.2 382.618 1102.2 M382.618 1098.5 Q388.428 1098.5 391.484 1103.1 Q394.562 1107.69 394.562 1116.44 Q394.562 1125.16 391.484 1129.77 Q388.428 1134.35 382.618 1134.35 Q376.808 1134.35 373.729 1129.77 Q370.674 1125.16 370.674 1116.44 Q370.674 1107.69 373.729 1103.1 Q376.808 1098.5 382.618 1098.5 Z" fill="#000000" fill-rule="nonzero" fill-opacity="1" /><path clip-path="url(#clip120)" d="M179.057 775.79 L197.414 775.79 L197.414 779.726 L183.34 779.726 L183.34 788.198 Q184.358 787.85 185.377 787.688 Q186.395 787.503 187.414 787.503 Q193.201 787.503 196.58 790.675 Q199.96 793.846 199.96 799.262 Q199.96 804.841 196.488 807.943 Q193.016 811.022 186.696 811.022 Q184.52 811.022 182.252 810.651 Q180.006 810.281 177.599 809.54 L177.599 804.841 Q179.682 805.975 181.904 806.531 Q184.127 807.087 186.604 807.087 Q190.608 807.087 192.946 804.98 Q195.284 802.874 195.284 799.262 Q195.284 795.651 192.946 793.545 Q190.608 791.438 186.604 791.438 Q184.729 791.438 182.854 791.855 Q181.002 792.272 179.057 793.151 L179.057 775.79 Z" fill="#000000" fill-rule="nonzero" fill-opacity="1" /><path clip-path="url(#clip120)" d="M209.173 804.471 L214.057 804.471 L214.057 810.35 L209.173 810.35 L209.173 804.471 Z" fill="#000000" fill-rule="nonzero" fill-opacity="1" /><path clip-path="url(#clip120)" d="M234.242 778.869 Q230.631 778.869 228.802 782.434 Q226.997 785.976 226.997 793.105 Q226.997 800.212 228.802 803.776 Q230.631 807.318 234.242 807.318 Q237.876 807.318 239.682 803.776 Q241.511 800.212 241.511 793.105 Q241.511 785.976 239.682 782.434 Q237.876 778.869 234.242 778.869 M234.242 775.165 Q240.052 775.165 243.108 779.772 Q246.187 784.355 246.187 793.105 Q246.187 801.832 243.108 806.438 Q240.052 811.022 234.242 811.022 Q228.432 811.022 225.353 806.438 Q222.298 801.832 222.298 793.105 Q222.298 784.355 225.353 779.772 Q228.432 775.165 234.242 775.165 Z" fill="#000000" fill-rule="nonzero" fill-opacity="1" /><path clip-path="url(#clip120)" d="M264.404 778.869 Q260.793 778.869 258.964 782.434 Q257.159 785.976 257.159 793.105 Q257.159 800.212 258.964 803.776 Q260.793 807.318 264.404 807.318 Q268.038 807.318 269.844 803.776 Q271.673 800.212 271.673 793.105 Q271.673 785.976 269.844 782.434 Q268.038 778.869 264.404 778.869 M264.404 775.165 Q270.214 775.165 273.27 779.772 Q276.348 784.355 276.348 793.105 Q276.348 801.832 273.27 806.438 Q270.214 811.022 264.404 811.022 Q258.594 811.022 255.515 806.438 Q252.46 801.832 252.46 793.105 Q252.46 784.355 255.515 779.772 Q258.594 775.165 264.404 775.165 Z" fill="#000000" fill-rule="nonzero" fill-opacity="1" /><path clip-path="url(#clip120)" d="M312.737 784.888 L302.158 795.512 L312.737 806.091 L309.982 808.892 L299.358 798.267 L288.733 808.892 L286.001 806.091 L296.557 795.512 L286.001 784.888 L288.733 782.087 L299.358 792.712 L309.982 782.087 L312.737 784.888 Z" fill="#000000" fill-rule="nonzero" fill-opacity="1" /><path clip-path="url(#clip120)" d="M325.098 806.415 L332.737 806.415 L332.737 780.05 L324.427 781.716 L324.427 777.457 L332.691 775.79 L337.367 775.79 L337.367 806.415 L345.005 806.415 L345.005 810.35 L325.098 810.35 L325.098 806.415 Z" fill="#000000" fill-rule="nonzero" fill-opacity="1" /><path clip-path="url(#clip120)" d="M364.45 778.869 Q360.839 778.869 359.01 782.434 Q357.204 785.976 357.204 793.105 Q357.204 800.212 359.01 803.776 Q360.839 807.318 364.45 807.318 Q368.084 807.318 369.89 803.776 Q371.718 800.212 371.718 793.105 Q371.718 785.976 369.89 782.434 Q368.084 778.869 364.45 778.869 M364.45 775.165 Q370.26 775.165 373.315 779.772 Q376.394 784.355 376.394 793.105 Q376.394 801.832 373.315 806.438 Q370.26 811.022 364.45 811.022 Q358.64 811.022 355.561 806.438 Q352.505 801.832 352.505 793.105 Q352.505 784.355 355.561 779.772 Q358.64 775.165 364.45 775.165 Z" fill="#000000" fill-rule="nonzero" fill-opacity="1" /><path clip-path="url(#clip120)" d="M377.579 754.86 L392.494 754.86 L392.494 758.057 L381.058 758.057 L381.058 764.941 Q381.886 764.659 382.714 764.527 Q383.541 764.377 384.369 764.377 Q389.071 764.377 391.817 766.953 Q394.562 769.53 394.562 773.931 Q394.562 778.464 391.741 780.984 Q388.92 783.485 383.786 783.485 Q382.018 783.485 380.175 783.184 Q378.35 782.884 376.394 782.282 L376.394 778.464 Q378.087 779.385 379.892 779.837 Q381.698 780.288 383.71 780.288 Q386.964 780.288 388.864 778.577 Q390.763 776.865 390.763 773.931 Q390.763 770.997 388.864 769.286 Q386.964 767.574 383.71 767.574 Q382.187 767.574 380.664 767.913 Q379.159 768.251 377.579 768.966 L377.579 754.86 Z" fill="#000000" fill-rule="nonzero" fill-opacity="1" /><path clip-path="url(#clip120)" d="M178.599 476.637 L186.237 476.637 L186.237 450.272 L177.927 451.938 L177.927 447.679 L186.191 446.012 L190.867 446.012 L190.867 476.637 L198.506 476.637 L198.506 480.572 L178.599 480.572 L178.599 476.637 Z" fill="#000000" fill-rule="nonzero" fill-opacity="1" /><path clip-path="url(#clip120)" d="M207.95 474.693 L212.835 474.693 L212.835 480.572 L207.95 480.572 L207.95 474.693 Z" fill="#000000" fill-rule="nonzero" fill-opacity="1" /><path clip-path="url(#clip120)" d="M233.02 449.091 Q229.409 449.091 227.58 452.656 Q225.774 456.198 225.774 463.327 Q225.774 470.434 227.58 473.998 Q229.409 477.54 233.02 477.54 Q236.654 477.54 238.459 473.998 Q240.288 470.434 240.288 463.327 Q240.288 456.198 238.459 452.656 Q236.654 449.091 233.02 449.091 M233.02 445.387 Q238.83 445.387 241.885 449.994 Q244.964 454.577 244.964 463.327 Q244.964 472.054 241.885 476.66 Q238.83 481.244 233.02 481.244 Q227.209 481.244 224.131 476.66 Q221.075 472.054 221.075 463.327 Q221.075 454.577 224.131 449.994 Q227.209 445.387 233.02 445.387 Z" fill="#000000" fill-rule="nonzero" fill-opacity="1" /><path clip-path="url(#clip120)" d="M263.182 449.091 Q259.57 449.091 257.742 452.656 Q255.936 456.198 255.936 463.327 Q255.936 470.434 257.742 473.998 Q259.57 477.54 263.182 477.54 Q266.816 477.54 268.621 473.998 Q270.45 470.434 270.45 463.327 Q270.45 456.198 268.621 452.656 Q266.816 449.091 263.182 449.091 M263.182 445.387 Q268.992 445.387 272.047 449.994 Q275.126 454.577 275.126 463.327 Q275.126 472.054 272.047 476.66 Q268.992 481.244 263.182 481.244 Q257.371 481.244 254.293 476.66 Q251.237 472.054 251.237 463.327 Q251.237 454.577 254.293 449.994 Q257.371 445.387 263.182 445.387 Z" fill="#000000" fill-rule="nonzero" fill-opacity="1" /><path clip-path="url(#clip120)" d="M311.515 455.11 L300.936 465.735 L311.515 476.313 L308.76 479.114 L298.135 468.489 L287.51 479.114 L284.779 476.313 L295.334 465.735 L284.779 455.11 L287.51 452.309 L298.135 462.934 L308.76 452.309 L311.515 455.11 Z" fill="#000000" fill-rule="nonzero" fill-opacity="1" /><path clip-path="url(#clip120)" d="M323.876 476.637 L331.514 476.637 L331.514 450.272 L323.204 451.938 L323.204 447.679 L331.468 446.012 L336.144 446.012 L336.144 476.637 L343.783 476.637 L343.783 480.572 L323.876 480.572 L323.876 476.637 Z" fill="#000000" fill-rule="nonzero" fill-opacity="1" /><path clip-path="url(#clip120)" d="M363.227 449.091 Q359.616 449.091 357.787 452.656 Q355.982 456.198 355.982 463.327 Q355.982 470.434 357.787 473.998 Q359.616 477.54 363.227 477.54 Q366.862 477.54 368.667 473.998 Q370.496 470.434 370.496 463.327 Q370.496 456.198 368.667 452.656 Q366.862 449.091 363.227 449.091 M363.227 445.387 Q369.037 445.387 372.093 449.994 Q375.172 454.577 375.172 463.327 Q375.172 472.054 372.093 476.66 Q369.037 481.244 363.227 481.244 Q357.417 481.244 354.338 476.66 Q351.283 472.054 351.283 463.327 Q351.283 454.577 354.338 449.994 Q357.417 445.387 363.227 445.387 Z" fill="#000000" fill-rule="nonzero" fill-opacity="1" /><path clip-path="url(#clip120)" d="M385.196 437.608 Q382.638 437.608 381.134 439.357 Q379.648 441.106 379.648 444.153 Q379.648 447.181 381.134 448.949 Q382.638 450.698 385.196 450.698 Q387.754 450.698 389.24 448.949 Q390.744 447.181 390.744 444.153 Q390.744 441.106 389.24 439.357 Q387.754 437.608 385.196 437.608 M392.738 425.703 L392.738 429.163 Q391.309 428.486 389.842 428.129 Q388.394 427.772 386.964 427.772 Q383.203 427.772 381.209 430.311 Q379.234 432.85 378.952 437.984 Q380.062 436.348 381.736 435.483 Q383.409 434.599 385.422 434.599 Q389.654 434.599 392.099 437.175 Q394.562 439.733 394.562 444.153 Q394.562 448.479 392.005 451.093 Q389.447 453.707 385.196 453.707 Q380.325 453.707 377.748 449.983 Q375.172 446.241 375.172 439.15 Q375.172 432.492 378.331 428.543 Q381.491 424.574 386.814 424.574 Q388.243 424.574 389.691 424.856 Q391.158 425.138 392.738 425.703 Z" fill="#000000" fill-rule="nonzero" fill-opacity="1" /><path clip-path="url(#clip120)" d="M178.599 146.859 L186.237 146.859 L186.237 120.494 L177.927 122.16 L177.927 117.901 L186.191 116.234 L190.867 116.234 L190.867 146.859 L198.506 146.859 L198.506 150.794 L178.599 150.794 L178.599 146.859 Z" fill="#000000" fill-rule="nonzero" fill-opacity="1" /><path clip-path="url(#clip120)" d="M207.95 144.915 L212.835 144.915 L212.835 150.794 L207.95 150.794 L207.95 144.915 Z" fill="#000000" fill-rule="nonzero" fill-opacity="1" /><path clip-path="url(#clip120)" d="M223.066 116.234 L241.422 116.234 L241.422 120.17 L227.348 120.17 L227.348 128.642 Q228.367 128.295 229.385 128.133 Q230.404 127.947 231.422 127.947 Q237.209 127.947 240.589 131.119 Q243.969 134.29 243.969 139.707 Q243.969 145.285 240.496 148.387 Q237.024 151.466 230.705 151.466 Q228.529 151.466 226.26 151.095 Q224.015 150.725 221.608 149.984 L221.608 145.285 Q223.691 146.419 225.913 146.975 Q228.135 147.531 230.612 147.531 Q234.617 147.531 236.955 145.424 Q239.293 143.318 239.293 139.707 Q239.293 136.095 236.955 133.989 Q234.617 131.883 230.612 131.883 Q228.737 131.883 226.862 132.299 Q225.01 132.716 223.066 133.595 L223.066 116.234 Z" fill="#000000" fill-rule="nonzero" fill-opacity="1" /><path clip-path="url(#clip120)" d="M263.182 119.313 Q259.57 119.313 257.742 122.878 Q255.936 126.42 255.936 133.549 Q255.936 140.656 257.742 144.22 Q259.57 147.762 263.182 147.762 Q266.816 147.762 268.621 144.22 Q270.45 140.656 270.45 133.549 Q270.45 126.42 268.621 122.878 Q266.816 119.313 263.182 119.313 M263.182 115.609 Q268.992 115.609 272.047 120.216 Q275.126 124.799 275.126 133.549 Q275.126 142.276 272.047 146.882 Q268.992 151.466 263.182 151.466 Q257.371 151.466 254.293 146.882 Q251.237 142.276 251.237 133.549 Q251.237 124.799 254.293 120.216 Q257.371 115.609 263.182 115.609 Z" fill="#000000" fill-rule="nonzero" fill-opacity="1" /><path clip-path="url(#clip120)" d="M311.515 125.332 L300.936 135.957 L311.515 146.535 L308.76 149.336 L298.135 138.711 L287.51 149.336 L284.779 146.535 L295.334 135.957 L284.779 125.332 L287.51 122.531 L298.135 133.156 L308.76 122.531 L311.515 125.332 Z" fill="#000000" fill-rule="nonzero" fill-opacity="1" /><path clip-path="url(#clip120)" d="M323.876 146.859 L331.514 146.859 L331.514 120.494 L323.204 122.16 L323.204 117.901 L331.468 116.234 L336.144 116.234 L336.144 146.859 L343.783 146.859 L343.783 150.794 L323.876 150.794 L323.876 146.859 Z" fill="#000000" fill-rule="nonzero" fill-opacity="1" /><path clip-path="url(#clip120)" d="M363.227 119.313 Q359.616 119.313 357.787 122.878 Q355.982 126.42 355.982 133.549 Q355.982 140.656 357.787 144.22 Q359.616 147.762 363.227 147.762 Q366.862 147.762 368.667 144.22 Q370.496 140.656 370.496 133.549 Q370.496 126.42 368.667 122.878 Q366.862 119.313 363.227 119.313 M363.227 115.609 Q369.037 115.609 372.093 120.216 Q375.172 124.799 375.172 133.549 Q375.172 142.276 372.093 146.882 Q369.037 151.466 363.227 151.466 Q357.417 151.466 354.338 146.882 Q351.283 142.276 351.283 133.549 Q351.283 124.799 354.338 120.216 Q357.417 115.609 363.227 115.609 Z" fill="#000000" fill-rule="nonzero" fill-opacity="1" /><path clip-path="url(#clip120)" d="M385.196 107.83 Q382.638 107.83 381.134 109.579 Q379.648 111.328 379.648 114.375 Q379.648 117.403 381.134 119.171 Q382.638 120.92 385.196 120.92 Q387.754 120.92 389.24 119.171 Q390.744 117.403 390.744 114.375 Q390.744 111.328 389.24 109.579 Q387.754 107.83 385.196 107.83 M392.738 95.9247 L392.738 99.3853 Q391.309 98.7082 389.842 98.3509 Q388.394 97.9936 386.964 97.9936 Q383.203 97.9936 381.209 100.533 Q379.234 103.072 378.952 108.206 Q380.062 106.57 381.736 105.705 Q383.409 104.821 385.422 104.821 Q389.654 104.821 392.099 107.397 Q394.562 109.955 394.562 114.375 Q394.562 118.701 392.005 121.315 Q389.447 123.929 385.196 123.929 Q380.325 123.929 377.748 120.206 Q375.172 116.463 375.172 109.372 Q375.172 102.714 378.331 98.7647 Q381.491 94.7962 386.814 94.7962 Q388.243 94.7962 389.691 95.0783 Q391.158 95.3605 392.738 95.9247 Z" fill="#000000" fill-rule="nonzero" fill-opacity="1" /><path clip-path="url(#clip120)" d="M40.2442 1203.94 L40.2442 1197.03 L59.7869 1183.85 L40.2442 1170.77 L40.2442 1163.86 L65.1341 1180.67 L87.7642 1180.67 L87.7642 1187.13 L65.1341 1187.13 L40.2442 1203.94 Z" fill="#000000" fill-rule="nonzero" fill-opacity="1" /><path clip-path="url(#clip120)" d="M38.3026 1123.06 Q45.6232 1127.32 52.7846 1129.39 Q59.946 1131.46 67.2984 1131.46 Q74.6508 1131.46 81.8759 1129.39 Q89.0691 1127.29 96.3579 1123.06 L96.3579 1128.15 Q88.8782 1132.93 81.6531 1135.31 Q74.428 1137.67 67.2984 1137.67 Q60.2006 1137.67 53.0074 1135.31 Q45.8142 1132.96 38.3026 1128.15 L38.3026 1123.06 Z" fill="#000000" fill-rule="nonzero" fill-opacity="1" /><path clip-path="url(#clip120)" d="M40.2442 1111.44 L40.2442 1105.01 L60.328 1105.01 L40.2442 1083.69 L40.2442 1075.41 L62.3968 1099 L87.7642 1073.73 L87.7642 1082.19 L64.8794 1105.01 L87.7642 1105.01 L87.7642 1111.44 L40.2442 1111.44 Z" fill="#000000" fill-rule="nonzero" fill-opacity="1" /><path clip-path="url(#clip120)" d="M40.2442 1068.7 L40.2442 1059.12 L72.5819 1046.99 L40.2442 1034.8 L40.2442 1025.22 L87.7642 1025.22 L87.7642 1031.49 L46.037 1031.49 L78.6294 1043.74 L78.6294 1050.2 L46.037 1062.46 L87.7642 1062.46 L87.7642 1068.7 L40.2442 1068.7 Z" fill="#000000" fill-rule="nonzero" fill-opacity="1" /><path clip-path="url(#clip120)" d="M38.3026 1013.63 L38.3026 1008.54 Q45.8142 1003.77 53.0074 1001.41 Q60.2006 999.024 67.2984 999.024 Q74.428 999.024 81.6531 1001.41 Q88.8782 1003.77 96.3579 1008.54 L96.3579 1013.63 Q89.0691 1009.4 81.8759 1007.33 Q74.6508 1005.23 67.2984 1005.23 Q59.946 1005.23 52.7846 1007.33 Q45.6232 1009.4 38.3026 1013.63 Z" fill="#000000" fill-rule="nonzero" fill-opacity="1" /><polyline clip-path="url(#clip122)" style="stroke:#1f83ff; stroke-linecap:round; stroke-linejoin:round; stroke-width:4; stroke-opacity:1; fill:none" points="496.822,946.305 494,963.405 491.507,980.704 489.376,998.179 487.642,1015.79 486.328,1033.5 485.446,1051.26 484.996,1069 484.964,1086.68 485.325,1104.25 486.047,1121.69 487.093,1138.96 488.428,1156.06 490.015,1172.99 491.826,1189.75 493.832,1206.36 496.011,1222.83 498.345,1239.18 500.823,1255.44 503.436,1271.63 506.183,1287.78 509.065,1303.91 512.091,1320.04 515.273,1336.19 518.627,1352.4 522.176,1368.66 525.943,1384.99 529.957,1401.39 534.248,1417.87 538.848,1434.41 543.789,1451 549.101,1467.6 554.81,1484.18 560.931,1500.7 567.469,1517.09 574.416,1533.31 581.75,1549.3 589.438,1565.03 597.442,1580.47 605.721,1595.6 614.235,1610.42 622.947,1624.94 631.826,1639.16 640.845,1653.1 649.985,1666.79 659.229,1680.24 668.566,1693.49 677.992,1706.56 687.506,1719.47 697.111,1732.25 706.819,1744.93 716.642,1757.51 726.599,1770.03 736.713,1782.48 747.008,1794.89 757.514,1807.24 768.258,1819.54 779.269,1831.76 790.573,1843.89 802.195,1855.88 814.149,1867.71 826.444,1879.32 839.075,1890.66 852.026,1901.69 865.27,1912.36 878.768,1922.64 892.478,1932.51 906.356,1941.95 920.36,1950.98 934.452,1959.6 948.601,1967.83 962.783,1975.7 976.977,1983.23 991.171,1990.44 1005.36,1997.37 1019.53,2004.05 1033.69,2010.49 1047.85,2016.74 1062.02,2022.79 1076.21,2028.69 1090.44,2034.45 1104.74,2040.06 1119.14,2045.55 1133.66,2050.91 1148.32,2056.11 1163.17,2061.15 1178.21,2065.99 1193.46,2070.61 1208.93,2074.95 1224.62,2078.97 1240.52,2082.64 1256.6,2085.91 1272.82,2088.74 1289.16,2091.11 1305.55,2093.01 1321.97,2094.44 1338.37,2095.41 1354.71,2095.94 1370.97,2096.04 1387.11,2095.76 1403.13,2095.11 1419.02,2094.14 1434.76,2092.87 1450.36,2091.33 1465.82,2089.55 1481.15,2087.56 1496.37,2085.38 1511.49,2083.03 1526.54,2080.52 1541.54,2077.87 1556.52,2075.08 1571.51,2072.13 1586.54,2069.02 1601.63,2065.72 1616.8,2062.19 1632.05,2058.4 1647.39,2054.31 1662.8,2049.87 1678.27,2045.05 1693.76,2039.83 1709.24,2034.16 1724.66,2028.05 1739.99,2021.49 1755.19,2014.48 1770.21,2007.05 1785.03,1999.22 1799.61,1991.02 1813.95,1982.48 1828.02,1973.63 1841.82,1964.51 1855.35,1955.16 1868.61,1945.6 1881.62,1935.87 1894.38,1925.99 1906.91,1915.98 1919.24,1905.87 1931.38,1895.67 1943.37,1885.38 1955.23,1875.01 1967.01,1864.54 1978.72,1853.97 1990.39,1843.24 2002.03,1832.34 2013.64,1821.21 2025.21,1809.83 2036.74,1798.14 2048.18,1786.13 2059.51,1773.77 2070.69,1761.05 2081.68,1747.97 2092.44,1734.53 2102.93,1720.74 2113.13,1706.64 2123.01,1692.26 2132.54,1677.61 2141.72,1662.75 2150.53,1647.71 2158.98,1632.52 2167.07,1617.22 2174.81,1601.84 2182.21,1586.41 2189.29,1570.95 2196.07,1555.5 2202.58,1540.05 2208.84,1524.64 2214.88,1509.25 2220.74,1493.9 2226.45,1478.56 2232.04,1463.21 2237.52,1447.81 2242.91,1432.34 2248.2,1416.74 2253.39,1400.97 2258.44,1385.01 2263.32,1368.83 2268.01,1352.41 2272.46,1335.75 2276.63,1318.87 2280.49,1301.76 2284.02,1284.47 2287.18,1267.01 2289.95,1249.42 2292.34,1231.73 2294.32,1213.98 2295.9,1196.22 2297.08,1178.46 2297.87,1160.75 2298.29,1143.11 2298.35,1125.58 2298.09,1108.18 2297.51,1090.93 2296.65,1073.83 2295.55,1056.9 2294.23,1040.14 2292.73,1023.54 2291.08,1007.08 2289.3,990.734 2287.42,974.467 2285.44,958.235 2283.35,941.996 2281.14,925.709 2278.78,909.344 2276.23,892.882 2273.46,876.316 2270.43,859.652 2267.1,842.902 2263.45,826.091 2259.45,809.245 2255.08,792.396 2250.34,775.578 2245.21,758.827 2239.71,742.178 2233.82,725.667 2227.57,709.326 2220.97,693.187 2214.04,677.277 2206.8,661.619 2199.29,646.233 2191.52,631.132 2183.53,616.325 2175.35,601.812 2167.03,587.587 2158.58,573.637 2150.03,559.939 2141.42,546.46 2132.76,533.162 2124.05,520.002 2115.27,506.936 2106.42,493.926 2097.45,480.944 2088.33,467.976 2079.03,455.02 2069.5,442.086 2059.71,429.195 2049.64,416.372 2039.28,403.649 2028.61,391.059 2017.62,378.637 2006.32,366.416 1994.72,354.43 1982.81,342.712 1970.63,331.291 1958.19,320.194 1945.51,309.444 1932.63,299.06 1919.57,289.054 1906.37,279.435 1893.05,270.202 1879.66,261.35 1866.23,252.865 1852.78,244.726 1839.34,236.903 1825.93,229.361 1812.56,222.059 1799.23,214.953 1785.92,208.003 1772.61,201.173 1759.27,194.44 1745.85,187.793 1732.32,181.234 1718.65,174.778 1704.8,168.449 1690.76,162.275 1676.51,156.289 1662.05,150.525 1647.38,145.016 1632.5,139.795 1617.43,134.891 1602.18,130.334 1586.77,126.149 1571.23,122.358 1555.57,118.979 1539.84,116.024 1524.07,113.501 1508.29,111.41 1492.54,109.743 1476.85,108.486 1461.25,107.617 1445.76,107.106 1430.41,106.918 1415.21,107.013 1400.16,107.35 1385.25,107.885 1370.46,108.583 1355.76,109.413 1341.13,110.356 1326.51,111.406 1311.89,112.57 1297.21,113.865 1282.47,115.317 1267.64,116.955 1252.72,118.813 1237.69,120.924 1222.57,123.318 1207.37,126.026 1192.11,129.076 1176.79,132.49 1161.44,136.291 1146.1,140.495 1130.78,145.115 1115.53,150.157 1100.38,155.622 1085.36,161.503 1070.5,167.784 1055.85,174.442 1041.42,181.447 1027.24,188.76 1013.32,196.343 999.655,204.15 986.251,212.139 973.086,220.272 960.135,228.517 947.368,236.849 934.749,245.257 922.242,253.741 909.814,262.309 897.437,270.983 885.09,279.788 872.759,288.754 860.439,297.914 848.132,307.298 835.844,316.937 823.589,326.855 811.384,337.078 799.249,347.626 787.209,358.514 775.293,369.755 763.53,381.356 751.954,393.317 740.6,405.633 729.501,418.289 718.692,431.264 708.2,444.525 698.049,458.035 688.252,471.749 678.813,485.622 669.725,499.607 660.972,513.664 652.53,527.757 644.368,541.861 636.451,555.96 628.745,570.05 621.215,584.134 613.832,598.228 606.571,612.353 599.415,626.535 592.354,640.805 585.385,655.192 578.512,669.726 571.745,684.433 565.098,699.336 558.59,714.456 552.243,729.809 546.081,745.407 540.133,761.256 534.428,777.359 528.998,793.711 523.877,810.301 519.096,827.109 514.685,844.106 510.67,861.255 507.065,878.512 503.879,895.826 501.105,913.148 498.726,930.433 496.718,947.642 "/>
<polyline clip-path="url(#clip122)" style="stroke:#ca3c32; stroke-linecap:round; stroke-linejoin:round; stroke-width:4; stroke-opacity:1; fill:none" points="1175.68,1282.06 1179.86,1268.34 1183.67,1254.22 1187.1,1239.74 1190.12,1224.94 1192.71,1209.83 1194.86,1194.48 1196.54,1178.91 1197.75,1163.18 1198.48,1147.32 1198.73,1131.38 1198.49,1115.42 1197.76,1099.48 1196.55,1083.61 1194.87,1067.85 1192.71,1052.26 1190.1,1036.87 1187.06,1021.72 1183.59,1006.87 1179.71,992.347 1175.46,978.189 1170.85,964.43 1165.92,951.103 1160.68,938.235 1155.17,925.852 1149.43,913.978 1143.47,902.633 1137.33,891.833 1131.05,881.594 1124.66,871.928 1118.19,862.844 1111.66,854.35 1105.12,846.452 1098.6,839.152 1092.11,832.452 1085.7,826.353 1079.39,820.85 1073.2,815.939 1067.16,811.612 1061.3,807.861 1055.64,804.675 1050.2,802.041 1045.01,799.947 1040.09,798.381 1035.45,797.327 1031.13,796.771 1027.13,796.698 1023.48,797.092 1020.18,797.936 1017.26,799.214 1014.72,800.906 1012.58,802.995 1010.85,805.463 1009.54,808.289 1008.65,811.454 1008.21,814.938 1008.2,818.722 1008.65,822.784 1009.54,827.103 1010.9,831.661 1012.72,836.435 1015.01,841.406 1017.76,846.555 1020.98,851.86 1024.67,857.304 1028.82,862.866 1033.44,868.528 1038.52,874.27 1044.05,880.073 1050.03,885.917 1056.47,891.783 1063.34,897.652 1070.64,903.506 1078.37,909.326 1086.52,915.096 1095.08,920.799 1104.04,926.419 1113.39,931.939 1123.11,937.346 1133.2,942.623 1143.65,947.756 1154.43,952.732 1165.54,957.537 1176.96,962.158 1188.68,966.582 1200.68,970.797 1212.94,974.792 1225.46,978.557 1238.21,982.08 1251.17,985.353 1264.34,988.368 1277.69,991.117 1291.21,993.596 1304.88,995.796 1318.68,997.711 1332.59,999.338 1346.58,1000.67 1360.64,1001.71 1374.75,1002.44 1388.89,1002.88 1403.03,1003.01 1417.17,1002.83 1431.29,1002.35 1445.35,1001.57 1459.35,1000.49 1473.26,999.107 1487.07,997.433 1500.75,995.468 1514.29,993.218 1527.67,990.69 1540.86,987.888 1553.86,984.821 1566.65,981.496 1579.19,977.92 1591.49,974.104 1603.53,970.057 1615.28,965.789 1626.73,961.311 1637.87,956.636 1648.68,951.776 1659.15,946.745 1669.27,941.557 1679.02,936.227 1688.39,930.769 1697.37,925.2 1705.94,919.534 1714.1,913.787 1721.84,907.977 1729.15,902.119 1736.02,896.231 1742.45,890.333 1748.42,884.442 1753.93,878.578 1758.98,872.761 1763.57,867.01 1767.69,861.346 1771.33,855.789 1774.5,850.359 1777.19,845.078 1779.41,839.966 1781.16,835.043 1782.43,830.33 1783.24,825.849 1783.59,821.619 1783.47,817.663 1782.9,814 1781.89,810.651 1780.44,807.639 1778.57,804.985 1776.28,802.709 1773.59,800.834 1770.5,799.379 1767.04,798.365 1763.21,797.81 1759.04,797.732 1754.53,798.148 1749.71,799.075 1744.6,800.528 1739.22,802.522 1733.59,805.073 1727.73,808.193 1721.68,811.895 1715.45,816.191 1709.08,821.091 1702.58,826.602 1696,832.732 1689.37,839.485 1682.7,846.863 1676.04,854.867 1669.41,863.495 1662.86,872.741 1656.41,882.597 1650.09,893.053 1643.94,904.094 1638,915.704 1632.29,927.863 1626.85,940.547 1621.71,953.731 1616.91,967.386 1612.47,981.48 1608.42,995.98 1604.79,1010.85 1601.6,1026.05 1598.88,1041.54 1596.63,1057.28 1594.87,1073.22 1593.61,1089.31 1592.86,1105.51 1592.62,1121.76 1592.88,1138.01 1593.65,1154.22 1594.92,1170.33 1596.68,1186.29 1598.92,1202.06 1601.63,1217.59 1604.77,1232.84 1608.35,1247.77 1612.32,1262.33 1616.68,1276.51 1621.38,1290.25 1626.4,1303.53 1631.72,1316.34 1637.29,1328.63 1643.1,1340.39 1649.1,1351.61 1655.27,1362.27 1661.56,1372.36 1667.96,1381.86 1674.42,1390.77 1680.91,1399.08 1687.41,1406.8 1693.89,1413.91 1700.31,1420.43 1706.65,1426.34 1712.88,1431.66 1718.98,1436.4 1724.93,1440.56 1730.69,1444.15 1736.25,1447.18 1741.59,1449.68 1746.68,1451.64 1751.5,1453.09 1756.03,1454.03 1760.27,1454.49 1764.18,1454.48 1767.75,1454.01 1770.98,1453.1 1773.84,1451.77 1776.33,1450.04 1778.44,1447.92 1780.15,1445.43 1781.46,1442.59 1782.35,1439.42 1782.83,1435.94 1782.88,1432.16 1782.51,1428.11 1781.69,1423.8 1780.44,1419.26 1778.74,1414.5 1776.61,1409.54 1774.02,1404.4 1770.99,1399.1 1767.51,1393.65 1763.59,1388.08 1759.23,1382.4 1754.43,1376.63 1749.19,1370.78 1743.52,1364.88 1737.43,1358.94 1730.92,1352.98 1723.99,1347.02 1716.66,1341.07 1708.92,1335.15 1700.79,1329.27 1692.28,1323.45 1683.4,1317.71 1674.14,1312.05 1664.54,1306.5 1654.59,1301.06 1644.31,1295.74 1633.7,1290.57 1622.79,1285.55 1611.59,1280.69 1600.1,1276.01 1588.35,1271.51 1576.34,1267.21 1564.09,1263.12 1551.62,1259.24 1538.95,1255.59 1526.07,1252.17 1513.02,1248.98 1499.81,1246.04 1486.45,1243.35 1472.96,1240.91 1459.36,1238.74 1445.66,1236.83 1431.89,1235.19 1418.06,1233.82 1404.18,1232.72 1390.28,1231.9 1376.36,1231.37 1362.46,1231.11 1348.58,1231.13 1334.74,1231.42 1320.96,1232 1307.25,1232.84 1293.64,1233.96 1280.14,1235.35 1266.77,1237 1253.54,1238.91 1240.47,1241.08 1227.58,1243.5 1214.88,1246.17 1202.39,1249.07 1190.12,1252.2 1178.08,1255.56 1166.3,1259.13 1154.78,1262.9 1143.55,1266.87 1132.6,1271.03 1121.96,1275.35 1111.65,1279.84 1101.66,1284.48 1092.02,1289.26 1082.73,1294.16 1073.8,1299.18 1065.25,1304.3 1057.09,1309.51 1049.32,1314.79 1041.95,1320.13 1034.99,1325.51 1028.44,1330.92 1022.32,1336.33 1016.63,1341.74 1011.38,1347.13 1006.56,1352.48 1002.18,1357.77 998.259,1362.98 994.783,1368.11 991.758,1373.12 989.186,1378.01 987.067,1382.75 985.401,1387.33 984.185,1391.72 983.417,1395.91 983.094,1399.88 983.212,1403.61 983.767,1407.07 984.754,1410.26 986.166,1413.14 987.996,1415.71 990.238,1417.94 992.881,1419.81 995.917,1421.3 999.332,1422.41 1003.12,1423.11 1007.25,1423.38 1011.73,1423.2 1016.53,1422.56 1021.64,1421.45 1027.04,1419.84 1032.7,1417.71 1038.62,1415.07 1044.76,1411.88 1051.12,1408.15 1057.65,1403.85 1064.35,1398.98 1071.18,1393.53 1078.11,1387.49 1085.13,1380.86 1092.2,1373.64 1099.28,1365.81 1106.36,1357.4 1113.4,1348.39 1120.37,1338.79 1127.23,1328.61 1133.95,1317.86 1140.49,1306.55 1146.83,1294.7 1152.93,1282.32 1158.76,1269.43 1164.29,1256.06 1169.5,1242.24 1174.34,1227.99 1178.81,1213.35 1182.88,1198.36 "/>
<polyline clip-path="url(#clip122)" style="stroke:#399746; stroke-linecap:round; stroke-linejoin:round; stroke-width:4; stroke-opacity:1; fill:none" points="1455.42,985.972 1454.13,991.246 1452.93,996.673 1451.83,1002.25 1450.82,1007.96 1449.91,1013.79 1449.12,1019.75 1448.43,1025.82 1447.85,1031.99 1447.4,1038.25 1447.06,1044.59 1446.85,1051 1446.77,1057.48 1446.81,1064.01 1446.99,1070.57 1447.29,1077.18 1447.72,1083.8 1448.29,1090.44 1448.98,1097.08 1449.8,1103.71 1450.75,1110.32 1451.83,1116.9 1453.03,1123.44 1454.36,1129.93 1455.8,1136.36 1457.37,1142.72 1459.05,1149.01 1460.84,1155.2 1462.74,1161.29 1464.75,1167.27 1466.86,1173.14 1469.06,1178.88 1471.35,1184.49 1473.73,1189.96 1476.18,1195.28 1478.71,1200.45 1481.3,1205.44 1483.95,1210.27 1486.65,1214.92 1489.4,1219.38 1492.18,1223.65 1495,1227.72 1497.84,1231.59 1500.7,1235.26 1503.56,1238.72 1506.42,1241.96 1509.27,1244.99 1512.1,1247.8 1514.9,1250.39 1517.67,1252.76 1520.38,1254.9 1523.04,1256.82 1525.64,1258.52 1528.16,1259.98 1530.6,1261.22 1532.95,1262.24 1535.2,1263.04 1537.33,1263.61 1539.35,1263.97 1541.25,1264.12 1543.01,1264.06 1544.62,1263.8 1546.09,1263.34 1547.39,1262.69 1548.52,1261.85 1549.47,1260.84 1550.24,1259.66 1550.82,1258.31 1551.2,1256.8 1551.38,1255.15 1551.36,1253.36 1551.12,1251.44 1550.66,1249.4 1549.98,1247.25 1549.08,1245.01 1547.94,1242.69 1546.58,1240.3 1544.98,1237.84 1543.14,1235.34 1541.07,1232.81 1538.76,1230.25 1536.22,1227.69 1533.44,1225.12 1530.42,1222.57 1527.18,1220.05 1523.71,1217.57 1520.02,1215.14 1516.11,1212.77 1511.99,1210.48 1507.66,1208.28 1503.15,1206.18 1498.44,1204.2 1493.55,1202.34 1488.49,1200.62 1483.27,1199.05 1477.9,1197.63 1472.38,1196.38 1466.73,1195.29 1460.97,1194.38 1455.1,1193.66 1449.14,1193.12 1443.1,1192.77 1437,1192.62 1430.85,1192.67 1424.67,1192.91 1418.47,1193.36 1412.26,1194.02 1406.06,1194.88 1399.88,1195.93 1393.74,1197.19 1387.65,1198.64 1381.62,1200.29 1375.67,1202.11 1369.82,1204.12 1364.06,1206.29 1358.42,1208.63 1352.9,1211.12 1347.52,1213.75 1342.29,1216.51 1337.22,1219.4 1332.32,1222.39 1327.6,1225.49 1323.06,1228.67 1318.72,1231.93 1314.58,1235.25 1310.64,1238.62 1306.92,1242.04 1303.4,1245.48 1300.11,1248.93 1297.03,1252.38 1294.17,1255.81 1291.54,1259.21 1289.13,1262.56 1286.94,1265.86 1284.98,1269.09 1283.23,1272.23 1281.71,1275.27 1280.41,1278.21 1279.32,1281.03 1278.44,1283.72 1277.77,1286.27 1277.29,1288.68 1277.02,1290.92 1276.93,1292.99 1277.03,1294.89 1277.31,1296.59 1277.75,1298.11 1278.35,1299.42 1279.11,1300.52 1280.01,1301.4 1281.06,1302.07 1282.23,1302.5 1283.53,1302.71 1284.94,1302.68 1286.46,1302.41 1288.08,1301.9 1289.79,1301.16 1291.57,1300.17 1293.43,1298.94 1295.34,1297.47 1297.3,1295.75 1299.3,1293.79 1301.34,1291.59 1303.39,1289.14 1305.46,1286.46 1307.54,1283.54 1309.62,1280.39 1311.68,1277.01 1313.73,1273.4 1315.75,1269.58 1317.73,1265.54 1319.68,1261.3 1321.57,1256.85 1323.41,1252.21 1325.18,1247.39 1326.89,1242.38 1328.51,1237.19 1330.06,1231.85 1331.51,1226.34 1332.87,1220.69 1334.13,1214.89 1335.29,1208.96 1336.35,1202.91 1337.29,1196.74 1338.12,1190.48 1338.84,1184.12 1339.43,1177.68 1339.9,1171.16 1340.25,1164.59 1340.46,1157.97 1340.55,1151.3 1340.51,1144.6 1340.33,1137.89 1340.02,1131.16 1339.59,1124.43 1339.02,1117.71 1338.32,1111.01 1337.49,1104.34 1336.54,1097.72 1335.47,1091.14 1334.27,1084.63 1332.95,1078.19 1331.52,1071.84 1329.97,1065.57 1328.32,1059.41 1326.55,1053.35 1324.69,1047.41 1322.73,1041.6 1320.67,1035.93 1318.53,1030.39 1316.31,1025.01 1314.02,1019.78 1311.66,1014.72 1309.24,1009.83 1306.77,1005.12 1304.25,1000.59 1301.69,996.261 1299.09,992.124 1296.47,988.188 1293.83,984.458 1291.17,980.938 1288.52,977.629 1285.86,974.536 1283.22,971.661 1280.6,969.006 1278.01,966.572 1275.46,964.362 1272.96,962.375 1270.51,960.612 1268.12,959.074 1265.81,957.761 1263.58,956.67 1261.44,955.8 1259.4,955.15 1257.46,954.716 1255.63,954.495 1253.92,954.483 1252.34,954.675 1250.9,955.065 1249.61,955.648 1248.46,956.418 1247.48,957.369 1246.67,958.495 1246.03,959.79 1245.57,961.247 1245.29,962.859 1245.21,964.618 1245.32,966.514 1245.63,968.54 1246.14,970.684 1246.86,972.938 1247.79,975.29 1248.93,977.729 1250.29,980.245 1251.87,982.826 1253.66,985.461 1255.68,988.14 1257.92,990.849 1260.37,993.579 1263.05,996.318 1265.95,999.055 1269.06,1001.78 1272.39,1004.48 1275.92,1007.14 1279.66,1009.75 1283.59,1012.31 1287.72,1014.79 1292.04,1017.2 1296.54,1019.5 1301.21,1021.71 1306.05,1023.8 1311.05,1025.76 1316.2,1027.59 1321.49,1029.27 1326.91,1030.81 1332.46,1032.19 1338.12,1033.42 1343.88,1034.47 1349.73,1035.36 1355.65,1036.07 1361.64,1036.61 1367.68,1036.96 1373.75,1037.13 1379.86,1037.11 1385.97,1036.9 1392.09,1036.5 1398.19,1035.91 1404.27,1035.14 1410.32,1034.19 1416.31,1033.05 1422.25,1031.74 1428.12,1030.26 1433.9,1028.61 1439.59,1026.81 1445.17,1024.85 1450.64,1022.75 1455.98,1020.52 1461.18,1018.16 1466.24,1015.68 1471.14,1013.09 1475.88,1010.4 1480.45,1007.61 1484.84,1004.75 1489.04,1001.81 1493.06,998.815 1496.89,995.769 1500.52,992.688 1503.95,989.583 1507.17,986.467 1510.19,983.352 1513,980.25 1515.61,977.172 1517.99,974.129 1520.17,971.133 1522.14,968.194 1523.89,965.324 1525.43,962.532 1526.77,959.829 1527.89,957.226 1528.82,954.732 1529.55,952.357 1530.08,950.111 1530.42,948.004 1530.58,946.045 1530.56,944.241 1530.36,942.602 1529.99,941.135 1529.45,939.848 1528.76,938.747 1527.92,937.839 1526.92,937.127 1525.79,936.618 1524.53,936.315 1523.14,936.222 1521.63,936.343 1520.01,936.681 1518.29,937.24 1516.48,938.023 1514.59,939.031 1512.62,940.267 1510.58,941.731 1508.48,943.425 1506.33,945.348 1504.13,947.499 1501.9,949.878 1499.64,952.482 1497.35,955.309 1495.06,958.357 1492.75,961.622 1490.45,965.102 1488.16,968.793 1485.89,972.691 1483.65,976.791 1481.44,981.088 1479.27,985.579 1477.15,990.256 1475.08,995.116 1473.07,1000.15 1471.13,1005.35 1469.26,1010.72 1467.46,1016.24 1465.75,1021.9 1464.12,1027.7 1462.59,1033.63 1461.15,1039.69 1459.82,1045.85 "/>
<path clip-path="url(#clip120)" d="M494.636 2085.43 L809.354 2085.43 L809.354 1878.07 L494.636 1878.07  Z" fill="#000000" fill-rule="evenodd" fill-opacity="0"/>
<polyline clip-path="url(#clip120)" style="stroke:#000000; stroke-linecap:round; stroke-linejoin:round; stroke-width:4; stroke-opacity:1; fill:none" points="494.636,2085.43 809.354,2085.43 809.354,1878.07 494.636,1878.07 494.636,2085.43 "/>
<polyline clip-path="url(#clip120)" style="stroke:#1f83ff; stroke-linecap:round; stroke-linejoin:round; stroke-width:4; stroke-opacity:1; fill:none" points="515.993,1929.91 644.14,1929.91 "/>
<path clip-path="url(#clip120)" d="M665.497 1912.63 L687.349 1912.63 L687.349 1916.57 L670.173 1916.57 L670.173 1926.8 L686.631 1926.8 L686.631 1930.73 L670.173 1930.73 L670.173 1943.26 L687.766 1943.26 L687.766 1947.19 L665.497 1947.19 L665.497 1912.63 Z" fill="#000000" fill-rule="nonzero" fill-opacity="1" /><path clip-path="url(#clip120)" d="M707.048 1934.16 Q701.886 1934.16 699.895 1935.34 Q697.904 1936.52 697.904 1939.37 Q697.904 1941.64 699.386 1942.98 Q700.891 1944.3 703.46 1944.3 Q707.002 1944.3 709.131 1941.8 Q711.284 1939.28 711.284 1935.11 L711.284 1934.16 L707.048 1934.16 M715.543 1932.4 L715.543 1947.19 L711.284 1947.19 L711.284 1943.26 Q709.826 1945.62 707.65 1946.75 Q705.474 1947.86 702.326 1947.86 Q698.344 1947.86 695.983 1945.64 Q693.645 1943.4 693.645 1939.65 Q693.645 1935.27 696.562 1933.05 Q699.502 1930.83 705.312 1930.83 L711.284 1930.83 L711.284 1930.41 Q711.284 1927.47 709.34 1925.87 Q707.418 1924.25 703.923 1924.25 Q701.701 1924.25 699.594 1924.79 Q697.488 1925.32 695.543 1926.38 L695.543 1922.45 Q697.881 1921.54 700.08 1921.1 Q702.279 1920.64 704.363 1920.64 Q709.988 1920.64 712.765 1923.56 Q715.543 1926.48 715.543 1932.4 Z" fill="#000000" fill-rule="nonzero" fill-opacity="1" /><path clip-path="url(#clip120)" d="M739.339 1925.25 Q738.622 1924.83 737.765 1924.65 Q736.932 1924.44 735.914 1924.44 Q732.302 1924.44 730.358 1926.8 Q728.437 1929.14 728.437 1933.54 L728.437 1947.19 L724.154 1947.19 L724.154 1921.27 L728.437 1921.27 L728.437 1925.29 Q729.779 1922.93 731.932 1921.8 Q734.085 1920.64 737.164 1920.64 Q737.603 1920.64 738.136 1920.71 Q738.668 1920.76 739.316 1920.87 L739.339 1925.25 Z" fill="#000000" fill-rule="nonzero" fill-opacity="1" /><path clip-path="url(#clip120)" d="M748.02 1913.91 L748.02 1921.27 L756.793 1921.27 L756.793 1924.58 L748.02 1924.58 L748.02 1938.65 Q748.02 1941.82 748.876 1942.73 Q749.756 1943.63 752.418 1943.63 L756.793 1943.63 L756.793 1947.19 L752.418 1947.19 Q747.488 1947.19 745.613 1945.36 Q743.738 1943.51 743.738 1938.65 L743.738 1924.58 L740.613 1924.58 L740.613 1921.27 L743.738 1921.27 L743.738 1913.91 L748.02 1913.91 Z" fill="#000000" fill-rule="nonzero" fill-opacity="1" /><path clip-path="url(#clip120)" d="M783.946 1931.54 L783.946 1947.19 L779.686 1947.19 L779.686 1931.68 Q779.686 1928 778.251 1926.17 Q776.816 1924.35 773.946 1924.35 Q770.497 1924.35 768.506 1926.54 Q766.515 1928.74 766.515 1932.54 L766.515 1947.19 L762.233 1947.19 L762.233 1911.17 L766.515 1911.17 L766.515 1925.29 Q768.043 1922.96 770.103 1921.8 Q772.186 1920.64 774.895 1920.64 Q779.362 1920.64 781.654 1923.42 Q783.946 1926.17 783.946 1931.54 Z" fill="#000000" fill-rule="nonzero" fill-opacity="1" /><polyline clip-path="url(#clip120)" style="stroke:#ca3c32; stroke-linecap:round; stroke-linejoin:round; stroke-width:4; stroke-opacity:1; fill:none" points="515.993,1981.75 644.14,1981.75 "/>
<path clip-path="url(#clip120)" d="M672.604 1964.47 L677.28 1964.47 L677.28 1996.63 Q677.28 2002.88 674.895 2005.7 Q672.534 2008.52 667.28 2008.52 L665.497 2008.52 L665.497 2004.59 L666.956 2004.59 Q670.057 2004.59 671.331 2002.85 Q672.604 2001.12 672.604 1996.63 L672.604 1964.47 Z" fill="#000000" fill-rule="nonzero" fill-opacity="1" /><path clip-path="url(#clip120)" d="M683.506 1964.47 L688.229 1964.47 L695.497 1993.69 L702.742 1964.47 L707.997 1964.47 L715.265 1993.69 L722.511 1964.47 L727.256 1964.47 L718.576 1999.03 L712.696 1999.03 L705.404 1969.03 L698.043 1999.03 L692.164 1999.03 L683.506 1964.47 Z" fill="#000000" fill-rule="nonzero" fill-opacity="1" /><path clip-path="url(#clip120)" d="M754.177 1965.61 L754.177 1970.17 Q751.515 1968.89 749.154 1968.27 Q746.793 1967.64 744.594 1967.64 Q740.775 1967.64 738.691 1969.13 Q736.631 1970.61 736.631 1973.34 Q736.631 1975.63 737.997 1976.81 Q739.386 1977.97 743.228 1978.69 L746.052 1979.26 Q751.284 1980.26 753.761 1982.78 Q756.261 1985.28 756.261 1989.5 Q756.261 1994.52 752.881 1997.11 Q749.525 1999.7 743.02 1999.7 Q740.566 1999.7 737.789 1999.15 Q735.034 1998.59 732.071 1997.5 L732.071 1992.69 Q734.918 1994.29 737.65 1995.1 Q740.381 1995.91 743.02 1995.91 Q747.025 1995.91 749.2 1994.33 Q751.376 1992.76 751.376 1989.84 Q751.376 1987.3 749.802 1985.86 Q748.251 1984.43 744.687 1983.71 L741.839 1983.15 Q736.608 1982.11 734.27 1979.89 Q731.932 1977.67 731.932 1973.71 Q731.932 1969.13 735.15 1966.49 Q738.39 1963.85 744.062 1963.85 Q746.492 1963.85 749.015 1964.29 Q751.538 1964.73 754.177 1965.61 Z" fill="#000000" fill-rule="nonzero" fill-opacity="1" /><path clip-path="url(#clip120)" d="M758.761 1964.47 L787.997 1964.47 L787.997 1968.41 L775.728 1968.41 L775.728 1999.03 L771.029 1999.03 L771.029 1968.41 L758.761 1968.41 L758.761 1964.47 Z" fill="#000000" fill-rule="nonzero" fill-opacity="1" /><polyline clip-path="url(#clip120)" style="stroke:#399746; stroke-linecap:round; stroke-linejoin:round; stroke-width:4; stroke-opacity:1; fill:none" points="515.993,2033.59 644.14,2033.59 "/>
<path clip-path="url(#clip120)" d="M691.053 2045.94 L691.053 2036.66 L683.414 2036.66 L683.414 2032.82 L695.682 2032.82 L695.682 2047.66 Q692.974 2049.58 689.71 2050.57 Q686.446 2051.54 682.743 2051.54 Q674.641 2051.54 670.057 2046.82 Q665.497 2042.08 665.497 2033.63 Q665.497 2025.16 670.057 2020.43 Q674.641 2015.69 682.743 2015.69 Q686.122 2015.69 689.155 2016.52 Q692.21 2017.35 694.779 2018.97 L694.779 2023.95 Q692.187 2021.75 689.27 2020.64 Q686.354 2019.53 683.136 2019.53 Q676.793 2019.53 673.599 2023.07 Q670.428 2026.61 670.428 2033.63 Q670.428 2040.62 673.599 2044.16 Q676.793 2047.7 683.136 2047.7 Q685.613 2047.7 687.557 2047.28 Q689.502 2046.84 691.053 2045.94 Z" fill="#000000" fill-rule="nonzero" fill-opacity="1" /><path clip-path="url(#clip120)" d="M715.775 2020.92 L709.432 2038.12 L722.14 2038.12 L715.775 2020.92 M713.136 2016.31 L718.437 2016.31 L731.608 2050.87 L726.747 2050.87 L723.599 2042.01 L708.02 2042.01 L704.872 2050.87 L699.941 2050.87 L713.136 2016.31 Z" fill="#000000" fill-rule="nonzero" fill-opacity="1" /><path clip-path="url(#clip120)" d="M736.654 2016.31 L741.33 2016.31 L741.33 2050.87 L736.654 2050.87 L736.654 2016.31 Z" fill="#000000" fill-rule="nonzero" fill-opacity="1" /><path clip-path="url(#clip120)" d="M762.187 2020.92 L755.844 2038.12 L768.552 2038.12 L762.187 2020.92 M759.548 2016.31 L764.849 2016.31 L778.02 2050.87 L773.159 2050.87 L770.011 2042.01 L754.432 2042.01 L751.284 2050.87 L746.353 2050.87 L759.548 2016.31 Z" fill="#000000" fill-rule="nonzero" fill-opacity="1" /></svg>
