<?xml version="1.0" encoding="utf-8"?>
<svg xmlns="http://www.w3.org/2000/svg" xmlns:xlink="http://www.w3.org/1999/xlink" width="600" height="400" viewBox="0 0 2400 1600">
<defs>
  <clipPath id="clip350">
    <rect x="0" y="0" width="2400" height="1600"/>
  </clipPath>
</defs>
<path clip-path="url(#clip350)" d="M0 1600 L2400 1600 L2400 0 L0 0  Z" fill="#ffffff" fill-rule="evenodd" fill-opacity="1"/>
<defs>
  <clipPath id="clip351">
    <rect x="406" y="123" width="1947" height="1288"/>
  </clipPath>
</defs>
<path clip-path="url(#clip350)" d="M406.671 1410.9 L2352.76 1410.9 L2352.76 123.472 L406.671 123.472  Z" fill="#ffffff" fill-rule="evenodd" fill-opacity="1"/>
<polyline clip-path="url(#clip351)" style="stroke:#000000; stroke-linecap:round; stroke-linejoin:round; stroke-width:2; stroke-opacity:0.1; fill:none" points="835.044,1410.9 835.044,123.472 "/>
<polyline clip-path="url(#clip351)" style="stroke:#000000; stroke-linecap:round; stroke-linejoin:round; stroke-width:2; stroke-opacity:0.1; fill:none" points="1336.03,1410.9 1336.03,123.472 "/>
<polyline clip-path="url(#clip351)" style="stroke:#000000; stroke-linecap:round; stroke-linejoin:round; stroke-width:2; stroke-opacity:0.1; fill:none" points="1837.01,1410.9 1837.01,123.472 "/>
<polyline clip-path="url(#clip351)" style="stroke:#000000; stroke-linecap:round; stroke-linejoin:round; stroke-width:2; stroke-opacity:0.1; fill:none" points="2338,1410.9 2338,123.472 "/>
<polyline clip-path="url(#clip351)" style="stroke:#000000; stroke-linecap:round; stroke-linejoin:round; stroke-width:2; stroke-opacity:0.1; fill:none" points="406.671,1261.08 2352.76,1261.08 "/>
<polyline clip-path="url(#clip351)" style="stroke:#000000; stroke-linecap:round; stroke-linejoin:round; stroke-width:2; stroke-opacity:0.1; fill:none" points="406.671,1093.84 2352.76,1093.84 "/>
<polyline clip-path="url(#clip351)" style="stroke:#000000; stroke-linecap:round; stroke-linejoin:round; stroke-width:2; stroke-opacity:0.1; fill:none" points="406.671,926.591 2352.76,926.591 "/>
<polyline clip-path="url(#clip351)" style="stroke:#000000; stroke-linecap:round; stroke-linejoin:round; stroke-width:2; stroke-opacity:0.1; fill:none" points="406.671,759.344 2352.76,759.344 "/>
<polyline clip-path="url(#clip351)" style="stroke:#000000; stroke-linecap:round; stroke-linejoin:round; stroke-width:2; stroke-opacity:0.1; fill:none" points="406.671,592.097 2352.76,592.097 "/>
<polyline clip-path="url(#clip351)" style="stroke:#000000; stroke-linecap:round; stroke-linejoin:round; stroke-width:2; stroke-opacity:0.1; fill:none" points="406.671,424.85 2352.76,424.85 "/>
<polyline clip-path="url(#clip351)" style="stroke:#000000; stroke-linecap:round; stroke-linejoin:round; stroke-width:2; stroke-opacity:0.1; fill:none" points="406.671,257.603 2352.76,257.603 "/>
<polyline clip-path="url(#clip350)" style="stroke:#000000; stroke-linecap:round; stroke-linejoin:round; stroke-width:4; stroke-opacity:1; fill:none" points="406.671,1410.9 2352.76,1410.9 "/>
<polyline clip-path="url(#clip350)" style="stroke:#000000; stroke-linecap:round; stroke-linejoin:round; stroke-width:4; stroke-opacity:1; fill:none" points="835.044,1410.9 835.044,1392 "/>
<polyline clip-path="url(#clip350)" style="stroke:#000000; stroke-linecap:round; stroke-linejoin:round; stroke-width:4; stroke-opacity:1; fill:none" points="1336.03,1410.9 1336.03,1392 "/>
<polyline clip-path="url(#clip350)" style="stroke:#000000; stroke-linecap:round; stroke-linejoin:round; stroke-width:4; stroke-opacity:1; fill:none" points="1837.01,1410.9 1837.01,1392 "/>
<polyline clip-path="url(#clip350)" style="stroke:#000000; stroke-linecap:round; stroke-linejoin:round; stroke-width:4; stroke-opacity:1; fill:none" points="2338,1410.9 2338,1392 "/>
<path clip-path="url(#clip350)" d="M721.92 1472.13 L751.596 1472.13 L751.596 1476.06 L721.92 1476.06 L721.92 1472.13 Z" fill="#000000" fill-rule="nonzero" fill-opacity="1" /><path clip-path="url(#clip350)" d="M761.734 1454.4 L780.091 1454.4 L780.091 1458.33 L766.017 1458.33 L766.017 1466.8 Q767.035 1466.46 768.054 1466.29 Q769.072 1466.11 770.091 1466.11 Q775.878 1466.11 779.257 1469.28 Q782.637 1472.45 782.637 1477.87 Q782.637 1483.45 779.165 1486.55 Q775.693 1489.63 769.373 1489.63 Q767.197 1489.63 764.929 1489.26 Q762.684 1488.89 760.276 1488.15 L760.276 1483.45 Q762.359 1484.58 764.582 1485.14 Q766.804 1485.69 769.281 1485.69 Q773.285 1485.69 775.623 1483.59 Q777.961 1481.48 777.961 1477.87 Q777.961 1474.26 775.623 1472.15 Q773.285 1470.04 769.281 1470.04 Q767.406 1470.04 765.531 1470.46 Q763.679 1470.88 761.734 1471.76 L761.734 1454.4 Z" fill="#000000" fill-rule="nonzero" fill-opacity="1" /><path clip-path="url(#clip350)" d="M791.85 1483.08 L796.734 1483.08 L796.734 1488.96 L791.85 1488.96 L791.85 1483.08 Z" fill="#000000" fill-rule="nonzero" fill-opacity="1" /><path clip-path="url(#clip350)" d="M816.919 1457.48 Q813.308 1457.48 811.48 1461.04 Q809.674 1464.58 809.674 1471.71 Q809.674 1478.82 811.48 1482.38 Q813.308 1485.92 816.919 1485.92 Q820.554 1485.92 822.359 1482.38 Q824.188 1478.82 824.188 1471.71 Q824.188 1464.58 822.359 1461.04 Q820.554 1457.48 816.919 1457.48 M816.919 1453.77 Q822.729 1453.77 825.785 1458.38 Q828.864 1462.96 828.864 1471.71 Q828.864 1480.44 825.785 1485.04 Q822.729 1489.63 816.919 1489.63 Q811.109 1489.63 808.03 1485.04 Q804.975 1480.44 804.975 1471.71 Q804.975 1462.96 808.03 1458.38 Q811.109 1453.77 816.919 1453.77 Z" fill="#000000" fill-rule="nonzero" fill-opacity="1" /><path clip-path="url(#clip350)" d="M865.252 1463.49 L854.674 1474.12 L865.252 1484.7 L862.498 1487.5 L851.873 1476.87 L841.248 1487.5 L838.516 1484.7 L849.072 1474.12 L838.516 1463.49 L841.248 1460.69 L851.873 1471.32 L862.498 1460.69 L865.252 1463.49 Z" fill="#000000" fill-rule="nonzero" fill-opacity="1" /><path clip-path="url(#clip350)" d="M877.613 1485.02 L885.252 1485.02 L885.252 1458.66 L876.942 1460.32 L876.942 1456.06 L885.206 1454.4 L889.882 1454.4 L889.882 1485.02 L897.521 1485.02 L897.521 1488.96 L877.613 1488.96 L877.613 1485.02 Z" fill="#000000" fill-rule="nonzero" fill-opacity="1" /><path clip-path="url(#clip350)" d="M916.965 1457.48 Q913.354 1457.48 911.525 1461.04 Q909.72 1464.58 909.72 1471.71 Q909.72 1478.82 911.525 1482.38 Q913.354 1485.92 916.965 1485.92 Q920.599 1485.92 922.405 1482.38 Q924.234 1478.82 924.234 1471.71 Q924.234 1464.58 922.405 1461.04 Q920.599 1457.48 916.965 1457.48 M916.965 1453.77 Q922.775 1453.77 925.831 1458.38 Q928.909 1462.96 928.909 1471.71 Q928.909 1480.44 925.831 1485.04 Q922.775 1489.63 916.965 1489.63 Q911.155 1489.63 908.076 1485.04 Q905.021 1480.44 905.021 1471.71 Q905.021 1462.96 908.076 1458.38 Q911.155 1453.77 916.965 1453.77 Z" fill="#000000" fill-rule="nonzero" fill-opacity="1" /><path clip-path="url(#clip350)" d="M938.539 1448.21 Q935.831 1448.21 934.27 1449.66 Q932.727 1451.11 932.727 1453.65 Q932.727 1456.19 934.27 1457.63 Q935.831 1459.08 938.539 1459.08 Q941.247 1459.08 942.808 1457.63 Q944.369 1456.17 944.369 1453.65 Q944.369 1451.11 942.808 1449.66 Q941.266 1448.21 938.539 1448.21 M934.74 1446.59 Q932.295 1445.99 930.922 1444.32 Q929.568 1442.64 929.568 1440.24 Q929.568 1436.87 931.956 1434.91 Q934.364 1432.96 938.539 1432.96 Q942.733 1432.96 945.122 1434.91 Q947.51 1436.87 947.51 1440.24 Q947.51 1442.64 946.137 1444.32 Q944.783 1445.99 942.357 1446.59 Q945.103 1447.23 946.626 1449.1 Q948.169 1450.96 948.169 1453.65 Q948.169 1457.73 945.667 1459.91 Q943.185 1462.09 938.539 1462.09 Q933.894 1462.09 931.392 1459.91 Q928.909 1457.73 928.909 1453.65 Q928.909 1450.96 930.452 1449.1 Q931.994 1447.23 934.74 1446.59 M933.348 1440.59 Q933.348 1442.78 934.702 1444 Q936.075 1445.22 938.539 1445.22 Q940.984 1445.22 942.357 1444 Q943.749 1442.78 943.749 1440.59 Q943.749 1438.41 942.357 1437.19 Q940.984 1435.97 938.539 1435.97 Q936.075 1435.97 934.702 1437.19 Q933.348 1438.41 933.348 1440.59 Z" fill="#000000" fill-rule="nonzero" fill-opacity="1" /><path clip-path="url(#clip350)" d="M1336.03 1441.82 Q1332.42 1441.82 1330.59 1445.38 Q1328.78 1448.92 1328.78 1456.05 Q1328.78 1463.16 1330.59 1466.72 Q1332.42 1470.26 1336.03 1470.26 Q1339.66 1470.26 1341.47 1466.72 Q1343.3 1463.16 1343.3 1456.05 Q1343.3 1448.92 1341.47 1445.38 Q1339.66 1441.82 1336.03 1441.82 M1336.03 1438.11 Q1341.84 1438.11 1344.89 1442.72 Q1347.97 1447.3 1347.97 1456.05 Q1347.97 1464.78 1344.89 1469.38 Q1341.84 1473.97 1336.03 1473.97 Q1330.22 1473.97 1327.14 1469.38 Q1324.08 1464.78 1324.08 1456.05 Q1324.08 1447.3 1327.14 1442.72 Q1330.22 1438.11 1336.03 1438.11 Z" fill="#000000" fill-rule="nonzero" fill-opacity="1" /><path clip-path="url(#clip350)" d="M1744.52 1454.4 L1762.88 1454.4 L1762.88 1458.33 L1748.81 1458.33 L1748.81 1466.8 Q1749.83 1466.46 1750.84 1466.29 Q1751.86 1466.11 1752.88 1466.11 Q1758.67 1466.11 1762.05 1469.28 Q1765.43 1472.45 1765.43 1477.87 Q1765.43 1483.45 1761.95 1486.55 Q1758.48 1489.63 1752.16 1489.63 Q1749.99 1489.63 1747.72 1489.26 Q1745.47 1488.89 1743.07 1488.15 L1743.07 1483.45 Q1745.15 1484.58 1747.37 1485.14 Q1749.59 1485.69 1752.07 1485.69 Q1756.08 1485.69 1758.41 1483.59 Q1760.75 1481.48 1760.75 1477.87 Q1760.75 1474.26 1758.41 1472.15 Q1756.08 1470.04 1752.07 1470.04 Q1750.2 1470.04 1748.32 1470.46 Q1746.47 1470.88 1744.52 1471.76 L1744.52 1454.4 Z" fill="#000000" fill-rule="nonzero" fill-opacity="1" /><path clip-path="url(#clip350)" d="M1774.64 1483.08 L1779.52 1483.08 L1779.52 1488.96 L1774.64 1488.96 L1774.64 1483.08 Z" fill="#000000" fill-rule="nonzero" fill-opacity="1" /><path clip-path="url(#clip350)" d="M1799.71 1457.48 Q1796.1 1457.48 1794.27 1461.04 Q1792.46 1464.58 1792.46 1471.71 Q1792.46 1478.82 1794.27 1482.38 Q1796.1 1485.92 1799.71 1485.92 Q1803.34 1485.92 1805.15 1482.38 Q1806.98 1478.82 1806.98 1471.71 Q1806.98 1464.58 1805.15 1461.04 Q1803.34 1457.48 1799.71 1457.48 M1799.71 1453.77 Q1805.52 1453.77 1808.58 1458.38 Q1811.65 1462.96 1811.65 1471.71 Q1811.65 1480.44 1808.58 1485.04 Q1805.52 1489.63 1799.71 1489.63 Q1793.9 1489.63 1790.82 1485.04 Q1787.77 1480.44 1787.77 1471.71 Q1787.77 1462.96 1790.82 1458.38 Q1793.9 1453.77 1799.71 1453.77 Z" fill="#000000" fill-rule="nonzero" fill-opacity="1" /><path clip-path="url(#clip350)" d="M1848.04 1463.49 L1837.46 1474.12 L1848.04 1484.7 L1845.29 1487.5 L1834.66 1476.87 L1824.04 1487.5 L1821.31 1484.7 L1831.86 1474.12 L1821.31 1463.49 L1824.04 1460.69 L1834.66 1471.32 L1845.29 1460.69 L1848.04 1463.49 Z" fill="#000000" fill-rule="nonzero" fill-opacity="1" /><path clip-path="url(#clip350)" d="M1860.4 1485.02 L1868.04 1485.02 L1868.04 1458.66 L1859.73 1460.32 L1859.73 1456.06 L1868 1454.4 L1872.67 1454.4 L1872.67 1485.02 L1880.31 1485.02 L1880.31 1488.96 L1860.4 1488.96 L1860.4 1485.02 Z" fill="#000000" fill-rule="nonzero" fill-opacity="1" /><path clip-path="url(#clip350)" d="M1899.76 1457.48 Q1896.14 1457.48 1894.32 1461.04 Q1892.51 1464.58 1892.51 1471.71 Q1892.51 1478.82 1894.32 1482.38 Q1896.14 1485.92 1899.76 1485.92 Q1903.39 1485.92 1905.19 1482.38 Q1907.02 1478.82 1907.02 1471.71 Q1907.02 1464.58 1905.19 1461.04 Q1903.39 1457.48 1899.76 1457.48 M1899.76 1453.77 Q1905.57 1453.77 1908.62 1458.38 Q1911.7 1462.96 1911.7 1471.71 Q1911.7 1480.44 1908.62 1485.04 Q1905.57 1489.63 1899.76 1489.63 Q1893.94 1489.63 1890.87 1485.04 Q1887.81 1480.44 1887.81 1471.71 Q1887.81 1462.96 1890.87 1458.38 Q1893.94 1453.77 1899.76 1453.77 Z" fill="#000000" fill-rule="nonzero" fill-opacity="1" /><path clip-path="url(#clip350)" d="M1921.33 1448.21 Q1918.62 1448.21 1917.06 1449.66 Q1915.52 1451.11 1915.52 1453.65 Q1915.52 1456.19 1917.06 1457.63 Q1918.62 1459.08 1921.33 1459.08 Q1924.04 1459.08 1925.6 1457.63 Q1927.16 1456.17 1927.16 1453.65 Q1927.16 1451.11 1925.6 1449.66 Q1924.06 1448.21 1921.33 1448.21 M1917.53 1446.59 Q1915.08 1445.99 1913.71 1444.32 Q1912.36 1442.64 1912.36 1440.24 Q1912.36 1436.87 1914.75 1434.91 Q1917.15 1432.96 1921.33 1432.96 Q1925.52 1432.96 1927.91 1434.91 Q1930.3 1436.87 1930.3 1440.24 Q1930.3 1442.64 1928.93 1444.32 Q1927.57 1445.99 1925.15 1446.59 Q1927.89 1447.23 1929.42 1449.1 Q1930.96 1450.96 1930.96 1453.65 Q1930.96 1457.73 1928.46 1459.91 Q1925.97 1462.09 1921.33 1462.09 Q1916.68 1462.09 1914.18 1459.91 Q1911.7 1457.73 1911.7 1453.65 Q1911.7 1450.96 1913.24 1449.1 Q1914.78 1447.23 1917.53 1446.59 M1916.14 1440.59 Q1916.14 1442.78 1917.49 1444 Q1918.87 1445.22 1921.33 1445.22 Q1923.77 1445.22 1925.15 1444 Q1926.54 1442.78 1926.54 1440.59 Q1926.54 1438.41 1925.15 1437.19 Q1923.77 1435.97 1921.33 1435.97 Q1918.87 1435.97 1917.49 1437.19 Q1916.14 1438.41 1916.14 1440.59 Z" fill="#000000" fill-rule="nonzero" fill-opacity="1" /><path clip-path="url(#clip350)" d="M2245.44 1485.02 L2253.08 1485.02 L2253.08 1458.66 L2244.77 1460.32 L2244.77 1456.06 L2253.03 1454.4 L2257.71 1454.4 L2257.71 1485.02 L2265.35 1485.02 L2265.35 1488.96 L2245.44 1488.96 L2245.44 1485.02 Z" fill="#000000" fill-rule="nonzero" fill-opacity="1" /><path clip-path="url(#clip350)" d="M2274.79 1483.08 L2279.68 1483.08 L2279.68 1488.96 L2274.79 1488.96 L2274.79 1483.08 Z" fill="#000000" fill-rule="nonzero" fill-opacity="1" /><path clip-path="url(#clip350)" d="M2299.86 1457.48 Q2296.25 1457.48 2294.42 1461.04 Q2292.62 1464.58 2292.62 1471.71 Q2292.62 1478.82 2294.42 1482.38 Q2296.25 1485.92 2299.86 1485.92 Q2303.5 1485.92 2305.3 1482.38 Q2307.13 1478.82 2307.13 1471.71 Q2307.13 1464.58 2305.3 1461.04 Q2303.5 1457.48 2299.86 1457.48 M2299.86 1453.77 Q2305.67 1453.77 2308.73 1458.38 Q2311.81 1462.96 2311.81 1471.71 Q2311.81 1480.44 2308.73 1485.04 Q2305.67 1489.63 2299.86 1489.63 Q2294.05 1489.63 2290.97 1485.04 Q2287.92 1480.44 2287.92 1471.71 Q2287.92 1462.96 2290.97 1458.38 Q2294.05 1453.77 2299.86 1453.77 Z" fill="#000000" fill-rule="nonzero" fill-opacity="1" /><path clip-path="url(#clip350)" d="M2348.19 1463.49 L2337.62 1474.12 L2348.19 1484.7 L2345.44 1487.5 L2334.82 1476.87 L2324.19 1487.5 L2321.46 1484.7 L2332.01 1474.12 L2321.46 1463.49 L2324.19 1460.69 L2334.82 1471.32 L2345.44 1460.69 L2348.19 1463.49 Z" fill="#000000" fill-rule="nonzero" fill-opacity="1" /><path clip-path="url(#clip350)" d="M2360.56 1485.02 L2368.19 1485.02 L2368.19 1458.66 L2359.88 1460.32 L2359.88 1456.06 L2368.15 1454.4 L2372.82 1454.4 L2372.82 1485.02 L2380.46 1485.02 L2380.46 1488.96 L2360.56 1488.96 L2360.56 1485.02 Z" fill="#000000" fill-rule="nonzero" fill-opacity="1" /><path clip-path="url(#clip350)" d="M2399.91 1457.48 Q2396.3 1457.48 2394.47 1461.04 Q2392.66 1464.58 2392.66 1471.71 Q2392.66 1478.82 2394.47 1482.38 Q2396.3 1485.92 2399.91 1485.92 Q2403.54 1485.92 2405.35 1482.38 Q2407.18 1478.82 2407.18 1471.71 Q2407.18 1464.58 2405.35 1461.04 Q2403.54 1457.48 2399.91 1457.48 M2399.91 1453.77 Q2405.72 1453.77 2408.77 1458.38 Q2411.85 1462.96 2411.85 1471.71 Q2411.85 1480.44 2408.77 1485.04 Q2405.72 1489.63 2399.91 1489.63 Q2394.1 1489.63 2391.02 1485.04 Q2387.96 1480.44 2387.96 1471.71 Q2387.96 1462.96 2391.02 1458.38 Q2394.1 1453.77 2399.91 1453.77 Z" fill="#000000" fill-rule="nonzero" fill-opacity="1" /><path clip-path="url(#clip350)" d="M2413.66 1460.96 L2413.66 1457.5 Q2415.09 1458.18 2416.55 1458.54 Q2418.02 1458.89 2419.43 1458.89 Q2423.19 1458.89 2425.17 1456.37 Q2427.16 1453.84 2427.44 1448.68 Q2426.35 1450.3 2424.68 1451.16 Q2423 1452.03 2420.97 1452.03 Q2416.76 1452.03 2414.3 1449.49 Q2411.85 1446.93 2411.85 1442.51 Q2411.85 1438.19 2414.41 1435.57 Q2416.97 1432.96 2421.22 1432.96 Q2426.09 1432.96 2428.65 1436.7 Q2431.22 1440.43 2431.22 1447.53 Q2431.22 1454.17 2428.06 1458.14 Q2424.92 1462.09 2419.6 1462.09 Q2418.17 1462.09 2416.7 1461.81 Q2415.24 1461.53 2413.66 1460.96 M2421.22 1449.06 Q2423.78 1449.06 2425.26 1447.31 Q2426.77 1445.56 2426.77 1442.51 Q2426.77 1439.48 2425.26 1437.74 Q2423.78 1435.97 2421.22 1435.97 Q2418.66 1435.97 2417.16 1437.74 Q2415.67 1439.48 2415.67 1442.51 Q2415.67 1445.56 2417.16 1447.31 Q2418.66 1449.06 2421.22 1449.06 Z" fill="#000000" fill-rule="nonzero" fill-opacity="1" /><path clip-path="url(#clip350)" d="M1278.04 1526.67 L1284.94 1526.67 L1296.75 1544.33 L1308.62 1526.67 L1315.53 1526.67 L1300.25 1549.49 L1316.55 1574.19 L1309.64 1574.19 L1296.27 1553.97 L1282.81 1574.19 L1275.87 1574.19 L1292.84 1548.82 L1278.04 1526.67 Z" fill="#000000" fill-rule="nonzero" fill-opacity="1" /><path clip-path="url(#clip350)" d="M1359.52 1524.72 Q1355.25 1532.04 1353.18 1539.21 Q1351.12 1546.37 1351.12 1553.72 Q1351.12 1561.07 1353.18 1568.3 Q1355.28 1575.49 1359.52 1582.78 L1354.43 1582.78 Q1349.65 1575.3 1347.26 1568.07 Q1344.91 1560.85 1344.91 1553.72 Q1344.91 1546.62 1347.26 1539.43 Q1349.62 1532.24 1354.43 1524.72 L1359.52 1524.72 Z" fill="#000000" fill-rule="nonzero" fill-opacity="1" /><path clip-path="url(#clip350)" d="M1371.14 1526.67 L1377.56 1526.67 L1377.56 1546.75 L1398.89 1526.67 L1407.17 1526.67 L1383.58 1548.82 L1408.85 1574.19 L1400.39 1574.19 L1377.56 1551.3 L1377.56 1574.19 L1371.14 1574.19 L1371.14 1526.67 Z" fill="#000000" fill-rule="nonzero" fill-opacity="1" /><path clip-path="url(#clip350)" d="M1413.88 1526.67 L1423.46 1526.67 L1435.59 1559 L1447.78 1526.67 L1457.36 1526.67 L1457.36 1574.19 L1451.09 1574.19 L1451.09 1532.46 L1438.83 1565.05 L1432.37 1565.05 L1420.12 1532.46 L1420.12 1574.19 L1413.88 1574.19 L1413.88 1526.67 Z" fill="#000000" fill-rule="nonzero" fill-opacity="1" /><path clip-path="url(#clip350)" d="M1468.94 1524.72 L1474.04 1524.72 Q1478.81 1532.24 1481.17 1539.43 Q1483.55 1546.62 1483.55 1553.72 Q1483.55 1560.85 1481.17 1568.07 Q1478.81 1575.3 1474.04 1582.78 L1468.94 1582.78 Q1473.18 1575.49 1475.25 1568.3 Q1477.35 1561.07 1477.35 1553.72 Q1477.35 1546.37 1475.25 1539.21 Q1473.18 1532.04 1468.94 1524.72 Z" fill="#000000" fill-rule="nonzero" fill-opacity="1" /><polyline clip-path="url(#clip350)" style="stroke:#000000; stroke-linecap:round; stroke-linejoin:round; stroke-width:4; stroke-opacity:1; fill:none" points="406.671,1410.9 406.671,123.472 "/>
<polyline clip-path="url(#clip350)" style="stroke:#000000; stroke-linecap:round; stroke-linejoin:round; stroke-width:4; stroke-opacity:1; fill:none" points="406.671,1261.08 425.568,1261.08 "/>
<polyline clip-path="url(#clip350)" style="stroke:#000000; stroke-linecap:round; stroke-linejoin:round; stroke-width:4; stroke-opacity:1; fill:none" points="406.671,1093.84 425.568,1093.84 "/>
<polyline clip-path="url(#clip350)" style="stroke:#000000; stroke-linecap:round; stroke-linejoin:round; stroke-width:4; stroke-opacity:1; fill:none" points="406.671,926.591 425.568,926.591 "/>
<polyline clip-path="url(#clip350)" style="stroke:#000000; stroke-linecap:round; stroke-linejoin:round; stroke-width:4; stroke-opacity:1; fill:none" points="406.671,759.344 425.568,759.344 "/>
<polyline clip-path="url(#clip350)" style="stroke:#000000; stroke-linecap:round; stroke-linejoin:round; stroke-width:4; stroke-opacity:1; fill:none" points="406.671,592.097 425.568,592.097 "/>
<polyline clip-path="url(#clip350)" style="stroke:#000000; stroke-linecap:round; stroke-linejoin:round; stroke-width:4; stroke-opacity:1; fill:none" points="406.671,424.85 425.568,424.85 "/>
<polyline clip-path="url(#clip350)" style="stroke:#000000; stroke-linecap:round; stroke-linejoin:round; stroke-width:4; stroke-opacity:1; fill:none" points="406.671,257.603 425.568,257.603 "/>
<path clip-path="url(#clip350)" d="M114.26 1267.98 L143.936 1267.98 L143.936 1271.92 L114.26 1271.92 L114.26 1267.98 Z" fill="#000000" fill-rule="nonzero" fill-opacity="1" /><path clip-path="url(#clip350)" d="M152.848 1250.25 L175.07 1250.25 L175.07 1252.24 L162.524 1284.81 L157.64 1284.81 L169.445 1254.19 L152.848 1254.19 L152.848 1250.25 Z" fill="#000000" fill-rule="nonzero" fill-opacity="1" /><path clip-path="url(#clip350)" d="M184.19 1278.93 L189.075 1278.93 L189.075 1284.81 L184.19 1284.81 L184.19 1278.93 Z" fill="#000000" fill-rule="nonzero" fill-opacity="1" /><path clip-path="url(#clip350)" d="M199.306 1250.25 L217.662 1250.25 L217.662 1254.19 L203.588 1254.19 L203.588 1262.66 Q204.607 1262.31 205.625 1262.15 Q206.644 1261.96 207.662 1261.96 Q213.449 1261.96 216.829 1265.14 Q220.209 1268.31 220.209 1273.72 Q220.209 1279.3 216.736 1282.4 Q213.264 1285.48 206.945 1285.48 Q204.769 1285.48 202.5 1285.11 Q200.255 1284.74 197.848 1284 L197.848 1279.3 Q199.931 1280.44 202.153 1280.99 Q204.375 1281.55 206.852 1281.55 Q210.857 1281.55 213.195 1279.44 Q215.533 1277.33 215.533 1273.72 Q215.533 1270.11 213.195 1268.01 Q210.857 1265.9 206.852 1265.9 Q204.977 1265.9 203.102 1266.32 Q201.25 1266.73 199.306 1267.61 L199.306 1250.25 Z" fill="#000000" fill-rule="nonzero" fill-opacity="1" /><path clip-path="url(#clip350)" d="M239.422 1253.33 Q235.81 1253.33 233.982 1256.9 Q232.176 1260.44 232.176 1267.57 Q232.176 1274.67 233.982 1278.24 Q235.81 1281.78 239.422 1281.78 Q243.056 1281.78 244.861 1278.24 Q246.69 1274.67 246.69 1267.57 Q246.69 1260.44 244.861 1256.9 Q243.056 1253.33 239.422 1253.33 M239.422 1249.63 Q245.232 1249.63 248.287 1254.23 Q251.366 1258.82 251.366 1267.57 Q251.366 1276.29 248.287 1280.9 Q245.232 1285.48 239.422 1285.48 Q233.611 1285.48 230.533 1280.9 Q227.477 1276.29 227.477 1267.57 Q227.477 1258.82 230.533 1254.23 Q233.611 1249.63 239.422 1249.63 Z" fill="#000000" fill-rule="nonzero" fill-opacity="1" /><path clip-path="url(#clip350)" d="M287.755 1259.35 L277.176 1269.97 L287.755 1280.55 L285 1283.35 L274.375 1272.73 L263.75 1283.35 L261.019 1280.55 L271.574 1269.97 L261.019 1259.35 L263.75 1256.55 L274.375 1267.17 L285 1256.55 L287.755 1259.35 Z" fill="#000000" fill-rule="nonzero" fill-opacity="1" /><path clip-path="url(#clip350)" d="M300.116 1280.88 L307.754 1280.88 L307.754 1254.51 L299.444 1256.18 L299.444 1251.92 L307.708 1250.25 L312.384 1250.25 L312.384 1280.88 L320.023 1280.88 L320.023 1284.81 L300.116 1284.81 L300.116 1280.88 Z" fill="#000000" fill-rule="nonzero" fill-opacity="1" /><path clip-path="url(#clip350)" d="M339.467 1253.33 Q335.856 1253.33 334.027 1256.9 Q332.222 1260.44 332.222 1267.57 Q332.222 1274.67 334.027 1278.24 Q335.856 1281.78 339.467 1281.78 Q343.102 1281.78 344.907 1278.24 Q346.736 1274.67 346.736 1267.57 Q346.736 1260.44 344.907 1256.9 Q343.102 1253.33 339.467 1253.33 M339.467 1249.63 Q345.277 1249.63 348.333 1254.23 Q351.412 1258.82 351.412 1267.57 Q351.412 1276.29 348.333 1280.9 Q345.277 1285.48 339.467 1285.48 Q333.657 1285.48 330.578 1280.9 Q327.523 1276.29 327.523 1267.57 Q327.523 1258.82 330.578 1254.23 Q333.657 1249.63 339.467 1249.63 Z" fill="#000000" fill-rule="nonzero" fill-opacity="1" /><path clip-path="url(#clip350)" d="M361.041 1244.07 Q358.333 1244.07 356.772 1245.51 Q355.23 1246.96 355.23 1249.5 Q355.23 1252.04 356.772 1253.49 Q358.333 1254.94 361.041 1254.94 Q363.75 1254.94 365.311 1253.49 Q366.872 1252.02 366.872 1249.5 Q366.872 1246.96 365.311 1245.51 Q363.768 1244.07 361.041 1244.07 M357.242 1242.45 Q354.797 1241.85 353.424 1240.17 Q352.07 1238.5 352.07 1236.09 Q352.07 1232.73 354.459 1230.77 Q356.866 1228.81 361.041 1228.81 Q365.235 1228.81 367.624 1230.77 Q370.013 1232.73 370.013 1236.09 Q370.013 1238.5 368.64 1240.17 Q367.285 1241.85 364.859 1242.45 Q367.605 1243.09 369.129 1244.95 Q370.671 1246.81 370.671 1249.5 Q370.671 1253.58 368.169 1255.77 Q365.687 1257.95 361.041 1257.95 Q356.396 1257.95 353.894 1255.77 Q351.412 1253.58 351.412 1249.5 Q351.412 1246.81 352.954 1244.95 Q354.496 1243.09 357.242 1242.45 M355.85 1236.45 Q355.85 1238.63 357.204 1239.85 Q358.577 1241.08 361.041 1241.08 Q363.486 1241.08 364.859 1239.85 Q366.251 1238.63 366.251 1236.45 Q366.251 1234.27 364.859 1233.05 Q363.486 1231.82 361.041 1231.82 Q358.577 1231.82 357.204 1233.05 Q355.85 1234.27 355.85 1236.45 Z" fill="#000000" fill-rule="nonzero" fill-opacity="1" /><path clip-path="url(#clip350)" d="M114.26 1100.74 L143.936 1100.74 L143.936 1104.67 L114.26 1104.67 L114.26 1100.74 Z" fill="#000000" fill-rule="nonzero" fill-opacity="1" /><path clip-path="url(#clip350)" d="M154.075 1083 L172.431 1083 L172.431 1086.94 L158.357 1086.94 L158.357 1095.41 Q159.376 1095.07 160.394 1094.9 Q161.413 1094.72 162.431 1094.72 Q168.218 1094.72 171.598 1097.89 Q174.977 1101.06 174.977 1106.48 Q174.977 1112.06 171.505 1115.16 Q168.033 1118.24 161.714 1118.24 Q159.538 1118.24 157.269 1117.87 Q155.024 1117.5 152.616 1116.75 L152.616 1112.06 Q154.7 1113.19 156.922 1113.75 Q159.144 1114.3 161.621 1114.3 Q165.626 1114.3 167.964 1112.19 Q170.302 1110.09 170.302 1106.48 Q170.302 1102.87 167.964 1100.76 Q165.626 1098.65 161.621 1098.65 Q159.746 1098.65 157.871 1099.07 Q156.019 1099.49 154.075 1100.37 L154.075 1083 Z" fill="#000000" fill-rule="nonzero" fill-opacity="1" /><path clip-path="url(#clip350)" d="M184.19 1111.69 L189.075 1111.69 L189.075 1117.56 L184.19 1117.56 L184.19 1111.69 Z" fill="#000000" fill-rule="nonzero" fill-opacity="1" /><path clip-path="url(#clip350)" d="M209.26 1086.08 Q205.649 1086.08 203.82 1089.65 Q202.014 1093.19 202.014 1100.32 Q202.014 1107.43 203.82 1110.99 Q205.649 1114.53 209.26 1114.53 Q212.894 1114.53 214.699 1110.99 Q216.528 1107.43 216.528 1100.32 Q216.528 1093.19 214.699 1089.65 Q212.894 1086.08 209.26 1086.08 M209.26 1082.38 Q215.07 1082.38 218.125 1086.99 Q221.204 1091.57 221.204 1100.32 Q221.204 1109.05 218.125 1113.65 Q215.07 1118.24 209.26 1118.24 Q203.449 1118.24 200.371 1113.65 Q197.315 1109.05 197.315 1100.32 Q197.315 1091.57 200.371 1086.99 Q203.449 1082.38 209.26 1082.38 Z" fill="#000000" fill-rule="nonzero" fill-opacity="1" /><path clip-path="url(#clip350)" d="M239.422 1086.08 Q235.81 1086.08 233.982 1089.65 Q232.176 1093.19 232.176 1100.32 Q232.176 1107.43 233.982 1110.99 Q235.81 1114.53 239.422 1114.53 Q243.056 1114.53 244.861 1110.99 Q246.69 1107.43 246.69 1100.32 Q246.69 1093.19 244.861 1089.65 Q243.056 1086.08 239.422 1086.08 M239.422 1082.38 Q245.232 1082.38 248.287 1086.99 Q251.366 1091.57 251.366 1100.32 Q251.366 1109.05 248.287 1113.65 Q245.232 1118.24 239.422 1118.24 Q233.611 1118.24 230.533 1113.65 Q227.477 1109.05 227.477 1100.32 Q227.477 1091.57 230.533 1086.99 Q233.611 1082.38 239.422 1082.38 Z" fill="#000000" fill-rule="nonzero" fill-opacity="1" /><path clip-path="url(#clip350)" d="M287.755 1092.1 L277.176 1102.73 L287.755 1113.31 L285 1116.11 L274.375 1105.48 L263.75 1116.11 L261.019 1113.31 L271.574 1102.73 L261.019 1092.1 L263.75 1089.3 L274.375 1099.93 L285 1089.3 L287.755 1092.1 Z" fill="#000000" fill-rule="nonzero" fill-opacity="1" /><path clip-path="url(#clip350)" d="M300.116 1113.63 L307.754 1113.63 L307.754 1087.26 L299.444 1088.93 L299.444 1084.67 L307.708 1083 L312.384 1083 L312.384 1113.63 L320.023 1113.63 L320.023 1117.56 L300.116 1117.56 L300.116 1113.63 Z" fill="#000000" fill-rule="nonzero" fill-opacity="1" /><path clip-path="url(#clip350)" d="M339.467 1086.08 Q335.856 1086.08 334.027 1089.65 Q332.222 1093.19 332.222 1100.32 Q332.222 1107.43 334.027 1110.99 Q335.856 1114.53 339.467 1114.53 Q343.102 1114.53 344.907 1110.99 Q346.736 1107.43 346.736 1100.32 Q346.736 1093.19 344.907 1089.65 Q343.102 1086.08 339.467 1086.08 M339.467 1082.38 Q345.277 1082.38 348.333 1086.99 Q351.412 1091.57 351.412 1100.32 Q351.412 1109.05 348.333 1113.65 Q345.277 1118.24 339.467 1118.24 Q333.657 1118.24 330.578 1113.65 Q327.523 1109.05 327.523 1100.32 Q327.523 1091.57 330.578 1086.99 Q333.657 1082.38 339.467 1082.38 Z" fill="#000000" fill-rule="nonzero" fill-opacity="1" /><path clip-path="url(#clip350)" d="M361.041 1076.82 Q358.333 1076.82 356.772 1078.27 Q355.23 1079.72 355.23 1082.26 Q355.23 1084.79 356.772 1086.24 Q358.333 1087.69 361.041 1087.69 Q363.75 1087.69 365.311 1086.24 Q366.872 1084.78 366.872 1082.26 Q366.872 1079.72 365.311 1078.27 Q363.768 1076.82 361.041 1076.82 M357.242 1075.2 Q354.797 1074.6 353.424 1072.93 Q352.07 1071.25 352.07 1068.85 Q352.07 1065.48 354.459 1063.52 Q356.866 1061.57 361.041 1061.57 Q365.235 1061.57 367.624 1063.52 Q370.013 1065.48 370.013 1068.85 Q370.013 1071.25 368.64 1072.93 Q367.285 1074.6 364.859 1075.2 Q367.605 1075.84 369.129 1077.7 Q370.671 1079.57 370.671 1082.26 Q370.671 1086.34 368.169 1088.52 Q365.687 1090.7 361.041 1090.7 Q356.396 1090.7 353.894 1088.52 Q351.412 1086.34 351.412 1082.26 Q351.412 1079.57 352.954 1077.7 Q354.496 1075.84 357.242 1075.2 M355.85 1069.2 Q355.85 1071.38 357.204 1072.61 Q358.577 1073.83 361.041 1073.83 Q363.486 1073.83 364.859 1072.61 Q366.251 1071.38 366.251 1069.2 Q366.251 1067.02 364.859 1065.8 Q363.486 1064.58 361.041 1064.58 Q358.577 1064.58 357.204 1065.8 Q355.85 1067.02 355.85 1069.2 Z" fill="#000000" fill-rule="nonzero" fill-opacity="1" /><path clip-path="url(#clip350)" d="M114.26 933.49 L143.936 933.49 L143.936 937.425 L114.26 937.425 L114.26 933.49 Z" fill="#000000" fill-rule="nonzero" fill-opacity="1" /><path clip-path="url(#clip350)" d="M158.056 946.383 L174.376 946.383 L174.376 950.318 L152.431 950.318 L152.431 946.383 Q155.093 943.628 159.677 938.999 Q164.283 934.346 165.464 933.003 Q167.709 930.48 168.589 928.744 Q169.491 926.985 169.491 925.295 Q169.491 922.54 167.547 920.804 Q165.626 919.068 162.524 919.068 Q160.325 919.068 157.871 919.832 Q155.44 920.596 152.663 922.147 L152.663 917.425 Q155.487 916.291 157.94 915.712 Q160.394 915.133 162.431 915.133 Q167.802 915.133 170.996 917.818 Q174.19 920.503 174.19 924.994 Q174.19 927.124 173.38 929.045 Q172.593 930.943 170.487 933.536 Q169.908 934.207 166.806 937.425 Q163.704 940.619 158.056 946.383 Z" fill="#000000" fill-rule="nonzero" fill-opacity="1" /><path clip-path="url(#clip350)" d="M184.19 944.439 L189.075 944.439 L189.075 950.318 L184.19 950.318 L184.19 944.439 Z" fill="#000000" fill-rule="nonzero" fill-opacity="1" /><path clip-path="url(#clip350)" d="M199.306 915.758 L217.662 915.758 L217.662 919.693 L203.588 919.693 L203.588 928.165 Q204.607 927.818 205.625 927.656 Q206.644 927.471 207.662 927.471 Q213.449 927.471 216.829 930.642 Q220.209 933.814 220.209 939.23 Q220.209 944.809 216.736 947.911 Q213.264 950.989 206.945 950.989 Q204.769 950.989 202.5 950.619 Q200.255 950.249 197.848 949.508 L197.848 944.809 Q199.931 945.943 202.153 946.499 Q204.375 947.054 206.852 947.054 Q210.857 947.054 213.195 944.948 Q215.533 942.841 215.533 939.23 Q215.533 935.619 213.195 933.513 Q210.857 931.406 206.852 931.406 Q204.977 931.406 203.102 931.823 Q201.25 932.24 199.306 933.119 L199.306 915.758 Z" fill="#000000" fill-rule="nonzero" fill-opacity="1" /><path clip-path="url(#clip350)" d="M239.422 918.837 Q235.81 918.837 233.982 922.402 Q232.176 925.943 232.176 933.073 Q232.176 940.179 233.982 943.744 Q235.81 947.286 239.422 947.286 Q243.056 947.286 244.861 943.744 Q246.69 940.179 246.69 933.073 Q246.69 925.943 244.861 922.402 Q243.056 918.837 239.422 918.837 M239.422 915.133 Q245.232 915.133 248.287 919.74 Q251.366 924.323 251.366 933.073 Q251.366 941.8 248.287 946.406 Q245.232 950.989 239.422 950.989 Q233.611 950.989 230.533 946.406 Q227.477 941.8 227.477 933.073 Q227.477 924.323 230.533 919.74 Q233.611 915.133 239.422 915.133 Z" fill="#000000" fill-rule="nonzero" fill-opacity="1" /><path clip-path="url(#clip350)" d="M287.755 924.855 L277.176 935.48 L287.755 946.059 L285 948.86 L274.375 938.235 L263.75 948.86 L261.019 946.059 L271.574 935.48 L261.019 924.855 L263.75 922.054 L274.375 932.679 L285 922.054 L287.755 924.855 Z" fill="#000000" fill-rule="nonzero" fill-opacity="1" /><path clip-path="url(#clip350)" d="M300.116 946.383 L307.754 946.383 L307.754 920.017 L299.444 921.684 L299.444 917.425 L307.708 915.758 L312.384 915.758 L312.384 946.383 L320.023 946.383 L320.023 950.318 L300.116 950.318 L300.116 946.383 Z" fill="#000000" fill-rule="nonzero" fill-opacity="1" /><path clip-path="url(#clip350)" d="M339.467 918.837 Q335.856 918.837 334.027 922.402 Q332.222 925.943 332.222 933.073 Q332.222 940.179 334.027 943.744 Q335.856 947.286 339.467 947.286 Q343.102 947.286 344.907 943.744 Q346.736 940.179 346.736 933.073 Q346.736 925.943 344.907 922.402 Q343.102 918.837 339.467 918.837 M339.467 915.133 Q345.277 915.133 348.333 919.74 Q351.412 924.323 351.412 933.073 Q351.412 941.8 348.333 946.406 Q345.277 950.989 339.467 950.989 Q333.657 950.989 330.578 946.406 Q327.523 941.8 327.523 933.073 Q327.523 924.323 330.578 919.74 Q333.657 915.133 339.467 915.133 Z" fill="#000000" fill-rule="nonzero" fill-opacity="1" /><path clip-path="url(#clip350)" d="M361.041 909.573 Q358.333 909.573 356.772 911.021 Q355.23 912.469 355.23 915.008 Q355.23 917.548 356.772 918.996 Q358.333 920.444 361.041 920.444 Q363.75 920.444 365.311 918.996 Q366.872 917.529 366.872 915.008 Q366.872 912.469 365.311 911.021 Q363.768 909.573 361.041 909.573 M357.242 907.956 Q354.797 907.354 353.424 905.68 Q352.07 904.006 352.07 901.599 Q352.07 898.232 354.459 896.276 Q356.866 894.32 361.041 894.32 Q365.235 894.32 367.624 896.276 Q370.013 898.232 370.013 901.599 Q370.013 904.006 368.64 905.68 Q367.285 907.354 364.859 907.956 Q367.605 908.595 369.129 910.457 Q370.671 912.319 370.671 915.008 Q370.671 919.09 368.169 921.271 Q365.687 923.453 361.041 923.453 Q356.396 923.453 353.894 921.271 Q351.412 919.09 351.412 915.008 Q351.412 912.319 352.954 910.457 Q354.496 908.595 357.242 907.956 M355.85 901.956 Q355.85 904.138 357.204 905.36 Q358.577 906.583 361.041 906.583 Q363.486 906.583 364.859 905.36 Q366.251 904.138 366.251 901.956 Q366.251 899.774 364.859 898.552 Q363.486 897.329 361.041 897.329 Q358.577 897.329 357.204 898.552 Q355.85 899.774 355.85 901.956 Z" fill="#000000" fill-rule="nonzero" fill-opacity="1" /><path clip-path="url(#clip350)" d="M358.726 745.142 Q355.115 745.142 353.287 748.707 Q351.481 752.249 351.481 759.378 Q351.481 766.485 353.287 770.05 Q355.115 773.591 358.726 773.591 Q362.361 773.591 364.166 770.05 Q365.995 766.485 365.995 759.378 Q365.995 752.249 364.166 748.707 Q362.361 745.142 358.726 745.142 M358.726 741.439 Q364.537 741.439 367.592 746.045 Q370.671 750.628 370.671 759.378 Q370.671 768.105 367.592 772.712 Q364.537 777.295 358.726 777.295 Q352.916 777.295 349.838 772.712 Q346.782 768.105 346.782 759.378 Q346.782 750.628 349.838 746.045 Q352.916 741.439 358.726 741.439 Z" fill="#000000" fill-rule="nonzero" fill-opacity="1" /><path clip-path="url(#clip350)" d="M158.056 611.889 L174.376 611.889 L174.376 615.825 L152.431 615.825 L152.431 611.889 Q155.093 609.135 159.677 604.505 Q164.283 599.852 165.464 598.51 Q167.709 595.987 168.589 594.251 Q169.491 592.491 169.491 590.801 Q169.491 588.047 167.547 586.311 Q165.626 584.575 162.524 584.575 Q160.325 584.575 157.871 585.339 Q155.44 586.102 152.663 587.653 L152.663 582.931 Q155.487 581.797 157.94 581.218 Q160.394 580.64 162.431 580.64 Q167.802 580.64 170.996 583.325 Q174.19 586.01 174.19 590.501 Q174.19 592.63 173.38 594.551 Q172.593 596.45 170.487 599.042 Q169.908 599.713 166.806 602.931 Q163.704 606.125 158.056 611.889 Z" fill="#000000" fill-rule="nonzero" fill-opacity="1" /><path clip-path="url(#clip350)" d="M184.19 609.945 L189.075 609.945 L189.075 615.825 L184.19 615.825 L184.19 609.945 Z" fill="#000000" fill-rule="nonzero" fill-opacity="1" /><path clip-path="url(#clip350)" d="M199.306 581.265 L217.662 581.265 L217.662 585.2 L203.588 585.2 L203.588 593.672 Q204.607 593.325 205.625 593.163 Q206.644 592.977 207.662 592.977 Q213.449 592.977 216.829 596.149 Q220.209 599.32 220.209 604.737 Q220.209 610.315 216.736 613.417 Q213.264 616.496 206.945 616.496 Q204.769 616.496 202.5 616.125 Q200.255 615.755 197.848 615.014 L197.848 610.315 Q199.931 611.45 202.153 612.005 Q204.375 612.561 206.852 612.561 Q210.857 612.561 213.195 610.454 Q215.533 608.348 215.533 604.737 Q215.533 601.126 213.195 599.019 Q210.857 596.913 206.852 596.913 Q204.977 596.913 203.102 597.329 Q201.25 597.746 199.306 598.626 L199.306 581.265 Z" fill="#000000" fill-rule="nonzero" fill-opacity="1" /><path clip-path="url(#clip350)" d="M239.422 584.343 Q235.81 584.343 233.982 587.908 Q232.176 591.45 232.176 598.579 Q232.176 605.686 233.982 609.25 Q235.81 612.792 239.422 612.792 Q243.056 612.792 244.861 609.25 Q246.69 605.686 246.69 598.579 Q246.69 591.45 244.861 587.908 Q243.056 584.343 239.422 584.343 M239.422 580.64 Q245.232 580.64 248.287 585.246 Q251.366 589.829 251.366 598.579 Q251.366 607.306 248.287 611.912 Q245.232 616.496 239.422 616.496 Q233.611 616.496 230.533 611.912 Q227.477 607.306 227.477 598.579 Q227.477 589.829 230.533 585.246 Q233.611 580.64 239.422 580.64 Z" fill="#000000" fill-rule="nonzero" fill-opacity="1" /><path clip-path="url(#clip350)" d="M287.755 590.362 L277.176 600.987 L287.755 611.565 L285 614.366 L274.375 603.741 L263.75 614.366 L261.019 611.565 L271.574 600.987 L261.019 590.362 L263.75 587.561 L274.375 598.186 L285 587.561 L287.755 590.362 Z" fill="#000000" fill-rule="nonzero" fill-opacity="1" /><path clip-path="url(#clip350)" d="M300.116 611.889 L307.754 611.889 L307.754 585.524 L299.444 587.19 L299.444 582.931 L307.708 581.265 L312.384 581.265 L312.384 611.889 L320.023 611.889 L320.023 615.825 L300.116 615.825 L300.116 611.889 Z" fill="#000000" fill-rule="nonzero" fill-opacity="1" /><path clip-path="url(#clip350)" d="M339.467 584.343 Q335.856 584.343 334.027 587.908 Q332.222 591.45 332.222 598.579 Q332.222 605.686 334.027 609.25 Q335.856 612.792 339.467 612.792 Q343.102 612.792 344.907 609.25 Q346.736 605.686 346.736 598.579 Q346.736 591.45 344.907 587.908 Q343.102 584.343 339.467 584.343 M339.467 580.64 Q345.277 580.64 348.333 585.246 Q351.412 589.829 351.412 598.579 Q351.412 607.306 348.333 611.912 Q345.277 616.496 339.467 616.496 Q333.657 616.496 330.578 611.912 Q327.523 607.306 327.523 598.579 Q327.523 589.829 330.578 585.246 Q333.657 580.64 339.467 580.64 Z" fill="#000000" fill-rule="nonzero" fill-opacity="1" /><path clip-path="url(#clip350)" d="M361.041 575.079 Q358.333 575.079 356.772 576.528 Q355.23 577.976 355.23 580.515 Q355.23 583.054 356.772 584.502 Q358.333 585.95 361.041 585.95 Q363.75 585.95 365.311 584.502 Q366.872 583.035 366.872 580.515 Q366.872 577.976 365.311 576.528 Q363.768 575.079 361.041 575.079 M357.242 573.462 Q354.797 572.86 353.424 571.186 Q352.07 569.512 352.07 567.105 Q352.07 563.738 354.459 561.782 Q356.866 559.826 361.041 559.826 Q365.235 559.826 367.624 561.782 Q370.013 563.738 370.013 567.105 Q370.013 569.512 368.64 571.186 Q367.285 572.86 364.859 573.462 Q367.605 574.101 369.129 575.963 Q370.671 577.825 370.671 580.515 Q370.671 584.596 368.169 586.778 Q365.687 588.96 361.041 588.96 Q356.396 588.96 353.894 586.778 Q351.412 584.596 351.412 580.515 Q351.412 577.825 352.954 575.963 Q354.496 574.101 357.242 573.462 M355.85 567.462 Q355.85 569.644 357.204 570.866 Q358.577 572.089 361.041 572.089 Q363.486 572.089 364.859 570.866 Q366.251 569.644 366.251 567.462 Q366.251 565.281 364.859 564.058 Q363.486 562.836 361.041 562.836 Q358.577 562.836 357.204 564.058 Q355.85 565.281 355.85 567.462 Z" fill="#000000" fill-rule="nonzero" fill-opacity="1" /><path clip-path="url(#clip350)" d="M154.075 414.018 L172.431 414.018 L172.431 417.953 L158.357 417.953 L158.357 426.425 Q159.376 426.078 160.394 425.916 Q161.413 425.731 162.431 425.731 Q168.218 425.731 171.598 428.902 Q174.977 432.073 174.977 437.49 Q174.977 443.068 171.505 446.17 Q168.033 449.249 161.714 449.249 Q159.538 449.249 157.269 448.879 Q155.024 448.508 152.616 447.768 L152.616 443.068 Q154.7 444.203 156.922 444.758 Q159.144 445.314 161.621 445.314 Q165.626 445.314 167.964 443.207 Q170.302 441.101 170.302 437.49 Q170.302 433.879 167.964 431.772 Q165.626 429.666 161.621 429.666 Q159.746 429.666 157.871 430.082 Q156.019 430.499 154.075 431.379 L154.075 414.018 Z" fill="#000000" fill-rule="nonzero" fill-opacity="1" /><path clip-path="url(#clip350)" d="M184.19 442.698 L189.075 442.698 L189.075 448.578 L184.19 448.578 L184.19 442.698 Z" fill="#000000" fill-rule="nonzero" fill-opacity="1" /><path clip-path="url(#clip350)" d="M209.26 417.096 Q205.649 417.096 203.82 420.661 Q202.014 424.203 202.014 431.332 Q202.014 438.439 203.82 442.004 Q205.649 445.545 209.26 445.545 Q212.894 445.545 214.699 442.004 Q216.528 438.439 216.528 431.332 Q216.528 424.203 214.699 420.661 Q212.894 417.096 209.26 417.096 M209.26 413.393 Q215.07 413.393 218.125 417.999 Q221.204 422.582 221.204 431.332 Q221.204 440.059 218.125 444.666 Q215.07 449.249 209.26 449.249 Q203.449 449.249 200.371 444.666 Q197.315 440.059 197.315 431.332 Q197.315 422.582 200.371 417.999 Q203.449 413.393 209.26 413.393 Z" fill="#000000" fill-rule="nonzero" fill-opacity="1" /><path clip-path="url(#clip350)" d="M239.422 417.096 Q235.81 417.096 233.982 420.661 Q232.176 424.203 232.176 431.332 Q232.176 438.439 233.982 442.004 Q235.81 445.545 239.422 445.545 Q243.056 445.545 244.861 442.004 Q246.69 438.439 246.69 431.332 Q246.69 424.203 244.861 420.661 Q243.056 417.096 239.422 417.096 M239.422 413.393 Q245.232 413.393 248.287 417.999 Q251.366 422.582 251.366 431.332 Q251.366 440.059 248.287 444.666 Q245.232 449.249 239.422 449.249 Q233.611 449.249 230.533 444.666 Q227.477 440.059 227.477 431.332 Q227.477 422.582 230.533 417.999 Q233.611 413.393 239.422 413.393 Z" fill="#000000" fill-rule="nonzero" fill-opacity="1" /><path clip-path="url(#clip350)" d="M287.755 423.115 L277.176 433.74 L287.755 444.318 L285 447.119 L274.375 436.494 L263.75 447.119 L261.019 444.318 L271.574 433.74 L261.019 423.115 L263.75 420.314 L274.375 430.939 L285 420.314 L287.755 423.115 Z" fill="#000000" fill-rule="nonzero" fill-opacity="1" /><path clip-path="url(#clip350)" d="M300.116 444.643 L307.754 444.643 L307.754 418.277 L299.444 419.944 L299.444 415.684 L307.708 414.018 L312.384 414.018 L312.384 444.643 L320.023 444.643 L320.023 448.578 L300.116 448.578 L300.116 444.643 Z" fill="#000000" fill-rule="nonzero" fill-opacity="1" /><path clip-path="url(#clip350)" d="M339.467 417.096 Q335.856 417.096 334.027 420.661 Q332.222 424.203 332.222 431.332 Q332.222 438.439 334.027 442.004 Q335.856 445.545 339.467 445.545 Q343.102 445.545 344.907 442.004 Q346.736 438.439 346.736 431.332 Q346.736 424.203 344.907 420.661 Q343.102 417.096 339.467 417.096 M339.467 413.393 Q345.277 413.393 348.333 417.999 Q351.412 422.582 351.412 431.332 Q351.412 440.059 348.333 444.666 Q345.277 449.249 339.467 449.249 Q333.657 449.249 330.578 444.666 Q327.523 440.059 327.523 431.332 Q327.523 422.582 330.578 417.999 Q333.657 413.393 339.467 413.393 Z" fill="#000000" fill-rule="nonzero" fill-opacity="1" /><path clip-path="url(#clip350)" d="M361.041 407.833 Q358.333 407.833 356.772 409.281 Q355.23 410.729 355.23 413.268 Q355.23 415.807 356.772 417.255 Q358.333 418.703 361.041 418.703 Q363.75 418.703 365.311 417.255 Q366.872 415.788 366.872 413.268 Q366.872 410.729 365.311 409.281 Q363.768 407.833 361.041 407.833 M357.242 406.215 Q354.797 405.613 353.424 403.939 Q352.07 402.265 352.07 399.858 Q352.07 396.492 354.459 394.536 Q356.866 392.579 361.041 392.579 Q365.235 392.579 367.624 394.536 Q370.013 396.492 370.013 399.858 Q370.013 402.265 368.64 403.939 Q367.285 405.613 364.859 406.215 Q367.605 406.855 369.129 408.717 Q370.671 410.579 370.671 413.268 Q370.671 417.349 368.169 419.531 Q365.687 421.713 361.041 421.713 Q356.396 421.713 353.894 419.531 Q351.412 417.349 351.412 413.268 Q351.412 410.579 352.954 408.717 Q354.496 406.855 357.242 406.215 M355.85 400.215 Q355.85 402.397 357.204 403.62 Q358.577 404.842 361.041 404.842 Q363.486 404.842 364.859 403.62 Q366.251 402.397 366.251 400.215 Q366.251 398.034 364.859 396.811 Q363.486 395.589 361.041 395.589 Q358.577 395.589 357.204 396.811 Q355.85 398.034 355.85 400.215 Z" fill="#000000" fill-rule="nonzero" fill-opacity="1" /><path clip-path="url(#clip350)" d="M152.848 246.771 L175.07 246.771 L175.07 248.762 L162.524 281.331 L157.64 281.331 L169.445 250.706 L152.848 250.706 L152.848 246.771 Z" fill="#000000" fill-rule="nonzero" fill-opacity="1" /><path clip-path="url(#clip350)" d="M184.19 275.451 L189.075 275.451 L189.075 281.331 L184.19 281.331 L184.19 275.451 Z" fill="#000000" fill-rule="nonzero" fill-opacity="1" /><path clip-path="url(#clip350)" d="M199.306 246.771 L217.662 246.771 L217.662 250.706 L203.588 250.706 L203.588 259.178 Q204.607 258.831 205.625 258.669 Q206.644 258.484 207.662 258.484 Q213.449 258.484 216.829 261.655 Q220.209 264.826 220.209 270.243 Q220.209 275.822 216.736 278.924 Q213.264 282.002 206.945 282.002 Q204.769 282.002 202.5 281.632 Q200.255 281.261 197.848 280.521 L197.848 275.822 Q199.931 276.956 202.153 277.511 Q204.375 278.067 206.852 278.067 Q210.857 278.067 213.195 275.961 Q215.533 273.854 215.533 270.243 Q215.533 266.632 213.195 264.525 Q210.857 262.419 206.852 262.419 Q204.977 262.419 203.102 262.836 Q201.25 263.252 199.306 264.132 L199.306 246.771 Z" fill="#000000" fill-rule="nonzero" fill-opacity="1" /><path clip-path="url(#clip350)" d="M239.422 249.85 Q235.81 249.85 233.982 253.414 Q232.176 256.956 232.176 264.086 Q232.176 271.192 233.982 274.757 Q235.81 278.299 239.422 278.299 Q243.056 278.299 244.861 274.757 Q246.69 271.192 246.69 264.086 Q246.69 256.956 244.861 253.414 Q243.056 249.85 239.422 249.85 M239.422 246.146 Q245.232 246.146 248.287 250.752 Q251.366 255.336 251.366 264.086 Q251.366 272.812 248.287 277.419 Q245.232 282.002 239.422 282.002 Q233.611 282.002 230.533 277.419 Q227.477 272.812 227.477 264.086 Q227.477 255.336 230.533 250.752 Q233.611 246.146 239.422 246.146 Z" fill="#000000" fill-rule="nonzero" fill-opacity="1" /><path clip-path="url(#clip350)" d="M287.755 255.868 L277.176 266.493 L287.755 277.072 L285 279.873 L274.375 269.248 L263.75 279.873 L261.019 277.072 L271.574 266.493 L261.019 255.868 L263.75 253.067 L274.375 263.692 L285 253.067 L287.755 255.868 Z" fill="#000000" fill-rule="nonzero" fill-opacity="1" /><path clip-path="url(#clip350)" d="M300.116 277.396 L307.754 277.396 L307.754 251.03 L299.444 252.697 L299.444 248.438 L307.708 246.771 L312.384 246.771 L312.384 277.396 L320.023 277.396 L320.023 281.331 L300.116 281.331 L300.116 277.396 Z" fill="#000000" fill-rule="nonzero" fill-opacity="1" /><path clip-path="url(#clip350)" d="M339.467 249.85 Q335.856 249.85 334.027 253.414 Q332.222 256.956 332.222 264.086 Q332.222 271.192 334.027 274.757 Q335.856 278.299 339.467 278.299 Q343.102 278.299 344.907 274.757 Q346.736 271.192 346.736 264.086 Q346.736 256.956 344.907 253.414 Q343.102 249.85 339.467 249.85 M339.467 246.146 Q345.277 246.146 348.333 250.752 Q351.412 255.336 351.412 264.086 Q351.412 272.812 348.333 277.419 Q345.277 282.002 339.467 282.002 Q333.657 282.002 330.578 277.419 Q327.523 272.812 327.523 264.086 Q327.523 255.336 330.578 250.752 Q333.657 246.146 339.467 246.146 Z" fill="#000000" fill-rule="nonzero" fill-opacity="1" /><path clip-path="url(#clip350)" d="M361.041 240.586 Q358.333 240.586 356.772 242.034 Q355.23 243.482 355.23 246.021 Q355.23 248.56 356.772 250.008 Q358.333 251.457 361.041 251.457 Q363.75 251.457 365.311 250.008 Q366.872 248.541 366.872 246.021 Q366.872 243.482 365.311 242.034 Q363.768 240.586 361.041 240.586 M357.242 238.968 Q354.797 238.366 353.424 236.693 Q352.07 235.019 352.07 232.611 Q352.07 229.245 354.459 227.289 Q356.866 225.333 361.041 225.333 Q365.235 225.333 367.624 227.289 Q370.013 229.245 370.013 232.611 Q370.013 235.019 368.64 236.693 Q367.285 238.366 364.859 238.968 Q367.605 239.608 369.129 241.47 Q370.671 243.332 370.671 246.021 Q370.671 250.103 368.169 252.284 Q365.687 254.466 361.041 254.466 Q356.396 254.466 353.894 252.284 Q351.412 250.103 351.412 246.021 Q351.412 243.332 352.954 241.47 Q354.496 239.608 357.242 238.968 M355.85 232.969 Q355.85 235.15 357.204 236.373 Q358.577 237.595 361.041 237.595 Q363.486 237.595 364.859 236.373 Q366.251 235.15 366.251 232.969 Q366.251 230.787 364.859 229.564 Q363.486 228.342 361.041 228.342 Q358.577 228.342 357.204 229.564 Q355.85 230.787 355.85 232.969 Z" fill="#000000" fill-rule="nonzero" fill-opacity="1" /><path clip-path="url(#clip350)" d="M16.4842 869.64 L16.4842 862.734 L36.0269 849.557 L16.4842 836.475 L16.4842 829.568 L41.3741 846.374 L64.0042 846.374 L64.0042 852.835 L41.3741 852.835 L16.4842 869.64 Z" fill="#000000" fill-rule="nonzero" fill-opacity="1" /><path clip-path="url(#clip350)" d="M14.5426 788.764 Q21.8632 793.029 29.0246 795.098 Q36.186 797.167 43.5384 797.167 Q50.8908 797.167 58.1159 795.098 Q65.3091 792.997 72.5979 788.764 L72.5979 793.857 Q65.1182 798.631 57.8931 801.018 Q50.668 803.373 43.5384 803.373 Q36.4406 803.373 29.2474 801.018 Q22.0542 798.663 14.5426 793.857 L14.5426 788.764 Z" fill="#000000" fill-rule="nonzero" fill-opacity="1" /><path clip-path="url(#clip350)" d="M16.4842 777.147 L16.4842 770.717 L36.568 770.717 L16.4842 749.392 L16.4842 741.117 L38.6368 764.702 L64.0042 739.43 L64.0042 747.896 L41.1194 770.717 L64.0042 770.717 L64.0042 777.147 L16.4842 777.147 Z" fill="#000000" fill-rule="nonzero" fill-opacity="1" /><path clip-path="url(#clip350)" d="M16.4842 734.401 L16.4842 724.821 L48.8219 712.694 L16.4842 700.504 L16.4842 690.923 L64.0042 690.923 L64.0042 697.193 L22.277 697.193 L54.8694 709.447 L54.8694 715.909 L22.277 728.163 L64.0042 728.163 L64.0042 734.401 L16.4842 734.401 Z" fill="#000000" fill-rule="nonzero" fill-opacity="1" /><path clip-path="url(#clip350)" d="M14.5426 679.338 L14.5426 674.245 Q22.0542 669.471 29.2474 667.115 Q36.4406 664.728 43.5384 664.728 Q50.668 664.728 57.8931 667.115 Q65.1182 669.471 72.5979 674.245 L72.5979 679.338 Q65.3091 675.104 58.1159 673.036 Q50.8908 670.935 43.5384 670.935 Q36.186 670.935 29.0246 673.036 Q21.8632 675.104 14.5426 679.338 Z" fill="#000000" fill-rule="nonzero" fill-opacity="1" /><path clip-path="url(#clip350)" d="M804.06 12.096 L842.3 12.096 L842.3 18.9825 L812.242 18.9825 L812.242 36.8875 L841.044 36.8875 L841.044 43.7741 L812.242 43.7741 L812.242 65.6895 L843.029 65.6895 L843.029 72.576 L804.06 72.576 L804.06 12.096 Z" fill="#000000" fill-rule="nonzero" fill-opacity="1" /><path clip-path="url(#clip350)" d="M876.773 49.7694 Q867.74 49.7694 864.256 51.8354 Q860.772 53.9013 860.772 58.8839 Q860.772 62.8538 863.365 65.2034 Q865.998 67.5124 870.494 67.5124 Q876.692 67.5124 880.419 63.1374 Q884.187 58.7219 884.187 51.4303 L884.187 49.7694 L876.773 49.7694 M891.64 46.6907 L891.64 72.576 L884.187 72.576 L884.187 65.6895 Q881.634 69.8214 877.827 71.8063 Q874.019 73.7508 868.51 73.7508 Q861.542 73.7508 857.41 69.8619 Q853.319 65.9325 853.319 59.3701 Q853.319 51.7138 858.423 47.825 Q863.567 43.9361 873.735 43.9361 L884.187 43.9361 L884.187 43.2069 Q884.187 38.0623 880.784 35.2672 Q877.421 32.4315 871.305 32.4315 Q867.416 32.4315 863.729 33.3632 Q860.043 34.295 856.64 36.1584 L856.64 29.2718 Q860.732 27.692 864.58 26.9223 Q868.428 26.1121 872.074 26.1121 Q881.918 26.1121 886.779 31.2163 Q891.64 36.3204 891.64 46.6907 Z" fill="#000000" fill-rule="nonzero" fill-opacity="1" /><path clip-path="url(#clip350)" d="M933.283 34.1734 Q932.028 33.4443 930.529 33.1202 Q929.071 32.7556 927.288 32.7556 Q920.969 32.7556 917.566 36.8875 Q914.204 40.9789 914.204 48.6757 L914.204 72.576 L906.71 72.576 L906.71 27.2059 L914.204 27.2059 L914.204 34.2544 Q916.553 30.1225 920.321 28.1376 Q924.088 26.1121 929.476 26.1121 Q930.245 26.1121 931.177 26.2337 Q932.109 26.3147 933.243 26.5172 L933.283 34.1734 Z" fill="#000000" fill-rule="nonzero" fill-opacity="1" /><path clip-path="url(#clip350)" d="M948.474 14.324 L948.474 27.2059 L963.827 27.2059 L963.827 32.9987 L948.474 32.9987 L948.474 57.6282 Q948.474 63.1779 949.973 64.7578 Q951.513 66.3376 956.171 66.3376 L963.827 66.3376 L963.827 72.576 L956.171 72.576 Q947.543 72.576 944.261 69.3758 Q940.98 66.1351 940.98 57.6282 L940.98 32.9987 L935.511 32.9987 L935.511 27.2059 L940.98 27.2059 L940.98 14.324 L948.474 14.324 Z" fill="#000000" fill-rule="nonzero" fill-opacity="1" /><path clip-path="url(#clip350)" d="M1011.34 45.1919 L1011.34 72.576 L1003.89 72.576 L1003.89 45.4349 Q1003.89 38.994 1001.38 35.7938 Q998.868 32.5936 993.844 32.5936 Q987.809 32.5936 984.325 36.4419 Q980.841 40.2903 980.841 46.9338 L980.841 72.576 L973.347 72.576 L973.347 9.54393 L980.841 9.54393 L980.841 34.2544 Q983.515 30.163 987.12 28.1376 Q990.766 26.1121 995.505 26.1121 Q1003.32 26.1121 1007.33 30.9732 Q1011.34 35.7938 1011.34 45.1919 Z" fill="#000000" fill-rule="nonzero" fill-opacity="1" /><path clip-path="url(#clip350)" d="M1033.26 12.096 L1033.26 34.5785 L1026.37 34.5785 L1026.37 12.096 L1033.26 12.096 Z" fill="#000000" fill-rule="nonzero" fill-opacity="1" /><path clip-path="url(#clip350)" d="M1077.94 28.5427 L1077.94 35.5912 Q1074.78 33.9709 1071.38 33.1607 Q1067.98 32.3505 1064.33 32.3505 Q1058.78 32.3505 1055.99 34.0519 Q1053.23 35.7533 1053.23 39.156 Q1053.23 41.7486 1055.22 43.2475 Q1057.2 44.7058 1063.2 46.0426 L1065.75 46.6097 Q1073.69 48.3111 1077.01 51.4303 Q1080.37 54.509 1080.37 60.0587 Q1080.37 66.3781 1075.35 70.0644 Q1070.37 73.7508 1061.62 73.7508 Q1057.97 73.7508 1054 73.0216 Q1050.07 72.3329 1045.7 70.9151 L1045.7 63.2184 Q1049.83 65.3654 1053.84 66.4591 Q1057.85 67.5124 1061.78 67.5124 Q1067.04 67.5124 1069.88 65.73 Q1072.72 63.9071 1072.72 60.6258 Q1072.72 57.5877 1070.65 55.9673 Q1068.62 54.3469 1061.7 52.8481 L1059.1 52.2405 Q1052.18 50.7821 1049.1 47.7845 Q1046.02 44.7463 1046.02 39.4801 Q1046.02 33.0797 1050.56 29.5959 Q1055.09 26.1121 1063.44 26.1121 Q1067.57 26.1121 1071.22 26.7198 Q1074.86 27.3274 1077.94 28.5427 Z" fill="#000000" fill-rule="nonzero" fill-opacity="1" /><path clip-path="url(#clip350)" d="M1127.12 18.8205 L1127.12 41.5461 L1137.41 41.5461 Q1143.12 41.5461 1146.24 38.5889 Q1149.36 35.6318 1149.36 30.163 Q1149.36 24.7348 1146.24 21.7777 Q1143.12 18.8205 1137.41 18.8205 L1127.12 18.8205 M1118.94 12.096 L1137.41 12.096 Q1147.58 12.096 1152.76 16.714 Q1157.99 21.2916 1157.99 30.163 Q1157.99 39.1155 1152.76 43.6931 Q1147.58 48.2706 1137.41 48.2706 L1127.12 48.2706 L1127.12 72.576 L1118.94 72.576 L1118.94 12.096 Z" fill="#000000" fill-rule="nonzero" fill-opacity="1" /><path clip-path="url(#clip350)" d="M1183.26 32.4315 Q1177.27 32.4315 1173.79 37.1306 Q1170.3 41.7891 1170.3 49.9314 Q1170.3 58.0738 1173.75 62.7728 Q1177.23 67.4314 1183.26 67.4314 Q1189.22 67.4314 1192.7 62.7323 Q1196.19 58.0333 1196.19 49.9314 Q1196.19 41.8701 1192.7 37.1711 Q1189.22 32.4315 1183.26 32.4315 M1183.26 26.1121 Q1192.99 26.1121 1198.54 32.4315 Q1204.09 38.7509 1204.09 49.9314 Q1204.09 61.0714 1198.54 67.4314 Q1192.99 73.7508 1183.26 73.7508 Q1173.5 73.7508 1167.95 67.4314 Q1162.44 61.0714 1162.44 49.9314 Q1162.44 38.7509 1167.95 32.4315 Q1173.5 26.1121 1183.26 26.1121 Z" fill="#000000" fill-rule="nonzero" fill-opacity="1" /><path clip-path="url(#clip350)" d="M1245.37 28.5427 L1245.37 35.5912 Q1242.21 33.9709 1238.8 33.1607 Q1235.4 32.3505 1231.75 32.3505 Q1226.2 32.3505 1223.41 34.0519 Q1220.65 35.7533 1220.65 39.156 Q1220.65 41.7486 1222.64 43.2475 Q1224.62 44.7058 1230.62 46.0426 L1233.17 46.6097 Q1241.11 48.3111 1244.43 51.4303 Q1247.8 54.509 1247.8 60.0587 Q1247.8 66.3781 1242.77 70.0644 Q1237.79 73.7508 1229.04 73.7508 Q1225.39 73.7508 1221.42 73.0216 Q1217.49 72.3329 1213.12 70.9151 L1213.12 63.2184 Q1217.25 65.3654 1221.26 66.4591 Q1225.27 67.5124 1229.2 67.5124 Q1234.47 67.5124 1237.3 65.73 Q1240.14 63.9071 1240.14 60.6258 Q1240.14 57.5877 1238.07 55.9673 Q1236.05 54.3469 1229.12 52.8481 L1226.53 52.2405 Q1219.6 50.7821 1216.52 47.7845 Q1213.44 44.7463 1213.44 39.4801 Q1213.44 33.0797 1217.98 29.5959 Q1222.52 26.1121 1230.86 26.1121 Q1234.99 26.1121 1238.64 26.7198 Q1242.29 27.3274 1245.37 28.5427 Z" fill="#000000" fill-rule="nonzero" fill-opacity="1" /><path clip-path="url(#clip350)" d="M1259.66 27.2059 L1267.12 27.2059 L1267.12 72.576 L1259.66 72.576 L1259.66 27.2059 M1259.66 9.54393 L1267.12 9.54393 L1267.12 18.9825 L1259.66 18.9825 L1259.66 9.54393 Z" fill="#000000" fill-rule="nonzero" fill-opacity="1" /><path clip-path="url(#clip350)" d="M1290.09 14.324 L1290.09 27.2059 L1305.44 27.2059 L1305.44 32.9987 L1290.09 32.9987 L1290.09 57.6282 Q1290.09 63.1779 1291.59 64.7578 Q1293.13 66.3376 1297.78 66.3376 L1305.44 66.3376 L1305.44 72.576 L1297.78 72.576 Q1289.16 72.576 1285.87 69.3758 Q1282.59 66.1351 1282.59 57.6282 L1282.59 32.9987 L1277.12 32.9987 L1277.12 27.2059 L1282.59 27.2059 L1282.59 14.324 L1290.09 14.324 Z" fill="#000000" fill-rule="nonzero" fill-opacity="1" /><path clip-path="url(#clip350)" d="M1315.24 27.2059 L1322.7 27.2059 L1322.7 72.576 L1315.24 72.576 L1315.24 27.2059 M1315.24 9.54393 L1322.7 9.54393 L1322.7 18.9825 L1315.24 18.9825 L1315.24 9.54393 Z" fill="#000000" fill-rule="nonzero" fill-opacity="1" /><path clip-path="url(#clip350)" d="M1355.87 32.4315 Q1349.88 32.4315 1346.39 37.1306 Q1342.91 41.7891 1342.91 49.9314 Q1342.91 58.0738 1346.35 62.7728 Q1349.84 67.4314 1355.87 67.4314 Q1361.83 67.4314 1365.31 62.7323 Q1368.8 58.0333 1368.8 49.9314 Q1368.8 41.8701 1365.31 37.1711 Q1361.83 32.4315 1355.87 32.4315 M1355.87 26.1121 Q1365.6 26.1121 1371.15 32.4315 Q1376.7 38.7509 1376.7 49.9314 Q1376.7 61.0714 1371.15 67.4314 Q1365.6 73.7508 1355.87 73.7508 Q1346.11 73.7508 1340.56 67.4314 Q1335.05 61.0714 1335.05 49.9314 Q1335.05 38.7509 1340.56 32.4315 Q1346.11 26.1121 1355.87 26.1121 Z" fill="#000000" fill-rule="nonzero" fill-opacity="1" /><path clip-path="url(#clip350)" d="M1426.76 45.1919 L1426.76 72.576 L1419.31 72.576 L1419.31 45.4349 Q1419.31 38.994 1416.8 35.7938 Q1414.29 32.5936 1409.26 32.5936 Q1403.23 32.5936 1399.75 36.4419 Q1396.26 40.2903 1396.26 46.9338 L1396.26 72.576 L1388.77 72.576 L1388.77 27.2059 L1396.26 27.2059 L1396.26 34.2544 Q1398.93 30.163 1402.54 28.1376 Q1406.19 26.1121 1410.93 26.1121 Q1418.74 26.1121 1422.75 30.9732 Q1426.76 35.7938 1426.76 45.1919 Z" fill="#000000" fill-rule="nonzero" fill-opacity="1" /><path clip-path="url(#clip350)" d="M1463.67 27.2059 L1471.12 27.2059 L1480.44 62.6108 L1489.72 27.2059 L1498.51 27.2059 L1507.82 62.6108 L1517.1 27.2059 L1524.55 27.2059 L1512.68 72.576 L1503.89 72.576 L1494.13 35.3887 L1484.33 72.576 L1475.54 72.576 L1463.67 27.2059 Z" fill="#000000" fill-rule="nonzero" fill-opacity="1" /><path clip-path="url(#clip350)" d="M1529.29 62.2867 L1537.84 62.2867 L1537.84 72.576 L1529.29 72.576 L1529.29 62.2867 Z" fill="#000000" fill-rule="nonzero" fill-opacity="1" /><path clip-path="url(#clip350)" d="M1580.9 34.1734 Q1579.65 33.4443 1578.15 33.1202 Q1576.69 32.7556 1574.91 32.7556 Q1568.59 32.7556 1565.18 36.8875 Q1561.82 40.9789 1561.82 48.6757 L1561.82 72.576 L1554.33 72.576 L1554.33 27.2059 L1561.82 27.2059 L1561.82 34.2544 Q1564.17 30.1225 1567.94 28.1376 Q1571.71 26.1121 1577.09 26.1121 Q1577.86 26.1121 1578.8 26.2337 Q1579.73 26.3147 1580.86 26.5172 L1580.9 34.1734 Z" fill="#000000" fill-rule="nonzero" fill-opacity="1" /><path clip-path="url(#clip350)" d="M1582.16 62.2867 L1590.7 62.2867 L1590.7 72.576 L1582.16 72.576 L1582.16 62.2867 Z" fill="#000000" fill-rule="nonzero" fill-opacity="1" /><path clip-path="url(#clip350)" d="M1614.85 14.324 L1614.85 27.2059 L1630.2 27.2059 L1630.2 32.9987 L1614.85 32.9987 L1614.85 57.6282 Q1614.85 63.1779 1616.35 64.7578 Q1617.89 66.3376 1622.54 66.3376 L1630.2 66.3376 L1630.2 72.576 L1622.54 72.576 Q1613.92 72.576 1610.64 69.3758 Q1607.35 66.1351 1607.35 57.6282 L1607.35 32.9987 L1601.89 32.9987 L1601.89 27.2059 L1607.35 27.2059 L1607.35 14.324 L1614.85 14.324 Z" fill="#000000" fill-rule="nonzero" fill-opacity="1" /><path clip-path="url(#clip350)" d="M1641.06 62.2867 L1649.6 62.2867 L1649.6 72.576 L1641.06 72.576 L1641.06 62.2867 Z" fill="#000000" fill-rule="nonzero" fill-opacity="1" /><path clip-path="url(#clip350)" d="M1693.07 12.096 L1701.25 12.096 L1701.25 68.3631 Q1701.25 79.3005 1697.08 84.2426 Q1692.95 89.1847 1683.75 89.1847 L1680.63 89.1847 L1680.63 82.2982 L1683.19 82.2982 Q1688.62 82.2982 1690.84 79.26 Q1693.07 76.2218 1693.07 68.3631 L1693.07 12.096 Z" fill="#000000" fill-rule="nonzero" fill-opacity="1" /><path clip-path="url(#clip350)" d="M1716.44 54.671 L1716.44 27.2059 L1723.9 27.2059 L1723.9 54.3874 Q1723.9 60.8284 1726.41 64.0691 Q1728.92 67.2693 1733.94 67.2693 Q1739.98 67.2693 1743.46 63.421 Q1746.99 59.5726 1746.99 52.9291 L1746.99 27.2059 L1754.44 27.2059 L1754.44 72.576 L1746.99 72.576 L1746.99 65.6084 Q1744.27 69.7404 1740.67 71.7658 Q1737.1 73.7508 1732.36 73.7508 Q1724.55 73.7508 1720.5 68.8897 Q1716.44 64.0286 1716.44 54.671 M1735.2 26.1121 L1735.2 26.1121 Z" fill="#000000" fill-rule="nonzero" fill-opacity="1" /><path clip-path="url(#clip350)" d="M1777.01 65.7705 L1777.01 89.8329 L1769.51 89.8329 L1769.51 27.2059 L1777.01 27.2059 L1777.01 34.0924 Q1779.36 30.0415 1782.92 28.0971 Q1786.53 26.1121 1791.51 26.1121 Q1799.77 26.1121 1804.92 32.6746 Q1810.1 39.2371 1810.1 49.9314 Q1810.1 60.6258 1804.92 67.1883 Q1799.77 73.7508 1791.51 73.7508 Q1786.53 73.7508 1782.92 71.8063 Q1779.36 69.8214 1777.01 65.7705 M1802.36 49.9314 Q1802.36 41.7081 1798.96 37.0496 Q1795.6 32.3505 1789.69 32.3505 Q1783.77 32.3505 1780.37 37.0496 Q1777.01 41.7081 1777.01 49.9314 Q1777.01 58.1548 1780.37 62.8538 Q1783.77 67.5124 1789.69 67.5124 Q1795.6 67.5124 1798.96 62.8538 Q1802.36 58.1548 1802.36 49.9314 Z" fill="#000000" fill-rule="nonzero" fill-opacity="1" /><path clip-path="url(#clip350)" d="M1822.46 27.2059 L1829.91 27.2059 L1829.91 72.576 L1822.46 72.576 L1822.46 27.2059 M1822.46 9.54393 L1829.91 9.54393 L1829.91 18.9825 L1822.46 18.9825 L1822.46 9.54393 Z" fill="#000000" fill-rule="nonzero" fill-opacity="1" /><path clip-path="url(#clip350)" d="M1852.88 14.324 L1852.88 27.2059 L1868.23 27.2059 L1868.23 32.9987 L1852.88 32.9987 L1852.88 57.6282 Q1852.88 63.1779 1854.38 64.7578 Q1855.92 66.3376 1860.58 66.3376 L1868.23 66.3376 L1868.23 72.576 L1860.58 72.576 Q1851.95 72.576 1848.67 69.3758 Q1845.39 66.1351 1845.39 57.6282 L1845.39 32.9987 L1839.92 32.9987 L1839.92 27.2059 L1845.39 27.2059 L1845.39 14.324 L1852.88 14.324 Z" fill="#000000" fill-rule="nonzero" fill-opacity="1" /><path clip-path="url(#clip350)" d="M1916.84 48.0275 L1916.84 51.6733 L1882.57 51.6733 Q1883.06 59.3701 1887.19 63.421 Q1891.36 67.4314 1898.78 67.4314 Q1903.07 67.4314 1907.08 66.3781 Q1911.13 65.3249 1915.1 63.2184 L1915.1 70.267 Q1911.09 71.9684 1906.88 72.8596 Q1902.66 73.7508 1898.33 73.7508 Q1887.47 73.7508 1881.11 67.4314 Q1874.79 61.1119 1874.79 50.3365 Q1874.79 39.1965 1880.79 32.6746 Q1886.83 26.1121 1897.03 26.1121 Q1906.19 26.1121 1911.5 32.0264 Q1916.84 37.9003 1916.84 48.0275 M1909.39 45.84 Q1909.31 39.7232 1905.95 36.0774 Q1902.62 32.4315 1897.12 32.4315 Q1890.88 32.4315 1887.11 35.9558 Q1883.38 39.4801 1882.82 45.8805 L1909.39 45.84 Z" fill="#000000" fill-rule="nonzero" fill-opacity="1" /><path clip-path="url(#clip350)" d="M1955.37 34.1734 Q1954.11 33.4443 1952.61 33.1202 Q1951.15 32.7556 1949.37 32.7556 Q1943.05 32.7556 1939.65 36.8875 Q1936.29 40.9789 1936.29 48.6757 L1936.29 72.576 L1928.79 72.576 L1928.79 27.2059 L1936.29 27.2059 L1936.29 34.2544 Q1938.64 30.1225 1942.4 28.1376 Q1946.17 26.1121 1951.56 26.1121 Q1952.33 26.1121 1953.26 26.2337 Q1954.19 26.3147 1955.33 26.5172 L1955.37 34.1734 Z" fill="#000000" fill-rule="nonzero" fill-opacity="1" /><polyline clip-path="url(#clip351)" style="stroke:#009af9; stroke-linecap:round; stroke-linejoin:round; stroke-width:4; stroke-opacity:1; fill:none" points="767.504,553.923 791.697,555.12 812.504,551.424 828.295,543.502 837.657,532.297 839.56,518.911 833.345,504.635 818.844,490.801 796.35,478.798 766.678,469.9 731.093,465.278 691.279,465.821 649.226,472.164 607.11,484.54 567.149,502.858 531.438,526.603 501.825,554.973 479.759,586.843 466.247,620.94 461.749,655.84 466.236,690.149 479.142,722.5 499.499,751.71 525.921,776.763 556.788,796.921 590.233,811.69 624.35,820.895 657.165,824.63 686.858,823.296 711.715,817.547 730.35,808.292 741.64,796.632 744.935,783.827 739.971,771.223 727.04,760.187 706.862,752.029 680.7,747.906 650.16,748.76 617.241,755.224 584.071,767.598 552.894,785.785 525.791,809.344 504.655,837.458 490.952,869.067 485.741,902.869 489.517,937.488 502.296,971.485 523.551,1003.53 552.339,1032.37 587.312,1057.02 626.85,1076.69 669.117,1090.88 712.178,1099.35 754.085,1102.22 792.964,1099.83 827.116,1092.84 855.083,1082.1 875.748,1068.74 888.372,1053.98 892.692,1039.17 888.899,1025.68 877.719,1014.83 860.312,1007.8 838.307,1005.55 813.613,1008.75 788.405,1017.72 764.86,1032.42 745.135,1052.43 731.083,1076.97 724.266,1104.99 725.721,1135.22 736.045,1166.28 755.24,1196.75 782.875,1225.27 817.988,1250.61 859.309,1271.72 905.189,1287.82 953.848,1298.37 1003.32,1303.15 1051.67,1302.19 1097,1295.85 1137.6,1284.75 1171.97,1269.75 1198.97,1251.92 1217.82,1232.52 1228.2,1212.86 1230.27,1194.34 1224.7,1178.26 1212.62,1165.86 1195.6,1158.08 1175.54,1155.66 1154.59,1158.93 1134.94,1167.91 1118.73,1182.18 1107.89,1201.03 1103.96,1223.41 1108.07,1248.09 1120.81,1273.68 1142.29,1298.77 1172.06,1321.99 1209.26,1342.11 1252.58,1358.05 1300.46,1369.03 1351.08,1374.46 1402.53,1374.11 1452.83,1367.99 1500.12,1356.43 1542.61,1340.03 1578.83,1319.64 1607.57,1296.32 1628.05,1271.29 1639.87,1245.89 1643.18,1221.51 1638.57,1199.47 1627.17,1180.99 1610.48,1167.08 1590.41,1158.49 1569.06,1155.59 1548.66,1158.42 1531.32,1166.63 1519.03,1179.5 1513.35,1196.05 1515.47,1215.02 1526.01,1235.07 1545.14,1254.77 1572.45,1272.76 1607.13,1287.78 1647.9,1298.76 1693.22,1304.85 1741.29,1305.5 1790.2,1300.41 1838,1289.59 1882.78,1273.33 1922.78,1252.22 1956.48,1227.07 1982.65,1198.96 2000.45,1169.06 2009.49,1138.74 2009.82,1109.35 2002.05,1082.27 1987.21,1058.69 1966.82,1039.68 1942.72,1025.98 1917.03,1018.04 1891.94,1015.89 1869.64,1019.24 1852.07,1027.4 1840.9,1039.4 1837.3,1054.02 1842,1069.91 1855.16,1085.66 1876.47,1099.89 1905.11,1111.32 1939.88,1118.88 1979.24,1121.71 2021.43,1119.2 2064.53,1111.05 2106.61,1097.23 2145.73,1078.03 2180.15,1053.99 2208.28,1025.93 2228.92,994.856 2241.16,961.996 2244.58,928.656 2239.2,896.232 2225.56,866.056 2204.66,839.397 2178,817.288 2147.38,800.541 2114.92,789.596 2082.8,784.569 2053.22,785.152 2028.16,790.729 2009.29,800.32 1997.88,812.757 1994.66,826.667 1999.88,840.664 2013.24,853.34 2033.99,863.439 2060.94,869.833 2092.61,871.663 2127.23,868.285 2162.92,859.382 2197.71,844.892 2229.72,825.079 2257.12,800.456 2278.38,771.823 2292.19,740.177 2297.68,706.72 2294.32,672.76 2282.15,639.681 2261.63,608.834 2233.76,581.484 2199.94,558.705 2162.02,541.312 2122.03,529.801 2082.22,524.295 2044.74,524.55 2011.64,529.946 1984.59,539.563 1964.93,552.216 1953.42,566.579 1950.38,581.229 1955.53,594.793 1968.19,605.961 1987.2,613.627 2011.1,616.868 2038.14,615.06 2066.45,607.815 2094.08,595.086 2119.11,577.071 2139.75,554.297 2154.4,527.503 2161.76,497.705 2160.89,466.053 2151.27,433.882 2132.84,402.539 2106.07,373.411 2071.87,347.746 2031.67,326.663 1987.21,310.981 1940.58,301.244 1893.97,297.593 1849.58,299.831 1809.44,307.357 1775.32,319.285 1748.53,334.442 1729.95,351.514 1719.87,369.083 1718.14,385.762 1724.05,400.238 1736.53,411.377 1754.1,418.247 1775.09,420.179 1797.59,416.782 1819.69,407.957 1839.44,393.902 1855.06,375.09 1864.9,352.267 1867.66,326.397 1862.35,298.651 1848.43,270.314 1825.79,242.768 1794.86,217.363 1756.5,195.399 1712.1,177.97 1663.39,165.962 1612.43,159.909 1561.4,160.024 1512.52,166.101 1467.84,177.611 1429.15,193.653 1397.82,213.111 1374.75,234.643 1360.33,256.87 1354.4,278.365 1356.34,297.834 1365.08,314.094 1379.21,326.218 1397.03,333.488 1416.69,335.507 "/>
</svg>
