<?xml version="1.0" encoding="utf-8"?>
<svg xmlns="http://www.w3.org/2000/svg" xmlns:xlink="http://www.w3.org/1999/xlink" width="600" height="600" viewBox="0 0 2400 2400">
<defs>
  <clipPath id="clip710">
    <rect x="0" y="0" width="2400" height="2400"/>
  </clipPath>
</defs>
<defs>
  <clipPath id="clip711">
    <rect x="480" y="240" width="1681" height="1681"/>
  </clipPath>
</defs>
<defs>
  <clipPath id="clip712">
    <rect x="362" y="47" width="1992" height="2128"/>
  </clipPath>
</defs>
<polyline clip-path="url(#clip710)" style="stroke:#000000; stroke-linecap:round; stroke-linejoin:round; stroke-width:4; stroke-opacity:1; fill:none" points="362.164,2174.14 2352.76,2174.14 "/>
<polyline clip-path="url(#clip710)" style="stroke:#000000; stroke-linecap:round; stroke-linejoin:round; stroke-width:4; stroke-opacity:1; fill:none" points="413.357,2174.14 413.357,2155.24 "/>
<polyline clip-path="url(#clip710)" style="stroke:#000000; stroke-linecap:round; stroke-linejoin:round; stroke-width:4; stroke-opacity:1; fill:none" points="927.855,2174.14 927.855,2155.24 "/>
<polyline clip-path="url(#clip710)" style="stroke:#000000; stroke-linecap:round; stroke-linejoin:round; stroke-width:4; stroke-opacity:1; fill:none" points="1442.35,2174.14 1442.35,2155.24 "/>
<polyline clip-path="url(#clip710)" style="stroke:#000000; stroke-linecap:round; stroke-linejoin:round; stroke-width:4; stroke-opacity:1; fill:none" points="1956.85,2174.14 1956.85,2155.24 "/>
<path clip-path="url(#clip710)" d="M413.357 2205.06 Q409.746 2205.06 407.917 2208.62 Q406.112 2212.16 406.112 2219.29 Q406.112 2226.4 407.917 2229.97 Q409.746 2233.51 413.357 2233.51 Q416.991 2233.51 418.797 2229.97 Q420.625 2226.4 420.625 2219.29 Q420.625 2212.16 418.797 2208.62 Q416.991 2205.06 413.357 2205.06 M413.357 2201.35 Q419.167 2201.35 422.223 2205.96 Q425.301 2210.54 425.301 2219.29 Q425.301 2228.02 422.223 2232.63 Q419.167 2237.21 413.357 2237.21 Q407.547 2237.21 404.468 2232.63 Q401.413 2228.02 401.413 2219.29 Q401.413 2210.54 404.468 2205.96 Q407.547 2201.35 413.357 2201.35 Z" fill="#000000" fill-rule="nonzero" fill-opacity="1" /><path clip-path="url(#clip710)" d="M887.461 2232.6 L895.1 2232.6 L895.1 2206.24 L886.79 2207.91 L886.79 2203.65 L895.054 2201.98 L899.73 2201.98 L899.73 2232.6 L907.369 2232.6 L907.369 2236.54 L887.461 2236.54 L887.461 2232.6 Z" fill="#000000" fill-rule="nonzero" fill-opacity="1" /><path clip-path="url(#clip710)" d="M926.813 2205.06 Q923.202 2205.06 921.373 2208.62 Q919.568 2212.16 919.568 2219.29 Q919.568 2226.4 921.373 2229.97 Q923.202 2233.51 926.813 2233.51 Q930.447 2233.51 932.253 2229.97 Q934.081 2226.4 934.081 2219.29 Q934.081 2212.16 932.253 2208.62 Q930.447 2205.06 926.813 2205.06 M926.813 2201.35 Q932.623 2201.35 935.679 2205.96 Q938.757 2210.54 938.757 2219.29 Q938.757 2228.02 935.679 2232.63 Q932.623 2237.21 926.813 2237.21 Q921.003 2237.21 917.924 2232.63 Q914.869 2228.02 914.869 2219.29 Q914.869 2210.54 917.924 2205.96 Q921.003 2201.35 926.813 2201.35 Z" fill="#000000" fill-rule="nonzero" fill-opacity="1" /><path clip-path="url(#clip710)" d="M956.975 2205.06 Q953.364 2205.06 951.535 2208.62 Q949.729 2212.16 949.729 2219.29 Q949.729 2226.4 951.535 2229.97 Q953.364 2233.51 956.975 2233.51 Q960.609 2233.51 962.415 2229.97 Q964.243 2226.4 964.243 2219.29 Q964.243 2212.16 962.415 2208.62 Q960.609 2205.06 956.975 2205.06 M956.975 2201.35 Q962.785 2201.35 965.841 2205.96 Q968.919 2210.54 968.919 2219.29 Q968.919 2228.02 965.841 2232.63 Q962.785 2237.21 956.975 2237.21 Q951.165 2237.21 948.086 2232.63 Q945.03 2228.02 945.03 2219.29 Q945.03 2210.54 948.086 2205.96 Q951.165 2201.35 956.975 2201.35 Z" fill="#000000" fill-rule="nonzero" fill-opacity="1" /><path clip-path="url(#clip710)" d="M1406.04 2232.6 L1422.36 2232.6 L1422.36 2236.54 L1400.42 2236.54 L1400.42 2232.6 Q1403.08 2229.85 1407.66 2225.22 Q1412.27 2220.57 1413.45 2219.23 Q1415.7 2216.7 1416.58 2214.97 Q1417.48 2213.21 1417.48 2211.52 Q1417.48 2208.76 1415.54 2207.03 Q1413.61 2205.29 1410.51 2205.29 Q1408.31 2205.29 1405.86 2206.05 Q1403.43 2206.82 1400.65 2208.37 L1400.65 2203.65 Q1403.48 2202.51 1405.93 2201.93 Q1408.38 2201.35 1410.42 2201.35 Q1415.79 2201.35 1418.98 2204.04 Q1422.18 2206.73 1422.18 2211.22 Q1422.18 2213.35 1421.37 2215.27 Q1420.58 2217.16 1418.48 2219.76 Q1417.9 2220.43 1414.79 2223.65 Q1411.69 2226.84 1406.04 2232.6 Z" fill="#000000" fill-rule="nonzero" fill-opacity="1" /><path clip-path="url(#clip710)" d="M1442.18 2205.06 Q1438.57 2205.06 1436.74 2208.62 Q1434.93 2212.16 1434.93 2219.29 Q1434.93 2226.4 1436.74 2229.97 Q1438.57 2233.51 1442.18 2233.51 Q1445.81 2233.51 1447.62 2229.97 Q1449.45 2226.4 1449.45 2219.29 Q1449.45 2212.16 1447.62 2208.62 Q1445.81 2205.06 1442.18 2205.06 M1442.18 2201.35 Q1447.99 2201.35 1451.04 2205.96 Q1454.12 2210.54 1454.12 2219.29 Q1454.12 2228.02 1451.04 2232.63 Q1447.99 2237.21 1442.18 2237.21 Q1436.37 2237.21 1433.29 2232.63 Q1430.23 2228.02 1430.23 2219.29 Q1430.23 2210.54 1433.29 2205.96 Q1436.37 2201.35 1442.18 2201.35 Z" fill="#000000" fill-rule="nonzero" fill-opacity="1" /><path clip-path="url(#clip710)" d="M1472.34 2205.06 Q1468.73 2205.06 1466.9 2208.62 Q1465.1 2212.16 1465.1 2219.29 Q1465.1 2226.4 1466.9 2229.97 Q1468.73 2233.51 1472.34 2233.51 Q1475.97 2233.51 1477.78 2229.97 Q1479.61 2226.4 1479.61 2219.29 Q1479.61 2212.16 1477.78 2208.62 Q1475.97 2205.06 1472.34 2205.06 M1472.34 2201.35 Q1478.15 2201.35 1481.21 2205.96 Q1484.28 2210.54 1484.28 2219.29 Q1484.28 2228.02 1481.21 2232.63 Q1478.15 2237.21 1472.34 2237.21 Q1466.53 2237.21 1463.45 2232.63 Q1460.4 2228.02 1460.4 2219.29 Q1460.4 2210.54 1463.45 2205.96 Q1466.53 2201.35 1472.34 2201.35 Z" fill="#000000" fill-rule="nonzero" fill-opacity="1" /><path clip-path="url(#clip710)" d="M1930.61 2217.91 Q1933.97 2218.62 1935.84 2220.89 Q1937.74 2223.16 1937.74 2226.49 Q1937.74 2231.61 1934.22 2234.41 Q1930.7 2237.21 1924.22 2237.21 Q1922.05 2237.21 1919.73 2236.77 Q1917.44 2236.35 1914.99 2235.5 L1914.99 2230.98 Q1916.93 2232.12 1919.25 2232.7 Q1921.56 2233.28 1924.08 2233.28 Q1928.48 2233.28 1930.77 2231.54 Q1933.09 2229.8 1933.09 2226.49 Q1933.09 2223.44 1930.94 2221.73 Q1928.81 2219.99 1924.99 2219.99 L1920.96 2219.99 L1920.96 2216.15 L1925.17 2216.15 Q1928.62 2216.15 1930.45 2214.78 Q1932.28 2213.39 1932.28 2210.8 Q1932.28 2208.14 1930.38 2206.73 Q1928.51 2205.29 1924.99 2205.29 Q1923.07 2205.29 1920.87 2205.71 Q1918.67 2206.12 1916.03 2207 L1916.03 2202.84 Q1918.69 2202.1 1921.01 2201.73 Q1923.34 2201.35 1925.4 2201.35 Q1930.73 2201.35 1933.83 2203.79 Q1936.93 2206.19 1936.93 2210.31 Q1936.93 2213.18 1935.29 2215.17 Q1933.64 2217.14 1930.61 2217.91 Z" fill="#000000" fill-rule="nonzero" fill-opacity="1" /><path clip-path="url(#clip710)" d="M1956.61 2205.06 Q1953 2205.06 1951.17 2208.62 Q1949.36 2212.16 1949.36 2219.29 Q1949.36 2226.4 1951.17 2229.97 Q1953 2233.51 1956.61 2233.51 Q1960.24 2233.51 1962.05 2229.97 Q1963.88 2226.4 1963.88 2219.29 Q1963.88 2212.16 1962.05 2208.62 Q1960.24 2205.06 1956.61 2205.06 M1956.61 2201.35 Q1962.42 2201.35 1965.47 2205.96 Q1968.55 2210.54 1968.55 2219.29 Q1968.55 2228.02 1965.47 2232.63 Q1962.42 2237.21 1956.61 2237.21 Q1950.8 2237.21 1947.72 2232.63 Q1944.66 2228.02 1944.66 2219.29 Q1944.66 2210.54 1947.72 2205.96 Q1950.8 2201.35 1956.61 2201.35 Z" fill="#000000" fill-rule="nonzero" fill-opacity="1" /><path clip-path="url(#clip710)" d="M1986.77 2205.06 Q1983.16 2205.06 1981.33 2208.62 Q1979.52 2212.16 1979.52 2219.29 Q1979.52 2226.4 1981.33 2229.97 Q1983.16 2233.51 1986.77 2233.51 Q1990.4 2233.51 1992.21 2229.97 Q1994.04 2226.4 1994.04 2219.29 Q1994.04 2212.16 1992.21 2208.62 Q1990.4 2205.06 1986.77 2205.06 M1986.77 2201.35 Q1992.58 2201.35 1995.63 2205.96 Q1998.71 2210.54 1998.71 2219.29 Q1998.71 2228.02 1995.63 2232.63 Q1992.58 2237.21 1986.77 2237.21 Q1980.96 2237.21 1977.88 2232.63 Q1974.82 2228.02 1974.82 2219.29 Q1974.82 2210.54 1977.88 2205.96 Q1980.96 2201.35 1986.77 2201.35 Z" fill="#000000" fill-rule="nonzero" fill-opacity="1" /><path clip-path="url(#clip710)" d="M1287.34 2276.77 L1287.34 2313.72 L1295.11 2313.72 Q1304.94 2313.72 1309.49 2309.26 Q1314.08 2304.81 1314.08 2295.2 Q1314.08 2285.65 1309.49 2281.22 Q1304.94 2276.77 1295.11 2276.77 L1287.34 2276.77 M1280.91 2271.48 L1294.12 2271.48 Q1307.93 2271.48 1314.4 2277.24 Q1320.86 2282.97 1320.86 2295.2 Q1320.86 2307.48 1314.36 2313.24 Q1307.87 2319 1294.12 2319 L1280.91 2319 L1280.91 2271.48 Z" fill="#000000" fill-rule="nonzero" fill-opacity="1" /><path clip-path="url(#clip710)" d="M1347.05 2301.08 Q1339.95 2301.08 1337.22 2302.71 Q1334.48 2304.33 1334.48 2308.25 Q1334.48 2311.36 1336.52 2313.21 Q1338.59 2315.03 1342.12 2315.03 Q1346.99 2315.03 1349.92 2311.59 Q1352.88 2308.12 1352.88 2302.39 L1352.88 2301.08 L1347.05 2301.08 M1358.73 2298.67 L1358.73 2319 L1352.88 2319 L1352.88 2313.59 Q1350.87 2316.84 1347.88 2318.4 Q1344.89 2319.93 1340.56 2319.93 Q1335.08 2319.93 1331.84 2316.87 Q1328.62 2313.78 1328.62 2308.63 Q1328.62 2302.61 1332.63 2299.56 Q1336.68 2296.5 1344.67 2296.5 L1352.88 2296.5 L1352.88 2295.93 Q1352.88 2291.89 1350.2 2289.69 Q1347.56 2287.46 1342.76 2287.46 Q1339.7 2287.46 1336.8 2288.19 Q1333.91 2288.93 1331.23 2290.39 L1331.23 2284.98 Q1334.45 2283.74 1337.47 2283.13 Q1340.5 2282.5 1343.36 2282.5 Q1351.09 2282.5 1354.91 2286.51 Q1358.73 2290.52 1358.73 2298.67 Z" fill="#000000" fill-rule="nonzero" fill-opacity="1" /><path clip-path="url(#clip710)" d="M1385.63 2322.31 Q1383.15 2328.68 1380.79 2330.62 Q1378.44 2332.56 1374.49 2332.56 L1369.81 2332.56 L1369.81 2327.66 L1373.25 2327.66 Q1375.67 2327.66 1377 2326.52 Q1378.34 2325.37 1379.96 2321.1 L1381.01 2318.43 L1366.59 2283.36 L1372.8 2283.36 L1383.94 2311.24 L1395.08 2283.36 L1401.29 2283.36 L1385.63 2322.31 Z" fill="#000000" fill-rule="nonzero" fill-opacity="1" /><path clip-path="url(#clip710)" d="M1432.1 2284.41 L1432.1 2289.94 Q1429.62 2288.67 1426.94 2288.03 Q1424.27 2287.4 1421.4 2287.4 Q1417.04 2287.4 1414.85 2288.73 Q1412.68 2290.07 1412.68 2292.75 Q1412.68 2294.78 1414.24 2295.96 Q1415.8 2297.11 1420.51 2298.16 L1422.52 2298.6 Q1428.76 2299.94 1431.37 2302.39 Q1434.01 2304.81 1434.01 2309.17 Q1434.01 2314.13 1430.06 2317.03 Q1426.15 2319.93 1419.27 2319.93 Q1416.41 2319.93 1413.29 2319.35 Q1410.2 2318.81 1406.76 2317.7 L1406.76 2311.65 Q1410.01 2313.34 1413.16 2314.2 Q1416.31 2315.03 1419.4 2315.03 Q1423.54 2315.03 1425.76 2313.62 Q1427.99 2312.19 1427.99 2309.61 Q1427.99 2307.23 1426.37 2305.95 Q1424.78 2304.68 1419.33 2303.5 L1417.3 2303.03 Q1411.86 2301.88 1409.44 2299.52 Q1407.02 2297.14 1407.02 2293 Q1407.02 2287.97 1410.58 2285.23 Q1414.15 2282.5 1420.7 2282.5 Q1423.95 2282.5 1426.81 2282.97 Q1429.68 2283.45 1432.1 2284.41 Z" fill="#000000" fill-rule="nonzero" fill-opacity="1" /><polyline clip-path="url(#clip710)" style="stroke:#000000; stroke-linecap:round; stroke-linejoin:round; stroke-width:4; stroke-opacity:1; fill:none" points="362.164,2174.14 362.164,47.2441 "/>
<polyline clip-path="url(#clip710)" style="stroke:#000000; stroke-linecap:round; stroke-linejoin:round; stroke-width:4; stroke-opacity:1; fill:none" points="362.164,2137.01 381.062,2137.01 "/>
<polyline clip-path="url(#clip710)" style="stroke:#000000; stroke-linecap:round; stroke-linejoin:round; stroke-width:4; stroke-opacity:1; fill:none" points="362.164,1597.45 381.062,1597.45 "/>
<polyline clip-path="url(#clip710)" style="stroke:#000000; stroke-linecap:round; stroke-linejoin:round; stroke-width:4; stroke-opacity:1; fill:none" points="362.164,1057.88 381.062,1057.88 "/>
<polyline clip-path="url(#clip710)" style="stroke:#000000; stroke-linecap:round; stroke-linejoin:round; stroke-width:4; stroke-opacity:1; fill:none" points="362.164,518.313 381.062,518.313 "/>
<path clip-path="url(#clip710)" d="M153.622 2130.25 L141.816 2148.7 L153.622 2148.7 L153.622 2130.25 M152.395 2126.18 L158.275 2126.18 L158.275 2148.7 L163.205 2148.7 L163.205 2152.59 L158.275 2152.59 L158.275 2160.74 L153.622 2160.74 L153.622 2152.59 L138.02 2152.59 L138.02 2148.08 L152.395 2126.18 Z" fill="#000000" fill-rule="nonzero" fill-opacity="1" /><path clip-path="url(#clip710)" d="M170.937 2154.86 L175.821 2154.86 L175.821 2160.74 L170.937 2160.74 L170.937 2154.86 Z" fill="#000000" fill-rule="nonzero" fill-opacity="1" /><path clip-path="url(#clip710)" d="M196.006 2129.26 Q192.395 2129.26 190.566 2132.82 Q188.761 2136.37 188.761 2143.5 Q188.761 2150.6 190.566 2154.17 Q192.395 2157.71 196.006 2157.71 Q199.64 2157.71 201.446 2154.17 Q203.274 2150.6 203.274 2143.5 Q203.274 2136.37 201.446 2132.82 Q199.64 2129.26 196.006 2129.26 M196.006 2125.56 Q201.816 2125.56 204.872 2130.16 Q207.95 2134.75 207.95 2143.5 Q207.95 2152.22 204.872 2156.83 Q201.816 2161.41 196.006 2161.41 Q190.196 2161.41 187.117 2156.83 Q184.062 2152.22 184.062 2143.5 Q184.062 2134.75 187.117 2130.16 Q190.196 2125.56 196.006 2125.56 Z" fill="#000000" fill-rule="nonzero" fill-opacity="1" /><path clip-path="url(#clip710)" d="M244.339 2135.28 L233.76 2145.9 L244.339 2156.48 L241.584 2159.28 L230.959 2148.66 L220.335 2159.28 L217.603 2156.48 L228.159 2145.9 L217.603 2135.28 L220.335 2132.48 L230.959 2143.1 L241.584 2132.48 L244.339 2135.28 Z" fill="#000000" fill-rule="nonzero" fill-opacity="1" /><path clip-path="url(#clip710)" d="M256.7 2156.81 L264.339 2156.81 L264.339 2130.44 L256.029 2132.11 L256.029 2127.85 L264.293 2126.18 L268.969 2126.18 L268.969 2156.81 L276.607 2156.81 L276.607 2160.74 L256.7 2160.74 L256.7 2156.81 Z" fill="#000000" fill-rule="nonzero" fill-opacity="1" /><path clip-path="url(#clip710)" d="M296.052 2129.26 Q292.441 2129.26 290.612 2132.82 Q288.806 2136.37 288.806 2143.5 Q288.806 2150.6 290.612 2154.17 Q292.441 2157.71 296.052 2157.71 Q299.686 2157.71 301.492 2154.17 Q303.32 2150.6 303.32 2143.5 Q303.32 2136.37 301.492 2132.82 Q299.686 2129.26 296.052 2129.26 M296.052 2125.56 Q301.862 2125.56 304.917 2130.16 Q307.996 2134.75 307.996 2143.5 Q307.996 2152.22 304.917 2156.83 Q301.862 2161.41 296.052 2161.41 Q290.242 2161.41 287.163 2156.83 Q284.107 2152.22 284.107 2143.5 Q284.107 2134.75 287.163 2130.16 Q290.242 2125.56 296.052 2125.56 Z" fill="#000000" fill-rule="nonzero" fill-opacity="1" /><path clip-path="url(#clip710)" d="M309.181 2105.25 L324.096 2105.25 L324.096 2108.45 L312.66 2108.45 L312.66 2115.33 Q313.488 2115.05 314.316 2114.92 Q315.143 2114.77 315.971 2114.77 Q320.673 2114.77 323.418 2117.34 Q326.164 2119.92 326.164 2124.32 Q326.164 2128.85 323.343 2131.37 Q320.522 2133.88 315.388 2133.88 Q313.62 2133.88 311.776 2133.58 Q309.952 2133.27 307.996 2132.67 L307.996 2128.85 Q309.689 2129.78 311.494 2130.23 Q313.3 2130.68 315.312 2130.68 Q318.566 2130.68 320.466 2128.97 Q322.365 2127.26 322.365 2124.32 Q322.365 2121.39 320.466 2119.68 Q318.566 2117.96 315.312 2117.96 Q313.789 2117.96 312.265 2118.3 Q310.761 2118.64 309.181 2119.36 L309.181 2105.25 Z" fill="#000000" fill-rule="nonzero" fill-opacity="1" /><path clip-path="url(#clip710)" d="M151.353 1602.03 Q148.205 1602.03 146.353 1604.18 Q144.525 1606.34 144.525 1610.09 Q144.525 1613.81 146.353 1615.99 Q148.205 1618.14 151.353 1618.14 Q154.502 1618.14 156.33 1615.99 Q158.182 1613.81 158.182 1610.09 Q158.182 1606.34 156.33 1604.18 Q154.502 1602.03 151.353 1602.03 M160.636 1587.38 L160.636 1591.64 Q158.877 1590.8 157.071 1590.36 Q155.289 1589.92 153.529 1589.92 Q148.9 1589.92 146.446 1593.05 Q144.015 1596.17 143.668 1602.49 Q145.034 1600.48 147.094 1599.41 Q149.154 1598.33 151.631 1598.33 Q156.84 1598.33 159.849 1601.5 Q162.881 1604.65 162.881 1610.09 Q162.881 1615.41 159.733 1618.63 Q156.585 1621.85 151.353 1621.85 Q145.358 1621.85 142.187 1617.26 Q139.016 1612.66 139.016 1603.93 Q139.016 1595.73 142.904 1590.87 Q146.793 1585.99 153.344 1585.99 Q155.103 1585.99 156.886 1586.34 Q158.691 1586.68 160.636 1587.38 Z" fill="#000000" fill-rule="nonzero" fill-opacity="1" /><path clip-path="url(#clip710)" d="M170.937 1615.29 L175.821 1615.29 L175.821 1621.17 L170.937 1621.17 L170.937 1615.29 Z" fill="#000000" fill-rule="nonzero" fill-opacity="1" /><path clip-path="url(#clip710)" d="M196.006 1589.69 Q192.395 1589.69 190.566 1593.26 Q188.761 1596.8 188.761 1603.93 Q188.761 1611.04 190.566 1614.6 Q192.395 1618.14 196.006 1618.14 Q199.64 1618.14 201.446 1614.6 Q203.274 1611.04 203.274 1603.93 Q203.274 1596.8 201.446 1593.26 Q199.64 1589.69 196.006 1589.69 M196.006 1585.99 Q201.816 1585.99 204.872 1590.6 Q207.95 1595.18 207.95 1603.93 Q207.95 1612.66 204.872 1617.26 Q201.816 1621.85 196.006 1621.85 Q190.196 1621.85 187.117 1617.26 Q184.062 1612.66 184.062 1603.93 Q184.062 1595.18 187.117 1590.6 Q190.196 1585.99 196.006 1585.99 Z" fill="#000000" fill-rule="nonzero" fill-opacity="1" /><path clip-path="url(#clip710)" d="M244.339 1595.71 L233.76 1606.34 L244.339 1616.91 L241.584 1619.72 L230.959 1609.09 L220.335 1619.72 L217.603 1616.91 L228.159 1606.34 L217.603 1595.71 L220.335 1592.91 L230.959 1603.54 L241.584 1592.91 L244.339 1595.71 Z" fill="#000000" fill-rule="nonzero" fill-opacity="1" /><path clip-path="url(#clip710)" d="M256.7 1617.24 L264.339 1617.24 L264.339 1590.87 L256.029 1592.54 L256.029 1588.28 L264.293 1586.61 L268.969 1586.61 L268.969 1617.24 L276.607 1617.24 L276.607 1621.17 L256.7 1621.17 L256.7 1617.24 Z" fill="#000000" fill-rule="nonzero" fill-opacity="1" /><path clip-path="url(#clip710)" d="M296.052 1589.69 Q292.441 1589.69 290.612 1593.26 Q288.806 1596.8 288.806 1603.93 Q288.806 1611.04 290.612 1614.6 Q292.441 1618.14 296.052 1618.14 Q299.686 1618.14 301.492 1614.6 Q303.32 1611.04 303.32 1603.93 Q303.32 1596.8 301.492 1593.26 Q299.686 1589.69 296.052 1589.69 M296.052 1585.99 Q301.862 1585.99 304.917 1590.6 Q307.996 1595.18 307.996 1603.93 Q307.996 1612.66 304.917 1617.26 Q301.862 1621.85 296.052 1621.85 Q290.242 1621.85 287.163 1617.26 Q284.107 1612.66 284.107 1603.93 Q284.107 1595.18 287.163 1590.6 Q290.242 1585.99 296.052 1585.99 Z" fill="#000000" fill-rule="nonzero" fill-opacity="1" /><path clip-path="url(#clip710)" d="M309.181 1565.68 L324.096 1565.68 L324.096 1568.88 L312.66 1568.88 L312.66 1575.76 Q313.488 1575.48 314.316 1575.35 Q315.143 1575.2 315.971 1575.2 Q320.673 1575.2 323.418 1577.78 Q326.164 1580.35 326.164 1584.75 Q326.164 1589.29 323.343 1591.81 Q320.522 1594.31 315.388 1594.31 Q313.62 1594.31 311.776 1594.01 Q309.952 1593.71 307.996 1593.11 L307.996 1589.29 Q309.689 1590.21 311.494 1590.66 Q313.3 1591.11 315.312 1591.11 Q318.566 1591.11 320.466 1589.4 Q322.365 1587.69 322.365 1584.75 Q322.365 1581.82 320.466 1580.11 Q318.566 1578.4 315.312 1578.4 Q313.789 1578.4 312.265 1578.74 Q310.761 1579.07 309.181 1579.79 L309.181 1565.68 Z" fill="#000000" fill-rule="nonzero" fill-opacity="1" /><path clip-path="url(#clip710)" d="M150.775 1065.2 Q147.441 1065.2 145.52 1066.98 Q143.622 1068.76 143.622 1071.89 Q143.622 1075.01 145.52 1076.79 Q147.441 1078.57 150.775 1078.57 Q154.108 1078.57 156.029 1076.79 Q157.951 1074.99 157.951 1071.89 Q157.951 1068.76 156.029 1066.98 Q154.131 1065.2 150.775 1065.2 M146.099 1063.2 Q143.09 1062.46 141.4 1060.4 Q139.733 1058.34 139.733 1055.38 Q139.733 1051.24 142.673 1048.83 Q145.636 1046.42 150.775 1046.42 Q155.937 1046.42 158.877 1048.83 Q161.816 1051.24 161.816 1055.38 Q161.816 1058.34 160.127 1060.4 Q158.46 1062.46 155.474 1063.2 Q158.853 1063.99 160.728 1066.28 Q162.627 1068.57 162.627 1071.89 Q162.627 1076.91 159.548 1079.59 Q156.492 1082.28 150.775 1082.28 Q145.057 1082.28 141.978 1079.59 Q138.923 1076.91 138.923 1071.89 Q138.923 1068.57 140.821 1066.28 Q142.719 1063.99 146.099 1063.2 M144.386 1055.82 Q144.386 1058.51 146.053 1060.01 Q147.742 1061.51 150.775 1061.51 Q153.784 1061.51 155.474 1060.01 Q157.187 1058.51 157.187 1055.82 Q157.187 1053.14 155.474 1051.63 Q153.784 1050.13 150.775 1050.13 Q147.742 1050.13 146.053 1051.63 Q144.386 1053.14 144.386 1055.82 Z" fill="#000000" fill-rule="nonzero" fill-opacity="1" /><path clip-path="url(#clip710)" d="M170.937 1075.73 L175.821 1075.73 L175.821 1081.61 L170.937 1081.61 L170.937 1075.73 Z" fill="#000000" fill-rule="nonzero" fill-opacity="1" /><path clip-path="url(#clip710)" d="M196.006 1050.13 Q192.395 1050.13 190.566 1053.69 Q188.761 1057.23 188.761 1064.36 Q188.761 1071.47 190.566 1075.03 Q192.395 1078.57 196.006 1078.57 Q199.64 1078.57 201.446 1075.03 Q203.274 1071.47 203.274 1064.36 Q203.274 1057.23 201.446 1053.69 Q199.64 1050.13 196.006 1050.13 M196.006 1046.42 Q201.816 1046.42 204.872 1051.03 Q207.95 1055.61 207.95 1064.36 Q207.95 1073.09 204.872 1077.7 Q201.816 1082.28 196.006 1082.28 Q190.196 1082.28 187.117 1077.7 Q184.062 1073.09 184.062 1064.36 Q184.062 1055.61 187.117 1051.03 Q190.196 1046.42 196.006 1046.42 Z" fill="#000000" fill-rule="nonzero" fill-opacity="1" /><path clip-path="url(#clip710)" d="M244.339 1056.14 L233.76 1066.77 L244.339 1077.35 L241.584 1080.15 L230.959 1069.52 L220.335 1080.15 L217.603 1077.35 L228.159 1066.77 L217.603 1056.14 L220.335 1053.34 L230.959 1063.97 L241.584 1053.34 L244.339 1056.14 Z" fill="#000000" fill-rule="nonzero" fill-opacity="1" /><path clip-path="url(#clip710)" d="M256.7 1077.67 L264.339 1077.67 L264.339 1051.31 L256.029 1052.97 L256.029 1048.71 L264.293 1047.05 L268.969 1047.05 L268.969 1077.67 L276.607 1077.67 L276.607 1081.61 L256.7 1081.61 L256.7 1077.67 Z" fill="#000000" fill-rule="nonzero" fill-opacity="1" /><path clip-path="url(#clip710)" d="M296.052 1050.13 Q292.441 1050.13 290.612 1053.69 Q288.806 1057.23 288.806 1064.36 Q288.806 1071.47 290.612 1075.03 Q292.441 1078.57 296.052 1078.57 Q299.686 1078.57 301.492 1075.03 Q303.32 1071.47 303.32 1064.36 Q303.32 1057.23 301.492 1053.69 Q299.686 1050.13 296.052 1050.13 M296.052 1046.42 Q301.862 1046.42 304.917 1051.03 Q307.996 1055.61 307.996 1064.36 Q307.996 1073.09 304.917 1077.7 Q301.862 1082.28 296.052 1082.28 Q290.242 1082.28 287.163 1077.7 Q284.107 1073.09 284.107 1064.36 Q284.107 1055.61 287.163 1051.03 Q290.242 1046.42 296.052 1046.42 Z" fill="#000000" fill-rule="nonzero" fill-opacity="1" /><path clip-path="url(#clip710)" d="M309.181 1026.12 L324.096 1026.12 L324.096 1029.31 L312.66 1029.31 L312.66 1036.2 Q313.488 1035.92 314.316 1035.78 Q315.143 1035.63 315.971 1035.63 Q320.673 1035.63 323.418 1038.21 Q326.164 1040.79 326.164 1045.19 Q326.164 1049.72 323.343 1052.24 Q320.522 1054.74 315.388 1054.74 Q313.62 1054.74 311.776 1054.44 Q309.952 1054.14 307.996 1053.54 L307.996 1049.72 Q309.689 1050.64 311.494 1051.09 Q313.3 1051.54 315.312 1051.54 Q318.566 1051.54 320.466 1049.83 Q322.365 1048.12 322.365 1045.19 Q322.365 1042.25 320.466 1040.54 Q318.566 1038.83 315.312 1038.83 Q313.789 1038.83 312.265 1039.17 Q310.761 1039.51 309.181 1040.22 L309.181 1026.12 Z" fill="#000000" fill-rule="nonzero" fill-opacity="1" /><path clip-path="url(#clip710)" d="M140.362 538.105 L148.001 538.105 L148.001 511.74 L139.691 513.406 L139.691 509.147 L147.955 507.48 L152.631 507.48 L152.631 538.105 L160.27 538.105 L160.27 542.04 L140.362 542.04 L140.362 538.105 Z" fill="#000000" fill-rule="nonzero" fill-opacity="1" /><path clip-path="url(#clip710)" d="M169.714 536.161 L174.598 536.161 L174.598 542.04 L169.714 542.04 L169.714 536.161 Z" fill="#000000" fill-rule="nonzero" fill-opacity="1" /><path clip-path="url(#clip710)" d="M194.783 510.559 Q191.172 510.559 189.344 514.124 Q187.538 517.666 187.538 524.795 Q187.538 531.902 189.344 535.466 Q191.172 539.008 194.783 539.008 Q198.418 539.008 200.223 535.466 Q202.052 531.902 202.052 524.795 Q202.052 517.666 200.223 514.124 Q198.418 510.559 194.783 510.559 M194.783 506.855 Q200.594 506.855 203.649 511.462 Q206.728 516.045 206.728 524.795 Q206.728 533.522 203.649 538.128 Q200.594 542.712 194.783 542.712 Q188.973 542.712 185.895 538.128 Q182.839 533.522 182.839 524.795 Q182.839 516.045 185.895 511.462 Q188.973 506.855 194.783 506.855 Z" fill="#000000" fill-rule="nonzero" fill-opacity="1" /><path clip-path="url(#clip710)" d="M243.117 516.578 L232.538 527.203 L243.117 537.781 L240.362 540.582 L229.737 529.957 L219.112 540.582 L216.381 537.781 L226.936 527.203 L216.381 516.578 L219.112 513.777 L229.737 524.402 L240.362 513.777 L243.117 516.578 Z" fill="#000000" fill-rule="nonzero" fill-opacity="1" /><path clip-path="url(#clip710)" d="M255.478 538.105 L263.116 538.105 L263.116 511.74 L254.806 513.406 L254.806 509.147 L263.07 507.48 L267.746 507.48 L267.746 538.105 L275.385 538.105 L275.385 542.04 L255.478 542.04 L255.478 538.105 Z" fill="#000000" fill-rule="nonzero" fill-opacity="1" /><path clip-path="url(#clip710)" d="M294.829 510.559 Q291.218 510.559 289.389 514.124 Q287.584 517.666 287.584 524.795 Q287.584 531.902 289.389 535.466 Q291.218 539.008 294.829 539.008 Q298.463 539.008 300.269 535.466 Q302.098 531.902 302.098 524.795 Q302.098 517.666 300.269 514.124 Q298.463 510.559 294.829 510.559 M294.829 506.855 Q300.639 506.855 303.695 511.462 Q306.774 516.045 306.774 524.795 Q306.774 533.522 303.695 538.128 Q300.639 542.712 294.829 542.712 Q289.019 542.712 285.94 538.128 Q282.885 533.522 282.885 524.795 Q282.885 516.045 285.94 511.462 Q289.019 506.855 294.829 506.855 Z" fill="#000000" fill-rule="nonzero" fill-opacity="1" /><path clip-path="url(#clip710)" d="M316.798 499.076 Q314.24 499.076 312.736 500.825 Q311.25 502.574 311.25 505.621 Q311.25 508.649 312.736 510.417 Q314.24 512.166 316.798 512.166 Q319.356 512.166 320.842 510.417 Q322.346 508.649 322.346 505.621 Q322.346 502.574 320.842 500.825 Q319.356 499.076 316.798 499.076 M324.34 487.171 L324.34 490.631 Q322.911 489.954 321.444 489.597 Q319.995 489.24 318.566 489.24 Q314.805 489.24 312.811 491.779 Q310.836 494.318 310.554 499.452 Q311.664 497.816 313.338 496.951 Q315.011 496.067 317.024 496.067 Q321.256 496.067 323.701 498.643 Q326.164 501.201 326.164 505.621 Q326.164 509.947 323.607 512.561 Q321.049 515.175 316.798 515.175 Q311.927 515.175 309.35 511.452 Q306.774 507.709 306.774 500.618 Q306.774 493.96 309.933 490.011 Q313.093 486.042 318.416 486.042 Q319.845 486.042 321.293 486.324 Q322.76 486.606 324.34 487.171 Z" fill="#000000" fill-rule="nonzero" fill-opacity="1" /><path clip-path="url(#clip710)" d="M45.5277 1326.06 L82.4806 1326.06 L82.4806 1318.29 Q82.4806 1308.46 78.0246 1303.91 Q73.5686 1299.32 63.9564 1299.32 Q54.4079 1299.32 49.9837 1303.91 Q45.5277 1308.46 45.5277 1318.29 L45.5277 1326.06 M40.2442 1332.49 L40.2442 1319.28 Q40.2442 1305.47 46.0051 1299.01 Q51.7343 1292.54 63.9564 1292.54 Q76.2422 1292.54 82.0032 1299.04 Q87.7642 1305.53 87.7642 1319.28 L87.7642 1332.49 L40.2442 1332.49 Z" fill="#000000" fill-rule="nonzero" fill-opacity="1" /><path clip-path="url(#clip710)" d="M52.1162 1282.55 L52.1162 1276.69 L87.7642 1276.69 L87.7642 1282.55 L52.1162 1282.55 M38.239 1282.55 L38.239 1276.69 L45.655 1276.69 L45.655 1282.55 L38.239 1282.55 Z" fill="#000000" fill-rule="nonzero" fill-opacity="1" /><path clip-path="url(#clip710)" d="M53.1665 1241.71 L58.7047 1241.71 Q57.4316 1244.2 56.795 1246.87 Q56.1584 1249.54 56.1584 1252.41 Q56.1584 1256.77 57.4952 1258.97 Q58.832 1261.13 61.5056 1261.13 Q63.5426 1261.13 64.7203 1259.57 Q65.8661 1258.01 66.9165 1253.3 L67.3621 1251.29 Q68.6989 1245.06 71.1497 1242.45 Q73.5686 1239.8 77.9291 1239.8 Q82.8944 1239.8 85.7908 1243.75 Q88.6872 1247.67 88.6872 1254.54 Q88.6872 1257.41 88.1143 1260.52 Q87.5732 1263.61 86.4592 1267.05 L80.4118 1267.05 Q82.0987 1263.8 82.958 1260.65 Q83.7856 1257.5 83.7856 1254.41 Q83.7856 1250.28 82.3851 1248.05 Q80.9529 1245.82 78.3747 1245.82 Q75.9876 1245.82 74.7145 1247.44 Q73.4413 1249.03 72.2637 1254.48 L71.7862 1256.51 Q70.6404 1261.96 68.2851 1264.38 Q65.898 1266.8 61.7602 1266.8 Q56.7313 1266.8 53.9941 1263.23 Q51.2568 1259.67 51.2568 1253.11 Q51.2568 1249.86 51.7343 1247 Q52.2117 1244.13 53.1665 1241.71 Z" fill="#000000" fill-rule="nonzero" fill-opacity="1" /><path clip-path="url(#clip710)" d="M41.9947 1224.69 L52.1162 1224.69 L52.1162 1212.62 L56.6677 1212.62 L56.6677 1224.69 L76.0194 1224.69 Q80.3799 1224.69 81.6213 1223.51 Q82.8626 1222.3 82.8626 1218.64 L82.8626 1212.62 L87.7642 1212.62 L87.7642 1218.64 Q87.7642 1225.42 85.2497 1228 Q82.7034 1230.57 76.0194 1230.57 L56.6677 1230.57 L56.6677 1234.87 L52.1162 1234.87 L52.1162 1230.57 L41.9947 1230.57 L41.9947 1224.69 Z" fill="#000000" fill-rule="nonzero" fill-opacity="1" /><path clip-path="url(#clip710)" d="M69.8447 1188.72 Q69.8447 1195.82 71.4679 1198.55 Q73.0912 1201.29 77.0061 1201.29 Q80.1253 1201.29 81.9714 1199.25 Q83.7856 1197.19 83.7856 1193.65 Q83.7856 1188.78 80.3481 1185.86 Q76.8788 1182.89 71.1497 1182.89 L69.8447 1182.89 L69.8447 1188.72 M67.4257 1177.04 L87.7642 1177.04 L87.7642 1182.89 L82.3533 1182.89 Q85.5998 1184.9 87.1594 1187.89 Q88.6872 1190.88 88.6872 1195.21 Q88.6872 1200.69 85.6316 1203.93 Q82.5443 1207.15 77.3881 1207.15 Q71.3725 1207.15 68.3169 1203.14 Q65.2614 1199.1 65.2614 1191.11 L65.2614 1182.89 L64.6885 1182.89 Q60.6462 1182.89 58.4501 1185.57 Q56.2221 1188.21 56.2221 1193.02 Q56.2221 1196.07 56.9541 1198.97 Q57.6862 1201.86 59.1503 1204.54 L53.7395 1204.54 Q52.4981 1201.32 51.8934 1198.3 Q51.2568 1195.28 51.2568 1192.41 Q51.2568 1184.68 55.2672 1180.86 Q59.2776 1177.04 67.4257 1177.04 Z" fill="#000000" fill-rule="nonzero" fill-opacity="1" /><path clip-path="url(#clip710)" d="M66.2481 1135.34 L87.7642 1135.34 L87.7642 1141.2 L66.439 1141.2 Q61.3783 1141.2 58.8638 1143.17 Q56.3494 1145.15 56.3494 1149.09 Q56.3494 1153.84 59.3731 1156.57 Q62.3968 1159.31 67.6167 1159.31 L87.7642 1159.31 L87.7642 1165.2 L52.1162 1165.2 L52.1162 1159.31 L57.6544 1159.31 Q54.4397 1157.21 52.8483 1154.38 Q51.2568 1151.51 51.2568 1147.79 Q51.2568 1141.65 55.0763 1138.49 Q58.8638 1135.34 66.2481 1135.34 Z" fill="#000000" fill-rule="nonzero" fill-opacity="1" /><path clip-path="url(#clip710)" d="M53.4848 1098.01 L58.9593 1098.01 Q57.5907 1100.49 56.9223 1103.01 Q56.2221 1105.49 56.2221 1108.03 Q56.2221 1113.73 59.8505 1116.88 Q63.4472 1120.03 69.972 1120.03 Q76.4969 1120.03 80.1253 1116.88 Q83.7219 1113.73 83.7219 1108.03 Q83.7219 1105.49 83.0535 1103.01 Q82.3533 1100.49 80.9847 1098.01 L86.3955 1098.01 Q87.5414 1100.46 88.1143 1103.1 Q88.6872 1105.71 88.6872 1108.67 Q88.6872 1116.72 83.6264 1121.47 Q78.5657 1126.21 69.972 1126.21 Q61.251 1126.21 56.2539 1121.43 Q51.2568 1116.63 51.2568 1108.29 Q51.2568 1105.58 51.8297 1103.01 Q52.3708 1100.43 53.4848 1098.01 Z" fill="#000000" fill-rule="nonzero" fill-opacity="1" /><path clip-path="url(#clip710)" d="M68.4761 1057.33 L71.3406 1057.33 L71.3406 1084.26 Q77.3881 1083.88 80.5709 1080.63 Q83.7219 1077.35 83.7219 1071.53 Q83.7219 1068.15 82.8944 1065 Q82.0669 1061.82 80.4118 1058.7 L85.9499 1058.7 Q87.2867 1061.85 87.987 1065.16 Q88.6872 1068.47 88.6872 1071.88 Q88.6872 1080.41 83.7219 1085.4 Q78.7567 1090.37 70.2903 1090.37 Q61.5374 1090.37 56.4131 1085.66 Q51.2568 1080.92 51.2568 1072.9 Q51.2568 1065.7 55.9038 1061.53 Q60.5189 1057.33 68.4761 1057.33 M66.7573 1063.19 Q61.9512 1063.25 59.0866 1065.89 Q56.2221 1068.5 56.2221 1072.83 Q56.2221 1077.73 58.9912 1080.69 Q61.7602 1083.62 66.7892 1084.07 L66.7573 1063.19 Z" fill="#000000" fill-rule="nonzero" fill-opacity="1" /><path clip-path="url(#clip710)" d="M38.3026 1012.93 Q45.6232 1017.2 52.7846 1019.26 Q59.946 1021.33 67.2984 1021.33 Q74.6508 1021.33 81.8759 1019.26 Q89.0691 1017.16 96.3579 1012.93 L96.3579 1018.02 Q88.8782 1022.8 81.6531 1025.18 Q74.428 1027.54 67.2984 1027.54 Q60.2006 1027.54 53.0074 1025.18 Q45.8142 1022.83 38.3026 1018.02 L38.3026 1012.93 Z" fill="#000000" fill-rule="nonzero" fill-opacity="1" /><path clip-path="url(#clip710)" d="M40.2442 1001.31 L40.2442 994.884 L60.328 994.884 L40.2442 973.559 L40.2442 965.283 L62.3968 988.868 L87.7642 963.596 L87.7642 972.063 L64.8794 994.884 L87.7642 994.884 L87.7642 1001.31 L40.2442 1001.31 Z" fill="#000000" fill-rule="nonzero" fill-opacity="1" /><path clip-path="url(#clip710)" d="M40.2442 958.567 L40.2442 948.987 L72.5819 936.86 L40.2442 924.67 L40.2442 915.09 L87.7642 915.09 L87.7642 921.36 L46.037 921.36 L78.6294 933.614 L78.6294 940.075 L46.037 952.329 L87.7642 952.329 L87.7642 958.567 L40.2442 958.567 Z" fill="#000000" fill-rule="nonzero" fill-opacity="1" /><path clip-path="url(#clip710)" d="M38.3026 903.504 L38.3026 898.412 Q45.8142 893.637 53.0074 891.282 Q60.2006 888.895 67.2984 888.895 Q74.428 888.895 81.6531 891.282 Q88.8782 893.637 96.3579 898.412 L96.3579 903.504 Q89.0691 899.271 81.8759 897.202 Q74.6508 895.101 67.2984 895.101 Q59.946 895.101 52.7846 897.202 Q45.6232 899.271 38.3026 903.504 Z" fill="#000000" fill-rule="nonzero" fill-opacity="1" /><polyline clip-path="url(#clip712)" style="stroke:#1f83ff; stroke-linecap:round; stroke-linejoin:round; stroke-width:4; stroke-opacity:1; fill:none" points="418.502,1594.68 423.647,1532.08 428.792,1467.97 433.937,1402.89 439.082,1337.3 444.227,1271.61 449.372,1206.18 454.517,1141.34 459.662,1077.37 464.807,1014.55 469.952,953.092 475.097,893.203 480.242,835.063 485.387,778.829 490.532,724.639 495.677,672.613 500.822,622.862 505.967,575.484 511.111,530.57 516.256,488.202 521.401,448.453 526.546,411.391 531.691,377.076 536.836,345.559 541.981,316.885 547.126,291.087 552.271,268.209 557.416,248.279 562.561,231.32 567.706,217.352 572.851,206.386 577.996,198.432 583.141,193.492 588.286,191.567 593.431,192.651 598.576,196.738 603.721,203.816 608.866,213.873 614.011,226.892 619.156,242.857 624.301,261.746 629.446,283.533 634.591,308.184 639.736,335.66 644.881,365.913 650.026,398.891 655.171,434.538 660.316,472.792 665.461,513.589 670.606,556.858 675.751,602.525 680.896,650.506 686.041,700.714 691.186,753.052 696.331,807.414 701.476,863.685 706.621,921.738 711.766,981.435 716.911,1042.62 722.056,1105.13 727.201,1168.78 732.345,1233.36 737.49,1298.65 742.635,1364.39 747.78,1430.3 752.925,1496.06 758.07,1561.32 763.215,1625.68 768.36,1688.7 773.505,1749.88 778.65,1808.65 783.795,1864.4 788.94,1916.45 794.085,1964.04 799.23,2006.41 804.375,2042.76 809.52,2072.32 814.665,2094.38 819.81,2108.39 824.955,2113.94 830.1,2110.89 835.245,2099.29 840.39,2079.46 845.535,2051.91 850.68,2017.28 855.825,1976.32 860.97,1929.83 866.115,1878.58 871.26,1823.34 876.405,1764.81 881.55,1703.64 886.695,1640.41 891.84,1575.64 896.985,1509.82 902.13,1443.36 907.275,1376.63 912.42,1309.99 917.565,1243.8 922.71,1178.25 927.855,1113.6 933,1050.06 938.145,987.812 943.29,927.05 948.435,867.931 953.579,810.607 958.724,755.216 963.869,701.89 969.014,650.75 974.159,601.907 979.304,555.466 984.449,511.523 989.594,470.168 994.739,431.482 999.884,395.541 1005.03,362.413 1010.17,332.161 1015.32,304.842 1020.46,280.506 1025.61,259.197 1030.75,240.958 1035.9,225.821 1041.04,213.818 1046.19,204.976 1051.33,199.319 1056.48,196.867 1061.62,197.638 1066.77,201.647 1071.91,208.905 1077.06,219.418 1082.2,233.184 1087.35,250.191 1092.49,270.421 1097.64,293.848 1102.78,320.439 1107.93,350.155 1113.07,382.953 1118.22,418.785 1123.36,457.593 1128.51,499.314 1133.65,543.875 1138.8,591.194 1143.94,641.177 1149.09,693.715 1154.23,748.687 1159.38,805.955 1164.52,865.361 1169.67,926.728 1174.81,989.855 1179.96,1054.51 1185.1,1120.45 1190.25,1187.37 1195.39,1254.9 1200.54,1322.73 1205.68,1390.44 1210.83,1457.57 1215.97,1523.59 1221.12,1587.93 1226.26,1649.93 1231.41,1708.89 1236.55,1764.03 1241.7,1814.52 1246.84,1859.48 1251.99,1898.05 1257.13,1929.39 1262.28,1952.74 1267.42,1967.52 1272.57,1973.33 1277.71,1970.01 1282.86,1957.69 1288,1936.73 1293.15,1907.68 1298.29,1871.28 1303.44,1828.36 1308.58,1779.77 1313.73,1726.38 1318.87,1669.02 1324.02,1608.47 1329.16,1545.43 1334.31,1480.53 1339.45,1414.36 1344.6,1347.41 1349.74,1280.13 1354.89,1212.93 1360.03,1146.15 1365.18,1080.1 1370.32,1015.05 1375.47,951.259 1380.61,888.934 1385.76,828.27 1390.9,769.437 1396.05,712.583 1401.19,657.836 1406.34,605.309 1411.48,555.101 1416.63,507.3 1421.77,461.985 1426.92,419.228 1432.06,379.094 1437.21,341.641 1442.35,306.922 1447.5,274.983 1452.64,245.863 1457.79,219.598 1462.93,196.217 1468.08,175.742 1473.22,158.192 1478.37,143.58 1483.51,131.914 1488.66,123.198 1493.8,117.431 1498.95,114.609 1504.09,114.724 1509.24,117.767 1514.38,123.724 1519.53,132.579 1524.67,144.316 1529.82,158.915 1534.96,176.354 1540.11,196.607 1545.25,219.643 1550.4,245.424 1555.54,273.906 1560.69,305.04 1565.83,338.772 1570.98,375.042 1576.12,413.788 1581.27,454.945 1586.41,498.442 1591.56,544.205 1596.7,592.153 1601.85,642.201 1606.99,694.256 1612.14,748.217 1617.28,803.975 1622.43,861.412 1627.57,920.406 1632.72,980.806 1637.86,1042.46 1643.01,1105.19 1648.15,1168.81 1653.3,1233.12 1658.44,1297.89 1663.59,1362.88 1668.73,1427.79 1673.88,1492.33 1679.02,1556.15 1684.17,1618.86 1689.31,1680.03 1694.46,1739.19 1699.6,1795.81 1704.75,1849.3 1709.89,1899.02 1715.04,1944.3 1720.18,1984.42 1725.33,2018.68 1730.47,2046.39 1735.62,2066.94 1740.76,2079.86 1745.91,2084.81 1751.05,2081.66 1756.2,2070.5 1761.34,2051.58 1766.49,2025.36 1771.63,1992.42 1776.78,1953.42 1781.92,1909.06 1787.07,1860.06 1792.21,1807.1 1797.36,1750.82 1802.5,1691.84 1807.65,1630.69 1812.79,1567.88 1817.94,1503.84 1823.08,1438.99 1828.23,1373.68 1833.37,1308.22 1838.52,1242.92 1843.66,1178.02 1848.81,1113.77 1853.95,1050.36 1859.1,987.987 1864.24,926.827 1869.39,867.037 1874.53,808.767 1879.68,752.153 1884.82,697.325 1889.97,644.399 1895.11,593.487 1900.26,544.691 1905.4,498.104 1910.55,453.814 1915.69,411.902 1920.84,372.442 1925.98,335.503 1931.13,301.147 1936.27,269.432 1941.42,240.412 1946.56,214.135 1951.7,190.646 1956.85,169.988 1961.99,152.197 1967.14,137.311 1972.28,125.363 1977.43,116.383 1982.57,110.401 1987.72,107.439 1992.86,107.518 1998.01,110.651 2003.15,116.844 2008.3,126.097 2013.44,138.405 2018.59,153.761 2023.73,172.153 2028.88,193.567 2034.02,217.986 2039.17,245.39 2044.31,275.75 2049.46,309.034 2054.6,345.204 2059.75,384.213 2064.89,426.007 2070.04,470.52 2075.18,517.681 2080.33,567.403 2085.47,619.591 2090.62,674.134 2095.76,730.909 2100.91,789.775 2106.05,850.574 2111.2,913.128 2116.34,977.237 2121.49,1042.68 2126.63,1109.2 2131.78,1176.51 2136.92,1244.3 2142.07,1312.22 2147.21,1379.85 2152.36,1446.74 2157.5,1512.38 2162.65,1576.19 2167.79,1637.5 2172.94,1695.63 2178.08,1749.78 2183.23,1799.15 2188.37,1842.88 2193.52,1880.12 2198.66,1910.07 2203.81,1932.02 2208.95,1945.42 2214.1,1949.92 2219.24,1945.39 2224.39,1931.99 2229.53,1910.07 2234.68,1880.21 2239.82,1843.13 2244.97,1799.63 2250.11,1750.56 2255.26,1696.77 2260.4,1639.06 2265.55,1578.2 2270.69,1514.9 2275.84,1449.77 2280.98,1383.4 2286.13,1316.3 2291.27,1248.91 2296.42,1181.63 "/>
</svg>
