<?xml version="1.0" encoding="utf-8"?>
<svg xmlns="http://www.w3.org/2000/svg" xmlns:xlink="http://www.w3.org/1999/xlink" width="600" height="600" viewBox="0 0 2400 2400">
<defs>
  <clipPath id="clip650">
    <rect x="0" y="0" width="2400" height="2400"/>
  </clipPath>
</defs>
<defs>
  <clipPath id="clip651">
    <rect x="480" y="240" width="1681" height="1681"/>
  </clipPath>
</defs>
<defs>
  <clipPath id="clip652">
    <rect x="430" y="47" width="1923" height="2109"/>
  </clipPath>
</defs>
<polyline clip-path="url(#clip650)" style="stroke:#000000; stroke-linecap:round; stroke-linejoin:round; stroke-width:4; stroke-opacity:1; fill:none" points="430.562,2155.72 2352.76,2155.72 "/>
<polyline clip-path="url(#clip650)" style="stroke:#000000; stroke-linecap:round; stroke-linejoin:round; stroke-width:4; stroke-opacity:1; fill:none" points="489.958,2155.72 489.958,2136.82 "/>
<polyline clip-path="url(#clip650)" style="stroke:#000000; stroke-linecap:round; stroke-linejoin:round; stroke-width:4; stroke-opacity:1; fill:none" points="790.998,2155.72 790.998,2136.82 "/>
<polyline clip-path="url(#clip650)" style="stroke:#000000; stroke-linecap:round; stroke-linejoin:round; stroke-width:4; stroke-opacity:1; fill:none" points="1092.04,2155.72 1092.04,2136.82 "/>
<polyline clip-path="url(#clip650)" style="stroke:#000000; stroke-linecap:round; stroke-linejoin:round; stroke-width:4; stroke-opacity:1; fill:none" points="1393.08,2155.72 1393.08,2136.82 "/>
<polyline clip-path="url(#clip650)" style="stroke:#000000; stroke-linecap:round; stroke-linejoin:round; stroke-width:4; stroke-opacity:1; fill:none" points="1694.12,2155.72 1694.12,2136.82 "/>
<polyline clip-path="url(#clip650)" style="stroke:#000000; stroke-linecap:round; stroke-linejoin:round; stroke-width:4; stroke-opacity:1; fill:none" points="1995.16,2155.72 1995.16,2136.82 "/>
<polyline clip-path="url(#clip650)" style="stroke:#000000; stroke-linecap:round; stroke-linejoin:round; stroke-width:4; stroke-opacity:1; fill:none" points="2296.2,2155.72 2296.2,2136.82 "/>
<path clip-path="url(#clip650)" d="M361.687 2216.95 L391.363 2216.95 L391.363 2220.88 L361.687 2220.88 L361.687 2216.95 Z" fill="#000000" fill-rule="nonzero" fill-opacity="1" /><path clip-path="url(#clip650)" d="M402.265 2229.84 L409.904 2229.84 L409.904 2203.47 L401.594 2205.14 L401.594 2200.88 L409.858 2199.22 L414.534 2199.22 L414.534 2229.84 L422.173 2229.84 L422.173 2233.78 L402.265 2233.78 L402.265 2229.84 Z" fill="#000000" fill-rule="nonzero" fill-opacity="1" /><path clip-path="url(#clip650)" d="M431.617 2227.9 L436.501 2227.9 L436.501 2233.78 L431.617 2233.78 L431.617 2227.9 Z" fill="#000000" fill-rule="nonzero" fill-opacity="1" /><path clip-path="url(#clip650)" d="M446.733 2199.22 L465.089 2199.22 L465.089 2203.15 L451.015 2203.15 L451.015 2211.62 Q452.034 2211.28 453.052 2211.11 Q454.071 2210.93 455.089 2210.93 Q460.876 2210.93 464.256 2214.1 Q467.635 2217.27 467.635 2222.69 Q467.635 2228.27 464.163 2231.37 Q460.691 2234.45 454.372 2234.45 Q452.196 2234.45 449.927 2234.08 Q447.682 2233.71 445.274 2232.96 L445.274 2228.27 Q447.358 2229.4 449.58 2229.96 Q451.802 2230.51 454.279 2230.51 Q458.284 2230.51 460.621 2228.4 Q462.959 2226.3 462.959 2222.69 Q462.959 2219.08 460.621 2216.97 Q458.284 2214.86 454.279 2214.86 Q452.404 2214.86 450.529 2215.28 Q448.677 2215.7 446.733 2216.58 L446.733 2199.22 Z" fill="#000000" fill-rule="nonzero" fill-opacity="1" /><path clip-path="url(#clip650)" d="M486.848 2202.29 Q483.237 2202.29 481.408 2205.86 Q479.603 2209.4 479.603 2216.53 Q479.603 2223.64 481.408 2227.2 Q483.237 2230.74 486.848 2230.74 Q490.482 2230.74 492.288 2227.2 Q494.117 2223.64 494.117 2216.53 Q494.117 2209.4 492.288 2205.86 Q490.482 2202.29 486.848 2202.29 M486.848 2198.59 Q492.658 2198.59 495.714 2203.2 Q498.793 2207.78 498.793 2216.53 Q498.793 2225.26 495.714 2229.86 Q492.658 2234.45 486.848 2234.45 Q481.038 2234.45 477.959 2229.86 Q474.904 2225.26 474.904 2216.53 Q474.904 2207.78 477.959 2203.2 Q481.038 2198.59 486.848 2198.59 Z" fill="#000000" fill-rule="nonzero" fill-opacity="1" /><path clip-path="url(#clip650)" d="M535.181 2208.31 L524.603 2218.94 L535.181 2229.52 L532.427 2232.32 L521.802 2221.69 L511.177 2232.32 L508.445 2229.52 L519.001 2218.94 L508.445 2208.31 L511.177 2205.51 L521.802 2216.14 L532.427 2205.51 L535.181 2208.31 Z" fill="#000000" fill-rule="nonzero" fill-opacity="1" /><path clip-path="url(#clip650)" d="M547.542 2229.84 L555.181 2229.84 L555.181 2203.47 L546.871 2205.14 L546.871 2200.88 L555.135 2199.22 L559.811 2199.22 L559.811 2229.84 L567.45 2229.84 L567.45 2233.78 L547.542 2233.78 L547.542 2229.84 Z" fill="#000000" fill-rule="nonzero" fill-opacity="1" /><path clip-path="url(#clip650)" d="M586.894 2202.29 Q583.283 2202.29 581.454 2205.86 Q579.649 2209.4 579.649 2216.53 Q579.649 2223.64 581.454 2227.2 Q583.283 2230.74 586.894 2230.74 Q590.528 2230.74 592.334 2227.2 Q594.162 2223.64 594.162 2216.53 Q594.162 2209.4 592.334 2205.86 Q590.528 2202.29 586.894 2202.29 M586.894 2198.59 Q592.704 2198.59 595.76 2203.2 Q598.838 2207.78 598.838 2216.53 Q598.838 2225.26 595.76 2229.86 Q592.704 2234.45 586.894 2234.45 Q581.084 2234.45 578.005 2229.86 Q574.95 2225.26 574.95 2216.53 Q574.95 2207.78 578.005 2203.2 Q581.084 2198.59 586.894 2198.59 Z" fill="#000000" fill-rule="nonzero" fill-opacity="1" /><path clip-path="url(#clip650)" d="M608.863 2190.81 Q606.305 2190.81 604.8 2192.56 Q603.315 2194.31 603.315 2197.36 Q603.315 2200.38 604.8 2202.15 Q606.305 2203.9 608.863 2203.9 Q611.421 2203.9 612.907 2202.15 Q614.411 2200.38 614.411 2197.36 Q614.411 2194.31 612.907 2192.56 Q611.421 2190.81 608.863 2190.81 M616.405 2178.91 L616.405 2182.37 Q614.975 2181.69 613.508 2181.33 Q612.06 2180.97 610.631 2180.97 Q606.869 2180.97 604.876 2183.51 Q602.901 2186.05 602.619 2191.19 Q603.728 2189.55 605.402 2188.69 Q607.076 2187.8 609.089 2187.8 Q613.32 2187.8 615.765 2190.38 Q618.229 2192.94 618.229 2197.36 Q618.229 2201.68 615.671 2204.3 Q613.113 2206.91 608.863 2206.91 Q603.992 2206.91 601.415 2203.19 Q598.838 2199.44 598.838 2192.35 Q598.838 2185.69 601.998 2181.75 Q605.158 2177.78 610.48 2177.78 Q611.91 2177.78 613.358 2178.06 Q614.825 2178.34 616.405 2178.91 Z" fill="#000000" fill-rule="nonzero" fill-opacity="1" /><path clip-path="url(#clip650)" d="M662.727 2216.95 L692.403 2216.95 L692.403 2220.88 L662.727 2220.88 L662.727 2216.95 Z" fill="#000000" fill-rule="nonzero" fill-opacity="1" /><path clip-path="url(#clip650)" d="M703.305 2229.84 L710.944 2229.84 L710.944 2203.47 L702.634 2205.14 L702.634 2200.88 L710.898 2199.22 L715.574 2199.22 L715.574 2229.84 L723.213 2229.84 L723.213 2233.78 L703.305 2233.78 L703.305 2229.84 Z" fill="#000000" fill-rule="nonzero" fill-opacity="1" /><path clip-path="url(#clip650)" d="M732.657 2227.9 L737.541 2227.9 L737.541 2233.78 L732.657 2233.78 L732.657 2227.9 Z" fill="#000000" fill-rule="nonzero" fill-opacity="1" /><path clip-path="url(#clip650)" d="M757.726 2202.29 Q754.115 2202.29 752.287 2205.86 Q750.481 2209.4 750.481 2216.53 Q750.481 2223.64 752.287 2227.2 Q754.115 2230.74 757.726 2230.74 Q761.361 2230.74 763.166 2227.2 Q764.995 2223.64 764.995 2216.53 Q764.995 2209.4 763.166 2205.86 Q761.361 2202.29 757.726 2202.29 M757.726 2198.59 Q763.537 2198.59 766.592 2203.2 Q769.671 2207.78 769.671 2216.53 Q769.671 2225.26 766.592 2229.86 Q763.537 2234.45 757.726 2234.45 Q751.916 2234.45 748.838 2229.86 Q745.782 2225.26 745.782 2216.53 Q745.782 2207.78 748.838 2203.2 Q751.916 2198.59 757.726 2198.59 Z" fill="#000000" fill-rule="nonzero" fill-opacity="1" /><path clip-path="url(#clip650)" d="M787.888 2202.29 Q784.277 2202.29 782.448 2205.86 Q780.643 2209.4 780.643 2216.53 Q780.643 2223.64 782.448 2227.2 Q784.277 2230.74 787.888 2230.74 Q791.522 2230.74 793.328 2227.2 Q795.157 2223.64 795.157 2216.53 Q795.157 2209.4 793.328 2205.86 Q791.522 2202.29 787.888 2202.29 M787.888 2198.59 Q793.698 2198.59 796.754 2203.2 Q799.833 2207.78 799.833 2216.53 Q799.833 2225.26 796.754 2229.86 Q793.698 2234.45 787.888 2234.45 Q782.078 2234.45 778.999 2229.86 Q775.944 2225.26 775.944 2216.53 Q775.944 2207.78 778.999 2203.2 Q782.078 2198.59 787.888 2198.59 Z" fill="#000000" fill-rule="nonzero" fill-opacity="1" /><path clip-path="url(#clip650)" d="M836.221 2208.31 L825.643 2218.94 L836.221 2229.52 L833.467 2232.32 L822.842 2221.69 L812.217 2232.32 L809.485 2229.52 L820.041 2218.94 L809.485 2208.31 L812.217 2205.51 L822.842 2216.14 L833.467 2205.51 L836.221 2208.31 Z" fill="#000000" fill-rule="nonzero" fill-opacity="1" /><path clip-path="url(#clip650)" d="M848.582 2229.84 L856.221 2229.84 L856.221 2203.47 L847.911 2205.14 L847.911 2200.88 L856.175 2199.22 L860.851 2199.22 L860.851 2229.84 L868.49 2229.84 L868.49 2233.78 L848.582 2233.78 L848.582 2229.84 Z" fill="#000000" fill-rule="nonzero" fill-opacity="1" /><path clip-path="url(#clip650)" d="M887.934 2202.29 Q884.323 2202.29 882.494 2205.86 Q880.689 2209.4 880.689 2216.53 Q880.689 2223.64 882.494 2227.2 Q884.323 2230.74 887.934 2230.74 Q891.568 2230.74 893.374 2227.2 Q895.202 2223.64 895.202 2216.53 Q895.202 2209.4 893.374 2205.86 Q891.568 2202.29 887.934 2202.29 M887.934 2198.59 Q893.744 2198.59 896.8 2203.2 Q899.878 2207.78 899.878 2216.53 Q899.878 2225.26 896.8 2229.86 Q893.744 2234.45 887.934 2234.45 Q882.124 2234.45 879.045 2229.86 Q875.99 2225.26 875.99 2216.53 Q875.99 2207.78 879.045 2203.2 Q882.124 2198.59 887.934 2198.59 Z" fill="#000000" fill-rule="nonzero" fill-opacity="1" /><path clip-path="url(#clip650)" d="M909.903 2190.81 Q907.345 2190.81 905.84 2192.56 Q904.355 2194.31 904.355 2197.36 Q904.355 2200.38 905.84 2202.15 Q907.345 2203.9 909.903 2203.9 Q912.461 2203.9 913.947 2202.15 Q915.451 2200.38 915.451 2197.36 Q915.451 2194.31 913.947 2192.56 Q912.461 2190.81 909.903 2190.81 M917.445 2178.91 L917.445 2182.37 Q916.015 2181.69 914.548 2181.33 Q913.1 2180.97 911.671 2180.97 Q907.909 2180.97 905.916 2183.51 Q903.941 2186.05 903.659 2191.19 Q904.768 2189.55 906.442 2188.69 Q908.116 2187.8 910.129 2187.8 Q914.36 2187.8 916.805 2190.38 Q919.269 2192.94 919.269 2197.36 Q919.269 2201.68 916.711 2204.3 Q914.153 2206.91 909.903 2206.91 Q905.032 2206.91 902.455 2203.19 Q899.878 2199.44 899.878 2192.35 Q899.878 2185.69 903.038 2181.75 Q906.198 2177.78 911.52 2177.78 Q912.95 2177.78 914.398 2178.06 Q915.865 2178.34 917.445 2178.91 Z" fill="#000000" fill-rule="nonzero" fill-opacity="1" /><path clip-path="url(#clip650)" d="M964.378 2216.95 L994.054 2216.95 L994.054 2220.88 L964.378 2220.88 L964.378 2216.95 Z" fill="#000000" fill-rule="nonzero" fill-opacity="1" /><path clip-path="url(#clip650)" d="M1004.19 2199.22 L1022.55 2199.22 L1022.55 2203.15 L1008.48 2203.15 L1008.48 2211.62 Q1009.49 2211.28 1010.51 2211.11 Q1011.53 2210.93 1012.55 2210.93 Q1018.34 2210.93 1021.72 2214.1 Q1025.1 2217.27 1025.1 2222.69 Q1025.1 2228.27 1021.62 2231.37 Q1018.15 2234.45 1011.83 2234.45 Q1009.66 2234.45 1007.39 2234.08 Q1005.14 2233.71 1002.73 2232.96 L1002.73 2228.27 Q1004.82 2229.4 1007.04 2229.96 Q1009.26 2230.51 1011.74 2230.51 Q1015.74 2230.51 1018.08 2228.4 Q1020.42 2226.3 1020.42 2222.69 Q1020.42 2219.08 1018.08 2216.97 Q1015.74 2214.86 1011.74 2214.86 Q1009.86 2214.86 1007.99 2215.28 Q1006.14 2215.7 1004.19 2216.58 L1004.19 2199.22 Z" fill="#000000" fill-rule="nonzero" fill-opacity="1" /><path clip-path="url(#clip650)" d="M1034.31 2227.9 L1039.19 2227.9 L1039.19 2233.78 L1034.31 2233.78 L1034.31 2227.9 Z" fill="#000000" fill-rule="nonzero" fill-opacity="1" /><path clip-path="url(#clip650)" d="M1059.38 2202.29 Q1055.77 2202.29 1053.94 2205.86 Q1052.13 2209.4 1052.13 2216.53 Q1052.13 2223.64 1053.94 2227.2 Q1055.77 2230.74 1059.38 2230.74 Q1063.01 2230.74 1064.82 2227.2 Q1066.65 2223.64 1066.65 2216.53 Q1066.65 2209.4 1064.82 2205.86 Q1063.01 2202.29 1059.38 2202.29 M1059.38 2198.59 Q1065.19 2198.59 1068.24 2203.2 Q1071.32 2207.78 1071.32 2216.53 Q1071.32 2225.26 1068.24 2229.86 Q1065.19 2234.45 1059.38 2234.45 Q1053.57 2234.45 1050.49 2229.86 Q1047.43 2225.26 1047.43 2216.53 Q1047.43 2207.78 1050.49 2203.2 Q1053.57 2198.59 1059.38 2198.59 Z" fill="#000000" fill-rule="nonzero" fill-opacity="1" /><path clip-path="url(#clip650)" d="M1089.54 2202.29 Q1085.93 2202.29 1084.1 2205.86 Q1082.29 2209.4 1082.29 2216.53 Q1082.29 2223.64 1084.1 2227.2 Q1085.93 2230.74 1089.54 2230.74 Q1093.17 2230.74 1094.98 2227.2 Q1096.81 2223.64 1096.81 2216.53 Q1096.81 2209.4 1094.98 2205.86 Q1093.17 2202.29 1089.54 2202.29 M1089.54 2198.59 Q1095.35 2198.59 1098.41 2203.2 Q1101.48 2207.78 1101.48 2216.53 Q1101.48 2225.26 1098.41 2229.86 Q1095.35 2234.45 1089.54 2234.45 Q1083.73 2234.45 1080.65 2229.86 Q1077.6 2225.26 1077.6 2216.53 Q1077.6 2207.78 1080.65 2203.2 Q1083.73 2198.59 1089.54 2198.59 Z" fill="#000000" fill-rule="nonzero" fill-opacity="1" /><path clip-path="url(#clip650)" d="M1137.87 2208.31 L1127.29 2218.94 L1137.87 2229.52 L1135.12 2232.32 L1124.49 2221.69 L1113.87 2232.32 L1111.14 2229.52 L1121.69 2218.94 L1111.14 2208.31 L1113.87 2205.51 L1124.49 2216.14 L1135.12 2205.51 L1137.87 2208.31 Z" fill="#000000" fill-rule="nonzero" fill-opacity="1" /><path clip-path="url(#clip650)" d="M1150.23 2229.84 L1157.87 2229.84 L1157.87 2203.47 L1149.56 2205.14 L1149.56 2200.88 L1157.83 2199.22 L1162.5 2199.22 L1162.5 2229.84 L1170.14 2229.84 L1170.14 2233.78 L1150.23 2233.78 L1150.23 2229.84 Z" fill="#000000" fill-rule="nonzero" fill-opacity="1" /><path clip-path="url(#clip650)" d="M1189.59 2202.29 Q1185.97 2202.29 1184.15 2205.86 Q1182.34 2209.4 1182.34 2216.53 Q1182.34 2223.64 1184.15 2227.2 Q1185.97 2230.74 1189.59 2230.74 Q1193.22 2230.74 1195.03 2227.2 Q1196.85 2223.64 1196.85 2216.53 Q1196.85 2209.4 1195.03 2205.86 Q1193.22 2202.29 1189.59 2202.29 M1189.59 2198.59 Q1195.4 2198.59 1198.45 2203.2 Q1201.53 2207.78 1201.53 2216.53 Q1201.53 2225.26 1198.45 2229.86 Q1195.4 2234.45 1189.59 2234.45 Q1183.78 2234.45 1180.7 2229.86 Q1177.64 2225.26 1177.64 2216.53 Q1177.64 2207.78 1180.7 2203.2 Q1183.78 2198.59 1189.59 2198.59 Z" fill="#000000" fill-rule="nonzero" fill-opacity="1" /><path clip-path="url(#clip650)" d="M1202.71 2178.28 L1217.63 2178.28 L1217.63 2181.48 L1206.19 2181.48 L1206.19 2188.37 Q1207.02 2188.08 1207.85 2187.95 Q1208.68 2187.8 1209.5 2187.8 Q1214.21 2187.8 1216.95 2190.38 Q1219.7 2192.95 1219.7 2197.36 Q1219.7 2201.89 1216.88 2204.41 Q1214.06 2206.91 1208.92 2206.91 Q1207.15 2206.91 1205.31 2206.61 Q1203.49 2206.31 1201.53 2205.71 L1201.53 2201.89 Q1203.22 2202.81 1205.03 2203.26 Q1206.83 2203.71 1208.85 2203.71 Q1212.1 2203.71 1214 2202 Q1215.9 2200.29 1215.9 2197.36 Q1215.9 2194.42 1214 2192.71 Q1212.1 2191 1208.85 2191 Q1207.32 2191 1205.8 2191.34 Q1204.29 2191.68 1202.71 2192.39 L1202.71 2178.28 Z" fill="#000000" fill-rule="nonzero" fill-opacity="1" /><path clip-path="url(#clip650)" d="M1393.08 2186.63 Q1389.47 2186.63 1387.64 2190.2 Q1385.83 2193.74 1385.83 2200.87 Q1385.83 2207.98 1387.64 2211.54 Q1389.47 2215.08 1393.08 2215.08 Q1396.71 2215.08 1398.52 2211.54 Q1400.35 2207.98 1400.35 2200.87 Q1400.35 2193.74 1398.52 2190.2 Q1396.71 2186.63 1393.08 2186.63 M1393.08 2182.93 Q1398.89 2182.93 1401.94 2187.54 Q1405.02 2192.12 1405.02 2200.87 Q1405.02 2209.6 1401.94 2214.2 Q1398.89 2218.79 1393.08 2218.79 Q1387.27 2218.79 1384.19 2214.2 Q1381.13 2209.6 1381.13 2200.87 Q1381.13 2192.12 1384.19 2187.54 Q1387.27 2182.93 1393.08 2182.93 Z" fill="#000000" fill-rule="nonzero" fill-opacity="1" /><path clip-path="url(#clip650)" d="M1587.09 2199.22 L1605.45 2199.22 L1605.45 2203.15 L1591.38 2203.15 L1591.38 2211.62 Q1592.4 2211.28 1593.41 2211.11 Q1594.43 2210.93 1595.45 2210.93 Q1601.24 2210.93 1604.62 2214.1 Q1608 2217.27 1608 2222.69 Q1608 2228.27 1604.53 2231.37 Q1601.05 2234.45 1594.73 2234.45 Q1592.56 2234.45 1590.29 2234.08 Q1588.04 2233.71 1585.64 2232.96 L1585.64 2228.27 Q1587.72 2229.4 1589.94 2229.96 Q1592.16 2230.51 1594.64 2230.51 Q1598.65 2230.51 1600.98 2228.4 Q1603.32 2226.3 1603.32 2222.69 Q1603.32 2219.08 1600.98 2216.97 Q1598.65 2214.86 1594.64 2214.86 Q1592.77 2214.86 1590.89 2215.28 Q1589.04 2215.7 1587.09 2216.58 L1587.09 2199.22 Z" fill="#000000" fill-rule="nonzero" fill-opacity="1" /><path clip-path="url(#clip650)" d="M1617.21 2227.9 L1622.09 2227.9 L1622.09 2233.78 L1617.21 2233.78 L1617.21 2227.9 Z" fill="#000000" fill-rule="nonzero" fill-opacity="1" /><path clip-path="url(#clip650)" d="M1642.28 2202.29 Q1638.67 2202.29 1636.84 2205.86 Q1635.03 2209.4 1635.03 2216.53 Q1635.03 2223.64 1636.84 2227.2 Q1638.67 2230.74 1642.28 2230.74 Q1645.91 2230.74 1647.72 2227.2 Q1649.55 2223.64 1649.55 2216.53 Q1649.55 2209.4 1647.72 2205.86 Q1645.91 2202.29 1642.28 2202.29 M1642.28 2198.59 Q1648.09 2198.59 1651.15 2203.2 Q1654.22 2207.78 1654.22 2216.53 Q1654.22 2225.26 1651.15 2229.86 Q1648.09 2234.45 1642.28 2234.45 Q1636.47 2234.45 1633.39 2229.86 Q1630.34 2225.26 1630.34 2216.53 Q1630.34 2207.78 1633.39 2203.2 Q1636.47 2198.59 1642.28 2198.59 Z" fill="#000000" fill-rule="nonzero" fill-opacity="1" /><path clip-path="url(#clip650)" d="M1672.44 2202.29 Q1668.83 2202.29 1667 2205.86 Q1665.2 2209.4 1665.2 2216.53 Q1665.2 2223.64 1667 2227.2 Q1668.83 2230.74 1672.44 2230.74 Q1676.08 2230.74 1677.88 2227.2 Q1679.71 2223.64 1679.71 2216.53 Q1679.71 2209.4 1677.88 2205.86 Q1676.08 2202.29 1672.44 2202.29 M1672.44 2198.59 Q1678.25 2198.59 1681.31 2203.2 Q1684.39 2207.78 1684.39 2216.53 Q1684.39 2225.26 1681.31 2229.86 Q1678.25 2234.45 1672.44 2234.45 Q1666.63 2234.45 1663.55 2229.86 Q1660.5 2225.26 1660.5 2216.53 Q1660.5 2207.78 1663.55 2203.2 Q1666.63 2198.59 1672.44 2198.59 Z" fill="#000000" fill-rule="nonzero" fill-opacity="1" /><path clip-path="url(#clip650)" d="M1720.77 2208.31 L1710.2 2218.94 L1720.77 2229.52 L1718.02 2232.32 L1707.39 2221.69 L1696.77 2232.32 L1694.04 2229.52 L1704.59 2218.94 L1694.04 2208.31 L1696.77 2205.51 L1707.39 2216.14 L1718.02 2205.51 L1720.77 2208.31 Z" fill="#000000" fill-rule="nonzero" fill-opacity="1" /><path clip-path="url(#clip650)" d="M1733.14 2229.84 L1740.77 2229.84 L1740.77 2203.47 L1732.46 2205.14 L1732.46 2200.88 L1740.73 2199.22 L1745.4 2199.22 L1745.4 2229.84 L1753.04 2229.84 L1753.04 2233.78 L1733.14 2233.78 L1733.14 2229.84 Z" fill="#000000" fill-rule="nonzero" fill-opacity="1" /><path clip-path="url(#clip650)" d="M1772.49 2202.29 Q1768.88 2202.29 1767.05 2205.86 Q1765.24 2209.4 1765.24 2216.53 Q1765.24 2223.64 1767.05 2227.2 Q1768.88 2230.74 1772.49 2230.74 Q1776.12 2230.74 1777.93 2227.2 Q1779.76 2223.64 1779.76 2216.53 Q1779.76 2209.4 1777.93 2205.86 Q1776.12 2202.29 1772.49 2202.29 M1772.49 2198.59 Q1778.3 2198.59 1781.35 2203.2 Q1784.43 2207.78 1784.43 2216.53 Q1784.43 2225.26 1781.35 2229.86 Q1778.3 2234.45 1772.49 2234.45 Q1766.68 2234.45 1763.6 2229.86 Q1760.54 2225.26 1760.54 2216.53 Q1760.54 2207.78 1763.6 2203.2 Q1766.68 2198.59 1772.49 2198.59 Z" fill="#000000" fill-rule="nonzero" fill-opacity="1" /><path clip-path="url(#clip650)" d="M1785.62 2178.28 L1800.53 2178.28 L1800.53 2181.48 L1789.1 2181.48 L1789.1 2188.37 Q1789.92 2188.08 1790.75 2187.95 Q1791.58 2187.8 1792.41 2187.8 Q1797.11 2187.8 1799.85 2190.38 Q1802.6 2192.95 1802.6 2197.36 Q1802.6 2201.89 1799.78 2204.41 Q1796.96 2206.91 1791.82 2206.91 Q1790.06 2206.91 1788.21 2206.61 Q1786.39 2206.31 1784.43 2205.71 L1784.43 2201.89 Q1786.12 2202.81 1787.93 2203.26 Q1789.74 2203.71 1791.75 2203.71 Q1795 2203.71 1796.9 2202 Q1798.8 2200.29 1798.8 2197.36 Q1798.8 2194.42 1796.9 2192.71 Q1795 2191 1791.75 2191 Q1790.22 2191 1788.7 2191.34 Q1787.2 2191.68 1785.62 2192.39 L1785.62 2178.28 Z" fill="#000000" fill-rule="nonzero" fill-opacity="1" /><path clip-path="url(#clip650)" d="M1887.51 2229.84 L1895.15 2229.84 L1895.15 2203.47 L1886.84 2205.14 L1886.84 2200.88 L1895.1 2199.22 L1899.78 2199.22 L1899.78 2229.84 L1907.42 2229.84 L1907.42 2233.78 L1887.51 2233.78 L1887.51 2229.84 Z" fill="#000000" fill-rule="nonzero" fill-opacity="1" /><path clip-path="url(#clip650)" d="M1916.86 2227.9 L1921.75 2227.9 L1921.75 2233.78 L1916.86 2233.78 L1916.86 2227.9 Z" fill="#000000" fill-rule="nonzero" fill-opacity="1" /><path clip-path="url(#clip650)" d="M1941.93 2202.29 Q1938.32 2202.29 1936.49 2205.86 Q1934.69 2209.4 1934.69 2216.53 Q1934.69 2223.64 1936.49 2227.2 Q1938.32 2230.74 1941.93 2230.74 Q1945.57 2230.74 1947.37 2227.2 Q1949.2 2223.64 1949.2 2216.53 Q1949.2 2209.4 1947.37 2205.86 Q1945.57 2202.29 1941.93 2202.29 M1941.93 2198.59 Q1947.74 2198.59 1950.8 2203.2 Q1953.88 2207.78 1953.88 2216.53 Q1953.88 2225.26 1950.8 2229.86 Q1947.74 2234.45 1941.93 2234.45 Q1936.12 2234.45 1933.04 2229.86 Q1929.99 2225.26 1929.99 2216.53 Q1929.99 2207.78 1933.04 2203.2 Q1936.12 2198.59 1941.93 2198.59 Z" fill="#000000" fill-rule="nonzero" fill-opacity="1" /><path clip-path="url(#clip650)" d="M1972.09 2202.29 Q1968.48 2202.29 1966.65 2205.86 Q1964.85 2209.4 1964.85 2216.53 Q1964.85 2223.64 1966.65 2227.2 Q1968.48 2230.74 1972.09 2230.74 Q1975.73 2230.74 1977.53 2227.2 Q1979.36 2223.64 1979.36 2216.53 Q1979.36 2209.4 1977.53 2205.86 Q1975.73 2202.29 1972.09 2202.29 M1972.09 2198.59 Q1977.9 2198.59 1980.96 2203.2 Q1984.04 2207.78 1984.04 2216.53 Q1984.04 2225.26 1980.96 2229.86 Q1977.9 2234.45 1972.09 2234.45 Q1966.28 2234.45 1963.21 2229.86 Q1960.15 2225.26 1960.15 2216.53 Q1960.15 2207.78 1963.21 2203.2 Q1966.28 2198.59 1972.09 2198.59 Z" fill="#000000" fill-rule="nonzero" fill-opacity="1" /><path clip-path="url(#clip650)" d="M2020.43 2208.31 L2009.85 2218.94 L2020.43 2229.52 L2017.67 2232.32 L2007.05 2221.69 L1996.42 2232.32 L1993.69 2229.52 L2004.25 2218.94 L1993.69 2208.31 L1996.42 2205.51 L2007.05 2216.14 L2017.67 2205.51 L2020.43 2208.31 Z" fill="#000000" fill-rule="nonzero" fill-opacity="1" /><path clip-path="url(#clip650)" d="M2032.79 2229.84 L2040.43 2229.84 L2040.43 2203.47 L2032.12 2205.14 L2032.12 2200.88 L2040.38 2199.22 L2045.06 2199.22 L2045.06 2229.84 L2052.7 2229.84 L2052.7 2233.78 L2032.79 2233.78 L2032.79 2229.84 Z" fill="#000000" fill-rule="nonzero" fill-opacity="1" /><path clip-path="url(#clip650)" d="M2072.14 2202.29 Q2068.53 2202.29 2066.7 2205.86 Q2064.9 2209.4 2064.9 2216.53 Q2064.9 2223.64 2066.7 2227.2 Q2068.53 2230.74 2072.14 2230.74 Q2075.77 2230.74 2077.58 2227.2 Q2079.41 2223.64 2079.41 2216.53 Q2079.41 2209.4 2077.58 2205.86 Q2075.77 2202.29 2072.14 2202.29 M2072.14 2198.59 Q2077.95 2198.59 2081.01 2203.2 Q2084.08 2207.78 2084.08 2216.53 Q2084.08 2225.26 2081.01 2229.86 Q2077.95 2234.45 2072.14 2234.45 Q2066.33 2234.45 2063.25 2229.86 Q2060.2 2225.26 2060.2 2216.53 Q2060.2 2207.78 2063.25 2203.2 Q2066.33 2198.59 2072.14 2198.59 Z" fill="#000000" fill-rule="nonzero" fill-opacity="1" /><path clip-path="url(#clip650)" d="M2094.11 2190.81 Q2091.55 2190.81 2090.05 2192.56 Q2088.56 2194.31 2088.56 2197.36 Q2088.56 2200.38 2090.05 2202.15 Q2091.55 2203.9 2094.11 2203.9 Q2096.67 2203.9 2098.15 2202.15 Q2099.66 2200.38 2099.66 2197.36 Q2099.66 2194.31 2098.15 2192.56 Q2096.67 2190.81 2094.11 2190.81 M2101.65 2178.91 L2101.65 2182.37 Q2100.22 2181.69 2098.75 2181.33 Q2097.31 2180.97 2095.88 2180.97 Q2092.12 2180.97 2090.12 2183.51 Q2088.15 2186.05 2087.87 2191.19 Q2088.97 2189.55 2090.65 2188.69 Q2092.32 2187.8 2094.34 2187.8 Q2098.57 2187.8 2101.01 2190.38 Q2103.48 2192.94 2103.48 2197.36 Q2103.48 2201.68 2100.92 2204.3 Q2098.36 2206.91 2094.11 2206.91 Q2089.24 2206.91 2086.66 2203.19 Q2084.08 2199.44 2084.08 2192.35 Q2084.08 2185.69 2087.24 2181.75 Q2090.4 2177.78 2095.73 2177.78 Q2097.16 2177.78 2098.6 2178.06 Q2100.07 2178.34 2101.65 2178.91 Z" fill="#000000" fill-rule="nonzero" fill-opacity="1" /><path clip-path="url(#clip650)" d="M2188.55 2229.84 L2196.19 2229.84 L2196.19 2203.47 L2187.88 2205.14 L2187.88 2200.88 L2196.14 2199.22 L2200.82 2199.22 L2200.82 2229.84 L2208.46 2229.84 L2208.46 2233.78 L2188.55 2233.78 L2188.55 2229.84 Z" fill="#000000" fill-rule="nonzero" fill-opacity="1" /><path clip-path="url(#clip650)" d="M2217.9 2227.9 L2222.79 2227.9 L2222.79 2233.78 L2217.9 2233.78 L2217.9 2227.9 Z" fill="#000000" fill-rule="nonzero" fill-opacity="1" /><path clip-path="url(#clip650)" d="M2233.02 2199.22 L2251.38 2199.22 L2251.38 2203.15 L2237.3 2203.15 L2237.3 2211.62 Q2238.32 2211.28 2239.34 2211.11 Q2240.36 2210.93 2241.38 2210.93 Q2247.16 2210.93 2250.54 2214.1 Q2253.92 2217.27 2253.92 2222.69 Q2253.92 2228.27 2250.45 2231.37 Q2246.98 2234.45 2240.66 2234.45 Q2238.48 2234.45 2236.21 2234.08 Q2233.97 2233.71 2231.56 2232.96 L2231.56 2228.27 Q2233.64 2229.4 2235.87 2229.96 Q2238.09 2230.51 2240.57 2230.51 Q2244.57 2230.51 2246.91 2228.4 Q2249.25 2226.3 2249.25 2222.69 Q2249.25 2219.08 2246.91 2216.97 Q2244.57 2214.86 2240.57 2214.86 Q2238.69 2214.86 2236.82 2215.28 Q2234.96 2215.7 2233.02 2216.58 L2233.02 2199.22 Z" fill="#000000" fill-rule="nonzero" fill-opacity="1" /><path clip-path="url(#clip650)" d="M2273.13 2202.29 Q2269.52 2202.29 2267.69 2205.86 Q2265.89 2209.4 2265.89 2216.53 Q2265.89 2223.64 2267.69 2227.2 Q2269.52 2230.74 2273.13 2230.74 Q2276.77 2230.74 2278.57 2227.2 Q2280.4 2223.64 2280.4 2216.53 Q2280.4 2209.4 2278.57 2205.86 Q2276.77 2202.29 2273.13 2202.29 M2273.13 2198.59 Q2278.94 2198.59 2282 2203.2 Q2285.08 2207.78 2285.08 2216.53 Q2285.08 2225.26 2282 2229.86 Q2278.94 2234.45 2273.13 2234.45 Q2267.32 2234.45 2264.25 2229.86 Q2261.19 2225.26 2261.19 2216.53 Q2261.19 2207.78 2264.25 2203.2 Q2267.32 2198.59 2273.13 2198.59 Z" fill="#000000" fill-rule="nonzero" fill-opacity="1" /><path clip-path="url(#clip650)" d="M2321.47 2208.31 L2310.89 2218.94 L2321.47 2229.52 L2318.71 2232.32 L2308.09 2221.69 L2297.46 2232.32 L2294.73 2229.52 L2305.29 2218.94 L2294.73 2208.31 L2297.46 2205.51 L2308.09 2216.14 L2318.71 2205.51 L2321.47 2208.31 Z" fill="#000000" fill-rule="nonzero" fill-opacity="1" /><path clip-path="url(#clip650)" d="M2333.83 2229.84 L2341.47 2229.84 L2341.47 2203.47 L2333.16 2205.14 L2333.16 2200.88 L2341.42 2199.22 L2346.1 2199.22 L2346.1 2229.84 L2353.74 2229.84 L2353.74 2233.78 L2333.83 2233.78 L2333.83 2229.84 Z" fill="#000000" fill-rule="nonzero" fill-opacity="1" /><path clip-path="url(#clip650)" d="M2373.18 2202.29 Q2369.57 2202.29 2367.74 2205.86 Q2365.94 2209.4 2365.94 2216.53 Q2365.94 2223.64 2367.74 2227.2 Q2369.57 2230.74 2373.18 2230.74 Q2376.81 2230.74 2378.62 2227.2 Q2380.45 2223.64 2380.45 2216.53 Q2380.45 2209.4 2378.62 2205.86 Q2376.81 2202.29 2373.18 2202.29 M2373.18 2198.59 Q2378.99 2198.59 2382.05 2203.2 Q2385.12 2207.78 2385.12 2216.53 Q2385.12 2225.26 2382.05 2229.86 Q2378.99 2234.45 2373.18 2234.45 Q2367.37 2234.45 2364.29 2229.86 Q2361.24 2225.26 2361.24 2216.53 Q2361.24 2207.78 2364.29 2203.2 Q2367.37 2198.59 2373.18 2198.59 Z" fill="#000000" fill-rule="nonzero" fill-opacity="1" /><path clip-path="url(#clip650)" d="M2395.15 2190.81 Q2392.59 2190.81 2391.09 2192.56 Q2389.6 2194.31 2389.6 2197.36 Q2389.6 2200.38 2391.09 2202.15 Q2392.59 2203.9 2395.15 2203.9 Q2397.71 2203.9 2399.19 2202.15 Q2400.7 2200.38 2400.7 2197.36 Q2400.7 2194.31 2399.19 2192.56 Q2397.71 2190.81 2395.15 2190.81 M2402.69 2178.91 L2402.69 2182.37 Q2401.26 2181.69 2399.79 2181.33 Q2398.35 2180.97 2396.92 2180.97 Q2393.16 2180.97 2391.16 2183.51 Q2389.19 2186.05 2388.91 2191.19 Q2390.01 2189.55 2391.69 2188.69 Q2393.36 2187.8 2395.38 2187.8 Q2399.61 2187.8 2402.05 2190.38 Q2404.52 2192.94 2404.52 2197.36 Q2404.52 2201.68 2401.96 2204.3 Q2399.4 2206.91 2395.15 2206.91 Q2390.28 2206.91 2387.7 2203.19 Q2385.12 2199.44 2385.12 2192.35 Q2385.12 2185.69 2388.28 2181.75 Q2391.44 2177.78 2396.77 2177.78 Q2398.2 2177.78 2399.64 2178.06 Q2401.11 2178.34 2402.69 2178.91 Z" fill="#000000" fill-rule="nonzero" fill-opacity="1" /><path clip-path="url(#clip650)" d="M1289.98 2271.48 L1296.89 2271.48 L1308.7 2289.15 L1320.57 2271.48 L1327.48 2271.48 L1312.2 2294.3 L1328.5 2319 L1321.59 2319 L1308.22 2298.79 L1294.76 2319 L1287.82 2319 L1304.78 2293.64 L1289.98 2271.48 Z" fill="#000000" fill-rule="nonzero" fill-opacity="1" /><path clip-path="url(#clip650)" d="M1371.46 2269.54 Q1367.2 2276.86 1365.13 2284.02 Q1363.06 2291.19 1363.06 2298.54 Q1363.06 2305.89 1365.13 2313.12 Q1367.23 2320.31 1371.46 2327.6 L1366.37 2327.6 Q1361.6 2320.12 1359.21 2312.89 Q1356.85 2305.67 1356.85 2298.54 Q1356.85 2291.44 1359.21 2284.25 Q1361.57 2277.05 1366.37 2269.54 L1371.46 2269.54 Z" fill="#000000" fill-rule="nonzero" fill-opacity="1" /><path clip-path="url(#clip650)" d="M1383.08 2271.48 L1389.51 2271.48 L1389.51 2291.57 L1410.84 2271.48 L1419.11 2271.48 L1395.53 2293.64 L1420.8 2319 L1412.33 2319 L1389.51 2296.12 L1389.51 2319 L1383.08 2319 L1383.08 2271.48 Z" fill="#000000" fill-rule="nonzero" fill-opacity="1" /><path clip-path="url(#clip650)" d="M1425.83 2271.48 L1435.41 2271.48 L1447.53 2303.82 L1459.72 2271.48 L1469.3 2271.48 L1469.3 2319 L1463.03 2319 L1463.03 2277.28 L1450.78 2309.87 L1444.32 2309.87 L1432.07 2277.28 L1432.07 2319 L1425.83 2319 L1425.83 2271.48 Z" fill="#000000" fill-rule="nonzero" fill-opacity="1" /><path clip-path="url(#clip650)" d="M1480.89 2269.54 L1485.98 2269.54 Q1490.76 2277.05 1493.11 2284.25 Q1495.5 2291.44 1495.5 2298.54 Q1495.5 2305.67 1493.11 2312.89 Q1490.76 2320.12 1485.98 2327.6 L1480.89 2327.6 Q1485.12 2320.31 1487.19 2313.12 Q1489.29 2305.89 1489.29 2298.54 Q1489.29 2291.19 1487.19 2284.02 Q1485.12 2276.86 1480.89 2269.54 Z" fill="#000000" fill-rule="nonzero" fill-opacity="1" /><polyline clip-path="url(#clip650)" style="stroke:#000000; stroke-linecap:round; stroke-linejoin:round; stroke-width:4; stroke-opacity:1; fill:none" points="430.562,2155.72 430.562,47.2441 "/>
<polyline clip-path="url(#clip650)" style="stroke:#000000; stroke-linecap:round; stroke-linejoin:round; stroke-width:4; stroke-opacity:1; fill:none" points="430.562,2105.72 449.46,2105.72 "/>
<polyline clip-path="url(#clip650)" style="stroke:#000000; stroke-linecap:round; stroke-linejoin:round; stroke-width:4; stroke-opacity:1; fill:none" points="430.562,1775.94 449.46,1775.94 "/>
<polyline clip-path="url(#clip650)" style="stroke:#000000; stroke-linecap:round; stroke-linejoin:round; stroke-width:4; stroke-opacity:1; fill:none" points="430.562,1446.16 449.46,1446.16 "/>
<polyline clip-path="url(#clip650)" style="stroke:#000000; stroke-linecap:round; stroke-linejoin:round; stroke-width:4; stroke-opacity:1; fill:none" points="430.562,1116.39 449.46,1116.39 "/>
<polyline clip-path="url(#clip650)" style="stroke:#000000; stroke-linecap:round; stroke-linejoin:round; stroke-width:4; stroke-opacity:1; fill:none" points="430.562,786.606 449.46,786.606 "/>
<polyline clip-path="url(#clip650)" style="stroke:#000000; stroke-linecap:round; stroke-linejoin:round; stroke-width:4; stroke-opacity:1; fill:none" points="430.562,456.827 449.46,456.827 "/>
<polyline clip-path="url(#clip650)" style="stroke:#000000; stroke-linecap:round; stroke-linejoin:round; stroke-width:4; stroke-opacity:1; fill:none" points="430.562,127.047 449.46,127.047 "/>
<path clip-path="url(#clip650)" d="M138.02 2112.62 L167.696 2112.62 L167.696 2116.56 L138.02 2116.56 L138.02 2112.62 Z" fill="#000000" fill-rule="nonzero" fill-opacity="1" /><path clip-path="url(#clip650)" d="M178.599 2125.52 L186.237 2125.52 L186.237 2099.15 L177.927 2100.82 L177.927 2096.56 L186.191 2094.89 L190.867 2094.89 L190.867 2125.52 L198.506 2125.52 L198.506 2129.45 L178.599 2129.45 L178.599 2125.52 Z" fill="#000000" fill-rule="nonzero" fill-opacity="1" /><path clip-path="url(#clip650)" d="M207.95 2123.57 L212.835 2123.57 L212.835 2129.45 L207.95 2129.45 L207.95 2123.57 Z" fill="#000000" fill-rule="nonzero" fill-opacity="1" /><path clip-path="url(#clip650)" d="M223.066 2094.89 L241.422 2094.89 L241.422 2098.83 L227.348 2098.83 L227.348 2107.3 Q228.367 2106.95 229.385 2106.79 Q230.404 2106.6 231.422 2106.6 Q237.209 2106.6 240.589 2109.78 Q243.969 2112.95 243.969 2118.36 Q243.969 2123.94 240.496 2127.04 Q237.024 2130.12 230.705 2130.12 Q228.529 2130.12 226.26 2129.75 Q224.015 2129.38 221.608 2128.64 L221.608 2123.94 Q223.691 2125.08 225.913 2125.63 Q228.135 2126.19 230.612 2126.19 Q234.617 2126.19 236.955 2124.08 Q239.293 2121.97 239.293 2118.36 Q239.293 2114.75 236.955 2112.65 Q234.617 2110.54 230.612 2110.54 Q228.737 2110.54 226.862 2110.96 Q225.01 2111.37 223.066 2112.25 L223.066 2094.89 Z" fill="#000000" fill-rule="nonzero" fill-opacity="1" /><path clip-path="url(#clip650)" d="M263.182 2097.97 Q259.57 2097.97 257.742 2101.53 Q255.936 2105.08 255.936 2112.21 Q255.936 2119.31 257.742 2122.88 Q259.57 2126.42 263.182 2126.42 Q266.816 2126.42 268.621 2122.88 Q270.45 2119.31 270.45 2112.21 Q270.45 2105.08 268.621 2101.53 Q266.816 2097.97 263.182 2097.97 M263.182 2094.27 Q268.992 2094.27 272.047 2098.87 Q275.126 2103.46 275.126 2112.21 Q275.126 2120.93 272.047 2125.54 Q268.992 2130.12 263.182 2130.12 Q257.371 2130.12 254.293 2125.54 Q251.237 2120.93 251.237 2112.21 Q251.237 2103.46 254.293 2098.87 Q257.371 2094.27 263.182 2094.27 Z" fill="#000000" fill-rule="nonzero" fill-opacity="1" /><path clip-path="url(#clip650)" d="M311.515 2103.99 L300.936 2114.61 L311.515 2125.19 L308.76 2127.99 L298.135 2117.37 L287.51 2127.99 L284.779 2125.19 L295.334 2114.61 L284.779 2103.99 L287.51 2101.19 L298.135 2111.81 L308.76 2101.19 L311.515 2103.99 Z" fill="#000000" fill-rule="nonzero" fill-opacity="1" /><path clip-path="url(#clip650)" d="M323.876 2125.52 L331.514 2125.52 L331.514 2099.15 L323.204 2100.82 L323.204 2096.56 L331.468 2094.89 L336.144 2094.89 L336.144 2125.52 L343.783 2125.52 L343.783 2129.45 L323.876 2129.45 L323.876 2125.52 Z" fill="#000000" fill-rule="nonzero" fill-opacity="1" /><path clip-path="url(#clip650)" d="M363.227 2097.97 Q359.616 2097.97 357.787 2101.53 Q355.982 2105.08 355.982 2112.21 Q355.982 2119.31 357.787 2122.88 Q359.616 2126.42 363.227 2126.42 Q366.862 2126.42 368.667 2122.88 Q370.496 2119.31 370.496 2112.21 Q370.496 2105.08 368.667 2101.53 Q366.862 2097.97 363.227 2097.97 M363.227 2094.27 Q369.037 2094.27 372.093 2098.87 Q375.172 2103.46 375.172 2112.21 Q375.172 2120.93 372.093 2125.54 Q369.037 2130.12 363.227 2130.12 Q357.417 2130.12 354.338 2125.54 Q351.283 2120.93 351.283 2112.21 Q351.283 2103.46 354.338 2098.87 Q357.417 2094.27 363.227 2094.27 Z" fill="#000000" fill-rule="nonzero" fill-opacity="1" /><path clip-path="url(#clip650)" d="M385.196 2086.49 Q382.638 2086.49 381.134 2088.24 Q379.648 2089.98 379.648 2093.03 Q379.648 2096.06 381.134 2097.83 Q382.638 2099.58 385.196 2099.58 Q387.754 2099.58 389.24 2097.83 Q390.744 2096.06 390.744 2093.03 Q390.744 2089.98 389.24 2088.24 Q387.754 2086.49 385.196 2086.49 M392.738 2074.58 L392.738 2078.04 Q391.309 2077.36 389.842 2077.01 Q388.394 2076.65 386.964 2076.65 Q383.203 2076.65 381.209 2079.19 Q379.234 2081.73 378.952 2086.86 Q380.062 2085.23 381.736 2084.36 Q383.409 2083.48 385.422 2083.48 Q389.654 2083.48 392.099 2086.05 Q394.562 2088.61 394.562 2093.03 Q394.562 2097.36 392.005 2099.97 Q389.447 2102.59 385.196 2102.59 Q380.325 2102.59 377.748 2098.86 Q375.172 2095.12 375.172 2088.03 Q375.172 2081.37 378.331 2077.42 Q381.491 2073.45 386.814 2073.45 Q388.243 2073.45 389.691 2073.73 Q391.158 2074.02 392.738 2074.58 Z" fill="#000000" fill-rule="nonzero" fill-opacity="1" /><path clip-path="url(#clip650)" d="M138.02 1782.84 L167.696 1782.84 L167.696 1786.78 L138.02 1786.78 L138.02 1782.84 Z" fill="#000000" fill-rule="nonzero" fill-opacity="1" /><path clip-path="url(#clip650)" d="M178.599 1795.74 L186.237 1795.74 L186.237 1769.37 L177.927 1771.04 L177.927 1766.78 L186.191 1765.11 L190.867 1765.11 L190.867 1795.74 L198.506 1795.74 L198.506 1799.67 L178.599 1799.67 L178.599 1795.74 Z" fill="#000000" fill-rule="nonzero" fill-opacity="1" /><path clip-path="url(#clip650)" d="M207.95 1793.79 L212.835 1793.79 L212.835 1799.67 L207.95 1799.67 L207.95 1793.79 Z" fill="#000000" fill-rule="nonzero" fill-opacity="1" /><path clip-path="url(#clip650)" d="M233.02 1768.19 Q229.409 1768.19 227.58 1771.76 Q225.774 1775.3 225.774 1782.43 Q225.774 1789.53 227.58 1793.1 Q229.409 1796.64 233.02 1796.64 Q236.654 1796.64 238.459 1793.1 Q240.288 1789.53 240.288 1782.43 Q240.288 1775.3 238.459 1771.76 Q236.654 1768.19 233.02 1768.19 M233.02 1764.49 Q238.83 1764.49 241.885 1769.09 Q244.964 1773.68 244.964 1782.43 Q244.964 1791.15 241.885 1795.76 Q238.83 1800.34 233.02 1800.34 Q227.209 1800.34 224.131 1795.76 Q221.075 1791.15 221.075 1782.43 Q221.075 1773.68 224.131 1769.09 Q227.209 1764.49 233.02 1764.49 Z" fill="#000000" fill-rule="nonzero" fill-opacity="1" /><path clip-path="url(#clip650)" d="M263.182 1768.19 Q259.57 1768.19 257.742 1771.76 Q255.936 1775.3 255.936 1782.43 Q255.936 1789.53 257.742 1793.1 Q259.57 1796.64 263.182 1796.64 Q266.816 1796.64 268.621 1793.1 Q270.45 1789.53 270.45 1782.43 Q270.45 1775.3 268.621 1771.76 Q266.816 1768.19 263.182 1768.19 M263.182 1764.49 Q268.992 1764.49 272.047 1769.09 Q275.126 1773.68 275.126 1782.43 Q275.126 1791.15 272.047 1795.76 Q268.992 1800.34 263.182 1800.34 Q257.371 1800.34 254.293 1795.76 Q251.237 1791.15 251.237 1782.43 Q251.237 1773.68 254.293 1769.09 Q257.371 1764.49 263.182 1764.49 Z" fill="#000000" fill-rule="nonzero" fill-opacity="1" /><path clip-path="url(#clip650)" d="M311.515 1774.21 L300.936 1784.83 L311.515 1795.41 L308.76 1798.21 L298.135 1787.59 L287.51 1798.21 L284.779 1795.41 L295.334 1784.83 L284.779 1774.21 L287.51 1771.41 L298.135 1782.03 L308.76 1771.41 L311.515 1774.21 Z" fill="#000000" fill-rule="nonzero" fill-opacity="1" /><path clip-path="url(#clip650)" d="M323.876 1795.74 L331.514 1795.74 L331.514 1769.37 L323.204 1771.04 L323.204 1766.78 L331.468 1765.11 L336.144 1765.11 L336.144 1795.74 L343.783 1795.74 L343.783 1799.67 L323.876 1799.67 L323.876 1795.74 Z" fill="#000000" fill-rule="nonzero" fill-opacity="1" /><path clip-path="url(#clip650)" d="M363.227 1768.19 Q359.616 1768.19 357.787 1771.76 Q355.982 1775.3 355.982 1782.43 Q355.982 1789.53 357.787 1793.1 Q359.616 1796.64 363.227 1796.64 Q366.862 1796.64 368.667 1793.1 Q370.496 1789.53 370.496 1782.43 Q370.496 1775.3 368.667 1771.76 Q366.862 1768.19 363.227 1768.19 M363.227 1764.49 Q369.037 1764.49 372.093 1769.09 Q375.172 1773.68 375.172 1782.43 Q375.172 1791.15 372.093 1795.76 Q369.037 1800.34 363.227 1800.34 Q357.417 1800.34 354.338 1795.76 Q351.283 1791.15 351.283 1782.43 Q351.283 1773.68 354.338 1769.09 Q357.417 1764.49 363.227 1764.49 Z" fill="#000000" fill-rule="nonzero" fill-opacity="1" /><path clip-path="url(#clip650)" d="M385.196 1756.71 Q382.638 1756.71 381.134 1758.46 Q379.648 1760.21 379.648 1763.25 Q379.648 1766.28 381.134 1768.05 Q382.638 1769.8 385.196 1769.8 Q387.754 1769.8 389.24 1768.05 Q390.744 1766.28 390.744 1763.25 Q390.744 1760.21 389.24 1758.46 Q387.754 1756.71 385.196 1756.71 M392.738 1744.8 L392.738 1748.26 Q391.309 1747.59 389.842 1747.23 Q388.394 1746.87 386.964 1746.87 Q383.203 1746.87 381.209 1749.41 Q379.234 1751.95 378.952 1757.08 Q380.062 1755.45 381.736 1754.58 Q383.409 1753.7 385.422 1753.7 Q389.654 1753.7 392.099 1756.27 Q394.562 1758.83 394.562 1763.25 Q394.562 1767.58 392.005 1770.19 Q389.447 1772.81 385.196 1772.81 Q380.325 1772.81 377.748 1769.08 Q375.172 1765.34 375.172 1758.25 Q375.172 1751.59 378.331 1747.64 Q381.491 1743.67 386.814 1743.67 Q388.243 1743.67 389.691 1743.96 Q391.158 1744.24 392.738 1744.8 Z" fill="#000000" fill-rule="nonzero" fill-opacity="1" /><path clip-path="url(#clip650)" d="M139.243 1453.06 L168.918 1453.06 L168.918 1457 L139.243 1457 L139.243 1453.06 Z" fill="#000000" fill-rule="nonzero" fill-opacity="1" /><path clip-path="url(#clip650)" d="M179.057 1435.33 L197.414 1435.33 L197.414 1439.27 L183.34 1439.27 L183.34 1447.74 Q184.358 1447.39 185.377 1447.23 Q186.395 1447.05 187.414 1447.05 Q193.201 1447.05 196.58 1450.22 Q199.96 1453.39 199.96 1458.8 Q199.96 1464.38 196.488 1467.48 Q193.016 1470.56 186.696 1470.56 Q184.52 1470.56 182.252 1470.19 Q180.006 1469.82 177.599 1469.08 L177.599 1464.38 Q179.682 1465.52 181.904 1466.07 Q184.127 1466.63 186.604 1466.63 Q190.608 1466.63 192.946 1464.52 Q195.284 1462.42 195.284 1458.8 Q195.284 1455.19 192.946 1453.09 Q190.608 1450.98 186.604 1450.98 Q184.729 1450.98 182.854 1451.4 Q181.002 1451.81 179.057 1452.69 L179.057 1435.33 Z" fill="#000000" fill-rule="nonzero" fill-opacity="1" /><path clip-path="url(#clip650)" d="M209.173 1464.01 L214.057 1464.01 L214.057 1469.89 L209.173 1469.89 L209.173 1464.01 Z" fill="#000000" fill-rule="nonzero" fill-opacity="1" /><path clip-path="url(#clip650)" d="M234.242 1438.41 Q230.631 1438.41 228.802 1441.98 Q226.997 1445.52 226.997 1452.65 Q226.997 1459.75 228.802 1463.32 Q230.631 1466.86 234.242 1466.86 Q237.876 1466.86 239.682 1463.32 Q241.511 1459.75 241.511 1452.65 Q241.511 1445.52 239.682 1441.98 Q237.876 1438.41 234.242 1438.41 M234.242 1434.71 Q240.052 1434.71 243.108 1439.31 Q246.187 1443.9 246.187 1452.65 Q246.187 1461.37 243.108 1465.98 Q240.052 1470.56 234.242 1470.56 Q228.432 1470.56 225.353 1465.98 Q222.298 1461.37 222.298 1452.65 Q222.298 1443.9 225.353 1439.31 Q228.432 1434.71 234.242 1434.71 Z" fill="#000000" fill-rule="nonzero" fill-opacity="1" /><path clip-path="url(#clip650)" d="M264.404 1438.41 Q260.793 1438.41 258.964 1441.98 Q257.159 1445.52 257.159 1452.65 Q257.159 1459.75 258.964 1463.32 Q260.793 1466.86 264.404 1466.86 Q268.038 1466.86 269.844 1463.32 Q271.673 1459.75 271.673 1452.65 Q271.673 1445.52 269.844 1441.98 Q268.038 1438.41 264.404 1438.41 M264.404 1434.71 Q270.214 1434.71 273.27 1439.31 Q276.348 1443.9 276.348 1452.65 Q276.348 1461.37 273.27 1465.98 Q270.214 1470.56 264.404 1470.56 Q258.594 1470.56 255.515 1465.98 Q252.46 1461.37 252.46 1452.65 Q252.46 1443.9 255.515 1439.31 Q258.594 1434.71 264.404 1434.71 Z" fill="#000000" fill-rule="nonzero" fill-opacity="1" /><path clip-path="url(#clip650)" d="M312.737 1444.43 L302.158 1455.05 L312.737 1465.63 L309.982 1468.43 L299.358 1457.81 L288.733 1468.43 L286.001 1465.63 L296.557 1455.05 L286.001 1444.43 L288.733 1441.63 L299.358 1452.25 L309.982 1441.63 L312.737 1444.43 Z" fill="#000000" fill-rule="nonzero" fill-opacity="1" /><path clip-path="url(#clip650)" d="M325.098 1465.96 L332.737 1465.96 L332.737 1439.59 L324.427 1441.26 L324.427 1437 L332.691 1435.33 L337.367 1435.33 L337.367 1465.96 L345.005 1465.96 L345.005 1469.89 L325.098 1469.89 L325.098 1465.96 Z" fill="#000000" fill-rule="nonzero" fill-opacity="1" /><path clip-path="url(#clip650)" d="M364.45 1438.41 Q360.839 1438.41 359.01 1441.98 Q357.204 1445.52 357.204 1452.65 Q357.204 1459.75 359.01 1463.32 Q360.839 1466.86 364.45 1466.86 Q368.084 1466.86 369.89 1463.32 Q371.718 1459.75 371.718 1452.65 Q371.718 1445.52 369.89 1441.98 Q368.084 1438.41 364.45 1438.41 M364.45 1434.71 Q370.26 1434.71 373.315 1439.31 Q376.394 1443.9 376.394 1452.65 Q376.394 1461.37 373.315 1465.98 Q370.26 1470.56 364.45 1470.56 Q358.64 1470.56 355.561 1465.98 Q352.505 1461.37 352.505 1452.65 Q352.505 1443.9 355.561 1439.31 Q358.64 1434.71 364.45 1434.71 Z" fill="#000000" fill-rule="nonzero" fill-opacity="1" /><path clip-path="url(#clip650)" d="M377.579 1414.4 L392.494 1414.4 L392.494 1417.6 L381.058 1417.6 L381.058 1424.48 Q381.886 1424.2 382.714 1424.07 Q383.541 1423.92 384.369 1423.92 Q389.071 1423.92 391.817 1426.5 Q394.562 1429.07 394.562 1433.47 Q394.562 1438.01 391.741 1440.53 Q388.92 1443.03 383.786 1443.03 Q382.018 1443.03 380.175 1442.73 Q378.35 1442.43 376.394 1441.82 L376.394 1438.01 Q378.087 1438.93 379.892 1439.38 Q381.698 1439.83 383.71 1439.83 Q386.964 1439.83 388.864 1438.12 Q390.763 1436.41 390.763 1433.47 Q390.763 1430.54 388.864 1428.83 Q386.964 1427.12 383.71 1427.12 Q382.187 1427.12 380.664 1427.45 Q379.159 1427.79 377.579 1428.51 L377.579 1414.4 Z" fill="#000000" fill-rule="nonzero" fill-opacity="1" /><path clip-path="url(#clip650)" d="M382.618 1102.18 Q379.007 1102.18 377.178 1105.75 Q375.373 1109.29 375.373 1116.42 Q375.373 1123.53 377.178 1127.09 Q379.007 1130.63 382.618 1130.63 Q386.252 1130.63 388.058 1127.09 Q389.887 1123.53 389.887 1116.42 Q389.887 1109.29 388.058 1105.75 Q386.252 1102.18 382.618 1102.18 M382.618 1098.48 Q388.428 1098.48 391.484 1103.09 Q394.562 1107.67 394.562 1116.42 Q394.562 1125.15 391.484 1129.75 Q388.428 1134.34 382.618 1134.34 Q376.808 1134.34 373.729 1129.75 Q370.674 1125.15 370.674 1116.42 Q370.674 1107.67 373.729 1103.09 Q376.808 1098.48 382.618 1098.48 Z" fill="#000000" fill-rule="nonzero" fill-opacity="1" /><path clip-path="url(#clip650)" d="M179.057 775.774 L197.414 775.774 L197.414 779.709 L183.34 779.709 L183.34 788.181 Q184.358 787.834 185.377 787.672 Q186.395 787.487 187.414 787.487 Q193.201 787.487 196.58 790.658 Q199.96 793.829 199.96 799.246 Q199.96 804.824 196.488 807.926 Q193.016 811.005 186.696 811.005 Q184.52 811.005 182.252 810.635 Q180.006 810.264 177.599 809.523 L177.599 804.824 Q179.682 805.959 181.904 806.514 Q184.127 807.07 186.604 807.07 Q190.608 807.07 192.946 804.963 Q195.284 802.857 195.284 799.246 Q195.284 795.635 192.946 793.528 Q190.608 791.422 186.604 791.422 Q184.729 791.422 182.854 791.838 Q181.002 792.255 179.057 793.135 L179.057 775.774 Z" fill="#000000" fill-rule="nonzero" fill-opacity="1" /><path clip-path="url(#clip650)" d="M209.173 804.454 L214.057 804.454 L214.057 810.334 L209.173 810.334 L209.173 804.454 Z" fill="#000000" fill-rule="nonzero" fill-opacity="1" /><path clip-path="url(#clip650)" d="M234.242 778.852 Q230.631 778.852 228.802 782.417 Q226.997 785.959 226.997 793.088 Q226.997 800.195 228.802 803.76 Q230.631 807.301 234.242 807.301 Q237.876 807.301 239.682 803.76 Q241.511 800.195 241.511 793.088 Q241.511 785.959 239.682 782.417 Q237.876 778.852 234.242 778.852 M234.242 775.149 Q240.052 775.149 243.108 779.755 Q246.187 784.338 246.187 793.088 Q246.187 801.815 243.108 806.422 Q240.052 811.005 234.242 811.005 Q228.432 811.005 225.353 806.422 Q222.298 801.815 222.298 793.088 Q222.298 784.338 225.353 779.755 Q228.432 775.149 234.242 775.149 Z" fill="#000000" fill-rule="nonzero" fill-opacity="1" /><path clip-path="url(#clip650)" d="M264.404 778.852 Q260.793 778.852 258.964 782.417 Q257.159 785.959 257.159 793.088 Q257.159 800.195 258.964 803.76 Q260.793 807.301 264.404 807.301 Q268.038 807.301 269.844 803.76 Q271.673 800.195 271.673 793.088 Q271.673 785.959 269.844 782.417 Q268.038 778.852 264.404 778.852 M264.404 775.149 Q270.214 775.149 273.27 779.755 Q276.348 784.338 276.348 793.088 Q276.348 801.815 273.27 806.422 Q270.214 811.005 264.404 811.005 Q258.594 811.005 255.515 806.422 Q252.46 801.815 252.46 793.088 Q252.46 784.338 255.515 779.755 Q258.594 775.149 264.404 775.149 Z" fill="#000000" fill-rule="nonzero" fill-opacity="1" /><path clip-path="url(#clip650)" d="M312.737 784.871 L302.158 795.496 L312.737 806.074 L309.982 808.875 L299.358 798.25 L288.733 808.875 L286.001 806.074 L296.557 795.496 L286.001 784.871 L288.733 782.07 L299.358 792.695 L309.982 782.07 L312.737 784.871 Z" fill="#000000" fill-rule="nonzero" fill-opacity="1" /><path clip-path="url(#clip650)" d="M325.098 806.398 L332.737 806.398 L332.737 780.033 L324.427 781.7 L324.427 777.44 L332.691 775.774 L337.367 775.774 L337.367 806.398 L345.005 806.398 L345.005 810.334 L325.098 810.334 L325.098 806.398 Z" fill="#000000" fill-rule="nonzero" fill-opacity="1" /><path clip-path="url(#clip650)" d="M364.45 778.852 Q360.839 778.852 359.01 782.417 Q357.204 785.959 357.204 793.088 Q357.204 800.195 359.01 803.76 Q360.839 807.301 364.45 807.301 Q368.084 807.301 369.89 803.76 Q371.718 800.195 371.718 793.088 Q371.718 785.959 369.89 782.417 Q368.084 778.852 364.45 778.852 M364.45 775.149 Q370.26 775.149 373.315 779.755 Q376.394 784.338 376.394 793.088 Q376.394 801.815 373.315 806.422 Q370.26 811.005 364.45 811.005 Q358.64 811.005 355.561 806.422 Q352.505 801.815 352.505 793.088 Q352.505 784.338 355.561 779.755 Q358.64 775.149 364.45 775.149 Z" fill="#000000" fill-rule="nonzero" fill-opacity="1" /><path clip-path="url(#clip650)" d="M377.579 754.843 L392.494 754.843 L392.494 758.041 L381.058 758.041 L381.058 764.924 Q381.886 764.642 382.714 764.51 Q383.541 764.36 384.369 764.36 Q389.071 764.36 391.817 766.937 Q394.562 769.513 394.562 773.914 Q394.562 778.447 391.741 780.967 Q388.92 783.469 383.786 783.469 Q382.018 783.469 380.175 783.168 Q378.35 782.867 376.394 782.265 L376.394 778.447 Q378.087 779.369 379.892 779.82 Q381.698 780.271 383.71 780.271 Q386.964 780.271 388.864 778.56 Q390.763 776.848 390.763 773.914 Q390.763 770.98 388.864 769.269 Q386.964 767.557 383.71 767.557 Q382.187 767.557 380.664 767.896 Q379.159 768.234 377.579 768.949 L377.579 754.843 Z" fill="#000000" fill-rule="nonzero" fill-opacity="1" /><path clip-path="url(#clip650)" d="M178.599 476.619 L186.237 476.619 L186.237 450.254 L177.927 451.92 L177.927 447.661 L186.191 445.994 L190.867 445.994 L190.867 476.619 L198.506 476.619 L198.506 480.554 L178.599 480.554 L178.599 476.619 Z" fill="#000000" fill-rule="nonzero" fill-opacity="1" /><path clip-path="url(#clip650)" d="M207.95 474.675 L212.835 474.675 L212.835 480.554 L207.95 480.554 L207.95 474.675 Z" fill="#000000" fill-rule="nonzero" fill-opacity="1" /><path clip-path="url(#clip650)" d="M233.02 449.073 Q229.409 449.073 227.58 452.638 Q225.774 456.179 225.774 463.309 Q225.774 470.415 227.58 473.98 Q229.409 477.522 233.02 477.522 Q236.654 477.522 238.459 473.98 Q240.288 470.415 240.288 463.309 Q240.288 456.179 238.459 452.638 Q236.654 449.073 233.02 449.073 M233.02 445.369 Q238.83 445.369 241.885 449.976 Q244.964 454.559 244.964 463.309 Q244.964 472.036 241.885 476.642 Q238.83 481.226 233.02 481.226 Q227.209 481.226 224.131 476.642 Q221.075 472.036 221.075 463.309 Q221.075 454.559 224.131 449.976 Q227.209 445.369 233.02 445.369 Z" fill="#000000" fill-rule="nonzero" fill-opacity="1" /><path clip-path="url(#clip650)" d="M263.182 449.073 Q259.57 449.073 257.742 452.638 Q255.936 456.179 255.936 463.309 Q255.936 470.415 257.742 473.98 Q259.57 477.522 263.182 477.522 Q266.816 477.522 268.621 473.98 Q270.45 470.415 270.45 463.309 Q270.45 456.179 268.621 452.638 Q266.816 449.073 263.182 449.073 M263.182 445.369 Q268.992 445.369 272.047 449.976 Q275.126 454.559 275.126 463.309 Q275.126 472.036 272.047 476.642 Q268.992 481.226 263.182 481.226 Q257.371 481.226 254.293 476.642 Q251.237 472.036 251.237 463.309 Q251.237 454.559 254.293 449.976 Q257.371 445.369 263.182 445.369 Z" fill="#000000" fill-rule="nonzero" fill-opacity="1" /><path clip-path="url(#clip650)" d="M311.515 455.091 L300.936 465.716 L311.515 476.295 L308.76 479.096 L298.135 468.471 L287.51 479.096 L284.779 476.295 L295.334 465.716 L284.779 455.091 L287.51 452.291 L298.135 462.916 L308.76 452.291 L311.515 455.091 Z" fill="#000000" fill-rule="nonzero" fill-opacity="1" /><path clip-path="url(#clip650)" d="M323.876 476.619 L331.514 476.619 L331.514 450.254 L323.204 451.92 L323.204 447.661 L331.468 445.994 L336.144 445.994 L336.144 476.619 L343.783 476.619 L343.783 480.554 L323.876 480.554 L323.876 476.619 Z" fill="#000000" fill-rule="nonzero" fill-opacity="1" /><path clip-path="url(#clip650)" d="M363.227 449.073 Q359.616 449.073 357.787 452.638 Q355.982 456.179 355.982 463.309 Q355.982 470.415 357.787 473.98 Q359.616 477.522 363.227 477.522 Q366.862 477.522 368.667 473.98 Q370.496 470.415 370.496 463.309 Q370.496 456.179 368.667 452.638 Q366.862 449.073 363.227 449.073 M363.227 445.369 Q369.037 445.369 372.093 449.976 Q375.172 454.559 375.172 463.309 Q375.172 472.036 372.093 476.642 Q369.037 481.226 363.227 481.226 Q357.417 481.226 354.338 476.642 Q351.283 472.036 351.283 463.309 Q351.283 454.559 354.338 449.976 Q357.417 445.369 363.227 445.369 Z" fill="#000000" fill-rule="nonzero" fill-opacity="1" /><path clip-path="url(#clip650)" d="M385.196 437.59 Q382.638 437.59 381.134 439.339 Q379.648 441.088 379.648 444.135 Q379.648 447.163 381.134 448.931 Q382.638 450.68 385.196 450.68 Q387.754 450.68 389.24 448.931 Q390.744 447.163 390.744 444.135 Q390.744 441.088 389.24 439.339 Q387.754 437.59 385.196 437.59 M392.738 425.685 L392.738 429.145 Q391.309 428.468 389.842 428.111 Q388.394 427.753 386.964 427.753 Q383.203 427.753 381.209 430.292 Q379.234 432.832 378.952 437.966 Q380.062 436.33 381.736 435.465 Q383.409 434.581 385.422 434.581 Q389.654 434.581 392.099 437.157 Q394.562 439.715 394.562 444.135 Q394.562 448.461 392.005 451.075 Q389.447 453.689 385.196 453.689 Q380.325 453.689 377.748 449.965 Q375.172 446.223 375.172 439.132 Q375.172 432.474 378.331 428.525 Q381.491 424.556 386.814 424.556 Q388.243 424.556 389.691 424.838 Q391.158 425.12 392.738 425.685 Z" fill="#000000" fill-rule="nonzero" fill-opacity="1" /><path clip-path="url(#clip650)" d="M178.599 146.84 L186.237 146.84 L186.237 120.474 L177.927 122.141 L177.927 117.882 L186.191 116.215 L190.867 116.215 L190.867 146.84 L198.506 146.84 L198.506 150.775 L178.599 150.775 L178.599 146.84 Z" fill="#000000" fill-rule="nonzero" fill-opacity="1" /><path clip-path="url(#clip650)" d="M207.95 144.895 L212.835 144.895 L212.835 150.775 L207.95 150.775 L207.95 144.895 Z" fill="#000000" fill-rule="nonzero" fill-opacity="1" /><path clip-path="url(#clip650)" d="M223.066 116.215 L241.422 116.215 L241.422 120.15 L227.348 120.15 L227.348 128.622 Q228.367 128.275 229.385 128.113 Q230.404 127.928 231.422 127.928 Q237.209 127.928 240.589 131.099 Q243.969 134.27 243.969 139.687 Q243.969 145.266 240.496 148.368 Q237.024 151.446 230.705 151.446 Q228.529 151.446 226.26 151.076 Q224.015 150.706 221.608 149.965 L221.608 145.266 Q223.691 146.4 225.913 146.956 Q228.135 147.511 230.612 147.511 Q234.617 147.511 236.955 145.405 Q239.293 143.298 239.293 139.687 Q239.293 136.076 236.955 133.969 Q234.617 131.863 230.612 131.863 Q228.737 131.863 226.862 132.28 Q225.01 132.696 223.066 133.576 L223.066 116.215 Z" fill="#000000" fill-rule="nonzero" fill-opacity="1" /><path clip-path="url(#clip650)" d="M263.182 119.294 Q259.57 119.294 257.742 122.858 Q255.936 126.4 255.936 133.53 Q255.936 140.636 257.742 144.201 Q259.57 147.743 263.182 147.743 Q266.816 147.743 268.621 144.201 Q270.45 140.636 270.45 133.53 Q270.45 126.4 268.621 122.858 Q266.816 119.294 263.182 119.294 M263.182 115.59 Q268.992 115.59 272.047 120.196 Q275.126 124.78 275.126 133.53 Q275.126 142.256 272.047 146.863 Q268.992 151.446 263.182 151.446 Q257.371 151.446 254.293 146.863 Q251.237 142.256 251.237 133.53 Q251.237 124.78 254.293 120.196 Q257.371 115.59 263.182 115.59 Z" fill="#000000" fill-rule="nonzero" fill-opacity="1" /><path clip-path="url(#clip650)" d="M311.515 125.312 L300.936 135.937 L311.515 146.516 L308.76 149.317 L298.135 138.692 L287.51 149.317 L284.779 146.516 L295.334 135.937 L284.779 125.312 L287.51 122.511 L298.135 133.136 L308.76 122.511 L311.515 125.312 Z" fill="#000000" fill-rule="nonzero" fill-opacity="1" /><path clip-path="url(#clip650)" d="M323.876 146.84 L331.514 146.84 L331.514 120.474 L323.204 122.141 L323.204 117.882 L331.468 116.215 L336.144 116.215 L336.144 146.84 L343.783 146.84 L343.783 150.775 L323.876 150.775 L323.876 146.84 Z" fill="#000000" fill-rule="nonzero" fill-opacity="1" /><path clip-path="url(#clip650)" d="M363.227 119.294 Q359.616 119.294 357.787 122.858 Q355.982 126.4 355.982 133.53 Q355.982 140.636 357.787 144.201 Q359.616 147.743 363.227 147.743 Q366.862 147.743 368.667 144.201 Q370.496 140.636 370.496 133.53 Q370.496 126.4 368.667 122.858 Q366.862 119.294 363.227 119.294 M363.227 115.59 Q369.037 115.59 372.093 120.196 Q375.172 124.78 375.172 133.53 Q375.172 142.256 372.093 146.863 Q369.037 151.446 363.227 151.446 Q357.417 151.446 354.338 146.863 Q351.283 142.256 351.283 133.53 Q351.283 124.78 354.338 120.196 Q357.417 115.59 363.227 115.59 Z" fill="#000000" fill-rule="nonzero" fill-opacity="1" /><path clip-path="url(#clip650)" d="M385.196 107.811 Q382.638 107.811 381.134 109.56 Q379.648 111.309 379.648 114.356 Q379.648 117.384 381.134 119.152 Q382.638 120.901 385.196 120.901 Q387.754 120.901 389.24 119.152 Q390.744 117.384 390.744 114.356 Q390.744 111.309 389.24 109.56 Q387.754 107.811 385.196 107.811 M392.738 95.9052 L392.738 99.3658 Q391.309 98.6888 389.842 98.3314 Q388.394 97.9741 386.964 97.9741 Q383.203 97.9741 381.209 100.513 Q379.234 103.052 378.952 108.187 Q380.062 106.55 381.736 105.685 Q383.409 104.801 385.422 104.801 Q389.654 104.801 392.099 107.378 Q394.562 109.936 394.562 114.356 Q394.562 118.681 392.005 121.296 Q389.447 123.91 385.196 123.91 Q380.325 123.91 377.748 120.186 Q375.172 116.443 375.172 109.353 Q375.172 102.695 378.331 98.7452 Q381.491 94.7767 386.814 94.7767 Q388.243 94.7767 389.691 95.0589 Q391.158 95.341 392.738 95.9052 Z" fill="#000000" fill-rule="nonzero" fill-opacity="1" /><path clip-path="url(#clip650)" d="M40.2442 1203.94 L40.2442 1197.03 L59.7869 1183.85 L40.2442 1170.77 L40.2442 1163.86 L65.1341 1180.67 L87.7642 1180.67 L87.7642 1187.13 L65.1341 1187.13 L40.2442 1203.94 Z" fill="#000000" fill-rule="nonzero" fill-opacity="1" /><path clip-path="url(#clip650)" d="M38.3026 1123.06 Q45.6232 1127.32 52.7846 1129.39 Q59.946 1131.46 67.2984 1131.46 Q74.6508 1131.46 81.8759 1129.39 Q89.0691 1127.29 96.3579 1123.06 L96.3579 1128.15 Q88.8782 1132.93 81.6531 1135.31 Q74.428 1137.67 67.2984 1137.67 Q60.2006 1137.67 53.0074 1135.31 Q45.8142 1132.96 38.3026 1128.15 L38.3026 1123.06 Z" fill="#000000" fill-rule="nonzero" fill-opacity="1" /><path clip-path="url(#clip650)" d="M40.2442 1111.44 L40.2442 1105.01 L60.328 1105.01 L40.2442 1083.69 L40.2442 1075.41 L62.3968 1099 L87.7642 1073.73 L87.7642 1082.19 L64.8794 1105.01 L87.7642 1105.01 L87.7642 1111.44 L40.2442 1111.44 Z" fill="#000000" fill-rule="nonzero" fill-opacity="1" /><path clip-path="url(#clip650)" d="M40.2442 1068.7 L40.2442 1059.12 L72.5819 1046.99 L40.2442 1034.8 L40.2442 1025.22 L87.7642 1025.22 L87.7642 1031.49 L46.037 1031.49 L78.6294 1043.74 L78.6294 1050.2 L46.037 1062.46 L87.7642 1062.46 L87.7642 1068.7 L40.2442 1068.7 Z" fill="#000000" fill-rule="nonzero" fill-opacity="1" /><path clip-path="url(#clip650)" d="M38.3026 1013.63 L38.3026 1008.54 Q45.8142 1003.77 53.0074 1001.41 Q60.2006 999.024 67.2984 999.024 Q74.428 999.024 81.6531 1001.41 Q88.8782 1003.77 96.3579 1008.54 L96.3579 1013.63 Q89.0691 1009.4 81.8759 1007.33 Q74.6508 1005.23 67.2984 1005.23 Q59.946 1005.23 52.7846 1007.33 Q45.6232 1009.4 38.3026 1013.63 Z" fill="#000000" fill-rule="nonzero" fill-opacity="1" /><polyline clip-path="url(#clip652)" style="stroke:#1f83ff; stroke-linecap:round; stroke-linejoin:round; stroke-width:4; stroke-opacity:1; fill:none" points="512.957,1348.21 516.463,1364.46 520.182,1380.77 524.14,1397.16 528.368,1413.62 532.897,1430.14 537.761,1446.72 542.989,1463.32 548.609,1479.92 554.639,1496.45 561.087,1512.88 567.949,1529.15 575.206,1545.21 582.827,1561.01 590.775,1576.52 599.01,1591.73 607.49,1606.63 616.177,1621.22 625.039,1635.52 634.049,1649.53 643.184,1663.28 652.427,1676.79 661.766,1690.09 671.195,1703.21 680.711,1716.16 690.318,1728.97 700.024,1741.67 709.842,1754.27 719.789,1766.81 729.888,1779.28 740.161,1791.7 750.638,1804.06 761.347,1816.38 772.316,1828.62 783.573,1840.77 795.142,1852.8 807.041,1864.68 819.281,1876.35 831.861,1887.76 844.766,1898.88 857.973,1909.64 871.446,1920.03 885.143,1930 899.019,1939.55 913.032,1948.69 927.142,1957.41 941.317,1965.74 955.53,1973.7 969.761,1981.31 983.994,1988.6 998.22,1995.61 1012.43,2002.35 1026.64,2008.85 1040.83,2015.14 1055.04,2021.24 1069.26,2027.18 1083.51,2032.97 1097.83,2038.62 1112.24,2044.14 1126.76,2049.53 1141.43,2054.78 1156.27,2059.86 1171.29,2064.76 1186.53,2069.43 1201.99,2073.85 1217.67,2077.96 1233.55,2081.72 1249.63,2085.1 1265.86,2088.04 1282.22,2090.54 1298.65,2092.56 1315.11,2094.11 1331.56,2095.2 1347.97,2095.83 1364.29,2096.04 1380.51,2095.85 1396.6,2095.3 1412.57,2094.41 1428.39,2093.21 1444.06,2091.74 1459.6,2090.02 1475.01,2088.08 1490.29,2085.94 1505.48,2083.63 1520.58,2081.17 1535.63,2078.55 1550.66,2075.8 1565.68,2072.89 1580.74,2069.83 1595.85,2066.57 1611.04,2063.11 1626.31,2059.39 1641.67,2055.38 1657.11,2051.03 1672.6,2046.32 1688.13,2041.2 1703.66,2035.65 1719.14,2029.65 1734.54,2023.21 1749.82,2016.31 1764.93,2008.99 1779.84,2001.26 1794.53,1993.15 1808.96,1984.69 1823.14,1975.92 1837.05,1966.87 1850.69,1957.57 1864.05,1948.06 1877.16,1938.37 1890.02,1928.53 1902.64,1918.55 1915.05,1908.46 1927.27,1898.28 1939.32,1888.02 1951.25,1877.67 1963.08,1867.23 1974.83,1856.68 1986.54,1846 1998.22,1835.14 2009.87,1824.08 2021.49,1812.77 2033.06,1801.16 2044.56,1789.24 2055.95,1776.97 2067.2,1764.34 2078.27,1751.35 2089.12,1738 2099.72,1724.3 2110.02,1710.28 2120.01,1695.97 2129.66,1681.39 2138.95,1666.58 2147.88,1651.58 2156.45,1636.42 2164.65,1621.15 2172.5,1605.79 2180.01,1590.36 2187.19,1574.91 2194.06,1559.45 2200.65,1544 2206.99,1528.58 2213.1,1513.19 2219.02,1497.83 2224.78,1482.48 2230.41,1467.14 2235.93,1451.76 2241.36,1436.31 2246.7,1420.75 2251.92,1405.03 2257.03,1389.12 2261.97,1372.99 2266.73,1356.64 2271.25,1340.04 2275.51,1323.21 2279.47,1306.16 2283.09,1288.91 2286.35,1271.49 2289.24,1253.93 2291.73,1236.27 2293.82,1218.53 2295.51,1200.77 2296.79,1183 2297.69,1165.28 2298.2,1147.62 2298.35,1130.06 2298.17,1112.62 2297.67,1095.33 2296.88,1078.19 2295.83,1061.22 2294.56,1044.41 2293.1,1027.77 2291.48,1011.28 2289.73,994.908 2287.87,978.625 2285.91,962.388 2283.84,946.155 2281.66,929.883 2279.34,913.541 2276.83,897.105 2274.12,880.565 2271.15,863.925 2267.89,847.196 2264.31,830.398 2260.39,813.558 2256.11,796.706 2251.45,779.877 2246.41,763.105 2240.99,746.426 2235.18,729.876 2229.01,713.489 2222.48,697.295 2215.62,681.324 2208.44,665.599 2200.97,650.142 2193.24,634.967 2185.28,620.083 2177.13,605.495 2168.82,591.197 2160.37,577.178 2151.83,563.418 2143.21,549.886 2134.54,536.546 2125.81,523.355 2117.03,510.268 2108.18,497.247 2099.22,484.26 2090.12,471.289 2080.84,458.329 2071.35,445.388 2061.6,432.483 2051.58,419.64 2041.27,406.888 2030.65,394.261 2019.71,381.792 2008.46,369.516 1996.9,357.467 1985.04,345.677 1972.9,334.177 1960.49,322.994 1947.84,312.153 1934.97,301.673 1921.92,291.569 1908.71,281.85 1895.39,272.518 1881.98,263.57 1868.52,254.992 1855.03,246.766 1841.55,238.865 1828.1,231.255 1814.68,223.895 1801.31,216.743 1787.96,209.757 1774.62,202.899 1761.25,196.142 1747.82,189.473 1734.29,182.891 1720.62,176.407 1706.78,170.042 1692.75,163.825 1678.52,157.788 1664.08,151.964 1649.42,146.386 1634.55,141.088 1619.49,136.1 1604.24,131.451 1588.83,127.168 1573.27,123.273 1557.61,119.787 1541.85,116.723 1526.04,114.089 1510.22,111.887 1494.42,110.112 1478.66,108.752 1462.99,107.785 1447.43,107.185 1432.01,106.918 1416.73,106.944 1401.59,107.223 1386.61,107.711 1371.75,108.371 1357,109.169 1342.31,110.084 1327.66,111.106 1313,112.24 1298.3,113.499 1283.54,114.908 1268.69,116.495 1253.75,118.294 1238.71,120.336 1223.58,122.655 1208.36,125.28 1193.06,128.239 1177.71,131.557 1162.33,135.257 1146.94,139.356 1131.58,143.868 1116.27,148.802 1101.04,154.159 1085.94,159.934 1071,166.114 1056.25,172.678 1041.73,179.597 1027.44,186.835 1013.41,194.352 999.651,202.106 986.146,210.052 972.885,218.152 959.848,226.37 947.002,234.682 934.315,243.071 921.749,251.535 909.27,260.08 896.849,268.725 884.463,277.493 872.095,286.415 859.74,295.522 847.396,304.846 835.069,314.416 822.771,324.26 810.518,334.403 798.331,344.866 786.232,355.665 774.249,366.815 762.412,378.322 750.753,390.191 739.308,402.417 728.11,414.988 717.195,427.884 706.591,441.075 696.323,454.525 686.408,468.191 676.851,482.027 667.65,495.988 658.789,510.03 650.247,524.117 641.994,538.22 633.996,552.321 626.219,566.413 618.626,580.498 611.188,594.588 603.878,608.702 596.677,622.867 589.573,637.112 582.561,651.466 575.645,665.959 568.831,680.619 562.134,695.47 555.571,710.533 549.162,725.825 542.934,741.359 536.912,757.143 531.126,773.181 525.608,789.471 520.39,806.001 515.506,822.755 510.986,839.707 506.855,856.821 503.134,874.055 499.832,891.359 496.945,908.684 494.461,925.983 492.355,943.214 490.596,960.346 489.149,977.357 487.975,994.237 487.039,1010.99 486.308,1027.62 485.754,1044.14 485.354,1060.58 485.094,1076.97 484.965,1093.33 484.964,1109.68 485.097,1126.07 485.373,1142.52 485.806,1159.03 486.415,1175.64 487.222,1192.36 488.25,1209.19 489.526,1226.14 491.078,1243.21 492.934,1260.38 495.126,1277.66 497.68,1295.01 500.625,1312.4 503.98,1329.8 507.758,1347.15 "/>
<polyline clip-path="url(#clip652)" style="stroke:#ca3c32; stroke-linecap:round; stroke-linejoin:round; stroke-width:4; stroke-opacity:1; fill:none" points="1153.5,928.956 1147.8,916.948 1141.87,905.464 1135.76,894.523 1129.49,884.138 1123.1,874.323 1116.63,865.089 1110.09,856.443 1103.53,848.391 1096.98,840.938 1090.46,834.085 1084,827.831 1077.64,822.176 1071.4,817.115 1065.29,812.641 1059.36,808.744 1053.63,805.415 1048.11,802.642 1042.84,800.413 1037.83,798.715 1033.1,797.533 1028.68,796.853 1024.58,796.661 1020.82,796.94 1017.42,797.673 1014.38,798.838 1011.74,800.423 1009.48,802.41 1007.64,804.78 1006.21,807.514 1005.21,810.592 1004.64,813.995 1004.52,817.703 1004.84,821.694 1005.62,825.948 1006.86,830.446 1008.57,835.166 1010.73,840.088 1013.37,845.193 1016.48,850.46 1020.05,855.87 1024.09,861.404 1028.6,867.042 1033.57,872.766 1039,878.556 1044.88,884.392 1051.22,890.255 1057.99,896.126 1065.2,901.987 1072.85,907.819 1080.91,913.605 1089.38,919.328 1098.26,924.973 1107.54,930.522 1117.19,935.961 1127.21,941.275 1137.6,946.449 1148.32,951.469 1159.38,956.321 1170.75,960.993 1182.43,965.472 1194.39,969.744 1206.62,973.8 1219.11,977.628 1231.83,981.217 1244.78,984.559 1257.93,987.644 1271.27,990.465 1284.78,993.015 1298.43,995.288 1312.22,997.278 1326.12,998.981 1340.12,1000.39 1354.19,1001.51 1368.31,1002.32 1382.47,1002.83 1396.64,1003.04 1410.81,1002.95 1424.96,1002.55 1439.06,1001.85 1453.11,1000.84 1467.07,999.541 1480.93,997.944 1494.67,996.055 1508.28,993.881 1521.73,991.426 1535,988.696 1548.08,985.699 1560.94,982.442 1573.58,978.932 1585.97,975.18 1598.1,971.193 1609.95,966.983 1621.5,962.561 1632.75,957.938 1643.67,953.126 1654.25,948.14 1664.48,942.994 1674.35,937.701 1683.84,932.277 1692.94,926.737 1701.65,921.097 1709.93,915.371 1717.8,909.577 1725.24,903.731 1732.24,897.851 1738.8,891.956 1744.9,886.062 1750.55,880.191 1755.74,874.361 1760.46,868.592 1764.71,862.904 1768.48,857.317 1771.79,851.853 1774.61,846.532 1776.97,841.374 1778.84,836.399 1780.25,831.63 1781.18,827.086 1781.65,822.788 1781.66,818.757 1781.21,815.014 1780.32,811.58 1778.98,808.477 1777.22,805.725 1775.04,803.346 1772.45,801.361 1769.46,799.791 1766.09,798.657 1762.36,797.976 1758.27,797.767 1753.84,798.048 1749.1,798.834 1744.05,800.142 1738.73,801.987 1733.16,804.384 1727.35,807.346 1721.34,810.887 1715.14,815.017 1708.8,819.748 1702.32,825.089 1695.75,831.045 1689.12,837.623 1682.45,844.825 1675.77,852.652 1669.12,861.103 1662.53,870.173 1656.04,879.855 1649.67,890.138 1643.47,901.011 1637.45,912.453 1631.67,924.437 1626.15,936.952 1620.92,949.972 1616.02,963.472 1611.47,977.419 1607.31,991.781 1603.56,1006.52 1600.24,1021.6 1597.38,1036.99 1595,1052.63 1593.1,1068.49 1591.7,1084.51 1590.8,1100.65 1590.41,1116.86 1590.53,1133.09 1591.16,1149.28 1592.29,1165.39 1593.91,1181.37 1596.02,1197.17 1598.59,1212.74 1601.62,1228.05 1605.07,1243.04 1608.94,1257.69 1613.19,1271.95 1617.8,1285.8 1622.73,1299.19 1627.97,1312.11 1633.48,1324.53 1639.23,1336.43 1645.18,1347.79 1651.3,1358.59 1657.57,1368.82 1663.94,1378.48 1670.39,1387.55 1676.88,1396.02 1683.39,1403.9 1689.88,1411.17 1696.32,1417.85 1702.69,1423.93 1708.96,1429.41 1715.11,1434.31 1721.11,1438.63 1726.93,1442.38 1732.56,1445.57 1737.96,1448.21 1743.13,1450.32 1748.03,1451.92 1752.66,1453 1756.98,1453.6 1760.99,1453.73 1764.67,1453.39 1768,1452.61 1770.97,1451.41 1773.57,1449.79 1775.79,1447.78 1777.62,1445.4 1779.04,1442.67 1780.06,1439.6 1780.66,1436.21 1780.83,1432.52 1780.58,1428.56 1779.89,1424.33 1778.76,1419.86 1777.19,1415.17 1775.18,1410.28 1772.72,1405.2 1769.81,1399.95 1766.46,1394.56 1762.66,1389.03 1758.42,1383.39 1753.74,1377.65 1748.62,1371.84 1743.07,1365.96 1737.09,1360.04 1730.69,1354.1 1723.88,1348.15 1716.65,1342.2 1709.02,1336.29 1701,1330.41 1692.58,1324.58 1683.79,1318.83 1674.64,1313.16 1665.12,1307.58 1655.26,1302.12 1645.06,1296.78 1634.53,1291.58 1623.7,1286.52 1612.57,1281.63 1601.15,1276.91 1589.46,1272.37 1577.51,1268.03 1565.32,1263.89 1552.91,1259.96 1540.27,1256.26 1527.44,1252.78 1514.43,1249.54 1501.25,1246.54 1487.92,1243.78 1474.45,1241.28 1460.87,1239.04 1447.19,1237.07 1433.43,1235.36 1419.6,1233.92 1405.72,1232.75 1391.81,1231.87 1377.89,1231.26 1363.97,1230.93 1350.07,1230.87 1336.21,1231.1 1322.4,1231.6 1308.66,1232.38 1295.01,1233.42 1281.47,1234.74 1268.05,1236.32 1254.77,1238.17 1241.64,1240.27 1228.69,1242.62 1215.93,1245.22 1203.37,1248.06 1191.03,1251.13 1178.92,1254.42 1167.05,1257.94 1155.46,1261.65 1144.13,1265.57 1133.1,1269.67 1122.37,1273.95 1111.95,1278.39 1101.87,1282.99 1092.12,1287.73 1082.73,1292.6 1073.7,1297.58 1065.04,1302.68 1056.76,1307.86 1048.88,1313.12 1041.39,1318.43 1034.32,1323.8 1027.65,1329.2 1021.41,1334.61 1015.6,1340.01 1010.22,1345.4 1005.28,1350.76 1000.79,1356.06 996.736,1361.29 993.136,1366.43 989.987,1371.47 987.292,1376.39 985.049,1381.17 983.26,1385.78 981.921,1390.22 981.033,1394.46 980.59,1398.49 980.59,1402.28 981.029,1405.81 981.9,1409.07 983.199,1412.03 984.919,1414.68 987.052,1416.99 989.59,1418.96 992.522,1420.55 995.839,1421.76 999.526,1422.57 1003.57,1422.95 1007.96,1422.89 1012.68,1422.38 1017.71,1421.39 1023.03,1419.92 1028.63,1417.93 1034.48,1415.43 1040.57,1412.39 1046.87,1408.81 1053.36,1404.67 1060.01,1399.95 1066.81,1394.66 1073.72,1388.79 1080.72,1382.33 1087.78,1375.27 1094.86,1367.62 1101.95,1359.37 1109,1350.53 1115.99,1341.11 1122.88,1331.1 1129.64,1320.52 1136.23,1309.38 1142.63,1297.69 1148.79,1285.47 1154.69,1272.74 1160.3,1259.52 1165.59,1245.84 1170.54,1231.73 1175.11,1217.22 1179.28,1202.36 1183.03,1187.16 1186.34,1171.69 1189.18,1155.98 1191.55,1140.07 1193.43,1124.02 1194.82,1107.86 1195.69,1091.65 1196.06,1075.43 1195.92,1059.25 1195.28,1043.16 1194.14,1027.2 1192.51,1011.43 1190.41,995.884 1187.86,980.605 1184.87,965.635 1181.47,951.013 1177.68,936.774 1173.53,922.954 1169.04,909.582 1164.25,896.688 1159.19,884.298 1153.87,872.435 1148.35,861.119 1142.64,850.369 "/>
<polyline clip-path="url(#clip652)" style="stroke:#399746; stroke-linecap:round; stroke-linejoin:round; stroke-width:4; stroke-opacity:1; fill:none" points="1453.15,1134.7 1454.69,1141.08 1456.34,1147.39 1458.11,1153.6 1459.99,1159.72 1461.98,1165.73 1464.07,1171.63 1466.25,1177.41 1468.53,1183.05 1470.89,1188.56 1473.33,1193.92 1475.85,1199.12 1478.43,1204.16 1481.07,1209.03 1483.77,1213.72 1486.51,1218.23 1489.3,1222.55 1492.12,1226.68 1494.96,1230.6 1497.82,1234.32 1500.69,1237.83 1503.56,1241.13 1506.42,1244.22 1509.27,1247.08 1512.09,1249.73 1514.87,1252.16 1517.61,1254.36 1520.29,1256.33 1522.92,1258.08 1525.47,1259.61 1527.94,1260.91 1530.32,1261.98 1532.6,1262.84 1534.78,1263.47 1536.84,1263.89 1538.78,1264.09 1540.59,1264.09 1542.25,1263.88 1543.77,1263.47 1545.12,1262.87 1546.31,1262.09 1547.32,1261.12 1548.15,1259.99 1548.79,1258.68 1549.23,1257.22 1549.48,1255.61 1549.51,1253.85 1549.34,1251.97 1548.95,1249.96 1548.34,1247.84 1547.5,1245.63 1546.44,1243.33 1545.14,1240.95 1543.61,1238.52 1541.84,1236.03 1539.84,1233.5 1537.6,1230.95 1535.11,1228.38 1532.4,1225.81 1529.45,1223.26 1526.26,1220.72 1522.85,1218.23 1519.21,1215.78 1515.36,1213.39 1511.29,1211.08 1507.02,1208.85 1502.55,1206.72 1497.88,1204.7 1493.04,1202.8 1488.01,1201.04 1482.83,1199.42 1477.48,1197.96 1471.99,1196.65 1466.37,1195.52 1460.62,1194.56 1454.76,1193.78 1448.81,1193.18 1442.78,1192.78 1436.68,1192.56 1430.53,1192.55 1424.34,1192.74 1418.12,1193.13 1411.9,1193.72 1405.68,1194.52 1399.47,1195.52 1393.3,1196.71 1387.18,1198.11 1381.12,1199.69 1375.13,1201.46 1369.22,1203.42 1363.42,1205.54 1357.72,1207.83 1352.15,1210.27 1346.71,1212.86 1341.42,1215.58 1336.29,1218.43 1331.32,1221.39 1326.55,1224.44 1321.96,1227.58 1317.56,1230.8 1313.36,1234.09 1309.37,1237.43 1305.58,1240.82 1302.01,1244.24 1298.65,1247.67 1295.51,1251.11 1292.59,1254.53 1289.9,1257.92 1287.42,1261.27 1285.17,1264.57 1283.15,1267.8 1281.34,1270.95 1279.76,1274.01 1278.39,1276.97 1277.24,1279.81 1276.31,1282.52 1275.58,1285.1 1275.05,1287.53 1274.72,1289.81 1274.58,1291.92 1274.63,1293.85 1274.86,1295.6 1275.25,1297.16 1275.81,1298.52 1276.53,1299.67 1277.39,1300.61 1278.4,1301.33 1279.53,1301.82 1280.8,1302.08 1282.18,1302.12 1283.67,1301.91 1285.26,1301.47 1286.94,1300.79 1288.71,1299.87 1290.54,1298.7 1292.44,1297.3 1294.39,1295.65 1296.38,1293.76 1298.4,1291.62 1300.45,1289.25 1302.52,1286.63 1304.59,1283.78 1306.67,1280.7 1308.74,1277.39 1310.79,1273.85 1312.81,1270.09 1314.81,1266.12 1316.76,1261.95 1318.67,1257.56 1320.52,1252.99 1322.31,1248.22 1324.04,1243.27 1325.68,1238.15 1327.25,1232.86 1328.72,1227.41 1330.11,1221.81 1331.39,1216.07 1332.58,1210.19 1333.66,1204.18 1334.63,1198.07 1335.49,1191.84 1336.24,1185.52 1336.86,1179.12 1337.37,1172.65 1337.74,1166.11 1337.99,1159.52 1338.12,1152.88 1338.1,1146.21 1337.96,1139.51 1337.69,1132.81 1337.28,1126.1 1336.75,1119.39 1336.08,1112.71 1335.29,1106.05 1334.37,1099.44 1333.33,1092.87 1332.16,1086.36 1330.87,1079.92 1329.47,1073.56 1327.95,1067.29 1326.32,1061.12 1324.58,1055.05 1322.75,1049.1 1320.81,1043.27 1318.78,1037.58 1316.66,1032.03 1314.46,1026.62 1312.18,1021.37 1309.84,1016.28 1307.44,1011.36 1304.98,1006.62 1302.47,1002.06 1299.92,997.688 1297.33,993.513 1294.71,989.538 1292.08,985.767 1289.43,982.204 1286.77,978.853 1284.11,975.715 1281.47,972.794 1278.84,970.091 1276.24,967.609 1273.68,965.349 1271.17,963.313 1268.7,961.5 1266.3,959.91 1263.97,958.545 1261.72,957.402 1259.56,956.48 1257.49,955.778 1255.52,955.292 1253.66,955.019 1251.93,954.955 1250.32,955.096 1248.84,955.436 1247.51,955.97 1246.33,956.692 1245.3,957.596 1244.45,958.676 1243.76,959.925 1243.26,961.338 1242.94,962.908 1242.8,964.625 1242.87,966.482 1243.13,968.47 1243.59,970.58 1244.25,972.8 1245.13,975.121 1246.22,977.533 1247.52,980.023 1249.05,982.581 1250.79,985.195 1252.75,987.856 1254.93,990.55 1257.33,993.267 1259.96,995.997 1262.8,998.726 1265.86,1001.45 1269.13,1004.14 1272.61,1006.81 1276.29,1009.43 1280.18,1011.99 1284.26,1014.48 1288.53,1016.9 1292.98,1019.23 1297.61,1021.45 1302.4,1023.56 1307.36,1025.55 1312.47,1027.41 1317.73,1029.12 1323.12,1030.69 1328.64,1032.11 1334.27,1033.37 1340,1034.47 1345.83,1035.39 1351.73,1036.15 1357.7,1036.73 1363.72,1037.12 1369.79,1037.34 1375.88,1037.36 1381.99,1037.2 1388.11,1036.86 1394.21,1036.32 1400.3,1035.6 1406.35,1034.69 1412.36,1033.61 1418.31,1032.34 1424.2,1030.91 1430,1029.31 1435.71,1027.55 1441.32,1025.64 1446.82,1023.58 1452.19,1021.39 1457.43,1019.07 1462.52,1016.63 1467.46,1014.07 1472.24,1011.42 1476.85,1008.67 1481.29,1005.83 1485.54,1002.92 1489.61,999.949 1493.48,996.925 1497.16,993.861 1500.64,990.772 1503.92,987.668 1506.99,984.562 1509.86,981.465 1512.51,978.39 1514.96,975.347 1517.19,972.348 1519.21,969.403 1521.01,966.523 1522.61,963.719 1524,961.001 1525.18,958.379 1526.16,955.864 1526.94,953.466 1527.52,951.193 1527.91,949.056 1528.11,947.064 1528.14,945.225 1527.98,943.549 1527.66,942.041 1527.17,940.712 1526.51,939.566 1525.71,938.61 1524.75,937.85 1523.66,937.29 1522.42,936.934 1521.06,936.788 1519.59,936.853 1518,937.134 1516.3,937.634 1514.52,938.356 1512.65,939.303 1510.69,940.477 1508.67,941.878 1506.59,943.508 1504.45,945.367 1502.26,947.453 1500.04,949.766 1497.78,952.305 1495.5,955.067 1493.21,958.049 1490.91,961.249 1488.6,964.665 1486.31,968.291 1484.04,972.124 1481.78,976.161 1479.56,980.395 1477.38,984.824 1475.25,989.44 1473.16,994.239 1471.14,999.215 1469.18,1004.36 1467.29,1009.67 1465.48,1015.13 1463.74,1020.75 1462.09,1026.5 1460.53,1032.38 1459.07,1038.38 1457.71,1044.5 1456.45,1050.72 1455.31,1057.03 1454.27,1063.44 1453.36,1069.92 1452.56,1076.47 1451.88,1083.08 1451.32,1089.74 1450.89,1096.44 1450.59,1103.16 1450.41,1109.91 1450.35,1116.66 1450.43,1123.41 1450.63,1130.14 1450.96,1136.85 1451.41,1143.53 1452,1150.16 1452.7,1156.74 1453.53,1163.26 1454.49,1169.7 1455.56,1176.06 1456.74,1182.32 1458.04,1188.49 1459.45,1194.54 1460.96,1200.47 "/>
<path clip-path="url(#clip650)" d="M1973.96 2085.43 L2288.68 2085.43 L2288.68 1878.07 L1973.96 1878.07  Z" fill="#000000" fill-rule="evenodd" fill-opacity="0"/>
<polyline clip-path="url(#clip650)" style="stroke:#000000; stroke-linecap:round; stroke-linejoin:round; stroke-width:4; stroke-opacity:1; fill:none" points="1973.96,2085.43 2288.68,2085.43 2288.68,1878.07 1973.96,1878.07 1973.96,2085.43 "/>
<polyline clip-path="url(#clip650)" style="stroke:#1f83ff; stroke-linecap:round; stroke-linejoin:round; stroke-width:4; stroke-opacity:1; fill:none" points="1995.32,1929.91 2123.47,1929.91 "/>
<path clip-path="url(#clip650)" d="M2144.83 1912.63 L2166.68 1912.63 L2166.68 1916.57 L2149.5 1916.57 L2149.5 1926.8 L2165.96 1926.8 L2165.96 1930.73 L2149.5 1930.73 L2149.5 1943.26 L2167.09 1943.26 L2167.09 1947.19 L2144.83 1947.19 L2144.83 1912.63 Z" fill="#000000" fill-rule="nonzero" fill-opacity="1" /><path clip-path="url(#clip650)" d="M2186.38 1934.16 Q2181.21 1934.16 2179.22 1935.34 Q2177.23 1936.52 2177.23 1939.37 Q2177.23 1941.64 2178.71 1942.98 Q2180.22 1944.3 2182.79 1944.3 Q2186.33 1944.3 2188.46 1941.8 Q2190.61 1939.28 2190.61 1935.11 L2190.61 1934.16 L2186.38 1934.16 M2194.87 1932.4 L2194.87 1947.19 L2190.61 1947.19 L2190.61 1943.26 Q2189.15 1945.62 2186.98 1946.75 Q2184.8 1947.86 2181.65 1947.86 Q2177.67 1947.86 2175.31 1945.64 Q2172.97 1943.4 2172.97 1939.65 Q2172.97 1935.27 2175.89 1933.05 Q2178.83 1930.83 2184.64 1930.83 L2190.61 1930.83 L2190.61 1930.41 Q2190.61 1927.47 2188.67 1925.87 Q2186.75 1924.25 2183.25 1924.25 Q2181.03 1924.25 2178.92 1924.79 Q2176.82 1925.32 2174.87 1926.38 L2174.87 1922.45 Q2177.21 1921.54 2179.41 1921.1 Q2181.61 1920.64 2183.69 1920.64 Q2189.32 1920.64 2192.09 1923.56 Q2194.87 1926.48 2194.87 1932.4 Z" fill="#000000" fill-rule="nonzero" fill-opacity="1" /><path clip-path="url(#clip650)" d="M2218.67 1925.25 Q2217.95 1924.83 2217.09 1924.65 Q2216.26 1924.44 2215.24 1924.44 Q2211.63 1924.44 2209.69 1926.8 Q2207.77 1929.14 2207.77 1933.54 L2207.77 1947.19 L2203.48 1947.19 L2203.48 1921.27 L2207.77 1921.27 L2207.77 1925.29 Q2209.11 1922.93 2211.26 1921.8 Q2213.41 1920.64 2216.49 1920.64 Q2216.93 1920.64 2217.46 1920.71 Q2218 1920.76 2218.64 1920.87 L2218.67 1925.25 Z" fill="#000000" fill-rule="nonzero" fill-opacity="1" /><path clip-path="url(#clip650)" d="M2227.35 1913.91 L2227.35 1921.27 L2236.12 1921.27 L2236.12 1924.58 L2227.35 1924.58 L2227.35 1938.65 Q2227.35 1941.82 2228.2 1942.73 Q2229.08 1943.63 2231.75 1943.63 L2236.12 1943.63 L2236.12 1947.19 L2231.75 1947.19 Q2226.82 1947.19 2224.94 1945.36 Q2223.07 1943.51 2223.07 1938.65 L2223.07 1924.58 L2219.94 1924.58 L2219.94 1921.27 L2223.07 1921.27 L2223.07 1913.91 L2227.35 1913.91 Z" fill="#000000" fill-rule="nonzero" fill-opacity="1" /><path clip-path="url(#clip650)" d="M2263.27 1931.54 L2263.27 1947.19 L2259.01 1947.19 L2259.01 1931.68 Q2259.01 1928 2257.58 1926.17 Q2256.14 1924.35 2253.27 1924.35 Q2249.83 1924.35 2247.83 1926.54 Q2245.84 1928.74 2245.84 1932.54 L2245.84 1947.19 L2241.56 1947.19 L2241.56 1911.17 L2245.84 1911.17 L2245.84 1925.29 Q2247.37 1922.96 2249.43 1921.8 Q2251.51 1920.64 2254.22 1920.64 Q2258.69 1920.64 2260.98 1923.42 Q2263.27 1926.17 2263.27 1931.54 Z" fill="#000000" fill-rule="nonzero" fill-opacity="1" /><polyline clip-path="url(#clip650)" style="stroke:#ca3c32; stroke-linecap:round; stroke-linejoin:round; stroke-width:4; stroke-opacity:1; fill:none" points="1995.32,1981.75 2123.47,1981.75 "/>
<path clip-path="url(#clip650)" d="M2151.93 1964.47 L2156.61 1964.47 L2156.61 1996.63 Q2156.61 2002.88 2154.22 2005.7 Q2151.86 2008.52 2146.61 2008.52 L2144.83 2008.52 L2144.83 2004.59 L2146.28 2004.59 Q2149.39 2004.59 2150.66 2002.85 Q2151.93 2001.12 2151.93 1996.63 L2151.93 1964.47 Z" fill="#000000" fill-rule="nonzero" fill-opacity="1" /><path clip-path="url(#clip650)" d="M2162.83 1964.47 L2167.56 1964.47 L2174.83 1993.69 L2182.07 1964.47 L2187.33 1964.47 L2194.59 1993.69 L2201.84 1964.47 L2206.58 1964.47 L2197.9 1999.03 L2192.02 1999.03 L2184.73 1969.03 L2177.37 1999.03 L2171.49 1999.03 L2162.83 1964.47 Z" fill="#000000" fill-rule="nonzero" fill-opacity="1" /><path clip-path="url(#clip650)" d="M2233.51 1965.61 L2233.51 1970.17 Q2230.84 1968.89 2228.48 1968.27 Q2226.12 1967.64 2223.92 1967.64 Q2220.1 1967.64 2218.02 1969.13 Q2215.96 1970.61 2215.96 1973.34 Q2215.96 1975.63 2217.33 1976.81 Q2218.71 1977.97 2222.56 1978.69 L2225.38 1979.26 Q2230.61 1980.26 2233.09 1982.78 Q2235.59 1985.28 2235.59 1989.5 Q2235.59 1994.52 2232.21 1997.11 Q2228.85 1999.7 2222.35 1999.7 Q2219.89 1999.7 2217.12 1999.15 Q2214.36 1998.59 2211.4 1997.5 L2211.4 1992.69 Q2214.25 1994.29 2216.98 1995.1 Q2219.71 1995.91 2222.35 1995.91 Q2226.35 1995.91 2228.53 1994.33 Q2230.7 1992.76 2230.7 1989.84 Q2230.7 1987.3 2229.13 1985.86 Q2227.58 1984.43 2224.02 1983.71 L2221.17 1983.15 Q2215.94 1982.11 2213.6 1979.89 Q2211.26 1977.67 2211.26 1973.71 Q2211.26 1969.13 2214.48 1966.49 Q2217.72 1963.85 2223.39 1963.85 Q2225.82 1963.85 2228.34 1964.29 Q2230.87 1964.73 2233.51 1965.61 Z" fill="#000000" fill-rule="nonzero" fill-opacity="1" /><path clip-path="url(#clip650)" d="M2238.09 1964.47 L2267.33 1964.47 L2267.33 1968.41 L2255.06 1968.41 L2255.06 1999.03 L2250.36 1999.03 L2250.36 1968.41 L2238.09 1968.41 L2238.09 1964.47 Z" fill="#000000" fill-rule="nonzero" fill-opacity="1" /><polyline clip-path="url(#clip650)" style="stroke:#399746; stroke-linecap:round; stroke-linejoin:round; stroke-width:4; stroke-opacity:1; fill:none" points="1995.32,2033.59 2123.47,2033.59 "/>
<path clip-path="url(#clip650)" d="M2170.38 2045.94 L2170.38 2036.66 L2162.74 2036.66 L2162.74 2032.82 L2175.01 2032.82 L2175.01 2047.66 Q2172.3 2049.58 2169.04 2050.57 Q2165.77 2051.54 2162.07 2051.54 Q2153.97 2051.54 2149.39 2046.82 Q2144.83 2042.08 2144.83 2033.63 Q2144.83 2025.16 2149.39 2020.43 Q2153.97 2015.69 2162.07 2015.69 Q2165.45 2015.69 2168.48 2016.52 Q2171.54 2017.35 2174.11 2018.97 L2174.11 2023.95 Q2171.52 2021.75 2168.6 2020.64 Q2165.68 2019.53 2162.46 2019.53 Q2156.12 2019.53 2152.93 2023.07 Q2149.76 2026.61 2149.76 2033.63 Q2149.76 2040.62 2152.93 2044.16 Q2156.12 2047.7 2162.46 2047.7 Q2164.94 2047.7 2166.89 2047.28 Q2168.83 2046.84 2170.38 2045.94 Z" fill="#000000" fill-rule="nonzero" fill-opacity="1" /><path clip-path="url(#clip650)" d="M2195.1 2020.92 L2188.76 2038.12 L2201.47 2038.12 L2195.1 2020.92 M2192.46 2016.31 L2197.77 2016.31 L2210.94 2050.87 L2206.08 2050.87 L2202.93 2042.01 L2187.35 2042.01 L2184.2 2050.87 L2179.27 2050.87 L2192.46 2016.31 Z" fill="#000000" fill-rule="nonzero" fill-opacity="1" /><path clip-path="url(#clip650)" d="M2215.98 2016.31 L2220.66 2016.31 L2220.66 2050.87 L2215.98 2050.87 L2215.98 2016.31 Z" fill="#000000" fill-rule="nonzero" fill-opacity="1" /><path clip-path="url(#clip650)" d="M2241.52 2020.92 L2235.17 2038.12 L2247.88 2038.12 L2241.52 2020.92 M2238.88 2016.31 L2244.18 2016.31 L2257.35 2050.87 L2252.49 2050.87 L2249.34 2042.01 L2233.76 2042.01 L2230.61 2050.87 L2225.68 2050.87 L2238.88 2016.31 Z" fill="#000000" fill-rule="nonzero" fill-opacity="1" /></svg>
