<?xml version="1.0" encoding="utf-8"?>
<svg xmlns="http://www.w3.org/2000/svg" xmlns:xlink="http://www.w3.org/1999/xlink" width="600" height="400" viewBox="0 0 2400 1600">
<defs>
  <clipPath id="clip940">
    <rect x="0" y="0" width="2400" height="1600"/>
  </clipPath>
</defs>
<path clip-path="url(#clip940)" d="M0 1600 L2400 1600 L2400 0 L0 0  Z" fill="#ffffff" fill-rule="evenodd" fill-opacity="1"/>
<defs>
  <clipPath id="clip941">
    <rect x="480" y="0" width="1681" height="1600"/>
  </clipPath>
</defs>
<path clip-path="url(#clip940)" d="M406.671 1410.9 L2352.76 1410.9 L2352.76 123.472 L406.671 123.472  Z" fill="#ffffff" fill-rule="evenodd" fill-opacity="1"/>
<defs>
  <clipPath id="clip942">
    <rect x="406" y="123" width="1947" height="1288"/>
  </clipPath>
</defs>
<polyline clip-path="url(#clip942)" style="stroke:#000000; stroke-linecap:round; stroke-linejoin:round; stroke-width:2; stroke-opacity:0.1; fill:none" points="835.003,1410.9 835.003,123.472 "/>
<polyline clip-path="url(#clip942)" style="stroke:#000000; stroke-linecap:round; stroke-linejoin:round; stroke-width:2; stroke-opacity:0.1; fill:none" points="1336.12,1410.9 1336.12,123.472 "/>
<polyline clip-path="url(#clip942)" style="stroke:#000000; stroke-linecap:round; stroke-linejoin:round; stroke-width:2; stroke-opacity:0.1; fill:none" points="1837.23,1410.9 1837.23,123.472 "/>
<polyline clip-path="url(#clip942)" style="stroke:#000000; stroke-linecap:round; stroke-linejoin:round; stroke-width:2; stroke-opacity:0.1; fill:none" points="2338.35,1410.9 2338.35,123.472 "/>
<polyline clip-path="url(#clip942)" style="stroke:#000000; stroke-linecap:round; stroke-linejoin:round; stroke-width:2; stroke-opacity:0.1; fill:none" points="406.671,1262.86 2352.76,1262.86 "/>
<polyline clip-path="url(#clip942)" style="stroke:#000000; stroke-linecap:round; stroke-linejoin:round; stroke-width:2; stroke-opacity:0.1; fill:none" points="406.671,1098.44 2352.76,1098.44 "/>
<polyline clip-path="url(#clip942)" style="stroke:#000000; stroke-linecap:round; stroke-linejoin:round; stroke-width:2; stroke-opacity:0.1; fill:none" points="406.671,934.012 2352.76,934.012 "/>
<polyline clip-path="url(#clip942)" style="stroke:#000000; stroke-linecap:round; stroke-linejoin:round; stroke-width:2; stroke-opacity:0.1; fill:none" points="406.671,769.588 2352.76,769.588 "/>
<polyline clip-path="url(#clip942)" style="stroke:#000000; stroke-linecap:round; stroke-linejoin:round; stroke-width:2; stroke-opacity:0.1; fill:none" points="406.671,605.164 2352.76,605.164 "/>
<polyline clip-path="url(#clip942)" style="stroke:#000000; stroke-linecap:round; stroke-linejoin:round; stroke-width:2; stroke-opacity:0.1; fill:none" points="406.671,440.74 2352.76,440.74 "/>
<polyline clip-path="url(#clip942)" style="stroke:#000000; stroke-linecap:round; stroke-linejoin:round; stroke-width:2; stroke-opacity:0.1; fill:none" points="406.671,276.316 2352.76,276.316 "/>
<polyline clip-path="url(#clip940)" style="stroke:#000000; stroke-linecap:round; stroke-linejoin:round; stroke-width:4; stroke-opacity:1; fill:none" points="406.671,1410.9 2352.76,1410.9 "/>
<polyline clip-path="url(#clip940)" style="stroke:#000000; stroke-linecap:round; stroke-linejoin:round; stroke-width:4; stroke-opacity:1; fill:none" points="835.003,1410.9 835.003,1392 "/>
<polyline clip-path="url(#clip940)" style="stroke:#000000; stroke-linecap:round; stroke-linejoin:round; stroke-width:4; stroke-opacity:1; fill:none" points="1336.12,1410.9 1336.12,1392 "/>
<polyline clip-path="url(#clip940)" style="stroke:#000000; stroke-linecap:round; stroke-linejoin:round; stroke-width:4; stroke-opacity:1; fill:none" points="1837.23,1410.9 1837.23,1392 "/>
<polyline clip-path="url(#clip940)" style="stroke:#000000; stroke-linecap:round; stroke-linejoin:round; stroke-width:4; stroke-opacity:1; fill:none" points="2338.35,1410.9 2338.35,1392 "/>
<path clip-path="url(#clip940)" d="M721.879 1472.13 L751.554 1472.13 L751.554 1476.06 L721.879 1476.06 L721.879 1472.13 Z" fill="#000000" fill-rule="nonzero" fill-opacity="1" /><path clip-path="url(#clip940)" d="M761.693 1454.4 L780.05 1454.4 L780.05 1458.33 L765.976 1458.33 L765.976 1466.8 Q766.994 1466.46 768.013 1466.29 Q769.031 1466.11 770.05 1466.11 Q775.837 1466.11 779.216 1469.28 Q782.596 1472.45 782.596 1477.87 Q782.596 1483.45 779.124 1486.55 Q775.651 1489.63 769.332 1489.63 Q767.156 1489.63 764.888 1489.26 Q762.642 1488.89 760.235 1488.15 L760.235 1483.45 Q762.318 1484.58 764.54 1485.14 Q766.763 1485.69 769.239 1485.69 Q773.244 1485.69 775.582 1483.59 Q777.92 1481.48 777.92 1477.87 Q777.92 1474.26 775.582 1472.15 Q773.244 1470.04 769.239 1470.04 Q767.364 1470.04 765.489 1470.46 Q763.638 1470.88 761.693 1471.76 L761.693 1454.4 Z" fill="#000000" fill-rule="nonzero" fill-opacity="1" /><path clip-path="url(#clip940)" d="M791.809 1483.08 L796.693 1483.08 L796.693 1488.96 L791.809 1488.96 L791.809 1483.08 Z" fill="#000000" fill-rule="nonzero" fill-opacity="1" /><path clip-path="url(#clip940)" d="M816.878 1457.48 Q813.267 1457.48 811.438 1461.04 Q809.633 1464.58 809.633 1471.71 Q809.633 1478.82 811.438 1482.38 Q813.267 1485.92 816.878 1485.92 Q820.512 1485.92 822.318 1482.38 Q824.147 1478.82 824.147 1471.71 Q824.147 1464.58 822.318 1461.04 Q820.512 1457.48 816.878 1457.48 M816.878 1453.77 Q822.688 1453.77 825.744 1458.38 Q828.822 1462.96 828.822 1471.71 Q828.822 1480.44 825.744 1485.04 Q822.688 1489.63 816.878 1489.63 Q811.068 1489.63 807.989 1485.04 Q804.934 1480.44 804.934 1471.71 Q804.934 1462.96 807.989 1458.38 Q811.068 1453.77 816.878 1453.77 Z" fill="#000000" fill-rule="nonzero" fill-opacity="1" /><path clip-path="url(#clip940)" d="M865.211 1463.49 L854.632 1474.12 L865.211 1484.7 L862.457 1487.5 L851.832 1476.87 L841.207 1487.5 L838.475 1484.7 L849.031 1474.12 L838.475 1463.49 L841.207 1460.69 L851.832 1471.32 L862.457 1460.69 L865.211 1463.49 Z" fill="#000000" fill-rule="nonzero" fill-opacity="1" /><path clip-path="url(#clip940)" d="M877.572 1485.02 L885.211 1485.02 L885.211 1458.66 L876.901 1460.32 L876.901 1456.06 L885.165 1454.4 L889.841 1454.4 L889.841 1485.02 L897.479 1485.02 L897.479 1488.96 L877.572 1488.96 L877.572 1485.02 Z" fill="#000000" fill-rule="nonzero" fill-opacity="1" /><path clip-path="url(#clip940)" d="M916.924 1457.48 Q913.313 1457.48 911.484 1461.04 Q909.678 1464.58 909.678 1471.71 Q909.678 1478.82 911.484 1482.38 Q913.313 1485.92 916.924 1485.92 Q920.558 1485.92 922.364 1482.38 Q924.192 1478.82 924.192 1471.71 Q924.192 1464.58 922.364 1461.04 Q920.558 1457.48 916.924 1457.48 M916.924 1453.77 Q922.734 1453.77 925.79 1458.38 Q928.868 1462.96 928.868 1471.71 Q928.868 1480.44 925.79 1485.04 Q922.734 1489.63 916.924 1489.63 Q911.114 1489.63 908.035 1485.04 Q904.979 1480.44 904.979 1471.71 Q904.979 1462.96 908.035 1458.38 Q911.114 1453.77 916.924 1453.77 Z" fill="#000000" fill-rule="nonzero" fill-opacity="1" /><path clip-path="url(#clip940)" d="M938.498 1448.21 Q935.789 1448.21 934.228 1449.66 Q932.686 1451.11 932.686 1453.65 Q932.686 1456.19 934.228 1457.63 Q935.789 1459.08 938.498 1459.08 Q941.206 1459.08 942.767 1457.63 Q944.328 1456.17 944.328 1453.65 Q944.328 1451.11 942.767 1449.66 Q941.225 1448.21 938.498 1448.21 M934.699 1446.59 Q932.254 1445.99 930.881 1444.32 Q929.526 1442.64 929.526 1440.24 Q929.526 1436.87 931.915 1434.91 Q934.322 1432.96 938.498 1432.96 Q942.692 1432.96 945.081 1434.91 Q947.469 1436.87 947.469 1440.24 Q947.469 1442.64 946.096 1444.32 Q944.742 1445.99 942.316 1446.59 Q945.062 1447.23 946.585 1449.1 Q948.127 1450.96 948.127 1453.65 Q948.127 1457.73 945.626 1459.91 Q943.143 1462.09 938.498 1462.09 Q933.852 1462.09 931.351 1459.91 Q928.868 1457.73 928.868 1453.65 Q928.868 1450.96 930.41 1449.1 Q931.953 1447.23 934.699 1446.59 M933.307 1440.59 Q933.307 1442.78 934.661 1444 Q936.034 1445.22 938.498 1445.22 Q940.943 1445.22 942.316 1444 Q943.708 1442.78 943.708 1440.59 Q943.708 1438.41 942.316 1437.19 Q940.943 1435.97 938.498 1435.97 Q936.034 1435.97 934.661 1437.19 Q933.307 1438.41 933.307 1440.59 Z" fill="#000000" fill-rule="nonzero" fill-opacity="1" /><path clip-path="url(#clip940)" d="M1336.12 1441.82 Q1332.51 1441.82 1330.68 1445.38 Q1328.87 1448.92 1328.87 1456.05 Q1328.87 1463.16 1330.68 1466.72 Q1332.51 1470.26 1336.12 1470.26 Q1339.75 1470.26 1341.56 1466.72 Q1343.39 1463.16 1343.39 1456.05 Q1343.39 1448.92 1341.56 1445.38 Q1339.75 1441.82 1336.12 1441.82 M1336.12 1438.11 Q1341.93 1438.11 1344.98 1442.72 Q1348.06 1447.3 1348.06 1456.05 Q1348.06 1464.78 1344.98 1469.38 Q1341.93 1473.97 1336.12 1473.97 Q1330.31 1473.97 1327.23 1469.38 Q1324.17 1464.78 1324.17 1456.05 Q1324.17 1447.3 1327.23 1442.72 Q1330.31 1438.11 1336.12 1438.11 Z" fill="#000000" fill-rule="nonzero" fill-opacity="1" /><path clip-path="url(#clip940)" d="M1744.75 1454.4 L1763.1 1454.4 L1763.1 1458.33 L1749.03 1458.33 L1749.03 1466.8 Q1750.05 1466.46 1751.06 1466.29 Q1752.08 1466.11 1753.1 1466.11 Q1758.89 1466.11 1762.27 1469.28 Q1765.65 1472.45 1765.65 1477.87 Q1765.65 1483.45 1762.18 1486.55 Q1758.7 1489.63 1752.38 1489.63 Q1750.21 1489.63 1747.94 1489.26 Q1745.69 1488.89 1743.29 1488.15 L1743.29 1483.45 Q1745.37 1484.58 1747.59 1485.14 Q1749.81 1485.69 1752.29 1485.69 Q1756.3 1485.69 1758.63 1483.59 Q1760.97 1481.48 1760.97 1477.87 Q1760.97 1474.26 1758.63 1472.15 Q1756.3 1470.04 1752.29 1470.04 Q1750.42 1470.04 1748.54 1470.46 Q1746.69 1470.88 1744.75 1471.76 L1744.75 1454.4 Z" fill="#000000" fill-rule="nonzero" fill-opacity="1" /><path clip-path="url(#clip940)" d="M1774.86 1483.08 L1779.74 1483.08 L1779.74 1488.96 L1774.86 1488.96 L1774.86 1483.08 Z" fill="#000000" fill-rule="nonzero" fill-opacity="1" /><path clip-path="url(#clip940)" d="M1799.93 1457.48 Q1796.32 1457.48 1794.49 1461.04 Q1792.68 1464.58 1792.68 1471.71 Q1792.68 1478.82 1794.49 1482.38 Q1796.32 1485.92 1799.93 1485.92 Q1803.56 1485.92 1805.37 1482.38 Q1807.2 1478.82 1807.2 1471.71 Q1807.2 1464.58 1805.37 1461.04 Q1803.56 1457.48 1799.93 1457.48 M1799.93 1453.77 Q1805.74 1453.77 1808.8 1458.38 Q1811.87 1462.96 1811.87 1471.71 Q1811.87 1480.44 1808.8 1485.04 Q1805.74 1489.63 1799.93 1489.63 Q1794.12 1489.63 1791.04 1485.04 Q1787.99 1480.44 1787.99 1471.71 Q1787.99 1462.96 1791.04 1458.38 Q1794.12 1453.77 1799.93 1453.77 Z" fill="#000000" fill-rule="nonzero" fill-opacity="1" /><path clip-path="url(#clip940)" d="M1848.26 1463.49 L1837.68 1474.12 L1848.26 1484.7 L1845.51 1487.5 L1834.88 1476.87 L1824.26 1487.5 L1821.53 1484.7 L1832.08 1474.12 L1821.53 1463.49 L1824.26 1460.69 L1834.88 1471.32 L1845.51 1460.69 L1848.26 1463.49 Z" fill="#000000" fill-rule="nonzero" fill-opacity="1" /><path clip-path="url(#clip940)" d="M1860.62 1485.02 L1868.26 1485.02 L1868.26 1458.66 L1859.95 1460.32 L1859.95 1456.06 L1868.22 1454.4 L1872.89 1454.4 L1872.89 1485.02 L1880.53 1485.02 L1880.53 1488.96 L1860.62 1488.96 L1860.62 1485.02 Z" fill="#000000" fill-rule="nonzero" fill-opacity="1" /><path clip-path="url(#clip940)" d="M1899.98 1457.48 Q1896.36 1457.48 1894.54 1461.04 Q1892.73 1464.58 1892.73 1471.71 Q1892.73 1478.82 1894.54 1482.38 Q1896.36 1485.92 1899.98 1485.92 Q1903.61 1485.92 1905.42 1482.38 Q1907.24 1478.82 1907.24 1471.71 Q1907.24 1464.58 1905.42 1461.04 Q1903.61 1457.48 1899.98 1457.48 M1899.98 1453.77 Q1905.79 1453.77 1908.84 1458.38 Q1911.92 1462.96 1911.92 1471.71 Q1911.92 1480.44 1908.84 1485.04 Q1905.79 1489.63 1899.98 1489.63 Q1894.17 1489.63 1891.09 1485.04 Q1888.03 1480.44 1888.03 1471.71 Q1888.03 1462.96 1891.09 1458.38 Q1894.17 1453.77 1899.98 1453.77 Z" fill="#000000" fill-rule="nonzero" fill-opacity="1" /><path clip-path="url(#clip940)" d="M1921.55 1448.21 Q1918.84 1448.21 1917.28 1449.66 Q1915.74 1451.11 1915.74 1453.65 Q1915.74 1456.19 1917.28 1457.63 Q1918.84 1459.08 1921.55 1459.08 Q1924.26 1459.08 1925.82 1457.63 Q1927.38 1456.17 1927.38 1453.65 Q1927.38 1451.11 1925.82 1449.66 Q1924.28 1448.21 1921.55 1448.21 M1917.75 1446.59 Q1915.31 1445.99 1913.93 1444.32 Q1912.58 1442.64 1912.58 1440.24 Q1912.58 1436.87 1914.97 1434.91 Q1917.37 1432.96 1921.55 1432.96 Q1925.74 1432.96 1928.13 1434.91 Q1930.52 1436.87 1930.52 1440.24 Q1930.52 1442.64 1929.15 1444.32 Q1927.79 1445.99 1925.37 1446.59 Q1928.11 1447.23 1929.64 1449.1 Q1931.18 1450.96 1931.18 1453.65 Q1931.18 1457.73 1928.68 1459.91 Q1926.2 1462.09 1921.55 1462.09 Q1916.9 1462.09 1914.4 1459.91 Q1911.92 1457.73 1911.92 1453.65 Q1911.92 1450.96 1913.46 1449.1 Q1915 1447.23 1917.75 1446.59 M1916.36 1440.59 Q1916.36 1442.78 1917.71 1444 Q1919.09 1445.22 1921.55 1445.22 Q1923.99 1445.22 1925.37 1444 Q1926.76 1442.78 1926.76 1440.59 Q1926.76 1438.41 1925.37 1437.19 Q1923.99 1435.97 1921.55 1435.97 Q1919.09 1435.97 1917.71 1437.19 Q1916.36 1438.41 1916.36 1440.59 Z" fill="#000000" fill-rule="nonzero" fill-opacity="1" /><path clip-path="url(#clip940)" d="M2245.79 1485.02 L2253.43 1485.02 L2253.43 1458.66 L2245.12 1460.32 L2245.12 1456.06 L2253.38 1454.4 L2258.06 1454.4 L2258.06 1485.02 L2265.7 1485.02 L2265.7 1488.96 L2245.79 1488.96 L2245.79 1485.02 Z" fill="#000000" fill-rule="nonzero" fill-opacity="1" /><path clip-path="url(#clip940)" d="M2275.14 1483.08 L2280.03 1483.08 L2280.03 1488.96 L2275.14 1488.96 L2275.14 1483.08 Z" fill="#000000" fill-rule="nonzero" fill-opacity="1" /><path clip-path="url(#clip940)" d="M2300.21 1457.48 Q2296.6 1457.48 2294.77 1461.04 Q2292.97 1464.58 2292.97 1471.71 Q2292.97 1478.82 2294.77 1482.38 Q2296.6 1485.92 2300.21 1485.92 Q2303.85 1485.92 2305.65 1482.38 Q2307.48 1478.82 2307.48 1471.71 Q2307.48 1464.58 2305.65 1461.04 Q2303.85 1457.48 2300.21 1457.48 M2300.21 1453.77 Q2306.02 1453.77 2309.08 1458.38 Q2312.16 1462.96 2312.16 1471.71 Q2312.16 1480.44 2309.08 1485.04 Q2306.02 1489.63 2300.21 1489.63 Q2294.4 1489.63 2291.32 1485.04 Q2288.27 1480.44 2288.27 1471.71 Q2288.27 1462.96 2291.32 1458.38 Q2294.4 1453.77 2300.21 1453.77 Z" fill="#000000" fill-rule="nonzero" fill-opacity="1" /><path clip-path="url(#clip940)" d="M2348.55 1463.49 L2337.97 1474.12 L2348.55 1484.7 L2345.79 1487.5 L2335.17 1476.87 L2324.54 1487.5 L2321.81 1484.7 L2332.37 1474.12 L2321.81 1463.49 L2324.54 1460.69 L2335.17 1471.32 L2345.79 1460.69 L2348.55 1463.49 Z" fill="#000000" fill-rule="nonzero" fill-opacity="1" /><path clip-path="url(#clip940)" d="M2360.91 1485.02 L2368.55 1485.02 L2368.55 1458.66 L2360.24 1460.32 L2360.24 1456.06 L2368.5 1454.4 L2373.18 1454.4 L2373.18 1485.02 L2380.81 1485.02 L2380.81 1488.96 L2360.91 1488.96 L2360.91 1485.02 Z" fill="#000000" fill-rule="nonzero" fill-opacity="1" /><path clip-path="url(#clip940)" d="M2400.26 1457.48 Q2396.65 1457.48 2394.82 1461.04 Q2393.01 1464.58 2393.01 1471.71 Q2393.01 1478.82 2394.82 1482.38 Q2396.65 1485.92 2400.26 1485.92 Q2403.89 1485.92 2405.7 1482.38 Q2407.53 1478.82 2407.53 1471.71 Q2407.53 1464.58 2405.7 1461.04 Q2403.89 1457.48 2400.26 1457.48 M2400.26 1453.77 Q2406.07 1453.77 2409.12 1458.38 Q2412.2 1462.96 2412.2 1471.71 Q2412.2 1480.44 2409.12 1485.04 Q2406.07 1489.63 2400.26 1489.63 Q2394.45 1489.63 2391.37 1485.04 Q2388.31 1480.44 2388.31 1471.71 Q2388.31 1462.96 2391.37 1458.38 Q2394.45 1453.77 2400.26 1453.77 Z" fill="#000000" fill-rule="nonzero" fill-opacity="1" /><path clip-path="url(#clip940)" d="M2414.01 1460.96 L2414.01 1457.5 Q2415.44 1458.18 2416.91 1458.54 Q2418.37 1458.89 2419.78 1458.89 Q2423.54 1458.89 2425.52 1456.37 Q2427.51 1453.84 2427.79 1448.68 Q2426.7 1450.3 2425.03 1451.16 Q2423.36 1452.03 2421.32 1452.03 Q2417.11 1452.03 2414.65 1449.49 Q2412.2 1446.93 2412.2 1442.51 Q2412.2 1438.19 2414.76 1435.57 Q2417.32 1432.96 2421.57 1432.96 Q2426.44 1432.96 2429 1436.7 Q2431.58 1440.43 2431.58 1447.53 Q2431.58 1454.17 2428.42 1458.14 Q2425.27 1462.09 2419.95 1462.09 Q2418.52 1462.09 2417.06 1461.81 Q2415.59 1461.53 2414.01 1460.96 M2421.57 1449.06 Q2424.13 1449.06 2425.61 1447.31 Q2427.12 1445.56 2427.12 1442.51 Q2427.12 1439.48 2425.61 1437.74 Q2424.13 1435.97 2421.57 1435.97 Q2419.01 1435.97 2417.51 1437.74 Q2416.02 1439.48 2416.02 1442.51 Q2416.02 1445.56 2417.51 1447.31 Q2419.01 1449.06 2421.57 1449.06 Z" fill="#000000" fill-rule="nonzero" fill-opacity="1" /><path clip-path="url(#clip940)" d="M1278.04 1526.67 L1284.94 1526.67 L1296.75 1544.33 L1308.62 1526.67 L1315.53 1526.67 L1300.25 1549.49 L1316.55 1574.19 L1309.64 1574.19 L1296.27 1553.97 L1282.81 1574.19 L1275.87 1574.19 L1292.84 1548.82 L1278.04 1526.67 Z" fill="#000000" fill-rule="nonzero" fill-opacity="1" /><path clip-path="url(#clip940)" d="M1359.52 1524.72 Q1355.25 1532.04 1353.18 1539.21 Q1351.12 1546.37 1351.12 1553.72 Q1351.12 1561.07 1353.18 1568.3 Q1355.28 1575.49 1359.52 1582.78 L1354.43 1582.78 Q1349.65 1575.3 1347.26 1568.07 Q1344.91 1560.85 1344.91 1553.72 Q1344.91 1546.62 1347.26 1539.43 Q1349.62 1532.24 1354.43 1524.72 L1359.52 1524.72 Z" fill="#000000" fill-rule="nonzero" fill-opacity="1" /><path clip-path="url(#clip940)" d="M1371.14 1526.67 L1377.56 1526.67 L1377.56 1546.75 L1398.89 1526.67 L1407.17 1526.67 L1383.58 1548.82 L1408.85 1574.19 L1400.39 1574.19 L1377.56 1551.3 L1377.56 1574.19 L1371.14 1574.19 L1371.14 1526.67 Z" fill="#000000" fill-rule="nonzero" fill-opacity="1" /><path clip-path="url(#clip940)" d="M1413.88 1526.67 L1423.46 1526.67 L1435.59 1559 L1447.78 1526.67 L1457.36 1526.67 L1457.36 1574.19 L1451.09 1574.19 L1451.09 1532.46 L1438.83 1565.05 L1432.37 1565.05 L1420.12 1532.46 L1420.12 1574.19 L1413.88 1574.19 L1413.88 1526.67 Z" fill="#000000" fill-rule="nonzero" fill-opacity="1" /><path clip-path="url(#clip940)" d="M1468.94 1524.72 L1474.04 1524.72 Q1478.81 1532.24 1481.17 1539.43 Q1483.55 1546.62 1483.55 1553.72 Q1483.55 1560.85 1481.17 1568.07 Q1478.81 1575.3 1474.04 1582.78 L1468.94 1582.78 Q1473.18 1575.49 1475.25 1568.3 Q1477.35 1561.07 1477.35 1553.72 Q1477.35 1546.37 1475.25 1539.21 Q1473.18 1532.04 1468.94 1524.72 Z" fill="#000000" fill-rule="nonzero" fill-opacity="1" /><polyline clip-path="url(#clip940)" style="stroke:#000000; stroke-linecap:round; stroke-linejoin:round; stroke-width:4; stroke-opacity:1; fill:none" points="406.671,1410.9 406.671,123.472 "/>
<polyline clip-path="url(#clip940)" style="stroke:#000000; stroke-linecap:round; stroke-linejoin:round; stroke-width:4; stroke-opacity:1; fill:none" points="406.671,1262.86 425.568,1262.86 "/>
<polyline clip-path="url(#clip940)" style="stroke:#000000; stroke-linecap:round; stroke-linejoin:round; stroke-width:4; stroke-opacity:1; fill:none" points="406.671,1098.44 425.568,1098.44 "/>
<polyline clip-path="url(#clip940)" style="stroke:#000000; stroke-linecap:round; stroke-linejoin:round; stroke-width:4; stroke-opacity:1; fill:none" points="406.671,934.012 425.568,934.012 "/>
<polyline clip-path="url(#clip940)" style="stroke:#000000; stroke-linecap:round; stroke-linejoin:round; stroke-width:4; stroke-opacity:1; fill:none" points="406.671,769.588 425.568,769.588 "/>
<polyline clip-path="url(#clip940)" style="stroke:#000000; stroke-linecap:round; stroke-linejoin:round; stroke-width:4; stroke-opacity:1; fill:none" points="406.671,605.164 425.568,605.164 "/>
<polyline clip-path="url(#clip940)" style="stroke:#000000; stroke-linecap:round; stroke-linejoin:round; stroke-width:4; stroke-opacity:1; fill:none" points="406.671,440.74 425.568,440.74 "/>
<polyline clip-path="url(#clip940)" style="stroke:#000000; stroke-linecap:round; stroke-linejoin:round; stroke-width:4; stroke-opacity:1; fill:none" points="406.671,276.316 425.568,276.316 "/>
<path clip-path="url(#clip940)" d="M114.26 1269.76 L143.936 1269.76 L143.936 1273.69 L114.26 1273.69 L114.26 1269.76 Z" fill="#000000" fill-rule="nonzero" fill-opacity="1" /><path clip-path="url(#clip940)" d="M152.848 1252.03 L175.07 1252.03 L175.07 1254.02 L162.524 1286.59 L157.64 1286.59 L169.445 1255.96 L152.848 1255.96 L152.848 1252.03 Z" fill="#000000" fill-rule="nonzero" fill-opacity="1" /><path clip-path="url(#clip940)" d="M184.19 1280.71 L189.075 1280.71 L189.075 1286.59 L184.19 1286.59 L184.19 1280.71 Z" fill="#000000" fill-rule="nonzero" fill-opacity="1" /><path clip-path="url(#clip940)" d="M199.306 1252.03 L217.662 1252.03 L217.662 1255.96 L203.588 1255.96 L203.588 1264.43 Q204.607 1264.09 205.625 1263.93 Q206.644 1263.74 207.662 1263.74 Q213.449 1263.74 216.829 1266.91 Q220.209 1270.08 220.209 1275.5 Q220.209 1281.08 216.736 1284.18 Q213.264 1287.26 206.945 1287.26 Q204.769 1287.26 202.5 1286.89 Q200.255 1286.52 197.848 1285.78 L197.848 1281.08 Q199.931 1282.21 202.153 1282.77 Q204.375 1283.32 206.852 1283.32 Q210.857 1283.32 213.195 1281.22 Q215.533 1279.11 215.533 1275.5 Q215.533 1271.89 213.195 1269.78 Q210.857 1267.68 206.852 1267.68 Q204.977 1267.68 203.102 1268.09 Q201.25 1268.51 199.306 1269.39 L199.306 1252.03 Z" fill="#000000" fill-rule="nonzero" fill-opacity="1" /><path clip-path="url(#clip940)" d="M239.422 1255.11 Q235.81 1255.11 233.982 1258.67 Q232.176 1262.21 232.176 1269.34 Q232.176 1276.45 233.982 1280.01 Q235.81 1283.55 239.422 1283.55 Q243.056 1283.55 244.861 1280.01 Q246.69 1276.45 246.69 1269.34 Q246.69 1262.21 244.861 1258.67 Q243.056 1255.11 239.422 1255.11 M239.422 1251.4 Q245.232 1251.4 248.287 1256.01 Q251.366 1260.59 251.366 1269.34 Q251.366 1278.07 248.287 1282.68 Q245.232 1287.26 239.422 1287.26 Q233.611 1287.26 230.533 1282.68 Q227.477 1278.07 227.477 1269.34 Q227.477 1260.59 230.533 1256.01 Q233.611 1251.4 239.422 1251.4 Z" fill="#000000" fill-rule="nonzero" fill-opacity="1" /><path clip-path="url(#clip940)" d="M287.755 1261.12 L277.176 1271.75 L287.755 1282.33 L285 1285.13 L274.375 1274.5 L263.75 1285.13 L261.019 1282.33 L271.574 1271.75 L261.019 1261.12 L263.75 1258.32 L274.375 1268.95 L285 1258.32 L287.755 1261.12 Z" fill="#000000" fill-rule="nonzero" fill-opacity="1" /><path clip-path="url(#clip940)" d="M300.116 1282.65 L307.754 1282.65 L307.754 1256.29 L299.444 1257.95 L299.444 1253.69 L307.708 1252.03 L312.384 1252.03 L312.384 1282.65 L320.023 1282.65 L320.023 1286.59 L300.116 1286.59 L300.116 1282.65 Z" fill="#000000" fill-rule="nonzero" fill-opacity="1" /><path clip-path="url(#clip940)" d="M339.467 1255.11 Q335.856 1255.11 334.027 1258.67 Q332.222 1262.21 332.222 1269.34 Q332.222 1276.45 334.027 1280.01 Q335.856 1283.55 339.467 1283.55 Q343.102 1283.55 344.907 1280.01 Q346.736 1276.45 346.736 1269.34 Q346.736 1262.21 344.907 1258.67 Q343.102 1255.11 339.467 1255.11 M339.467 1251.4 Q345.277 1251.4 348.333 1256.01 Q351.412 1260.59 351.412 1269.34 Q351.412 1278.07 348.333 1282.68 Q345.277 1287.26 339.467 1287.26 Q333.657 1287.26 330.578 1282.68 Q327.523 1278.07 327.523 1269.34 Q327.523 1260.59 330.578 1256.01 Q333.657 1251.4 339.467 1251.4 Z" fill="#000000" fill-rule="nonzero" fill-opacity="1" /><path clip-path="url(#clip940)" d="M361.041 1245.84 Q358.333 1245.84 356.772 1247.29 Q355.23 1248.74 355.23 1251.28 Q355.23 1253.82 356.772 1255.26 Q358.333 1256.71 361.041 1256.71 Q363.75 1256.71 365.311 1255.26 Q366.872 1253.8 366.872 1251.28 Q366.872 1248.74 365.311 1247.29 Q363.768 1245.84 361.041 1245.84 M357.242 1244.22 Q354.797 1243.62 353.424 1241.95 Q352.07 1240.27 352.07 1237.87 Q352.07 1234.5 354.459 1232.54 Q356.866 1230.59 361.041 1230.59 Q365.235 1230.59 367.624 1232.54 Q370.013 1234.5 370.013 1237.87 Q370.013 1240.27 368.64 1241.95 Q367.285 1243.62 364.859 1244.22 Q367.605 1244.86 369.129 1246.73 Q370.671 1248.59 370.671 1251.28 Q370.671 1255.36 368.169 1257.54 Q365.687 1259.72 361.041 1259.72 Q356.396 1259.72 353.894 1257.54 Q351.412 1255.36 351.412 1251.28 Q351.412 1248.59 352.954 1246.73 Q354.496 1244.86 357.242 1244.22 M355.85 1238.22 Q355.85 1240.41 357.204 1241.63 Q358.577 1242.85 361.041 1242.85 Q363.486 1242.85 364.859 1241.63 Q366.251 1240.41 366.251 1238.22 Q366.251 1236.04 364.859 1234.82 Q363.486 1233.6 361.041 1233.6 Q358.577 1233.6 357.204 1234.82 Q355.85 1236.04 355.85 1238.22 Z" fill="#000000" fill-rule="nonzero" fill-opacity="1" /><path clip-path="url(#clip940)" d="M114.26 1105.33 L143.936 1105.33 L143.936 1109.27 L114.26 1109.27 L114.26 1105.33 Z" fill="#000000" fill-rule="nonzero" fill-opacity="1" /><path clip-path="url(#clip940)" d="M154.075 1087.6 L172.431 1087.6 L172.431 1091.54 L158.357 1091.54 L158.357 1100.01 Q159.376 1099.66 160.394 1099.5 Q161.413 1099.32 162.431 1099.32 Q168.218 1099.32 171.598 1102.49 Q174.977 1105.66 174.977 1111.08 Q174.977 1116.65 171.505 1119.76 Q168.033 1122.83 161.714 1122.83 Q159.538 1122.83 157.269 1122.46 Q155.024 1122.09 152.616 1121.35 L152.616 1116.65 Q154.7 1117.79 156.922 1118.34 Q159.144 1118.9 161.621 1118.9 Q165.626 1118.9 167.964 1116.79 Q170.302 1114.69 170.302 1111.08 Q170.302 1107.46 167.964 1105.36 Q165.626 1103.25 161.621 1103.25 Q159.746 1103.25 157.871 1103.67 Q156.019 1104.08 154.075 1104.96 L154.075 1087.6 Z" fill="#000000" fill-rule="nonzero" fill-opacity="1" /><path clip-path="url(#clip940)" d="M184.19 1116.28 L189.075 1116.28 L189.075 1122.16 L184.19 1122.16 L184.19 1116.28 Z" fill="#000000" fill-rule="nonzero" fill-opacity="1" /><path clip-path="url(#clip940)" d="M209.26 1090.68 Q205.649 1090.68 203.82 1094.25 Q202.014 1097.79 202.014 1104.92 Q202.014 1112.02 203.82 1115.59 Q205.649 1119.13 209.26 1119.13 Q212.894 1119.13 214.699 1115.59 Q216.528 1112.02 216.528 1104.92 Q216.528 1097.79 214.699 1094.25 Q212.894 1090.68 209.26 1090.68 M209.26 1086.98 Q215.07 1086.98 218.125 1091.58 Q221.204 1096.17 221.204 1104.92 Q221.204 1113.64 218.125 1118.25 Q215.07 1122.83 209.26 1122.83 Q203.449 1122.83 200.371 1118.25 Q197.315 1113.64 197.315 1104.92 Q197.315 1096.17 200.371 1091.58 Q203.449 1086.98 209.26 1086.98 Z" fill="#000000" fill-rule="nonzero" fill-opacity="1" /><path clip-path="url(#clip940)" d="M239.422 1090.68 Q235.81 1090.68 233.982 1094.25 Q232.176 1097.79 232.176 1104.92 Q232.176 1112.02 233.982 1115.59 Q235.81 1119.13 239.422 1119.13 Q243.056 1119.13 244.861 1115.59 Q246.69 1112.02 246.69 1104.92 Q246.69 1097.79 244.861 1094.25 Q243.056 1090.68 239.422 1090.68 M239.422 1086.98 Q245.232 1086.98 248.287 1091.58 Q251.366 1096.17 251.366 1104.92 Q251.366 1113.64 248.287 1118.25 Q245.232 1122.83 239.422 1122.83 Q233.611 1122.83 230.533 1118.25 Q227.477 1113.64 227.477 1104.92 Q227.477 1096.17 230.533 1091.58 Q233.611 1086.98 239.422 1086.98 Z" fill="#000000" fill-rule="nonzero" fill-opacity="1" /><path clip-path="url(#clip940)" d="M287.755 1096.7 L277.176 1107.33 L287.755 1117.9 L285 1120.7 L274.375 1110.08 L263.75 1120.7 L261.019 1117.9 L271.574 1107.33 L261.019 1096.7 L263.75 1093.9 L274.375 1104.52 L285 1093.9 L287.755 1096.7 Z" fill="#000000" fill-rule="nonzero" fill-opacity="1" /><path clip-path="url(#clip940)" d="M300.116 1118.23 L307.754 1118.23 L307.754 1091.86 L299.444 1093.53 L299.444 1089.27 L307.708 1087.6 L312.384 1087.6 L312.384 1118.23 L320.023 1118.23 L320.023 1122.16 L300.116 1122.16 L300.116 1118.23 Z" fill="#000000" fill-rule="nonzero" fill-opacity="1" /><path clip-path="url(#clip940)" d="M339.467 1090.68 Q335.856 1090.68 334.027 1094.25 Q332.222 1097.79 332.222 1104.92 Q332.222 1112.02 334.027 1115.59 Q335.856 1119.13 339.467 1119.13 Q343.102 1119.13 344.907 1115.59 Q346.736 1112.02 346.736 1104.92 Q346.736 1097.79 344.907 1094.25 Q343.102 1090.68 339.467 1090.68 M339.467 1086.98 Q345.277 1086.98 348.333 1091.58 Q351.412 1096.17 351.412 1104.92 Q351.412 1113.64 348.333 1118.25 Q345.277 1122.83 339.467 1122.83 Q333.657 1122.83 330.578 1118.25 Q327.523 1113.64 327.523 1104.92 Q327.523 1096.17 330.578 1091.58 Q333.657 1086.98 339.467 1086.98 Z" fill="#000000" fill-rule="nonzero" fill-opacity="1" /><path clip-path="url(#clip940)" d="M361.041 1081.42 Q358.333 1081.42 356.772 1082.87 Q355.23 1084.31 355.23 1086.85 Q355.23 1089.39 356.772 1090.84 Q358.333 1092.29 361.041 1092.29 Q363.75 1092.29 365.311 1090.84 Q366.872 1089.37 366.872 1086.85 Q366.872 1084.31 365.311 1082.87 Q363.768 1081.42 361.041 1081.42 M357.242 1079.8 Q354.797 1079.2 353.424 1077.52 Q352.07 1075.85 352.07 1073.44 Q352.07 1070.08 354.459 1068.12 Q356.866 1066.17 361.041 1066.17 Q365.235 1066.17 367.624 1068.12 Q370.013 1070.08 370.013 1073.44 Q370.013 1075.85 368.64 1077.52 Q367.285 1079.2 364.859 1079.8 Q367.605 1080.44 369.129 1082.3 Q370.671 1084.16 370.671 1086.85 Q370.671 1090.93 368.169 1093.12 Q365.687 1095.3 361.041 1095.3 Q356.396 1095.3 353.894 1093.12 Q351.412 1090.93 351.412 1086.85 Q351.412 1084.16 352.954 1082.3 Q354.496 1080.44 357.242 1079.8 M355.85 1073.8 Q355.85 1075.98 357.204 1077.21 Q358.577 1078.43 361.041 1078.43 Q363.486 1078.43 364.859 1077.21 Q366.251 1075.98 366.251 1073.8 Q366.251 1071.62 364.859 1070.4 Q363.486 1069.17 361.041 1069.17 Q358.577 1069.17 357.204 1070.4 Q355.85 1071.62 355.85 1073.8 Z" fill="#000000" fill-rule="nonzero" fill-opacity="1" /><path clip-path="url(#clip940)" d="M114.26 940.911 L143.936 940.911 L143.936 944.846 L114.26 944.846 L114.26 940.911 Z" fill="#000000" fill-rule="nonzero" fill-opacity="1" /><path clip-path="url(#clip940)" d="M158.056 953.804 L174.376 953.804 L174.376 957.739 L152.431 957.739 L152.431 953.804 Q155.093 951.05 159.677 946.42 Q164.283 941.767 165.464 940.425 Q167.709 937.901 168.589 936.165 Q169.491 934.406 169.491 932.716 Q169.491 929.962 167.547 928.226 Q165.626 926.489 162.524 926.489 Q160.325 926.489 157.871 927.253 Q155.44 928.017 152.663 929.568 L152.663 924.846 Q155.487 923.712 157.94 923.133 Q160.394 922.554 162.431 922.554 Q167.802 922.554 170.996 925.239 Q174.19 927.925 174.19 932.415 Q174.19 934.545 173.38 936.466 Q172.593 938.364 170.487 940.957 Q169.908 941.628 166.806 944.846 Q163.704 948.04 158.056 953.804 Z" fill="#000000" fill-rule="nonzero" fill-opacity="1" /><path clip-path="url(#clip940)" d="M184.19 951.86 L189.075 951.86 L189.075 957.739 L184.19 957.739 L184.19 951.86 Z" fill="#000000" fill-rule="nonzero" fill-opacity="1" /><path clip-path="url(#clip940)" d="M199.306 923.179 L217.662 923.179 L217.662 927.114 L203.588 927.114 L203.588 935.587 Q204.607 935.239 205.625 935.077 Q206.644 934.892 207.662 934.892 Q213.449 934.892 216.829 938.063 Q220.209 941.235 220.209 946.651 Q220.209 952.23 216.736 955.332 Q213.264 958.411 206.945 958.411 Q204.769 958.411 202.5 958.04 Q200.255 957.67 197.848 956.929 L197.848 952.23 Q199.931 953.364 202.153 953.92 Q204.375 954.475 206.852 954.475 Q210.857 954.475 213.195 952.369 Q215.533 950.262 215.533 946.651 Q215.533 943.04 213.195 940.934 Q210.857 938.827 206.852 938.827 Q204.977 938.827 203.102 939.244 Q201.25 939.661 199.306 940.54 L199.306 923.179 Z" fill="#000000" fill-rule="nonzero" fill-opacity="1" /><path clip-path="url(#clip940)" d="M239.422 926.258 Q235.81 926.258 233.982 929.823 Q232.176 933.364 232.176 940.494 Q232.176 947.6 233.982 951.165 Q235.81 954.707 239.422 954.707 Q243.056 954.707 244.861 951.165 Q246.69 947.6 246.69 940.494 Q246.69 933.364 244.861 929.823 Q243.056 926.258 239.422 926.258 M239.422 922.554 Q245.232 922.554 248.287 927.161 Q251.366 931.744 251.366 940.494 Q251.366 949.221 248.287 953.827 Q245.232 958.411 239.422 958.411 Q233.611 958.411 230.533 953.827 Q227.477 949.221 227.477 940.494 Q227.477 931.744 230.533 927.161 Q233.611 922.554 239.422 922.554 Z" fill="#000000" fill-rule="nonzero" fill-opacity="1" /><path clip-path="url(#clip940)" d="M287.755 932.276 L277.176 942.901 L287.755 953.48 L285 956.281 L274.375 945.656 L263.75 956.281 L261.019 953.48 L271.574 942.901 L261.019 932.276 L263.75 929.476 L274.375 940.101 L285 929.476 L287.755 932.276 Z" fill="#000000" fill-rule="nonzero" fill-opacity="1" /><path clip-path="url(#clip940)" d="M300.116 953.804 L307.754 953.804 L307.754 927.439 L299.444 929.105 L299.444 924.846 L307.708 923.179 L312.384 923.179 L312.384 953.804 L320.023 953.804 L320.023 957.739 L300.116 957.739 L300.116 953.804 Z" fill="#000000" fill-rule="nonzero" fill-opacity="1" /><path clip-path="url(#clip940)" d="M339.467 926.258 Q335.856 926.258 334.027 929.823 Q332.222 933.364 332.222 940.494 Q332.222 947.6 334.027 951.165 Q335.856 954.707 339.467 954.707 Q343.102 954.707 344.907 951.165 Q346.736 947.6 346.736 940.494 Q346.736 933.364 344.907 929.823 Q343.102 926.258 339.467 926.258 M339.467 922.554 Q345.277 922.554 348.333 927.161 Q351.412 931.744 351.412 940.494 Q351.412 949.221 348.333 953.827 Q345.277 958.411 339.467 958.411 Q333.657 958.411 330.578 953.827 Q327.523 949.221 327.523 940.494 Q327.523 931.744 330.578 927.161 Q333.657 922.554 339.467 922.554 Z" fill="#000000" fill-rule="nonzero" fill-opacity="1" /><path clip-path="url(#clip940)" d="M361.041 916.994 Q358.333 916.994 356.772 918.442 Q355.23 919.891 355.23 922.43 Q355.23 924.969 356.772 926.417 Q358.333 927.865 361.041 927.865 Q363.75 927.865 365.311 926.417 Q366.872 924.95 366.872 922.43 Q366.872 919.891 365.311 918.442 Q363.768 916.994 361.041 916.994 M357.242 915.377 Q354.797 914.775 353.424 913.101 Q352.07 911.427 352.07 909.02 Q352.07 905.653 354.459 903.697 Q356.866 901.741 361.041 901.741 Q365.235 901.741 367.624 903.697 Q370.013 905.653 370.013 909.02 Q370.013 911.427 368.64 913.101 Q367.285 914.775 364.859 915.377 Q367.605 916.016 369.129 917.878 Q370.671 919.74 370.671 922.43 Q370.671 926.511 368.169 928.693 Q365.687 930.874 361.041 930.874 Q356.396 930.874 353.894 928.693 Q351.412 926.511 351.412 922.43 Q351.412 919.74 352.954 917.878 Q354.496 916.016 357.242 915.377 M355.85 909.377 Q355.85 911.559 357.204 912.781 Q358.577 914.004 361.041 914.004 Q363.486 914.004 364.859 912.781 Q366.251 911.559 366.251 909.377 Q366.251 907.195 364.859 905.973 Q363.486 904.75 361.041 904.75 Q358.577 904.75 357.204 905.973 Q355.85 907.195 355.85 909.377 Z" fill="#000000" fill-rule="nonzero" fill-opacity="1" /><path clip-path="url(#clip940)" d="M358.726 755.386 Q355.115 755.386 353.287 758.951 Q351.481 762.493 351.481 769.622 Q351.481 776.729 353.287 780.294 Q355.115 783.835 358.726 783.835 Q362.361 783.835 364.166 780.294 Q365.995 776.729 365.995 769.622 Q365.995 762.493 364.166 758.951 Q362.361 755.386 358.726 755.386 M358.726 751.683 Q364.537 751.683 367.592 756.289 Q370.671 760.873 370.671 769.622 Q370.671 778.349 367.592 782.956 Q364.537 787.539 358.726 787.539 Q352.916 787.539 349.838 782.956 Q346.782 778.349 346.782 769.622 Q346.782 760.873 349.838 756.289 Q352.916 751.683 358.726 751.683 Z" fill="#000000" fill-rule="nonzero" fill-opacity="1" /><path clip-path="url(#clip940)" d="M158.056 624.956 L174.376 624.956 L174.376 628.891 L152.431 628.891 L152.431 624.956 Q155.093 622.202 159.677 617.572 Q164.283 612.919 165.464 611.577 Q167.709 609.054 168.589 607.317 Q169.491 605.558 169.491 603.868 Q169.491 601.114 167.547 599.378 Q165.626 597.642 162.524 597.642 Q160.325 597.642 157.871 598.405 Q155.44 599.169 152.663 600.72 L152.663 595.998 Q155.487 594.864 157.94 594.285 Q160.394 593.706 162.431 593.706 Q167.802 593.706 170.996 596.392 Q174.19 599.077 174.19 603.567 Q174.19 605.697 173.38 607.618 Q172.593 609.517 170.487 612.109 Q169.908 612.78 166.806 615.998 Q163.704 619.192 158.056 624.956 Z" fill="#000000" fill-rule="nonzero" fill-opacity="1" /><path clip-path="url(#clip940)" d="M184.19 623.012 L189.075 623.012 L189.075 628.891 L184.19 628.891 L184.19 623.012 Z" fill="#000000" fill-rule="nonzero" fill-opacity="1" /><path clip-path="url(#clip940)" d="M199.306 594.331 L217.662 594.331 L217.662 598.267 L203.588 598.267 L203.588 606.739 Q204.607 606.392 205.625 606.23 Q206.644 606.044 207.662 606.044 Q213.449 606.044 216.829 609.216 Q220.209 612.387 220.209 617.804 Q220.209 623.382 216.736 626.484 Q213.264 629.563 206.945 629.563 Q204.769 629.563 202.5 629.192 Q200.255 628.822 197.848 628.081 L197.848 623.382 Q199.931 624.516 202.153 625.072 Q204.375 625.628 206.852 625.628 Q210.857 625.628 213.195 623.521 Q215.533 621.415 215.533 617.804 Q215.533 614.192 213.195 612.086 Q210.857 609.979 206.852 609.979 Q204.977 609.979 203.102 610.396 Q201.25 610.813 199.306 611.692 L199.306 594.331 Z" fill="#000000" fill-rule="nonzero" fill-opacity="1" /><path clip-path="url(#clip940)" d="M239.422 597.41 Q235.81 597.41 233.982 600.975 Q232.176 604.517 232.176 611.646 Q232.176 618.753 233.982 622.317 Q235.81 625.859 239.422 625.859 Q243.056 625.859 244.861 622.317 Q246.69 618.753 246.69 611.646 Q246.69 604.517 244.861 600.975 Q243.056 597.41 239.422 597.41 M239.422 593.706 Q245.232 593.706 248.287 598.313 Q251.366 602.896 251.366 611.646 Q251.366 620.373 248.287 624.979 Q245.232 629.563 239.422 629.563 Q233.611 629.563 230.533 624.979 Q227.477 620.373 227.477 611.646 Q227.477 602.896 230.533 598.313 Q233.611 593.706 239.422 593.706 Z" fill="#000000" fill-rule="nonzero" fill-opacity="1" /><path clip-path="url(#clip940)" d="M287.755 603.429 L277.176 614.054 L287.755 624.632 L285 627.433 L274.375 616.808 L263.75 627.433 L261.019 624.632 L271.574 614.054 L261.019 603.429 L263.75 600.628 L274.375 611.253 L285 600.628 L287.755 603.429 Z" fill="#000000" fill-rule="nonzero" fill-opacity="1" /><path clip-path="url(#clip940)" d="M300.116 624.956 L307.754 624.956 L307.754 598.591 L299.444 600.257 L299.444 595.998 L307.708 594.331 L312.384 594.331 L312.384 624.956 L320.023 624.956 L320.023 628.891 L300.116 628.891 L300.116 624.956 Z" fill="#000000" fill-rule="nonzero" fill-opacity="1" /><path clip-path="url(#clip940)" d="M339.467 597.41 Q335.856 597.41 334.027 600.975 Q332.222 604.517 332.222 611.646 Q332.222 618.753 334.027 622.317 Q335.856 625.859 339.467 625.859 Q343.102 625.859 344.907 622.317 Q346.736 618.753 346.736 611.646 Q346.736 604.517 344.907 600.975 Q343.102 597.41 339.467 597.41 M339.467 593.706 Q345.277 593.706 348.333 598.313 Q351.412 602.896 351.412 611.646 Q351.412 620.373 348.333 624.979 Q345.277 629.563 339.467 629.563 Q333.657 629.563 330.578 624.979 Q327.523 620.373 327.523 611.646 Q327.523 602.896 330.578 598.313 Q333.657 593.706 339.467 593.706 Z" fill="#000000" fill-rule="nonzero" fill-opacity="1" /><path clip-path="url(#clip940)" d="M361.041 588.146 Q358.333 588.146 356.772 589.595 Q355.23 591.043 355.23 593.582 Q355.23 596.121 356.772 597.569 Q358.333 599.017 361.041 599.017 Q363.75 599.017 365.311 597.569 Q366.872 596.102 366.872 593.582 Q366.872 591.043 365.311 589.595 Q363.768 588.146 361.041 588.146 M357.242 586.529 Q354.797 585.927 353.424 584.253 Q352.07 582.579 352.07 580.172 Q352.07 576.805 354.459 574.849 Q356.866 572.893 361.041 572.893 Q365.235 572.893 367.624 574.849 Q370.013 576.805 370.013 580.172 Q370.013 582.579 368.64 584.253 Q367.285 585.927 364.859 586.529 Q367.605 587.168 369.129 589.03 Q370.671 590.892 370.671 593.582 Q370.671 597.663 368.169 599.845 Q365.687 602.026 361.041 602.026 Q356.396 602.026 353.894 599.845 Q351.412 597.663 351.412 593.582 Q351.412 590.892 352.954 589.03 Q354.496 587.168 357.242 586.529 M355.85 580.529 Q355.85 582.711 357.204 583.933 Q358.577 585.156 361.041 585.156 Q363.486 585.156 364.859 583.933 Q366.251 582.711 366.251 580.529 Q366.251 578.347 364.859 577.125 Q363.486 575.902 361.041 575.902 Q358.577 575.902 357.204 577.125 Q355.85 578.347 355.85 580.529 Z" fill="#000000" fill-rule="nonzero" fill-opacity="1" /><path clip-path="url(#clip940)" d="M154.075 429.907 L172.431 429.907 L172.431 433.843 L158.357 433.843 L158.357 442.315 Q159.376 441.968 160.394 441.806 Q161.413 441.62 162.431 441.62 Q168.218 441.62 171.598 444.792 Q174.977 447.963 174.977 453.38 Q174.977 458.958 171.505 462.06 Q168.033 465.139 161.714 465.139 Q159.538 465.139 157.269 464.768 Q155.024 464.398 152.616 463.657 L152.616 458.958 Q154.7 460.093 156.922 460.648 Q159.144 461.204 161.621 461.204 Q165.626 461.204 167.964 459.097 Q170.302 456.991 170.302 453.38 Q170.302 449.768 167.964 447.662 Q165.626 445.556 161.621 445.556 Q159.746 445.556 157.871 445.972 Q156.019 446.389 154.075 447.269 L154.075 429.907 Z" fill="#000000" fill-rule="nonzero" fill-opacity="1" /><path clip-path="url(#clip940)" d="M184.19 458.588 L189.075 458.588 L189.075 464.467 L184.19 464.467 L184.19 458.588 Z" fill="#000000" fill-rule="nonzero" fill-opacity="1" /><path clip-path="url(#clip940)" d="M209.26 432.986 Q205.649 432.986 203.82 436.551 Q202.014 440.093 202.014 447.222 Q202.014 454.329 203.82 457.893 Q205.649 461.435 209.26 461.435 Q212.894 461.435 214.699 457.893 Q216.528 454.329 216.528 447.222 Q216.528 440.093 214.699 436.551 Q212.894 432.986 209.26 432.986 M209.26 429.282 Q215.07 429.282 218.125 433.889 Q221.204 438.472 221.204 447.222 Q221.204 455.949 218.125 460.555 Q215.07 465.139 209.26 465.139 Q203.449 465.139 200.371 460.555 Q197.315 455.949 197.315 447.222 Q197.315 438.472 200.371 433.889 Q203.449 429.282 209.26 429.282 Z" fill="#000000" fill-rule="nonzero" fill-opacity="1" /><path clip-path="url(#clip940)" d="M239.422 432.986 Q235.81 432.986 233.982 436.551 Q232.176 440.093 232.176 447.222 Q232.176 454.329 233.982 457.893 Q235.81 461.435 239.422 461.435 Q243.056 461.435 244.861 457.893 Q246.69 454.329 246.69 447.222 Q246.69 440.093 244.861 436.551 Q243.056 432.986 239.422 432.986 M239.422 429.282 Q245.232 429.282 248.287 433.889 Q251.366 438.472 251.366 447.222 Q251.366 455.949 248.287 460.555 Q245.232 465.139 239.422 465.139 Q233.611 465.139 230.533 460.555 Q227.477 455.949 227.477 447.222 Q227.477 438.472 230.533 433.889 Q233.611 429.282 239.422 429.282 Z" fill="#000000" fill-rule="nonzero" fill-opacity="1" /><path clip-path="url(#clip940)" d="M287.755 439.005 L277.176 449.63 L287.755 460.208 L285 463.009 L274.375 452.384 L263.75 463.009 L261.019 460.208 L271.574 449.63 L261.019 439.005 L263.75 436.204 L274.375 446.829 L285 436.204 L287.755 439.005 Z" fill="#000000" fill-rule="nonzero" fill-opacity="1" /><path clip-path="url(#clip940)" d="M300.116 460.532 L307.754 460.532 L307.754 434.167 L299.444 435.833 L299.444 431.574 L307.708 429.907 L312.384 429.907 L312.384 460.532 L320.023 460.532 L320.023 464.467 L300.116 464.467 L300.116 460.532 Z" fill="#000000" fill-rule="nonzero" fill-opacity="1" /><path clip-path="url(#clip940)" d="M339.467 432.986 Q335.856 432.986 334.027 436.551 Q332.222 440.093 332.222 447.222 Q332.222 454.329 334.027 457.893 Q335.856 461.435 339.467 461.435 Q343.102 461.435 344.907 457.893 Q346.736 454.329 346.736 447.222 Q346.736 440.093 344.907 436.551 Q343.102 432.986 339.467 432.986 M339.467 429.282 Q345.277 429.282 348.333 433.889 Q351.412 438.472 351.412 447.222 Q351.412 455.949 348.333 460.555 Q345.277 465.139 339.467 465.139 Q333.657 465.139 330.578 460.555 Q327.523 455.949 327.523 447.222 Q327.523 438.472 330.578 433.889 Q333.657 429.282 339.467 429.282 Z" fill="#000000" fill-rule="nonzero" fill-opacity="1" /><path clip-path="url(#clip940)" d="M361.041 423.722 Q358.333 423.722 356.772 425.171 Q355.23 426.619 355.23 429.158 Q355.23 431.697 356.772 433.145 Q358.333 434.593 361.041 434.593 Q363.75 434.593 365.311 433.145 Q366.872 431.678 366.872 429.158 Q366.872 426.619 365.311 425.171 Q363.768 423.722 361.041 423.722 M357.242 422.105 Q354.797 421.503 353.424 419.829 Q352.07 418.155 352.07 415.748 Q352.07 412.381 354.459 410.425 Q356.866 408.469 361.041 408.469 Q365.235 408.469 367.624 410.425 Q370.013 412.381 370.013 415.748 Q370.013 418.155 368.64 419.829 Q367.285 421.503 364.859 422.105 Q367.605 422.744 369.129 424.606 Q370.671 426.468 370.671 429.158 Q370.671 433.239 368.169 435.421 Q365.687 437.603 361.041 437.603 Q356.396 437.603 353.894 435.421 Q351.412 433.239 351.412 429.158 Q351.412 426.468 352.954 424.606 Q354.496 422.744 357.242 422.105 M355.85 416.105 Q355.85 418.287 357.204 419.509 Q358.577 420.732 361.041 420.732 Q363.486 420.732 364.859 419.509 Q366.251 418.287 366.251 416.105 Q366.251 413.924 364.859 412.701 Q363.486 411.479 361.041 411.479 Q358.577 411.479 357.204 412.701 Q355.85 413.924 355.85 416.105 Z" fill="#000000" fill-rule="nonzero" fill-opacity="1" /><path clip-path="url(#clip940)" d="M152.848 265.484 L175.07 265.484 L175.07 267.474 L162.524 300.044 L157.64 300.044 L169.445 269.419 L152.848 269.419 L152.848 265.484 Z" fill="#000000" fill-rule="nonzero" fill-opacity="1" /><path clip-path="url(#clip940)" d="M184.19 294.164 L189.075 294.164 L189.075 300.044 L184.19 300.044 L184.19 294.164 Z" fill="#000000" fill-rule="nonzero" fill-opacity="1" /><path clip-path="url(#clip940)" d="M199.306 265.484 L217.662 265.484 L217.662 269.419 L203.588 269.419 L203.588 277.891 Q204.607 277.544 205.625 277.382 Q206.644 277.196 207.662 277.196 Q213.449 277.196 216.829 280.368 Q220.209 283.539 220.209 288.956 Q220.209 294.534 216.736 297.636 Q213.264 300.715 206.945 300.715 Q204.769 300.715 202.5 300.344 Q200.255 299.974 197.848 299.233 L197.848 294.534 Q199.931 295.669 202.153 296.224 Q204.375 296.78 206.852 296.78 Q210.857 296.78 213.195 294.673 Q215.533 292.567 215.533 288.956 Q215.533 285.345 213.195 283.238 Q210.857 281.132 206.852 281.132 Q204.977 281.132 203.102 281.548 Q201.25 281.965 199.306 282.845 L199.306 265.484 Z" fill="#000000" fill-rule="nonzero" fill-opacity="1" /><path clip-path="url(#clip940)" d="M239.422 268.562 Q235.81 268.562 233.982 272.127 Q232.176 275.669 232.176 282.798 Q232.176 289.905 233.982 293.47 Q235.81 297.011 239.422 297.011 Q243.056 297.011 244.861 293.47 Q246.69 289.905 246.69 282.798 Q246.69 275.669 244.861 272.127 Q243.056 268.562 239.422 268.562 M239.422 264.859 Q245.232 264.859 248.287 269.465 Q251.366 274.048 251.366 282.798 Q251.366 291.525 248.287 296.132 Q245.232 300.715 239.422 300.715 Q233.611 300.715 230.533 296.132 Q227.477 291.525 227.477 282.798 Q227.477 274.048 230.533 269.465 Q233.611 264.859 239.422 264.859 Z" fill="#000000" fill-rule="nonzero" fill-opacity="1" /><path clip-path="url(#clip940)" d="M287.755 274.581 L277.176 285.206 L287.755 295.784 L285 298.585 L274.375 287.96 L263.75 298.585 L261.019 295.784 L271.574 285.206 L261.019 274.581 L263.75 271.78 L274.375 282.405 L285 271.78 L287.755 274.581 Z" fill="#000000" fill-rule="nonzero" fill-opacity="1" /><path clip-path="url(#clip940)" d="M300.116 296.108 L307.754 296.108 L307.754 269.743 L299.444 271.409 L299.444 267.15 L307.708 265.484 L312.384 265.484 L312.384 296.108 L320.023 296.108 L320.023 300.044 L300.116 300.044 L300.116 296.108 Z" fill="#000000" fill-rule="nonzero" fill-opacity="1" /><path clip-path="url(#clip940)" d="M339.467 268.562 Q335.856 268.562 334.027 272.127 Q332.222 275.669 332.222 282.798 Q332.222 289.905 334.027 293.47 Q335.856 297.011 339.467 297.011 Q343.102 297.011 344.907 293.47 Q346.736 289.905 346.736 282.798 Q346.736 275.669 344.907 272.127 Q343.102 268.562 339.467 268.562 M339.467 264.859 Q345.277 264.859 348.333 269.465 Q351.412 274.048 351.412 282.798 Q351.412 291.525 348.333 296.132 Q345.277 300.715 339.467 300.715 Q333.657 300.715 330.578 296.132 Q327.523 291.525 327.523 282.798 Q327.523 274.048 330.578 269.465 Q333.657 264.859 339.467 264.859 Z" fill="#000000" fill-rule="nonzero" fill-opacity="1" /><path clip-path="url(#clip940)" d="M361.041 259.298 Q358.333 259.298 356.772 260.747 Q355.23 262.195 355.23 264.734 Q355.23 267.273 356.772 268.721 Q358.333 270.169 361.041 270.169 Q363.75 270.169 365.311 268.721 Q366.872 267.254 366.872 264.734 Q366.872 262.195 365.311 260.747 Q363.768 259.298 361.041 259.298 M357.242 257.681 Q354.797 257.079 353.424 255.405 Q352.07 253.731 352.07 251.324 Q352.07 247.957 354.459 246.001 Q356.866 244.045 361.041 244.045 Q365.235 244.045 367.624 246.001 Q370.013 247.957 370.013 251.324 Q370.013 253.731 368.64 255.405 Q367.285 257.079 364.859 257.681 Q367.605 258.32 369.129 260.182 Q370.671 262.044 370.671 264.734 Q370.671 268.815 368.169 270.997 Q365.687 273.179 361.041 273.179 Q356.396 273.179 353.894 270.997 Q351.412 268.815 351.412 264.734 Q351.412 262.044 352.954 260.182 Q354.496 258.32 357.242 257.681 M355.85 251.681 Q355.85 253.863 357.204 255.085 Q358.577 256.308 361.041 256.308 Q363.486 256.308 364.859 255.085 Q366.251 253.863 366.251 251.681 Q366.251 249.5 364.859 248.277 Q363.486 247.055 361.041 247.055 Q358.577 247.055 357.204 248.277 Q355.85 249.5 355.85 251.681 Z" fill="#000000" fill-rule="nonzero" fill-opacity="1" /><path clip-path="url(#clip940)" d="M16.4842 869.64 L16.4842 862.734 L36.0269 849.557 L16.4842 836.475 L16.4842 829.568 L41.3741 846.374 L64.0042 846.374 L64.0042 852.835 L41.3741 852.835 L16.4842 869.64 Z" fill="#000000" fill-rule="nonzero" fill-opacity="1" /><path clip-path="url(#clip940)" d="M14.5426 788.764 Q21.8632 793.029 29.0246 795.098 Q36.186 797.167 43.5384 797.167 Q50.8908 797.167 58.1159 795.098 Q65.3091 792.997 72.5979 788.764 L72.5979 793.857 Q65.1182 798.631 57.8931 801.018 Q50.668 803.373 43.5384 803.373 Q36.4406 803.373 29.2474 801.018 Q22.0542 798.663 14.5426 793.857 L14.5426 788.764 Z" fill="#000000" fill-rule="nonzero" fill-opacity="1" /><path clip-path="url(#clip940)" d="M16.4842 777.147 L16.4842 770.717 L36.568 770.717 L16.4842 749.392 L16.4842 741.117 L38.6368 764.702 L64.0042 739.43 L64.0042 747.896 L41.1194 770.717 L64.0042 770.717 L64.0042 777.147 L16.4842 777.147 Z" fill="#000000" fill-rule="nonzero" fill-opacity="1" /><path clip-path="url(#clip940)" d="M16.4842 734.401 L16.4842 724.821 L48.8219 712.694 L16.4842 700.504 L16.4842 690.923 L64.0042 690.923 L64.0042 697.193 L22.277 697.193 L54.8694 709.447 L54.8694 715.909 L22.277 728.163 L64.0042 728.163 L64.0042 734.401 L16.4842 734.401 Z" fill="#000000" fill-rule="nonzero" fill-opacity="1" /><path clip-path="url(#clip940)" d="M14.5426 679.338 L14.5426 674.245 Q22.0542 669.471 29.2474 667.115 Q36.4406 664.728 43.5384 664.728 Q50.668 664.728 57.8931 667.115 Q65.1182 669.471 72.5979 674.245 L72.5979 679.338 Q65.3091 675.104 58.1159 673.036 Q50.8908 670.935 43.5384 670.935 Q36.186 670.935 29.0246 673.036 Q21.8632 675.104 14.5426 679.338 Z" fill="#000000" fill-rule="nonzero" fill-opacity="1" /><path clip-path="url(#clip940)" d="M804.06 12.096 L842.3 12.096 L842.3 18.9825 L812.242 18.9825 L812.242 36.8875 L841.044 36.8875 L841.044 43.7741 L812.242 43.7741 L812.242 65.6895 L843.029 65.6895 L843.029 72.576 L804.06 72.576 L804.06 12.096 Z" fill="#000000" fill-rule="nonzero" fill-opacity="1" /><path clip-path="url(#clip940)" d="M876.773 49.7694 Q867.74 49.7694 864.256 51.8354 Q860.772 53.9013 860.772 58.8839 Q860.772 62.8538 863.365 65.2034 Q865.998 67.5124 870.494 67.5124 Q876.692 67.5124 880.419 63.1374 Q884.187 58.7219 884.187 51.4303 L884.187 49.7694 L876.773 49.7694 M891.64 46.6907 L891.64 72.576 L884.187 72.576 L884.187 65.6895 Q881.634 69.8214 877.827 71.8063 Q874.019 73.7508 868.51 73.7508 Q861.542 73.7508 857.41 69.8619 Q853.319 65.9325 853.319 59.3701 Q853.319 51.7138 858.423 47.825 Q863.567 43.9361 873.735 43.9361 L884.187 43.9361 L884.187 43.2069 Q884.187 38.0623 880.784 35.2672 Q877.421 32.4315 871.305 32.4315 Q867.416 32.4315 863.729 33.3632 Q860.043 34.295 856.64 36.1584 L856.64 29.2718 Q860.732 27.692 864.58 26.9223 Q868.428 26.1121 872.074 26.1121 Q881.918 26.1121 886.779 31.2163 Q891.64 36.3204 891.64 46.6907 Z" fill="#000000" fill-rule="nonzero" fill-opacity="1" /><path clip-path="url(#clip940)" d="M933.283 34.1734 Q932.028 33.4443 930.529 33.1202 Q929.071 32.7556 927.288 32.7556 Q920.969 32.7556 917.566 36.8875 Q914.204 40.9789 914.204 48.6757 L914.204 72.576 L906.71 72.576 L906.71 27.2059 L914.204 27.2059 L914.204 34.2544 Q916.553 30.1225 920.321 28.1376 Q924.088 26.1121 929.476 26.1121 Q930.245 26.1121 931.177 26.2337 Q932.109 26.3147 933.243 26.5172 L933.283 34.1734 Z" fill="#000000" fill-rule="nonzero" fill-opacity="1" /><path clip-path="url(#clip940)" d="M948.474 14.324 L948.474 27.2059 L963.827 27.2059 L963.827 32.9987 L948.474 32.9987 L948.474 57.6282 Q948.474 63.1779 949.973 64.7578 Q951.513 66.3376 956.171 66.3376 L963.827 66.3376 L963.827 72.576 L956.171 72.576 Q947.543 72.576 944.261 69.3758 Q940.98 66.1351 940.98 57.6282 L940.98 32.9987 L935.511 32.9987 L935.511 27.2059 L940.98 27.2059 L940.98 14.324 L948.474 14.324 Z" fill="#000000" fill-rule="nonzero" fill-opacity="1" /><path clip-path="url(#clip940)" d="M1011.34 45.1919 L1011.34 72.576 L1003.89 72.576 L1003.89 45.4349 Q1003.89 38.994 1001.38 35.7938 Q998.868 32.5936 993.844 32.5936 Q987.809 32.5936 984.325 36.4419 Q980.841 40.2903 980.841 46.9338 L980.841 72.576 L973.347 72.576 L973.347 9.54393 L980.841 9.54393 L980.841 34.2544 Q983.515 30.163 987.12 28.1376 Q990.766 26.1121 995.505 26.1121 Q1003.32 26.1121 1007.33 30.9732 Q1011.34 35.7938 1011.34 45.1919 Z" fill="#000000" fill-rule="nonzero" fill-opacity="1" /><path clip-path="url(#clip940)" d="M1033.26 12.096 L1033.26 34.5785 L1026.37 34.5785 L1026.37 12.096 L1033.26 12.096 Z" fill="#000000" fill-rule="nonzero" fill-opacity="1" /><path clip-path="url(#clip940)" d="M1077.94 28.5427 L1077.94 35.5912 Q1074.78 33.9709 1071.38 33.1607 Q1067.98 32.3505 1064.33 32.3505 Q1058.78 32.3505 1055.99 34.0519 Q1053.23 35.7533 1053.23 39.156 Q1053.23 41.7486 1055.22 43.2475 Q1057.2 44.7058 1063.2 46.0426 L1065.75 46.6097 Q1073.69 48.3111 1077.01 51.4303 Q1080.37 54.509 1080.37 60.0587 Q1080.37 66.3781 1075.35 70.0644 Q1070.37 73.7508 1061.62 73.7508 Q1057.97 73.7508 1054 73.0216 Q1050.07 72.3329 1045.7 70.9151 L1045.7 63.2184 Q1049.83 65.3654 1053.84 66.4591 Q1057.85 67.5124 1061.78 67.5124 Q1067.04 67.5124 1069.88 65.73 Q1072.72 63.9071 1072.72 60.6258 Q1072.72 57.5877 1070.65 55.9673 Q1068.62 54.3469 1061.7 52.8481 L1059.1 52.2405 Q1052.18 50.7821 1049.1 47.7845 Q1046.02 44.7463 1046.02 39.4801 Q1046.02 33.0797 1050.56 29.5959 Q1055.09 26.1121 1063.44 26.1121 Q1067.57 26.1121 1071.22 26.7198 Q1074.86 27.3274 1077.94 28.5427 Z" fill="#000000" fill-rule="nonzero" fill-opacity="1" /><path clip-path="url(#clip940)" d="M1127.12 18.8205 L1127.12 41.5461 L1137.41 41.5461 Q1143.12 41.5461 1146.24 38.5889 Q1149.36 35.6318 1149.36 30.163 Q1149.36 24.7348 1146.24 21.7777 Q1143.12 18.8205 1137.41 18.8205 L1127.12 18.8205 M1118.94 12.096 L1137.41 12.096 Q1147.58 12.096 1152.76 16.714 Q1157.99 21.2916 1157.99 30.163 Q1157.99 39.1155 1152.76 43.6931 Q1147.58 48.2706 1137.41 48.2706 L1127.12 48.2706 L1127.12 72.576 L1118.94 72.576 L1118.94 12.096 Z" fill="#000000" fill-rule="nonzero" fill-opacity="1" /><path clip-path="url(#clip940)" d="M1183.26 32.4315 Q1177.27 32.4315 1173.79 37.1306 Q1170.3 41.7891 1170.3 49.9314 Q1170.3 58.0738 1173.75 62.7728 Q1177.23 67.4314 1183.26 67.4314 Q1189.22 67.4314 1192.7 62.7323 Q1196.19 58.0333 1196.19 49.9314 Q1196.19 41.8701 1192.7 37.1711 Q1189.22 32.4315 1183.26 32.4315 M1183.26 26.1121 Q1192.99 26.1121 1198.54 32.4315 Q1204.09 38.7509 1204.09 49.9314 Q1204.09 61.0714 1198.54 67.4314 Q1192.99 73.7508 1183.26 73.7508 Q1173.5 73.7508 1167.95 67.4314 Q1162.44 61.0714 1162.44 49.9314 Q1162.44 38.7509 1167.95 32.4315 Q1173.5 26.1121 1183.26 26.1121 Z" fill="#000000" fill-rule="nonzero" fill-opacity="1" /><path clip-path="url(#clip940)" d="M1245.37 28.5427 L1245.37 35.5912 Q1242.21 33.9709 1238.8 33.1607 Q1235.4 32.3505 1231.75 32.3505 Q1226.2 32.3505 1223.41 34.0519 Q1220.65 35.7533 1220.65 39.156 Q1220.65 41.7486 1222.64 43.2475 Q1224.62 44.7058 1230.62 46.0426 L1233.17 46.6097 Q1241.11 48.3111 1244.43 51.4303 Q1247.8 54.509 1247.8 60.0587 Q1247.8 66.3781 1242.77 70.0644 Q1237.79 73.7508 1229.04 73.7508 Q1225.39 73.7508 1221.42 73.0216 Q1217.49 72.3329 1213.12 70.9151 L1213.12 63.2184 Q1217.25 65.3654 1221.26 66.4591 Q1225.27 67.5124 1229.2 67.5124 Q1234.47 67.5124 1237.3 65.73 Q1240.14 63.9071 1240.14 60.6258 Q1240.14 57.5877 1238.07 55.9673 Q1236.05 54.3469 1229.12 52.8481 L1226.53 52.2405 Q1219.6 50.7821 1216.52 47.7845 Q1213.44 44.7463 1213.44 39.4801 Q1213.44 33.0797 1217.98 29.5959 Q1222.52 26.1121 1230.86 26.1121 Q1234.99 26.1121 1238.64 26.7198 Q1242.29 27.3274 1245.37 28.5427 Z" fill="#000000" fill-rule="nonzero" fill-opacity="1" /><path clip-path="url(#clip940)" d="M1259.66 27.2059 L1267.12 27.2059 L1267.12 72.576 L1259.66 72.576 L1259.66 27.2059 M1259.66 9.54393 L1267.12 9.54393 L1267.12 18.9825 L1259.66 18.9825 L1259.66 9.54393 Z" fill="#000000" fill-rule="nonzero" fill-opacity="1" /><path clip-path="url(#clip940)" d="M1290.09 14.324 L1290.09 27.2059 L1305.44 27.2059 L1305.44 32.9987 L1290.09 32.9987 L1290.09 57.6282 Q1290.09 63.1779 1291.59 64.7578 Q1293.13 66.3376 1297.78 66.3376 L1305.44 66.3376 L1305.44 72.576 L1297.78 72.576 Q1289.16 72.576 1285.87 69.3758 Q1282.59 66.1351 1282.59 57.6282 L1282.59 32.9987 L1277.12 32.9987 L1277.12 27.2059 L1282.59 27.2059 L1282.59 14.324 L1290.09 14.324 Z" fill="#000000" fill-rule="nonzero" fill-opacity="1" /><path clip-path="url(#clip940)" d="M1315.24 27.2059 L1322.7 27.2059 L1322.7 72.576 L1315.24 72.576 L1315.24 27.2059 M1315.24 9.54393 L1322.7 9.54393 L1322.7 18.9825 L1315.24 18.9825 L1315.24 9.54393 Z" fill="#000000" fill-rule="nonzero" fill-opacity="1" /><path clip-path="url(#clip940)" d="M1355.87 32.4315 Q1349.88 32.4315 1346.39 37.1306 Q1342.91 41.7891 1342.91 49.9314 Q1342.91 58.0738 1346.35 62.7728 Q1349.84 67.4314 1355.87 67.4314 Q1361.83 67.4314 1365.31 62.7323 Q1368.8 58.0333 1368.8 49.9314 Q1368.8 41.8701 1365.31 37.1711 Q1361.83 32.4315 1355.87 32.4315 M1355.87 26.1121 Q1365.6 26.1121 1371.15 32.4315 Q1376.7 38.7509 1376.7 49.9314 Q1376.7 61.0714 1371.15 67.4314 Q1365.6 73.7508 1355.87 73.7508 Q1346.11 73.7508 1340.56 67.4314 Q1335.05 61.0714 1335.05 49.9314 Q1335.05 38.7509 1340.56 32.4315 Q1346.11 26.1121 1355.87 26.1121 Z" fill="#000000" fill-rule="nonzero" fill-opacity="1" /><path clip-path="url(#clip940)" d="M1426.76 45.1919 L1426.76 72.576 L1419.31 72.576 L1419.31 45.4349 Q1419.31 38.994 1416.8 35.7938 Q1414.29 32.5936 1409.26 32.5936 Q1403.23 32.5936 1399.75 36.4419 Q1396.26 40.2903 1396.26 46.9338 L1396.26 72.576 L1388.77 72.576 L1388.77 27.2059 L1396.26 27.2059 L1396.26 34.2544 Q1398.93 30.163 1402.54 28.1376 Q1406.19 26.1121 1410.93 26.1121 Q1418.74 26.1121 1422.75 30.9732 Q1426.76 35.7938 1426.76 45.1919 Z" fill="#000000" fill-rule="nonzero" fill-opacity="1" /><path clip-path="url(#clip940)" d="M1463.67 27.2059 L1471.12 27.2059 L1480.44 62.6108 L1489.72 27.2059 L1498.51 27.2059 L1507.82 62.6108 L1517.1 27.2059 L1524.55 27.2059 L1512.68 72.576 L1503.89 72.576 L1494.13 35.3887 L1484.33 72.576 L1475.54 72.576 L1463.67 27.2059 Z" fill="#000000" fill-rule="nonzero" fill-opacity="1" /><path clip-path="url(#clip940)" d="M1529.29 62.2867 L1537.84 62.2867 L1537.84 72.576 L1529.29 72.576 L1529.29 62.2867 Z" fill="#000000" fill-rule="nonzero" fill-opacity="1" /><path clip-path="url(#clip940)" d="M1580.9 34.1734 Q1579.65 33.4443 1578.15 33.1202 Q1576.69 32.7556 1574.91 32.7556 Q1568.59 32.7556 1565.18 36.8875 Q1561.82 40.9789 1561.82 48.6757 L1561.82 72.576 L1554.33 72.576 L1554.33 27.2059 L1561.82 27.2059 L1561.82 34.2544 Q1564.17 30.1225 1567.94 28.1376 Q1571.71 26.1121 1577.09 26.1121 Q1577.86 26.1121 1578.8 26.2337 Q1579.73 26.3147 1580.86 26.5172 L1580.9 34.1734 Z" fill="#000000" fill-rule="nonzero" fill-opacity="1" /><path clip-path="url(#clip940)" d="M1582.16 62.2867 L1590.7 62.2867 L1590.7 72.576 L1582.16 72.576 L1582.16 62.2867 Z" fill="#000000" fill-rule="nonzero" fill-opacity="1" /><path clip-path="url(#clip940)" d="M1614.85 14.324 L1614.85 27.2059 L1630.2 27.2059 L1630.2 32.9987 L1614.85 32.9987 L1614.85 57.6282 Q1614.85 63.1779 1616.35 64.7578 Q1617.89 66.3376 1622.54 66.3376 L1630.2 66.3376 L1630.2 72.576 L1622.54 72.576 Q1613.92 72.576 1610.64 69.3758 Q1607.35 66.1351 1607.35 57.6282 L1607.35 32.9987 L1601.89 32.9987 L1601.89 27.2059 L1607.35 27.2059 L1607.35 14.324 L1614.85 14.324 Z" fill="#000000" fill-rule="nonzero" fill-opacity="1" /><path clip-path="url(#clip940)" d="M1641.06 62.2867 L1649.6 62.2867 L1649.6 72.576 L1641.06 72.576 L1641.06 62.2867 Z" fill="#000000" fill-rule="nonzero" fill-opacity="1" /><path clip-path="url(#clip940)" d="M1693.07 12.096 L1701.25 12.096 L1701.25 68.3631 Q1701.25 79.3005 1697.08 84.2426 Q1692.95 89.1847 1683.75 89.1847 L1680.63 89.1847 L1680.63 82.2982 L1683.19 82.2982 Q1688.62 82.2982 1690.84 79.26 Q1693.07 76.2218 1693.07 68.3631 L1693.07 12.096 Z" fill="#000000" fill-rule="nonzero" fill-opacity="1" /><path clip-path="url(#clip940)" d="M1716.44 54.671 L1716.44 27.2059 L1723.9 27.2059 L1723.9 54.3874 Q1723.9 60.8284 1726.41 64.0691 Q1728.92 67.2693 1733.94 67.2693 Q1739.98 67.2693 1743.46 63.421 Q1746.99 59.5726 1746.99 52.9291 L1746.99 27.2059 L1754.44 27.2059 L1754.44 72.576 L1746.99 72.576 L1746.99 65.6084 Q1744.27 69.7404 1740.67 71.7658 Q1737.1 73.7508 1732.36 73.7508 Q1724.55 73.7508 1720.5 68.8897 Q1716.44 64.0286 1716.44 54.671 M1735.2 26.1121 L1735.2 26.1121 Z" fill="#000000" fill-rule="nonzero" fill-opacity="1" /><path clip-path="url(#clip940)" d="M1777.01 65.7705 L1777.01 89.8329 L1769.51 89.8329 L1769.51 27.2059 L1777.01 27.2059 L1777.01 34.0924 Q1779.36 30.0415 1782.92 28.0971 Q1786.53 26.1121 1791.51 26.1121 Q1799.77 26.1121 1804.92 32.6746 Q1810.1 39.2371 1810.1 49.9314 Q1810.1 60.6258 1804.92 67.1883 Q1799.77 73.7508 1791.51 73.7508 Q1786.53 73.7508 1782.92 71.8063 Q1779.36 69.8214 1777.01 65.7705 M1802.36 49.9314 Q1802.36 41.7081 1798.96 37.0496 Q1795.6 32.3505 1789.69 32.3505 Q1783.77 32.3505 1780.37 37.0496 Q1777.01 41.7081 1777.01 49.9314 Q1777.01 58.1548 1780.37 62.8538 Q1783.77 67.5124 1789.69 67.5124 Q1795.6 67.5124 1798.96 62.8538 Q1802.36 58.1548 1802.36 49.9314 Z" fill="#000000" fill-rule="nonzero" fill-opacity="1" /><path clip-path="url(#clip940)" d="M1822.46 27.2059 L1829.91 27.2059 L1829.91 72.576 L1822.46 72.576 L1822.46 27.2059 M1822.46 9.54393 L1829.91 9.54393 L1829.91 18.9825 L1822.46 18.9825 L1822.46 9.54393 Z" fill="#000000" fill-rule="nonzero" fill-opacity="1" /><path clip-path="url(#clip940)" d="M1852.88 14.324 L1852.88 27.2059 L1868.23 27.2059 L1868.23 32.9987 L1852.88 32.9987 L1852.88 57.6282 Q1852.88 63.1779 1854.38 64.7578 Q1855.92 66.3376 1860.58 66.3376 L1868.23 66.3376 L1868.23 72.576 L1860.58 72.576 Q1851.95 72.576 1848.67 69.3758 Q1845.39 66.1351 1845.39 57.6282 L1845.39 32.9987 L1839.92 32.9987 L1839.92 27.2059 L1845.39 27.2059 L1845.39 14.324 L1852.88 14.324 Z" fill="#000000" fill-rule="nonzero" fill-opacity="1" /><path clip-path="url(#clip940)" d="M1916.84 48.0275 L1916.84 51.6733 L1882.57 51.6733 Q1883.06 59.3701 1887.19 63.421 Q1891.36 67.4314 1898.78 67.4314 Q1903.07 67.4314 1907.08 66.3781 Q1911.13 65.3249 1915.1 63.2184 L1915.1 70.267 Q1911.09 71.9684 1906.88 72.8596 Q1902.66 73.7508 1898.33 73.7508 Q1887.47 73.7508 1881.11 67.4314 Q1874.79 61.1119 1874.79 50.3365 Q1874.79 39.1965 1880.79 32.6746 Q1886.83 26.1121 1897.03 26.1121 Q1906.19 26.1121 1911.5 32.0264 Q1916.84 37.9003 1916.84 48.0275 M1909.39 45.84 Q1909.31 39.7232 1905.95 36.0774 Q1902.62 32.4315 1897.12 32.4315 Q1890.88 32.4315 1887.11 35.9558 Q1883.38 39.4801 1882.82 45.8805 L1909.39 45.84 Z" fill="#000000" fill-rule="nonzero" fill-opacity="1" /><path clip-path="url(#clip940)" d="M1955.37 34.1734 Q1954.11 33.4443 1952.61 33.1202 Q1951.15 32.7556 1949.37 32.7556 Q1943.05 32.7556 1939.65 36.8875 Q1936.29 40.9789 1936.29 48.6757 L1936.29 72.576 L1928.79 72.576 L1928.79 27.2059 L1936.29 27.2059 L1936.29 34.2544 Q1938.64 30.1225 1942.4 28.1376 Q1946.17 26.1121 1951.56 26.1121 Q1952.33 26.1121 1953.26 26.2337 Q1954.19 26.3147 1955.33 26.5172 L1955.37 34.1734 Z" fill="#000000" fill-rule="nonzero" fill-opacity="1" /><polyline clip-path="url(#clip942)" style="stroke:#009af9; stroke-linecap:round; stroke-linejoin:round; stroke-width:4; stroke-opacity:1; fill:none" points="1528.57,269.91 1514.54,246.417 1491.88,223.46 1460.94,202.394 1422.49,184.495 1377.84,170.896 1328.64,162.498 1276.92,159.909 1224.82,163.387 1174.61,172.818 1128.35,187.73 1087.91,207.306 1054.74,230.479 1029.84,255.967 1013.69,282.408 1006.26,308.402 1006.97,332.646 1014.88,353.945 1028.6,371.341 1046.51,384.076 1066.76,391.706 1087.43,394.027 1106.57,391.17 1122.35,383.5 1133.08,371.695 1137.36,356.624 1134.09,339.399 1122.61,321.236 1102.68,303.49 1074.57,287.482 1039.06,274.526 997.352,265.742 951.127,262.078 902.335,264.144 853.166,272.248 805.819,286.292 762.438,305.844 724.869,330.106 694.642,358.034 672.767,388.354 659.801,419.709 655.714,450.695 660.04,479.992 671.794,506.397 689.683,528.917 712.051,546.785 737.113,559.509 762.903,566.878 787.518,568.971 809.058,566.153 825.867,559.048 836.463,548.533 839.766,535.669 835.022,521.693 821.995,507.916 800.875,495.697 772.404,486.315 737.748,480.947 698.546,480.519 656.721,485.707 614.447,496.811 573.926,513.802 537.306,536.241 506.471,563.394 482.967,594.198 467.868,627.43 461.749,661.7 464.654,695.637 476.121,727.874 495.24,757.225 520.699,782.645 550.909,803.369 584.043,818.854 618.192,828.885 651.389,833.494 681.778,833.037 707.618,828.099 727.462,819.546 740.129,808.414 744.887,795.934 741.391,783.405 729.843,772.186 710.875,763.568 685.67,758.733 655.764,758.64 623.112,763.98 589.81,775.099 558.113,791.983 530.125,814.247 507.799,841.159 492.669,871.707 485.89,904.653 488.041,938.646 499.241,972.279 519.039,1004.21 546.582,1033.22 580.565,1058.25 619.433,1078.5 661.357,1093.44 704.437,1102.78 746.697,1106.57 786.263,1105.1 821.38,1098.98 850.557,1089.01 872.595,1076.25 886.698,1061.88 892.499,1047.24 890.121,1033.64 880.183,1022.43 863.78,1014.76 842.456,1011.66 818.085,1013.81 792.798,1021.61 768.791,1035.07 748.23,1053.86 733.036,1077.25 724.831,1104.28 724.75,1133.71 733.475,1164.21 751.108,1194.36 777.298,1222.84 811.167,1248.38 851.501,1269.95 896.704,1286.7 945.022,1298.08 994.498,1303.79 1043.21,1303.84 1089.22,1298.52 1130.8,1288.38 1166.38,1274.25 1194.78,1257.13 1215.12,1238.24 1227.03,1218.86 1230.55,1200.35 1226.28,1184.03 1215.25,1171.11 1198.98,1162.59 1179.3,1159.23 1158.34,1161.44 1138.29,1169.28 1121.32,1182.42 1109.39,1200.22 1104.13,1221.68 1106.74,1245.64 1117.92,1270.74 1137.86,1295.6 1166.21,1318.85 1202.17,1339.26 1244.52,1355.73 1291.72,1367.44 1342.01,1373.78 1393.47,1374.46 1444.13,1369.44 1492.1,1359 1535.58,1343.67 1573.03,1324.26 1603.18,1301.76 1625.18,1277.36 1638.56,1252.35 1643.36,1228.1 1640.1,1205.93 1629.81,1187.06 1613.93,1172.52 1594.31,1163.1 1573.02,1159.24 1552.28,1161.03 1534.24,1168.19 1520.92,1180.1 1513.95,1195.8 1514.62,1214.12 1523.63,1233.75 1541.25,1253.28 1567.15,1271.36 1600.6,1286.73 1640.39,1298.3 1685.04,1305.2 1732.77,1306.83 1781.7,1302.83 1829.84,1293.19 1875.31,1278.12 1916.29,1258.17 1951.23,1234.09 1978.82,1206.89 1998.17,1177.71 2008.78,1147.88 2010.65,1118.73 2004.26,1091.6 1990.58,1067.72 1971.05,1048.17 1947.46,1033.73 1921.88,1024.89 1896.52,1021.77 1873.56,1024.14 1855.01,1031.37 1842.59,1042.58 1837.57,1056.59 1840.76,1072.09 1852.42,1087.7 1872.33,1102.05 1899.73,1113.87 1933.53,1122.05 1972.2,1125.71 2014.04,1124.22 2057.12,1117.2 2099.54,1104.61 2139.33,1086.64 2174.72,1063.81 2204.09,1036.85 2226.16,1006.75 2239.94,974.666 2244.95,941.876 2241.11,909.737 2228.89,879.583 2209.18,852.672 2183.43,830.072 2153.36,812.622 2121.06,800.824 2088.7,794.852 2058.51,794.476 2032.5,799.143 2012.42,807.946 1999.59,819.768 1994.88,833.283 1998.59,847.133 2010.55,859.921 2030.05,870.39 2056.01,877.396 2086.96,880.052 2121.2,877.675 2156.85,869.909 2191.96,856.632 2224.61,838.062 2252.96,814.647 2275.43,787.139 2290.65,756.471 2297.68,723.809 2295.92,690.408 2285.3,657.636 2266.2,626.82 2239.55,599.236 2206.66,575.967 2169.32,557.88 2129.53,545.506 2089.52,539.048 2051.45,538.318 2017.42,542.781 1989.18,551.57 1968.12,563.571 1955.11,577.49 1950.56,591.947 1954.28,605.567 1965.68,617.056 1983.65,625.279 2006.81,629.298 2033.42,628.441 2061.67,622.288 2089.56,610.73 2115.21,593.919 2136.76,572.319 2152.59,546.617 2161.33,517.77 "/>
</svg>
