<?xml version="1.0" encoding="utf-8"?>
<svg xmlns="http://www.w3.org/2000/svg" xmlns:xlink="http://www.w3.org/1999/xlink" width="600" height="600" viewBox="0 0 2400 2400">
<defs>
  <clipPath id="clip500">
    <rect x="0" y="0" width="2400" height="2400"/>
  </clipPath>
</defs>
<defs>
  <clipPath id="clip501">
    <rect x="480" y="240" width="1681" height="1681"/>
  </clipPath>
</defs>
<defs>
  <clipPath id="clip502">
    <rect x="430" y="47" width="1923" height="2109"/>
  </clipPath>
</defs>
<polyline clip-path="url(#clip500)" style="stroke:#000000; stroke-linecap:round; stroke-linejoin:round; stroke-width:4; stroke-opacity:1; fill:none" points="430.562,2155.72 2352.76,2155.72 "/>
<polyline clip-path="url(#clip500)" style="stroke:#000000; stroke-linecap:round; stroke-linejoin:round; stroke-width:4; stroke-opacity:1; fill:none" points="494.809,2155.72 494.809,2136.82 "/>
<polyline clip-path="url(#clip500)" style="stroke:#000000; stroke-linecap:round; stroke-linejoin:round; stroke-width:4; stroke-opacity:1; fill:none" points="795.047,2155.72 795.047,2136.82 "/>
<polyline clip-path="url(#clip500)" style="stroke:#000000; stroke-linecap:round; stroke-linejoin:round; stroke-width:4; stroke-opacity:1; fill:none" points="1095.29,2155.72 1095.29,2136.82 "/>
<polyline clip-path="url(#clip500)" style="stroke:#000000; stroke-linecap:round; stroke-linejoin:round; stroke-width:4; stroke-opacity:1; fill:none" points="1395.52,2155.72 1395.52,2136.82 "/>
<polyline clip-path="url(#clip500)" style="stroke:#000000; stroke-linecap:round; stroke-linejoin:round; stroke-width:4; stroke-opacity:1; fill:none" points="1695.76,2155.72 1695.76,2136.82 "/>
<polyline clip-path="url(#clip500)" style="stroke:#000000; stroke-linecap:round; stroke-linejoin:round; stroke-width:4; stroke-opacity:1; fill:none" points="1996,2155.72 1996,2136.82 "/>
<polyline clip-path="url(#clip500)" style="stroke:#000000; stroke-linecap:round; stroke-linejoin:round; stroke-width:4; stroke-opacity:1; fill:none" points="2296.24,2155.72 2296.24,2136.82 "/>
<path clip-path="url(#clip500)" d="M366.537 2216.95 L396.213 2216.95 L396.213 2220.88 L366.537 2220.88 L366.537 2216.95 Z" fill="#000000" fill-rule="nonzero" fill-opacity="1" /><path clip-path="url(#clip500)" d="M407.116 2229.84 L414.755 2229.84 L414.755 2203.47 L406.445 2205.14 L406.445 2200.88 L414.708 2199.22 L419.384 2199.22 L419.384 2229.84 L427.023 2229.84 L427.023 2233.78 L407.116 2233.78 L407.116 2229.84 Z" fill="#000000" fill-rule="nonzero" fill-opacity="1" /><path clip-path="url(#clip500)" d="M436.468 2227.9 L441.352 2227.9 L441.352 2233.78 L436.468 2233.78 L436.468 2227.9 Z" fill="#000000" fill-rule="nonzero" fill-opacity="1" /><path clip-path="url(#clip500)" d="M451.583 2199.22 L469.94 2199.22 L469.94 2203.15 L455.866 2203.15 L455.866 2211.62 Q456.884 2211.28 457.903 2211.11 Q458.921 2210.93 459.94 2210.93 Q465.727 2210.93 469.106 2214.1 Q472.486 2217.27 472.486 2222.69 Q472.486 2228.27 469.014 2231.37 Q465.542 2234.45 459.222 2234.45 Q457.046 2234.45 454.778 2234.08 Q452.532 2233.71 450.125 2232.96 L450.125 2228.27 Q452.208 2229.4 454.43 2229.96 Q456.653 2230.51 459.13 2230.51 Q463.134 2230.51 465.472 2228.4 Q467.81 2226.3 467.81 2222.69 Q467.81 2219.08 465.472 2216.97 Q463.134 2214.86 459.13 2214.86 Q457.255 2214.86 455.38 2215.28 Q453.528 2215.7 451.583 2216.58 L451.583 2199.22 Z" fill="#000000" fill-rule="nonzero" fill-opacity="1" /><path clip-path="url(#clip500)" d="M491.699 2202.29 Q488.088 2202.29 486.259 2205.86 Q484.453 2209.4 484.453 2216.53 Q484.453 2223.64 486.259 2227.2 Q488.088 2230.74 491.699 2230.74 Q495.333 2230.74 497.139 2227.2 Q498.967 2223.64 498.967 2216.53 Q498.967 2209.4 497.139 2205.86 Q495.333 2202.29 491.699 2202.29 M491.699 2198.59 Q497.509 2198.59 500.564 2203.2 Q503.643 2207.78 503.643 2216.53 Q503.643 2225.26 500.564 2229.86 Q497.509 2234.45 491.699 2234.45 Q485.889 2234.45 482.81 2229.86 Q479.754 2225.26 479.754 2216.53 Q479.754 2207.78 482.81 2203.2 Q485.889 2198.59 491.699 2198.59 Z" fill="#000000" fill-rule="nonzero" fill-opacity="1" /><path clip-path="url(#clip500)" d="M540.032 2208.31 L529.453 2218.94 L540.032 2229.52 L537.277 2232.32 L526.652 2221.69 L516.027 2232.32 L513.296 2229.52 L523.851 2218.94 L513.296 2208.31 L516.027 2205.51 L526.652 2216.14 L537.277 2205.51 L540.032 2208.31 Z" fill="#000000" fill-rule="nonzero" fill-opacity="1" /><path clip-path="url(#clip500)" d="M552.393 2229.84 L560.032 2229.84 L560.032 2203.47 L551.722 2205.14 L551.722 2200.88 L559.985 2199.22 L564.661 2199.22 L564.661 2229.84 L572.3 2229.84 L572.3 2233.78 L552.393 2233.78 L552.393 2229.84 Z" fill="#000000" fill-rule="nonzero" fill-opacity="1" /><path clip-path="url(#clip500)" d="M591.745 2202.29 Q588.133 2202.29 586.305 2205.86 Q584.499 2209.4 584.499 2216.53 Q584.499 2223.64 586.305 2227.2 Q588.133 2230.74 591.745 2230.74 Q595.379 2230.74 597.184 2227.2 Q599.013 2223.64 599.013 2216.53 Q599.013 2209.4 597.184 2205.86 Q595.379 2202.29 591.745 2202.29 M591.745 2198.59 Q597.555 2198.59 600.61 2203.2 Q603.689 2207.78 603.689 2216.53 Q603.689 2225.26 600.61 2229.86 Q597.555 2234.45 591.745 2234.45 Q585.934 2234.45 582.856 2229.86 Q579.8 2225.26 579.8 2216.53 Q579.8 2207.78 582.856 2203.2 Q585.934 2198.59 591.745 2198.59 Z" fill="#000000" fill-rule="nonzero" fill-opacity="1" /><path clip-path="url(#clip500)" d="M613.713 2190.81 Q611.156 2190.81 609.651 2192.56 Q608.165 2194.31 608.165 2197.36 Q608.165 2200.38 609.651 2202.15 Q611.156 2203.9 613.713 2203.9 Q616.271 2203.9 617.757 2202.15 Q619.262 2200.38 619.262 2197.36 Q619.262 2194.31 617.757 2192.56 Q616.271 2190.81 613.713 2190.81 M621.255 2178.91 L621.255 2182.37 Q619.826 2181.69 618.359 2181.33 Q616.911 2180.97 615.481 2180.97 Q611.72 2180.97 609.726 2183.51 Q607.751 2186.05 607.469 2191.19 Q608.579 2189.55 610.253 2188.69 Q611.927 2187.8 613.939 2187.8 Q618.171 2187.8 620.616 2190.38 Q623.08 2192.94 623.08 2197.36 Q623.08 2201.68 620.522 2204.3 Q617.964 2206.91 613.713 2206.91 Q608.842 2206.91 606.266 2203.19 Q603.689 2199.44 603.689 2192.35 Q603.689 2185.69 606.849 2181.75 Q610.008 2177.78 615.331 2177.78 Q616.76 2177.78 618.209 2178.06 Q619.676 2178.34 621.255 2178.91 Z" fill="#000000" fill-rule="nonzero" fill-opacity="1" /><path clip-path="url(#clip500)" d="M666.776 2216.95 L696.452 2216.95 L696.452 2220.88 L666.776 2220.88 L666.776 2216.95 Z" fill="#000000" fill-rule="nonzero" fill-opacity="1" /><path clip-path="url(#clip500)" d="M707.354 2229.84 L714.993 2229.84 L714.993 2203.47 L706.683 2205.14 L706.683 2200.88 L714.947 2199.22 L719.623 2199.22 L719.623 2229.84 L727.262 2229.84 L727.262 2233.78 L707.354 2233.78 L707.354 2229.84 Z" fill="#000000" fill-rule="nonzero" fill-opacity="1" /><path clip-path="url(#clip500)" d="M736.706 2227.9 L741.59 2227.9 L741.59 2233.78 L736.706 2233.78 L736.706 2227.9 Z" fill="#000000" fill-rule="nonzero" fill-opacity="1" /><path clip-path="url(#clip500)" d="M761.775 2202.29 Q758.164 2202.29 756.335 2205.86 Q754.53 2209.4 754.53 2216.53 Q754.53 2223.64 756.335 2227.2 Q758.164 2230.74 761.775 2230.74 Q765.41 2230.74 767.215 2227.2 Q769.044 2223.64 769.044 2216.53 Q769.044 2209.4 767.215 2205.86 Q765.41 2202.29 761.775 2202.29 M761.775 2198.59 Q767.585 2198.59 770.641 2203.2 Q773.72 2207.78 773.72 2216.53 Q773.72 2225.26 770.641 2229.86 Q767.585 2234.45 761.775 2234.45 Q755.965 2234.45 752.886 2229.86 Q749.831 2225.26 749.831 2216.53 Q749.831 2207.78 752.886 2203.2 Q755.965 2198.59 761.775 2198.59 Z" fill="#000000" fill-rule="nonzero" fill-opacity="1" /><path clip-path="url(#clip500)" d="M791.937 2202.29 Q788.326 2202.29 786.497 2205.86 Q784.692 2209.4 784.692 2216.53 Q784.692 2223.64 786.497 2227.2 Q788.326 2230.74 791.937 2230.74 Q795.571 2230.74 797.377 2227.2 Q799.206 2223.64 799.206 2216.53 Q799.206 2209.4 797.377 2205.86 Q795.571 2202.29 791.937 2202.29 M791.937 2198.59 Q797.747 2198.59 800.803 2203.2 Q803.882 2207.78 803.882 2216.53 Q803.882 2225.26 800.803 2229.86 Q797.747 2234.45 791.937 2234.45 Q786.127 2234.45 783.048 2229.86 Q779.993 2225.26 779.993 2216.53 Q779.993 2207.78 783.048 2203.2 Q786.127 2198.59 791.937 2198.59 Z" fill="#000000" fill-rule="nonzero" fill-opacity="1" /><path clip-path="url(#clip500)" d="M840.27 2208.31 L829.692 2218.94 L840.27 2229.52 L837.516 2232.32 L826.891 2221.69 L816.266 2232.32 L813.534 2229.52 L824.09 2218.94 L813.534 2208.31 L816.266 2205.51 L826.891 2216.14 L837.516 2205.51 L840.27 2208.31 Z" fill="#000000" fill-rule="nonzero" fill-opacity="1" /><path clip-path="url(#clip500)" d="M852.631 2229.84 L860.27 2229.84 L860.27 2203.47 L851.96 2205.14 L851.96 2200.88 L860.224 2199.22 L864.9 2199.22 L864.9 2229.84 L872.539 2229.84 L872.539 2233.78 L852.631 2233.78 L852.631 2229.84 Z" fill="#000000" fill-rule="nonzero" fill-opacity="1" /><path clip-path="url(#clip500)" d="M891.983 2202.29 Q888.372 2202.29 886.543 2205.86 Q884.738 2209.4 884.738 2216.53 Q884.738 2223.64 886.543 2227.2 Q888.372 2230.74 891.983 2230.74 Q895.617 2230.74 897.423 2227.2 Q899.251 2223.64 899.251 2216.53 Q899.251 2209.4 897.423 2205.86 Q895.617 2202.29 891.983 2202.29 M891.983 2198.59 Q897.793 2198.59 900.849 2203.2 Q903.927 2207.78 903.927 2216.53 Q903.927 2225.26 900.849 2229.86 Q897.793 2234.45 891.983 2234.45 Q886.173 2234.45 883.094 2229.86 Q880.039 2225.26 880.039 2216.53 Q880.039 2207.78 883.094 2203.2 Q886.173 2198.59 891.983 2198.59 Z" fill="#000000" fill-rule="nonzero" fill-opacity="1" /><path clip-path="url(#clip500)" d="M913.952 2190.81 Q911.394 2190.81 909.889 2192.56 Q908.404 2194.31 908.404 2197.36 Q908.404 2200.38 909.889 2202.15 Q911.394 2203.9 913.952 2203.9 Q916.51 2203.9 917.996 2202.15 Q919.5 2200.38 919.5 2197.36 Q919.5 2194.31 917.996 2192.56 Q916.51 2190.81 913.952 2190.81 M921.494 2178.91 L921.494 2182.37 Q920.064 2181.69 918.597 2181.33 Q917.149 2180.97 915.72 2180.97 Q911.958 2180.97 909.965 2183.51 Q907.99 2186.05 907.708 2191.19 Q908.817 2189.55 910.491 2188.69 Q912.165 2187.8 914.178 2187.8 Q918.409 2187.8 920.854 2190.38 Q923.318 2192.94 923.318 2197.36 Q923.318 2201.68 920.76 2204.3 Q918.202 2206.91 913.952 2206.91 Q909.081 2206.91 906.504 2203.19 Q903.927 2199.44 903.927 2192.35 Q903.927 2185.69 907.087 2181.75 Q910.247 2177.78 915.569 2177.78 Q916.999 2177.78 918.447 2178.06 Q919.914 2178.34 921.494 2178.91 Z" fill="#000000" fill-rule="nonzero" fill-opacity="1" /><path clip-path="url(#clip500)" d="M967.625 2216.95 L997.301 2216.95 L997.301 2220.88 L967.625 2220.88 L967.625 2216.95 Z" fill="#000000" fill-rule="nonzero" fill-opacity="1" /><path clip-path="url(#clip500)" d="M1007.44 2199.22 L1025.8 2199.22 L1025.8 2203.15 L1011.72 2203.15 L1011.72 2211.62 Q1012.74 2211.28 1013.76 2211.11 Q1014.78 2210.93 1015.8 2210.93 Q1021.58 2210.93 1024.96 2214.1 Q1028.34 2217.27 1028.34 2222.69 Q1028.34 2228.27 1024.87 2231.37 Q1021.4 2234.45 1015.08 2234.45 Q1012.9 2234.45 1010.63 2234.08 Q1008.39 2233.71 1005.98 2232.96 L1005.98 2228.27 Q1008.07 2229.4 1010.29 2229.96 Q1012.51 2230.51 1014.99 2230.51 Q1018.99 2230.51 1021.33 2228.4 Q1023.67 2226.3 1023.67 2222.69 Q1023.67 2219.08 1021.33 2216.97 Q1018.99 2214.86 1014.99 2214.86 Q1013.11 2214.86 1011.24 2215.28 Q1009.38 2215.7 1007.44 2216.58 L1007.44 2199.22 Z" fill="#000000" fill-rule="nonzero" fill-opacity="1" /><path clip-path="url(#clip500)" d="M1037.56 2227.9 L1042.44 2227.9 L1042.44 2233.78 L1037.56 2233.78 L1037.56 2227.9 Z" fill="#000000" fill-rule="nonzero" fill-opacity="1" /><path clip-path="url(#clip500)" d="M1062.62 2202.29 Q1059.01 2202.29 1057.19 2205.86 Q1055.38 2209.4 1055.38 2216.53 Q1055.38 2223.64 1057.19 2227.2 Q1059.01 2230.74 1062.62 2230.74 Q1066.26 2230.74 1068.06 2227.2 Q1069.89 2223.64 1069.89 2216.53 Q1069.89 2209.4 1068.06 2205.86 Q1066.26 2202.29 1062.62 2202.29 M1062.62 2198.59 Q1068.44 2198.59 1071.49 2203.2 Q1074.57 2207.78 1074.57 2216.53 Q1074.57 2225.26 1071.49 2229.86 Q1068.44 2234.45 1062.62 2234.45 Q1056.81 2234.45 1053.74 2229.86 Q1050.68 2225.26 1050.68 2216.53 Q1050.68 2207.78 1053.74 2203.2 Q1056.81 2198.59 1062.62 2198.59 Z" fill="#000000" fill-rule="nonzero" fill-opacity="1" /><path clip-path="url(#clip500)" d="M1092.79 2202.29 Q1089.18 2202.29 1087.35 2205.86 Q1085.54 2209.4 1085.54 2216.53 Q1085.54 2223.64 1087.35 2227.2 Q1089.18 2230.74 1092.79 2230.74 Q1096.42 2230.74 1098.23 2227.2 Q1100.06 2223.64 1100.06 2216.53 Q1100.06 2209.4 1098.23 2205.86 Q1096.42 2202.29 1092.79 2202.29 M1092.79 2198.59 Q1098.6 2198.59 1101.65 2203.2 Q1104.73 2207.78 1104.73 2216.53 Q1104.73 2225.26 1101.65 2229.86 Q1098.6 2234.45 1092.79 2234.45 Q1086.98 2234.45 1083.9 2229.86 Q1080.84 2225.26 1080.84 2216.53 Q1080.84 2207.78 1083.9 2203.2 Q1086.98 2198.59 1092.79 2198.59 Z" fill="#000000" fill-rule="nonzero" fill-opacity="1" /><path clip-path="url(#clip500)" d="M1141.12 2208.31 L1130.54 2218.94 L1141.12 2229.52 L1138.37 2232.32 L1127.74 2221.69 L1117.12 2232.32 L1114.38 2229.52 L1124.94 2218.94 L1114.38 2208.31 L1117.12 2205.51 L1127.74 2216.14 L1138.37 2205.51 L1141.12 2208.31 Z" fill="#000000" fill-rule="nonzero" fill-opacity="1" /><path clip-path="url(#clip500)" d="M1153.48 2229.84 L1161.12 2229.84 L1161.12 2203.47 L1152.81 2205.14 L1152.81 2200.88 L1161.07 2199.22 L1165.75 2199.22 L1165.75 2229.84 L1173.39 2229.84 L1173.39 2233.78 L1153.48 2233.78 L1153.48 2229.84 Z" fill="#000000" fill-rule="nonzero" fill-opacity="1" /><path clip-path="url(#clip500)" d="M1192.83 2202.29 Q1189.22 2202.29 1187.39 2205.86 Q1185.59 2209.4 1185.59 2216.53 Q1185.59 2223.64 1187.39 2227.2 Q1189.22 2230.74 1192.83 2230.74 Q1196.47 2230.74 1198.27 2227.2 Q1200.1 2223.64 1200.1 2216.53 Q1200.1 2209.4 1198.27 2205.86 Q1196.47 2202.29 1192.83 2202.29 M1192.83 2198.59 Q1198.64 2198.59 1201.7 2203.2 Q1204.78 2207.78 1204.78 2216.53 Q1204.78 2225.26 1201.7 2229.86 Q1198.64 2234.45 1192.83 2234.45 Q1187.02 2234.45 1183.94 2229.86 Q1180.89 2225.26 1180.89 2216.53 Q1180.89 2207.78 1183.94 2203.2 Q1187.02 2198.59 1192.83 2198.59 Z" fill="#000000" fill-rule="nonzero" fill-opacity="1" /><path clip-path="url(#clip500)" d="M1205.96 2178.28 L1220.88 2178.28 L1220.88 2181.48 L1209.44 2181.48 L1209.44 2188.37 Q1210.27 2188.08 1211.1 2187.95 Q1211.92 2187.8 1212.75 2187.8 Q1217.45 2187.8 1220.2 2190.38 Q1222.95 2192.95 1222.95 2197.36 Q1222.95 2201.89 1220.12 2204.41 Q1217.3 2206.91 1212.17 2206.91 Q1210.4 2206.91 1208.56 2206.61 Q1206.73 2206.31 1204.78 2205.71 L1204.78 2201.89 Q1206.47 2202.81 1208.28 2203.26 Q1210.08 2203.71 1212.09 2203.71 Q1215.35 2203.71 1217.25 2202 Q1219.15 2200.29 1219.15 2197.36 Q1219.15 2194.42 1217.25 2192.71 Q1215.35 2191 1212.09 2191 Q1210.57 2191 1209.05 2191.34 Q1207.54 2191.68 1205.96 2192.39 L1205.96 2178.28 Z" fill="#000000" fill-rule="nonzero" fill-opacity="1" /><path clip-path="url(#clip500)" d="M1395.52 2186.63 Q1391.91 2186.63 1390.08 2190.2 Q1388.28 2193.74 1388.28 2200.87 Q1388.28 2207.98 1390.08 2211.54 Q1391.91 2215.08 1395.52 2215.08 Q1399.16 2215.08 1400.96 2211.54 Q1402.79 2207.98 1402.79 2200.87 Q1402.79 2193.74 1400.96 2190.2 Q1399.16 2186.63 1395.52 2186.63 M1395.52 2182.93 Q1401.33 2182.93 1404.39 2187.54 Q1407.47 2192.12 1407.47 2200.87 Q1407.47 2209.6 1404.39 2214.2 Q1401.33 2218.79 1395.52 2218.79 Q1389.71 2218.79 1386.63 2214.2 Q1383.58 2209.6 1383.58 2200.87 Q1383.58 2192.12 1386.63 2187.54 Q1389.71 2182.93 1395.52 2182.93 Z" fill="#000000" fill-rule="nonzero" fill-opacity="1" /><path clip-path="url(#clip500)" d="M1588.74 2199.22 L1607.09 2199.22 L1607.09 2203.15 L1593.02 2203.15 L1593.02 2211.62 Q1594.04 2211.28 1595.06 2211.11 Q1596.08 2210.93 1597.1 2210.93 Q1602.88 2210.93 1606.26 2214.1 Q1609.64 2217.27 1609.64 2222.69 Q1609.64 2228.27 1606.17 2231.37 Q1602.7 2234.45 1596.38 2234.45 Q1594.2 2234.45 1591.93 2234.08 Q1589.69 2233.71 1587.28 2232.96 L1587.28 2228.27 Q1589.36 2229.4 1591.59 2229.96 Q1593.81 2230.51 1596.28 2230.51 Q1600.29 2230.51 1602.63 2228.4 Q1604.97 2226.3 1604.97 2222.69 Q1604.97 2219.08 1602.63 2216.97 Q1600.29 2214.86 1596.28 2214.86 Q1594.41 2214.86 1592.53 2215.28 Q1590.68 2215.7 1588.74 2216.58 L1588.74 2199.22 Z" fill="#000000" fill-rule="nonzero" fill-opacity="1" /><path clip-path="url(#clip500)" d="M1618.85 2227.9 L1623.74 2227.9 L1623.74 2233.78 L1618.85 2233.78 L1618.85 2227.9 Z" fill="#000000" fill-rule="nonzero" fill-opacity="1" /><path clip-path="url(#clip500)" d="M1643.92 2202.29 Q1640.31 2202.29 1638.48 2205.86 Q1636.68 2209.4 1636.68 2216.53 Q1636.68 2223.64 1638.48 2227.2 Q1640.31 2230.74 1643.92 2230.74 Q1647.56 2230.74 1649.36 2227.2 Q1651.19 2223.64 1651.19 2216.53 Q1651.19 2209.4 1649.36 2205.86 Q1647.56 2202.29 1643.92 2202.29 M1643.92 2198.59 Q1649.73 2198.59 1652.79 2203.2 Q1655.87 2207.78 1655.87 2216.53 Q1655.87 2225.26 1652.79 2229.86 Q1649.73 2234.45 1643.92 2234.45 Q1638.11 2234.45 1635.03 2229.86 Q1631.98 2225.26 1631.98 2216.53 Q1631.98 2207.78 1635.03 2203.2 Q1638.11 2198.59 1643.92 2198.59 Z" fill="#000000" fill-rule="nonzero" fill-opacity="1" /><path clip-path="url(#clip500)" d="M1674.09 2202.29 Q1670.47 2202.29 1668.65 2205.86 Q1666.84 2209.4 1666.84 2216.53 Q1666.84 2223.64 1668.65 2227.2 Q1670.47 2230.74 1674.09 2230.74 Q1677.72 2230.74 1679.53 2227.2 Q1681.35 2223.64 1681.35 2216.53 Q1681.35 2209.4 1679.53 2205.86 Q1677.72 2202.29 1674.09 2202.29 M1674.09 2198.59 Q1679.9 2198.59 1682.95 2203.2 Q1686.03 2207.78 1686.03 2216.53 Q1686.03 2225.26 1682.95 2229.86 Q1679.9 2234.45 1674.09 2234.45 Q1668.28 2234.45 1665.2 2229.86 Q1662.14 2225.26 1662.14 2216.53 Q1662.14 2207.78 1665.2 2203.2 Q1668.28 2198.59 1674.09 2198.59 Z" fill="#000000" fill-rule="nonzero" fill-opacity="1" /><path clip-path="url(#clip500)" d="M1722.42 2208.31 L1711.84 2218.94 L1722.42 2229.52 L1719.66 2232.32 L1709.04 2221.69 L1698.41 2232.32 L1695.68 2229.52 L1706.24 2218.94 L1695.68 2208.31 L1698.41 2205.51 L1709.04 2216.14 L1719.66 2205.51 L1722.42 2208.31 Z" fill="#000000" fill-rule="nonzero" fill-opacity="1" /><path clip-path="url(#clip500)" d="M1734.78 2229.84 L1742.42 2229.84 L1742.42 2203.47 L1734.11 2205.14 L1734.11 2200.88 L1742.37 2199.22 L1747.05 2199.22 L1747.05 2229.84 L1754.69 2229.84 L1754.69 2233.78 L1734.78 2233.78 L1734.78 2229.84 Z" fill="#000000" fill-rule="nonzero" fill-opacity="1" /><path clip-path="url(#clip500)" d="M1774.13 2202.29 Q1770.52 2202.29 1768.69 2205.86 Q1766.89 2209.4 1766.89 2216.53 Q1766.89 2223.64 1768.69 2227.2 Q1770.52 2230.74 1774.13 2230.74 Q1777.77 2230.74 1779.57 2227.2 Q1781.4 2223.64 1781.4 2216.53 Q1781.4 2209.4 1779.57 2205.86 Q1777.77 2202.29 1774.13 2202.29 M1774.13 2198.59 Q1779.94 2198.59 1783 2203.2 Q1786.08 2207.78 1786.08 2216.53 Q1786.08 2225.26 1783 2229.86 Q1779.94 2234.45 1774.13 2234.45 Q1768.32 2234.45 1765.24 2229.86 Q1762.19 2225.26 1762.19 2216.53 Q1762.19 2207.78 1765.24 2203.2 Q1768.32 2198.59 1774.13 2198.59 Z" fill="#000000" fill-rule="nonzero" fill-opacity="1" /><path clip-path="url(#clip500)" d="M1787.26 2178.28 L1802.17 2178.28 L1802.17 2181.48 L1790.74 2181.48 L1790.74 2188.37 Q1791.57 2188.08 1792.39 2187.95 Q1793.22 2187.8 1794.05 2187.8 Q1798.75 2187.8 1801.5 2190.38 Q1804.24 2192.95 1804.24 2197.36 Q1804.24 2201.89 1801.42 2204.41 Q1798.6 2206.91 1793.47 2206.91 Q1791.7 2206.91 1789.86 2206.61 Q1788.03 2206.31 1786.08 2205.71 L1786.08 2201.89 Q1787.77 2202.81 1789.57 2203.26 Q1791.38 2203.71 1793.39 2203.71 Q1796.65 2203.71 1798.55 2202 Q1800.44 2200.29 1800.44 2197.36 Q1800.44 2194.42 1798.55 2192.71 Q1796.65 2191 1793.39 2191 Q1791.87 2191 1790.34 2191.34 Q1788.84 2191.68 1787.26 2192.39 L1787.26 2178.28 Z" fill="#000000" fill-rule="nonzero" fill-opacity="1" /><path clip-path="url(#clip500)" d="M1888.35 2229.84 L1895.99 2229.84 L1895.99 2203.47 L1887.68 2205.14 L1887.68 2200.88 L1895.95 2199.22 L1900.62 2199.22 L1900.62 2229.84 L1908.26 2229.84 L1908.26 2233.78 L1888.35 2233.78 L1888.35 2229.84 Z" fill="#000000" fill-rule="nonzero" fill-opacity="1" /><path clip-path="url(#clip500)" d="M1917.71 2227.9 L1922.59 2227.9 L1922.59 2233.78 L1917.71 2233.78 L1917.71 2227.9 Z" fill="#000000" fill-rule="nonzero" fill-opacity="1" /><path clip-path="url(#clip500)" d="M1942.78 2202.29 Q1939.16 2202.29 1937.34 2205.86 Q1935.53 2209.4 1935.53 2216.53 Q1935.53 2223.64 1937.34 2227.2 Q1939.16 2230.74 1942.78 2230.74 Q1946.41 2230.74 1948.21 2227.2 Q1950.04 2223.64 1950.04 2216.53 Q1950.04 2209.4 1948.21 2205.86 Q1946.41 2202.29 1942.78 2202.29 M1942.78 2198.59 Q1948.59 2198.59 1951.64 2203.2 Q1954.72 2207.78 1954.72 2216.53 Q1954.72 2225.26 1951.64 2229.86 Q1948.59 2234.45 1942.78 2234.45 Q1936.96 2234.45 1933.89 2229.86 Q1930.83 2225.26 1930.83 2216.53 Q1930.83 2207.78 1933.89 2203.2 Q1936.96 2198.59 1942.78 2198.59 Z" fill="#000000" fill-rule="nonzero" fill-opacity="1" /><path clip-path="url(#clip500)" d="M1972.94 2202.29 Q1969.33 2202.29 1967.5 2205.86 Q1965.69 2209.4 1965.69 2216.53 Q1965.69 2223.64 1967.5 2227.2 Q1969.33 2230.74 1972.94 2230.74 Q1976.57 2230.74 1978.38 2227.2 Q1980.21 2223.64 1980.21 2216.53 Q1980.21 2209.4 1978.38 2205.86 Q1976.57 2202.29 1972.94 2202.29 M1972.94 2198.59 Q1978.75 2198.59 1981.8 2203.2 Q1984.88 2207.78 1984.88 2216.53 Q1984.88 2225.26 1981.8 2229.86 Q1978.75 2234.45 1972.94 2234.45 Q1967.13 2234.45 1964.05 2229.86 Q1960.99 2225.26 1960.99 2216.53 Q1960.99 2207.78 1964.05 2203.2 Q1967.13 2198.59 1972.94 2198.59 Z" fill="#000000" fill-rule="nonzero" fill-opacity="1" /><path clip-path="url(#clip500)" d="M2021.27 2208.31 L2010.69 2218.94 L2021.27 2229.52 L2018.52 2232.32 L2007.89 2221.69 L1997.27 2232.32 L1994.53 2229.52 L2005.09 2218.94 L1994.53 2208.31 L1997.27 2205.51 L2007.89 2216.14 L2018.52 2205.51 L2021.27 2208.31 Z" fill="#000000" fill-rule="nonzero" fill-opacity="1" /><path clip-path="url(#clip500)" d="M2033.63 2229.84 L2041.27 2229.84 L2041.27 2203.47 L2032.96 2205.14 L2032.96 2200.88 L2041.22 2199.22 L2045.9 2199.22 L2045.9 2229.84 L2053.54 2229.84 L2053.54 2233.78 L2033.63 2233.78 L2033.63 2229.84 Z" fill="#000000" fill-rule="nonzero" fill-opacity="1" /><path clip-path="url(#clip500)" d="M2072.98 2202.29 Q2069.37 2202.29 2067.54 2205.86 Q2065.74 2209.4 2065.74 2216.53 Q2065.74 2223.64 2067.54 2227.2 Q2069.37 2230.74 2072.98 2230.74 Q2076.62 2230.74 2078.42 2227.2 Q2080.25 2223.64 2080.25 2216.53 Q2080.25 2209.4 2078.42 2205.86 Q2076.62 2202.29 2072.98 2202.29 M2072.98 2198.59 Q2078.79 2198.59 2081.85 2203.2 Q2084.93 2207.78 2084.93 2216.53 Q2084.93 2225.26 2081.85 2229.86 Q2078.79 2234.45 2072.98 2234.45 Q2067.17 2234.45 2064.09 2229.86 Q2061.04 2225.26 2061.04 2216.53 Q2061.04 2207.78 2064.09 2203.2 Q2067.17 2198.59 2072.98 2198.59 Z" fill="#000000" fill-rule="nonzero" fill-opacity="1" /><path clip-path="url(#clip500)" d="M2094.95 2190.81 Q2092.39 2190.81 2090.89 2192.56 Q2089.4 2194.31 2089.4 2197.36 Q2089.4 2200.38 2090.89 2202.15 Q2092.39 2203.9 2094.95 2203.9 Q2097.51 2203.9 2099 2202.15 Q2100.5 2200.38 2100.5 2197.36 Q2100.5 2194.31 2099 2192.56 Q2097.51 2190.81 2094.95 2190.81 M2102.49 2178.91 L2102.49 2182.37 Q2101.06 2181.69 2099.6 2181.33 Q2098.15 2180.97 2096.72 2180.97 Q2092.96 2180.97 2090.96 2183.51 Q2088.99 2186.05 2088.71 2191.19 Q2089.82 2189.55 2091.49 2188.69 Q2093.16 2187.8 2095.18 2187.8 Q2099.41 2187.8 2101.85 2190.38 Q2104.32 2192.94 2104.32 2197.36 Q2104.32 2201.68 2101.76 2204.3 Q2099.2 2206.91 2094.95 2206.91 Q2090.08 2206.91 2087.5 2203.19 Q2084.93 2199.44 2084.93 2192.35 Q2084.93 2185.69 2088.09 2181.75 Q2091.25 2177.78 2096.57 2177.78 Q2098 2177.78 2099.45 2178.06 Q2100.91 2178.34 2102.49 2178.91 Z" fill="#000000" fill-rule="nonzero" fill-opacity="1" /><path clip-path="url(#clip500)" d="M2188.59 2229.84 L2196.23 2229.84 L2196.23 2203.47 L2187.92 2205.14 L2187.92 2200.88 L2196.19 2199.22 L2200.86 2199.22 L2200.86 2229.84 L2208.5 2229.84 L2208.5 2233.78 L2188.59 2233.78 L2188.59 2229.84 Z" fill="#000000" fill-rule="nonzero" fill-opacity="1" /><path clip-path="url(#clip500)" d="M2217.94 2227.9 L2222.83 2227.9 L2222.83 2233.78 L2217.94 2233.78 L2217.94 2227.9 Z" fill="#000000" fill-rule="nonzero" fill-opacity="1" /><path clip-path="url(#clip500)" d="M2233.06 2199.22 L2251.42 2199.22 L2251.42 2203.15 L2237.34 2203.15 L2237.34 2211.62 Q2238.36 2211.28 2239.38 2211.11 Q2240.4 2210.93 2241.42 2210.93 Q2247.2 2210.93 2250.58 2214.1 Q2253.96 2217.27 2253.96 2222.69 Q2253.96 2228.27 2250.49 2231.37 Q2247.02 2234.45 2240.7 2234.45 Q2238.52 2234.45 2236.25 2234.08 Q2234.01 2233.71 2231.6 2232.96 L2231.6 2228.27 Q2233.68 2229.4 2235.91 2229.96 Q2238.13 2230.51 2240.61 2230.51 Q2244.61 2230.51 2246.95 2228.4 Q2249.29 2226.3 2249.29 2222.69 Q2249.29 2219.08 2246.95 2216.97 Q2244.61 2214.86 2240.61 2214.86 Q2238.73 2214.86 2236.86 2215.28 Q2235 2215.7 2233.06 2216.58 L2233.06 2199.22 Z" fill="#000000" fill-rule="nonzero" fill-opacity="1" /><path clip-path="url(#clip500)" d="M2273.18 2202.29 Q2269.56 2202.29 2267.74 2205.86 Q2265.93 2209.4 2265.93 2216.53 Q2265.93 2223.64 2267.74 2227.2 Q2269.56 2230.74 2273.18 2230.74 Q2276.81 2230.74 2278.62 2227.2 Q2280.44 2223.64 2280.44 2216.53 Q2280.44 2209.4 2278.62 2205.86 Q2276.81 2202.29 2273.18 2202.29 M2273.18 2198.59 Q2278.99 2198.59 2282.04 2203.2 Q2285.12 2207.78 2285.12 2216.53 Q2285.12 2225.26 2282.04 2229.86 Q2278.99 2234.45 2273.18 2234.45 Q2267.37 2234.45 2264.29 2229.86 Q2261.23 2225.26 2261.23 2216.53 Q2261.23 2207.78 2264.29 2203.2 Q2267.37 2198.59 2273.18 2198.59 Z" fill="#000000" fill-rule="nonzero" fill-opacity="1" /><path clip-path="url(#clip500)" d="M2321.51 2208.31 L2310.93 2218.94 L2321.51 2229.52 L2318.75 2232.32 L2308.13 2221.69 L2297.5 2232.32 L2294.77 2229.52 L2305.33 2218.94 L2294.77 2208.31 L2297.5 2205.51 L2308.13 2216.14 L2318.75 2205.51 L2321.51 2208.31 Z" fill="#000000" fill-rule="nonzero" fill-opacity="1" /><path clip-path="url(#clip500)" d="M2333.87 2229.84 L2341.51 2229.84 L2341.51 2203.47 L2333.2 2205.14 L2333.2 2200.88 L2341.46 2199.22 L2346.14 2199.22 L2346.14 2229.84 L2353.78 2229.84 L2353.78 2233.78 L2333.87 2233.78 L2333.87 2229.84 Z" fill="#000000" fill-rule="nonzero" fill-opacity="1" /><path clip-path="url(#clip500)" d="M2373.22 2202.29 Q2369.61 2202.29 2367.78 2205.86 Q2365.98 2209.4 2365.98 2216.53 Q2365.98 2223.64 2367.78 2227.2 Q2369.61 2230.74 2373.22 2230.74 Q2376.86 2230.74 2378.66 2227.2 Q2380.49 2223.64 2380.49 2216.53 Q2380.49 2209.4 2378.66 2205.86 Q2376.86 2202.29 2373.22 2202.29 M2373.22 2198.59 Q2379.03 2198.59 2382.09 2203.2 Q2385.17 2207.78 2385.17 2216.53 Q2385.17 2225.26 2382.09 2229.86 Q2379.03 2234.45 2373.22 2234.45 Q2367.41 2234.45 2364.33 2229.86 Q2361.28 2225.26 2361.28 2216.53 Q2361.28 2207.78 2364.33 2203.2 Q2367.41 2198.59 2373.22 2198.59 Z" fill="#000000" fill-rule="nonzero" fill-opacity="1" /><path clip-path="url(#clip500)" d="M2395.19 2190.81 Q2392.63 2190.81 2391.13 2192.56 Q2389.64 2194.31 2389.64 2197.36 Q2389.64 2200.38 2391.13 2202.15 Q2392.63 2203.9 2395.19 2203.9 Q2397.75 2203.9 2399.23 2202.15 Q2400.74 2200.38 2400.74 2197.36 Q2400.74 2194.31 2399.23 2192.56 Q2397.75 2190.81 2395.19 2190.81 M2402.73 2178.91 L2402.73 2182.37 Q2401.3 2181.69 2399.84 2181.33 Q2398.39 2180.97 2396.96 2180.97 Q2393.2 2180.97 2391.2 2183.51 Q2389.23 2186.05 2388.95 2191.19 Q2390.06 2189.55 2391.73 2188.69 Q2393.4 2187.8 2395.42 2187.8 Q2399.65 2187.8 2402.09 2190.38 Q2404.56 2192.94 2404.56 2197.36 Q2404.56 2201.68 2402 2204.3 Q2399.44 2206.91 2395.19 2206.91 Q2390.32 2206.91 2387.74 2203.19 Q2385.17 2199.44 2385.17 2192.35 Q2385.17 2185.69 2388.33 2181.75 Q2391.48 2177.78 2396.81 2177.78 Q2398.24 2177.78 2399.69 2178.06 Q2401.15 2178.34 2402.73 2178.91 Z" fill="#000000" fill-rule="nonzero" fill-opacity="1" /><path clip-path="url(#clip500)" d="M1289.98 2271.48 L1296.89 2271.48 L1308.7 2289.15 L1320.57 2271.48 L1327.48 2271.48 L1312.2 2294.3 L1328.5 2319 L1321.59 2319 L1308.22 2298.79 L1294.76 2319 L1287.82 2319 L1304.78 2293.64 L1289.98 2271.48 Z" fill="#000000" fill-rule="nonzero" fill-opacity="1" /><path clip-path="url(#clip500)" d="M1371.46 2269.54 Q1367.2 2276.86 1365.13 2284.02 Q1363.06 2291.19 1363.06 2298.54 Q1363.06 2305.89 1365.13 2313.12 Q1367.23 2320.31 1371.46 2327.6 L1366.37 2327.6 Q1361.6 2320.12 1359.21 2312.89 Q1356.85 2305.67 1356.85 2298.54 Q1356.85 2291.44 1359.21 2284.25 Q1361.57 2277.05 1366.37 2269.54 L1371.46 2269.54 Z" fill="#000000" fill-rule="nonzero" fill-opacity="1" /><path clip-path="url(#clip500)" d="M1383.08 2271.48 L1389.51 2271.48 L1389.51 2291.57 L1410.84 2271.48 L1419.11 2271.48 L1395.53 2293.64 L1420.8 2319 L1412.33 2319 L1389.51 2296.12 L1389.51 2319 L1383.08 2319 L1383.08 2271.48 Z" fill="#000000" fill-rule="nonzero" fill-opacity="1" /><path clip-path="url(#clip500)" d="M1425.83 2271.48 L1435.41 2271.48 L1447.53 2303.82 L1459.72 2271.48 L1469.3 2271.48 L1469.3 2319 L1463.03 2319 L1463.03 2277.28 L1450.78 2309.87 L1444.32 2309.87 L1432.07 2277.28 L1432.07 2319 L1425.83 2319 L1425.83 2271.48 Z" fill="#000000" fill-rule="nonzero" fill-opacity="1" /><path clip-path="url(#clip500)" d="M1480.89 2269.54 L1485.98 2269.54 Q1490.76 2277.05 1493.11 2284.25 Q1495.5 2291.44 1495.5 2298.54 Q1495.5 2305.67 1493.11 2312.89 Q1490.76 2320.12 1485.98 2327.6 L1480.89 2327.6 Q1485.12 2320.31 1487.19 2313.12 Q1489.29 2305.89 1489.29 2298.54 Q1489.29 2291.19 1487.19 2284.02 Q1485.12 2276.86 1480.89 2269.54 Z" fill="#000000" fill-rule="nonzero" fill-opacity="1" /><polyline clip-path="url(#clip500)" style="stroke:#000000; stroke-linecap:round; stroke-linejoin:round; stroke-width:4; stroke-opacity:1; fill:none" points="430.562,2155.72 430.562,47.2441 "/>
<polyline clip-path="url(#clip500)" style="stroke:#000000; stroke-linecap:round; stroke-linejoin:round; stroke-width:4; stroke-opacity:1; fill:none" points="430.562,2105.75 449.46,2105.75 "/>
<polyline clip-path="url(#clip500)" style="stroke:#000000; stroke-linecap:round; stroke-linejoin:round; stroke-width:4; stroke-opacity:1; fill:none" points="430.562,1775.97 449.46,1775.97 "/>
<polyline clip-path="url(#clip500)" style="stroke:#000000; stroke-linecap:round; stroke-linejoin:round; stroke-width:4; stroke-opacity:1; fill:none" points="430.562,1446.19 449.46,1446.19 "/>
<polyline clip-path="url(#clip500)" style="stroke:#000000; stroke-linecap:round; stroke-linejoin:round; stroke-width:4; stroke-opacity:1; fill:none" points="430.562,1116.41 449.46,1116.41 "/>
<polyline clip-path="url(#clip500)" style="stroke:#000000; stroke-linecap:round; stroke-linejoin:round; stroke-width:4; stroke-opacity:1; fill:none" points="430.562,786.631 449.46,786.631 "/>
<polyline clip-path="url(#clip500)" style="stroke:#000000; stroke-linecap:round; stroke-linejoin:round; stroke-width:4; stroke-opacity:1; fill:none" points="430.562,456.85 449.46,456.85 "/>
<polyline clip-path="url(#clip500)" style="stroke:#000000; stroke-linecap:round; stroke-linejoin:round; stroke-width:4; stroke-opacity:1; fill:none" points="430.562,127.07 449.46,127.07 "/>
<path clip-path="url(#clip500)" d="M138.02 2112.65 L167.696 2112.65 L167.696 2116.59 L138.02 2116.59 L138.02 2112.65 Z" fill="#000000" fill-rule="nonzero" fill-opacity="1" /><path clip-path="url(#clip500)" d="M178.599 2125.54 L186.237 2125.54 L186.237 2099.18 L177.927 2100.85 L177.927 2096.59 L186.191 2094.92 L190.867 2094.92 L190.867 2125.54 L198.506 2125.54 L198.506 2129.48 L178.599 2129.48 L178.599 2125.54 Z" fill="#000000" fill-rule="nonzero" fill-opacity="1" /><path clip-path="url(#clip500)" d="M207.95 2123.6 L212.835 2123.6 L212.835 2129.48 L207.95 2129.48 L207.95 2123.6 Z" fill="#000000" fill-rule="nonzero" fill-opacity="1" /><path clip-path="url(#clip500)" d="M223.066 2094.92 L241.422 2094.92 L241.422 2098.86 L227.348 2098.86 L227.348 2107.33 Q228.367 2106.98 229.385 2106.82 Q230.404 2106.63 231.422 2106.63 Q237.209 2106.63 240.589 2109.8 Q243.969 2112.98 243.969 2118.39 Q243.969 2123.97 240.496 2127.07 Q237.024 2130.15 230.705 2130.15 Q228.529 2130.15 226.26 2129.78 Q224.015 2129.41 221.608 2128.67 L221.608 2123.97 Q223.691 2125.1 225.913 2125.66 Q228.135 2126.22 230.612 2126.22 Q234.617 2126.22 236.955 2124.11 Q239.293 2122 239.293 2118.39 Q239.293 2114.78 236.955 2112.67 Q234.617 2110.57 230.612 2110.57 Q228.737 2110.57 226.862 2110.98 Q225.01 2111.4 223.066 2112.28 L223.066 2094.92 Z" fill="#000000" fill-rule="nonzero" fill-opacity="1" /><path clip-path="url(#clip500)" d="M263.182 2098 Q259.57 2098 257.742 2101.56 Q255.936 2105.11 255.936 2112.23 Q255.936 2119.34 257.742 2122.91 Q259.57 2126.45 263.182 2126.45 Q266.816 2126.45 268.621 2122.91 Q270.45 2119.34 270.45 2112.23 Q270.45 2105.11 268.621 2101.56 Q266.816 2098 263.182 2098 M263.182 2094.29 Q268.992 2094.29 272.047 2098.9 Q275.126 2103.48 275.126 2112.23 Q275.126 2120.96 272.047 2125.57 Q268.992 2130.15 263.182 2130.15 Q257.371 2130.15 254.293 2125.57 Q251.237 2120.96 251.237 2112.23 Q251.237 2103.48 254.293 2098.9 Q257.371 2094.29 263.182 2094.29 Z" fill="#000000" fill-rule="nonzero" fill-opacity="1" /><path clip-path="url(#clip500)" d="M311.515 2104.02 L300.936 2114.64 L311.515 2125.22 L308.76 2128.02 L298.135 2117.4 L287.51 2128.02 L284.779 2125.22 L295.334 2114.64 L284.779 2104.02 L287.51 2101.22 L298.135 2111.84 L308.76 2101.22 L311.515 2104.02 Z" fill="#000000" fill-rule="nonzero" fill-opacity="1" /><path clip-path="url(#clip500)" d="M323.876 2125.54 L331.514 2125.54 L331.514 2099.18 L323.204 2100.85 L323.204 2096.59 L331.468 2094.92 L336.144 2094.92 L336.144 2125.54 L343.783 2125.54 L343.783 2129.48 L323.876 2129.48 L323.876 2125.54 Z" fill="#000000" fill-rule="nonzero" fill-opacity="1" /><path clip-path="url(#clip500)" d="M363.227 2098 Q359.616 2098 357.787 2101.56 Q355.982 2105.11 355.982 2112.23 Q355.982 2119.34 357.787 2122.91 Q359.616 2126.45 363.227 2126.45 Q366.862 2126.45 368.667 2122.91 Q370.496 2119.34 370.496 2112.23 Q370.496 2105.11 368.667 2101.56 Q366.862 2098 363.227 2098 M363.227 2094.29 Q369.037 2094.29 372.093 2098.9 Q375.172 2103.48 375.172 2112.23 Q375.172 2120.96 372.093 2125.57 Q369.037 2130.15 363.227 2130.15 Q357.417 2130.15 354.338 2125.57 Q351.283 2120.96 351.283 2112.23 Q351.283 2103.48 354.338 2098.9 Q357.417 2094.29 363.227 2094.29 Z" fill="#000000" fill-rule="nonzero" fill-opacity="1" /><path clip-path="url(#clip500)" d="M385.196 2086.52 Q382.638 2086.52 381.134 2088.26 Q379.648 2090.01 379.648 2093.06 Q379.648 2096.09 381.134 2097.86 Q382.638 2099.61 385.196 2099.61 Q387.754 2099.61 389.24 2097.86 Q390.744 2096.09 390.744 2093.06 Q390.744 2090.01 389.24 2088.26 Q387.754 2086.52 385.196 2086.52 M392.738 2074.61 L392.738 2078.07 Q391.309 2077.39 389.842 2077.04 Q388.394 2076.68 386.964 2076.68 Q383.203 2076.68 381.209 2079.22 Q379.234 2081.76 378.952 2086.89 Q380.062 2085.26 381.736 2084.39 Q383.409 2083.51 385.422 2083.51 Q389.654 2083.51 392.099 2086.08 Q394.562 2088.64 394.562 2093.06 Q394.562 2097.39 392.005 2100 Q389.447 2102.61 385.196 2102.61 Q380.325 2102.61 377.748 2098.89 Q375.172 2095.15 375.172 2088.06 Q375.172 2081.4 378.331 2077.45 Q381.491 2073.48 386.814 2073.48 Q388.243 2073.48 389.691 2073.76 Q391.158 2074.05 392.738 2074.61 Z" fill="#000000" fill-rule="nonzero" fill-opacity="1" /><path clip-path="url(#clip500)" d="M138.02 1782.87 L167.696 1782.87 L167.696 1786.81 L138.02 1786.81 L138.02 1782.87 Z" fill="#000000" fill-rule="nonzero" fill-opacity="1" /><path clip-path="url(#clip500)" d="M178.599 1795.76 L186.237 1795.76 L186.237 1769.4 L177.927 1771.07 L177.927 1766.81 L186.191 1765.14 L190.867 1765.14 L190.867 1795.76 L198.506 1795.76 L198.506 1799.7 L178.599 1799.7 L178.599 1795.76 Z" fill="#000000" fill-rule="nonzero" fill-opacity="1" /><path clip-path="url(#clip500)" d="M207.95 1793.82 L212.835 1793.82 L212.835 1799.7 L207.95 1799.7 L207.95 1793.82 Z" fill="#000000" fill-rule="nonzero" fill-opacity="1" /><path clip-path="url(#clip500)" d="M233.02 1768.22 Q229.409 1768.22 227.58 1771.78 Q225.774 1775.32 225.774 1782.45 Q225.774 1789.56 227.58 1793.13 Q229.409 1796.67 233.02 1796.67 Q236.654 1796.67 238.459 1793.13 Q240.288 1789.56 240.288 1782.45 Q240.288 1775.32 238.459 1771.78 Q236.654 1768.22 233.02 1768.22 M233.02 1764.51 Q238.83 1764.51 241.885 1769.12 Q244.964 1773.7 244.964 1782.45 Q244.964 1791.18 241.885 1795.79 Q238.83 1800.37 233.02 1800.37 Q227.209 1800.37 224.131 1795.79 Q221.075 1791.18 221.075 1782.45 Q221.075 1773.7 224.131 1769.12 Q227.209 1764.51 233.02 1764.51 Z" fill="#000000" fill-rule="nonzero" fill-opacity="1" /><path clip-path="url(#clip500)" d="M263.182 1768.22 Q259.57 1768.22 257.742 1771.78 Q255.936 1775.32 255.936 1782.45 Q255.936 1789.56 257.742 1793.13 Q259.57 1796.67 263.182 1796.67 Q266.816 1796.67 268.621 1793.13 Q270.45 1789.56 270.45 1782.45 Q270.45 1775.32 268.621 1771.78 Q266.816 1768.22 263.182 1768.22 M263.182 1764.51 Q268.992 1764.51 272.047 1769.12 Q275.126 1773.7 275.126 1782.45 Q275.126 1791.18 272.047 1795.79 Q268.992 1800.37 263.182 1800.37 Q257.371 1800.37 254.293 1795.79 Q251.237 1791.18 251.237 1782.45 Q251.237 1773.7 254.293 1769.12 Q257.371 1764.51 263.182 1764.51 Z" fill="#000000" fill-rule="nonzero" fill-opacity="1" /><path clip-path="url(#clip500)" d="M311.515 1774.24 L300.936 1784.86 L311.515 1795.44 L308.76 1798.24 L298.135 1787.62 L287.51 1798.24 L284.779 1795.44 L295.334 1784.86 L284.779 1774.24 L287.51 1771.44 L298.135 1782.06 L308.76 1771.44 L311.515 1774.24 Z" fill="#000000" fill-rule="nonzero" fill-opacity="1" /><path clip-path="url(#clip500)" d="M323.876 1795.76 L331.514 1795.76 L331.514 1769.4 L323.204 1771.07 L323.204 1766.81 L331.468 1765.14 L336.144 1765.14 L336.144 1795.76 L343.783 1795.76 L343.783 1799.7 L323.876 1799.7 L323.876 1795.76 Z" fill="#000000" fill-rule="nonzero" fill-opacity="1" /><path clip-path="url(#clip500)" d="M363.227 1768.22 Q359.616 1768.22 357.787 1771.78 Q355.982 1775.32 355.982 1782.45 Q355.982 1789.56 357.787 1793.13 Q359.616 1796.67 363.227 1796.67 Q366.862 1796.67 368.667 1793.13 Q370.496 1789.56 370.496 1782.45 Q370.496 1775.32 368.667 1771.78 Q366.862 1768.22 363.227 1768.22 M363.227 1764.51 Q369.037 1764.51 372.093 1769.12 Q375.172 1773.7 375.172 1782.45 Q375.172 1791.18 372.093 1795.79 Q369.037 1800.37 363.227 1800.37 Q357.417 1800.37 354.338 1795.79 Q351.283 1791.18 351.283 1782.45 Q351.283 1773.7 354.338 1769.12 Q357.417 1764.51 363.227 1764.51 Z" fill="#000000" fill-rule="nonzero" fill-opacity="1" /><path clip-path="url(#clip500)" d="M385.196 1756.74 Q382.638 1756.74 381.134 1758.48 Q379.648 1760.23 379.648 1763.28 Q379.648 1766.31 381.134 1768.08 Q382.638 1769.83 385.196 1769.83 Q387.754 1769.83 389.24 1768.08 Q390.744 1766.31 390.744 1763.28 Q390.744 1760.23 389.24 1758.48 Q387.754 1756.74 385.196 1756.74 M392.738 1744.83 L392.738 1748.29 Q391.309 1747.61 389.842 1747.26 Q388.394 1746.9 386.964 1746.9 Q383.203 1746.9 381.209 1749.44 Q379.234 1751.98 378.952 1757.11 Q380.062 1755.47 381.736 1754.61 Q383.409 1753.73 385.422 1753.73 Q389.654 1753.73 392.099 1756.3 Q394.562 1758.86 394.562 1763.28 Q394.562 1767.61 392.005 1770.22 Q389.447 1772.83 385.196 1772.83 Q380.325 1772.83 377.748 1769.11 Q375.172 1765.37 375.172 1758.28 Q375.172 1751.62 378.331 1747.67 Q381.491 1743.7 386.814 1743.7 Q388.243 1743.7 389.691 1743.98 Q391.158 1744.27 392.738 1744.83 Z" fill="#000000" fill-rule="nonzero" fill-opacity="1" /><path clip-path="url(#clip500)" d="M139.243 1453.09 L168.918 1453.09 L168.918 1457.03 L139.243 1457.03 L139.243 1453.09 Z" fill="#000000" fill-rule="nonzero" fill-opacity="1" /><path clip-path="url(#clip500)" d="M179.057 1435.36 L197.414 1435.36 L197.414 1439.29 L183.34 1439.29 L183.34 1447.77 Q184.358 1447.42 185.377 1447.26 Q186.395 1447.07 187.414 1447.07 Q193.201 1447.07 196.58 1450.24 Q199.96 1453.41 199.96 1458.83 Q199.96 1464.41 196.488 1467.51 Q193.016 1470.59 186.696 1470.59 Q184.52 1470.59 182.252 1470.22 Q180.006 1469.85 177.599 1469.11 L177.599 1464.41 Q179.682 1465.54 181.904 1466.1 Q184.127 1466.66 186.604 1466.66 Q190.608 1466.66 192.946 1464.55 Q195.284 1462.44 195.284 1458.83 Q195.284 1455.22 192.946 1453.11 Q190.608 1451.01 186.604 1451.01 Q184.729 1451.01 182.854 1451.42 Q181.002 1451.84 179.057 1452.72 L179.057 1435.36 Z" fill="#000000" fill-rule="nonzero" fill-opacity="1" /><path clip-path="url(#clip500)" d="M209.173 1464.04 L214.057 1464.04 L214.057 1469.92 L209.173 1469.92 L209.173 1464.04 Z" fill="#000000" fill-rule="nonzero" fill-opacity="1" /><path clip-path="url(#clip500)" d="M234.242 1438.44 Q230.631 1438.44 228.802 1442 Q226.997 1445.54 226.997 1452.67 Q226.997 1459.78 228.802 1463.35 Q230.631 1466.89 234.242 1466.89 Q237.876 1466.89 239.682 1463.35 Q241.511 1459.78 241.511 1452.67 Q241.511 1445.54 239.682 1442 Q237.876 1438.44 234.242 1438.44 M234.242 1434.73 Q240.052 1434.73 243.108 1439.34 Q246.187 1443.92 246.187 1452.67 Q246.187 1461.4 243.108 1466.01 Q240.052 1470.59 234.242 1470.59 Q228.432 1470.59 225.353 1466.01 Q222.298 1461.4 222.298 1452.67 Q222.298 1443.92 225.353 1439.34 Q228.432 1434.73 234.242 1434.73 Z" fill="#000000" fill-rule="nonzero" fill-opacity="1" /><path clip-path="url(#clip500)" d="M264.404 1438.44 Q260.793 1438.44 258.964 1442 Q257.159 1445.54 257.159 1452.67 Q257.159 1459.78 258.964 1463.35 Q260.793 1466.89 264.404 1466.89 Q268.038 1466.89 269.844 1463.35 Q271.673 1459.78 271.673 1452.67 Q271.673 1445.54 269.844 1442 Q268.038 1438.44 264.404 1438.44 M264.404 1434.73 Q270.214 1434.73 273.27 1439.34 Q276.348 1443.92 276.348 1452.67 Q276.348 1461.4 273.27 1466.01 Q270.214 1470.59 264.404 1470.59 Q258.594 1470.59 255.515 1466.01 Q252.46 1461.4 252.46 1452.67 Q252.46 1443.92 255.515 1439.34 Q258.594 1434.73 264.404 1434.73 Z" fill="#000000" fill-rule="nonzero" fill-opacity="1" /><path clip-path="url(#clip500)" d="M312.737 1444.46 L302.158 1455.08 L312.737 1465.66 L309.982 1468.46 L299.358 1457.84 L288.733 1468.46 L286.001 1465.66 L296.557 1455.08 L286.001 1444.46 L288.733 1441.66 L299.358 1452.28 L309.982 1441.66 L312.737 1444.46 Z" fill="#000000" fill-rule="nonzero" fill-opacity="1" /><path clip-path="url(#clip500)" d="M325.098 1465.98 L332.737 1465.98 L332.737 1439.62 L324.427 1441.28 L324.427 1437.03 L332.691 1435.36 L337.367 1435.36 L337.367 1465.98 L345.005 1465.98 L345.005 1469.92 L325.098 1469.92 L325.098 1465.98 Z" fill="#000000" fill-rule="nonzero" fill-opacity="1" /><path clip-path="url(#clip500)" d="M364.45 1438.44 Q360.839 1438.44 359.01 1442 Q357.204 1445.54 357.204 1452.67 Q357.204 1459.78 359.01 1463.35 Q360.839 1466.89 364.45 1466.89 Q368.084 1466.89 369.89 1463.35 Q371.718 1459.78 371.718 1452.67 Q371.718 1445.54 369.89 1442 Q368.084 1438.44 364.45 1438.44 M364.45 1434.73 Q370.26 1434.73 373.315 1439.34 Q376.394 1443.92 376.394 1452.67 Q376.394 1461.4 373.315 1466.01 Q370.26 1470.59 364.45 1470.59 Q358.64 1470.59 355.561 1466.01 Q352.505 1461.4 352.505 1452.67 Q352.505 1443.92 355.561 1439.34 Q358.64 1434.73 364.45 1434.73 Z" fill="#000000" fill-rule="nonzero" fill-opacity="1" /><path clip-path="url(#clip500)" d="M377.579 1414.43 L392.494 1414.43 L392.494 1417.63 L381.058 1417.63 L381.058 1424.51 Q381.886 1424.23 382.714 1424.1 Q383.541 1423.95 384.369 1423.95 Q389.071 1423.95 391.817 1426.52 Q394.562 1429.1 394.562 1433.5 Q394.562 1438.03 391.741 1440.55 Q388.92 1443.05 383.786 1443.05 Q382.018 1443.05 380.175 1442.75 Q378.35 1442.45 376.394 1441.85 L376.394 1438.03 Q378.087 1438.95 379.892 1439.41 Q381.698 1439.86 383.71 1439.86 Q386.964 1439.86 388.864 1438.15 Q390.763 1436.43 390.763 1433.5 Q390.763 1430.57 388.864 1428.85 Q386.964 1427.14 383.71 1427.14 Q382.187 1427.14 380.664 1427.48 Q379.159 1427.82 377.579 1428.53 L377.579 1414.43 Z" fill="#000000" fill-rule="nonzero" fill-opacity="1" /><path clip-path="url(#clip500)" d="M382.618 1102.21 Q379.007 1102.21 377.178 1105.77 Q375.373 1109.32 375.373 1116.45 Q375.373 1123.55 377.178 1127.12 Q379.007 1130.66 382.618 1130.66 Q386.252 1130.66 388.058 1127.12 Q389.887 1123.55 389.887 1116.45 Q389.887 1109.32 388.058 1105.77 Q386.252 1102.21 382.618 1102.21 M382.618 1098.51 Q388.428 1098.51 391.484 1103.11 Q394.562 1107.7 394.562 1116.45 Q394.562 1125.17 391.484 1129.78 Q388.428 1134.36 382.618 1134.36 Q376.808 1134.36 373.729 1129.78 Q370.674 1125.17 370.674 1116.45 Q370.674 1107.7 373.729 1103.11 Q376.808 1098.51 382.618 1098.51 Z" fill="#000000" fill-rule="nonzero" fill-opacity="1" /><path clip-path="url(#clip500)" d="M179.057 775.798 L197.414 775.798 L197.414 779.733 L183.34 779.733 L183.34 788.206 Q184.358 787.858 185.377 787.696 Q186.395 787.511 187.414 787.511 Q193.201 787.511 196.58 790.682 Q199.96 793.854 199.96 799.27 Q199.96 804.849 196.488 807.951 Q193.016 811.029 186.696 811.029 Q184.52 811.029 182.252 810.659 Q180.006 810.289 177.599 809.548 L177.599 804.849 Q179.682 805.983 181.904 806.539 Q184.127 807.094 186.604 807.094 Q190.608 807.094 192.946 804.988 Q195.284 802.881 195.284 799.27 Q195.284 795.659 192.946 793.553 Q190.608 791.446 186.604 791.446 Q184.729 791.446 182.854 791.863 Q181.002 792.28 179.057 793.159 L179.057 775.798 Z" fill="#000000" fill-rule="nonzero" fill-opacity="1" /><path clip-path="url(#clip500)" d="M209.173 804.479 L214.057 804.479 L214.057 810.358 L209.173 810.358 L209.173 804.479 Z" fill="#000000" fill-rule="nonzero" fill-opacity="1" /><path clip-path="url(#clip500)" d="M234.242 778.877 Q230.631 778.877 228.802 782.442 Q226.997 785.983 226.997 793.113 Q226.997 800.219 228.802 803.784 Q230.631 807.326 234.242 807.326 Q237.876 807.326 239.682 803.784 Q241.511 800.219 241.511 793.113 Q241.511 785.983 239.682 782.442 Q237.876 778.877 234.242 778.877 M234.242 775.173 Q240.052 775.173 243.108 779.78 Q246.187 784.363 246.187 793.113 Q246.187 801.84 243.108 806.446 Q240.052 811.029 234.242 811.029 Q228.432 811.029 225.353 806.446 Q222.298 801.84 222.298 793.113 Q222.298 784.363 225.353 779.78 Q228.432 775.173 234.242 775.173 Z" fill="#000000" fill-rule="nonzero" fill-opacity="1" /><path clip-path="url(#clip500)" d="M264.404 778.877 Q260.793 778.877 258.964 782.442 Q257.159 785.983 257.159 793.113 Q257.159 800.219 258.964 803.784 Q260.793 807.326 264.404 807.326 Q268.038 807.326 269.844 803.784 Q271.673 800.219 271.673 793.113 Q271.673 785.983 269.844 782.442 Q268.038 778.877 264.404 778.877 M264.404 775.173 Q270.214 775.173 273.27 779.78 Q276.348 784.363 276.348 793.113 Q276.348 801.84 273.27 806.446 Q270.214 811.029 264.404 811.029 Q258.594 811.029 255.515 806.446 Q252.46 801.84 252.46 793.113 Q252.46 784.363 255.515 779.78 Q258.594 775.173 264.404 775.173 Z" fill="#000000" fill-rule="nonzero" fill-opacity="1" /><path clip-path="url(#clip500)" d="M312.737 784.895 L302.158 795.52 L312.737 806.099 L309.982 808.9 L299.358 798.275 L288.733 808.9 L286.001 806.099 L296.557 795.52 L286.001 784.895 L288.733 782.094 L299.358 792.719 L309.982 782.094 L312.737 784.895 Z" fill="#000000" fill-rule="nonzero" fill-opacity="1" /><path clip-path="url(#clip500)" d="M325.098 806.423 L332.737 806.423 L332.737 780.057 L324.427 781.724 L324.427 777.465 L332.691 775.798 L337.367 775.798 L337.367 806.423 L345.005 806.423 L345.005 810.358 L325.098 810.358 L325.098 806.423 Z" fill="#000000" fill-rule="nonzero" fill-opacity="1" /><path clip-path="url(#clip500)" d="M364.45 778.877 Q360.839 778.877 359.01 782.442 Q357.204 785.983 357.204 793.113 Q357.204 800.219 359.01 803.784 Q360.839 807.326 364.45 807.326 Q368.084 807.326 369.89 803.784 Q371.718 800.219 371.718 793.113 Q371.718 785.983 369.89 782.442 Q368.084 778.877 364.45 778.877 M364.45 775.173 Q370.26 775.173 373.315 779.78 Q376.394 784.363 376.394 793.113 Q376.394 801.84 373.315 806.446 Q370.26 811.029 364.45 811.029 Q358.64 811.029 355.561 806.446 Q352.505 801.84 352.505 793.113 Q352.505 784.363 355.561 779.78 Q358.64 775.173 364.45 775.173 Z" fill="#000000" fill-rule="nonzero" fill-opacity="1" /><path clip-path="url(#clip500)" d="M377.579 754.868 L392.494 754.868 L392.494 758.065 L381.058 758.065 L381.058 764.949 Q381.886 764.667 382.714 764.535 Q383.541 764.385 384.369 764.385 Q389.071 764.385 391.817 766.961 Q394.562 769.538 394.562 773.939 Q394.562 778.472 391.741 780.992 Q388.92 783.493 383.786 783.493 Q382.018 783.493 380.175 783.192 Q378.35 782.891 376.394 782.29 L376.394 778.472 Q378.087 779.393 379.892 779.845 Q381.698 780.296 383.71 780.296 Q386.964 780.296 388.864 778.584 Q390.763 776.873 390.763 773.939 Q390.763 771.005 388.864 769.293 Q386.964 767.582 383.71 767.582 Q382.187 767.582 380.664 767.92 Q379.159 768.259 377.579 768.974 L377.579 754.868 Z" fill="#000000" fill-rule="nonzero" fill-opacity="1" /><path clip-path="url(#clip500)" d="M178.599 476.643 L186.237 476.643 L186.237 450.277 L177.927 451.944 L177.927 447.684 L186.191 446.018 L190.867 446.018 L190.867 476.643 L198.506 476.643 L198.506 480.578 L178.599 480.578 L178.599 476.643 Z" fill="#000000" fill-rule="nonzero" fill-opacity="1" /><path clip-path="url(#clip500)" d="M207.95 474.698 L212.835 474.698 L212.835 480.578 L207.95 480.578 L207.95 474.698 Z" fill="#000000" fill-rule="nonzero" fill-opacity="1" /><path clip-path="url(#clip500)" d="M233.02 449.096 Q229.409 449.096 227.58 452.661 Q225.774 456.203 225.774 463.332 Q225.774 470.439 227.58 474.004 Q229.409 477.545 233.02 477.545 Q236.654 477.545 238.459 474.004 Q240.288 470.439 240.288 463.332 Q240.288 456.203 238.459 452.661 Q236.654 449.096 233.02 449.096 M233.02 445.393 Q238.83 445.393 241.885 449.999 Q244.964 454.583 244.964 463.332 Q244.964 472.059 241.885 476.666 Q238.83 481.249 233.02 481.249 Q227.209 481.249 224.131 476.666 Q221.075 472.059 221.075 463.332 Q221.075 454.583 224.131 449.999 Q227.209 445.393 233.02 445.393 Z" fill="#000000" fill-rule="nonzero" fill-opacity="1" /><path clip-path="url(#clip500)" d="M263.182 449.096 Q259.57 449.096 257.742 452.661 Q255.936 456.203 255.936 463.332 Q255.936 470.439 257.742 474.004 Q259.57 477.545 263.182 477.545 Q266.816 477.545 268.621 474.004 Q270.45 470.439 270.45 463.332 Q270.45 456.203 268.621 452.661 Q266.816 449.096 263.182 449.096 M263.182 445.393 Q268.992 445.393 272.047 449.999 Q275.126 454.583 275.126 463.332 Q275.126 472.059 272.047 476.666 Q268.992 481.249 263.182 481.249 Q257.371 481.249 254.293 476.666 Q251.237 472.059 251.237 463.332 Q251.237 454.583 254.293 449.999 Q257.371 445.393 263.182 445.393 Z" fill="#000000" fill-rule="nonzero" fill-opacity="1" /><path clip-path="url(#clip500)" d="M311.515 455.115 L300.936 465.74 L311.515 476.319 L308.76 479.119 L298.135 468.495 L287.51 479.119 L284.779 476.319 L295.334 465.74 L284.779 455.115 L287.51 452.314 L298.135 462.939 L308.76 452.314 L311.515 455.115 Z" fill="#000000" fill-rule="nonzero" fill-opacity="1" /><path clip-path="url(#clip500)" d="M323.876 476.643 L331.514 476.643 L331.514 450.277 L323.204 451.944 L323.204 447.684 L331.468 446.018 L336.144 446.018 L336.144 476.643 L343.783 476.643 L343.783 480.578 L323.876 480.578 L323.876 476.643 Z" fill="#000000" fill-rule="nonzero" fill-opacity="1" /><path clip-path="url(#clip500)" d="M363.227 449.096 Q359.616 449.096 357.787 452.661 Q355.982 456.203 355.982 463.332 Q355.982 470.439 357.787 474.004 Q359.616 477.545 363.227 477.545 Q366.862 477.545 368.667 474.004 Q370.496 470.439 370.496 463.332 Q370.496 456.203 368.667 452.661 Q366.862 449.096 363.227 449.096 M363.227 445.393 Q369.037 445.393 372.093 449.999 Q375.172 454.583 375.172 463.332 Q375.172 472.059 372.093 476.666 Q369.037 481.249 363.227 481.249 Q357.417 481.249 354.338 476.666 Q351.283 472.059 351.283 463.332 Q351.283 454.583 354.338 449.999 Q357.417 445.393 363.227 445.393 Z" fill="#000000" fill-rule="nonzero" fill-opacity="1" /><path clip-path="url(#clip500)" d="M385.196 437.613 Q382.638 437.613 381.134 439.362 Q379.648 441.112 379.648 444.158 Q379.648 447.186 381.134 448.954 Q382.638 450.704 385.196 450.704 Q387.754 450.704 389.24 448.954 Q390.744 447.186 390.744 444.158 Q390.744 441.112 389.24 439.362 Q387.754 437.613 385.196 437.613 M392.738 425.708 L392.738 429.169 Q391.309 428.492 389.842 428.134 Q388.394 427.777 386.964 427.777 Q383.203 427.777 381.209 430.316 Q379.234 432.855 378.952 437.989 Q380.062 436.353 381.736 435.488 Q383.409 434.604 385.422 434.604 Q389.654 434.604 392.099 437.181 Q394.562 439.739 394.562 444.158 Q394.562 448.484 392.005 451.099 Q389.447 453.713 385.196 453.713 Q380.325 453.713 377.748 449.989 Q375.172 446.246 375.172 439.156 Q375.172 432.498 378.331 428.548 Q381.491 424.58 386.814 424.58 Q388.243 424.58 389.691 424.862 Q391.158 425.144 392.738 425.708 Z" fill="#000000" fill-rule="nonzero" fill-opacity="1" /><path clip-path="url(#clip500)" d="M178.599 146.862 L186.237 146.862 L186.237 120.497 L177.927 122.163 L177.927 117.904 L186.191 116.237 L190.867 116.237 L190.867 146.862 L198.506 146.862 L198.506 150.797 L178.599 150.797 L178.599 146.862 Z" fill="#000000" fill-rule="nonzero" fill-opacity="1" /><path clip-path="url(#clip500)" d="M207.95 144.918 L212.835 144.918 L212.835 150.797 L207.95 150.797 L207.95 144.918 Z" fill="#000000" fill-rule="nonzero" fill-opacity="1" /><path clip-path="url(#clip500)" d="M223.066 116.237 L241.422 116.237 L241.422 120.172 L227.348 120.172 L227.348 128.645 Q228.367 128.297 229.385 128.135 Q230.404 127.95 231.422 127.95 Q237.209 127.95 240.589 131.122 Q243.969 134.293 243.969 139.709 Q243.969 145.288 240.496 148.39 Q237.024 151.469 230.705 151.469 Q228.529 151.469 226.26 151.098 Q224.015 150.728 221.608 149.987 L221.608 145.288 Q223.691 146.422 225.913 146.978 Q228.135 147.533 230.612 147.533 Q234.617 147.533 236.955 145.427 Q239.293 143.321 239.293 139.709 Q239.293 136.098 236.955 133.992 Q234.617 131.885 230.612 131.885 Q228.737 131.885 226.862 132.302 Q225.01 132.719 223.066 133.598 L223.066 116.237 Z" fill="#000000" fill-rule="nonzero" fill-opacity="1" /><path clip-path="url(#clip500)" d="M263.182 119.316 Q259.57 119.316 257.742 122.881 Q255.936 126.422 255.936 133.552 Q255.936 140.659 257.742 144.223 Q259.57 147.765 263.182 147.765 Q266.816 147.765 268.621 144.223 Q270.45 140.659 270.45 133.552 Q270.45 126.422 268.621 122.881 Q266.816 119.316 263.182 119.316 M263.182 115.612 Q268.992 115.612 272.047 120.219 Q275.126 124.802 275.126 133.552 Q275.126 142.279 272.047 146.885 Q268.992 151.469 263.182 151.469 Q257.371 151.469 254.293 146.885 Q251.237 142.279 251.237 133.552 Q251.237 124.802 254.293 120.219 Q257.371 115.612 263.182 115.612 Z" fill="#000000" fill-rule="nonzero" fill-opacity="1" /><path clip-path="url(#clip500)" d="M311.515 125.335 L300.936 135.959 L311.515 146.538 L308.76 149.339 L298.135 138.714 L287.51 149.339 L284.779 146.538 L295.334 135.959 L284.779 125.335 L287.51 122.534 L298.135 133.159 L308.76 122.534 L311.515 125.335 Z" fill="#000000" fill-rule="nonzero" fill-opacity="1" /><path clip-path="url(#clip500)" d="M323.876 146.862 L331.514 146.862 L331.514 120.497 L323.204 122.163 L323.204 117.904 L331.468 116.237 L336.144 116.237 L336.144 146.862 L343.783 146.862 L343.783 150.797 L323.876 150.797 L323.876 146.862 Z" fill="#000000" fill-rule="nonzero" fill-opacity="1" /><path clip-path="url(#clip500)" d="M363.227 119.316 Q359.616 119.316 357.787 122.881 Q355.982 126.422 355.982 133.552 Q355.982 140.659 357.787 144.223 Q359.616 147.765 363.227 147.765 Q366.862 147.765 368.667 144.223 Q370.496 140.659 370.496 133.552 Q370.496 126.422 368.667 122.881 Q366.862 119.316 363.227 119.316 M363.227 115.612 Q369.037 115.612 372.093 120.219 Q375.172 124.802 375.172 133.552 Q375.172 142.279 372.093 146.885 Q369.037 151.469 363.227 151.469 Q357.417 151.469 354.338 146.885 Q351.283 142.279 351.283 133.552 Q351.283 124.802 354.338 120.219 Q357.417 115.612 363.227 115.612 Z" fill="#000000" fill-rule="nonzero" fill-opacity="1" /><path clip-path="url(#clip500)" d="M385.196 107.833 Q382.638 107.833 381.134 109.582 Q379.648 111.331 379.648 114.378 Q379.648 117.406 381.134 119.174 Q382.638 120.923 385.196 120.923 Q387.754 120.923 389.24 119.174 Q390.744 117.406 390.744 114.378 Q390.744 111.331 389.24 109.582 Q387.754 107.833 385.196 107.833 M392.738 95.9276 L392.738 99.3882 Q391.309 98.7111 389.842 98.3538 Q388.394 97.9964 386.964 97.9964 Q383.203 97.9964 381.209 100.535 Q379.234 103.075 378.952 108.209 Q380.062 106.573 381.736 105.708 Q383.409 104.824 385.422 104.824 Q389.654 104.824 392.099 107.4 Q394.562 109.958 394.562 114.378 Q394.562 118.704 392.005 121.318 Q389.447 123.932 385.196 123.932 Q380.325 123.932 377.748 120.208 Q375.172 116.466 375.172 109.375 Q375.172 102.717 378.331 98.7676 Q381.491 94.7991 386.814 94.7991 Q388.243 94.7991 389.691 95.0812 Q391.158 95.3634 392.738 95.9276 Z" fill="#000000" fill-rule="nonzero" fill-opacity="1" /><path clip-path="url(#clip500)" d="M40.2442 1203.94 L40.2442 1197.03 L59.7869 1183.85 L40.2442 1170.77 L40.2442 1163.86 L65.1341 1180.67 L87.7642 1180.67 L87.7642 1187.13 L65.1341 1187.13 L40.2442 1203.94 Z" fill="#000000" fill-rule="nonzero" fill-opacity="1" /><path clip-path="url(#clip500)" d="M38.3026 1123.06 Q45.6232 1127.32 52.7846 1129.39 Q59.946 1131.46 67.2984 1131.46 Q74.6508 1131.46 81.8759 1129.39 Q89.0691 1127.29 96.3579 1123.06 L96.3579 1128.15 Q88.8782 1132.93 81.6531 1135.31 Q74.428 1137.67 67.2984 1137.67 Q60.2006 1137.67 53.0074 1135.31 Q45.8142 1132.96 38.3026 1128.15 L38.3026 1123.06 Z" fill="#000000" fill-rule="nonzero" fill-opacity="1" /><path clip-path="url(#clip500)" d="M40.2442 1111.44 L40.2442 1105.01 L60.328 1105.01 L40.2442 1083.69 L40.2442 1075.41 L62.3968 1099 L87.7642 1073.73 L87.7642 1082.19 L64.8794 1105.01 L87.7642 1105.01 L87.7642 1111.44 L40.2442 1111.44 Z" fill="#000000" fill-rule="nonzero" fill-opacity="1" /><path clip-path="url(#clip500)" d="M40.2442 1068.7 L40.2442 1059.12 L72.5819 1046.99 L40.2442 1034.8 L40.2442 1025.22 L87.7642 1025.22 L87.7642 1031.49 L46.037 1031.49 L78.6294 1043.74 L78.6294 1050.2 L46.037 1062.46 L87.7642 1062.46 L87.7642 1068.7 L40.2442 1068.7 Z" fill="#000000" fill-rule="nonzero" fill-opacity="1" /><path clip-path="url(#clip500)" d="M38.3026 1013.63 L38.3026 1008.54 Q45.8142 1003.77 53.0074 1001.41 Q60.2006 999.024 67.2984 999.024 Q74.428 999.024 81.6531 1001.41 Q88.8782 1003.77 96.3579 1008.54 L96.3579 1013.63 Q89.0691 1009.4 81.8759 1007.33 Q74.6508 1005.23 67.2984 1005.23 Q59.946 1005.23 52.7846 1007.33 Q45.6232 1009.4 38.3026 1013.63 Z" fill="#000000" fill-rule="nonzero" fill-opacity="1" /><polyline clip-path="url(#clip502)" style="stroke:#1f83ff; stroke-linecap:round; stroke-linejoin:round; stroke-width:4; stroke-opacity:1; fill:none" points="489.1,1000.72 487.425,1018.35 486.172,1036.07 485.353,1053.82 484.964,1071.56 484.991,1089.23 485.406,1106.78 486.177,1124.19 487.267,1141.44 488.639,1158.52 490.261,1175.42 492.101,1192.16 494.133,1208.75 496.336,1225.2 498.692,1241.54 501.189,1257.79 503.822,1273.97 506.588,1290.12 509.49,1306.24 512.537,1322.37 515.743,1338.54 519.124,1354.75 522.703,1371.02 526.504,1387.36 530.556,1403.77 534.889,1420.26 539.537,1436.81 544.529,1453.4 549.897,1470.01 555.665,1486.58 561.846,1503.08 568.444,1519.45 575.448,1535.64 582.835,1551.6 590.572,1567.29 598.618,1582.68 606.933,1597.77 615.478,1612.55 624.216,1627.02 633.116,1641.19 642.155,1655.1 651.31,1668.75 660.568,1682.18 669.919,1695.4 679.357,1708.44 688.884,1721.34 698.503,1734.1 708.227,1746.76 718.068,1759.33 728.046,1771.84 738.185,1784.29 748.509,1796.69 759.047,1809.03 769.828,1821.32 780.88,1833.53 792.229,1845.64 803.897,1857.61 815.901,1869.41 828.245,1880.98 840.923,1892.29 853.919,1903.27 867.202,1913.88 880.733,1924.1 894.471,1933.91 908.369,1943.29 922.388,1952.26 936.49,1960.82 950.646,1969 964.83,1976.82 979.025,1984.3 993.218,1991.47 1007.4,1998.37 1021.57,2005.01 1035.74,2011.42 1049.9,2017.64 1064.06,2023.67 1078.26,2029.55 1092.5,2035.28 1106.81,2040.88 1121.23,2046.35 1135.76,2051.68 1150.46,2056.87 1165.33,2061.88 1180.4,2066.69 1195.68,2071.27 1211.19,2075.56 1226.91,2079.54 1242.83,2083.15 1258.93,2086.36 1275.17,2089.13 1291.52,2091.43 1307.93,2093.27 1324.35,2094.63 1340.74,2095.53 1357.07,2095.99 1373.31,2096.04 1389.44,2095.7 1405.44,2095.01 1421.3,2093.99 1437.02,2092.68 1452.6,2091.11 1468.04,2089.29 1483.36,2087.27 1498.56,2085.07 1513.67,2082.69 1528.71,2080.17 1543.71,2077.49 1558.69,2074.68 1573.69,2071.71 1588.72,2068.58 1603.82,2065.24 1619,2061.68 1634.27,2057.85 1649.62,2053.71 1665.04,2049.22 1680.51,2044.34 1696,2039.05 1711.47,2033.33 1726.89,2027.15 1742.2,2020.53 1757.38,2013.46 1772.37,2005.97 1787.16,1998.08 1801.71,1989.82 1816,1981.24 1830.04,1972.35 1843.8,1963.2 1857.29,1953.81 1870.52,1944.23 1883.49,1934.47 1896.21,1924.57 1908.71,1914.55 1921.01,1904.42 1933.13,1894.21 1945.1,1883.91 1956.95,1873.52 1968.71,1863.04 1980.42,1852.45 1992.08,1841.7 2003.72,1830.76 2015.32,1819.6 2026.89,1808.18 2038.41,1796.45 2049.84,1784.39 2061.15,1771.98 2072.3,1759.21 2083.26,1746.07 2093.98,1732.58 2104.44,1718.75 2114.59,1704.6 2124.42,1690.18 2133.9,1675.5 2143.03,1660.61 2151.79,1645.55 2160.19,1630.34 2168.22,1615.02 2175.91,1599.64 2183.27,1584.2 2190.3,1568.74 2197.04,1553.28 2203.51,1537.84 2209.74,1522.43 2215.75,1507.05 2221.59,1491.7 2227.28,1476.36 2232.85,1461.01 2238.32,1445.6 2243.69,1430.11 2248.97,1414.49 2254.14,1398.7 2259.17,1382.71 2264.03,1366.49 2268.69,1350.04 2273.1,1333.35 2277.22,1316.43 2281.04,1299.3 2284.51,1281.97 2287.62,1264.49 2290.34,1246.89 2292.67,1229.19 2294.59,1211.44 2296.11,1193.67 2297.23,1175.92 2297.97,1158.21 2298.34,1140.59 2298.35,1123.08 2298.04,1105.7 2297.42,1088.46 2296.53,1071.39 2295.39,1054.49 2294.05,1037.75 2292.52,1021.17 2290.85,1004.73 2289.06,988.397 2287.16,972.137 2285.16,955.907 2283.06,939.663 2280.83,923.366 2278.44,906.988 2275.87,890.511 2273.06,873.93 2269.99,857.252 2266.61,840.493 2262.91,823.674 2258.86,806.826 2254.44,789.979 2249.64,773.168 2244.46,756.429 2238.9,739.798 2232.96,723.309 2226.66,706.996 2220.01,690.888 2213.04,675.013 2205.76,659.393 2198.2,644.047 2190.4,628.988 2182.38,614.223 2174.18,599.752 2165.83,585.568 2157.37,571.656 2148.81,557.991 2140.2,544.541 2131.52,531.266 2122.8,518.121 2114.02,505.065 2105.15,492.061 2096.17,479.082 2087.02,466.115 2077.69,453.161 2068.12,440.232 2058.3,427.348 2048.19,414.538 2037.78,401.832 2027.06,389.264 2016.03,376.868 2004.68,364.679 1993.03,352.73 1981.09,341.053 1968.87,329.677 1956.39,318.628 1943.69,307.93 1930.77,297.599 1917.69,287.649 1904.47,278.085 1891.14,268.908 1877.74,260.11 1864.3,251.676 1850.86,243.584 1837.42,235.804 1824.02,228.299 1810.65,221.028 1797.33,213.947 1784.02,207.016 1770.71,200.202 1757.35,193.481 1743.92,186.846 1730.37,180.301 1716.68,173.862 1702.8,167.553 1688.73,161.404 1674.45,155.448 1659.96,149.719 1645.26,144.249 1630.36,139.071 1615.26,134.216 1599.98,129.711 1584.55,125.581 1568.99,121.848 1553.32,118.53 1537.58,115.637 1521.81,113.176 1506.03,111.147 1490.29,109.54 1474.6,108.34 1459.02,107.525 1443.55,107.062 1428.22,106.918 1413.04,107.051 1398.01,107.418 1383.12,107.979 1368.34,108.698 1353.66,109.545 1339.03,110.503 1324.42,111.569 1309.78,112.751 1295.1,114.067 1280.35,115.543 1265.5,117.211 1250.56,119.104 1235.53,121.253 1220.4,123.691 1205.19,126.447 1189.91,129.547 1174.59,133.016 1159.24,136.874 1143.9,141.137 1128.59,145.818 1113.35,150.921 1098.21,156.447 1083.21,162.387 1068.38,168.724 1053.76,175.434 1039.37,182.485 1025.22,189.84 1011.34,197.457 997.713,205.293 984.344,213.306 971.212,221.457 958.29,229.715 945.546,238.059 932.945,246.478 920.451,254.973 908.032,263.555 895.66,272.246 883.316,281.073 870.987,290.065 858.668,299.255 846.363,308.674 834.079,318.352 821.83,328.313 809.633,338.582 797.51,349.177 785.486,360.116 773.59,371.408 761.852,383.061 750.306,395.074 738.986,407.44 727.927,420.144 717.161,433.162 706.718,446.462 696.617,460.004 686.871,473.744 677.483,487.636 668.444,501.634 659.738,515.698 651.338,529.794 643.213,543.898 635.329,557.996 627.65,572.084 620.143,586.169 612.779,600.266 605.534,614.398 598.392,628.591 591.344,642.876 584.388,657.283 577.53,671.84 570.779,686.573 564.151,701.507 557.664,716.66 551.342,732.048 545.209,747.681 539.294,763.567 533.627,779.707 528.239,796.094 523.165,812.717 518.436,829.555 514.081,846.576 510.123,863.744 506.579,881.011 503.452,898.33 500.736,915.65 498.413,932.926 496.456,950.121 494.831,967.207 493.501,984.166 492.43,1000.99 "/>
<polyline clip-path="url(#clip502)" style="stroke:#ca3c32; stroke-linecap:round; stroke-linejoin:round; stroke-width:4; stroke-opacity:1; fill:none" points="1187.57,1237.64 1190.53,1222.79 1193.05,1207.65 1195.13,1192.26 1196.75,1176.67 1197.89,1160.91 1198.56,1145.04 1198.73,1129.1 1198.42,1113.14 1197.62,1097.2 1196.35,1081.34 1194.59,1065.61 1192.37,1050.04 1189.7,1034.68 1186.59,1019.57 1183.06,1004.77 1179.13,990.294 1174.82,976.191 1170.17,962.493 1165.19,949.23 1159.91,936.43 1154.37,924.119 1148.59,912.32 1142.6,901.052 1136.44,890.332 1130.14,880.175 1123.74,870.592 1117.25,861.593 1110.73,853.184 1104.19,845.372 1097.67,838.158 1091.19,831.545 1084.79,825.531 1078.49,820.114 1072.32,815.288 1066.31,811.045 1060.47,807.376 1054.84,804.27 1049.44,801.714 1044.29,799.698 1039.41,798.205 1034.82,797.224 1030.54,796.739 1026.59,796.734 1022.99,797.194 1019.74,798.102 1016.87,799.44 1014.39,801.191 1012.31,803.336 1010.64,805.856 1009.39,808.732 1008.57,811.945 1008.18,815.473 1008.24,819.298 1008.75,823.398 1009.72,827.754 1011.14,832.344 1013.03,837.148 1015.38,842.146 1018.2,847.318 1021.49,852.645 1025.24,858.106 1029.46,863.684 1034.15,869.359 1039.29,875.111 1044.89,880.921 1050.94,886.77 1057.43,892.637 1064.37,898.505 1071.73,904.355 1079.53,910.169 1087.74,915.931 1096.35,921.623 1105.37,927.229 1114.77,932.734 1124.55,938.123 1134.69,943.38 1145.18,948.492 1156.02,953.444 1167.17,958.223 1178.64,962.816 1190.4,967.211 1202.44,971.395 1214.74,975.358 1227.29,979.088 1240.07,982.576 1253.06,985.813 1266.25,988.79 1279.63,991.501 1293.18,993.939 1306.87,996.099 1320.69,997.973 1334.6,999.558 1348.61,1000.85 1362.68,1001.84 1376.79,1002.53 1390.93,1002.92 1405.08,1003.01 1419.22,1002.79 1433.32,1002.27 1447.38,1001.44 1461.37,1000.32 1475.27,998.894 1489.06,997.177 1502.72,995.171 1516.24,992.88 1529.59,990.312 1542.76,987.472 1555.73,984.367 1568.48,981.005 1580.99,977.395 1593.25,973.545 1605.25,969.465 1616.95,965.166 1628.36,960.659 1639.46,955.956 1650.22,951.07 1660.64,946.016 1670.71,940.806 1680.4,935.457 1689.72,929.983 1698.64,924.398 1707.16,918.72 1715.26,912.963 1722.94,907.144 1730.18,901.281 1736.99,895.391 1743.35,889.492 1749.25,883.604 1754.7,877.746 1759.69,871.937 1764.2,866.197 1768.25,860.547 1771.83,855.007 1774.93,849.597 1777.55,844.339 1779.71,839.253 1781.38,834.359 1782.59,829.678 1783.33,825.232 1783.61,821.04 1783.43,817.124 1782.8,813.505 1781.72,810.204 1780.21,807.242 1778.28,804.641 1775.93,802.422 1773.18,800.606 1770.04,799.213 1766.52,798.264 1762.65,797.777 1758.42,797.769 1753.87,798.258 1749.01,799.259 1743.86,800.789 1738.44,802.863 1732.77,805.495 1726.88,808.698 1720.8,812.485 1714.55,816.867 1708.16,821.855 1701.65,827.455 1695.06,833.674 1688.42,840.517 1681.75,847.986 1675.09,856.08 1668.48,864.797 1661.93,874.131 1655.5,884.075 1649.21,894.616 1643.08,905.74 1637.17,917.431 1631.5,929.667 1626.1,942.425 1621.01,955.678 1616.26,969.398 1611.87,983.554 1607.88,998.109 1604.32,1013.03 1601.19,1028.28 1598.54,1043.8 1596.36,1059.58 1594.67,1075.54 1593.48,1091.65 1592.8,1107.86 1592.63,1124.11 1592.97,1140.36 1593.81,1156.55 1595.16,1172.65 1596.99,1188.58 1599.29,1204.32 1602.06,1219.82 1605.27,1235.02 1608.91,1249.9 1612.94,1264.41 1617.34,1278.52 1622.09,1292.2 1627.16,1305.42 1632.52,1318.15 1638.13,1330.37 1643.96,1342.06 1649.99,1353.2 1656.18,1363.77 1662.49,1373.77 1668.89,1383.19 1675.36,1392.02 1681.86,1400.24 1688.36,1407.87 1694.83,1414.9 1701.24,1421.33 1707.57,1427.16 1713.78,1432.4 1719.86,1437.05 1725.78,1441.12 1731.52,1444.63 1737.05,1447.59 1742.35,1450 1747.4,1451.89 1752.18,1453.27 1756.68,1454.14 1760.86,1454.53 1764.73,1454.45 1768.25,1453.92 1771.43,1452.95 1774.24,1451.56 1776.67,1449.77 1778.72,1447.6 1780.38,1445.06 1781.63,1442.17 1782.46,1438.95 1782.88,1435.42 1782.87,1431.6 1782.43,1427.51 1781.55,1423.17 1780.24,1418.6 1778.48,1413.81 1776.27,1408.82 1773.62,1403.66 1770.53,1398.34 1766.99,1392.87 1763,1387.28 1758.58,1381.59 1753.71,1375.8 1748.41,1369.95 1742.68,1364.04 1736.53,1358.1 1729.96,1352.14 1722.97,1346.17 1715.58,1340.23 1707.79,1334.31 1699.6,1328.44 1691.04,1322.63 1682.1,1316.9 1672.79,1311.26 1663.14,1305.72 1653.14,1300.29 1642.81,1295 1632.16,1289.85 1621.21,1284.85 1609.96,1280.01 1598.43,1275.36 1586.64,1270.89 1574.6,1266.62 1562.32,1262.56 1549.82,1258.72 1537.11,1255.09 1524.21,1251.71 1511.14,1248.56 1497.9,1245.65 1484.52,1243 1471.02,1240.6 1457.4,1238.46 1443.69,1236.59 1429.91,1234.98 1416.07,1233.65 1402.19,1232.6 1388.28,1231.82 1374.37,1231.32 1360.46,1231.1 1346.59,1231.16 1332.76,1231.5 1318.99,1232.11 1305.29,1233 1291.7,1234.16 1278.22,1235.58 1264.86,1237.27 1251.66,1239.22 1238.61,1241.43 1225.75,1243.88 1213.07,1246.58 1200.61,1249.52 1188.37,1252.68 1176.38,1256.07 1164.63,1259.67 1153.15,1263.47 1141.96,1267.47 1131.06,1271.65 1120.46,1276 1110.19,1280.51 1100.25,1285.17 1090.66,1289.97 1081.42,1294.89 1072.55,1299.93 1064.06,1305.06 1055.95,1310.28 1048.24,1315.57 1040.93,1320.92 1034.02,1326.3 1027.54,1331.71 1021.48,1337.13 1015.85,1342.53 1010.66,1347.92 1005.9,1353.26 1001.6,1358.54 997.734,1363.74 994.323,1368.85 991.364,1373.85 988.857,1378.71 986.803,1383.43 985.202,1387.98 984.05,1392.35 983.347,1396.51 983.088,1400.44 983.269,1404.14 983.887,1407.56 984.935,1410.71 986.407,1413.55 988.298,1416.06 990.598,1418.24 993.298,1420.06 996.389,1421.5 999.859,1422.55 1003.69,1423.19 1007.88,1423.39 1012.41,1423.15 1017.25,1422.45 1022.4,1421.26 1027.84,1419.57 1033.54,1417.38 1039.49,1414.65 1045.67,1411.39 1052.05,1407.58 1058.61,1403.2 1065.33,1398.24 1072.17,1392.71 1079.12,1386.59 1086.15,1379.87 1093.22,1372.56 1100.31,1364.65 1107.39,1356.15 1114.42,1347.05 1121.37,1337.37 1128.21,1327.11 1134.91,1316.28 1141.43,1304.89 1147.73,1292.96 1153.8,1280.51 1159.58,1267.55 1165.07,1254.11 1170.22,1240.22 1175.02,1225.92 1179.43,1211.23 1183.43,1196.19 1187,1180.84 1190.13,1165.23 1192.78,1149.4 "/>
<polyline clip-path="url(#clip502)" style="stroke:#399746; stroke-linecap:round; stroke-linejoin:round; stroke-width:4; stroke-opacity:1; fill:none" points="1451.68,1003.07 1450.69,1008.8 1449.8,1014.66 1449.02,1020.63 1448.35,1026.71 1447.79,1032.9 1447.35,1039.17 1447.03,1045.52 1446.84,1051.94 1446.78,1058.42 1446.84,1064.96 1447.03,1071.53 1447.35,1078.14 1447.8,1084.77 1448.39,1091.4 1449.1,1098.04 1449.94,1104.67 1450.91,1111.28 1452,1117.85 1453.22,1124.39 1454.57,1130.87 1456.03,1137.29 1457.61,1143.64 1459.31,1149.91 1461.11,1156.09 1463.03,1162.17 1465.05,1168.14 1467.18,1173.99 1469.39,1179.71 1471.7,1185.3 1474.09,1190.75 1476.55,1196.05 1479.09,1201.19 1481.69,1206.16 1484.34,1210.96 1487.05,1215.58 1489.81,1220.01 1492.6,1224.26 1495.42,1228.3 1498.26,1232.14 1501.12,1235.78 1503.98,1239.21 1506.84,1242.42 1509.69,1245.42 1512.52,1248.2 1515.31,1250.76 1518.07,1253.1 1520.78,1255.21 1523.43,1257.09 1526.02,1258.75 1528.53,1260.19 1530.95,1261.4 1533.29,1262.38 1535.52,1263.15 1537.64,1263.69 1539.64,1264.02 1541.52,1264.14 1543.26,1264.05 1544.85,1263.76 1546.29,1263.27 1547.57,1262.59 1548.68,1261.73 1549.61,1260.69 1550.35,1259.48 1550.9,1258.11 1551.25,1256.58 1551.4,1254.91 1551.34,1253.1 1551.07,1251.16 1550.59,1249.11 1549.87,1246.95 1548.94,1244.7 1547.77,1242.36 1546.37,1239.96 1544.74,1237.5 1542.87,1234.99 1540.76,1232.45 1538.42,1229.89 1535.84,1227.33 1533.03,1224.76 1529.98,1222.22 1526.7,1219.7 1523.2,1217.22 1519.48,1214.8 1515.54,1212.45 1511.39,1210.17 1507.04,1207.98 1502.49,1205.9 1497.76,1203.93 1492.84,1202.09 1487.76,1200.39 1482.52,1198.84 1477.12,1197.45 1471.58,1196.22 1465.92,1195.16 1460.14,1194.28 1454.25,1193.58 1448.28,1193.07 1442.24,1192.75 1436.13,1192.62 1429.97,1192.7 1423.79,1192.98 1417.58,1193.46 1411.37,1194.14 1405.17,1195.03 1399,1196.11 1392.87,1197.4 1386.79,1198.88 1380.77,1200.55 1374.83,1202.4 1368.99,1204.43 1363.25,1206.63 1357.62,1208.99 1352.12,1211.5 1346.77,1214.15 1341.56,1216.93 1336.51,1219.83 1331.64,1222.84 1326.94,1225.95 1322.43,1229.14 1318.12,1232.41 1314,1235.74 1310.1,1239.12 1306.4,1242.54 1302.92,1245.99 1299.66,1249.44 1296.61,1252.89 1293.79,1256.31 1291.19,1259.71 1288.81,1263.05 1286.65,1266.34 1284.72,1269.55 1283.01,1272.68 1281.52,1275.71 1280.24,1278.64 1279.18,1281.44 1278.34,1284.11 1277.69,1286.64 1277.25,1289.02 1277,1291.24 1276.94,1293.29 1277.07,1295.15 1277.37,1296.84 1277.83,1298.32 1278.46,1299.6 1279.24,1300.67 1280.16,1301.52 1281.23,1302.15 1282.42,1302.56 1283.73,1302.73 1285.16,1302.66 1286.7,1302.36 1288.33,1301.82 1290.05,1301.04 1291.84,1300.02 1293.71,1298.76 1295.63,1297.25 1297.59,1295.5 1299.6,1293.5 1301.64,1291.26 1303.7,1288.78 1305.77,1286.06 1307.85,1283.11 1309.92,1279.93 1311.98,1276.51 1314.03,1272.88 1316.04,1269.02 1318.02,1264.96 1319.96,1260.68 1321.85,1256.21 1323.68,1251.54 1325.44,1246.69 1327.13,1241.65 1328.75,1236.45 1330.28,1231.07 1331.72,1225.55 1333.07,1219.87 1334.31,1214.05 1335.46,1208.11 1336.5,1202.04 1337.42,1195.86 1338.24,1189.58 1338.94,1183.21 1339.51,1176.75 1339.97,1170.23 1340.29,1163.65 1340.49,1157.02 1340.56,1150.35 1340.5,1143.65 1340.3,1136.93 1339.98,1130.2 1339.52,1123.47 1338.93,1116.75 1338.22,1110.06 1337.37,1103.4 1336.4,1096.78 1335.31,1090.21 1334.09,1083.71 1332.76,1077.28 1331.31,1070.94 1329.75,1064.69 1328.08,1058.54 1326.3,1052.5 1324.42,1046.58 1322.44,1040.79 1320.38,1035.13 1318.22,1029.62 1315.99,1024.26 1313.69,1019.05 1311.32,1014.02 1308.9,1009.15 1306.42,1004.47 1303.89,999.968 1301.32,995.662 1298.72,991.554 1296.1,987.648 1293.45,983.948 1290.8,980.457 1288.14,977.18 1285.49,974.118 1282.85,971.274 1280.23,968.651 1277.65,966.249 1275.1,964.071 1272.61,962.116 1270.17,960.386 1267.79,958.881 1265.49,957.599 1263.28,956.54 1261.15,955.702 1259.12,955.084 1257.19,954.681 1255.38,954.49 1253.69,954.507 1252.13,954.728 1250.71,955.146 1249.44,955.756 1248.32,956.553 1247.36,957.53 1246.57,958.681 1245.96,959.999 1245.52,961.479 1245.27,963.113 1245.22,964.892 1245.36,966.807 1245.7,968.851 1246.24,971.011 1246.99,973.28 1247.95,975.645 1249.12,978.096 1250.51,980.622 1252.12,983.212 1253.94,985.854 1255.99,988.538 1258.26,991.251 1260.75,993.983 1263.46,996.722 1266.39,999.458 1269.53,1002.18 1272.89,1004.87 1276.45,1007.53 1280.22,1010.14 1284.18,1012.68 1288.34,1015.15 1292.68,1017.54 1297.21,1019.84 1301.9,1022.03 1306.77,1024.1 1311.79,1026.04 1316.96,1027.85 1322.27,1029.51 1327.71,1031.03 1333.28,1032.39 1338.95,1033.59 1344.73,1034.62 1350.59,1035.48 1356.52,1036.17 1362.51,1036.68 1368.56,1037 1374.64,1037.14 1380.74,1037.1 1386.86,1036.86 1392.97,1036.44 1399.08,1035.82 1405.15,1035.02 1411.19,1034.04 1417.18,1032.88 1423.11,1031.55 1428.96,1030.04 1434.73,1028.37 1440.41,1026.54 1445.98,1024.57 1451.43,1022.45 1456.75,1020.2 1461.93,1017.82 1466.97,1015.32 1471.84,1012.72 1476.56,1010.01 1481.1,1007.22 1485.46,1004.34 1489.64,1001.39 1493.63,998.388 1497.43,995.337 1501.03,992.251 1504.43,989.144 1507.63,986.027 1510.62,982.913 1513.4,979.814 1515.97,976.74 1518.33,973.704 1520.48,970.715 1522.41,967.785 1524.13,964.926 1525.65,962.146 1526.95,959.457 1528.05,956.868 1528.95,954.391 1529.65,952.034 1530.15,949.808 1530.47,947.722 1530.6,945.784 1530.55,944.004 1530.32,942.389 1529.93,940.948 1529.37,939.687 1528.66,938.614 1527.79,937.733 1526.78,937.051 1525.63,936.571 1524.34,936.298 1522.94,936.235 1521.41,936.387 1519.78,936.757 1518.05,937.348 1516.23,938.163 1514.32,939.204 1512.34,940.473 1510.29,941.97 1508.19,943.697 1506.03,945.653 1503.82,947.837 1501.59,950.248 1499.32,952.884 1497.03,955.743 1494.73,958.823 1492.43,962.119 1490.13,965.63 1487.84,969.351 1485.58,973.278 1483.34,977.407 1481.13,981.732 1478.97,986.25 1476.86,990.954 1474.8,995.839 1472.8,1000.9 1470.86,1006.13 1469,1011.51 1467.22,1017.05 1465.52,1022.74 1463.91,1028.56 1462.38,1034.51 1460.96,1040.58 1459.64,1046.75 1458.43,1053.03 1457.33,1059.4 1456.34,1065.86 "/>
<path clip-path="url(#clip500)" d="M494.636 2085.43 L809.354 2085.43 L809.354 1878.07 L494.636 1878.07  Z" fill="#000000" fill-rule="evenodd" fill-opacity="0"/>
<polyline clip-path="url(#clip500)" style="stroke:#000000; stroke-linecap:round; stroke-linejoin:round; stroke-width:4; stroke-opacity:1; fill:none" points="494.636,2085.43 809.354,2085.43 809.354,1878.07 494.636,1878.07 494.636,2085.43 "/>
<polyline clip-path="url(#clip500)" style="stroke:#1f83ff; stroke-linecap:round; stroke-linejoin:round; stroke-width:4; stroke-opacity:1; fill:none" points="515.993,1929.91 644.14,1929.91 "/>
<path clip-path="url(#clip500)" d="M665.497 1912.63 L687.349 1912.63 L687.349 1916.57 L670.173 1916.57 L670.173 1926.8 L686.631 1926.8 L686.631 1930.73 L670.173 1930.73 L670.173 1943.26 L687.766 1943.26 L687.766 1947.19 L665.497 1947.19 L665.497 1912.63 Z" fill="#000000" fill-rule="nonzero" fill-opacity="1" /><path clip-path="url(#clip500)" d="M707.048 1934.16 Q701.886 1934.16 699.895 1935.34 Q697.904 1936.52 697.904 1939.37 Q697.904 1941.64 699.386 1942.98 Q700.891 1944.3 703.46 1944.3 Q707.002 1944.3 709.131 1941.8 Q711.284 1939.28 711.284 1935.11 L711.284 1934.16 L707.048 1934.16 M715.543 1932.4 L715.543 1947.19 L711.284 1947.19 L711.284 1943.26 Q709.826 1945.62 707.65 1946.75 Q705.474 1947.86 702.326 1947.86 Q698.344 1947.86 695.983 1945.64 Q693.645 1943.4 693.645 1939.65 Q693.645 1935.27 696.562 1933.05 Q699.502 1930.83 705.312 1930.83 L711.284 1930.83 L711.284 1930.41 Q711.284 1927.47 709.34 1925.87 Q707.418 1924.25 703.923 1924.25 Q701.701 1924.25 699.594 1924.79 Q697.488 1925.32 695.543 1926.38 L695.543 1922.45 Q697.881 1921.54 700.08 1921.1 Q702.279 1920.64 704.363 1920.64 Q709.988 1920.64 712.765 1923.56 Q715.543 1926.48 715.543 1932.4 Z" fill="#000000" fill-rule="nonzero" fill-opacity="1" /><path clip-path="url(#clip500)" d="M739.339 1925.25 Q738.622 1924.83 737.765 1924.65 Q736.932 1924.44 735.914 1924.44 Q732.302 1924.44 730.358 1926.8 Q728.437 1929.14 728.437 1933.54 L728.437 1947.19 L724.154 1947.19 L724.154 1921.27 L728.437 1921.27 L728.437 1925.29 Q729.779 1922.93 731.932 1921.8 Q734.085 1920.64 737.164 1920.64 Q737.603 1920.64 738.136 1920.71 Q738.668 1920.76 739.316 1920.87 L739.339 1925.25 Z" fill="#000000" fill-rule="nonzero" fill-opacity="1" /><path clip-path="url(#clip500)" d="M748.02 1913.91 L748.02 1921.27 L756.793 1921.27 L756.793 1924.58 L748.02 1924.58 L748.02 1938.65 Q748.02 1941.82 748.876 1942.73 Q749.756 1943.63 752.418 1943.63 L756.793 1943.63 L756.793 1947.19 L752.418 1947.19 Q747.488 1947.19 745.613 1945.36 Q743.738 1943.51 743.738 1938.65 L743.738 1924.58 L740.613 1924.58 L740.613 1921.27 L743.738 1921.27 L743.738 1913.91 L748.02 1913.91 Z" fill="#000000" fill-rule="nonzero" fill-opacity="1" /><path clip-path="url(#clip500)" d="M783.946 1931.54 L783.946 1947.19 L779.686 1947.19 L779.686 1931.68 Q779.686 1928 778.251 1926.17 Q776.816 1924.35 773.946 1924.35 Q770.497 1924.35 768.506 1926.54 Q766.515 1928.74 766.515 1932.54 L766.515 1947.19 L762.233 1947.19 L762.233 1911.17 L766.515 1911.17 L766.515 1925.29 Q768.043 1922.96 770.103 1921.8 Q772.186 1920.64 774.895 1920.64 Q779.362 1920.64 781.654 1923.42 Q783.946 1926.17 783.946 1931.54 Z" fill="#000000" fill-rule="nonzero" fill-opacity="1" /><polyline clip-path="url(#clip500)" style="stroke:#ca3c32; stroke-linecap:round; stroke-linejoin:round; stroke-width:4; stroke-opacity:1; fill:none" points="515.993,1981.75 644.14,1981.75 "/>
<path clip-path="url(#clip500)" d="M672.604 1964.47 L677.28 1964.47 L677.28 1996.63 Q677.28 2002.88 674.895 2005.7 Q672.534 2008.52 667.28 2008.52 L665.497 2008.52 L665.497 2004.59 L666.956 2004.59 Q670.057 2004.59 671.331 2002.85 Q672.604 2001.12 672.604 1996.63 L672.604 1964.47 Z" fill="#000000" fill-rule="nonzero" fill-opacity="1" /><path clip-path="url(#clip500)" d="M683.506 1964.47 L688.229 1964.47 L695.497 1993.69 L702.742 1964.47 L707.997 1964.47 L715.265 1993.69 L722.511 1964.47 L727.256 1964.47 L718.576 1999.03 L712.696 1999.03 L705.404 1969.03 L698.043 1999.03 L692.164 1999.03 L683.506 1964.47 Z" fill="#000000" fill-rule="nonzero" fill-opacity="1" /><path clip-path="url(#clip500)" d="M754.177 1965.61 L754.177 1970.17 Q751.515 1968.89 749.154 1968.27 Q746.793 1967.64 744.594 1967.64 Q740.775 1967.64 738.691 1969.13 Q736.631 1970.61 736.631 1973.34 Q736.631 1975.63 737.997 1976.81 Q739.386 1977.97 743.228 1978.69 L746.052 1979.26 Q751.284 1980.26 753.761 1982.78 Q756.261 1985.28 756.261 1989.5 Q756.261 1994.52 752.881 1997.11 Q749.525 1999.7 743.02 1999.7 Q740.566 1999.7 737.789 1999.15 Q735.034 1998.59 732.071 1997.5 L732.071 1992.69 Q734.918 1994.29 737.65 1995.1 Q740.381 1995.91 743.02 1995.91 Q747.025 1995.91 749.2 1994.33 Q751.376 1992.76 751.376 1989.84 Q751.376 1987.3 749.802 1985.86 Q748.251 1984.43 744.687 1983.71 L741.839 1983.15 Q736.608 1982.11 734.27 1979.89 Q731.932 1977.67 731.932 1973.71 Q731.932 1969.13 735.15 1966.49 Q738.39 1963.85 744.062 1963.85 Q746.492 1963.85 749.015 1964.29 Q751.538 1964.73 754.177 1965.61 Z" fill="#000000" fill-rule="nonzero" fill-opacity="1" /><path clip-path="url(#clip500)" d="M758.761 1964.47 L787.997 1964.47 L787.997 1968.41 L775.728 1968.41 L775.728 1999.03 L771.029 1999.03 L771.029 1968.41 L758.761 1968.41 L758.761 1964.47 Z" fill="#000000" fill-rule="nonzero" fill-opacity="1" /><polyline clip-path="url(#clip500)" style="stroke:#399746; stroke-linecap:round; stroke-linejoin:round; stroke-width:4; stroke-opacity:1; fill:none" points="515.993,2033.59 644.14,2033.59 "/>
<path clip-path="url(#clip500)" d="M691.053 2045.94 L691.053 2036.66 L683.414 2036.66 L683.414 2032.82 L695.682 2032.82 L695.682 2047.66 Q692.974 2049.58 689.71 2050.57 Q686.446 2051.54 682.743 2051.54 Q674.641 2051.54 670.057 2046.82 Q665.497 2042.08 665.497 2033.63 Q665.497 2025.16 670.057 2020.43 Q674.641 2015.69 682.743 2015.69 Q686.122 2015.69 689.155 2016.52 Q692.21 2017.35 694.779 2018.97 L694.779 2023.95 Q692.187 2021.75 689.27 2020.64 Q686.354 2019.53 683.136 2019.53 Q676.793 2019.53 673.599 2023.07 Q670.428 2026.61 670.428 2033.63 Q670.428 2040.62 673.599 2044.16 Q676.793 2047.7 683.136 2047.7 Q685.613 2047.7 687.557 2047.28 Q689.502 2046.84 691.053 2045.94 Z" fill="#000000" fill-rule="nonzero" fill-opacity="1" /><path clip-path="url(#clip500)" d="M715.775 2020.92 L709.432 2038.12 L722.14 2038.12 L715.775 2020.92 M713.136 2016.31 L718.437 2016.31 L731.608 2050.87 L726.747 2050.87 L723.599 2042.01 L708.02 2042.01 L704.872 2050.87 L699.941 2050.87 L713.136 2016.31 Z" fill="#000000" fill-rule="nonzero" fill-opacity="1" /><path clip-path="url(#clip500)" d="M736.654 2016.31 L741.33 2016.31 L741.33 2050.87 L736.654 2050.87 L736.654 2016.31 Z" fill="#000000" fill-rule="nonzero" fill-opacity="1" /><path clip-path="url(#clip500)" d="M762.187 2020.92 L755.844 2038.12 L768.552 2038.12 L762.187 2020.92 M759.548 2016.31 L764.849 2016.31 L778.02 2050.87 L773.159 2050.87 L770.011 2042.01 L754.432 2042.01 L751.284 2050.87 L746.353 2050.87 L759.548 2016.31 Z" fill="#000000" fill-rule="nonzero" fill-opacity="1" /></svg>
