<?xml version="1.0" encoding="utf-8"?>
<svg xmlns="http://www.w3.org/2000/svg" xmlns:xlink="http://www.w3.org/1999/xlink" width="600" height="600" viewBox="0 0 2400 2400">
<defs>
  <clipPath id="clip160">
    <rect x="0" y="0" width="2400" height="2400"/>
  </clipPath>
</defs>
<defs>
  <clipPath id="clip161">
    <rect x="399" y="47" width="1955" height="2109"/>
  </clipPath>
</defs>
<polyline clip-path="url(#clip160)" style="stroke:#000000; stroke-linecap:round; stroke-linejoin:round; stroke-width:4; stroke-opacity:1; fill:none" points="399.065,2155.72 2352.76,2155.72 "/>
<polyline clip-path="url(#clip160)" style="stroke:#000000; stroke-linecap:round; stroke-linejoin:round; stroke-width:4; stroke-opacity:1; fill:none" points="684.563,2155.72 684.563,2136.82 "/>
<polyline clip-path="url(#clip160)" style="stroke:#000000; stroke-linecap:round; stroke-linejoin:round; stroke-width:4; stroke-opacity:1; fill:none" points="1052.01,2155.72 1052.01,2136.82 "/>
<polyline clip-path="url(#clip160)" style="stroke:#000000; stroke-linecap:round; stroke-linejoin:round; stroke-width:4; stroke-opacity:1; fill:none" points="1419.46,2155.72 1419.46,2136.82 "/>
<polyline clip-path="url(#clip160)" style="stroke:#000000; stroke-linecap:round; stroke-linejoin:round; stroke-width:4; stroke-opacity:1; fill:none" points="1786.91,2155.72 1786.91,2136.82 "/>
<polyline clip-path="url(#clip160)" style="stroke:#000000; stroke-linecap:round; stroke-linejoin:round; stroke-width:4; stroke-opacity:1; fill:none" points="2154.36,2155.72 2154.36,2136.82 "/>
<path clip-path="url(#clip160)" d="M571.439 2216.95 L601.115 2216.95 L601.115 2220.88 L571.439 2220.88 L571.439 2216.95 Z" fill="#000000" fill-rule="nonzero" fill-opacity="1" /><path clip-path="url(#clip160)" d="M612.017 2229.84 L619.656 2229.84 L619.656 2203.47 L611.346 2205.14 L611.346 2200.88 L619.61 2199.22 L624.286 2199.22 L624.286 2229.84 L631.925 2229.84 L631.925 2233.78 L612.017 2233.78 L612.017 2229.84 Z" fill="#000000" fill-rule="nonzero" fill-opacity="1" /><path clip-path="url(#clip160)" d="M641.369 2227.9 L646.253 2227.9 L646.253 2233.78 L641.369 2233.78 L641.369 2227.9 Z" fill="#000000" fill-rule="nonzero" fill-opacity="1" /><path clip-path="url(#clip160)" d="M666.438 2202.29 Q662.827 2202.29 660.999 2205.86 Q659.193 2209.4 659.193 2216.53 Q659.193 2223.64 660.999 2227.2 Q662.827 2230.74 666.438 2230.74 Q670.073 2230.74 671.878 2227.2 Q673.707 2223.64 673.707 2216.53 Q673.707 2209.4 671.878 2205.86 Q670.073 2202.29 666.438 2202.29 M666.438 2198.59 Q672.249 2198.59 675.304 2203.2 Q678.383 2207.78 678.383 2216.53 Q678.383 2225.26 675.304 2229.86 Q672.249 2234.45 666.438 2234.45 Q660.628 2234.45 657.55 2229.86 Q654.494 2225.26 654.494 2216.53 Q654.494 2207.78 657.55 2203.2 Q660.628 2198.59 666.438 2198.59 Z" fill="#000000" fill-rule="nonzero" fill-opacity="1" /><path clip-path="url(#clip160)" d="M714.772 2208.31 L704.193 2218.94 L714.772 2229.52 L712.017 2232.32 L701.392 2221.69 L690.767 2232.32 L688.036 2229.52 L698.591 2218.94 L688.036 2208.31 L690.767 2205.51 L701.392 2216.14 L712.017 2205.51 L714.772 2208.31 Z" fill="#000000" fill-rule="nonzero" fill-opacity="1" /><path clip-path="url(#clip160)" d="M727.133 2229.84 L734.771 2229.84 L734.771 2203.47 L726.461 2205.14 L726.461 2200.88 L734.725 2199.22 L739.401 2199.22 L739.401 2229.84 L747.04 2229.84 L747.04 2233.78 L727.133 2233.78 L727.133 2229.84 Z" fill="#000000" fill-rule="nonzero" fill-opacity="1" /><path clip-path="url(#clip160)" d="M766.484 2202.29 Q762.873 2202.29 761.044 2205.86 Q759.239 2209.4 759.239 2216.53 Q759.239 2223.64 761.044 2227.2 Q762.873 2230.74 766.484 2230.74 Q770.118 2230.74 771.924 2227.2 Q773.753 2223.64 773.753 2216.53 Q773.753 2209.4 771.924 2205.86 Q770.118 2202.29 766.484 2202.29 M766.484 2198.59 Q772.294 2198.59 775.35 2203.2 Q778.429 2207.78 778.429 2216.53 Q778.429 2225.26 775.35 2229.86 Q772.294 2234.45 766.484 2234.45 Q760.674 2234.45 757.595 2229.86 Q754.54 2225.26 754.54 2216.53 Q754.54 2207.78 757.595 2203.2 Q760.674 2198.59 766.484 2198.59 Z" fill="#000000" fill-rule="nonzero" fill-opacity="1" /><path clip-path="url(#clip160)" d="M788.058 2193.03 Q785.35 2193.03 783.789 2194.48 Q782.247 2195.93 782.247 2198.47 Q782.247 2201 783.789 2202.45 Q785.35 2203.9 788.058 2203.9 Q790.767 2203.9 792.328 2202.45 Q793.889 2200.99 793.889 2198.47 Q793.889 2195.93 792.328 2194.48 Q790.785 2193.03 788.058 2193.03 M784.259 2191.41 Q781.814 2190.81 780.441 2189.14 Q779.087 2187.46 779.087 2185.06 Q779.087 2181.69 781.475 2179.73 Q783.883 2177.78 788.058 2177.78 Q792.252 2177.78 794.641 2179.73 Q797.03 2181.69 797.03 2185.06 Q797.03 2187.46 795.657 2189.14 Q794.302 2190.81 791.876 2191.41 Q794.622 2192.05 796.146 2193.91 Q797.688 2195.78 797.688 2198.47 Q797.688 2202.55 795.186 2204.73 Q792.704 2206.91 788.058 2206.91 Q783.413 2206.91 780.911 2204.73 Q778.429 2202.55 778.429 2198.47 Q778.429 2195.78 779.971 2193.91 Q781.513 2192.05 784.259 2191.41 M782.867 2185.41 Q782.867 2187.59 784.221 2188.82 Q785.594 2190.04 788.058 2190.04 Q790.503 2190.04 791.876 2188.82 Q793.268 2187.59 793.268 2185.41 Q793.268 2183.23 791.876 2182.01 Q790.503 2180.79 788.058 2180.79 Q785.594 2180.79 784.221 2182.01 Q782.867 2183.23 782.867 2185.41 Z" fill="#000000" fill-rule="nonzero" fill-opacity="1" /><path clip-path="url(#clip160)" d="M939.49 2216.95 L969.166 2216.95 L969.166 2220.88 L939.49 2220.88 L939.49 2216.95 Z" fill="#000000" fill-rule="nonzero" fill-opacity="1" /><path clip-path="url(#clip160)" d="M979.305 2199.22 L997.661 2199.22 L997.661 2203.15 L983.587 2203.15 L983.587 2211.62 Q984.606 2211.28 985.624 2211.11 Q986.643 2210.93 987.661 2210.93 Q993.448 2210.93 996.828 2214.1 Q1000.21 2217.27 1000.21 2222.69 Q1000.21 2228.27 996.735 2231.37 Q993.263 2234.45 986.944 2234.45 Q984.768 2234.45 982.499 2234.08 Q980.254 2233.71 977.846 2232.96 L977.846 2228.27 Q979.93 2229.4 982.152 2229.96 Q984.374 2230.51 986.851 2230.51 Q990.856 2230.51 993.194 2228.4 Q995.531 2226.3 995.531 2222.69 Q995.531 2219.08 993.194 2216.97 Q990.856 2214.86 986.851 2214.86 Q984.976 2214.86 983.101 2215.28 Q981.249 2215.7 979.305 2216.58 L979.305 2199.22 Z" fill="#000000" fill-rule="nonzero" fill-opacity="1" /><path clip-path="url(#clip160)" d="M1009.42 2227.9 L1014.3 2227.9 L1014.3 2233.78 L1009.42 2233.78 L1009.42 2227.9 Z" fill="#000000" fill-rule="nonzero" fill-opacity="1" /><path clip-path="url(#clip160)" d="M1034.49 2202.29 Q1030.88 2202.29 1029.05 2205.86 Q1027.24 2209.4 1027.24 2216.53 Q1027.24 2223.64 1029.05 2227.2 Q1030.88 2230.74 1034.49 2230.74 Q1038.12 2230.74 1039.93 2227.2 Q1041.76 2223.64 1041.76 2216.53 Q1041.76 2209.4 1039.93 2205.86 Q1038.12 2202.29 1034.49 2202.29 M1034.49 2198.59 Q1040.3 2198.59 1043.36 2203.2 Q1046.43 2207.78 1046.43 2216.53 Q1046.43 2225.26 1043.36 2229.86 Q1040.3 2234.45 1034.49 2234.45 Q1028.68 2234.45 1025.6 2229.86 Q1022.55 2225.26 1022.55 2216.53 Q1022.55 2207.78 1025.6 2203.2 Q1028.68 2198.59 1034.49 2198.59 Z" fill="#000000" fill-rule="nonzero" fill-opacity="1" /><path clip-path="url(#clip160)" d="M1082.82 2208.31 L1072.24 2218.94 L1082.82 2229.52 L1080.07 2232.32 L1069.44 2221.69 L1058.82 2232.32 L1056.09 2229.52 L1066.64 2218.94 L1056.09 2208.31 L1058.82 2205.51 L1069.44 2216.14 L1080.07 2205.51 L1082.82 2208.31 Z" fill="#000000" fill-rule="nonzero" fill-opacity="1" /><path clip-path="url(#clip160)" d="M1095.18 2229.84 L1102.82 2229.84 L1102.82 2203.47 L1094.51 2205.14 L1094.51 2200.88 L1102.78 2199.22 L1107.45 2199.22 L1107.45 2229.84 L1115.09 2229.84 L1115.09 2233.78 L1095.18 2233.78 L1095.18 2229.84 Z" fill="#000000" fill-rule="nonzero" fill-opacity="1" /><path clip-path="url(#clip160)" d="M1134.54 2202.29 Q1130.92 2202.29 1129.1 2205.86 Q1127.29 2209.4 1127.29 2216.53 Q1127.29 2223.64 1129.1 2227.2 Q1130.92 2230.74 1134.54 2230.74 Q1138.17 2230.74 1139.98 2227.2 Q1141.8 2223.64 1141.8 2216.53 Q1141.8 2209.4 1139.98 2205.86 Q1138.17 2202.29 1134.54 2202.29 M1134.54 2198.59 Q1140.35 2198.59 1143.4 2203.2 Q1146.48 2207.78 1146.48 2216.53 Q1146.48 2225.26 1143.4 2229.86 Q1140.35 2234.45 1134.54 2234.45 Q1128.73 2234.45 1125.65 2229.86 Q1122.59 2225.26 1122.59 2216.53 Q1122.59 2207.78 1125.65 2203.2 Q1128.73 2198.59 1134.54 2198.59 Z" fill="#000000" fill-rule="nonzero" fill-opacity="1" /><path clip-path="url(#clip160)" d="M1146.48 2178.28 L1164.54 2178.28 L1164.54 2179.9 L1154.34 2206.36 L1150.37 2206.36 L1159.96 2181.48 L1146.48 2181.48 L1146.48 2178.28 Z" fill="#000000" fill-rule="nonzero" fill-opacity="1" /><path clip-path="url(#clip160)" d="M1419.46 2186.63 Q1415.85 2186.63 1414.02 2190.2 Q1412.22 2193.74 1412.22 2200.87 Q1412.22 2207.98 1414.02 2211.54 Q1415.85 2215.08 1419.46 2215.08 Q1423.1 2215.08 1424.9 2211.54 Q1426.73 2207.98 1426.73 2200.87 Q1426.73 2193.74 1424.9 2190.2 Q1423.1 2186.63 1419.46 2186.63 M1419.46 2182.93 Q1425.27 2182.93 1428.33 2187.54 Q1431.41 2192.12 1431.41 2200.87 Q1431.41 2209.6 1428.33 2214.2 Q1425.27 2218.79 1419.46 2218.79 Q1413.65 2218.79 1410.57 2214.2 Q1407.52 2209.6 1407.52 2200.87 Q1407.52 2192.12 1410.57 2187.54 Q1413.65 2182.93 1419.46 2182.93 Z" fill="#000000" fill-rule="nonzero" fill-opacity="1" /><path clip-path="url(#clip160)" d="M1695.03 2199.22 L1713.38 2199.22 L1713.38 2203.15 L1699.31 2203.15 L1699.31 2211.62 Q1700.33 2211.28 1701.34 2211.11 Q1702.36 2210.93 1703.38 2210.93 Q1709.17 2210.93 1712.55 2214.1 Q1715.93 2217.27 1715.93 2222.69 Q1715.93 2228.27 1712.46 2231.37 Q1708.98 2234.45 1702.66 2234.45 Q1700.49 2234.45 1698.22 2234.08 Q1695.97 2233.71 1693.57 2232.96 L1693.57 2228.27 Q1695.65 2229.4 1697.87 2229.96 Q1700.09 2230.51 1702.57 2230.51 Q1706.58 2230.51 1708.91 2228.4 Q1711.25 2226.3 1711.25 2222.69 Q1711.25 2219.08 1708.91 2216.97 Q1706.58 2214.86 1702.57 2214.86 Q1700.7 2214.86 1698.82 2215.28 Q1696.97 2215.7 1695.03 2216.58 L1695.03 2199.22 Z" fill="#000000" fill-rule="nonzero" fill-opacity="1" /><path clip-path="url(#clip160)" d="M1725.14 2227.9 L1730.02 2227.9 L1730.02 2233.78 L1725.14 2233.78 L1725.14 2227.9 Z" fill="#000000" fill-rule="nonzero" fill-opacity="1" /><path clip-path="url(#clip160)" d="M1750.21 2202.29 Q1746.6 2202.29 1744.77 2205.86 Q1742.96 2209.4 1742.96 2216.53 Q1742.96 2223.64 1744.77 2227.2 Q1746.6 2230.74 1750.21 2230.74 Q1753.84 2230.74 1755.65 2227.2 Q1757.48 2223.64 1757.48 2216.53 Q1757.48 2209.4 1755.65 2205.86 Q1753.84 2202.29 1750.21 2202.29 M1750.21 2198.59 Q1756.02 2198.59 1759.08 2203.2 Q1762.15 2207.78 1762.15 2216.53 Q1762.15 2225.26 1759.08 2229.86 Q1756.02 2234.45 1750.21 2234.45 Q1744.4 2234.45 1741.32 2229.86 Q1738.27 2225.26 1738.27 2216.53 Q1738.27 2207.78 1741.32 2203.2 Q1744.4 2198.59 1750.21 2198.59 Z" fill="#000000" fill-rule="nonzero" fill-opacity="1" /><path clip-path="url(#clip160)" d="M1798.54 2208.31 L1787.96 2218.94 L1798.54 2229.52 L1795.79 2232.32 L1785.16 2221.69 L1774.54 2232.32 L1771.81 2229.52 L1782.36 2218.94 L1771.81 2208.31 L1774.54 2205.51 L1785.16 2216.14 L1795.79 2205.51 L1798.54 2208.31 Z" fill="#000000" fill-rule="nonzero" fill-opacity="1" /><path clip-path="url(#clip160)" d="M1810.9 2229.84 L1818.54 2229.84 L1818.54 2203.47 L1810.23 2205.14 L1810.23 2200.88 L1818.5 2199.22 L1823.17 2199.22 L1823.17 2229.84 L1830.81 2229.84 L1830.81 2233.78 L1810.9 2233.78 L1810.9 2229.84 Z" fill="#000000" fill-rule="nonzero" fill-opacity="1" /><path clip-path="url(#clip160)" d="M1850.26 2202.29 Q1846.64 2202.29 1844.82 2205.86 Q1843.01 2209.4 1843.01 2216.53 Q1843.01 2223.64 1844.82 2227.2 Q1846.64 2230.74 1850.26 2230.74 Q1853.89 2230.74 1855.7 2227.2 Q1857.52 2223.64 1857.52 2216.53 Q1857.52 2209.4 1855.7 2205.86 Q1853.89 2202.29 1850.26 2202.29 M1850.26 2198.59 Q1856.07 2198.59 1859.12 2203.2 Q1862.2 2207.78 1862.2 2216.53 Q1862.2 2225.26 1859.12 2229.86 Q1856.07 2234.45 1850.26 2234.45 Q1844.45 2234.45 1841.37 2229.86 Q1838.31 2225.26 1838.31 2216.53 Q1838.31 2207.78 1841.37 2203.2 Q1844.45 2198.59 1850.26 2198.59 Z" fill="#000000" fill-rule="nonzero" fill-opacity="1" /><path clip-path="url(#clip160)" d="M1862.2 2178.28 L1880.26 2178.28 L1880.26 2179.9 L1870.06 2206.36 L1866.09 2206.36 L1875.69 2181.48 L1862.2 2181.48 L1862.2 2178.28 Z" fill="#000000" fill-rule="nonzero" fill-opacity="1" /><path clip-path="url(#clip160)" d="M2061.86 2229.84 L2069.5 2229.84 L2069.5 2203.47 L2061.19 2205.14 L2061.19 2200.88 L2069.45 2199.22 L2074.13 2199.22 L2074.13 2229.84 L2081.77 2229.84 L2081.77 2233.78 L2061.86 2233.78 L2061.86 2229.84 Z" fill="#000000" fill-rule="nonzero" fill-opacity="1" /><path clip-path="url(#clip160)" d="M2091.21 2227.9 L2096.1 2227.9 L2096.1 2233.78 L2091.21 2233.78 L2091.21 2227.9 Z" fill="#000000" fill-rule="nonzero" fill-opacity="1" /><path clip-path="url(#clip160)" d="M2116.28 2202.29 Q2112.67 2202.29 2110.84 2205.86 Q2109.04 2209.4 2109.04 2216.53 Q2109.04 2223.64 2110.84 2227.2 Q2112.67 2230.74 2116.28 2230.74 Q2119.92 2230.74 2121.72 2227.2 Q2123.55 2223.64 2123.55 2216.53 Q2123.55 2209.4 2121.72 2205.86 Q2119.92 2202.29 2116.28 2202.29 M2116.28 2198.59 Q2122.09 2198.59 2125.15 2203.2 Q2128.23 2207.78 2128.23 2216.53 Q2128.23 2225.26 2125.15 2229.86 Q2122.09 2234.45 2116.28 2234.45 Q2110.47 2234.45 2107.39 2229.86 Q2104.34 2225.26 2104.34 2216.53 Q2104.34 2207.78 2107.39 2203.2 Q2110.47 2198.59 2116.28 2198.59 Z" fill="#000000" fill-rule="nonzero" fill-opacity="1" /><path clip-path="url(#clip160)" d="M2164.61 2208.31 L2154.04 2218.94 L2164.61 2229.52 L2161.86 2232.32 L2151.24 2221.69 L2140.61 2232.32 L2137.88 2229.52 L2148.43 2218.94 L2137.88 2208.31 L2140.61 2205.51 L2151.24 2216.14 L2161.86 2205.51 L2164.61 2208.31 Z" fill="#000000" fill-rule="nonzero" fill-opacity="1" /><path clip-path="url(#clip160)" d="M2176.98 2229.84 L2184.61 2229.84 L2184.61 2203.47 L2176.3 2205.14 L2176.3 2200.88 L2184.57 2199.22 L2189.24 2199.22 L2189.24 2229.84 L2196.88 2229.84 L2196.88 2233.78 L2176.98 2233.78 L2176.98 2229.84 Z" fill="#000000" fill-rule="nonzero" fill-opacity="1" /><path clip-path="url(#clip160)" d="M2216.33 2202.29 Q2212.72 2202.29 2210.89 2205.86 Q2209.08 2209.4 2209.08 2216.53 Q2209.08 2223.64 2210.89 2227.2 Q2212.72 2230.74 2216.33 2230.74 Q2219.96 2230.74 2221.77 2227.2 Q2223.6 2223.64 2223.6 2216.53 Q2223.6 2209.4 2221.77 2205.86 Q2219.96 2202.29 2216.33 2202.29 M2216.33 2198.59 Q2222.14 2198.59 2225.19 2203.2 Q2228.27 2207.78 2228.27 2216.53 Q2228.27 2225.26 2225.19 2229.86 Q2222.14 2234.45 2216.33 2234.45 Q2210.52 2234.45 2207.44 2229.86 Q2204.38 2225.26 2204.38 2216.53 Q2204.38 2207.78 2207.44 2203.2 Q2210.52 2198.59 2216.33 2198.59 Z" fill="#000000" fill-rule="nonzero" fill-opacity="1" /><path clip-path="url(#clip160)" d="M2237.9 2193.03 Q2235.19 2193.03 2233.63 2194.48 Q2232.09 2195.93 2232.09 2198.47 Q2232.09 2201 2233.63 2202.45 Q2235.19 2203.9 2237.9 2203.9 Q2240.61 2203.9 2242.17 2202.45 Q2243.73 2200.99 2243.73 2198.47 Q2243.73 2195.93 2242.17 2194.48 Q2240.63 2193.03 2237.9 2193.03 M2234.1 2191.41 Q2231.66 2190.81 2230.28 2189.14 Q2228.93 2187.46 2228.93 2185.06 Q2228.93 2181.69 2231.32 2179.73 Q2233.73 2177.78 2237.9 2177.78 Q2242.1 2177.78 2244.48 2179.73 Q2246.87 2181.69 2246.87 2185.06 Q2246.87 2187.46 2245.5 2189.14 Q2244.15 2190.81 2241.72 2191.41 Q2244.47 2192.05 2245.99 2193.91 Q2247.53 2195.78 2247.53 2198.47 Q2247.53 2202.55 2245.03 2204.73 Q2242.55 2206.91 2237.9 2206.91 Q2233.26 2206.91 2230.75 2204.73 Q2228.27 2202.55 2228.27 2198.47 Q2228.27 2195.78 2229.81 2193.91 Q2231.36 2192.05 2234.1 2191.41 M2232.71 2185.41 Q2232.71 2187.59 2234.06 2188.82 Q2235.44 2190.04 2237.9 2190.04 Q2240.35 2190.04 2241.72 2188.82 Q2243.11 2187.59 2243.11 2185.41 Q2243.11 2183.23 2241.72 2182.01 Q2240.35 2180.79 2237.9 2180.79 Q2235.44 2180.79 2234.06 2182.01 Q2232.71 2183.23 2232.71 2185.41 Z" fill="#000000" fill-rule="nonzero" fill-opacity="1" /><path clip-path="url(#clip160)" d="M1274.23 2271.48 L1281.14 2271.48 L1292.95 2289.15 L1304.82 2271.48 L1311.73 2271.48 L1296.45 2294.3 L1312.75 2319 L1305.84 2319 L1292.47 2298.79 L1279.01 2319 L1272.07 2319 L1289.03 2293.64 L1274.23 2271.48 Z" fill="#000000" fill-rule="nonzero" fill-opacity="1" /><path clip-path="url(#clip160)" d="M1355.72 2269.54 Q1351.45 2276.86 1349.38 2284.02 Q1347.31 2291.19 1347.31 2298.54 Q1347.31 2305.89 1349.38 2313.12 Q1351.48 2320.31 1355.72 2327.6 L1350.62 2327.6 Q1345.85 2320.12 1343.46 2312.89 Q1341.11 2305.67 1341.11 2298.54 Q1341.11 2291.44 1343.46 2284.25 Q1345.82 2277.05 1350.62 2269.54 L1355.72 2269.54 Z" fill="#000000" fill-rule="nonzero" fill-opacity="1" /><path clip-path="url(#clip160)" d="M1367.33 2271.48 L1373.76 2271.48 L1373.76 2291.57 L1395.09 2271.48 L1403.36 2271.48 L1379.78 2293.64 L1405.05 2319 L1396.58 2319 L1373.76 2296.12 L1373.76 2319 L1367.33 2319 L1367.33 2271.48 Z" fill="#000000" fill-rule="nonzero" fill-opacity="1" /><path clip-path="url(#clip160)" d="M1410.08 2271.48 L1419.66 2271.48 L1431.79 2303.82 L1443.98 2271.48 L1453.56 2271.48 L1453.56 2319 L1447.29 2319 L1447.29 2277.28 L1435.03 2309.87 L1428.57 2309.87 L1416.32 2277.28 L1416.32 2319 L1410.08 2319 L1410.08 2271.48 Z" fill="#000000" fill-rule="nonzero" fill-opacity="1" /><path clip-path="url(#clip160)" d="M1465.14 2269.54 L1470.23 2269.54 Q1475.01 2277.05 1477.36 2284.25 Q1479.75 2291.44 1479.75 2298.54 Q1479.75 2305.67 1477.36 2312.89 Q1475.01 2320.12 1470.23 2327.6 L1465.14 2327.6 Q1469.38 2320.31 1471.44 2313.12 Q1473.54 2305.89 1473.54 2298.54 Q1473.54 2291.19 1471.44 2284.02 Q1469.38 2276.86 1465.14 2269.54 Z" fill="#000000" fill-rule="nonzero" fill-opacity="1" /><polyline clip-path="url(#clip160)" style="stroke:#000000; stroke-linecap:round; stroke-linejoin:round; stroke-width:4; stroke-opacity:1; fill:none" points="399.065,2155.72 399.065,47.2441 "/>
<polyline clip-path="url(#clip160)" style="stroke:#000000; stroke-linecap:round; stroke-linejoin:round; stroke-width:4; stroke-opacity:1; fill:none" points="399.065,1751.52 417.963,1751.52 "/>
<polyline clip-path="url(#clip160)" style="stroke:#000000; stroke-linecap:round; stroke-linejoin:round; stroke-width:4; stroke-opacity:1; fill:none" points="399.065,1308.41 417.963,1308.41 "/>
<polyline clip-path="url(#clip160)" style="stroke:#000000; stroke-linecap:round; stroke-linejoin:round; stroke-width:4; stroke-opacity:1; fill:none" points="399.065,865.31 417.963,865.31 "/>
<polyline clip-path="url(#clip160)" style="stroke:#000000; stroke-linecap:round; stroke-linejoin:round; stroke-width:4; stroke-opacity:1; fill:none" points="399.065,422.208 417.963,422.208 "/>
<path clip-path="url(#clip160)" d="M138.02 1758.41 L167.696 1758.41 L167.696 1762.35 L138.02 1762.35 L138.02 1758.41 Z" fill="#000000" fill-rule="nonzero" fill-opacity="1" /><path clip-path="url(#clip160)" d="M177.835 1740.68 L196.191 1740.68 L196.191 1744.62 L182.117 1744.62 L182.117 1753.09 Q183.136 1752.74 184.154 1752.58 Q185.173 1752.4 186.191 1752.4 Q191.978 1752.4 195.358 1755.57 Q198.737 1758.74 198.737 1764.15 Q198.737 1769.73 195.265 1772.84 Q191.793 1775.91 185.474 1775.91 Q183.298 1775.91 181.029 1775.54 Q178.784 1775.17 176.376 1774.43 L176.376 1769.73 Q178.46 1770.87 180.682 1771.42 Q182.904 1771.98 185.381 1771.98 Q189.386 1771.98 191.724 1769.87 Q194.062 1767.77 194.062 1764.15 Q194.062 1760.54 191.724 1758.44 Q189.386 1756.33 185.381 1756.33 Q183.506 1756.33 181.631 1756.75 Q179.779 1757.16 177.835 1758.04 L177.835 1740.68 Z" fill="#000000" fill-rule="nonzero" fill-opacity="1" /><path clip-path="url(#clip160)" d="M207.95 1769.36 L212.835 1769.36 L212.835 1775.24 L207.95 1775.24 L207.95 1769.36 Z" fill="#000000" fill-rule="nonzero" fill-opacity="1" /><path clip-path="url(#clip160)" d="M233.02 1743.76 Q229.409 1743.76 227.58 1747.33 Q225.774 1750.87 225.774 1758 Q225.774 1765.1 227.58 1768.67 Q229.409 1772.21 233.02 1772.21 Q236.654 1772.21 238.459 1768.67 Q240.288 1765.1 240.288 1758 Q240.288 1750.87 238.459 1747.33 Q236.654 1743.76 233.02 1743.76 M233.02 1740.06 Q238.83 1740.06 241.885 1744.66 Q244.964 1749.25 244.964 1758 Q244.964 1766.72 241.885 1771.33 Q238.83 1775.91 233.02 1775.91 Q227.209 1775.91 224.131 1771.33 Q221.075 1766.72 221.075 1758 Q221.075 1749.25 224.131 1744.66 Q227.209 1740.06 233.02 1740.06 Z" fill="#000000" fill-rule="nonzero" fill-opacity="1" /><path clip-path="url(#clip160)" d="M281.353 1749.78 L270.774 1760.4 L281.353 1770.98 L278.598 1773.78 L267.973 1763.16 L257.348 1773.78 L254.617 1770.98 L265.172 1760.4 L254.617 1749.78 L257.348 1746.98 L267.973 1757.6 L278.598 1746.98 L281.353 1749.78 Z" fill="#000000" fill-rule="nonzero" fill-opacity="1" /><path clip-path="url(#clip160)" d="M293.714 1771.31 L301.353 1771.31 L301.353 1744.94 L293.042 1746.61 L293.042 1742.35 L301.306 1740.68 L305.982 1740.68 L305.982 1771.31 L313.621 1771.31 L313.621 1775.24 L293.714 1775.24 L293.714 1771.31 Z" fill="#000000" fill-rule="nonzero" fill-opacity="1" /><path clip-path="url(#clip160)" d="M333.065 1743.76 Q329.454 1743.76 327.626 1747.33 Q325.82 1750.87 325.82 1758 Q325.82 1765.1 327.626 1768.67 Q329.454 1772.21 333.065 1772.21 Q336.7 1772.21 338.505 1768.67 Q340.334 1765.1 340.334 1758 Q340.334 1750.87 338.505 1747.33 Q336.7 1743.76 333.065 1743.76 M333.065 1740.06 Q338.876 1740.06 341.931 1744.66 Q345.01 1749.25 345.01 1758 Q345.01 1766.72 341.931 1771.33 Q338.876 1775.91 333.065 1775.91 Q327.255 1775.91 324.177 1771.33 Q321.121 1766.72 321.121 1758 Q321.121 1749.25 324.177 1744.66 Q327.255 1740.06 333.065 1740.06 Z" fill="#000000" fill-rule="nonzero" fill-opacity="1" /><path clip-path="url(#clip160)" d="M345.01 1719.75 L363.065 1719.75 L363.065 1721.37 L352.871 1747.83 L348.903 1747.83 L358.495 1722.95 L345.01 1722.95 L345.01 1719.75 Z" fill="#000000" fill-rule="nonzero" fill-opacity="1" /><path clip-path="url(#clip160)" d="M351.121 1294.21 Q347.51 1294.21 345.681 1297.78 Q343.876 1301.32 343.876 1308.45 Q343.876 1315.55 345.681 1319.12 Q347.51 1322.66 351.121 1322.66 Q354.755 1322.66 356.561 1319.12 Q358.389 1315.55 358.389 1308.45 Q358.389 1301.32 356.561 1297.78 Q354.755 1294.21 351.121 1294.21 M351.121 1290.51 Q356.931 1290.51 359.987 1295.11 Q363.065 1299.7 363.065 1308.45 Q363.065 1317.17 359.987 1321.78 Q356.931 1326.36 351.121 1326.36 Q345.311 1326.36 342.232 1321.78 Q339.176 1317.17 339.176 1308.45 Q339.176 1299.7 342.232 1295.11 Q345.311 1290.51 351.121 1290.51 Z" fill="#000000" fill-rule="nonzero" fill-opacity="1" /><path clip-path="url(#clip160)" d="M177.835 854.478 L196.191 854.478 L196.191 858.413 L182.117 858.413 L182.117 866.885 Q183.136 866.538 184.154 866.376 Q185.173 866.191 186.191 866.191 Q191.978 866.191 195.358 869.362 Q198.737 872.533 198.737 877.95 Q198.737 883.528 195.265 886.63 Q191.793 889.709 185.474 889.709 Q183.298 889.709 181.029 889.339 Q178.784 888.968 176.376 888.227 L176.376 883.528 Q178.46 884.663 180.682 885.218 Q182.904 885.774 185.381 885.774 Q189.386 885.774 191.724 883.667 Q194.062 881.561 194.062 877.95 Q194.062 874.339 191.724 872.232 Q189.386 870.126 185.381 870.126 Q183.506 870.126 181.631 870.542 Q179.779 870.959 177.835 871.839 L177.835 854.478 Z" fill="#000000" fill-rule="nonzero" fill-opacity="1" /><path clip-path="url(#clip160)" d="M207.95 883.158 L212.835 883.158 L212.835 889.038 L207.95 889.038 L207.95 883.158 Z" fill="#000000" fill-rule="nonzero" fill-opacity="1" /><path clip-path="url(#clip160)" d="M233.02 857.556 Q229.409 857.556 227.58 861.121 Q225.774 864.663 225.774 871.792 Q225.774 878.899 227.58 882.464 Q229.409 886.005 233.02 886.005 Q236.654 886.005 238.459 882.464 Q240.288 878.899 240.288 871.792 Q240.288 864.663 238.459 861.121 Q236.654 857.556 233.02 857.556 M233.02 853.853 Q238.83 853.853 241.885 858.459 Q244.964 863.042 244.964 871.792 Q244.964 880.519 241.885 885.126 Q238.83 889.709 233.02 889.709 Q227.209 889.709 224.131 885.126 Q221.075 880.519 221.075 871.792 Q221.075 863.042 224.131 858.459 Q227.209 853.853 233.02 853.853 Z" fill="#000000" fill-rule="nonzero" fill-opacity="1" /><path clip-path="url(#clip160)" d="M281.353 863.575 L270.774 874.2 L281.353 884.778 L278.598 887.579 L267.973 876.954 L257.348 887.579 L254.617 884.778 L265.172 874.2 L254.617 863.575 L257.348 860.774 L267.973 871.399 L278.598 860.774 L281.353 863.575 Z" fill="#000000" fill-rule="nonzero" fill-opacity="1" /><path clip-path="url(#clip160)" d="M293.714 885.102 L301.353 885.102 L301.353 858.737 L293.042 860.404 L293.042 856.144 L301.306 854.478 L305.982 854.478 L305.982 885.102 L313.621 885.102 L313.621 889.038 L293.714 889.038 L293.714 885.102 Z" fill="#000000" fill-rule="nonzero" fill-opacity="1" /><path clip-path="url(#clip160)" d="M333.065 857.556 Q329.454 857.556 327.626 861.121 Q325.82 864.663 325.82 871.792 Q325.82 878.899 327.626 882.464 Q329.454 886.005 333.065 886.005 Q336.7 886.005 338.505 882.464 Q340.334 878.899 340.334 871.792 Q340.334 864.663 338.505 861.121 Q336.7 857.556 333.065 857.556 M333.065 853.853 Q338.876 853.853 341.931 858.459 Q345.01 863.042 345.01 871.792 Q345.01 880.519 341.931 885.126 Q338.876 889.709 333.065 889.709 Q327.255 889.709 324.177 885.126 Q321.121 880.519 321.121 871.792 Q321.121 863.042 324.177 858.459 Q327.255 853.853 333.065 853.853 Z" fill="#000000" fill-rule="nonzero" fill-opacity="1" /><path clip-path="url(#clip160)" d="M345.01 833.547 L363.065 833.547 L363.065 835.165 L352.871 861.627 L348.903 861.627 L358.495 836.745 L345.01 836.745 L345.01 833.547 Z" fill="#000000" fill-rule="nonzero" fill-opacity="1" /><path clip-path="url(#clip160)" d="M177.395 442 L185.034 442 L185.034 415.634 L176.724 417.301 L176.724 413.042 L184.987 411.375 L189.663 411.375 L189.663 442 L197.302 442 L197.302 445.935 L177.395 445.935 L177.395 442 Z" fill="#000000" fill-rule="nonzero" fill-opacity="1" /><path clip-path="url(#clip160)" d="M206.747 440.056 L211.631 440.056 L211.631 445.935 L206.747 445.935 L206.747 440.056 Z" fill="#000000" fill-rule="nonzero" fill-opacity="1" /><path clip-path="url(#clip160)" d="M231.816 414.454 Q228.205 414.454 226.376 418.019 Q224.571 421.56 224.571 428.69 Q224.571 435.796 226.376 439.361 Q228.205 442.903 231.816 442.903 Q235.45 442.903 237.256 439.361 Q239.084 435.796 239.084 428.69 Q239.084 421.56 237.256 418.019 Q235.45 414.454 231.816 414.454 M231.816 410.75 Q237.626 410.75 240.682 415.357 Q243.76 419.94 243.76 428.69 Q243.76 437.417 240.682 442.023 Q237.626 446.606 231.816 446.606 Q226.006 446.606 222.927 442.023 Q219.872 437.417 219.872 428.69 Q219.872 419.94 222.927 415.357 Q226.006 410.75 231.816 410.75 Z" fill="#000000" fill-rule="nonzero" fill-opacity="1" /><path clip-path="url(#clip160)" d="M280.149 420.472 L269.57 431.097 L280.149 441.676 L277.394 444.477 L266.769 433.852 L256.145 444.477 L253.413 441.676 L263.969 431.097 L253.413 420.472 L256.145 417.671 L266.769 428.296 L277.394 417.671 L280.149 420.472 Z" fill="#000000" fill-rule="nonzero" fill-opacity="1" /><path clip-path="url(#clip160)" d="M292.51 442 L300.149 442 L300.149 415.634 L291.839 417.301 L291.839 413.042 L300.103 411.375 L304.779 411.375 L304.779 442 L312.417 442 L312.417 445.935 L292.51 445.935 L292.51 442 Z" fill="#000000" fill-rule="nonzero" fill-opacity="1" /><path clip-path="url(#clip160)" d="M331.862 414.454 Q328.251 414.454 326.422 418.019 Q324.616 421.56 324.616 428.69 Q324.616 435.796 326.422 439.361 Q328.251 442.903 331.862 442.903 Q335.496 442.903 337.301 439.361 Q339.13 435.796 339.13 428.69 Q339.13 421.56 337.301 418.019 Q335.496 414.454 331.862 414.454 M331.862 410.75 Q337.672 410.75 340.727 415.357 Q343.806 419.94 343.806 428.69 Q343.806 437.417 340.727 442.023 Q337.672 446.606 331.862 446.606 Q326.052 446.606 322.973 442.023 Q319.917 437.417 319.917 428.69 Q319.917 419.94 322.973 415.357 Q326.052 410.75 331.862 410.75 Z" fill="#000000" fill-rule="nonzero" fill-opacity="1" /><path clip-path="url(#clip160)" d="M353.436 405.19 Q350.727 405.19 349.166 406.638 Q347.624 408.086 347.624 410.625 Q347.624 413.165 349.166 414.613 Q350.727 416.061 353.436 416.061 Q356.144 416.061 357.705 414.613 Q359.266 413.146 359.266 410.625 Q359.266 408.086 357.705 406.638 Q356.163 405.19 353.436 405.19 M349.637 403.573 Q347.191 402.971 345.819 401.297 Q344.464 399.623 344.464 397.216 Q344.464 393.849 346.853 391.893 Q349.26 389.937 353.436 389.937 Q357.63 389.937 360.018 391.893 Q362.407 393.849 362.407 397.216 Q362.407 399.623 361.034 401.297 Q359.68 402.971 357.254 403.573 Q360 404.212 361.523 406.074 Q363.065 407.936 363.065 410.625 Q363.065 414.707 360.564 416.888 Q358.081 419.07 353.436 419.07 Q348.79 419.07 346.289 416.888 Q343.806 414.707 343.806 410.625 Q343.806 407.936 345.348 406.074 Q346.891 404.212 349.637 403.573 M348.245 397.573 Q348.245 399.755 349.599 400.977 Q350.972 402.2 353.436 402.2 Q355.881 402.2 357.254 400.977 Q358.645 399.755 358.645 397.573 Q358.645 395.391 357.254 394.169 Q355.881 392.946 353.436 392.946 Q350.972 392.946 349.599 394.169 Q348.245 395.391 348.245 397.573 Z" fill="#000000" fill-rule="nonzero" fill-opacity="1" /><path clip-path="url(#clip160)" d="M40.2442 1203.94 L40.2442 1197.03 L59.7869 1183.85 L40.2442 1170.77 L40.2442 1163.86 L65.1341 1180.67 L87.7642 1180.67 L87.7642 1187.13 L65.1341 1187.13 L40.2442 1203.94 Z" fill="#000000" fill-rule="nonzero" fill-opacity="1" /><path clip-path="url(#clip160)" d="M38.3026 1123.06 Q45.6232 1127.32 52.7846 1129.39 Q59.946 1131.46 67.2984 1131.46 Q74.6508 1131.46 81.8759 1129.39 Q89.0691 1127.29 96.3579 1123.06 L96.3579 1128.15 Q88.8782 1132.93 81.6531 1135.31 Q74.428 1137.67 67.2984 1137.67 Q60.2006 1137.67 53.0074 1135.31 Q45.8142 1132.96 38.3026 1128.15 L38.3026 1123.06 Z" fill="#000000" fill-rule="nonzero" fill-opacity="1" /><path clip-path="url(#clip160)" d="M40.2442 1111.44 L40.2442 1105.01 L60.328 1105.01 L40.2442 1083.69 L40.2442 1075.41 L62.3968 1099 L87.7642 1073.73 L87.7642 1082.19 L64.8794 1105.01 L87.7642 1105.01 L87.7642 1111.44 L40.2442 1111.44 Z" fill="#000000" fill-rule="nonzero" fill-opacity="1" /><path clip-path="url(#clip160)" d="M40.2442 1068.7 L40.2442 1059.12 L72.5819 1046.99 L40.2442 1034.8 L40.2442 1025.22 L87.7642 1025.22 L87.7642 1031.49 L46.037 1031.49 L78.6294 1043.74 L78.6294 1050.2 L46.037 1062.46 L87.7642 1062.46 L87.7642 1068.7 L40.2442 1068.7 Z" fill="#000000" fill-rule="nonzero" fill-opacity="1" /><path clip-path="url(#clip160)" d="M38.3026 1013.63 L38.3026 1008.54 Q45.8142 1003.77 53.0074 1001.41 Q60.2006 999.024 67.2984 999.024 Q74.428 999.024 81.6531 1001.41 Q88.8782 1003.77 96.3579 1008.54 L96.3579 1013.63 Q89.0691 1009.4 81.8759 1007.33 Q74.6508 1005.23 67.2984 1005.23 Q59.946 1005.23 52.7846 1007.33 Q45.6232 1009.4 38.3026 1013.63 Z" fill="#000000" fill-rule="nonzero" fill-opacity="1" /><polyline clip-path="url(#clip161)" style="stroke:#1f83ff; stroke-linecap:round; stroke-linejoin:round; stroke-width:4; stroke-opacity:1; fill:none" points="1417.4,1295.02 1417.22,1295.07 1417.03,1295.12 1416.84,1295.18 1416.66,1295.24 1416.48,1295.31 1416.3,1295.38 1416.13,1295.45 1415.96,1295.53 1415.79,1295.61 1415.62,1295.68 1415.45,1295.76 1415.28,1295.84 1415.12,1295.92 1414.95,1296.01 1414.79,1296.09 1414.62,1296.18 1414.45,1296.27 1414.28,1296.37 1414.12,1296.46 1413.95,1296.57 1413.78,1296.67 1413.61,1296.79 1413.45,1296.91 1413.28,1297.03 1413.12,1297.16 1412.96,1297.29 1412.8,1297.43 1412.65,1297.57 1412.49,1297.72 1412.35,1297.87 1412.2,1298.02 1412.06,1298.18 1411.92,1298.34 1411.79,1298.5 1411.66,1298.67 1411.53,1298.83 1411.41,1299 1411.29,1299.16 1411.17,1299.33 1411.05,1299.49 1410.94,1299.66 1410.82,1299.83 1410.71,1300 1410.6,1300.17 1410.49,1300.34 1410.37,1300.52 1410.26,1300.7 1410.15,1300.88 1410.05,1301.06 1409.94,1301.25 1409.84,1301.45 1409.74,1301.65 1409.64,1301.85 1409.55,1302.05 1409.46,1302.26 1409.37,1302.48 1409.29,1302.69 1409.21,1302.91 1409.14,1303.13 1409.07,1303.35 1409.01,1303.57 1408.95,1303.79 1408.89,1304.01 1408.84,1304.23 1408.8,1304.45 1408.75,1304.67 1408.71,1304.89 1408.67,1305.1 1408.63,1305.32 1408.6,1305.53 1408.56,1305.75 1408.53,1305.96 1408.5,1306.18 1408.47,1306.4 1408.44,1306.61 1408.41,1306.84 1408.39,1307.06 1408.37,1307.29 1408.35,1307.51 1408.34,1307.74 1408.33,1307.98 1408.32,1308.21 1408.32,1308.45 1408.32,1308.68 1408.32,1308.92 1408.34,1309.16 1408.35,1309.4 1408.38,1309.64 1408.4,1309.87 1408.43,1310.11 1408.47,1310.34 1408.51,1310.56 1408.55,1310.79 1408.6,1311.01 1408.65,1311.23 1408.7,1311.45 1408.75,1311.66 1408.8,1311.87 1408.86,1312.09 1408.91,1312.3 1408.97,1312.51 1409.03,1312.72 1409.09,1312.92 1409.15,1313.13 1409.22,1313.34 1409.29,1313.56 1409.36,1313.77 1409.43,1313.98 1409.51,1314.19 1409.6,1314.4 1409.68,1314.61 1409.77,1314.82 1409.87,1315.03 1409.97,1315.24 1410.07,1315.44 1410.18,1315.64 1410.3,1315.84 1410.42,1316.04 1410.54,1316.23 1410.66,1316.41 1410.79,1316.59 1410.92,1316.76 1411.05,1316.93 1411.18,1317.1 1411.31,1317.26 1411.44,1317.42 1411.58,1317.58 1411.71,1317.73 1411.85,1317.89 1411.98,1318.04 1412.12,1318.19 1412.26,1318.34 1412.4,1318.48 1412.54,1318.63 1412.69,1318.77 1412.83,1318.92 1412.98,1319.06 1413.14,1319.2 1413.29,1319.34 1413.45,1319.47 1413.62,1319.61 1413.79,1319.73 1413.96,1319.86 1414.13,1319.98 1414.31,1320.09 1414.49,1320.2 1414.67,1320.3 1414.86,1320.4 1415.04,1320.49 1415.22,1320.58 1415.41,1320.66 1415.59,1320.73 1415.78,1320.8 1415.96,1320.87 1416.14,1320.93 1416.32,1320.99 1416.5,1321.05 1416.68,1321.1 1416.87,1321.15 1417.05,1321.2 1417.23,1321.25 1417.41,1321.3 1417.6,1321.34 1417.78,1321.38 1417.97,1321.42 1418.16,1321.46 1418.35,1321.49 1418.54,1321.52 1418.73,1321.54 1418.93,1321.56 1419.13,1321.58 1419.33,1321.59 1419.53,1321.59 1419.73,1321.59 1419.93,1321.58 1420.14,1321.56 1420.34,1321.54 1420.54,1321.51 1420.73,1321.48 1420.93,1321.44 1421.12,1321.4 1421.31,1321.35 1421.5,1321.3 1421.68,1321.25 1421.87,1321.2 1422.05,1321.14 1422.23,1321.08 1422.41,1321.02 1422.59,1320.95 1422.77,1320.89 1422.94,1320.82 1423.12,1320.75 1423.3,1320.68 1423.48,1320.6 1423.66,1320.52 1423.83,1320.44 1424.01,1320.35 1424.19,1320.26 1424.37,1320.16 1424.55,1320.06 1424.73,1319.95 1424.91,1319.84 1425.08,1319.72 1425.26,1319.6 1425.43,1319.47 1425.6,1319.33 1425.76,1319.19 1425.92,1319.04 1426.07,1318.9 1426.23,1318.75 1426.37,1318.6 1426.52,1318.44 1426.66,1318.29 1426.8,1318.13 1426.93,1317.97 1427.07,1317.81 1427.2,1317.65 1427.33,1317.49 1427.46,1317.33 1427.58,1317.17 1427.71,1317 1427.83,1316.83 1427.96,1316.66 1428.08,1316.49 1428.2,1316.32 1428.32,1316.14 1428.44,1315.95 1428.56,1315.77 1428.68,1315.57 1428.79,1315.38 1428.9,1315.18 1429,1314.97 1429.11,1314.76 1429.2,1314.55 1429.29,1314.33 1429.38,1314.12 1429.46,1313.9 1429.54,1313.68 1429.61,1313.46 1429.68,1313.24 1429.75,1313.02 1429.81,1312.8 1429.87,1312.58 1429.92,1312.37 1429.97,1312.15 1430.02,1311.93 1430.07,1311.72 1430.12,1311.5 1430.16,1311.29 1430.2,1311.07 1430.25,1310.85 1430.29,1310.63 1430.32,1310.41 1430.36,1310.19 1430.39,1309.97 1430.42,1309.74 1430.45,1309.51 1430.48,1309.28 1430.5,1309.04 1430.51,1308.8 1430.52,1308.56 1430.53,1308.32 1430.53,1308.08 1430.53,1307.84 1430.52,1307.6 1430.5,1307.37 1430.48,1307.13 1430.46,1306.9 1430.43,1306.66 1430.4,1306.43 1430.37,1306.21 1430.33,1305.98 1430.3,1305.76 1430.25,1305.54 1430.21,1305.33 1430.17,1305.11 1430.12,1304.9 1430.07,1304.68 1430.02,1304.47 1429.97,1304.26 1429.92,1304.05 1429.87,1303.84 1429.81,1303.62 1429.75,1303.41 1429.69,1303.19 1429.62,1302.98 1429.55,1302.76 1429.48,1302.54 1429.4,1302.33 1429.32,1302.11 1429.23,1301.9 1429.14,1301.69 1429.04,1301.48 1428.94,1301.28 1428.83,1301.08 1428.72,1300.88 1428.61,1300.69 1428.5,1300.5 1428.38,1300.32 1428.26,1300.14 1428.14,1299.97 1428.02,1299.8 1427.9,1299.63 1427.77,1299.46 1427.65,1299.3 1427.52,1299.14 1427.4,1298.98 1427.27,1298.83 1427.15,1298.67 1427.02,1298.52 1426.89,1298.36 1426.75,1298.21 1426.62,1298.06 1426.48,1297.91 1426.34,1297.75 1426.19,1297.61 1426.05,1297.46 1425.89,1297.32 1425.74,1297.18 1425.58,1297.04 1425.41,1296.91 1425.25,1296.78 1425.08,1296.66 1424.91,1296.55 1424.74,1296.44 1424.57,1296.33 1424.39,1296.23 1424.22,1296.13 1424.04,1296.04 1423.87,1295.96 1423.69,1295.88 1423.52,1295.8 1423.35,1295.73 1423.17,1295.66 1423,1295.59 1422.83,1295.52 1422.66,1295.46 1422.49,1295.4 1422.31,1295.33 1422.14,1295.27 1421.96,1295.22 1421.79,1295.16 1421.61,1295.1 1421.43,1295.05 1421.24,1295 1421.05,1294.96 1420.86,1294.92 1420.67,1294.89 1420.48,1294.86 1420.29,1294.83 1420.09,1294.82 1419.9,1294.8 1419.7,1294.8 1419.51,1294.8 1419.32,1294.8 1419.12,1294.81 1418.93,1294.83 1418.74,1294.85 1418.55,1294.87 1418.37,1294.9 1418.18,1294.93 1418,1294.96 1417.82,1295 1417.65,1295.04 1417.47,1295.08 "/>
<polyline clip-path="url(#clip161)" style="stroke:#ca3c32; stroke-linecap:round; stroke-linejoin:round; stroke-width:4; stroke-opacity:1; fill:none" points="1416.39,1310.14 1416.25,1310.18 1416.11,1310.23 1415.97,1310.27 1415.84,1310.32 1415.72,1310.37 1415.59,1310.43 1415.47,1310.48 1415.36,1310.54 1415.25,1310.6 1415.14,1310.66 1415.04,1310.72 1414.95,1310.78 1414.86,1310.85 1414.77,1310.91 1414.69,1310.98 1414.62,1311.04 1414.55,1311.11 1414.48,1311.17 1414.42,1311.24 1414.37,1311.31 1414.32,1311.37 1414.28,1311.43 1414.24,1311.5 1414.21,1311.56 1414.19,1311.62 1414.17,1311.67 1414.15,1311.73 1414.15,1311.78 1414.14,1311.83 1414.15,1311.88 1414.16,1311.92 1414.17,1311.96 1414.19,1312 1414.21,1312.03 1414.24,1312.06 1414.28,1312.08 1414.32,1312.1 1414.37,1312.11 1414.42,1312.12 1414.47,1312.12 1414.53,1312.12 1414.59,1312.11 1414.66,1312.1 1414.73,1312.08 1414.81,1312.05 1414.88,1312.01 1414.97,1311.97 1415.05,1311.92 1415.14,1311.86 1415.22,1311.8 1415.31,1311.72 1415.41,1311.64 1415.5,1311.56 1415.59,1311.46 1415.69,1311.35 1415.78,1311.24 1415.88,1311.12 1415.97,1310.99 1416.06,1310.86 1416.15,1310.71 1416.24,1310.56 1416.33,1310.4 1416.41,1310.24 1416.49,1310.06 1416.57,1309.88 1416.64,1309.7 1416.71,1309.51 1416.78,1309.31 1416.84,1309.11 1416.89,1308.91 1416.94,1308.7 1416.98,1308.48 1417.02,1308.27 1417.05,1308.05 1417.08,1307.83 1417.09,1307.62 1417.11,1307.4 1417.11,1307.18 1417.11,1306.96 1417.11,1306.75 1417.09,1306.54 1417.08,1306.33 1417.05,1306.12 1417.02,1305.92 1416.99,1305.72 1416.95,1305.53 1416.91,1305.35 1416.86,1305.17 1416.81,1305 1416.75,1304.83 1416.69,1304.68 1416.63,1304.53 1416.57,1304.38 1416.5,1304.25 1416.43,1304.12 1416.37,1304 1416.3,1303.89 1416.23,1303.79 1416.16,1303.69 1416.09,1303.61 1416.02,1303.53 1415.95,1303.46 1415.88,1303.4 1415.82,1303.35 1415.76,1303.3 1415.69,1303.26 1415.64,1303.23 1415.58,1303.21 1415.53,1303.2 1415.48,1303.19 1415.43,1303.19 1415.39,1303.19 1415.35,1303.21 1415.31,1303.23 1415.28,1303.25 1415.26,1303.28 1415.24,1303.32 1415.22,1303.36 1415.21,1303.41 1415.2,1303.46 1415.2,1303.52 1415.2,1303.58 1415.21,1303.64 1415.22,1303.71 1415.24,1303.79 1415.27,1303.86 1415.3,1303.94 1415.33,1304.03 1415.38,1304.11 1415.42,1304.2 1415.47,1304.29 1415.53,1304.38 1415.6,1304.47 1415.66,1304.56 1415.74,1304.66 1415.82,1304.75 1415.9,1304.85 1415.99,1304.95 1416.09,1305.04 1416.19,1305.14 1416.29,1305.23 1416.4,1305.33 1416.52,1305.42 1416.64,1305.51 1416.76,1305.61 1416.89,1305.7 1417.02,1305.78 1417.16,1305.87 1417.3,1305.95 1417.44,1306.03 1417.59,1306.11 1417.74,1306.19 1417.89,1306.26 1418.05,1306.33 1418.21,1306.4 1418.37,1306.47 1418.53,1306.53 1418.7,1306.58 1418.87,1306.64 1419.04,1306.69 1419.21,1306.73 1419.38,1306.77 1419.55,1306.81 1419.73,1306.85 1419.9,1306.88 1420.08,1306.9 1420.25,1306.93 1420.43,1306.94 1420.6,1306.96 1420.77,1306.97 1420.94,1306.97 1421.12,1306.97 1421.28,1306.97 1421.45,1306.96 1421.62,1306.95 1421.78,1306.94 1421.94,1306.92 1422.1,1306.9 1422.26,1306.87 1422.41,1306.84 1422.56,1306.81 1422.7,1306.77 1422.85,1306.73 1422.98,1306.69 1423.12,1306.65 1423.25,1306.6 1423.37,1306.55 1423.5,1306.49 1423.61,1306.44 1423.72,1306.38 1423.83,1306.32 1423.93,1306.26 1424.03,1306.2 1424.12,1306.14 1424.2,1306.07 1424.28,1306.01 1424.35,1305.94 1424.42,1305.88 1424.48,1305.81 1424.54,1305.75 1424.59,1305.68 1424.63,1305.62 1424.67,1305.55 1424.7,1305.49 1424.72,1305.43 1424.74,1305.38 1424.75,1305.32 1424.76,1305.27 1424.76,1305.22 1424.76,1305.17 1424.74,1305.13 1424.73,1305.09 1424.7,1305.06 1424.67,1305.03 1424.64,1305 1424.6,1304.98 1424.55,1304.96 1424.5,1304.95 1424.45,1304.95 1424.38,1304.95 1424.32,1304.96 1424.25,1304.97 1424.18,1304.99 1424.1,1305.02 1424.02,1305.06 1423.93,1305.1 1423.85,1305.15 1423.76,1305.21 1423.66,1305.28 1423.57,1305.35 1423.47,1305.44 1423.38,1305.53 1423.28,1305.63 1423.18,1305.74 1423.08,1305.85 1422.98,1305.98 1422.89,1306.11 1422.79,1306.26 1422.7,1306.41 1422.61,1306.56 1422.52,1306.73 1422.43,1306.9 1422.35,1307.08 1422.27,1307.27 1422.2,1307.46 1422.13,1307.66 1422.07,1307.86 1422.01,1308.07 1421.96,1308.28 1421.92,1308.49 1421.88,1308.71 1421.84,1308.92 1421.81,1309.14 1421.79,1309.36 1421.78,1309.58 1421.77,1309.8 1421.77,1310.02 1421.78,1310.24 1421.79,1310.45 1421.81,1310.66 1421.83,1310.87 1421.86,1311.07 1421.89,1311.26 1421.93,1311.45 1421.97,1311.64 1422.02,1311.82 1422.07,1311.99 1422.13,1312.15 1422.18,1312.31 1422.24,1312.46 1422.31,1312.6 1422.37,1312.73 1422.44,1312.86 1422.51,1312.98 1422.57,1313.09 1422.64,1313.19 1422.71,1313.28 1422.78,1313.36 1422.85,1313.44 1422.91,1313.51 1422.98,1313.57 1423.04,1313.62 1423.11,1313.66 1423.17,1313.7 1423.22,1313.73 1423.28,1313.75 1423.33,1313.77 1423.38,1313.77 1423.42,1313.77 1423.47,1313.77 1423.5,1313.75 1423.54,1313.74 1423.57,1313.71 1423.6,1313.68 1423.62,1313.64 1423.63,1313.6 1423.65,1313.56 1423.65,1313.5 1423.66,1313.45 1423.65,1313.39 1423.65,1313.32 1423.64,1313.25 1423.62,1313.18 1423.6,1313.11 1423.57,1313.03 1423.53,1312.95 1423.5,1312.86 1423.45,1312.78 1423.4,1312.69 1423.35,1312.6 1423.29,1312.51 1423.23,1312.41 1423.16,1312.32 1423.08,1312.22 1423,1312.13 1422.92,1312.03 1422.83,1311.93 1422.74,1311.84 1422.64,1311.74 1422.53,1311.65 1422.42,1311.55 1422.31,1311.46 1422.2,1311.36 1422.07,1311.27 1421.95,1311.18 1421.82,1311.09 1421.69,1311 1421.55,1310.92 1421.41,1310.84 1421.27,1310.76 1421.12,1310.68 1420.97,1310.6 1420.82,1310.53 1420.67,1310.46 1420.51,1310.39 1420.35,1310.33 1420.19,1310.26 1420.03,1310.21 1419.87,1310.15 1419.7,1310.1 1419.53,1310.05 1419.37,1310.01 1419.2,1309.97 1419.03,1309.93 1418.86,1309.9 1418.69,1309.87 1418.52,1309.84 1418.35,1309.82 1418.18,1309.8 1418.01,1309.79 1417.85,1309.78 1417.68,1309.77 1417.52,1309.77 1417.35,1309.77 1417.19,1309.78 1417.03,1309.78 1416.87,1309.8 1416.72,1309.81 1416.57,1309.83 1416.42,1309.85 1416.27,1309.88 1416.13,1309.91 1415.99,1309.94 1415.85,1309.97 1415.72,1310.01 "/>
<polyline clip-path="url(#clip161)" style="stroke:#399746; stroke-linecap:round; stroke-linejoin:round; stroke-width:4; stroke-opacity:1; fill:none" points="894.616,1289.76 893.995,1300.68 893.517,1311.61 893.182,1322.57 892.991,1333.56 892.943,1344.55 893.039,1355.57 893.28,1366.59 893.665,1377.62 894.194,1388.67 894.869,1399.71 895.689,1410.76 896.653,1421.81 897.763,1432.85 899.018,1443.89 900.418,1454.91 901.964,1465.93 903.655,1476.94 905.491,1487.92 907.472,1498.89 909.599,1509.84 911.87,1520.76 914.286,1531.66 916.847,1542.52 919.552,1553.36 922.402,1564.16 925.395,1574.93 928.533,1585.65 931.813,1596.33 935.237,1606.97 938.803,1617.56 942.512,1628.1 946.363,1638.59 950.356,1649.03 954.49,1659.4 958.764,1669.72 963.178,1679.97 967.733,1690.16 972.426,1700.29 977.258,1710.34 982.228,1720.32 987.335,1730.22 992.579,1740.04 997.958,1749.79 1003.47,1759.45 1009.12,1769.03 1014.91,1778.52 1020.82,1787.92 1026.87,1797.22 1033.05,1806.43 1039.36,1815.55 1045.8,1824.56 1052.37,1833.47 1059.07,1842.27 1065.89,1850.97 1072.84,1859.55 1079.92,1868.03 1087.11,1876.38 1094.43,1884.62 1101.87,1892.74 1109.44,1900.74 1117.12,1908.61 1124.92,1916.35 1132.83,1923.96 1140.86,1931.44 1149.01,1938.79 1157.27,1946 1165.63,1953.07 1174.11,1959.99 1182.7,1966.77 1191.4,1973.41 1200.19,1979.89 1209.1,1986.23 1218.11,1992.41 1227.21,1998.43 1236.42,2004.3 1245.72,2010 1255.12,2015.55 1264.61,2020.92 1274.2,2026.13 1283.88,2031.17 1293.64,2036.04 1303.49,2040.73 1313.43,2045.25 1323.45,2049.59 1333.55,2053.75 1343.73,2057.73 1353.98,2061.52 1364.31,2065.12 1374.71,2068.54 1385.19,2071.77 1395.73,2074.8 1406.34,2077.64 1417.01,2080.28 1427.74,2082.73 1438.53,2084.97 1449.38,2087.01 1460.28,2088.85 1471.23,2090.49 1482.23,2091.92 1493.28,2093.13 1504.38,2094.14 1515.51,2094.94 1526.68,2095.52 1537.89,2095.89 1549.14,2096.04 1560.41,2095.98 1571.71,2095.69 1583.04,2095.19 1594.39,2094.46 1605.76,2093.51 1617.15,2092.33 1628.55,2090.94 1639.96,2089.31 1651.37,2087.46 1662.8,2085.38 1674.22,2083.07 1685.64,2080.53 1697.06,2077.75 1708.47,2074.75 1719.87,2071.52 1731.25,2068.05 1742.62,2064.35 1753.97,2060.41 1765.29,2056.25 1776.59,2051.84 1787.85,2047.2 1799.08,2042.33 1810.28,2037.22 1821.43,2031.88 1832.54,2026.3 1843.6,2020.48 1854.61,2014.43 1865.57,2008.14 1876.46,2001.62 1887.3,1994.87 1898.07,1987.88 1908.78,1980.66 1919.41,1973.2 1929.97,1965.51 1940.45,1957.59 1950.84,1949.44 1961.15,1941.06 1971.37,1932.45 1981.5,1923.62 1991.53,1914.55 2001.46,1905.27 2011.28,1895.75 2021,1886.02 2030.61,1876.06 2040.1,1865.88 2049.48,1855.49 2058.73,1844.88 2067.86,1834.06 2076.86,1823.02 2085.73,1811.77 2094.46,1800.31 2103.06,1788.65 2111.51,1776.78 2119.81,1764.71 2127.97,1752.45 2135.97,1739.98 2143.82,1727.32 2151.51,1714.47 2159.04,1701.44 2166.4,1688.21 2173.59,1674.81 2180.61,1661.22 2187.45,1647.46 2194.11,1633.52 2200.6,1619.41 2206.9,1605.14 2213.01,1590.7 2218.93,1576.11 2224.65,1561.36 2230.18,1546.45 2235.51,1531.4 2240.64,1516.2 2245.57,1500.86 2250.28,1485.39 2254.79,1469.78 2259.08,1454.04 2263.16,1438.18 2267.02,1422.2 2270.66,1406.11 2274.08,1389.9 2277.27,1373.59 2280.24,1357.18 2282.98,1340.67 2285.49,1324.06 2287.76,1307.37 2289.8,1290.6 2291.61,1273.75 2293.17,1256.83 2294.49,1239.83 2295.58,1222.78 2296.42,1205.67 2297.01,1188.51 2297.36,1171.29 2297.46,1154.04 2297.32,1136.75 2296.92,1119.43 2296.27,1102.09 2295.37,1084.73 2294.22,1067.35 2292.82,1049.96 2291.16,1032.57 2289.24,1015.18 2287.08,997.795 2284.65,980.427 2281.97,963.078 2279.04,945.754 2275.84,928.461 2272.4,911.203 2268.69,893.988 2264.73,876.821 2260.52,859.708 2256.04,842.654 2251.32,825.665 2246.34,808.747 2241.1,791.905 2235.61,775.147 2229.87,758.476 2223.88,741.9 2217.64,725.423 2211.14,709.052 2204.4,692.792 2197.42,676.649 2190.18,660.628 2182.71,644.736 2174.99,628.978 2167.03,613.359 2158.83,597.885 2150.4,582.562 2141.73,567.394 2132.82,552.389 2123.69,537.55 2114.33,522.883 2104.74,508.394 2094.92,494.088 2084.89,479.97 2074.64,466.045 2064.17,452.318 2053.48,438.794 2042.59,425.479 2031.49,412.378 2020.18,399.494 2008.68,386.833 1996.97,374.4 1985.07,362.199 1972.98,350.234 1960.7,338.511 1948.23,327.034 1935.59,315.807 1922.76,304.834 1909.77,294.119 1896.6,283.667 1883.27,273.481 1869.77,263.566 1856.12,253.925 1842.31,244.562 1828.35,235.48 1814.25,226.683 1800,218.175 1785.62,209.958 1771.1,202.037 1756.46,194.414 1741.69,187.091 1726.8,180.073 1711.8,173.362 1696.68,166.96 1681.46,160.87 1666.14,155.095 1650.72,149.637 1635.21,144.498 1619.61,139.681 1603.93,135.187 1588.17,131.018 1572.34,127.177 1556.44,123.664 1540.48,120.482 1524.46,117.632 1508.39,115.115 1492.27,112.933 1476.1,111.086 1459.9,109.576 1443.67,108.403 1427.41,107.569 1411.12,107.074 1394.82,106.918 1378.5,107.102 1362.18,107.626 1345.85,108.491 1329.53,109.696 1313.21,111.242 1296.91,113.128 1280.62,115.354 1264.36,117.92 1248.12,120.825 1231.92,124.068 1215.75,127.649 1199.63,131.567 1183.55,135.822 1167.53,140.411 1151.56,145.334 1135.66,150.589 1119.82,156.176 1104.06,162.093 1088.37,168.337 1072.76,174.908 1057.24,181.804 1041.81,189.022 1026.47,196.561 1011.24,204.419 996.108,212.593 981.087,221.081 966.18,229.881 951.391,238.99 936.725,248.406 922.185,258.126 907.777,268.147 893.505,278.466 879.372,289.081 865.384,299.988 851.543,311.185 837.855,322.667 824.323,334.433 810.951,346.478 797.744,358.799 784.704,371.393 771.836,384.256 759.143,397.384 746.629,410.774 734.298,424.421 722.154,438.323 710.199,452.474 698.437,466.872 686.872,481.512 675.507,496.389 664.344,511.501 653.388,526.841 642.641,542.407 632.107,558.194 621.787,574.198 611.686,590.413 601.806,606.836 592.15,623.462 582.72,640.286 573.519,657.304 564.55,674.511 555.815,691.903 547.316,709.474 539.057,727.22 531.038,745.136 523.263,763.217 515.733,781.458 508.451,799.854 501.419,818.401 494.638,837.093 488.11,855.926 481.837,874.894 475.822,893.991 470.064,913.214 464.567,932.557 459.331,952.015 454.358,971.583 "/>
<path clip-path="url(#clip160)" d="M464.188 2085.43 L782.057 2085.43 L782.057 1878.07 L464.188 1878.07  Z" fill="#000000" fill-rule="evenodd" fill-opacity="0"/>
<polyline clip-path="url(#clip160)" style="stroke:#000000; stroke-linecap:round; stroke-linejoin:round; stroke-width:4; stroke-opacity:1; fill:none" points="464.188,2085.43 782.057,2085.43 782.057,1878.07 464.188,1878.07 464.188,2085.43 "/>
<polyline clip-path="url(#clip160)" style="stroke:#1f83ff; stroke-linecap:round; stroke-linejoin:round; stroke-width:4; stroke-opacity:1; fill:none" points="485.896,1929.91 616.142,1929.91 "/>
<path clip-path="url(#clip160)" d="M637.85 1912.63 L659.701 1912.63 L659.701 1916.57 L642.526 1916.57 L642.526 1926.8 L658.984 1926.8 L658.984 1930.73 L642.526 1930.73 L642.526 1943.26 L660.118 1943.26 L660.118 1947.19 L637.85 1947.19 L637.85 1912.63 Z" fill="#000000" fill-rule="nonzero" fill-opacity="1" /><path clip-path="url(#clip160)" d="M679.4 1934.16 Q674.238 1934.16 672.248 1935.34 Q670.257 1936.52 670.257 1939.37 Q670.257 1941.64 671.738 1942.98 Q673.243 1944.3 675.812 1944.3 Q679.354 1944.3 681.484 1941.8 Q683.636 1939.28 683.636 1935.11 L683.636 1934.16 L679.4 1934.16 M687.896 1932.4 L687.896 1947.19 L683.636 1947.19 L683.636 1943.26 Q682.178 1945.62 680.002 1946.75 Q677.826 1947.86 674.678 1947.86 Q670.697 1947.86 668.336 1945.64 Q665.998 1943.4 665.998 1939.65 Q665.998 1935.27 668.914 1933.05 Q671.854 1930.83 677.664 1930.83 L683.636 1930.83 L683.636 1930.41 Q683.636 1927.47 681.692 1925.87 Q679.771 1924.25 676.275 1924.25 Q674.053 1924.25 671.947 1924.79 Q669.84 1925.32 667.896 1926.38 L667.896 1922.45 Q670.234 1921.54 672.433 1921.1 Q674.632 1920.64 676.715 1920.64 Q682.34 1920.64 685.118 1923.56 Q687.896 1926.48 687.896 1932.4 Z" fill="#000000" fill-rule="nonzero" fill-opacity="1" /><path clip-path="url(#clip160)" d="M711.692 1925.25 Q710.974 1924.83 710.118 1924.65 Q709.284 1924.44 708.266 1924.44 Q704.655 1924.44 702.71 1926.8 Q700.789 1929.14 700.789 1933.54 L700.789 1947.19 L696.507 1947.19 L696.507 1921.27 L700.789 1921.27 L700.789 1925.29 Q702.132 1922.93 704.284 1921.8 Q706.437 1920.64 709.516 1920.64 Q709.956 1920.64 710.488 1920.71 Q711.021 1920.76 711.669 1920.87 L711.692 1925.25 Z" fill="#000000" fill-rule="nonzero" fill-opacity="1" /><path clip-path="url(#clip160)" d="M720.372 1913.91 L720.372 1921.27 L729.145 1921.27 L729.145 1924.58 L720.372 1924.58 L720.372 1938.65 Q720.372 1941.82 721.229 1942.73 Q722.108 1943.63 724.77 1943.63 L729.145 1943.63 L729.145 1947.19 L724.77 1947.19 Q719.84 1947.19 717.965 1945.36 Q716.09 1943.51 716.09 1938.65 L716.09 1924.58 L712.965 1924.58 L712.965 1921.27 L716.09 1921.27 L716.09 1913.91 L720.372 1913.91 Z" fill="#000000" fill-rule="nonzero" fill-opacity="1" /><path clip-path="url(#clip160)" d="M756.298 1931.54 L756.298 1947.19 L752.039 1947.19 L752.039 1931.68 Q752.039 1928 750.604 1926.17 Q749.169 1924.35 746.298 1924.35 Q742.849 1924.35 740.858 1926.54 Q738.868 1928.74 738.868 1932.54 L738.868 1947.19 L734.585 1947.19 L734.585 1911.17 L738.868 1911.17 L738.868 1925.29 Q740.395 1922.96 742.456 1921.8 Q744.539 1920.64 747.247 1920.64 Q751.715 1920.64 754.006 1923.42 Q756.298 1926.17 756.298 1931.54 Z" fill="#000000" fill-rule="nonzero" fill-opacity="1" /><polyline clip-path="url(#clip160)" style="stroke:#ca3c32; stroke-linecap:round; stroke-linejoin:round; stroke-width:4; stroke-opacity:1; fill:none" points="485.896,1981.75 616.142,1981.75 "/>
<path clip-path="url(#clip160)" d="M644.956 1964.47 L649.632 1964.47 L649.632 1996.63 Q649.632 2002.88 647.248 2005.7 Q644.887 2008.52 639.632 2008.52 L637.85 2008.52 L637.85 2004.59 L639.308 2004.59 Q642.41 2004.59 643.683 2002.85 Q644.956 2001.12 644.956 1996.63 L644.956 1964.47 Z" fill="#000000" fill-rule="nonzero" fill-opacity="1" /><path clip-path="url(#clip160)" d="M655.859 1964.47 L660.581 1964.47 L667.85 1993.69 L675.095 1964.47 L680.349 1964.47 L687.618 1993.69 L694.863 1964.47 L699.609 1964.47 L690.928 1999.03 L685.048 1999.03 L677.757 1969.03 L670.396 1999.03 L664.516 1999.03 L655.859 1964.47 Z" fill="#000000" fill-rule="nonzero" fill-opacity="1" /><path clip-path="url(#clip160)" d="M726.53 1965.61 L726.53 1970.17 Q723.868 1968.89 721.507 1968.27 Q719.146 1967.64 716.946 1967.64 Q713.127 1967.64 711.044 1969.13 Q708.984 1970.61 708.984 1973.34 Q708.984 1975.63 710.349 1976.81 Q711.738 1977.97 715.581 1978.69 L718.405 1979.26 Q723.636 1980.26 726.113 1982.78 Q728.613 1985.28 728.613 1989.5 Q728.613 1994.52 725.233 1997.11 Q721.877 1999.7 715.372 1999.7 Q712.919 1999.7 710.141 1999.15 Q707.386 1998.59 704.423 1997.5 L704.423 1992.69 Q707.271 1994.29 710.002 1995.1 Q712.734 1995.91 715.372 1995.91 Q719.377 1995.91 721.553 1994.33 Q723.729 1992.76 723.729 1989.84 Q723.729 1987.3 722.155 1985.86 Q720.604 1984.43 717.039 1983.71 L714.192 1983.15 Q708.96 1982.11 706.622 1979.89 Q704.284 1977.67 704.284 1973.71 Q704.284 1969.13 707.502 1966.49 Q710.743 1963.85 716.414 1963.85 Q718.845 1963.85 721.368 1964.29 Q723.891 1964.73 726.53 1965.61 Z" fill="#000000" fill-rule="nonzero" fill-opacity="1" /><path clip-path="url(#clip160)" d="M731.113 1964.47 L760.349 1964.47 L760.349 1968.41 L748.081 1968.41 L748.081 1999.03 L743.382 1999.03 L743.382 1968.41 L731.113 1968.41 L731.113 1964.47 Z" fill="#000000" fill-rule="nonzero" fill-opacity="1" /><polyline clip-path="url(#clip160)" style="stroke:#399746; stroke-linecap:round; stroke-linejoin:round; stroke-width:4; stroke-opacity:1; fill:none" points="485.896,2033.59 616.142,2033.59 "/>
<path clip-path="url(#clip160)" d="M663.405 2045.94 L663.405 2036.66 L655.766 2036.66 L655.766 2032.82 L668.035 2032.82 L668.035 2047.66 Q665.326 2049.58 662.062 2050.57 Q658.799 2051.54 655.095 2051.54 Q646.993 2051.54 642.41 2046.82 Q637.85 2042.08 637.85 2033.63 Q637.85 2025.16 642.41 2020.43 Q646.993 2015.69 655.095 2015.69 Q658.475 2015.69 661.507 2016.52 Q664.562 2017.35 667.132 2018.97 L667.132 2023.95 Q664.539 2021.75 661.623 2020.64 Q658.706 2019.53 655.488 2019.53 Q649.146 2019.53 645.951 2023.07 Q642.78 2026.61 642.78 2033.63 Q642.78 2040.62 645.951 2044.16 Q649.146 2047.7 655.488 2047.7 Q657.965 2047.7 659.91 2047.28 Q661.854 2046.84 663.405 2045.94 Z" fill="#000000" fill-rule="nonzero" fill-opacity="1" /><path clip-path="url(#clip160)" d="M688.127 2020.92 L681.785 2038.12 L694.493 2038.12 L688.127 2020.92 M685.488 2016.31 L690.789 2016.31 L703.96 2050.87 L699.099 2050.87 L695.951 2042.01 L680.373 2042.01 L677.224 2050.87 L672.294 2050.87 L685.488 2016.31 Z" fill="#000000" fill-rule="nonzero" fill-opacity="1" /><path clip-path="url(#clip160)" d="M709.007 2016.31 L713.683 2016.31 L713.683 2050.87 L709.007 2050.87 L709.007 2016.31 Z" fill="#000000" fill-rule="nonzero" fill-opacity="1" /><path clip-path="url(#clip160)" d="M734.539 2020.92 L728.196 2038.12 L740.905 2038.12 L734.539 2020.92 M731.9 2016.31 L737.201 2016.31 L750.372 2050.87 L745.511 2050.87 L742.363 2042.01 L726.784 2042.01 L723.636 2050.87 L718.706 2050.87 L731.9 2016.31 Z" fill="#000000" fill-rule="nonzero" fill-opacity="1" /></svg>
